<svg width="76" height="37" viewBox="0 0 76 37" fill="none" xmlns="http://www.w3.org/2000/svg">
<path d="M74.4559 1.55356V35.4464H59.1571V10.2768V9.63336L58.7046 9.17816L57.1137 7.57801V1.55356H74.4559ZM45.4506 1.55356L52.718 8.86562V28.1344L45.4506 35.4464H36.9233L29.6558 28.1344V8.86562L36.9233 1.55356H45.4506ZM17.3391 1.55356L24.6065 8.86512V15.7994L23.0156 17.3998L21.9239 18.4985L23.0156 19.5971L24.6065 21.1972V28.1318L17.3388 35.4464H1.54407V29.3876L4.94152 25.7243L5.92433 24.6645L4.94152 23.6045L1.54407 19.9415V17.0552L4.94152 13.3922L5.92433 12.3321L4.94152 11.2724L1.54407 7.6093V1.55356H17.3391ZM76 0H55.5697V8.22141L57.613 10.2768V37H76V0ZM46.0901 0H36.2837L28.1118 8.22223V28.7778L36.2837 37H46.0901L54.2621 28.7778V8.22223L46.0901 0ZM17.9783 0H0V8.22141L3.81254 12.3321L0 16.4429V20.5536L3.81254 24.6645L0 28.7752V37H17.9783L26.1506 28.7752V20.5536L24.1073 18.4985L26.1506 16.4429V8.22141L17.9783 0Z" fill="#313A4B"/>
</svg>
