<svg width="97" height="98" viewBox="0 0 97 98" fill="none" xmlns="http://www.w3.org/2000/svg">
<path d="M73.4407 45.5057C74.2561 44.6841 75.3433 44.2733 76.4305 44.2733C78.8767 44.2733 80.7792 46.1904 80.7792 48.6553C80.7792 51.1201 78.8767 53.0372 76.4305 53.0372C75.3433 53.0372 74.392 52.6264 73.5766 51.9417M23.8373 52.2156C23.0219 53.0372 21.9347 53.448 20.8475 53.448C18.4013 53.448 16.3629 51.5309 16.3629 49.203C16.3629 46.7382 18.2654 44.6841 20.5757 44.6841C21.6629 44.6841 22.6142 45.0949 23.4296 45.6427L37.9709 59.6101M51.9685 74.1254C52.7839 74.947 53.1916 76.0425 53.1916 77.1379C53.3275 79.6028 51.289 81.6568 48.9788 81.6568C46.6685 81.6568 44.4941 79.7397 44.4941 77.4118C44.4941 76.3163 44.7659 75.3578 45.4454 74.5362M62.0251 35.0986C65.6944 31.2644 70.9945 28.9365 76.2946 28.9365C87.1665 28.9365 96 37.8373 96 48.7922C96 59.7471 87.1665 68.6479 76.2946 68.6479C71.4022 68.6479 66.5098 66.7308 62.8405 63.3074M34.9811 35.3725C31.04 31.6752 28.7297 26.4716 28.7297 20.9942C28.5938 10.0393 37.4273 1.00156 48.2993 1.00156C59.1712 0.864623 68.1406 9.76546 68.1406 20.7203C68.1406 25.65 66.3739 30.5797 62.9764 34.277M35.5247 62.4858C31.8554 66.4569 26.6912 68.9218 21.2552 69.0587C10.3833 69.3326 1.278 60.5687 1.0062 49.6138C0.734402 38.6589 9.43198 29.4842 20.3039 29.2104C25.1963 29.0734 30.0887 30.9905 33.8939 34.1401M62.0251 62.3489C65.9662 65.9092 68.4124 71.1128 68.5483 76.5902C68.8201 87.5451 60.2584 96.7198 49.3864 96.9937C38.5145 97.2675 29.4092 88.6406 29.1374 77.6857C29.0015 72.756 30.7682 67.8263 34.0298 63.9921M62.2969 34.8247L59.5789 37.7004M48.571 48.7922L63.1123 63.4443M62.9764 34.0031L48.7069 48.7922L34.0298 64.129M48.7069 48.9291L33.758 34.1401M73.5766 45.5057L70.315 48.7922M48.4352 26.8825L45.1736 23.7329C44.3582 22.9113 43.9505 21.8158 43.9505 20.7203C43.9505 18.2555 45.8531 16.3384 48.2993 16.2014C50.7454 16.2014 52.648 18.1186 52.7839 20.5834C52.7839 21.6789 52.3762 22.6374 51.8326 23.4591L37.6991 37.9743M23.7014 52.2156L26.8271 48.9291M52.1044 74.2623L48.8428 71.1128M59.443 37.8373L73.7125 52.2156M59.3071 59.7471L45.4454 74.6731M13.3731 30.3059C10.1115 26.1978 6.84988 15.5168 7.93708 8.12223C15.0039 7.02674 24.5168 9.49159 29.9528 12.778M82.9536 67.4155C86.2152 71.5236 89.4768 82.2046 88.3896 89.5991C81.3228 90.6946 72.4894 88.5036 66.9175 85.2172M82.9536 30.3059C86.2152 26.1978 89.4768 15.5168 88.3896 8.12223C81.3228 7.02674 71.8099 9.49159 66.3739 12.778M13.3731 67.4155C10.1115 71.5236 6.84988 82.2046 7.93708 89.5991C15.0039 90.6946 24.7886 88.0928 30.3605 84.8064" stroke="#B2B4B8" stroke-width="1.57" stroke-miterlimit="22.926"/>
</svg>
