<svg width="429" height="429" viewBox="0 0 429 429" fill="none" xmlns="http://www.w3.org/2000/svg">
<path d="M296.129 281.344C283.686 282.9 271.244 282.9 258.801 280.956M244.414 278.234C242.858 277.845 241.303 277.456 239.747 277.067C235.081 285.622 230.027 293.01 223.805 300.398M393.728 200.855C382.063 183.746 364.176 169.747 343.568 160.026M330.347 154.583C315.182 149.139 298.851 146.028 282.52 145.639M267.744 146.028C258.412 146.806 248.691 148.361 239.747 151.083C238.97 149.528 238.581 148.75 237.803 147.584M391.784 307.397C382.84 324.117 370.398 342.781 356.399 356.779M346.29 333.449C352.511 331.505 359.899 333.449 364.565 338.115C366.12 339.67 367.287 341.614 368.453 343.559M365.343 364.945C357.955 372.333 345.901 372.333 338.513 364.945C335.013 361.445 332.68 355.613 333.069 350.558M346.678 333.06C335.013 336.948 322.57 338.115 309.739 337.726M294.963 335.782C277.076 332.671 259.578 325.672 244.414 315.562M232.36 307.008C224.194 300.398 217.195 293.01 210.973 285.233M202.419 272.401C199.697 267.346 197.753 263.458 196.197 258.014C185.31 263.458 173.645 266.568 161.202 267.735M336.18 335.393C340.068 315.173 337.735 293.01 330.347 272.79M324.515 259.569C318.293 246.738 310.127 235.072 300.795 224.574M350.956 344.725C347.845 345.503 345.512 346.669 343.179 347.447C331.514 350.947 319.071 352.502 305.85 351.724M291.852 350.169C272.799 346.669 253.746 339.281 236.637 328.394M224.972 319.839C219.139 315.173 213.306 310.507 208.251 304.675C204.752 301.175 201.641 296.898 198.919 293.01M190.365 280.956C189.587 279.4 189.198 278.622 188.421 277.067C179.089 279.789 170.145 281.344 160.424 282.122M350.567 331.894C354.455 311.285 351.733 289.121 343.957 267.735M338.124 254.126C331.125 239.739 321.793 226.129 310.905 214.075M121.151 392.941C103.654 383.609 85.3782 370.777 70.9911 356.39M70.9911 356.39C68.2692 353.669 68.2692 349.391 70.9911 346.669C73.713 343.948 77.9902 343.948 80.7121 346.669C83.434 349.391 83.434 353.669 80.7121 356.39C78.3791 359.112 73.713 359.112 70.9911 356.39ZM94.3215 345.892C96.2657 352.113 94.3215 359.501 89.6554 364.167C88.1001 365.723 86.1559 366.889 84.2117 368.056M62.8255 364.167C55.4375 356.779 55.4375 345.114 62.8255 338.115C66.325 334.615 71.7688 332.671 76.8237 332.671M94.3215 346.281C90.4331 334.615 89.2666 322.173 90.0443 309.341M91.9885 294.565C95.0992 276.678 102.098 259.569 112.208 244.016M120.763 232.351C127.373 224.185 135.15 216.797 142.926 210.576M91.9885 336.171C112.208 340.059 134.372 337.726 154.592 330.338M168.201 324.506C181.033 318.284 193.864 309.73 203.974 300.398M82.6563 350.558C82.2675 348.614 81.1009 346.281 80.3233 344.336C79.1567 340.837 78.3791 337.337 77.6014 333.449C75.6572 324.506 75.2684 314.785 76.046 305.064M77.6014 291.454C81.1009 272.401 88.4889 253.737 99.7652 237.017M108.32 224.963C116.097 215.242 125.04 205.909 135.15 198.522M95.488 350.169C116.097 354.057 138.26 351.336 159.647 343.948M173.645 338.115C188.032 331.116 201.641 322.173 213.695 310.896M414.336 231.962C412.392 251.404 407.726 272.79 399.949 291.843M381.674 273.956C386.729 269.679 394.117 268.901 400.338 271.235C402.282 272.012 404.227 273.179 405.782 274.734M411.615 295.731C407.337 305.452 396.061 310.118 386.34 306.23C381.674 304.286 377.786 300.009 375.841 295.343M382.063 273.568C372.731 281.344 362.232 287.566 350.178 291.843M335.791 295.731C318.293 299.62 298.851 300.009 280.576 296.509M266.189 293.01C256.079 289.899 246.747 286.01 238.192 280.956M225.36 272.401C221.083 268.902 217.584 265.791 214.084 261.514C205.918 270.457 196.197 277.845 185.31 283.677M373.508 279.789C369.231 259.569 358.732 240.127 344.345 224.185M333.458 214.075C322.959 204.743 310.905 196.577 298.073 191.134M283.298 185.301C271.243 181.801 259.189 179.857 247.135 180.635C247.524 175.191 247.524 170.136 246.747 164.304M390.228 282.9C388.284 284.066 386.34 286.399 384.396 287.955C375.064 296.12 364.176 301.953 351.733 306.23M337.735 310.118C319.071 314.396 298.462 314.396 278.243 310.896M264.244 307.785C252.19 304.286 240.525 299.62 229.638 293.398M217.584 284.844C216.417 283.677 215.251 282.9 214.084 281.733C206.696 287.566 198.53 293.01 189.976 297.287M385.173 271.235C380.896 251.015 370.009 231.184 354.455 214.464M343.957 203.965C331.902 193.078 318.293 184.134 303.517 177.524M289.519 172.08C280.576 168.97 271.243 167.026 261.523 165.859C261.523 164.304 261.523 163.526 261.134 161.582M343.568 368.056C328.403 380.498 309.739 392.552 291.074 400.329M307.017 392.552C307.017 390.219 306.628 388.275 305.461 386.331C302.74 380.11 297.296 375.832 290.685 375.055C278.243 373.888 266.189 370.389 254.912 364.945M295.74 411.606C286.019 415.494 274.743 410.828 270.855 401.107C268.91 396.441 268.91 390.219 271.243 385.553M242.469 357.946C227.305 348.225 213.306 334.615 203.197 319.839M195.42 307.008C190.365 298.064 186.476 288.343 184.143 278.622M181.033 263.847C180.255 258.403 180.255 253.348 180.644 247.515C168.59 248.293 156.536 246.738 144.482 242.849M280.187 373.499C291.463 356.002 298.073 335.004 298.851 313.618M298.851 298.453C298.073 284.066 294.963 270.068 290.297 257.236M290.297 387.498C289.13 387.109 287.964 387.498 286.797 387.498C273.188 387.109 259.578 383.22 246.747 376.999M233.526 369.611C217.195 359.112 202.419 345.114 191.143 328.394M183.366 315.951C177.144 305.064 172.478 293.398 169.368 281.344M166.646 266.957C166.257 265.402 166.257 264.235 166.257 262.68C156.925 261.514 147.204 259.569 138.26 256.459M294.963 375.832C306.239 358.335 312.46 336.56 313.627 313.618M313.238 298.842C312.46 282.9 308.961 266.568 303.128 251.404M59.7148 343.559C47.2719 328.394 35.2179 309.341 27.4411 290.288M35.2179 306.619C37.5509 306.619 39.4951 306.23 41.8282 305.064C48.0496 302.342 52.3268 296.898 53.1045 290.288C54.271 277.845 57.3817 266.18 62.8255 254.903M16.9424 294.954C13.054 285.233 17.3313 274.345 27.0522 270.457C31.7183 268.513 37.1621 268.513 41.8282 270.846M69.8246 242.46C70.6023 241.683 71.38 239.739 72.1576 238.961C81.8786 224.963 93.5438 212.909 107.931 203.576M120.374 195.411C129.706 190.356 140.205 186.468 149.926 183.746M54.6599 279.789C55.4375 280.178 56.2152 280.956 56.9929 281.344C73.713 291.843 93.9326 297.676 114.541 298.842M129.317 298.453C142.926 297.676 156.147 294.954 168.979 290.677C169.756 290.288 170.923 290.288 171.701 289.899M40.6616 289.51C41.0505 287.566 40.6616 284.455 41.0505 281.733C42.217 269.29 45.3277 257.625 51.1603 245.96M58.5483 233.128C69.0469 216.797 83.0451 202.799 99.7652 191.134M111.819 183.746C122.707 177.524 135.15 172.469 147.204 169.359M52.3268 294.565C69.8246 305.841 91.2108 312.063 114.152 313.229M128.928 313.229C144.871 312.452 161.591 308.952 176.755 303.508M274.354 406.551C255.301 411.994 234.693 415.883 214.084 415.883M214.084 415.883C210.196 415.883 207.085 412.772 207.085 408.884C207.085 404.995 210.196 401.885 214.084 401.885C217.972 401.885 221.083 404.995 221.083 408.884C221.083 412.772 217.972 415.883 214.084 415.883ZM231.582 414.716C232.36 412.772 232.748 410.439 232.748 408.106C232.748 401.496 229.249 395.274 223.416 392.164C212.529 386.331 202.808 378.554 194.253 369.222M214.473 427.548C203.974 427.548 195.42 418.605 195.42 408.495C195.42 403.44 197.753 397.996 201.641 394.497M185.31 357.946C174.811 343.17 167.423 325.283 163.535 307.397M164.701 247.515C166.257 242.072 168.201 237.405 170.534 232.739C159.258 228.851 148.37 222.63 139.038 214.853M214.084 386.331C231.193 374.666 245.191 357.557 254.135 338.115M259.967 324.506C264.633 310.896 267.355 296.898 267.744 282.9M267.355 267.346C266.189 254.903 262.689 243.627 257.245 232.739C262.3 230.795 267.355 228.851 272.41 226.129M217.972 403.44C215.251 401.885 212.529 401.107 209.807 399.552C199.308 393.719 189.976 386.331 181.422 376.999M172.478 365.334C161.591 349.391 153.425 330.727 149.148 310.896M146.815 296.509C145.259 284.066 145.259 271.623 147.204 259.181M150.314 244.793C150.703 243.238 151.092 242.46 151.481 240.905C142.926 236.239 135.15 230.795 128.151 224.574M226.916 394.108C244.025 382.443 258.023 364.556 267.744 343.948M273.188 330.727C278.631 315.562 281.742 299.231 282.131 283.289M282.131 268.124C281.353 258.403 279.798 249.071 277.076 240.127C278.631 239.739 279.409 239.35 280.576 238.572M196.586 414.716C177.144 412.772 154.98 408.106 135.927 400.329M153.425 406.162C154.98 404.607 156.147 402.662 156.925 400.718C159.258 394.497 158.48 387.109 154.203 382.054C146.426 372.722 140.205 361.445 135.927 349.78M132.039 411.217C122.707 407.328 118.041 396.052 121.929 386.72C123.873 382.054 128.151 377.777 132.817 376.221M132.039 335.393C128.151 317.895 128.151 299.231 131.261 281.344M134.761 266.957C137.872 256.847 142.149 246.738 147.204 238.183M155.369 226.129C158.869 221.852 162.368 218.352 166.646 214.464C157.702 206.687 150.314 196.577 144.482 185.69M147.981 373.499C168.201 369.222 187.643 358.723 203.585 344.336M214.084 333.838C222.639 324.506 229.638 313.618 235.081 302.731C235.859 301.175 236.637 299.231 237.414 297.676M242.858 283.677C246.358 271.623 247.524 259.958 247.135 247.904C252.579 248.293 258.023 248.293 263.856 247.515M145.259 390.219C144.093 388.275 141.371 386.331 139.816 383.998C132.039 374.666 126.206 363.39 121.929 350.947M117.652 337.726C113.375 319.062 113.375 298.842 116.874 279.011M120.374 264.235C123.873 252.181 128.539 240.516 135.15 229.629M143.704 217.964C144.871 216.797 145.259 216.019 146.037 214.853C140.205 207.465 134.761 199.299 130.484 190.745M156.925 385.553C177.144 381.276 196.975 370.389 213.695 354.835M224.194 343.948C235.081 331.894 244.025 318.673 250.635 303.897M256.079 289.899C259.189 280.956 261.134 271.623 262.3 261.902C263.856 261.902 264.633 261.902 266.577 261.514M21.2197 273.956C15.7759 256.07 12.2763 233.906 12.2763 214.075M35.9956 223.407C32.8848 229.24 26.2746 233.128 19.6643 233.128C17.3313 233.128 15.3871 232.739 13.054 231.962M1 214.464C1 203.965 9.55447 195.8 19.6643 195.8C24.7192 195.8 29.7741 198.133 33.2737 201.632M35.9956 223.796C41.8282 212.909 49.6049 203.188 58.9371 194.633M70.6023 185.301C85.3782 174.802 102.876 167.414 120.763 163.915M135.15 161.582C145.648 160.415 155.758 160.415 165.868 161.971M180.644 164.692C186.088 166.248 190.754 168.192 195.809 170.525C199.697 159.249 205.918 148.75 214.084 139.029M41.8282 215.242C53.8822 231.962 70.9911 245.571 90.0443 254.903M103.654 260.347C115.708 264.624 128.539 267.346 141.371 267.735C142.538 267.735 144.482 267.735 146.037 267.735M24.7192 218.741C30.5518 204.743 39.884 192.3 51.5491 181.801M62.8255 173.247C78.7679 162.359 97.4322 154.194 117.263 149.917M131.65 147.195C144.093 145.639 156.536 145.639 168.979 147.584M183.755 150.305C185.31 150.694 186.088 151.083 187.643 151.472C192.309 142.917 197.753 135.141 203.974 128.142M34.0514 227.685C46.1054 244.405 63.992 258.403 84.2117 268.513M97.821 273.568C112.986 279.011 129.317 282.122 145.648 282.511M35.6067 121.142C44.9389 103.645 56.9929 86.1469 71.38 71.7598M59.3259 84.9804C60.1036 86.9246 61.659 88.8688 63.2143 90.4241C67.8804 95.0902 74.8795 97.0344 81.1009 95.0902C93.5438 91.5906 105.209 90.0353 118.041 90.4241M63.2143 63.983C70.6023 56.9839 82.2675 56.9839 89.2666 63.983C92.7661 67.4826 94.7103 72.9264 94.7103 77.9813M132.817 92.3683C150.703 95.479 168.201 102.478 183.366 112.588M195.809 121.142C203.974 127.753 210.973 135.141 217.195 142.917M91.5996 93.146C87.7112 113.366 90.4331 135.141 97.821 155.36M103.265 168.97C109.486 181.801 117.652 193.467 126.984 203.576M77.2126 83.8139C79.9344 83.0362 81.8786 81.8697 84.6005 81.092C96.6545 77.2036 109.486 76.0371 122.318 76.8147M136.316 78.3701C155.369 81.8697 174.422 89.2576 191.531 100.145M203.197 108.7C212.918 116.476 221.861 125.42 229.638 135.141M77.2126 96.2567C73.3242 116.865 76.046 139.418 83.8228 160.804M89.6554 174.413C96.6545 188.801 105.987 202.41 116.874 214.464M307.017 35.5977C324.515 44.9299 342.79 57.7616 357.177 72.1487M333.458 82.2585C331.514 76.0371 333.458 68.6491 338.124 63.983C339.679 62.4277 341.623 61.2612 343.568 60.0946M365.343 63.5942C372.731 70.9822 372.342 83.425 364.954 90.4241C361.454 93.9237 356.399 96.2567 350.956 95.8679M333.458 81.8697C336.957 93.5348 338.513 105.978 337.735 118.809M336.18 133.196C336.18 134.363 335.791 135.918 335.402 136.696C331.902 153.416 324.903 169.747 315.571 184.134M307.017 196.188C300.406 204.354 293.019 211.353 284.853 217.575M335.791 92.3683C315.571 88.4799 293.407 90.813 273.188 98.2009M259.578 103.645C246.747 109.866 233.915 118.421 223.805 127.753M345.123 77.9813C345.512 79.9255 346.678 81.8697 347.067 83.425C351.344 95.8679 352.511 109.088 351.733 123.087M350.178 137.085C346.678 156.138 339.29 175.191 328.014 192.3M319.46 203.965C311.683 213.686 302.739 222.63 292.63 230.018M332.68 77.9813C312.072 74.0929 289.519 76.8147 268.133 84.2027M254.523 90.0353C240.136 97.0344 226.138 105.978 214.473 117.254M13.4429 197.355C15.3871 177.913 20.0531 156.138 27.8299 137.085M27.8299 137.085C29.3853 133.585 33.2737 131.641 36.7732 133.196C40.2728 134.752 41.8282 138.64 40.2728 142.14C38.7174 145.639 34.829 147.584 31.3295 146.028C27.8299 144.862 26.2746 140.973 27.8299 137.085ZM46.1054 154.583C41.0505 158.86 33.6625 159.638 27.4411 157.305C25.4969 156.527 23.5527 155.36 21.9973 153.805M17.7201 132.419C21.6085 123.087 32.496 118.421 41.8282 122.309C46.4942 124.253 50.3826 128.53 51.938 133.196M46.1054 154.972C55.4375 147.195 66.7139 140.973 78.3791 136.696M92.7661 132.419C110.264 128.53 129.317 128.53 147.204 131.641M161.591 135.141C171.701 138.251 181.033 142.14 189.587 147.195M202.419 156.138C206.696 159.638 210.585 163.137 214.084 167.414C222.25 158.471 231.971 151.083 242.858 145.251M54.6599 148.75C58.9371 168.97 69.4358 188.412 83.8228 204.354M94.3215 214.464C104.82 223.796 117.652 231.962 130.095 237.794M37.5509 145.639C39.884 144.084 41.0505 142.14 42.9947 140.584C52.3268 132.419 63.6032 126.586 76.046 122.309M90.4331 118.421C109.097 114.143 129.706 114.143 149.926 117.643M163.924 120.754C175.978 124.253 187.643 128.919 198.531 135.141M210.196 143.695C211.362 144.862 212.529 145.251 213.695 146.417C221.083 140.584 229.249 135.141 237.803 131.252M42.6058 156.916C46.8831 177.135 57.7706 197.355 73.3242 214.075M83.8228 224.574C95.8769 235.461 109.486 244.405 124.262 251.015M83.8228 60.4835C98.9876 48.0406 118.041 35.9866 136.705 27.821M120.763 35.5977C120.763 37.9308 121.151 39.875 122.318 42.208C125.04 48.4295 130.484 52.7067 137.094 53.4844C149.537 54.6509 161.591 58.1504 172.867 63.5942M132.428 17.7111C141.76 13.8227 153.036 18.4888 156.925 27.821C158.869 32.487 158.48 38.3196 156.536 42.9857M185.699 70.5933C200.864 80.3143 214.473 93.5348 224.583 108.7M232.748 121.142C237.803 130.086 241.692 140.196 244.025 149.917M147.593 55.4286C135.927 72.5375 130.095 93.9237 128.928 115.31M129.317 130.086C130.095 144.473 133.205 158.471 137.872 171.303M137.872 41.0415C140.593 41.4303 142.926 41.0415 145.648 41.4303C158.091 42.5969 170.534 46.0964 182.199 51.929M194.253 58.9281C210.585 69.4268 225.36 83.425 236.637 100.145M244.802 112.588C251.024 123.475 255.69 135.53 258.801 147.584M132.817 52.7067C121.54 70.2045 115.319 92.3683 114.541 114.921M114.541 129.697C115.319 145.639 118.818 161.971 124.651 177.135M368.453 84.9804C380.896 100.145 392.95 119.198 400.727 138.251M392.95 121.92C390.617 121.92 388.673 122.309 386.34 123.475C380.119 126.197 375.841 131.641 375.064 138.251C373.897 150.694 370.786 161.971 365.343 173.247M411.226 132.03C415.114 141.751 410.448 152.638 400.727 156.527C396.061 158.471 390.617 158.471 385.951 156.138M358.344 185.69C358.344 186.079 357.177 187.245 357.177 187.634C347.456 202.41 334.236 215.63 319.46 225.74M306.628 233.517C297.296 238.572 287.964 242.072 278.243 244.793M373.119 148.361C372.731 148.361 372.342 147.972 371.953 147.584C354.844 136.307 334.236 130.475 313.238 129.697M298.462 129.697C284.075 130.475 269.688 133.585 256.468 138.251M387.507 138.64C387.118 140.584 387.507 142.14 387.507 144.084C386.729 156.916 383.229 169.359 377.008 181.801M369.231 195.411C358.732 211.742 344.345 226.129 327.625 237.794M315.571 245.182C304.684 251.404 293.019 256.07 280.576 259.181M375.841 133.974C375.452 133.585 374.675 133.196 374.286 132.808C357.177 121.92 336.18 116.088 314.016 114.921M299.24 115.31C283.298 116.088 266.966 119.198 251.413 125.031M356.788 356.39C354.066 359.112 349.789 359.112 347.067 356.39C344.345 353.669 344.345 349.391 347.067 346.669C349.789 343.948 354.066 343.948 356.788 346.669C359.51 349.391 359.51 353.669 356.788 356.39ZM400.338 291.454C398.783 294.954 394.894 296.509 391.395 295.343C387.895 293.787 386.34 289.899 387.895 286.399C389.451 282.9 393.339 280.956 396.839 282.511C399.949 283.677 401.894 287.566 400.338 291.454ZM291.463 400.329C287.964 401.885 283.686 400.329 282.52 396.83C281.353 393.33 282.909 389.442 286.408 387.886C286.797 387.886 286.797 387.498 287.186 387.498C290.685 386.72 294.185 388.275 295.352 391.386C296.518 394.886 294.963 398.774 291.463 400.329ZM27.4411 290.677C25.8857 287.177 27.8299 282.9 31.3295 281.733C34.829 280.178 38.7174 282.122 40.2728 285.622C41.8282 289.121 39.884 293.398 36.3844 294.565C32.8848 296.12 28.9964 294.176 27.4411 290.677ZM136.705 400.329C133.205 398.774 131.261 394.886 132.817 391.386C134.372 387.886 138.26 386.331 141.76 387.886C145.259 389.442 147.204 393.33 145.648 396.83C144.482 400.329 140.205 401.885 136.705 400.329ZM12.2763 214.464C12.2763 210.576 15.3871 207.465 19.2755 207.465C23.1639 207.465 26.2746 210.576 26.2746 214.464C26.2746 218.352 23.1639 221.463 19.2755 221.463C15.3871 221.463 12.2763 218.352 12.2763 214.464ZM70.9911 72.1487C73.713 69.4268 77.9902 69.4268 80.7121 72.1487C83.434 74.8705 83.434 79.1478 80.7121 81.8697C77.9902 84.5915 73.713 84.5915 70.9911 81.8697C68.2692 79.1478 68.2692 74.8705 70.9911 72.1487ZM356.788 72.1487C359.51 74.8705 359.51 79.1478 356.788 81.8697C354.066 84.5915 349.789 84.5915 347.067 81.8697C344.345 79.1478 344.345 74.8705 347.067 72.1487C349.789 69.038 354.066 69.4268 356.788 72.1487ZM136.316 28.2098C139.816 26.6544 144.093 28.2098 145.259 31.7094C146.815 35.2089 144.871 39.0973 141.371 40.6527C137.872 42.208 133.594 40.6527 132.428 37.1531C131.261 33.6535 132.817 29.7652 136.316 28.2098ZM400.338 137.863C401.894 141.362 399.949 145.639 396.45 146.806C392.95 148.361 389.062 146.417 387.507 142.917C385.951 139.418 387.895 135.141 391.395 133.974C394.894 132.419 399.172 133.974 400.338 137.863Z" stroke="#D8D9DA" stroke-width="1.57" stroke-miterlimit="22.926"/>
<path d="M213.306 386.34C206.307 381.674 200.086 376.23 194.253 369.62M160.813 293.407C159.647 282.909 159.647 272.021 161.202 261.911M153.036 22.3862C172.089 16.9424 193.864 12.6652 214.473 12.6652M196.197 13.4429C195.42 15.7759 195.031 17.7201 195.031 20.0531C195.031 26.6634 198.919 33.2737 204.752 36.3844C215.639 42.217 225.36 49.9938 233.915 59.3259M214.084 1C224.583 1 232.748 9.55447 232.748 20.0531C232.748 25.1081 230.415 30.5518 226.916 34.0514M242.858 70.6023C253.357 85.3782 260.745 103.265 264.633 121.151M266.966 135.538C268.133 146.037 268.133 156.147 266.577 166.257M263.467 181.033C261.911 186.476 259.967 191.143 257.634 195.809C268.91 199.697 279.798 205.918 289.13 213.695M213.695 41.8282C196.586 53.4933 182.588 70.6023 173.645 90.0443M168.201 104.042C163.535 117.652 160.813 131.65 160.424 145.648M160.813 161.202C161.98 173.645 165.09 185.699 170.534 196.197C165.479 198.142 160.813 199.697 155.758 202.419M209.807 25.108C210.973 25.8857 212.14 26.2746 213.306 26.6634C225.749 32.496 236.637 41.0505 246.358 51.938M255.301 63.2143C266.189 79.1568 274.354 97.821 278.631 117.652M280.964 132.039C281.742 138.26 282.131 144.482 282.131 150.703C282.131 156.925 281.353 163.146 280.576 169.368M277.465 183.755C277.076 185.31 276.687 186.088 276.298 187.643C284.853 192.309 292.63 197.753 299.629 203.974M201.252 34.0514C184.143 45.7165 169.756 63.6032 160.424 84.2117M154.592 97.821C149.148 112.986 146.037 129.317 145.648 145.259M146.037 160.424C146.815 169.756 148.37 179.477 151.092 188.421C149.537 189.198 148.759 189.587 147.593 190.365M231.193 13.8317C250.635 15.7759 272.799 20.8308 291.852 28.6076M274.743 22.3862C273.188 23.9415 272.021 25.8857 271.243 27.8299C268.522 34.0514 269.688 41.0505 273.577 46.1054C281.353 55.4375 287.575 66.7139 291.852 78.3791M295.74 17.3313C305.461 21.2197 309.739 32.496 305.85 42.217C303.906 46.8831 299.629 50.7715 294.963 52.7157M295.74 93.155C299.629 110.653 299.629 129.317 296.518 147.204M293.018 161.591C292.63 162.368 292.63 163.535 292.241 164.313C289.519 173.645 285.631 182.199 280.576 190.365M272.41 202.419C268.91 206.696 265.411 210.196 261.134 214.084C270.077 221.861 277.465 231.971 283.298 242.858M279.798 55.0487C279.409 55.0487 278.631 55.4375 278.243 55.4375C258.412 59.7148 239.747 70.2134 224.194 84.2117M213.695 94.7103C204.363 105.209 196.197 117.263 190.365 130.095M184.921 144.871C181.422 156.925 179.477 168.979 180.255 181.033C174.811 180.644 169.756 180.644 164.313 181.033M282.909 37.9398C284.075 39.4951 285.631 40.6616 286.797 41.8282C295.352 51.938 301.962 63.6032 306.628 76.8237M310.127 90.8219C314.405 109.486 314.405 129.706 310.905 149.537M307.406 164.313C303.906 176.367 299.24 188.032 292.63 198.919M284.853 210.585C283.686 211.751 283.298 212.529 282.131 213.695C287.964 221.083 293.407 229.249 297.685 237.803M271.243 42.9947C251.024 47.2719 230.804 58.5482 214.084 73.713M203.974 84.2117C193.087 96.2657 184.143 109.875 177.533 124.651M171.701 138.649C168.59 147.593 166.646 156.925 165.868 166.646C164.313 166.646 163.146 167.034 161.591 167.034M405.782 153.425C411.615 172.478 415.503 193.864 415.503 214.084M414.725 196.197C412.392 195.42 410.448 195.031 408.115 195.031C401.505 195.031 394.894 198.919 391.784 204.752C385.951 215.639 378.174 225.36 368.842 233.915M427.946 214.084C427.946 224.583 419.391 233.137 408.504 233.137C403.449 233.137 397.616 230.415 394.117 226.527M357.177 243.247C342.401 253.746 324.903 261.134 307.017 264.633M292.63 266.966C282.131 268.133 272.021 268.133 261.911 266.577M247.135 263.467C241.692 261.911 237.026 260.356 231.971 257.634C228.082 268.91 222.25 279.798 214.084 289.13M385.951 213.306C374.286 196.197 357.177 182.588 337.735 173.645M324.126 168.201C310.516 163.535 296.129 160.813 282.52 160.424M266.966 160.813C254.523 161.98 242.469 165.09 231.971 170.534C230.027 165.479 228.471 160.813 225.749 156.147M403.06 209.807C402.282 210.973 401.894 212.14 401.505 213.306C395.672 225.749 387.118 237.026 376.23 246.358M364.954 255.301C349.011 266.189 330.347 274.354 310.516 278.631M214.473 1C331.902 1 427.946 96.6545 427.946 214.473C427.946 332.291 331.902 427.557 214.473 427.557C97.0434 427.557 1 331.902 1 214.084C1 96.2657 97.0434 1 214.473 1ZM213.695 12.6652C217.584 12.6652 220.694 15.7759 220.694 19.6643C220.694 23.5527 217.584 26.6634 213.695 26.6634C209.807 26.6634 206.696 23.5527 206.696 19.6643C207.085 15.7759 210.196 12.6652 213.695 12.6652ZM291.074 28.2188C294.574 29.7741 296.518 33.6625 294.963 37.1621C293.407 40.6616 289.519 42.217 286.019 40.6616C282.52 39.1063 280.576 35.2179 282.131 31.7183C283.686 28.2188 287.575 26.6634 291.074 28.2188ZM415.503 213.695C415.503 217.584 412.392 220.694 408.504 220.694C404.615 220.694 401.505 217.584 401.505 213.695C401.505 209.807 404.615 206.696 408.504 206.696C412.392 206.696 415.503 209.807 415.503 213.695Z" stroke="#D8D9DA" stroke-width="1.57" stroke-miterlimit="22.926"/>
</svg>
