<svg width="437" height="437" viewBox="0 0 437 437" fill="none" xmlns="http://www.w3.org/2000/svg">
<path d="M414.374 218.323C417.565 220.804 422.528 226.122 424.655 230.022C428.555 227.186 433.873 221.868 436 217.968M357.65 356.232C358.005 360.132 358.005 367.577 356.232 371.831C360.841 372.54 368.641 372.54 372.54 371.477M403.029 284.264C405.156 287.809 407.993 294.191 408.702 298.799C413.31 297.381 420.046 294.191 423.237 291.355M302.345 395.23C301.281 399.13 298.799 405.866 295.963 409.411C300.218 411.892 307.308 414.02 311.562 414.729M411.538 250.939C414.374 254.13 418.274 259.802 419.692 264.411C423.946 262.284 429.973 257.675 432.809 254.484M331.77 378.213C331.416 382.467 329.998 389.203 327.87 393.457C332.479 395.23 339.924 396.293 344.178 395.939M389.557 314.044C390.975 317.944 392.748 324.68 392.748 329.288C397.711 328.934 404.802 326.452 408.347 324.325M271.501 406.929C269.729 410.829 266.183 416.856 262.993 420.046C266.892 423.237 273.983 426.782 278.237 427.846M369.704 343.115C370.413 347.015 371.122 354.46 370.059 358.714C375.022 359.068 382.467 358.005 386.367 356.587M237.112 412.956C234.985 416.501 230.022 421.819 226.122 424.301C229.313 427.846 235.694 432.809 239.594 434.936M413.665 235.694C416.501 238.531 421.11 244.203 422.883 248.457C427.137 245.976 432.809 241.012 435.291 237.467M344.887 367.932C344.887 372.186 344.178 379.276 342.406 383.176C347.015 384.594 354.46 384.949 358.714 384.24M396.293 300.218C398.066 303.763 400.548 310.853 400.548 315.108C405.156 314.044 412.247 311.562 415.792 309.081M286.391 401.966C284.973 405.865 281.782 412.247 278.592 415.438C282.491 418.274 289.936 421.11 294.191 422.174M407.993 267.956C410.474 271.147 414.019 277.528 414.729 282.137C419.337 280.364 425.719 276.465 428.555 273.628M317.235 387.43C316.526 391.33 314.753 398.421 311.917 401.966C316.171 404.093 323.616 405.865 327.87 405.865M379.631 329.288C380.694 333.188 382.112 340.279 381.403 344.888C386.367 344.888 393.457 343.115 397.357 341.342M253.775 410.474C252.002 414.02 247.748 420.046 243.848 422.528C247.394 425.719 254.484 430.328 258.384 432.1M219.386 414.02C216.905 417.21 211.587 422.174 207.687 424.301C210.523 428.2 216.55 433.873 220.095 436M187.834 159.472V188.188H145.645M128.983 188.188H79.7041V80.0587H160.535M175.78 80.0587H187.834V147.064M154.863 197.76L175.425 218.323L145.645 248.103M135.364 258.384L99.2029 294.545L22.6259 218.323L79.7041 161.244M90.3398 150.609L99.2029 141.746L146.355 188.897M248.103 128.628V80.0587H356.232V161.244M356.232 177.907V188.188H289.227M276.819 188.188H248.103V145.291M238.176 155.572L217.968 175.78L187.834 145.291M176.134 133.592L141.746 99.2029L218.323 22.6259L275.755 80.4132M286.037 90.6944L294.545 99.2029L247.394 146.709M158.763 248.103H187.834V290.645M187.834 305.181V355.878H79.7041V275.401M79.7041 260.511V248.103H146.355M258.738 301.281L294.191 336.733L217.614 413.31L160.181 355.878M148.482 344.178L141.391 337.088L188.543 289.936M197.051 281.428L217.968 260.511L248.103 290.645M305.535 248.103H356.232V356.232H275.046M258.738 356.232H248.103V289.936M248.103 277.174V247.748H290.645M302.345 176.134L337.088 141.391L413.665 217.968L356.587 275.046M344.533 286.746L337.088 294.191L289.936 247.394M281.073 238.531L260.511 217.968L290.291 188.188M176.134 167.271V176.489H133.592M116.929 176.134H90.3398V90.3398H150.609M165.499 90.3398H176.134V153.09M152.027 211.587L158.763 218.323L128.983 248.103M118.702 258.384L98.1394 278.946L37.5159 218.323L80.0587 175.78M89.9853 165.499L97.7848 157.699L142.455 201.66M258.738 118.347V90.3398H344.533V148.836M344.533 165.499V176.134H282.846M269.02 176.134H258.384V135.364M165.144 258.384H176.134V302.345M176.134 317.235V344.178H90.3398V285.682M90.3398 271.147V258.384H151.672M258.738 318.298L277.528 337.088L216.905 397.711L175.425 356.232M163.372 344.178L155.927 336.733L199.178 293.482M209.105 283.91L216.905 276.11L248.103 307.308M315.817 258.384H344.178V344.178H287.1M270.083 344.178H258.738V284.264M258.738 270.438V258.384H301.281M316.88 176.489L336.024 157.345L396.648 217.968L356.232 258.384M344.533 270.083L336.024 278.592L293.482 236.049M283.555 226.122L275.046 217.614L304.826 187.834M258.384 152.381C272.21 160.89 282.846 174.007 289.227 188.897M293.127 200.242C294.545 206.269 295.254 212.296 295.254 218.323C295.254 228.604 293.127 238.885 289.227 247.748M284.264 258.738C275.755 272.565 262.993 283.91 247.748 289.936M234.631 294.191C229.313 295.254 223.641 295.963 217.968 295.963C207.332 295.963 197.051 293.836 187.834 289.936M176.134 283.555C163.017 275.046 152.381 262.284 146.355 247.748M142.455 234.985C141.391 229.667 140.682 223.995 140.682 218.323C140.682 207.687 142.809 197.406 146.709 188.188M153.09 176.134C161.599 162.663 174.362 152.381 189.252 146.355M200.597 142.809C206.269 141.391 211.941 140.682 217.968 140.682C228.249 140.682 238.531 142.809 247.748 146.709M258.738 166.208C269.02 174.007 276.819 185.352 281.073 197.76M283.555 209.46C283.909 212.296 284.264 215.487 284.264 218.323C284.264 228.958 281.782 238.885 277.528 247.748M270.792 258.384C262.638 269.02 251.648 276.819 238.885 281.428M225.059 284.264C222.932 284.619 220.45 284.619 217.968 284.619C207.332 284.619 197.051 282.137 187.834 277.528M176.134 269.729C166.562 261.929 159.117 251.293 155.218 239.24M152.027 225.059C151.672 222.932 151.672 220.45 151.672 218.323C151.672 207.332 154.509 197.051 159.117 187.834M166.917 176.489C175.071 166.562 185.707 159.117 198.115 155.218M209.46 152.736C212.296 152.381 215.132 152.381 217.968 152.381C228.249 152.381 239.24 154.863 248.103 159.472M224.704 152.381L217.259 159.826L187.834 130.755M175.78 118.702L156.281 99.2029L217.259 38.5795L258.738 80.0587M269.374 90.6944L277.883 99.2029L234.276 142.809M136.782 356.232C143.873 367.222 155.927 374.313 169.753 374.313C172.589 374.313 175.071 373.958 177.553 373.604M188.897 369.35C200.242 363.323 208.042 351.623 209.105 338.152C209.46 325.389 195.279 324.68 192.797 333.543C189.961 317.944 205.205 313.335 215.132 321.844C208.042 314.753 209.46 302.699 218.323 297.381C227.186 302.699 228.604 314.753 221.513 321.844C231.44 313.335 246.685 317.944 243.848 333.543C241.012 324.68 227.186 325.389 227.54 338.152C228.604 350.914 236.049 362.259 246.33 368.286M131.465 344.533C128.274 332.479 131.11 319.362 139.619 309.435C148.482 300.218 158.763 309.79 154.509 317.944C167.271 308.726 159.826 294.9 147.064 293.836C156.99 293.836 164.435 284.264 161.954 274.337C152.027 271.856 142.809 278.592 142.809 288.873C141.746 275.755 127.919 268.665 118.702 281.428C126.856 277.174 136.428 287.455 127.21 296.318C118.347 304.117 106.648 306.954 95.3032 305.181C94.2396 304.826 91.7579 304.472 90.3398 303.763M195.633 376.086C208.042 368.286 216.905 354.814 217.968 339.215C219.032 354.105 227.54 367.222 239.24 375.376M185.352 381.049C180.389 382.821 175.071 383.531 169.753 383.531C150.609 383.531 133.946 372.186 126.147 356.232M121.892 344.178C121.183 341.342 121.183 338.152 121.183 334.961C121.183 322.198 126.147 311.208 134.301 301.281C123.665 309.435 114.447 314.399 101.685 314.399C98.4939 314.399 93.5306 313.689 90.3398 312.98M250.584 381.049C255.548 382.821 260.865 383.531 266.183 383.531C285.328 383.531 301.99 372.186 309.79 356.232M313.689 344.178C314.398 341.342 314.398 338.152 314.398 334.961C314.398 326.452 311.917 318.653 308.017 311.208C305.89 307.308 303.408 304.117 300.927 300.572C305.535 304.117 309.79 307.308 314.753 309.79C321.489 312.98 328.225 315.108 335.67 315.108C338.861 315.108 341.697 314.753 344.887 314.044M375.376 239.24C367.222 227.54 354.46 219.741 339.57 218.323C354.46 216.905 367.222 208.751 375.376 197.051M381.049 250.23C382.821 255.193 383.885 260.866 383.885 266.538C383.885 285.682 372.895 302.345 356.587 310.144M202.015 317.944C196.697 311.562 203.078 303.408 210.878 306.954M160.89 285.682C168.335 288.518 166.917 298.799 158.763 299.509M80.0587 136.782C69.0684 143.873 61.978 155.927 61.978 169.753C61.978 172.589 62.3325 175.071 62.687 177.553M66.9413 188.543C73.3227 199.533 84.6675 207.687 98.1394 208.751C110.902 209.105 111.611 194.924 102.748 192.443C118.347 189.606 122.956 204.851 114.447 214.777C121.538 207.687 133.237 208.751 138.555 217.614C133.237 226.477 121.538 228.249 114.447 221.159C122.956 231.086 118.347 246.33 102.748 243.494C111.611 240.658 110.902 226.831 98.1394 227.186C84.6675 228.249 73.3227 236.049 67.2958 247.394M90.3398 131.819C91.0489 131.819 93.176 131.11 93.8851 131.11C105.23 128.628 117.638 131.465 126.856 139.619C136.073 148.482 126.501 158.763 118.347 154.509C127.565 167.271 141.391 159.826 142.455 147.064C142.455 156.99 152.381 164.79 162.308 162.308C164.79 152.381 157.699 142.455 147.773 142.455C160.89 141.746 167.98 127.565 155.218 118.347C159.472 126.501 149.191 136.073 140.328 126.856C132.174 117.284 129.337 104.875 131.819 93.5306C131.819 92.8215 132.174 91.7579 132.528 91.0489M60.2054 195.279C68.0049 207.687 81.4768 216.196 97.0758 217.614C81.4768 219.032 68.3594 227.895 60.2054 240.303M55.5966 185.352C53.824 180.389 53.1149 175.071 53.1149 169.753C53.1149 150.609 64.1051 133.946 80.4132 126.147M90.3398 122.247C93.176 121.538 98.1393 121.183 101.33 121.183C110.193 121.183 118.702 123.665 126.147 127.919C129.692 130.046 132.174 132.174 135.364 134.655C133.592 132.528 131.819 130.401 130.046 127.919C124.374 120.12 121.892 110.902 121.892 100.976C121.892 97.7848 122.247 93.5306 122.956 90.3398M118.702 202.015C125.083 196.697 133.237 203.078 129.692 210.878M150.609 160.535C147.773 167.98 137.491 166.562 136.782 158.408M137.846 79.7041C144.936 68.7139 156.99 61.6235 170.817 61.6235C173.653 61.6235 176.134 61.978 178.616 62.3325M189.606 66.5868C200.951 72.6137 208.751 84.313 209.814 97.7848C210.169 110.548 195.988 111.257 193.506 102.394C190.67 117.993 205.914 122.601 215.841 114.093C208.751 121.183 210.169 133.592 219.032 138.91C227.895 133.592 229.313 121.183 222.222 114.093C232.149 122.601 247.394 117.993 244.557 102.394C241.721 111.257 227.895 110.548 228.249 97.7848C229.313 85.022 236.403 74.0318 246.685 67.6504M196.342 59.8509C208.751 67.6504 217.259 81.1223 218.677 96.7213C220.095 81.8313 227.895 69.0685 239.594 61.2689M186.416 55.2421C181.452 53.4694 176.134 52.7604 170.817 52.7604C151.672 52.7604 135.01 64.1051 127.21 80.0587M203.078 118.347C198.115 124.729 204.142 132.528 211.941 129.337M161.954 150.254C169.399 147.418 167.98 137.137 159.826 136.428M356.587 137.137C367.577 144.227 374.667 156.281 374.667 170.108C374.667 172.944 374.313 175.425 373.958 177.907M368.995 189.961C362.614 200.597 351.623 208.042 338.506 209.105C325.743 209.46 325.034 195.633 333.897 192.797C318.298 190.315 313.689 205.205 322.198 215.132C315.108 208.042 303.054 209.814 297.736 218.323C303.054 227.186 315.108 228.604 322.198 221.159C313.689 231.086 318.298 246.33 333.897 243.494C325.034 240.658 325.743 226.831 338.506 227.186C351.269 228.249 362.259 235.34 368.641 245.621M344.887 131.819C332.834 128.628 319.716 131.465 309.79 139.973C300.572 148.836 310.144 159.117 318.298 154.863C309.081 167.626 295.254 160.535 294.191 147.418C294.191 157.345 284.619 165.144 274.692 162.663C272.21 152.736 280.01 142.1 290.291 142.455C276.819 141.391 269.374 127.21 282.491 117.993C278.237 126.147 288.518 135.719 297.381 126.501C305.535 116.929 308.372 104.521 305.89 93.176C305.89 92.467 305.181 91.0489 305.181 90.3398M381.403 185.352C383.176 180.389 383.885 175.071 383.885 169.753C383.885 150.609 372.54 133.946 356.232 126.147M344.178 122.247C341.342 121.538 338.152 121.538 334.961 121.538C322.198 121.538 311.917 126.856 301.636 135.364C309.435 125.438 315.462 114.093 315.462 101.33C315.462 98.1394 314.753 93.8851 314.044 90.6944M318.298 202.369C311.917 197.406 304.117 203.787 307.308 211.232M286.037 161.244C288.873 168.689 299.154 167.271 299.863 159.117M299.154 356.232C292.064 367.222 280.01 374.313 266.183 374.313C263.347 374.313 260.865 373.958 258.384 373.604M304.117 344.533C307.308 332.479 304.472 319.362 295.963 309.435C287.1 300.218 276.819 309.79 281.073 317.944C268.31 308.726 275.755 294.9 288.518 293.836C278.592 293.836 271.147 284.264 273.628 274.337C283.555 271.856 293.836 279.301 293.836 289.582C294.545 276.465 308.726 269.02 317.944 282.137C309.79 277.883 300.218 288.164 309.435 297.027C319.362 305.535 332.125 308.017 344.178 305.181M233.922 317.944C238.885 311.562 232.858 303.408 225.059 306.954M275.046 285.682C267.601 288.518 269.02 298.799 277.174 299.509M80.0587 298.799C69.0684 291.709 62.3325 280.01 62.3325 266.183C62.3325 263.347 62.687 260.866 63.0416 258.384M55.5966 250.584C53.824 255.548 53.1149 260.865 53.1149 266.183C53.1149 284.973 64.1051 301.281 79.7041 309.435M118.702 233.567C125.083 238.531 132.883 232.149 129.692 224.704M150.609 274.692C147.773 267.247 137.491 268.665 136.782 276.819M300.218 79.7041C293.127 68.7139 281.073 61.6235 267.247 61.6235C264.411 61.6235 261.22 61.978 258.738 62.687M250.939 55.2421C251.648 54.8875 253.42 54.533 254.13 54.1785C258.384 53.1149 262.638 52.4059 267.247 52.4059C286.391 52.4059 303.054 63.7506 310.853 79.7041M234.631 118.347C239.949 124.729 233.567 132.528 225.768 129.337M276.11 150.254C268.665 147.418 270.083 137.137 278.237 136.428M356.232 299.863C367.222 292.773 375.022 280.364 375.022 266.538C375.022 263.702 374.313 260.511 373.958 258.029M318.298 234.276C311.917 239.594 303.763 233.213 307.308 225.413M286.391 275.401C289.227 267.956 299.508 269.374 300.218 277.528M81.4768 358.005C77.577 358.359 69.7775 358.359 65.5232 356.941C64.8142 361.55 64.8142 369.35 65.8777 373.249M153.799 403.029C150.254 405.156 143.164 408.347 138.555 408.702C139.973 413.31 143.164 420.046 146 423.237M41.7702 302.699C37.8704 301.636 31.1345 299.154 27.5892 296.318C25.1076 300.572 22.9804 307.663 22.2714 311.917M186.77 411.538C183.579 414.374 177.198 418.628 172.944 420.046C175.071 424.301 179.68 430.328 182.87 433.164M59.1418 332.479C54.8875 332.125 48.1516 330.707 43.8973 328.579C42.1247 333.188 41.0611 340.633 41.4156 344.888M124.02 389.557C120.12 390.976 112.32 393.103 108.066 393.103C108.421 398.066 110.902 405.156 113.029 408.702M30.4254 271.856C26.5257 270.438 20.4988 266.538 17.3081 263.347C14.1174 267.247 10.5721 274.337 9.50856 278.592M94.2396 369.35C90.3398 370.059 82.8949 370.768 78.6406 369.704C78.2861 374.667 79.3496 382.467 80.7677 386.721M24.044 237.821C20.4988 235.694 15.1809 230.731 12.6993 226.831C9.15403 230.022 4.19071 236.403 2.06357 240.303M202.724 413.31C199.887 416.147 193.861 421.11 189.606 422.883C192.088 427.137 197.051 432.809 200.597 435.291M69.0685 345.242C64.8142 345.242 57.7237 344.533 53.824 342.76C52.7604 347.369 52.0513 354.814 52.7604 359.068M137.846 396.293C134.301 398.066 126.501 400.902 121.892 400.902C122.956 405.511 125.438 412.601 127.919 416.147M35.0342 286.746C31.1345 285.328 24.7531 282.137 21.5623 279.301C18.7262 283.2 15.89 290.645 14.8264 294.9M170.108 407.993C166.917 410.474 159.826 414.374 155.572 415.083C157.345 419.692 161.244 426.073 164.435 428.91M49.5697 317.944C45.6699 317.235 38.5795 315.462 34.6797 312.98C32.5526 317.235 31.1345 324.68 30.7799 328.934M108.421 379.985C104.521 381.049 97.4303 382.467 92.8215 381.758C92.8215 386.721 94.5941 393.812 96.3667 397.711M26.5257 254.484C22.9804 252.711 16.9535 248.457 14.4719 244.557C11.2812 248.103 6.67237 255.193 5.25428 259.093M22.6259 219.032C19.4352 216.55 14.8264 211.941 12.6993 208.042C8.79951 210.878 3.12714 216.196 1 220.095M78.6406 81.1222C78.2861 77.2225 78.2861 69.7775 79.7041 65.5232C75.0953 64.8142 68.0049 64.8142 63.7506 65.8778M33.6161 153.445C31.489 149.9 28.6528 143.518 27.9438 138.91C23.335 140.328 16.599 143.518 13.4083 146.355M133.946 41.7702C135.01 37.8704 137.491 31.1345 140.328 27.5892C136.073 25.1076 128.983 22.9804 124.729 22.6259M25.1076 186.416C22.2714 183.225 18.3716 177.553 16.9535 172.944C12.6993 175.071 6.67237 179.68 3.83619 182.87M104.166 59.1418C104.521 54.8875 105.939 47.7971 108.066 43.8973C103.457 42.4792 96.3667 41.7702 91.7579 42.1247M47.088 123.311C45.6699 119.411 43.5428 112.675 43.8973 108.066C38.934 108.775 32.5526 110.548 28.6528 113.029M164.79 30.4254C166.208 26.5257 170.108 20.4988 173.298 17.3081C169.399 14.1174 162.308 10.5721 158.054 9.50856M66.5868 94.5941C65.8777 90.6944 65.1687 83.2494 66.2323 78.9951C61.2689 78.6406 54.533 80.0587 50.6332 81.4768M198.824 23.6895C200.951 20.1443 205.914 14.8264 209.814 12.3447C206.623 8.79951 200.242 3.83619 196.342 2.06357M22.9804 202.015C20.1443 199.178 15.5354 193.506 13.7628 189.252C9.50855 191.733 4.19071 196.697 1.35452 200.242M91.4034 69.423C91.4034 65.1687 92.1125 58.0782 93.8851 54.1785C89.2763 53.1149 81.8313 52.7604 77.577 53.1149M39.9975 137.137C38.2249 133.592 35.7433 126.501 35.7433 122.247C31.1345 123.31 24.044 126.147 20.4988 128.274M149.9 35.0342C151.318 31.1345 154.509 24.7531 157.345 21.5623C153.445 18.7262 146 15.89 141.746 14.8264M28.6528 169.399C26.1711 166.208 22.6259 159.826 21.9169 155.572C17.3081 157.345 10.9266 161.244 8.09046 164.435M118.702 49.5697C119.411 45.6699 121.538 38.5795 124.02 35.0342C119.765 32.9071 112.32 31.489 108.066 31.489M56.6601 108.421C55.5966 104.521 54.1785 97.4303 54.8875 92.8215C49.9242 92.8215 42.8337 94.5941 38.934 96.3667M182.161 26.5257C183.934 22.9804 188.188 16.9535 191.733 14.4719C188.188 11.2812 181.098 6.67237 177.198 5.25428M217.614 22.9804C220.095 19.7897 225.413 14.8264 229.313 12.6993C226.477 8.79951 220.45 3.12714 216.905 1M356.941 80.0587C360.841 79.7042 368.286 79.7041 372.54 81.4768C373.249 76.868 372.895 69.0685 372.186 65.1687M285.328 34.3252C288.873 32.198 295.254 29.3619 299.863 28.6528C298.445 24.044 295.254 17.3081 292.418 14.1174M395.939 135.364C399.839 136.428 406.574 138.91 410.12 141.746C412.601 137.491 414.729 130.401 415.438 126.147M252.002 25.4621C255.193 22.6259 261.22 18.7262 265.474 17.6626C263.347 13.4083 259.093 7.38142 255.548 4.54523M378.922 105.584C383.176 105.939 389.912 107.357 394.166 109.484C395.939 104.875 396.648 97.4303 396.293 93.176M315.108 47.7971C319.007 46.379 326.452 44.6064 330.707 44.9609C330.352 39.9976 327.516 33.2616 325.389 29.3619M407.284 166.208C411.183 167.98 417.21 171.526 420.046 175.071C423.237 171.171 426.782 164.081 427.846 159.826M343.824 67.6504C347.724 66.9413 355.169 66.2323 359.423 67.2958C359.777 62.3325 358.714 55.2421 357.296 50.9878M413.31 201.306C416.856 203.433 422.174 208.396 424.301 212.296C427.846 209.105 432.809 202.724 434.936 198.824M235.694 22.9804C238.531 20.1443 244.203 15.5355 248.457 14.1174C245.976 9.86308 241.012 4.54523 237.467 2.06357M368.641 92.8215C372.895 92.8215 379.985 93.5306 383.885 95.6577C385.303 91.0489 385.658 83.6039 384.949 79.3496M301.281 40.7066C304.826 38.934 311.917 36.4523 316.171 36.4523C315.462 31.8435 312.626 24.7531 310.144 21.2078M402.32 151.318C406.22 152.736 412.601 155.927 415.792 159.117C418.628 155.218 421.819 147.773 422.528 143.518M269.02 29.0073C272.21 26.5257 278.592 22.9804 283.2 22.2714C281.428 17.6626 277.528 11.2812 274.692 8.09046M388.139 120.474C392.039 121.183 399.13 123.31 402.675 125.792C404.802 121.538 406.574 114.093 406.574 109.839M329.997 57.7237C333.897 56.6601 340.988 55.2421 345.597 55.9511C345.597 50.9878 343.824 43.8973 342.051 39.9976M411.183 183.934C414.729 185.707 420.046 190.315 422.528 193.861C426.073 190.315 430.328 183.579 432.1 179.325M218.677 22.2714C326.452 22.2714 414.374 110.193 414.374 217.968C414.374 325.743 326.452 413.665 218.677 413.665C110.902 413.665 22.9804 325.743 22.9804 217.968C22.6259 110.548 110.902 22.2714 218.677 22.2714ZM218.323 1.35452C338.152 1.35452 435.645 98.8484 435.645 218.677C435.645 338.506 338.152 436 218.323 436C98.4939 436 1 338.506 1 218.677C1 98.8484 98.8484 1.35452 218.323 1.35452Z" stroke="#D8D9DA" stroke-width="1.57" stroke-miterlimit="22.926"/>
</svg>
