<svg width="15" height="19" viewBox="0 0 15 19" fill="none" xmlns="http://www.w3.org/2000/svg">
<g id="ELEMENTS">
<g id="Group">
<g id="Group_2">
<path id="Vector" d="M7.29152 18.7C7.09311 18.7 6.94431 18.6008 6.7955 18.5016C6.49789 18.204 0 11.1605 0 7.29152C0 3.27375 3.27375 0 7.29152 0C11.3093 0 14.583 3.27375 14.583 7.29152C14.583 11.1605 8.08515 18.204 7.78754 18.5016C7.63874 18.6504 7.48993 18.7 7.29152 18.7ZM7.29152 1.28966C4.01778 1.28966 1.33926 3.96817 1.33926 7.24192C1.33926 9.82123 5.30744 14.7814 7.29152 17.0631C9.32521 14.7814 13.2438 9.82123 13.2438 7.24192C13.2934 3.96817 10.6149 1.28966 7.29152 1.28966Z" fill="white"/>
</g>
<g id="Group_3">
<path id="Vector_2" d="M7.2972 10.2194C5.51152 10.2194 4.02344 8.7313 4.02344 6.94562C4.02344 5.15994 5.51152 3.67188 7.2972 3.67188C9.08287 3.67188 10.5709 5.15994 10.5709 6.94562C10.5709 8.7809 9.13248 10.2194 7.2972 10.2194ZM7.2972 5.01114C6.20595 5.01114 5.31311 5.90398 5.31311 6.99522C5.31311 8.08647 6.20595 8.97931 7.2972 8.97931C8.38844 8.97931 9.28128 8.08647 9.28128 6.99522C9.28128 5.85438 8.38844 5.01114 7.2972 5.01114Z" fill="white"/>
</g>
</g>
</g>
</svg>
