<svg width="30" height="32" viewBox="0 0 30 32" fill="none" xmlns="http://www.w3.org/2000/svg">
<g id="Group 5850">
<path id="Vector 1070" d="M3.04714 16.5002C0.0466708 9.5 4.2138 6.33358 6.54714 6.00025C6.54714 3.50025 9.54503 1.99975 11.5471 2C13.5867 2.00025 14.7138 3.16667 15.0471 4V29.5C12.2473 31.5 9.54705 29.6667 8.54688 28.5C4.14687 28.1 4.04674 24.6667 4.54667 23C1.54667 21 2.04688 17.5 4.54667 15.5C6.9861 13.5483 10.0469 14.5 10.5467 16M7.04688 10.5C8.38021 10.6667 11.1469 10.3 11.5469 7.5M6.04688 20C7.54694 20.0096 10.547 21.0231 10.5469 25M19.5469 9C19.8802 10.3333 21.4469 13 25.0469 13" stroke="#DD264E" stroke-width="3" stroke-linecap="round"/>
<path id="Vector 1071" d="M16.0469 2.49762C20.4469 0.89762 23.0469 3.99805 23.5469 5.99762C26.0469 6.49711 29.2843 10.2848 28.0469 13.9971C27.0469 16.9971 24.5469 18.9971 21.0469 18.9971M15.0469 29.4971C16.3802 30.4971 19.5469 30.7585 21.5469 27.5585M18.5469 22.9971C18.3802 24.4971 20.0469 27.9971 23.5469 27.9971C26.5469 27.9971 26.3802 24.8304 25.0469 22.9971C26.7135 22.3304 29.5469 20.1971 27.5469 16.9971" stroke="#DD264E" stroke-width="3" stroke-linecap="round"/>
</g>
</svg>
