<svg width="33" height="43" viewBox="0 0 33 43" fill="none" xmlns="http://www.w3.org/2000/svg">
<g id="Group 5866">
<path id="Vector 1079" d="M16.5 15.9219V26.0757H24.1154" stroke="#DD264E" stroke-width="3" stroke-linecap="round"/>
<g id="Mask group">
<mask id="mask0_222_14079" style="mask-type:alpha" maskUnits="userSpaceOnUse" x="0" y="10" width="33" height="33">
<circle id="Ellipse 547" cx="16.5" cy="26.5" r="15" stroke="#DD264E" stroke-width="3"/>
</mask>
<g mask="url(#mask0_222_14079)">
<path id="Rectangle 5054" d="M-3.38281 6.61719H17.771V24.8095H38.5018L31.3095 43.848L-3.38281 43.0018V6.61719Z" fill="#DD264E"/>
</g>
</g>
<path id="Arrow 138" d="M22.8438 10.1875C22.0153 10.1875 21.3438 10.8591 21.3438 11.6875C21.3438 12.5159 22.0153 13.1875 22.8438 13.1875V10.1875ZM31.5198 12.7482C32.1056 12.1624 32.1056 11.2126 31.5198 10.6268L21.9739 1.0809C21.3881 0.495111 20.4383 0.495111 19.8525 1.0809C19.2667 1.66669 19.2667 2.61643 19.8525 3.20222L28.3378 11.6875L19.8525 20.1728C19.2667 20.7586 19.2667 21.7083 19.8525 22.2941C20.4383 22.8799 21.3881 22.8799 21.9739 22.2941L31.5198 12.7482ZM22.8438 13.1875H30.4591V10.1875H22.8438V13.1875Z" fill="#DD264E"/>
</g>
</svg>
