<svg width="133" height="61" viewBox="0 0 133 61" fill="none" xmlns="http://www.w3.org/2000/svg">
<g id="Group 5819">
<path id="Vector" fill-rule="evenodd" clip-rule="evenodd" d="M62.4102 11.8561V13.2188H70.2126V11.8561C72.0942 11.5636 73.299 9.84891 73.3621 8.2215C73.4163 6.83398 72.6394 5.50889 70.745 5.18326L70.9007 4.64706L68.4814 4.64856L68.3024 5.36826L67.3797 5.36901C67.5526 5.1434 67.6542 4.86214 67.6542 4.55681C67.6542 4.08077 67.4045 3.66114 67.0285 3.42199V3.03168H67.7346V1.59754H67.0285V0.890625H65.5943V1.59754H64.8874V3.03168H65.5943V3.42199C65.2183 3.66038 64.9679 4.08002 64.9679 4.55681C64.9679 4.86214 65.0709 5.1434 65.2431 5.36901L64.3204 5.36826L64.1414 4.64856L61.7221 4.64706L61.8785 5.18326C59.9811 5.50664 59.2043 6.83248 59.2607 8.223C59.3268 9.84891 60.5316 11.5613 62.4102 11.8561Z" fill="black"/>
<path id="Vector_2" fill-rule="evenodd" clip-rule="evenodd" d="M130.242 36.8342C122.504 36.6191 114.737 34.8104 108.256 30.3952C106.631 27.9646 103.571 26.5929 100.95 25.5837C100.046 23.1395 97.5 21.9002 95.2221 21.0143C94.4287 19.3598 93.4759 18.9086 92.1041 18.5829C91.6416 18.4498 90.1609 18.2603 89.4307 18.049C87.5987 17.518 85.6118 16.7292 83.6746 17.8467C79.7722 19.7982 84.9244 23.6336 79.1962 24.6805C79.4646 23.7404 79.9512 22.7214 80.352 21.828C78.7803 21.6287 76.3835 21.2685 75.618 20.7924C75.6315 20.2194 75.7601 19.3222 75.9248 18.9146C75.9368 18.8792 76.2188 19.635 76.2301 19.5997C76.3489 19.0838 76.6219 18.246 77.0453 17.8708C77.8899 18.0738 81.0183 19.0357 81.4094 16.9134C80.8296 16.9134 79.958 16.9473 79.4895 16.5216C80.234 16.1711 81.7899 16.0065 82.3284 16.8141C82.4299 16.9412 82.4796 16.9668 82.5442 16.8916C83.6242 14.6957 81.074 13.7909 79.9723 13.7729C79.8564 13.4713 79.6226 13.272 79.3142 13.0735V12.1568C80.3347 12.0537 80.8755 11.0919 80.886 10.1661C80.895 9.26894 80.4069 8.4056 79.3774 8.39357L79.4331 8.14915H78.1583L78.0689 8.4808H77.6236C77.674 8.40297 77.708 8.31568 77.7235 8.22428C77.739 8.13287 77.7357 8.03927 77.7138 7.94918C77.6919 7.85909 77.6519 7.77441 77.5962 7.7003C77.5405 7.6262 77.4702 7.56424 77.3898 7.51819V7.24144H77.7981V6.56461H77.3905V6.15625H76.7107V6.56461H76.3023V7.24144H76.7107V7.51819C76.6305 7.56452 76.5606 7.62666 76.5051 7.70083C76.4497 7.775 76.4099 7.85967 76.3881 7.94969C76.3664 8.0397 76.3632 8.1332 76.3787 8.2245C76.3942 8.3158 76.4281 8.40299 76.4783 8.4808H76.0316L75.9436 8.14915H74.6689L74.723 8.39357C73.6875 8.40635 73.2002 9.27947 73.216 10.1827C73.2317 11.1039 73.771 12.0552 74.7862 12.1575V13.0795L74.7817 13.0803H74.8005C73.6709 13.2277 72.7384 13.1104 72.0202 13.0096C72.0322 13.5714 72.6662 14.4159 73.4935 14.6896C72.9738 15.0145 72.1729 15.3657 71.581 15.5424C71.5299 15.5688 72.2977 15.7079 72.2466 15.7335C71.8074 16.1719 70.729 16.5336 70.1679 16.7389C70.1168 16.7645 70.9613 16.8405 70.923 16.8788C70.6853 16.9901 69.4452 17.7828 69.4452 17.7828H63.192C63.192 17.7828 61.9534 16.9901 61.7158 16.8788C61.6774 16.8405 62.5212 16.7645 62.4701 16.7389C61.9083 16.5344 60.8306 16.1719 60.3914 15.7335C60.3411 15.7079 61.1081 15.5688 61.0562 15.5424C60.4644 15.3657 59.6642 15.0138 59.1438 14.6896C59.9703 14.4159 60.605 13.5714 60.6171 13.0096C59.8981 13.1104 58.9671 13.2277 57.8368 13.0803H57.8428L57.8375 13.0795L57.8383 12.1575C58.8483 12.056 59.3882 11.1114 59.4085 10.1939C59.4288 9.28623 58.9415 8.40635 57.9014 8.39357L57.9556 8.14915H56.6809L56.5921 8.4808H56.1462C56.1965 8.40298 56.2304 8.31574 56.2459 8.22439C56.2614 8.13304 56.2581 8.03949 56.2363 7.94943C56.2145 7.85938 56.1746 7.77471 56.119 7.70057C56.0635 7.62643 55.9934 7.56438 55.9131 7.51819V7.24144H56.3222V6.56461H55.9131V6.15625H55.234V6.56461H54.8249V7.24144H55.234V7.51819C55.1536 7.56431 55.0834 7.62632 55.0278 7.70043C54.9721 7.77454 54.9321 7.8592 54.9102 7.94926C54.8884 8.03932 54.885 8.13289 54.9005 8.22427C54.9159 8.31565 54.9498 8.40293 55.0001 8.4808H54.5549L54.4661 8.14915H53.1914L53.2456 8.39357C52.216 8.40635 51.728 9.26894 51.7385 10.1661C51.7483 11.0919 52.2882 12.0545 53.3095 12.1568V13.0788L53.3042 13.0795H53.314C53.0102 13.2766 52.7793 13.4736 52.665 13.7729C51.5633 13.7917 49.0146 14.6964 50.0938 16.8916C50.1577 16.9676 50.2088 16.942 50.3104 16.8141C50.8488 16.0072 52.4048 16.1719 53.1493 16.5216C52.6808 16.9473 51.8092 16.9134 51.2301 16.9134C51.6204 19.0364 54.7496 18.0738 55.5934 17.8708C56.0168 18.246 56.2891 19.0838 56.4086 19.5997C56.4199 19.635 56.7019 18.8792 56.7132 18.9146C56.8787 19.3222 57.008 20.2194 57.0208 20.7924C56.2552 21.2692 53.8585 21.6287 52.2867 21.828C52.6883 22.7214 53.1741 23.7404 53.4418 24.6805C47.7151 23.6336 52.8665 19.7982 48.9642 17.8467C47.027 16.7292 45.0401 17.5173 43.2074 18.049C42.4779 18.2603 40.9971 18.4498 40.5339 18.5829C39.1621 18.9086 38.2086 19.3598 37.4152 21.0143C35.1372 21.9002 32.5931 23.1395 31.6876 25.5837C29.0675 26.5929 26.0082 27.9646 24.3808 30.3952C17.9013 34.8097 10.1335 36.6183 2.39724 36.8342C1.27444 36.865 0.543463 36.9274 0.234375 38.1502C0.234375 40.3116 2.62285 40.7184 4.2089 40.7568C4.21416 40.7568 4.29764 41.2005 4.36908 41.3306C5.36177 43.1355 7.9157 43.1377 9.36187 43.0016C10.9464 45.2856 14.1877 44.9817 16.2287 44.3147C17.514 45.8676 21.4464 46.203 23.5724 45.7383C26.4361 46.6355 27.8184 46.2986 28.7231 46.0985C28.5569 47.4409 26.8588 48.4404 25.7563 48.3599V57.9958C27.5635 58.0461 28.608 59.1035 28.7223 60.7836H103.916C104.031 59.1035 105.075 58.0461 106.882 57.9958V48.3599C105.78 48.4404 104.082 47.4409 103.915 46.0985C104.82 46.2986 106.203 46.6355 109.066 45.7383C111.193 46.203 115.124 45.8684 116.411 44.3147C118.451 44.9817 121.692 45.2856 123.278 43.0016C124.725 43.1385 127.277 43.1362 128.27 41.3306C128.343 41.2005 128.426 40.7568 128.431 40.7568C130.017 40.7184 132.405 40.3116 132.405 38.1502C132.095 36.9274 131.364 36.865 130.242 36.8342ZM29.9023 45.5202C34.0528 44.3951 37.2956 41.9946 40.2917 39.7897C41.1054 40.4891 42.0628 40.4161 42.996 39.6528C43.3066 40.4883 43.7691 41.4735 45.1612 41.0591C45.4003 41.5412 46.2426 42.8061 47.6324 42.5331C48.7694 43.68 49.3493 43.3528 49.8644 43.1866C50.2848 43.5641 51.0902 43.8732 51.9769 43.4258C52.5334 44.0394 53.1576 44.0364 53.9179 43.7755C54.1149 44.0673 54.7158 44.1545 54.9798 43.9665C55.9133 44.5214 56.8657 45.0439 57.8353 45.533L29.9023 45.5202ZM75.0577 45.533C76.0273 45.0439 76.9797 44.5214 77.9132 43.9665C78.1764 44.1545 78.7765 44.0673 78.9736 43.7755C79.7346 44.0364 80.3588 44.0402 80.9153 43.4258C81.8012 43.8732 82.6059 43.5641 83.0278 43.1866C83.5422 43.3528 84.122 43.68 85.2591 42.5331C86.6489 42.8061 87.4919 41.5412 87.731 41.0591C89.1223 41.4735 89.5848 40.4883 89.8962 39.6528C90.8287 40.4161 91.7868 40.4883 92.6005 39.7897C95.5966 41.9954 98.8402 44.3951 102.989 45.5202L75.0577 45.533Z" fill="black"/>
<path id="Vector_3" fill-rule="evenodd" clip-rule="evenodd" d="M106.018 49.0714V57.3069C104.739 57.4092 103.341 58.6042 103.218 59.9007H29.3475C29.2226 58.6034 27.8261 57.4092 26.5469 57.3069V49.0714C27.8817 48.7532 29.1557 47.6184 29.455 46.2422H59.3132C60.7752 46.9769 64.1097 48.1652 66.3726 48.7578C68.7663 48.1095 71.1035 47.2683 73.3613 46.2422H103.11C103.41 47.6184 104.683 48.7532 106.018 49.0714Z" fill="white"/>
<path id="Vector_4" fill-rule="evenodd" clip-rule="evenodd" d="M77.7133 37.984L77.7058 26.714C77.7043 25.3363 78.1096 24.0006 78.7488 22.762C75.6587 22.3913 72.9002 20.9451 70.5246 18.9688H62.2348C59.8622 20.9451 57.1029 22.3913 54.0113 22.762C54.6513 23.9999 55.0559 25.3363 55.0551 26.714L55.0476 37.984C55.0461 39.8243 54.7626 40.1913 53.7188 41.7307L53.7571 41.7691C57.5421 44.6997 61.7904 46.2106 66.3801 47.1409C70.8103 46.358 75.4301 44.5366 79.0023 41.7691L79.0406 41.7307C77.9976 40.1905 77.714 39.8243 77.7133 37.984ZM66.3786 45.9188C62.3318 44.993 58.8815 43.7447 55.362 41.5021C56.1915 40.5274 56.2629 39.1016 56.2524 37.9637L56.2569 26.823C56.2569 25.7266 55.9666 24.5519 55.6026 23.5261C57.5496 23.4193 61.4602 21.2677 62.5153 20.1645H70.2455C71.3014 21.267 75.212 23.4193 77.1575 23.5261C76.7935 24.5519 76.504 25.7266 76.504 26.823L76.5085 37.9637C76.4965 39.1016 76.5702 40.5274 77.3989 41.5021C73.9426 43.7041 70.3215 45.0344 66.3786 45.9188Z" fill="white"/>
<path id="Vector_5" fill-rule="evenodd" clip-rule="evenodd" d="M102.361 47.4844H69.0111C67.5025 47.9386 66.2767 48.2319 66.2767 48.2319C66.2767 48.2319 65.1952 47.9657 63.5295 47.4844H30.2112C30.0081 48.3064 28.7251 49.663 27.8438 49.8262V56.4073C28.9139 56.6367 29.9209 57.5993 30.2112 58.6476H102.36C102.65 57.5993 103.657 56.6367 104.726 56.4073V49.8262C103.846 49.663 102.618 48.459 102.361 47.4844ZM102.13 48.0822H68.6133C67.3265 48.4876 66.3684 48.7613 66.3684 48.7613C66.3684 48.7613 65.1073 48.4695 63.7047 48.0379L30.4781 48.0822C30.3052 48.8162 29.211 50.027 28.4589 50.1722V56.0448C29.3711 56.2494 30.2292 57.109 30.4781 58.0437H102.13C102.377 57.109 103.236 56.2494 104.149 56.0448V50.1722C103.397 50.027 102.349 48.9516 102.13 48.0822Z" fill="black"/>
<path id="Vector_6" fill-rule="evenodd" clip-rule="evenodd" d="M79.4479 40.3702C80.1353 38.2321 79.9736 36.1151 79.9315 33.835C79.3193 34.1388 79.466 34.111 78.8312 33.9282L78.8049 38.0133C78.7959 39.4136 79.0486 39.67 79.4479 40.3702ZM83.9323 32.4211C83.1246 31.9361 82.5004 31.157 81.8815 30.4628C81.4747 30.8073 81.3039 30.8388 80.7753 30.9321C80.937 31.1524 82.7659 33.7996 83.9323 32.4211ZM82.3591 33.201L82.077 33.3717C82.4959 35.1916 83.7503 36.6529 84.7859 36.3144C84.2354 35.5759 83.6947 34.1967 83.3623 33.2905C83.0351 33.677 82.5982 33.3303 82.3591 33.201ZM88.528 27.7472C88.5235 28.2345 88.3062 28.3195 87.8993 28.4797C88.237 28.885 91.0165 31.3818 91.9092 30.0154C90.727 29.2761 89.6237 28.6128 88.528 27.7472ZM94.2435 29.1829C93.787 28.8076 91.2865 27.6306 90.1058 26.8839C89.9103 27.3599 89.796 27.3923 89.3417 27.6479C90.8902 28.6467 92.9831 30.5816 94.2435 29.1829ZM89.8516 30.5493C89.0214 30.3184 87.6572 29.1453 87.1683 28.5444C87.0217 28.8031 86.7216 29.3348 86.2298 29.2859C87.1736 30.2267 89.0642 31.9218 89.8516 30.5493ZM85.5477 29.416C85.3702 29.8266 84.5121 30.0086 84.5076 30.0131C84.8084 30.3124 87.1601 32.922 87.9798 31.5164C87.1992 30.9088 86.2704 30.1703 85.5477 29.416ZM83.7879 30.0567C83.6646 30.605 83.0494 30.6313 82.7418 30.6448C83.0412 31.0885 85.5898 33.6011 86.2478 32.294C85.3349 31.5954 84.4994 30.8494 83.7879 30.0567ZM79.836 30.8539C79.6668 31.2088 78.8516 31.2412 78.8267 31.1976C79.0117 31.6435 80.6331 34.0042 81.7304 32.8024C81.5378 32.7069 79.8533 30.817 79.836 30.8539ZM79.3381 30.4493L78.8312 29.7717L78.8327 30.6403C78.9914 30.6388 79.2088 30.5839 79.3381 30.4493ZM81.1881 30.2147C81.1761 30.1891 80.9136 29.6679 80.291 29.1671C79.9886 29.6702 79.7081 29.5777 79.3013 29.5258C79.9149 30.4297 80.4617 30.6268 81.1881 30.2147ZM83.1404 29.9214C83.1006 29.6048 82.3064 29.1377 81.9334 28.679C81.9146 29.1189 81.525 29.1377 81.0535 29.1671C81.3573 29.4739 82.2575 30.6283 83.1404 29.9214ZM84.6956 29.2641C84.4723 28.8204 83.8819 28.5181 83.5368 28.1684C83.4751 28.6639 83.1449 28.6858 82.6027 28.7324C83.0096 29.0708 84.1309 30.0297 84.6956 29.2641ZM86.2486 28.4241C85.8636 28.3128 85.1439 27.666 84.8709 27.4577C84.8618 27.4509 84.8355 27.7216 84.6362 27.8593C84.4482 27.9886 84.0617 27.9743 83.9474 27.9713C84.2271 28.1593 85.4492 29.6439 86.2486 28.4241ZM87.8527 27.7111C87.8527 27.19 87.024 26.8222 86.7246 26.5958C86.6118 27.2148 86.0929 27.2794 85.5086 27.2426C85.9576 27.6938 87.4631 28.4887 87.8527 27.7111ZM89.5328 26.5522C89.0704 26.2028 88.6201 25.8376 88.1828 25.4573C87.876 26.092 87.1646 25.8017 86.9487 26.1063C87.2654 26.292 88.9778 27.9781 89.5328 26.5522ZM94.3578 28.1052C94.415 27.957 94.5 27.9066 94.612 27.7923C94.706 27.678 94.9249 27.5231 94.9707 27.4584C93.954 27.2674 91.7129 25.5204 91.0474 24.8857C90.6728 25.1452 90.1178 25.3625 88.8394 25.0136C90.5187 26.2973 92.3882 27.6134 94.3578 28.1052ZM97.845 27.011C98.0744 26.1965 96.7305 26.3251 94.7579 24.803C93.9457 24.1269 93.0568 23.2959 91.9227 23.9284C91.7317 24.0555 91.7438 24.3781 91.7438 24.633C93.123 26.0454 95.8032 27.8909 97.845 27.011ZM95.9454 27.8427C98.3399 30.0567 101.456 32.5482 104.922 32.5482C105.317 32.3572 105.189 32.0263 105.126 31.7082C102.632 30.8388 99.9816 29.246 97.9368 27.6013C96.4086 27.8728 95.9454 27.8149 95.9454 27.8427Z" fill="white"/>
<path id="Vector_7" fill-rule="evenodd" clip-rule="evenodd" d="M95.3291 28.0312L94.8079 28.502L94.7568 28.5404C94.7703 28.5532 94.7831 28.578 94.8079 28.5908C95.0238 28.8457 95.0749 29.151 95.0749 29.5714C97.1137 31.3079 99.0073 32.7149 101.836 33.2602C101.994 33.2451 102.249 33.006 102.278 32.7954C99.3337 31.5824 97.2227 30.0505 95.3291 28.0312ZM101.357 33.7693C100.584 33.7889 100.129 33.4226 99.448 33.1135C100.282 35.766 102.473 37.2182 101.357 33.7693ZM98.4343 32.6916C97.4265 32.272 96.1029 31.3222 96.0563 31.2432C96.676 32.5081 98.8396 37.2595 100.262 35.7487C99.5255 34.9252 98.9577 33.6505 98.4343 32.6916ZM94.6387 29.9632C94.2612 30.3588 93.9115 30.2761 93.3753 30.3257C94.1258 31.7508 95.6419 35.9412 97.795 35.3952C97.6221 35.4636 94.9809 30.7672 94.6387 29.9632ZM92.7 30.3235C92.3082 30.6092 91.8742 31.0462 91.3516 30.9807C92.057 32.0328 94.0025 36.7038 95.8209 35.4366C95.8345 35.4238 94.019 33.8971 92.7 30.3235Z" fill="white"/>
<path id="Vector_8" fill-rule="evenodd" clip-rule="evenodd" d="M90.5715 30.9844C90.397 31.3506 90.0939 31.4995 89.6562 31.5695C90.7106 34.4851 94.7784 39.7832 97.591 40.0758C97.7685 40.0758 98.4769 39.987 98.2972 39.8216C96.663 38.7394 92.6012 35.1702 90.5715 30.9844Z" fill="white"/>
<path id="Vector_9" fill-rule="evenodd" clip-rule="evenodd" d="M88.9693 31.6275L88.6595 31.5703C88.476 31.9426 88.3331 32.2705 87.8984 32.4126C90.2869 38.1236 93.6237 40.1315 94.4156 39.0523C91.9173 37.0888 90.062 34.6274 88.9693 31.6275Z" fill="white"/>
<path id="Vector_10" fill-rule="evenodd" clip-rule="evenodd" d="M87.2175 32.477C87.0837 32.477 86.9679 32.4229 86.831 32.383C86.7911 32.371 86.7325 32.8448 86.1918 33.0772C86.6144 34.3406 90.0121 40.9442 91.9027 39.3191C89.8925 37.5578 88.0636 35.0159 87.2175 32.477ZM88.3042 38.0406C88.1854 38.6513 87.956 39.5439 87.8681 40.2479C88.6968 40.3659 89.0518 39.7395 89.1932 39.0341L88.3042 38.0406ZM87.7906 37.4435C86.9107 36.2109 85.9782 34.7166 85.5563 33.2516C85.1525 33.3554 84.5072 33.1418 84.1522 32.9568C84.5779 34.9167 85.803 37.8827 87.7906 37.4435ZM86.373 37.8609C86.1233 39.189 85.9541 40.4652 85.4653 41.6827C87.3334 41.7106 87.2439 39.4289 87.6139 38.0805C87.3747 38.1324 86.8551 38.1557 86.373 37.8609ZM85.7691 37.5849C85.7827 37.527 85.4871 37.3751 85.2841 37.1577C85.1179 36.9803 85.081 36.8321 85.0682 36.8426C84.9449 36.9472 84.438 36.8908 84.3192 36.902C84.529 37.3856 83.7228 42.3024 83.3002 42.619C85.0366 43.4876 85.3871 39.3762 85.7691 37.5849ZM83.8198 36.8945C83.2557 36.6082 82.7486 36.2213 82.3233 35.7529C82.2864 38.0045 82.2706 40.8006 81.2734 42.8281C83.331 44.2367 83.6995 37.9812 83.8198 36.8945Z" fill="white"/>
<path id="Vector_11" fill-rule="evenodd" clip-rule="evenodd" d="M81.5423 33.5152C81.4145 33.6709 80.6241 33.9205 80.4714 33.7716C80.5872 36.0969 80.7136 38.8103 79.9939 41.0356C80.2789 41.2484 80.5714 41.4417 80.8858 41.6086C80.3909 42.0696 79.8886 42.5171 79.3449 42.9194C79.2832 42.9811 79.2742 43.0059 79.2305 43.0977C82.0417 44.0422 82.0244 34.9193 81.5423 33.5152ZM79.8269 33.3588C79.5201 33.0173 78.9869 32.2826 78.8327 31.9547L78.8342 33.1911C78.9703 33.4648 79.2817 33.4558 79.8269 33.3588ZM90.5871 19.2701C88.9657 18.8256 87.4368 18.1601 85.7176 18.2601C84.6407 18.3436 83.0592 19.2235 82.984 20.4929C83.2442 23.7515 82.9501 24.9705 78.9899 25.6496C78.7861 26.7446 78.8222 27.7779 78.8237 28.8894C78.9944 28.9473 79.217 29.0082 79.4712 28.9398C80.051 28.7834 79.3291 28.2915 79.117 27.5575C79.2697 27.4944 79.4389 27.3921 79.5652 27.5011C79.6562 27.5357 79.8931 27.9351 80.2661 28.3818C80.6128 28.7992 81.6378 28.642 81.2212 28.1765C80.9332 27.8554 80.4045 27.2507 80.4383 27.0687C80.7263 26.7995 80.9866 26.9281 81.1768 27.183C81.5265 27.6207 82.2297 28.4946 82.8967 28.0509C83.257 27.8907 82.177 26.7115 82.0597 26.5415C82.0041 26.4611 82.2755 26.2031 82.3508 26.2693C82.9516 26.7965 83.5284 27.7561 84.3542 27.2658C84.5948 26.8724 84.3143 26.5235 83.4051 25.7782C83.4186 25.7654 83.8293 25.4451 83.8413 25.433C84.2023 25.7128 85.4762 27.0913 86.0711 26.4663C86.6569 25.8519 84.649 25.0976 84.4422 24.7246C84.4805 24.6735 84.7535 24.3832 84.8182 24.3456C85.037 24.4772 87.1991 26.1084 87.8467 24.6765C87.7068 24.5998 87.0593 24.3614 85.8477 23.5815C85.6552 23.4582 85.8741 23.1611 86.0139 23.034C90.2133 25.5549 91.2271 24.1862 91.0037 23.7853C90.193 23.5845 89.1793 23.4454 86.6885 22.2324C86.6253 21.9782 86.778 21.736 86.8412 21.545C87.2097 21.742 93.2613 24.5697 93.1305 22.2963C91.2301 21.9932 89.4011 21.6044 87.7323 20.4756C87.5413 20.2853 87.7835 19.8522 87.9745 19.7882C89.6771 20.8103 92.0626 21.8556 94.0833 21.2013C93.7396 19.6476 91.8798 19.6243 90.5871 19.2701ZM95.4197 22.009C94.8323 21.7571 94.4029 22.0962 93.8404 22.0962C94.0314 22.3512 93.8404 22.8137 93.7141 23.0679C96.4109 25.0909 96.3402 25.054 97.8397 25.7C98.4827 25.9813 99.2039 25.8166 99.686 25.6248C99.1317 23.392 97.2644 22.931 95.4197 22.009ZM107.247 30.7988C105.609 28.5262 103.228 27.4643 100.746 26.3836C100.115 26.6423 99.2603 26.6867 98.6098 26.6468C98.688 26.8559 98.6331 27.1251 98.4715 27.3139C98.8189 27.5575 107.891 33.5122 107.247 30.7988Z" fill="white"/>
<path id="Vector_12" fill-rule="evenodd" clip-rule="evenodd" d="M128.918 39.8384C130.636 39.9843 131.687 38.6495 131.174 38.1937C130.954 37.6816 130.142 37.6703 129.83 37.656C121.305 37.262 113.425 35.0389 107.953 31.375C107.535 32.6256 106.576 32.2278 105.827 31.9037C105.967 32.2346 105.84 32.4948 105.609 32.9077C111.548 37.1243 120.983 39.8309 128.918 39.8384Z" fill="white"/>
<path id="Vector_13" fill-rule="evenodd" clip-rule="evenodd" d="M127.213 40.6508C118.663 40.3921 111.966 37.9044 104.797 33.3252C104.503 33.1854 103.831 33.25 102.998 32.9688C102.98 32.9635 102.545 33.6449 102.237 33.7404C102.216 33.7471 102.346 34.3856 102.443 34.6052C106.54 38.8918 126.436 45.0766 127.213 40.6508Z" fill="white"/>
<path id="Vector_14" fill-rule="evenodd" clip-rule="evenodd" d="M121.724 42.8161C114.395 41.9084 108.02 39.3725 102.243 35.6875C102.216 36.0643 102.108 37.2976 100.601 36.0913C100.305 36.6524 99.7429 36.5035 99.6797 36.4899C100.821 38.5505 119.758 46.9568 121.724 42.8161Z" fill="white"/>
<path id="Vector_15" fill-rule="evenodd" clip-rule="evenodd" d="M114.843 44.0879C108.568 42.5823 103.114 40.4029 97.973 35.9516C97.139 36.1028 96.3997 35.5049 95.3672 36.2915C98.4378 40.2789 110.494 47.6496 114.843 44.0879Z" fill="white"/>
<path id="Vector_16" fill-rule="evenodd" clip-rule="evenodd" d="M108.078 45.1035C103.572 43.7882 102.084 42.4684 98.8761 40.4943C97.4307 41.4005 95.9635 40.4446 94.9076 39.6422C94.8182 39.7069 94.1661 39.7663 94.103 39.9445C98.3813 43.2355 103.41 46.1346 108.078 45.1035ZM77.064 7.75128C77.1602 7.75168 77.2523 7.7901 77.3202 7.85815C77.3881 7.92621 77.4263 8.01837 77.4265 8.11451C77.4261 8.21086 77.3876 8.30313 77.3194 8.37119C77.2512 8.43924 77.1589 8.47755 77.0625 8.47775H77.0595C76.9632 8.47794 76.8707 8.43987 76.8024 8.37189C76.7342 8.30391 76.6957 8.2116 76.6955 8.11526C76.6953 8.01893 76.7334 7.92646 76.8014 7.8582C76.8694 7.78994 76.9617 7.75148 77.058 7.75128H77.064ZM55.5873 7.75128C55.6796 7.75741 55.7661 7.79844 55.8292 7.86604C55.8923 7.93364 55.9274 8.02273 55.9272 8.11522C55.927 8.20771 55.8916 8.29666 55.8282 8.36399C55.7648 8.43133 55.6781 8.472 55.5858 8.47775H55.5836C55.4912 8.472 55.4046 8.43133 55.3412 8.36399C55.2778 8.29666 55.2424 8.20771 55.2422 8.11522C55.242 8.02273 55.277 7.93364 55.3401 7.86604C55.4033 7.79844 55.4898 7.75741 55.582 7.75128H55.5873ZM65.4668 2.56973V2.08467H66.082V1.46875H66.5671V2.08467H67.183V2.56973H66.5671V3.18565H66.082V2.56973H65.4668ZM66.3249 3.78127C66.7588 3.78127 67.113 4.13472 67.113 4.56865C67.1127 4.77756 67.0295 4.97779 66.8818 5.12551C66.7341 5.27323 66.5338 5.35639 66.3249 5.35679C66.1233 5.34599 65.9335 5.25829 65.7945 5.11174C65.6556 4.96519 65.5782 4.77095 65.5782 4.56903C65.5782 4.3671 65.6556 4.17287 65.7945 4.02632C65.9335 3.87977 66.1233 3.79206 66.3249 3.78127ZM63.1197 12.5636V12.0161H69.5286V12.5636H63.1197ZM65.9369 11.3377L64.4982 5.97948C64.7659 5.97948 65.0322 5.99226 65.2999 5.99226L66.3234 9.94498L67.3492 5.99226C67.6162 5.99226 67.8839 5.97948 68.1509 5.97948L66.7122 11.3377H65.9369Z" fill="white"/>
<path id="Vector_17" fill-rule="evenodd" clip-rule="evenodd" d="M66.3283 7.68656L66.0034 6.00199H66.6531L66.3283 7.68656ZM69.1138 5.28906L67.4435 11.3354H68.1911L69.9674 5.28906H69.1138ZM70.5607 5.83655C70.0155 7.67678 69.471 9.50574 68.9348 11.3482C71.203 11.3144 72.5499 9.72082 72.601 8.23931C72.6371 7.17292 72.0047 6.16368 70.5607 5.83655ZM63.5427 5.28906L65.2115 11.3354H64.4655L62.6884 5.28906H63.5427ZM62.095 5.83655C62.6403 7.67678 63.1855 9.50574 63.7232 11.3482C61.4543 11.3144 60.1074 9.72083 60.0563 8.23856C60.0187 7.17217 60.6519 6.16368 62.095 5.83655ZM77.1772 6.52391V6.80216H77.4547V7.02401H77.1772V7.30227H76.9508V7.02401H76.6733V6.80216H76.9508V6.52391H77.1772ZM77.2215 8.92516L77.0644 9.78249L76.9072 8.92516H77.2215Z" fill="white"/>
<path id="Vector_18" fill-rule="evenodd" clip-rule="evenodd" d="M77.0538 10.9973C77.2064 10.3039 77.3929 9.61883 77.5546 8.92771H77.963L77.2771 11.7388H76.8304L76.1446 8.92771H76.5529C76.7146 9.61883 76.9056 10.3032 77.0538 10.9973ZM78.6917 12.1825V12.624H75.4166L75.4121 12.1825C75.4121 12.1825 77.6005 12.181 78.6917 12.1825ZM75.6347 11.7306L74.8593 8.86454C74.0825 8.86454 73.7177 9.49399 73.7343 10.1671C73.7576 11.0319 74.4111 11.9682 75.6347 11.7306ZM75.6294 8.57124H75.2165L76.0626 11.7381H76.4145L75.6294 8.57124ZM78.4729 11.7306L79.2497 8.86454C80.0251 8.86454 80.3913 9.49399 80.3733 10.1671C80.35 11.0319 79.6964 11.9682 78.4729 11.7306ZM78.4804 8.57124H78.8925L78.0465 11.7381H77.6945L78.4804 8.57124ZM55.6899 6.52344V6.80169H55.9681V7.02354H55.6899V7.3018H55.465V7.02354H55.1875V6.80169H55.465V6.52344H55.6899ZM55.7342 8.92469L55.5771 9.78202L55.4199 8.92469H55.7342Z" fill="white"/>
<path id="Vector_19" fill-rule="evenodd" clip-rule="evenodd" d="M55.5861 10.9964C55.7395 10.303 55.9252 9.6179 56.0877 8.92678H56.4953L55.8094 11.7379H55.3627L54.6769 8.92678H55.0852C55.2469 9.6179 55.4379 10.3023 55.5861 10.9964ZM57.224 12.1816L57.2255 12.623H53.9481L53.9489 12.1816H57.224ZM54.1677 11.7296L53.3909 8.86361C52.6005 8.86361 52.2372 9.51562 52.2688 10.2015C52.3079 11.0566 52.9615 11.9643 54.1677 11.7296ZM54.1602 8.57031H53.7488L54.5941 11.7371H54.9461L54.1602 8.57031ZM57.0044 11.7296L57.782 8.86361C58.5589 8.86361 58.9229 9.49306 58.9048 10.1661C58.883 11.031 58.2287 11.9673 57.0044 11.7296ZM57.0119 8.57031H57.4241L56.5788 11.7371H56.2261L57.0119 8.57031ZM57.4278 20.3254L57.6609 20.4924L57.3864 20.6225L57.4278 20.3254ZM62.4281 17.7843H61.5249C61.4005 17.9348 61.2687 18.0791 61.1301 18.2167C61.015 18.0896 60.9511 17.8858 60.9639 17.6181C61.4738 17.3128 61.9746 17.4564 62.4281 17.7843ZM61.4038 16.9834C60.7278 17.5466 59.3132 16.6983 59.1537 16.3186C59.6576 16.3547 59.7712 16.1396 59.9975 16.099C60.4615 16.0177 61.2279 16.6058 61.4038 16.9834ZM59.3478 19.2861L59.6147 19.3621C59.5659 19.3621 59.3921 19.4997 59.335 19.5275C59.365 19.4505 59.3695 19.3659 59.3478 19.2861ZM58.9003 18.3769C59.7539 18.5296 60.0569 18.061 59.9261 17.5339C60.1976 17.6925 60.3713 17.8843 60.7729 18.5356L60.1878 18.968C59.8915 18.9259 59.2132 18.6679 58.9003 18.3769ZM57.1014 18.7905C57.4188 18.695 57.788 18.4393 57.7843 18.0009C58.6017 18.3491 58.8935 19.6057 58.3942 20.1765C57.8459 20.4909 57.1676 19.3199 57.1014 18.7905ZM56.2952 16.3471C56.8157 16.2298 56.9894 15.6786 57.0631 15.4056C57.421 15.6312 58.0219 16.2674 57.7925 16.7269C57.312 16.9819 56.6886 16.6104 56.2952 16.3471ZM57.5481 17.2052C58.1189 17.2052 58.4025 16.8254 58.249 16.2712C59.1545 16.5916 59.5147 17.3534 59.4049 17.7978C59.065 18.2355 57.8053 17.7189 57.5481 17.2052ZM59.8449 15.6838C59.1989 16.1501 58.3506 16.1065 57.2977 14.9709C58.2423 14.7994 59.1575 15.0499 59.8449 15.6838ZM59.6787 13.6218C59.2177 14.3069 58.5604 14.6039 57.7181 14.4994C56.5562 14.3324 55.0935 14.2151 53.9925 14.4325L53.8519 14.1C54.3099 12.6178 58.3761 14.0143 59.6787 13.6218ZM52.4486 17.2616C53.0517 17.2616 53.8744 17.0631 54.1798 16.6901C54.161 16.4426 53.6308 16.0268 53.4157 15.9192C52.4786 15.6545 51.4566 15.4402 50.5948 16.0659C50.2985 14.7754 52.2831 14.4377 53.4292 14.4377C53.8082 15.5755 54.8664 16.29 55.5552 17.2255C55.4011 17.2548 52.9532 17.8836 52.4486 17.2616ZM55.6816 16.2697C54.9551 15.7538 54.7483 15.5665 54.2143 14.8438C54.3038 14.831 54.4084 14.831 54.4971 14.8182C54.7212 15.1311 54.9325 15.2905 55.2228 15.4424L55.7703 14.7934C56.0185 14.8115 56.2757 14.804 56.5216 14.8446C56.4975 15.7553 56.2524 15.8606 55.6816 16.2697ZM55.9764 17.2195C56.305 17.1075 56.3201 17.1586 56.4171 16.8262L56.9036 17.224C57.1067 17.4271 57.418 18.0069 57.1623 18.4566C56.4193 18.4137 56.1674 17.7956 55.9764 17.2195ZM53.2029 40.4161C52.5155 38.2781 52.6779 36.1303 52.7193 33.8493C53.333 34.0584 53.1863 33.9591 53.821 33.8719L53.815 38.0224C53.8135 39.2272 53.6789 39.3746 53.2029 40.4161ZM48.7192 32.4355C49.5269 31.9504 50.1503 31.1713 50.7693 30.4772C51.1769 30.8209 51.3468 30.8525 51.8763 30.9457C51.7146 31.1668 49.8849 33.814 48.7192 32.4355ZM50.2917 33.2154L50.573 33.3861C50.1541 35.206 48.9004 36.668 47.8641 36.3288C48.4146 35.5903 48.9553 34.2111 49.2877 33.3049C49.6156 33.6914 50.0533 33.3447 50.2917 33.2154ZM44.1235 27.7616C44.128 28.2489 44.3446 28.3331 44.7522 28.4933C44.4145 28.8987 41.6342 31.3954 40.7423 30.029C41.923 29.2905 43.027 28.6264 44.1235 27.7616ZM38.408 29.1972C38.8652 28.8212 41.3643 27.645 42.545 26.8982C42.7397 27.3743 42.8556 27.4066 43.309 27.6616C41.7613 28.6618 39.6684 30.5968 38.408 29.1972ZM42.7999 30.5644C43.6302 30.3335 44.9936 29.1604 45.4824 28.5595C45.6298 28.8182 45.9299 29.3499 46.421 29.301C45.4772 30.241 43.5865 31.9361 42.7999 30.5644ZM47.1031 29.4304C47.2813 29.841 48.1379 30.0237 48.1424 30.0275C47.8431 30.3268 45.4907 32.9364 44.671 31.5315C45.4516 30.9239 46.3811 30.1846 47.1031 29.4304ZM48.8636 30.0711C48.9869 30.6193 49.6021 30.6456 49.9097 30.6592C49.6104 31.1029 47.061 33.6154 46.4029 32.3076C47.3151 31.6098 48.1522 30.8637 48.8636 30.0711ZM52.8148 30.869C52.984 31.224 53.8 31.2563 53.824 31.2119C53.6383 31.6579 52.0176 34.0185 50.9204 32.8175C51.1137 32.722 52.7975 30.8322 52.8148 30.869ZM53.3127 30.4637L53.8203 29.7861L53.8195 30.6554C53.6601 30.6539 53.442 30.5983 53.3127 30.4637ZM51.4619 30.229C51.4754 30.2027 51.7379 29.6823 52.3606 29.1814C52.6629 29.6838 52.9434 29.592 53.3503 29.5401C52.7366 30.4433 52.1891 30.6411 51.4619 30.229ZM49.5096 29.9365C49.5495 29.6199 50.3444 29.1528 50.7166 28.6934C50.7369 29.134 51.1257 29.1521 51.5965 29.1814C51.2942 29.4883 50.3932 30.6426 49.5096 29.9365ZM47.9551 29.2792C48.1777 28.8355 48.7696 28.5332 49.114 28.1842C49.1749 28.6798 49.5066 28.7016 50.0488 28.7475C49.6412 29.0859 48.5199 30.0448 47.9551 29.2792ZM46.4022 28.4384C46.788 28.3271 47.5077 27.6804 47.7807 27.472C47.7889 27.4653 47.8145 27.736 48.0153 27.8744C48.2033 28.0037 48.5891 27.9894 48.7049 27.9864C48.4237 28.1737 47.2016 29.659 46.4022 28.4384ZM44.7988 27.7262C44.7988 27.2051 45.6276 26.8373 45.9269 26.611C46.0389 27.2299 46.5578 27.2953 47.1429 27.2577C46.6925 27.7089 45.1869 28.5031 44.7988 27.7262ZM43.118 26.5673C43.5801 26.2179 44.0301 25.8527 44.4672 25.4724C44.774 26.1071 45.4862 25.8176 45.702 26.1214C45.3854 26.3064 43.673 27.9932 43.118 26.5673ZM38.2937 28.1203C38.235 27.9721 38.1508 27.9218 38.0395 27.8074C37.9447 27.6931 37.7259 27.5382 37.6808 27.4728C38.6968 27.2818 40.9379 25.5355 41.6027 24.9001C41.9779 25.1588 42.5329 25.3761 43.8122 25.0279C42.1328 26.3116 40.2633 27.6277 38.2937 28.1203ZM34.8065 27.0253C34.5771 26.2109 35.9218 26.3387 37.8936 24.8173C38.7066 24.1413 39.594 23.3103 40.728 23.942C40.9191 24.0691 40.9078 24.3917 40.9078 24.6466C39.5285 26.0597 36.8475 27.9052 34.8065 27.0253ZM36.7046 27.8571C34.3109 30.0711 31.1937 32.5626 27.7283 32.5626C27.3335 32.3723 27.4606 32.0407 27.5245 31.7233C30.0175 30.854 32.6677 29.2611 34.7125 27.6157C36.2421 27.8872 36.7046 27.8293 36.7046 27.8571Z" fill="white"/>
<path id="Vector_20" fill-rule="evenodd" clip-rule="evenodd" d="M37.3309 28.0625L37.8528 28.5333L37.9032 28.5716C37.8912 28.5844 37.8776 28.6092 37.8528 28.6228C37.6362 28.877 37.5858 29.183 37.5858 29.6027C35.5463 31.3391 33.6534 32.7462 30.825 33.2922C30.6656 33.2771 30.4121 33.0372 30.3828 32.8267C33.327 31.6144 35.438 30.0817 37.3309 28.0625ZM31.3033 33.8006C32.0779 33.8201 32.5314 33.4546 33.2127 33.1448C32.378 35.798 30.1873 37.2502 31.3033 33.8006ZM34.225 32.7229C35.2327 32.3032 36.5563 31.3542 36.6044 31.2745C35.984 32.5401 33.8204 37.2908 32.399 35.7807C33.1353 34.9572 33.7023 33.6817 34.225 32.7229ZM38.0205 29.9945C38.3988 30.3901 38.7485 30.3081 39.2839 30.357C38.5327 31.7828 37.0173 35.9724 34.8642 35.4265C35.0379 35.4949 37.6783 30.7984 38.0205 29.9945ZM39.96 30.3547C40.3526 30.6405 40.7865 31.0774 41.3084 31.012C40.6038 32.0641 38.6575 36.7343 36.8391 35.4686C36.8255 35.4558 38.6409 33.9284 39.96 30.3547Z" fill="white"/>
<path id="Vector_21" fill-rule="evenodd" clip-rule="evenodd" d="M42.0911 31.0156C42.2649 31.3819 42.5679 31.5308 43.0049 31.6007C41.9505 34.5164 37.8842 39.8145 35.0709 40.107C34.8934 40.107 34.1857 40.0183 34.3647 39.8528C35.9989 38.7706 40.0614 35.2022 42.0911 31.0156Z" fill="white"/>
<path id="Vector_22" fill-rule="evenodd" clip-rule="evenodd" d="M43.6713 31.6509L43.9827 31.5938C44.1654 31.966 44.3083 32.2939 44.7437 32.436C42.3545 38.147 39.0185 40.1557 38.2266 39.0758C40.7241 37.1137 42.5794 34.6508 43.6713 31.6509Z" fill="white"/>
<path id="Vector_23" fill-rule="evenodd" clip-rule="evenodd" d="M45.4281 32.5005C45.562 32.5005 45.6778 32.4471 45.8154 32.4064C45.8553 32.3952 45.9125 32.8682 46.4547 33.1006C46.0313 34.3632 42.6328 40.9677 40.7422 39.3425C42.7539 37.582 44.5813 35.0393 45.4281 32.5005ZM44.3407 38.064C44.4603 38.6747 44.6896 39.5674 44.7776 40.272C43.9496 40.3893 43.5947 39.7629 43.4525 39.0575L44.3407 38.064ZM44.8558 37.4669C45.735 36.2343 46.6683 34.74 47.0894 33.2751C47.494 33.3788 48.1377 33.1653 48.4934 32.9803C48.067 34.9401 46.8427 37.9061 44.8558 37.4669ZM46.2734 37.8843C46.5224 39.2124 46.6916 40.4886 47.1811 41.7062C45.3123 41.734 45.4018 39.4523 45.0318 38.1039C45.4586 38.1854 45.9005 38.1073 46.2734 37.8843ZM46.8766 37.609C46.8638 37.5511 47.1586 37.3985 47.3616 37.1811C47.5271 37.0037 47.5654 36.8555 47.5775 36.866C47.7015 36.9706 48.2084 36.9142 48.328 36.9254C48.1167 37.409 48.9236 42.3258 49.347 42.6424C47.6091 43.5103 47.2586 39.4004 46.8766 37.609ZM48.8258 36.9179C49.3902 36.6316 49.8976 36.2447 50.3232 35.7763C50.3593 38.0279 50.3758 40.824 51.3738 42.8515C49.3139 44.2601 48.9469 38.0046 48.8258 36.9179Z" fill="white"/>
<path id="Vector_24" fill-rule="evenodd" clip-rule="evenodd" d="M51.1046 33.5316C51.2317 33.6872 52.0236 33.9369 52.1763 33.788C52.0597 36.1133 51.9341 38.8267 52.6531 41.052C52.3715 41.266 52.0735 41.4576 51.7619 41.625C52.256 42.086 52.7584 42.5335 53.3021 42.9366C53.3645 42.9975 53.3735 43.0223 53.4164 43.114C50.6053 44.0579 50.6226 34.9356 51.1046 33.5316ZM52.82 33.3752C53.1276 33.0337 53.6601 32.299 53.8142 31.9718L53.8135 33.2082C53.6766 33.4804 53.366 33.4729 52.82 33.3752ZM42.0606 19.2857C43.6813 18.8413 45.2109 18.1757 46.9286 18.2757C48.0055 18.3599 49.587 19.2391 49.6622 20.5085C49.4028 23.7671 49.6976 24.9862 53.6563 25.6653C53.8608 26.7602 53.824 27.7943 53.8225 28.905C53.6533 28.9637 53.4299 29.0246 53.1757 28.9554C52.5952 28.799 53.3171 28.3072 53.5285 27.5739C53.3758 27.5108 53.2073 27.4085 53.081 27.5168C52.9892 27.5514 52.7531 27.9507 52.3808 28.3974C52.0334 28.8148 51.0076 28.6584 51.4257 28.1921C51.7138 27.871 52.2425 27.2663 52.2086 27.0843C51.9206 26.8151 51.6604 26.9437 51.4701 27.1987C51.1204 27.6363 50.4173 28.5102 49.751 28.0665C49.39 27.9063 50.4699 26.7271 50.5872 26.5572C50.6429 26.4767 50.3714 26.2188 50.2962 26.2849C49.6961 26.8121 49.1185 27.7717 48.2935 27.2814C48.0513 26.8881 48.3326 26.5399 49.2411 25.7938C49.2283 25.7811 48.8184 25.4614 48.8049 25.4487C48.4439 25.7284 47.1707 27.1069 46.5759 26.482C45.9908 25.8668 47.998 25.1125 48.2055 24.7402C48.1672 24.6899 47.8927 24.3988 47.8295 24.3612C47.6099 24.4928 45.4478 26.1247 44.8003 24.6921C44.9402 24.6154 45.5869 24.377 46.7985 23.5971C46.991 23.4731 46.7729 23.1768 46.633 23.0497C42.4336 25.5697 41.4199 24.2018 41.6432 23.8009C42.4547 23.6002 43.4669 23.461 45.9584 22.248C46.0216 21.9938 45.8689 21.7516 45.805 21.5606C45.4365 21.7569 39.3849 24.5846 39.5165 22.3119C41.4154 22.0088 43.2458 21.6208 44.9138 20.492C45.1049 20.301 44.8627 19.8678 44.6724 19.8039C42.9698 20.8266 40.5844 21.8712 38.5621 21.2169C38.9073 19.664 40.7679 19.6399 42.0606 19.2857ZM37.228 22.0246C37.8154 21.7727 38.2433 22.1119 38.8065 22.1119C38.6155 22.3668 38.8065 22.8293 38.9336 23.0835C36.2361 25.1065 36.3075 25.0696 34.8072 25.7156C34.1635 25.9977 33.4423 25.8322 32.9609 25.6412C33.516 23.4076 35.3818 22.9474 37.228 22.0246ZM25.4 30.8145C27.0386 28.5418 29.4181 27.4799 31.9021 26.3992C32.5323 26.6579 33.3858 26.7023 34.0379 26.6625C33.9597 26.8715 34.013 27.1408 34.1755 27.3288C33.8288 27.5732 24.7555 33.5278 25.4 30.8145Z" fill="white"/>
<path id="Vector_25" fill-rule="evenodd" clip-rule="evenodd" d="M3.73031 39.8697C2.0119 40.0156 0.961307 38.6807 1.4742 38.225C1.69454 37.7136 2.5075 37.7016 2.81884 37.6873C11.3432 37.2932 19.2238 35.0702 24.6949 31.4062C25.1138 32.6569 26.0734 32.2591 26.8232 31.9349C26.6825 32.2658 26.8081 32.526 27.039 32.9389C21.1009 37.1548 11.6666 39.8614 3.73031 39.8697Z" fill="white"/>
<path id="Vector_26" fill-rule="evenodd" clip-rule="evenodd" d="M5.4375 40.6665C13.9874 40.4078 20.6858 37.92 27.8535 33.3409C28.1476 33.201 28.8199 33.2657 29.6531 32.9844C29.6697 32.9784 30.1051 33.6605 30.4135 33.7568C30.433 33.7628 30.3052 34.4013 30.2066 34.6209C26.1088 38.9082 6.21436 45.0922 5.4375 40.6665Z" fill="white"/>
<path id="Vector_27" fill-rule="evenodd" clip-rule="evenodd" d="M10.9219 42.8473C18.2512 41.9396 24.6255 39.4045 30.4019 35.7188C30.4305 36.0955 30.5373 37.3289 32.0451 36.1233C32.3399 36.6844 32.9025 36.5347 32.9656 36.5212C31.8248 38.581 12.887 46.988 10.9219 42.8473Z" fill="white"/>
<path id="Vector_28" fill-rule="evenodd" clip-rule="evenodd" d="M17.8125 44.1188C24.086 42.6132 29.5398 40.4338 34.6822 35.9833C35.5155 36.1337 36.2547 35.5365 37.288 36.3224C34.2175 40.3097 22.1615 47.6812 17.8125 44.1188Z" fill="white"/>
<path id="Vector_29" fill-rule="evenodd" clip-rule="evenodd" d="M24.5625 45.1288C29.0695 43.8135 30.557 42.4937 33.7644 40.5196C35.2106 41.4265 36.6786 40.4699 37.7345 39.6675C37.8232 39.7322 38.4752 39.7916 38.5391 39.9698C34.26 43.2615 29.2304 46.1599 24.5625 45.1288ZM75.2281 20.3311L74.995 20.4981L75.2679 20.6282L75.2281 20.3311ZM70.2285 17.79H71.1317C71.246 17.9299 71.3724 18.0697 71.525 18.2224C71.6394 18.0953 71.704 17.8915 71.6912 17.6238C71.1821 17.3184 70.6813 17.4621 70.2285 17.79ZM71.2521 16.9891C71.9274 17.5523 73.342 16.704 73.5006 16.3242C72.9968 16.3603 72.8855 16.1453 72.6576 16.1047C72.1951 16.0234 71.4288 16.6115 71.2521 16.9891ZM73.3089 19.2918L73.0419 19.3678C73.0915 19.3678 73.2653 19.5054 73.3209 19.5332C73.2911 19.4561 73.2869 19.3715 73.3089 19.2918ZM73.7548 18.3826C72.9013 18.5352 72.599 18.0667 72.7298 17.5395C72.4583 17.6982 72.2846 17.89 71.8823 18.5413L72.4681 18.9737C72.7637 18.9316 73.442 18.6736 73.7548 18.3826ZM75.556 18.7962C75.2371 18.7007 74.8671 18.445 74.8716 18.0066C74.0549 18.3548 73.7624 19.6114 74.2617 20.1822C74.8099 20.4966 75.4868 19.3256 75.556 18.7962ZM76.3591 16.3528C75.8395 16.2355 75.6658 15.6843 75.5921 15.4113C75.2333 15.6369 74.6332 16.2731 74.8618 16.7326C75.3446 16.9876 75.9673 16.616 76.3591 16.3528ZM75.1078 17.2109C74.5362 17.2109 74.2527 16.8311 74.4053 16.2769C73.5006 16.5972 73.1404 17.3591 73.2495 17.8035C73.5909 18.2412 74.8506 17.7245 75.1078 17.2109ZM72.811 15.6895C73.457 16.1558 74.3061 16.1122 75.3582 14.9766C74.4129 14.8051 73.4984 15.0556 72.811 15.6895ZM72.9765 13.6274C73.439 14.3125 74.0955 14.6096 74.937 14.5051C76.0989 14.3381 77.5617 14.2208 78.6619 14.4381L78.804 14.1057C78.3453 12.6235 74.2798 14.02 72.9765 13.6274ZM80.2073 17.2673C79.6034 17.2673 78.7815 17.0688 78.4754 16.6958C78.4942 16.4483 79.0244 16.0325 79.2395 15.9249C80.1765 15.6602 81.1985 15.4459 82.0611 16.0716C82.3567 14.7811 80.3735 14.4434 79.2259 14.4434C78.8469 15.5812 77.7895 16.2957 77.1007 17.2312C77.2556 17.2605 79.7027 17.8892 80.2073 17.2673ZM76.9736 16.2754C77.7008 15.7595 77.9076 15.5722 78.4423 14.8495C78.3528 14.8367 78.2468 14.8367 78.1588 14.8239C77.9747 15.0916 77.7241 15.3068 77.4316 15.4481L76.8848 14.7991C76.6366 14.8172 76.3795 14.8096 76.1343 14.8503C76.1584 15.761 76.4035 15.8663 76.9736 16.2754ZM76.6795 17.2252C76.3501 17.1131 76.3358 17.1643 76.2388 16.8319L75.7515 17.2297C75.55 17.4328 75.2386 18.0126 75.4928 18.4623C76.2358 18.4194 76.487 17.8013 76.6795 17.2252Z" fill="white"/>
<path id="Vector_30" fill-rule="evenodd" clip-rule="evenodd" d="M99.5861 50.3203H98.2483L97.5624 52.5937H97.2293L96.5434 50.3203H95.207L96.2012 53.2202L95.1228 56.1712H96.4592L97.2285 53.8474H97.5617L98.331 56.1712H99.6689L98.589 53.2202L99.5861 50.3203ZM91.7018 56.1749L91.5769 54.7957H90.1142L89.9879 56.1749H88.735L89.3035 50.3233H92.3884L92.9569 56.1749H91.7018ZM90.406 51.5777L90.2225 53.5413H91.4679L91.2844 51.5777H90.406ZM86.6285 54.4189H83.952V56.1749H82.6991V50.3233H86.6285V54.4189ZM85.3741 51.5777H83.952V53.1653H85.3741V51.5777ZM80.4009 51.5777H79.063V56.1749H77.8101V51.5777H76.4722V50.3233H80.4016L80.4009 51.5777ZM74.3312 52.1463H73.0768V51.5777H71.8901V54.9205H73.0768V54.352H74.3312V56.1749H70.6372V50.3233H74.3312V52.1463ZM68.0374 52.1463H66.7837V51.5777H65.597V54.9205H66.7837V54.352H68.0374V56.1749H64.3426V50.3233H68.0374V52.1463ZM61.8857 56.1749H57.9571V50.3233H61.8857V56.1749ZM60.6321 51.5777H59.2107V54.9205H60.6321V51.5777ZM55.9032 51.5777H53.8645V56.1749H52.6108V50.3233H55.9032V51.5777ZM50.011 52.1463H48.7574V51.5777H47.5699V54.9205H48.7574V54.352H50.011V56.1749H46.3163V50.3233H50.011V52.1463ZM43.5856 56.1749H39.657V50.3233H43.5856V56.1749ZM42.3312 51.5777H40.9106V54.9205H42.3312V51.5777ZM37.1474 54.4189H34.4724V56.1749H33.2188V50.3233H37.1474V54.4189ZM35.8938 51.5777H34.4724V53.1653H35.8938V51.5777Z" fill="black"/>
<path id="Vector_31" fill-rule="evenodd" clip-rule="evenodd" d="M66.3767 45.9262C62.33 44.9997 58.8789 43.7513 55.3594 41.5087C56.1889 40.5341 56.2603 39.1082 56.2505 37.9704L56.2543 26.8297C56.2543 25.7332 55.9648 24.5585 55.6 23.5327C57.5471 23.4259 61.4577 21.2744 62.5128 20.1719H70.243C71.2973 21.2744 75.2079 23.4267 77.155 23.5327C76.791 24.5585 76.5014 25.7332 76.5014 26.8297L76.5059 37.9704C76.4939 39.1082 76.5676 40.5341 77.3964 41.5087C73.9407 43.7114 70.3197 45.041 66.3767 45.9262Z" fill="#86111D"/>
<path id="Vector_32" fill-rule="evenodd" clip-rule="evenodd" d="M61.6953 24.4688V41.2979H64.1033V33.506H70.8672V24.4688H61.6953ZM70.8672 37.8543V36.6668H67.3243V41.2979H70.8672V40.0961H68.5697V37.8543H70.8672ZM66.5144 35.8659H70.8672V34.3144H64.9103V41.2979H66.5144V35.8659ZM68.5216 31.0701H64.1033V26.7978H68.5216V31.0701Z" fill="white"/>
</g>
</svg>
