<svg width="127" height="348" viewBox="0 0 127 348" fill="none" xmlns="http://www.w3.org/2000/svg">
<path d="M79.1685 174.302C82.6864 174.761 85.1336 172.467 84.5218 169.714M69.5327 182.867C73.0505 183.326 75.9566 181.185 75.3448 178.279M78.0979 173.384C78.0979 170.172 80.3921 168.031 83.1452 168.184M68.0032 185.314C67.3914 179.196 70.7563 174.914 74.733 176.902M63.4147 181.797C63.8735 176.749 68.1561 172.467 72.1328 173.231M60.5086 196.327C57.2967 198.009 56.226 203.21 58.2144 206.727M63.7206 201.221C63.7206 202.139 64.6383 202.598 65.556 202.292C67.0855 201.527 66.6266 198.927 64.4853 198.621C61.5793 198.468 60.3557 201.527 61.7322 203.821C63.5676 206.421 67.5443 206.421 69.2268 202.904C69.9915 200.915 69.5327 198.468 68.462 196.327M73.6623 69.6843C73.8153 58.8248 87.7337 31.4468 101.499 15.0812C90.4868 29.3055 77.639 56.9894 75.4977 70.2961M102.264 170.325C99.205 160.995 89.7221 142.488 81.6157 130.405C74.1212 119.24 69.9915 105.933 72.4387 89.1089M97.3696 173.69C95.8401 165.584 86.0513 144.018 77.639 130.405C70.2974 118.934 65.8619 101.651 69.9915 88.803M49.9551 281.673C46.2843 253.377 58.9791 239.612 65.8619 252.918M50.5669 235.176C52.4023 235.023 55.1554 235.023 56.0731 235.329M50.108 237.623C53.167 237.47 56.8378 237.623 57.4496 237.929M49.0374 245.118C54.5436 244.506 62.0381 244.812 64.1794 245.73M68.9209 248.636C68.7679 251.695 65.8619 268.519 63.1088 282.438M79.9333 247.412C80.0862 255.213 79.3215 271.884 78.4038 280.602M73.9682 281.061C73.0505 263.319 72.8976 251.389 73.2035 249.553M71.3681 280.449C71.3681 280.908 71.521 282.743 71.521 284.12M67.0855 280.755C67.0855 282.285 67.0855 284.579 67.0855 285.344M52.8611 225.081C50.7198 227.682 46.5902 261.331 44.4489 292.532C48.7315 283.967 58.3673 281.061 63.8735 286.873C65.8619 288.709 68.7679 285.191 65.8619 284.12C61.1204 283.049 62.344 281.214 68.615 280.449C73.5094 279.837 75.6507 280.755 72.7446 282.438C69.9915 284.426 71.674 285.191 76.2625 284.579C80.698 284.273 81.9216 283.202 79.7803 281.979C76.7213 280.449 78.7097 279.532 83.6041 279.99C90.1809 280.602 93.087 281.367 96.2989 282.438C92.6281 273.261 86.2042 252.765 83.2982 241.447M86.3572 204.433C85.8983 205.963 86.0513 211.928 86.816 216.363M88.8044 204.892C87.5808 204.28 85.2865 204.28 84.2159 205.045C83.2982 212.998 83.1452 221.564 84.2159 222.022M81.4628 165.125C78.2508 164.513 75.0389 167.113 74.8859 170.325C77.3331 172.925 81.0039 176.137 82.3805 177.514C83.91 178.738 83.757 180.267 81.7687 180.726C81.0039 181.491 81.1569 181.644 80.698 182.102C79.6274 183.173 78.2508 183.02 78.0979 181.95M49.6492 177.055C47.5079 180.267 48.7315 184.091 52.2493 184.703M53.167 180.114C50.8728 185.161 53.167 190.515 57.6026 190.668M63.2617 188.985C62.497 192.503 64.3324 196.174 66.7796 196.48M61.5793 183.479C59.285 185.62 61.7322 189.903 66.7796 189.903M58.9791 178.126C61.4263 181.338 60.8145 184.55 59.5909 188.068C58.3673 192.656 59.7439 196.786 63.8735 198.468M109.758 183.326C111.288 185.467 109.453 188.373 105.935 188.985C105.629 188.832 105.476 188.526 105.629 188.373M66.3207 205.198C71.0622 211.928 81.4628 212.387 84.0629 204.892M83.2982 197.244C84.0629 200.456 84.0629 203.362 83.91 204.892C78.0979 209.328 70.2974 207.492 69.0738 203.362M108.535 188.068C109.759 193.727 110.829 200.456 110.676 203.515M108.535 178.891C111.288 180.573 109.759 185.161 105.476 188.526C104.252 188.373 103.793 187.303 104.099 186.232M106.699 174.914C110.064 175.984 108.841 181.491 104.252 186.079C102.876 185.773 102.264 184.397 103.182 183.02M59.285 193.115C51.6375 185.009 61.2734 169.102 78.4038 161.607M69.9915 194.491C71.674 198.162 79.1685 199.233 84.8277 196.633C87.2749 196.786 89.5691 194.491 89.4162 192.197C92.6281 183.479 90.3339 172.161 84.5218 169.561C82.9923 168.337 81.3098 165.89 81.3098 164.513C81.1569 163.29 79.6274 161.913 78.2508 161.454C72.2858 153.042 62.344 153.195 57.7555 162.066C41.084 167.572 50.261 187.915 59.438 177.208M105.17 172.314C107.617 172.925 107.005 178.126 103.946 182.867C103.182 183.479 102.111 183.173 101.958 182.102M100.276 186.997C102.57 183.938 102.264 179.196 99.9697 177.514C103.488 176.137 106.241 171.549 105.629 168.337C97.9814 172.008 92.3222 176.443 95.0753 185.161C95.6871 186.997 95.8401 188.526 95.3812 190.209C95.0753 192.35 91.7104 199.845 88.6514 205.045C88.6514 210.398 89.7221 217.128 90.7927 218.046M103.182 193.574C100.734 196.174 101.499 205.657 97.2166 214.222M101.499 185.009C103.488 190.821 104.711 202.139 104.252 208.257M109.911 213.151C114.653 213.151 115.571 215.751 111.9 218.352M111.9 218.352C112.359 216.975 111.135 216.057 109.606 216.516C107.617 217.893 104.558 218.657 103.335 218.046C102.57 217.434 101.193 218.505 100.581 220.187C92.934 231.811 81.4628 241.6 77.639 239.917M111.9 218.352C112.053 227.223 111.135 234.258 106.394 233.952C101.958 233.494 103.029 230.741 103.488 225.387C103.793 223.246 103.488 220.799 104.405 218.352M110.676 209.939C115.112 209.48 116.794 211.622 114.041 214.222M111.441 206.727C116.029 206.574 117.865 208.716 115.112 211.01M81.6157 223.705C82.2275 223.399 90.1809 218.505 97.3696 214.069C102.264 209.633 106.547 205.657 107.158 204.586C113.888 201.68 118.477 203.515 116.029 207.645M70.6033 217.893C74.2741 227.987 71.3681 236.553 64.9442 235.023C54.8495 233.647 53.0141 211.316 60.6616 209.022M64.3324 209.939C61.1204 211.163 59.8968 216.516 61.7322 220.646M76.8743 222.328C78.4038 220.952 80.851 221.716 81.6157 223.552C77.3331 231.505 76.4154 243.741 79.9333 247.718M76.8743 222.328C75.0389 207.798 62.6499 202.751 56.226 207.951C54.5436 209.328 53.167 211.316 52.7082 214.375C49.8021 246.953 81.1569 260.719 83.91 238.847C83.91 238.694 84.0629 238.082 84.0629 237.776M76.8743 222.328C71.9799 227.682 69.2268 241.294 71.3681 249.4M79.3215 57.7542C81.9216 57.7542 85.2865 55.7658 86.2042 53.7775C84.5218 53.4716 81.1569 55.4599 79.3215 57.7542ZM81.7687 51.4832C84.6747 51.4832 88.6514 49.189 89.5691 46.8947C87.7337 46.5888 83.91 48.8831 81.7687 51.4832ZM103.64 53.0127C107.311 55.7658 114.041 56.3776 117.406 54.5422C115.265 52.4009 108.688 51.7891 103.64 53.0127ZM85.5924 75.8023C86.6631 77.6377 89.4162 79.1672 91.2516 79.0142C90.7927 77.7906 88.0396 76.2611 85.5924 75.8023ZM102.111 89.2619C104.711 87.4265 109.3 87.2735 111.594 88.6501C110.064 90.1796 105.629 90.3325 102.111 89.2619ZM96.9107 86.2029C99.3579 84.2145 104.099 83.4498 106.547 84.6734C105.17 86.0499 100.429 86.8147 96.9107 86.2029ZM90.028 82.9909C92.1693 81.0026 96.6048 80.0849 98.8991 81.0026C97.6755 82.5321 93.3929 83.4498 90.028 82.9909ZM84.8277 81.1555C86.2042 79.9319 89.1103 79.3201 90.6398 79.9319C89.7221 80.8496 86.969 81.4614 84.8277 81.1555ZM85.7454 84.0616C85.8983 86.8147 88.1926 90.4855 90.4868 91.4032C90.6398 89.5678 88.3455 86.0499 85.7454 84.0616ZM93.087 86.6617C93.087 89.5678 95.5342 93.3915 97.8284 94.4622C97.9814 92.4738 95.6871 88.803 93.087 86.6617ZM99.3579 89.7207C99.3579 92.7797 101.652 96.9094 103.946 97.98C104.252 96.1446 101.958 92.015 99.3579 89.7207ZM92.6281 74.4257C94.0047 77.1788 97.8284 79.779 100.429 79.779C99.8168 77.9436 95.993 75.3434 92.6281 74.4257ZM100.734 74.1198C102.57 78.0965 108.076 81.7673 111.747 81.6144C110.829 79.0142 105.476 75.3434 100.734 74.1198ZM110.676 75.0375C112.359 78.5554 117.406 81.9203 120.771 81.9203C120.006 79.4731 115.112 76.1082 110.676 75.0375ZM96.2989 57.2953C99.5109 59.5896 105.323 60.2014 108.229 58.5189C106.394 56.8365 100.734 56.2247 96.2989 57.2953ZM84.9806 66.4723C87.5808 68.0018 91.8634 67.8489 94.0047 66.4723C92.4752 65.2487 88.1926 65.4017 84.9806 66.4723ZM105.17 50.4126C105.782 46.5888 109.911 42.3062 112.97 41.5415C112.817 43.9887 108.841 48.2713 105.17 50.4126ZM96.4519 54.3893C96.6048 50.1067 100.276 44.6005 103.64 43.2239C103.946 45.977 100.429 51.3303 96.4519 54.3893ZM87.1219 72.8962C88.1926 70.449 91.4045 68.1548 93.6988 68.1548C93.087 69.6843 89.875 71.9785 87.1219 72.8962ZM112.053 73.3551C114.5 70.602 119.853 68.7666 122.759 69.5313C121.383 71.5197 116.182 73.3551 112.053 73.3551ZM101.805 72.1315C104.099 68.6136 110.064 65.8605 113.582 66.3194C112.359 68.7666 106.547 71.5197 101.805 72.1315ZM94.3106 71.9785C95.6871 69.0725 99.5109 66.3194 102.264 66.1664C101.805 68.1548 97.8284 70.9079 94.3106 71.9785ZM79.1685 68.3077C78.7097 66.0135 80.0862 62.6486 81.6157 61.5779C82.0746 62.9545 80.851 66.1664 79.1685 68.3077ZM83.1452 64.0251C82.9923 61.1191 84.9806 56.9894 87.1219 55.7658C87.5808 57.6012 85.5924 61.5779 83.1452 64.0251ZM89.4162 59.1307C89.1103 55.307 91.7104 50.1067 94.6165 48.5772C95.0753 50.8714 92.4752 56.0717 89.4162 59.1307ZM89.4162 62.1897C92.7811 64.1781 98.5932 64.1781 101.193 62.1897C99.3579 60.8132 93.5458 60.8132 89.4162 62.1897ZM84.6747 44.6005C88.4985 44.6005 93.5458 41.5415 94.9224 38.6354C92.3222 38.3295 87.4278 41.2356 84.6747 44.6005ZM88.4985 36.4941C93.087 36.4941 99.052 32.9763 100.581 29.4584C97.6754 29.1525 91.8634 32.6704 88.4985 36.4941ZM93.5458 28.2348C98.1343 27.4701 103.793 23.3405 104.864 19.8226C101.958 19.8226 96.2989 23.9523 93.5458 28.2348ZM70.7563 62.4956C72.4387 60.9661 73.6623 57.7542 73.2035 56.0717C71.9799 56.9894 70.7563 60.0484 70.7563 62.4956ZM69.8386 53.3186C72.5917 50.8714 74.58 45.6711 73.8153 42.7651C71.9799 44.1416 69.9915 49.3419 69.8386 53.3186ZM68.9209 42.3062C73.2035 39.0943 76.5684 31.5997 75.6507 27.3171C72.7446 29.1525 69.3797 36.4941 68.9209 42.3062ZM67.3914 30.5291C71.9799 27.0112 75.6507 18.9049 74.733 14.3164C71.521 16.1518 67.8502 24.1052 67.3914 30.5291ZM66.1678 18.2931C69.8386 15.8459 73.0505 10.0338 72.5917 6.51596C69.9915 7.73956 66.9325 13.5517 66.1678 18.2931ZM67.8502 57.2953C65.2501 56.0717 62.8029 52.4009 62.8029 50.1067C64.4853 50.7185 66.9325 54.2363 67.8502 57.2953ZM67.0855 49.036C63.4147 47.3536 59.7439 42.1533 59.5909 38.9413C62.1911 39.7061 65.7089 44.7534 67.0855 49.036ZM35.1189 60.9661C33.4365 56.8365 27.4714 53.0127 23.9536 52.7068C24.5654 55.4599 30.3775 59.2837 35.1189 60.9661ZM44.9077 63.2604C43.8371 58.8248 38.6368 54.0834 35.1189 53.4716C35.5778 56.2247 40.6251 60.9661 44.9077 63.2604ZM18.9062 65.8605C21.9652 62.9545 28.3891 61.1191 31.6011 62.3427C29.7657 64.484 23.6477 66.1664 18.9062 65.8605ZM27.1655 69.0725C30.9893 65.5546 38.4838 63.4133 42.4605 64.7899C40.3192 67.39 32.8247 69.3784 27.1655 69.0725ZM51.6375 73.8139C54.0847 72.1315 58.6732 71.6726 60.6616 72.8962C59.1321 74.1198 54.6965 74.5787 51.6375 73.8139ZM59.438 99.8154C58.0614 95.8387 58.9791 89.4148 61.4263 86.9676C62.497 89.4148 61.5793 95.6858 59.438 99.8154ZM48.4256 108.228C47.202 104.71 48.1197 99.2036 50.108 97.2153C51.1787 99.2036 50.261 104.71 48.4256 108.228ZM53.9318 103.945C52.5552 100.121 53.4729 94.0033 55.7672 91.7091C56.9908 94.0033 56.0731 99.9684 53.9318 103.945ZM51.4846 87.2735C52.7082 83.7557 56.8378 79.9319 59.7439 79.626C59.1321 81.7673 55.1554 85.5911 51.4846 87.2735ZM38.6368 102.263C42.1546 102.263 46.8961 99.9684 48.1197 97.3682C45.9784 97.0623 41.2369 99.5095 38.6368 102.263ZM43.6841 94.921C46.5902 95.5328 51.0257 94.3092 52.5552 92.4738C50.7198 91.862 46.2843 93.0856 43.6841 94.921ZM48.7315 90.3325C51.3316 90.9443 55.3083 89.8737 56.6849 88.1912C55.0024 87.5794 51.0257 88.6501 48.7315 90.3325ZM46.2843 75.6493C49.0374 77.6377 54.0847 78.5554 56.5319 77.3318C55.0024 75.8023 49.9551 74.8846 46.2843 75.6493ZM34.5071 77.9436C38.6368 80.6967 46.1313 81.4614 49.4962 79.4731C47.049 77.4847 39.7074 76.567 34.5071 77.9436ZM26.8596 81.7673C30.6834 84.3675 37.5661 85.1322 40.7781 83.2968C38.4838 81.3085 31.754 80.5437 26.8596 81.7673ZM20.7416 86.2029C24.1065 88.4971 30.5304 89.2619 33.2835 87.5794C31.2952 85.744 25.0242 85.1322 20.7416 86.2029ZM27.0126 99.0507C27.4715 94.921 31.1422 89.7207 34.3542 88.6501C34.3542 91.4032 30.6834 96.4505 27.0126 99.0507ZM34.5071 96.9094C35.1189 91.7091 39.7074 85.2852 43.5312 83.9086C43.6841 87.2735 39.0956 93.6974 34.5071 96.9094ZM42.9194 94.0033C43.5312 88.803 48.1197 82.3791 51.9434 81.0026C51.9434 84.3675 47.5079 90.6384 42.9194 94.0033ZM38.1779 70.7549C42.4605 67.8489 50.4139 67.0841 53.9318 69.2254C51.3316 71.2138 43.5312 72.1315 38.1779 70.7549ZM61.5793 69.9902C61.5793 67.39 59.7439 63.8722 57.9085 62.9545C57.7555 64.6369 59.5909 68.1548 61.5793 69.9902ZM56.226 67.543C54.8495 62.4956 49.4962 56.6835 45.5195 55.9188C45.9784 59.1307 51.3316 64.9428 56.226 67.543ZM42.6135 27.776C44.4489 22.2698 42.7664 13.5517 39.4015 10.1868C37.872 13.5517 39.5545 22.1169 42.6135 27.776ZM49.4962 37.7177C51.7905 32.3645 50.7198 23.4934 47.6608 19.9756C45.8254 23.1875 46.8961 31.9056 49.4962 37.7177ZM59.285 52.8598C60.8145 50.4126 60.9675 45.977 59.7439 43.9887C58.5203 45.5182 58.5203 49.9537 59.285 52.8598ZM55.1554 46.4359C57.2967 41.6944 56.5319 33.894 53.9318 30.5291C52.2493 33.4351 53.0141 41.2356 55.1554 46.4359ZM61.4263 62.1897C58.5203 62.3427 54.3906 60.3543 53.32 58.366C55.1554 58.0601 59.1321 60.0484 61.4263 62.1897ZM57.7555 55.4599C53.32 55.7658 47.3549 53.0127 45.6725 50.1067C48.2726 49.4949 54.2377 52.095 57.7555 55.4599ZM40.4722 27.623C35.2719 27.623 28.2362 23.9522 26.4008 20.2815C29.7657 19.9756 36.6484 23.4934 40.4722 27.623ZM47.8138 38.6354C42.0017 38.6354 34.2012 34.5058 32.0599 30.3761C35.7307 29.9173 43.5312 33.894 47.8138 38.6354ZM53.4729 47.9654C48.2726 47.9654 41.2369 44.2946 39.4015 40.6238C42.6135 40.1649 49.4962 43.8357 53.4729 47.9654ZM66.4737 40.3179C61.7322 38.1766 56.9908 31.7527 56.9908 27.623C60.2027 28.6937 64.7912 34.8117 66.4737 40.3179ZM65.7089 30.3761C61.1204 27.3171 57.1437 19.9756 57.7555 15.54C60.8145 17.0695 64.7912 24.4111 65.7089 30.3761ZM64.7912 17.2225C61.1204 14.7753 57.9085 8.96316 58.3673 5.44531C60.9675 6.66891 64.0265 12.481 64.7912 17.2225ZM92.1693 27.0112C90.7927 22.4228 92.4752 15.2341 95.2282 12.634C96.4518 15.3871 94.9223 22.4228 92.1693 27.0112ZM86.816 35.4235C84.6747 30.3761 85.2865 21.9639 88.1926 18.752C89.875 21.811 89.2632 30.0702 86.816 35.4235ZM81.7687 44.7534C79.3215 39.859 79.4744 31.4468 82.0746 27.9289C84.0629 30.835 83.757 39.0943 81.7687 44.7534ZM75.9566 58.9778C74.1212 56.8365 73.3564 52.5539 74.2741 50.4126C75.6507 51.6362 76.4154 55.9188 75.9566 58.9778ZM78.0979 52.8598C75.9566 49.189 75.4977 42.7651 77.3331 39.859C78.8626 42.1533 79.3215 48.4242 78.0979 52.8598ZM72.8976 69.8372C78.4038 69.8372 82.8393 74.2728 82.8393 79.779C82.8393 85.2852 78.4038 89.7207 72.8976 89.7207C67.3914 89.7207 62.9558 85.2852 62.9558 79.779C62.9558 74.2728 67.3914 69.8372 72.8976 69.8372ZM72.8976 75.4964C75.1918 75.4964 77.1802 77.3318 77.1802 79.779C77.1802 82.0732 75.3448 84.0616 72.8976 84.0616C70.6033 84.0616 68.615 82.2262 68.615 79.779C68.615 77.3318 70.4504 75.4964 72.8976 75.4964Z" stroke="#292526" stroke-width="1.62" stroke-miterlimit="22.926"/>
<path fill-rule="evenodd" clip-rule="evenodd" d="M68.7734 180.118C71.3736 181.954 74.1267 178.742 71.5265 176.906C70.4559 177.059 69.3852 178.589 68.7734 180.118Z" fill="#292526"/>
<path d="M68.7734 180.118C71.3736 181.954 74.1267 178.742 71.5265 176.906C70.4559 177.059 69.3852 178.589 68.7734 180.118Z" stroke="#292526" stroke-width="1.62" stroke-miterlimit="22.926"/>
<path fill-rule="evenodd" clip-rule="evenodd" d="M78.5469 171.556C81.147 173.391 83.9001 170.179 81.3 168.344C80.3823 168.497 79.1587 170.026 78.5469 171.556Z" fill="#292526"/>
<path d="M78.5469 171.556C81.147 173.391 83.9001 170.179 81.3 168.344C80.3823 168.497 79.1587 170.026 78.5469 171.556Z" stroke="#292526" stroke-width="1.62" stroke-miterlimit="22.926"/>
<path d="M87.5806 106.088C82.5332 111.289 78.8624 122.301 80.239 127.96M79.1683 126.736C76.8741 120.313 77.6388 109.759 80.8508 105.782C80.3919 108.23 80.6978 111.441 81.3096 112.053C81.1567 108.535 83.6039 102.417 86.0511 99.9702C85.2863 101.347 85.1334 103.947 85.5922 105.171C86.204 102.112 88.9571 97.8289 91.0984 96.6053C90.4866 97.8289 90.0278 99.8173 90.3337 100.735C91.4043 98.1349 94.1574 95.3817 95.6869 95.0758C96.2987 98.2878 93.8515 102.723 90.9455 103.947C92.0161 104.253 94.0045 103.641 94.9222 102.57C94.6163 105.323 89.8748 110.524 86.0511 112.053C86.9688 112.359 89.416 111.594 91.0984 110.524C90.4866 113.277 86.6629 117.101 83.145 118.171C84.2157 118.477 86.204 118.171 87.4276 117.407C83.9098 123.83 80.239 123.983 80.239 129.031M63.7204 139.737C76.7211 145.549 91.8632 157.021 93.8515 162.986M90.7925 155.797C87.5806 149.526 80.5449 141.573 77.3329 139.431C78.0977 141.42 78.5565 144.173 78.4036 145.09C77.18 141.42 71.3679 136.066 66.9323 134.231C68.7677 136.219 70.4502 139.737 70.1443 140.961C67.3912 136.678 61.885 132.09 58.9789 131.631C60.8143 133.16 62.3438 135.761 62.0379 136.831C59.1319 133.313 53.6257 129.184 50.8726 128.572C53.1668 130.101 53.9316 131.784 54.0845 133.466C51.3314 129.49 44.6016 129.795 39.5543 129.184C43.378 131.784 45.6723 135.149 51.7903 135.455C50.5667 136.066 47.8136 136.372 46.1311 136.066C49.8019 138.82 57.1435 141.114 60.5084 140.655C59.7437 141.267 56.5317 141.573 54.2375 141.114C57.4494 143.714 65.8617 146.467 71.2149 146.62C69.9913 147.538 66.4735 147.844 64.1792 147.232C68.3089 150.444 76.7211 153.197 81.0037 152.738C80.239 153.503 77.4859 153.962 75.4975 153.809C83.298 159.774 89.1101 157.174 95.381 166.503M91.4043 147.079C94.3104 142.49 96.7576 126.125 102.111 117.254M90.7925 145.243C88.6512 139.89 88.1924 132.396 89.7219 130.254C89.5689 131.937 90.4866 134.69 91.5573 135.455C90.7925 130.407 91.5573 122.76 93.0868 120.007C92.7809 123.066 93.3927 125.666 94.4633 126.584C93.6986 123.066 95.0751 116.336 97.3694 113.277C96.9105 114.959 97.3694 118.324 97.8282 119.701C97.9812 115.571 100.275 108.688 102.417 105.935C101.958 107.771 101.652 110.218 101.958 110.83C103.029 106.547 106.699 101.041 109.605 99.9702C107.77 104.1 105.017 111.289 104.405 114.042C105.782 112.512 107.617 109.759 108.229 108.382C108.841 112.053 106.088 119.089 102.876 122.301C104.405 121.995 106.699 119.854 107.464 118.018C107.77 123.83 103.334 130.101 100.122 131.937C101.805 131.784 104.252 130.56 104.864 129.795C103.793 133.772 99.9695 138.208 97.0635 139.431C97.9812 139.584 99.8166 138.972 100.887 138.361C99.6636 142.337 95.0751 146.62 91.5573 147.079M64.4851 85.44C59.1319 86.8166 48.2724 97.676 43.0721 107.159C46.437 98.4407 56.6847 86.6636 63.5674 83.4517M62.9556 79.1691C53.4727 78.2514 33.5892 86.8166 23.3416 96.2994C31.295 86.6636 51.3314 76.8748 63.4145 76.7219M64.0263 74.8865C54.6963 66.7801 30.6832 59.5915 16 60.8151C30.6832 58.062 55.3081 64.18 65.2499 73.204M66.6264 71.8275C57.9083 53.4735 39.2484 23.8012 29.4596 12.9417C40.7779 23.3423 60.2025 52.4028 68.4618 70.9098M71.5208 69.9921C70.7561 63.8741 67.2382 30.378 64.6381 3C64.944 20.1304 67.3912 54.0853 69.5325 70.6039M109.452 96.4524C102.57 90.0285 89.1101 83.2987 82.3803 82.9928M82.8391 81.1574C91.5573 82.534 104.864 90.1814 109.452 96.6053M125.818 79.1691C114.5 73.357 92.7809 72.1334 82.3803 76.5689M81.4626 74.7335C93.6986 69.9921 115.723 72.1334 125.665 79.1691M119.853 47.6614C107.005 48.732 86.8158 61.121 79.6272 72.5922M77.6388 70.9098C85.4393 58.8267 105.782 47.3555 119.853 47.5084M58.673 121.077C66.7794 123.677 76.8741 129.337 78.7095 132.396M102.111 170.021C101.958 164.515 104.252 153.962 106.699 148.914M79.0154 133.466C75.6505 134.078 68.4618 132.549 65.5558 130.56C67.3912 130.254 70.2972 129.643 71.062 129.184C66.0146 129.337 58.5201 127.501 56.0729 125.819C57.4494 125.819 59.7437 125.054 60.6614 124.442C56.3788 125.207 49.1901 122.913 46.1311 119.701C47.5077 120.007 50.4137 120.16 51.7903 119.854C47.8136 119.395 42.1544 114.806 40.6249 110.524C45.3664 113.124 50.5667 112.359 55.4611 118.171C55.767 117.254 54.2375 114.348 52.555 112.665C56.2258 113.736 62.9556 118.324 65.7087 121.689C66.1676 120.771 64.944 118.018 63.1086 116.03C66.9323 117.559 74.4269 125.207 78.2506 131.172M102.876 169.715C105.323 167.88 108.076 162.986 108.535 159.927C107.311 160.997 105.17 162.527 104.558 162.68C107.617 159.468 110.829 153.35 110.982 150.75C110.064 151.667 108.229 152.738 107.464 152.891C110.523 150.597 113.123 144.326 112.817 140.502C112.205 141.573 110.676 143.561 109.758 144.326C111.747 141.42 111.9 134.996 110.064 131.631C108.994 136.219 105.476 139.278 106.393 145.855C105.629 145.396 104.711 142.796 104.405 140.808C102.876 143.867 102.111 150.903 102.723 154.726C101.805 154.573 100.734 151.973 100.581 149.679C99.5107 153.044 99.9695 162.527 101.805 168.339M68.9207 157.938C71.8267 157.785 73.968 159.774 73.2033 161.915M64.3322 159.162C64.1792 163.597 69.8384 160.691 69.5325 165.127M60.0496 162.527C59.8966 166.962 65.5558 164.056 65.2499 168.492M56.2258 166.198C56.0729 170.633 61.732 167.574 61.4261 172.163M53.1668 169.868C52.555 173.539 55.3081 176.139 58.673 175.069M84.2157 187.305C85.8981 187.305 87.4276 186.234 87.5806 185.01M81.1567 188.222C82.9921 185.775 85.8981 183.328 87.1217 183.328M101.499 327.254L106.852 330.466M86.6629 326.948L95.534 324.195M96.2987 324.654L89.263 333.831M98.8989 326.336L103.334 336.125M97.5223 325.571L95.6869 338.572M46.437 326.642L55.3081 326.948M58.673 331.078L60.9673 340.255M57.2965 329.854L53.1668 339.949M46.7429 334.901L56.8376 329.242M83.9098 322.512C77.7918 322.818 77.6388 332.301 83.4509 332.454C78.5565 335.819 83.9098 345.455 90.3337 339.49C89.7219 347.137 99.5107 347.137 99.9695 340.102C103.181 345.455 110.982 340.866 107.464 335.513C112.817 336.125 113.429 328.783 109.147 327.407M45.2134 320.983C39.5543 320.677 37.413 329.395 43.0721 331.078C37.413 332.913 39.8602 344.078 47.8136 339.949C44.9075 347.29 54.6963 350.043 57.1435 343.314C58.826 349.432 67.6971 347.137 65.8617 340.866C70.909 343.008 74.4269 335.819 70.6031 333.219M65.5558 329.089C69.0736 331.078 70.6031 333.984 68.6148 335.207C67.85 335.207 66.0146 334.29 64.791 333.219C62.0379 333.984 57.6024 331.231 55.614 327.56C54.5434 325.265 51.1785 323.124 48.8842 323.124C44.2957 322.665 43.0721 318.23 46.59 314.406C49.649 309.359 50.2608 296.052 47.6606 287.946M67.3912 327.254C72.1326 329.089 72.8974 333.066 69.5325 333.831M69.0736 325.418C73.968 327.254 75.0387 331.078 71.3679 332.913M62.3438 285.498C62.6497 288.252 60.5084 298.04 58.0612 304.923C56.5317 308.135 58.2142 313.335 61.4261 315.018C64.6381 317.006 69.3795 321.136 70.909 322.971C73.8151 323.736 76.8741 325.724 76.8741 326.795C76.7211 328.783 74.8857 329.701 73.5092 329.395M93.5456 281.828C94.7692 288.099 93.8515 301.405 91.7102 308.747C90.9455 311.041 92.322 313.641 94.4633 314.406C98.593 316.088 103.793 320.524 105.323 323.43M100.581 318.383C104.252 317.465 108.229 318.689 108.382 320.83M102.57 320.065C106.393 319.453 110.523 321.289 110.982 323.583M80.5449 280.145C84.2157 289.322 77.6388 298.958 82.9921 306.453C84.5216 309.512 84.3686 314.1 83.145 317.006C80.8508 321.136 83.4509 324.042 88.3453 322.665C90.9455 322.206 93.5456 322.359 95.534 324.042C98.2871 326.642 102.876 328.172 105.782 326.795C109.911 328.324 113.123 326.948 112.206 323.889C109.758 323.583 106.088 322.512 104.405 321.748" stroke="#292526" stroke-width="1.62" stroke-miterlimit="22.926"/>
</svg>
