<svg width="33" height="43" viewBox="0 0 33 43" fill="none" xmlns="http://www.w3.org/2000/svg">
<g id="Group 5761">
<circle id="Ellipse 496" cx="16.5" cy="21.5" r="5" stroke="#DD264E" stroke-width="3"/>
<path id="Vector 1049" d="M16 2L16 6" stroke="#DD264E" stroke-width="3" stroke-linecap="round"/>
<path id="Vector 1051" d="M4 4L6.82843 6.82843" stroke="#DD264E" stroke-width="3" stroke-linecap="round"/>
<path id="Vector 1056" d="M4 38.8281L6.82843 35.9997" stroke="#DD264E" stroke-width="3" stroke-linecap="round"/>
<path id="Vector 1055" d="M27.8281 4L24.9997 6.82843" stroke="#DD264E" stroke-width="3" stroke-linecap="round"/>
<path id="Vector 1057" d="M27.8281 38.8281L24.9997 35.9997" stroke="#DD264E" stroke-width="3" stroke-linecap="round"/>
<path id="Vector 1050" d="M16 37L16 41" stroke="#DD264E" stroke-width="3" stroke-linecap="round"/>
<path id="Ellipse 495" d="M31.5 21.5C31.5 24.3803 29.9626 27.0969 27.2615 29.1432C24.5594 31.1902 20.7596 32.5 16.5 32.5C12.2404 32.5 8.44059 31.1902 5.73852 29.1432C3.03743 27.0969 1.5 24.3803 1.5 21.5C1.5 18.6197 3.03743 15.9031 5.73852 13.8568C8.44059 11.8098 12.2404 10.5 16.5 10.5C20.7596 10.5 24.5594 11.8098 27.2615 13.8568C29.9626 15.9031 31.5 18.6197 31.5 21.5Z" stroke="#DD264E" stroke-width="3"/>
</g>
</svg>
