<svg width="425" height="356" viewBox="0 0 425 356" fill="none" xmlns="http://www.w3.org/2000/svg">
<circle cx="250" cy="175" r="150" stroke="#189387" stroke-width="50"/>
<rect width="261" height="355" fill="white"/>
<path d="M114.582 100.318C114.419 103.089 115.232 105.697 117.184 108.142M117.184 108.142C117.51 130.473 112.141 143.675 114.094 152.64C116.534 164.05 126.456 165.191 128.734 165.191C134.427 165.191 138.331 161.279 139.958 157.041C141.422 153.292 141.259 148.565 138.982 145.468C137.03 142.697 134.753 141.393 131.337 141.23C127.595 140.904 124.016 143.186 123.528 147.098M117.184 108.142C122.715 109.12 126.944 107.327 129.71 102.6C132.963 113.521 134.753 122.16 135.078 128.354M116.696 92.8201C113.768 92.9831 112.955 95.428 113.443 97.71C113.768 99.34 115.07 101.133 116.696 103.252C117.672 103.415 119.299 102.111 118.323 100.155M118.323 91.1901C115.07 93.3091 115.72 96.732 119.299 101.785C120.275 101.948 121.739 100.644 120.763 98.851C120.275 97.384 119.95 96.406 119.95 95.591M129.385 102.926C131.337 93.3091 127.432 88.7452 118.16 89.3971C117.835 90.5381 118.16 91.8421 119.299 92.8201C119.95 93.3091 121.251 93.6351 122.878 93.6351C123.04 94.6131 123.528 95.428 124.504 95.917C122.39 97.058 120.926 99.34 121.576 102.274M197.055 73.5864C195.754 73.2604 194.778 73.2604 193.151 73.0974M141.259 73.5864C142.561 73.2604 143.537 73.2604 145.163 73.0974M196.567 76.8463C195.266 76.3573 193.964 76.0313 192.5 75.7053M141.585 76.8463C142.886 76.3573 144.187 76.0313 145.651 75.7053M195.916 79.9433C194.452 79.2913 192.988 78.6393 191.199 78.1503M142.235 79.9433C143.699 79.2913 145.163 78.6393 146.953 78.1503M195.428 83.0402C193.639 82.0623 192.175 81.2473 190.06 80.2693M142.723 83.0402C144.513 82.0623 145.977 81.2473 148.092 80.2693M194.778 86.4632C192.826 84.8332 190.711 83.5292 188.434 82.2252M143.699 86.3002C145.651 84.6702 147.604 83.5292 149.881 82.2252M193.476 89.8861C191.199 87.7672 189.084 86.1372 186.156 84.5072M144.675 89.8861C146.953 87.7672 149.068 86.1372 151.996 84.5072M192.338 93.4721C190.06 90.7011 187.62 88.7451 184.204 86.4632M145.977 93.3091C148.254 90.5381 150.532 88.7451 153.948 86.4632M190.711 97.71C188.434 94.4501 185.668 91.3531 182.09 88.7451M147.604 97.547C149.881 94.2871 152.484 91.3531 156.062 88.7451M189.084 58.9166C183.554 54.8417 178.023 55.9826 174.119 55.3307C171.353 55.0047 169.564 53.5377 169.076 50.7667C168.588 53.5377 166.799 55.0047 164.033 55.3307C160.129 55.9826 154.598 54.8417 149.068 58.9166M164.033 91.3531C166.636 92.9831 169.401 93.4721 172.817 92.1681M123.854 89.8861C123.203 86.7892 122.227 84.0182 121.088 81.2473C120.6 80.2693 119.299 79.9433 118.648 80.5953C117.998 81.0843 117.835 82.0622 118.16 83.5292C118.811 85.6482 119.462 87.6042 119.787 89.3971M128.083 92.6571C127.27 88.4192 126.131 84.3442 124.504 80.5953C124.016 79.4543 122.715 79.2913 122.064 79.9433C121.414 80.4323 121.251 81.4103 121.576 82.8772M177.209 35.608C175.583 41.6389 174.607 46.6918 173.468 51.2557M160.942 35.608C162.569 41.6389 163.545 46.6918 164.684 51.2557M209.418 67.5555C204.863 68.3705 200.634 68.8595 195.754 69.6744M128.734 67.5555C133.289 68.3705 137.518 68.8595 142.398 69.6744M209.906 79.6173C204.701 78.8023 200.797 78.4763 196.567 77.9873M128.408 79.6173C133.614 78.8023 137.518 78.4763 141.747 77.9873M148.092 113.684C134.59 106.023 126.294 91.6791 126.294 76.1943C126.294 52.3967 145.651 33 169.401 33C193.151 33 212.509 52.3967 212.509 76.1943C212.509 90.2121 205.677 103.252 194.452 111.402M114.256 139.111C120.926 140.578 126.782 139.274 131.499 135.199M117.022 114.662C122.715 116.292 128.408 114.01 131.499 109.446M116.534 121.671C123.203 123.464 129.222 120.53 133.126 115.64M115.72 129.984C123.04 131.776 129.873 129.006 134.59 124.279M145.163 65.7625C151.996 59.4056 163.545 59.7316 167.124 65.1105C166.473 73.9124 165.985 80.5953 165.66 85.4852C167.449 86.3002 168.913 86.6262 170.377 86.1372M188.596 101.948C184.367 94.2871 179.975 89.2341 172.492 85.3222C172.167 80.4323 171.841 73.7494 171.028 64.9475C174.607 59.5686 186.319 59.0796 193.639 64.7845M149.718 101.948C153.785 94.4501 158.502 89.3971 165.823 85.6482M153.297 105.371C153.785 104.23 154.598 102.437 155.249 101.296M155.249 101.296C155.412 100.97 155.574 100.644 155.737 100.481C158.665 95.428 163.22 91.0271 169.076 88.4192C176.884 91.8421 181.927 98.688 185.343 106.186M155.249 101.296C156.55 103.741 158.99 107.001 157.689 110.261C156.388 114.01 151.833 116.292 148.254 119.878M174.769 95.917C177.209 102.111 179.975 110.261 181.114 114.336M162.894 96.406C160.617 103.415 159.153 108.794 158.014 113.032M165.335 96.895C163.545 105.534 162.406 112.054 161.756 116.455M172.329 96.732C174.607 106.186 176.233 112.869 176.884 117.922M167.612 97.058C167.124 107.816 166.799 115.477 166.636 119.878M170.052 97.058C171.028 107.001 171.841 114.662 172.329 120.53M199.983 253.536C199.007 266.249 204.701 273.258 213.159 277.659C222.269 282.223 233.331 286.461 237.072 290.373C234.957 282.712 233.493 271.139 233.331 264.945C232.192 245.549 233.493 234.302 223.082 220.773C217.064 212.949 207.629 206.592 196.567 202.843C195.591 197.138 195.266 192.086 195.103 186.87C194.94 184.914 194.94 182.469 194.778 180.513C203.562 184.751 212.021 182.632 216.576 178.231C221.293 173.667 223.082 165.028 222.269 155.574C220.642 138.785 210.069 121.508 191.199 109.12C187.132 106.512 186.482 105.697 189.572 99.992C193.639 91.8421 196.242 83.0402 197.055 73.4234M171.516 121.019C172.004 128.843 172.167 135.851 172.329 141.719M156.713 111.891C160.454 115.803 165.009 119.878 170.052 121.508C175.095 120.204 178.999 116.781 183.716 111.565M152.646 116.129C157.364 118.9 161.105 122.16 163.708 126.072C166.473 130.473 167.937 135.688 168.588 142.045M189.735 116.292C186.482 113.521 182.578 111.402 181.439 108.305C180.463 105.697 181.602 103.252 182.74 101.133M239.349 234.628C236.909 235.606 233.819 235.606 230.402 234.954M95.0612 228.76C97.5012 230.553 100.104 231.531 102.707 231.694M226.498 204.31C224.221 205.777 222.757 208.548 222.757 211.319C222.757 216.209 226.824 220.284 231.867 220.61C234.469 220.773 236.909 219.632 238.699 217.839M109.376 201.213C111.816 203.006 113.118 205.777 113.28 208.548C113.28 213.438 109.376 217.187 104.333 217.024C101.568 216.861 98.9652 215.557 97.1759 213.275M226.661 226.152C228.288 226.967 230.728 227.293 231.867 227.293C234.632 227.456 237.397 226.804 239.675 225.663M218.202 201.213C216.413 203.821 215.274 206.918 215.274 210.341C215.274 211.319 215.437 212.134 215.6 213.112M107.912 223.544C106.773 223.707 105.635 223.87 104.333 223.707C101.08 223.544 97.9892 222.403 95.2238 220.61M117.672 198.931C119.624 201.702 120.763 204.962 120.763 208.385C120.763 210.504 120.438 212.46 119.624 214.416M135.403 152.314C134.427 158.834 129.71 162.583 123.366 163.887M116.208 158.019C124.016 158.508 130.361 154.433 131.499 147.913M136.705 161.931C137.843 157.53 136.217 151.988 132.801 149.054C130.198 146.772 126.619 146.12 123.366 147.098C121.739 151.01 117.51 151.173 113.606 150.358M129.385 141.067C131.825 132.102 136.217 124.768 142.561 118.574C145.163 115.966 151.182 111.239 152.484 108.142C152.972 107.001 152.321 106.349 151.833 105.371C145.977 95.754 142.398 84.9962 141.259 73.2604C147.278 45.3878 188.108 40.9869 197.055 73.2604M112.304 290.373C135.566 299.99 156.062 299.99 167.937 299.99M167.937 299.99C178.511 299.99 194.778 300.805 218.853 287.765M167.937 299.99C156.225 299.827 135.891 297.871 121.576 285.809M167.937 299.99C178.511 299.99 196.567 296.893 209.255 283.364M128.083 280.919C140.121 291.025 158.014 292.818 168.1 292.492C177.047 292.166 193.151 289.232 203.074 278.963M132.313 273.91C143.862 283.364 157.364 284.831 167.612 284.505C176.559 284.179 188.271 281.571 198.357 273.91M134.265 264.619C143.862 274.888 159.966 276.681 167.449 276.518C176.396 276.355 185.506 274.073 194.615 266.901M140.446 258.752C146.953 264.945 159.966 268.531 167.449 268.368C176.396 268.205 184.042 265.923 192.988 258.426M144.513 251.254C150.206 256.633 159.804 259.241 167.287 259.078C176.233 258.915 184.53 255.981 193.476 248.32M146.79 243.104C158.177 251.417 175.583 252.558 189.084 241.637M146.953 233.487C158.34 243.43 175.42 243.593 186.807 234.628M162.894 173.993C166.473 175.786 171.028 175.949 175.257 174.482M162.406 182.632C165.985 184.588 170.865 185.077 175.257 183.447M161.756 192.412C165.823 194.368 170.865 194.857 175.257 193.227M161.268 202.517C165.497 204.636 171.191 205.125 175.745 203.006M160.617 212.46C165.497 214.416 171.516 214.905 176.396 212.786M160.292 222.403C167.287 225.011 175.257 224.359 181.764 219.469M147.278 224.685C159.153 235.28 175.583 236.258 186.97 225.174M211.37 199.746C208.93 201.702 207.629 204.31 206.978 207.244M124.504 197.953C127.758 200.887 129.385 205.288 129.385 209.363M202.423 193.227C199.821 192.738 197.055 193.064 195.428 194.694M202.423 193.227C201.285 188.174 200.797 185.24 200.146 182.306M202.423 193.227C204.538 194.042 206.815 196.649 207.141 199.094C208.93 199.42 208.605 199.257 210.231 199.583C221.618 201.865 228.613 204.147 234.144 209.852C240.976 217.187 240.488 226.641 238.699 241.148C237.885 248.646 232.192 262.826 237.072 290.047M134.59 192.575C138.494 192.575 141.097 193.553 142.886 195.509M207.141 198.931C203.237 199.42 199.658 200.072 196.567 202.68M130.686 197.301C134.427 199.746 136.542 202.843 137.355 206.755M138.982 158.671C138.169 167.962 137.03 177.416 134.59 192.738C132.475 193.227 131.011 195.183 130.686 197.464C116.371 198.768 107.912 200.072 101.893 206.266C91.8078 216.209 94.4105 232.02 99.4533 262.826M145.326 225.174C150.206 242.289 144.838 256.959 133.777 264.782M142.561 118.737C148.092 119.063 153.948 121.997 157.852 127.05C160.942 131.125 162.894 136.34 163.708 142.534M175.908 160.79L172.817 160.953L172.329 151.336L185.18 150.358L186.156 157.856M175.42 165.517L168.425 165.68L167.449 147.098L189.735 145.468L192.012 163.072M175.257 170.244L163.871 170.733L162.569 142.697L193.964 139.926L197.706 164.05M237.072 290.21C237.723 293.144 238.699 296.241 240 299.338C235.933 294.937 223.082 289.395 212.834 284.994C197.218 277.985 190.711 265.76 193.802 248.646M132.475 257.611C136.217 271.302 130.686 280.104 123.04 284.831C114.744 289.884 104.333 292.818 101.243 296.893C102.219 289.232 101.731 280.593 101.08 274.399C98.6399 255.166 96.3625 241.474 104.984 227.619C111.653 216.861 127.27 208.874 142.073 205.451C144.513 179.372 145.977 162.583 146.14 151.499C146.302 139.926 139.633 133.732 131.337 136.014M132.963 230.064C134.753 235.28 134.102 244.245 131.337 249.298C126.294 257.774 114.582 259.078 109.864 268.368C108.563 270.976 107.749 274.399 107.749 278.637M125.643 262.989C129.71 279.452 111.165 280.756 107.749 285.809C108.075 280.756 107.587 275.866 107.099 271.791C106.285 264.13 105.472 257.448 105.472 251.58C105.309 241.637 108.563 232.02 118.486 224.033C124.992 218.817 134.753 214.579 148.092 211.156C150.532 183.936 151.345 165.028 151.996 151.662C152.321 144.979 151.02 139.274 148.254 135.525C144.675 130.473 138.819 128.843 133.777 130.147M193.802 223.544C192.175 229.901 192.663 236.747 196.567 241.637C200.309 246.201 205.026 248.646 209.743 251.091C214.298 253.536 219.829 255.655 223.57 261.034C225.522 263.641 226.986 267.064 227.8 271.465M206.653 256.796C206.327 263.152 208.93 266.738 212.509 269.509C218.365 274.073 226.661 275.54 229.264 278.637C227.962 273.421 227.312 268.531 226.986 264.293C226.498 257.448 226.498 250.276 225.848 244.571C225.034 237.073 222.757 230.064 217.064 223.87C210.557 216.861 201.447 211.319 189.735 207.244C188.596 198.116 187.946 190.456 187.62 173.83M199.821 226.804C199.17 230.879 199.821 234.954 201.935 238.214C204.05 241.311 207.303 243.104 210.394 244.734C214.461 246.853 218.365 248.483 220.642 250.602C220.805 241.8 219.341 235.769 213.322 229.249C206.978 222.403 197.218 216.698 183.716 212.949C181.602 198.279 180.951 181.002 181.602 161.116C185.831 167.473 191.85 170.57 198.031 169.592C201.122 169.103 204.05 167.799 206.978 165.517C212.346 161.116 221.456 164.213 220.317 172.526M127.432 233.813C127.92 237.725 127.758 241.963 126.456 244.897C122.715 252.884 114.907 254.188 112.467 257.774C111.491 252.884 111.816 247.668 113.118 243.593C114.094 240.333 115.558 237.236 117.672 234.628C124.342 226.315 136.217 219.958 154.273 216.698C155.412 197.464 156.713 177.579 158.34 156.226C158.99 144.001 157.038 135.199 152.321 129.658C148.742 125.583 143.211 123.138 137.681 124.442M119.299 267.39C119.787 269.02 119.299 270.487 118.323 271.628C117.184 273.095 115.07 273.584 114.256 274.725C114.907 270.65 117.835 268.205 123.04 264.782C126.131 262.663 131.987 259.73 136.054 254.025C140.121 248.32 142.398 239.844 139.307 227.619M214.624 261.359C214.624 262.989 215.274 263.804 216.25 264.782C217.552 266.249 219.341 266.738 220.317 267.716C219.016 263.641 215.437 261.36 209.418 258.263C202.261 254.514 181.114 247.668 187.783 221.262M177.047 141.393C178.348 137.481 178.836 133.08 179.812 129.169C181.602 121.508 185.668 117.107 190.711 116.129C195.591 114.988 200.797 116.292 204.701 120.53M183.228 140.741C185.994 137.481 187.62 132.428 188.759 128.191C190.06 122.812 192.988 120.041 196.567 119.063C199.983 118.085 203.562 119.063 206.327 121.997M190.711 140.252C193.314 138.133 194.29 135.362 195.266 132.102C197.38 123.301 205.351 121.345 210.069 126.561M194.452 144.164C194.778 144.001 195.103 144.001 195.266 143.838C197.543 142.534 198.519 140.904 199.821 137.807C203.237 129.332 211.37 128.68 215.274 134.384M195.591 150.521C196.242 150.358 196.73 150.358 197.381 150.032C199.983 149.054 201.122 147.587 202.911 144.49C207.629 136.34 216.088 136.666 219.341 143.186M196.567 157.204C197.218 157.204 197.706 157.041 198.357 156.878C200.959 156.063 202.261 154.759 204.375 151.825C209.906 143.838 218.853 145.468 221.781 152.64M207.141 231.694C207.141 233.487 207.629 235.117 208.442 236.258C209.743 237.888 211.858 238.703 212.997 239.681C210.557 233.161 204.538 229.086 198.194 225.663C190.548 221.751 186.482 220.284 176.884 218.491C175.583 200.072 174.119 178.068 176.071 158.508C176.721 152.64 182.578 151.662 185.831 156.715C188.434 162.094 193.151 164.539 197.869 163.724C200.146 163.398 202.423 162.094 204.538 159.975C210.882 152.477 219.992 155.085 222.432 162.094M163.383 163.561C161.918 188.174 160.617 205.288 160.454 222.403C148.417 223.707 138.331 226.641 131.011 231.205C124.992 234.954 119.299 240.333 117.672 246.364C119.299 244.734 121.902 242.289 121.739 239.029M181.439 66.2515C179.649 66.2515 178.185 67.7185 178.185 69.3484C178.185 71.1414 179.649 72.4454 181.439 72.4454C183.228 72.4454 184.692 70.9784 184.692 69.3484C184.53 67.7185 183.228 66.2515 181.439 66.2515ZM157.038 66.0885C158.828 66.0885 160.292 67.5555 160.292 69.1854C160.292 70.9784 158.828 72.2824 157.038 72.2824C155.249 72.2824 153.785 70.8154 153.785 69.1854C153.785 67.5555 155.249 66.0885 157.038 66.0885ZM172.655 69.8374C176.559 61.5246 185.668 62.1766 190.548 70.0004C185.343 77.0093 176.071 76.5203 172.655 69.8374ZM166.311 70.0004C162.406 61.6876 151.508 61.5246 147.441 70.4894C152.972 76.6833 161.918 76.6833 166.311 70.0004ZM232.029 209.526C230.565 209.526 229.264 210.667 229.264 212.134C229.264 213.601 230.565 214.905 232.029 215.068C233.493 215.231 234.795 213.927 234.795 212.46C234.957 210.83 233.656 209.526 232.029 209.526ZM103.845 205.94C105.472 205.94 106.611 207.244 106.611 208.874C106.611 210.341 105.309 211.645 103.845 211.482C102.381 211.319 101.08 210.178 101.08 208.548C101.08 207.081 102.381 205.777 103.845 205.94Z" stroke="#292526" stroke-width="1.62" stroke-miterlimit="22.926"/>
<path fill-rule="evenodd" clip-rule="evenodd" d="M45.2762 0L39.9561 5.31827L35.985 1.18965L35.7534 0.948836H35.4192L14.7811 0.948835H13.9961L13.9961 1.73384L13.9961 22.0032L13.9961 22.3284L14.2261 22.5583L18.3777 26.7085L14.2261 30.8587L13.9961 31.0887L13.9961 31.4139L13.9961 52.0452L13.9961 52.8302H14.7811L35.0572 52.8302H35.3823L35.6122 52.6004L39.7641 48.4498L45.5332 54.2169L39.8674 59.8808L35.985 55.8445L35.7534 55.6036H35.4192L14.7811 55.6036H13.9961L13.9961 56.3886L13.9961 76.658L13.9961 76.9855L14.2289 77.2159L18.3982 81.3429L14.2261 85.5135L13.9961 85.7435L13.9961 86.0687L13.9961 106.7L13.9961 107.485H14.7811H35.0572H35.3823L35.6122 107.255L39.8546 103.014L45.5332 108.691L39.8674 114.355L35.985 110.318L35.7534 110.077H35.4192H14.7811H13.9961L13.9961 110.862L13.9961 131.132L13.9961 131.459L14.2289 131.69L18.3982 135.817L14.2261 139.987L13.9961 140.217L13.9961 140.543L13.9961 161.174L13.9961 161.959H14.7811H35.0572H35.3823L35.6122 161.729L39.7641 157.578L45.5332 163.346L39.9562 168.921L35.985 164.792L35.7534 164.551H35.4192H14.7811H13.9961L13.9961 165.336L13.9961 185.606L13.9961 185.933L14.2289 186.164L18.3982 190.291L14.2261 194.461L13.9961 194.691L13.9961 195.016L13.9961 215.648L13.9961 216.433H14.7811H35.0572H35.3823L35.6122 216.203L39.7641 212.052L45.5332 217.819L39.9561 223.395L35.985 219.266L35.7534 219.025H35.4192H14.7811H13.9961L13.9961 219.81L13.9961 240.079L13.9961 240.407L14.2289 240.637L18.3982 244.764L14.2261 248.935L13.9961 249.165L13.9961 249.49L13.9961 269.941L13.9961 270.726H14.7811H35.0572H35.3822L35.6122 270.496L39.6736 266.436L45.5332 272.293L39.8674 277.957L35.985 273.921L35.7534 273.68H35.4192H14.7811H13.9961L13.9961 274.465L13.9961 294.734L13.9961 295.062L14.2289 295.292L18.3981 299.419L14.2261 303.59L13.9961 303.82L13.9961 304.145L13.9961 324.776V325.561H14.7811H35.0572H35.3822L35.6122 325.332L39.8546 321.09L45.5332 326.767L39.9561 332.342L35.985 328.214L35.7534 327.973H35.4192H14.7811H13.9961V328.758V349.027V349.352L14.2261 349.582L19.6572 355.012L20.7672 353.901L15.5661 348.702L15.5661 329.543H35.0851L38.8456 333.452L33.1563 339.14L31.9914 337.975L31.7531 337.737L31.4163 337.746L24.3559 337.927L23.591 337.946V338.712V345.227V345.552L23.821 345.782L33.2349 355.193L34.3449 354.082L34.2666 354.004L39.9342 348.338L43.9053 352.467L44.1369 352.708H44.4711H65.1092H65.8942V351.923V331.653V331.326L65.6615 331.096L61.0373 326.518L65.4832 322.074L65.7132 321.844V321.519V301.249V300.464H64.9282H44.6521H44.327L44.0971 300.694L39.7641 305.026L34.2666 299.53L39.9341 293.865L43.9053 297.993L44.1369 298.234H44.4711H65.1092H65.8942V297.449V277.18V276.852L65.6615 276.622L61.0373 272.044L65.4832 267.6L65.7132 267.37V267.045V246.776V245.991H64.9282H44.6521H44.327L44.0971 246.22L39.8547 250.461L34.2666 244.875L39.9342 239.21L43.9053 243.338L44.1369 243.579H44.4711H65.1092H65.8942V242.794L65.8942 222.525V222.197L65.6615 221.967L61.1283 217.48L65.4832 213.126L65.7132 212.896V212.571V192.302V191.517H64.9282H44.6521H44.327L44.0971 191.747L39.8547 195.988L34.2666 190.401L39.9342 184.736L43.9053 188.864L44.1369 189.105H44.4711H65.1092H65.8942V188.32V168.051V167.723L65.6615 167.493L61.0374 162.916L65.4832 158.471L65.7132 158.242V157.916V137.647V136.862H64.9282H44.6521H44.327L44.0971 137.092L39.7641 141.423L34.2666 135.928L39.9342 130.262L43.9053 134.391L44.1369 134.631H44.4711H65.1092H65.8942V133.846V113.577V113.25L65.6615 113.019L61.0374 108.442L65.4832 103.998L65.7132 103.768V103.442L65.7132 83.1731V82.3881H64.9282H44.6521H44.327L44.0971 82.618L39.7641 86.9495L34.2666 81.4538L39.9342 75.7882L43.9053 79.9168L44.1369 80.1576H44.4711H65.1092H65.8942V79.3726V59.1033V58.7758L65.6615 58.5454L61.1283 54.0582L65.4832 49.7048L65.7132 49.4748V49.1496V28.6993V27.9143H64.9282H44.6521H44.327L44.0971 28.1441L39.8546 32.3852L34.2666 26.799L39.9342 21.1334L43.9053 25.262L44.1369 25.5028H44.4711H65.1092H65.8942V24.7178V4.44849V4.12097L65.6615 3.89058L61.7311 0H59.4994L64.3242 4.77599V23.9328H44.8052L41.0447 20.0232L46.553 14.5168L47.8989 15.8622L48.1372 16.1004L48.474 16.0918L55.5344 15.9108L56.2993 15.8912V15.1261L56.2993 8.61093V8.28569L56.0693 8.05576L48.0108 0H45.2762ZM48.7706 14.5137L47.6633 13.4068L53.4324 7.63966L54.7293 8.93616V14.3609L48.7706 14.5137ZM46.6435 0.853072L52.322 6.52969L33.1563 25.6891L27.4778 20.0124L46.6435 0.853072ZM32.1365 13.1353L26.3674 18.9024L25.161 17.6965V12.2717L31.1197 12.1189L32.1365 13.1353ZM38.8456 6.42844L33.2468 12.0254L31.9914 10.7704L31.7532 10.5322L31.4163 10.5408L24.3559 10.7218L23.591 10.7414V11.5065V18.0217V18.3469L23.8211 18.5769L38.7443 33.4951L33.0658 39.1718L15.5661 21.6779L15.5661 2.51884L35.0851 2.51884L38.8456 6.42844ZM26.2554 34.5836L31.9554 40.2818L30.7493 41.4875H24.98V35.7428L26.2554 34.5836ZM19.4881 27.8185L25.1438 33.4724L23.667 34.8145L23.41 35.0481V35.3954V42.2725V43.0575H24.195H31.0744H31.3995L31.6294 42.8277L44.9772 29.4843H64.1432V48.8244L60.0125 52.9537L54.397 47.395L56.2503 45.5423L56.4803 45.3124V44.9871V38.472V37.687H55.6953H48.6349H48.3098L48.0799 37.9168L34.7321 51.2602L15.5661 51.2602L15.5661 31.7391L19.4881 27.8185ZM54.9103 44.6619L53.2812 46.2905L47.5747 40.6419L48.96 39.257H54.9103V44.6619ZM40.8745 47.3398L46.4643 41.7518L64.3242 59.4308V78.5876H44.8052L41.0447 74.678L46.6435 69.0811L47.8989 70.336L48.1372 70.5742L48.474 70.5656L55.5344 70.3846L56.2993 70.3651V69.5999V63.0847V62.7595L56.0693 62.5296L40.8745 47.3398ZM48.7706 68.9875L47.7539 67.9711L53.5229 62.204L54.7293 63.41V68.8348L48.7706 68.9875ZM46.6435 55.3269L52.4126 61.094L33.1563 80.3439L27.3873 74.5767L46.6435 55.3269ZM32.046 67.6996L26.2769 73.4668L25.161 72.3513V66.9265L31.1198 66.7738L32.046 67.6996ZM38.7569 60.991L33.1563 66.5897L31.9914 65.4252L31.7531 65.187L31.4163 65.1956L24.3559 65.3766L23.591 65.3962V66.1613V72.6765V73.0017L23.8211 73.2317L38.6538 88.0595L33.0622 93.6492L15.5661 76.3305L15.5661 57.1736L35.0851 57.1736L38.7569 60.991ZM26.2222 89.0877L31.9518 94.7592L30.7493 95.9613H24.98V90.2166L26.2222 89.0877ZM19.514 82.4474L25.1048 87.9816L23.667 89.2883L23.41 89.5219V89.8692V96.7463V97.5313H24.195H31.0744H31.3995L31.6294 97.3015L44.9772 83.9581H64.1432L64.1432 103.117L59.9215 107.337L54.4879 101.959L56.2503 100.197L56.4803 99.9672V99.6419V93.1268V92.3418H55.6953H48.6349H48.3098L48.0799 92.5717L34.7321 105.915H15.5661L15.5661 86.394L19.514 82.4474ZM54.9103 99.3167L53.3721 100.854L47.6656 95.2057L48.96 93.9118H54.9103V99.3167ZM40.965 101.904L46.5553 96.3157L64.3242 113.905V133.061H44.8052L41.0447 129.152L46.6435 123.555L47.8989 124.81L48.1372 125.048L48.474 125.039L55.5344 124.858L56.2993 124.839V124.074V117.559V117.233L56.0693 117.003L40.965 101.904ZM48.7706 123.461L47.7538 122.445L53.5229 116.678L54.7293 117.884V123.309L48.7706 123.461ZM46.6435 109.801L52.4125 115.568L33.1563 134.818L27.3873 129.051L46.6435 109.801ZM32.046 122.173L26.2769 127.941L25.161 126.825V121.4L31.1198 121.248L32.046 122.173ZM38.7569 115.465L33.1563 121.064L31.9914 119.899L31.7532 119.661L31.4163 119.669L24.3559 119.85L23.591 119.87V120.635V127.15V127.476L23.8211 127.706L38.6538 142.533L33.0622 148.123L15.5661 130.804L15.5661 111.647H35.0851L38.7569 115.465ZM26.2222 143.562L31.9518 149.233L30.7493 150.435H24.98V144.69L26.2222 143.562ZM19.514 136.921L25.1048 142.455L23.667 143.762L23.41 143.996V144.343V151.22V152.005H24.195H31.0744H31.3995L31.6294 151.775L44.9772 138.432H64.1432V157.591L59.9215 161.811L54.4879 156.433L56.2503 154.671L56.4803 154.441V154.116V147.601V146.816H55.6953H48.6349H48.3098L48.0799 147.045L34.7321 160.389H15.5661L15.5661 140.868L19.514 136.921ZM54.9103 153.791L53.3721 155.328L47.6656 149.68L48.96 148.386H54.9103V153.791ZM40.8745 156.468L46.5553 150.79L64.3242 168.378V187.535H44.8052L41.0447 183.626L46.553 178.119L47.8989 179.465L48.1372 179.703L48.474 179.694L55.5344 179.513L56.2993 179.494V178.729V172.213V171.888L56.0693 171.658L40.8745 156.468ZM48.7706 178.116L47.6633 177.009L53.4324 171.242L54.7293 172.539V177.963L48.7706 178.116ZM46.6435 164.456L52.322 170.132L33.1563 189.292L27.4778 183.615L46.6435 164.456ZM32.1365 176.738L26.3674 182.505L25.161 181.299V175.874L31.1198 175.721L32.1365 176.738ZM38.8456 170.031L33.2468 175.628L31.9914 174.373L31.7531 174.135L31.4163 174.143L24.3559 174.324L23.591 174.344V175.109V181.624V181.949L23.821 182.179L38.7443 197.098L33.1531 202.687L15.5661 185.278L15.5661 166.121H35.0851L38.8456 170.031ZM26.3175 198.13L32.0428 203.797L30.7493 205.09H24.98V199.345L26.3175 198.13ZM19.514 191.395L25.2002 197.024L23.667 198.417L23.41 198.651V198.998V205.875V206.66H24.195H31.0744H31.3995L31.6294 206.43L44.9772 193.087H64.1432V212.246L60.0125 216.375L54.4879 210.907L56.2503 209.145L56.4803 208.915V208.59V202.074V201.289H55.6953H48.6349H48.3098L48.0799 201.519L34.7321 214.863H15.5661L15.5661 195.342L19.514 191.395ZM54.9103 208.264L53.3721 209.802L47.6656 204.153L48.96 202.859H54.9103V208.264ZM40.8745 210.942L46.5553 205.263L64.3242 222.852L64.3242 242.009H44.8052L41.0447 238.1L46.553 232.593L47.8989 233.939L48.1372 234.177L48.474 234.168L55.5344 233.987L56.2993 233.967V233.202V226.687V226.362L56.0693 226.132L40.8745 210.942ZM48.7706 232.59L47.6633 231.483L53.4324 225.716L54.7293 227.012V232.437L48.7706 232.59ZM46.6435 218.929L52.322 224.606L33.1563 243.765L27.4778 238.089L46.6435 218.929ZM32.1365 231.212L26.3674 236.979L25.161 235.773V230.348L31.1197 230.195L32.1365 231.212ZM38.8456 224.505L33.2468 230.102L31.9914 228.847L31.7531 228.609L31.4163 228.617L24.3559 228.798L23.591 228.818V229.583V236.098V236.423L23.821 236.653L38.7443 251.571L33.1531 257.161L15.5661 239.752L15.5661 220.595H35.0851L38.8456 224.505ZM26.3175 252.604L32.0428 258.271L30.7493 259.564H24.98V253.819L26.3175 252.604ZM19.514 245.869L25.2001 251.497L23.667 252.891L23.41 253.124V253.472V260.349V261.134H24.195H31.0744H31.3995L31.6294 260.904L44.9772 247.561H64.1432V266.72L59.9215 270.94L54.306 265.381L56.2503 263.438L56.4803 263.208V262.882V256.367V255.582H55.6953H48.6349H48.3098L48.0799 255.812L34.7321 269.156H15.5661L15.5661 249.815L19.514 245.869ZM54.9103 262.557L53.1902 264.277L47.4837 258.628L48.96 257.152H54.9103V262.557ZM40.7839 265.326L46.3733 259.738L64.3242 277.507V296.664H44.8052L41.0447 292.754L46.6435 287.157L47.8989 288.412L48.1372 288.651L48.474 288.642L55.5344 288.461L56.2993 288.441V287.676V281.161V280.836L56.0693 280.606L40.7839 265.326ZM48.7706 287.064L47.7538 286.047L53.5229 280.28L54.7293 281.486V286.911L48.7706 287.064ZM46.6435 273.403L52.4125 279.17L33.1563 298.42L27.3872 292.653L46.6435 273.403ZM32.0459 285.776L26.2769 291.543L25.161 290.428V285.003L31.1197 284.85L32.0459 285.776ZM38.7569 279.067L33.1563 284.666L31.9914 283.502L31.7531 283.263L31.4163 283.272L24.3559 283.453L23.591 283.473V284.238V290.753V291.078L23.821 291.308L38.6537 306.136L33.0622 311.726L15.5661 294.407L15.5661 275.25H35.0851L38.7569 279.067ZM26.2222 307.164L31.9518 312.836L30.7493 314.038H24.98V308.293L26.2222 307.164ZM19.514 300.524L25.1048 306.058L23.667 307.365L23.41 307.598V307.946V314.823V315.608H24.195H31.0744H31.3995L31.6294 315.378L44.9772 302.034H64.1432V321.194L59.9215 325.414L54.4879 320.035L56.2503 318.273L56.4803 318.044V317.718L56.4803 311.203V310.418H55.6953H48.6349H48.3098L48.0799 310.648L34.7321 323.991H15.5661L15.5661 304.47L19.514 300.524ZM54.9103 317.393L53.3721 318.931L47.6656 313.282L48.96 311.988H54.9103L54.9103 317.393ZM40.9649 319.98L46.5553 314.392L64.3242 331.981V351.138H44.8052L41.0447 347.228L46.6435 341.631L47.8989 342.886L48.1372 343.124L48.474 343.116L55.5344 342.935L56.2993 342.915V342.15V335.635V335.31L56.0693 335.08L40.9649 319.98ZM48.7706 341.538L47.7538 340.521L53.5229 334.754L54.7293 335.96L54.7293 341.385L48.7706 341.538ZM46.6435 327.877L52.4126 333.644L33.1563 352.894L27.3873 347.127L46.6435 327.877ZM32.046 340.25L26.2769 346.017L25.161 344.901V339.477L31.1197 339.324L32.046 340.25Z" fill="#189387"/>
</svg>
