<svg width="1920" height="25" viewBox="0 0 1920 25" fill="none" xmlns="http://www.w3.org/2000/svg">
<path d="M74.9 11.1L65.1 20.9C63 22.8 60.2 24 57.3 24C53.7 24 50.1 22.1 48 19.1M217.9 20.9L227.7 11.1M151.3 11.1L141.5 20.9C139.4 22.8 136.6 24 133.7 24C130.1 24 126.5 22.1 124.4 19.1M27 20.9L36.8 11.1M179.7 20.9L189.5 11.1M113.1 11.1L103.3 20.9C101.2 22.8 98.4 24 95.5 24C91.9 24 88.3 22.1 86.2 19.1M256.1 20.9L265.9 11.1M55.8 11.1L46 20.9C43.9 22.8 41.1 24 38.2 24C34.6 24 31 22.1 28.9 19.1M198.8 20.9L208.6 11.1M132.2 11.1L122.4 20.9C120.3 22.8 117.5 24 114.6 24C111 24 107.4 22.1 105.3 19.1M275.1 20.9L284.9 11.1M17.7 11.1L7.9 20.9C5.8 22.8 3 24 0.1 24M160.6 20.9L170.4 11.1M94 11.1L84.2 20.9C82.1 22.8 79.3 24 76.4 24C72.8 24 69.2 22.1 67.1 19.1M236.9 20.9L246.7 11.1M62.5 17.6L72.1 8C73.2 6.9 74.8 6.3 76.4 6.3C78.8 6.3 81.1 7.69999 82.1 9.89999M215.2 17.5L224.8 7.89999C225.9 6.79999 227.5 6.2 229.1 6.2C231.5 6.2 233.8 7.6 234.8 9.8M24.3 17.6L33.9 8C35 6.9 36.6 6.3 38.2 6.3C40.6 6.3 42.9 7.69999 43.9 9.89999M177.1 17.5L186.7 7.89999C187.8 6.79999 189.4 6.2 191 6.2C193.4 6.2 195.7 7.6 196.7 9.8M253.4 17.5L263 7.89999C264.1 6.79999 265.7 6.2 267.3 6.2C269.7 6.2 272 7.6 273 9.8M43.4 17.6L53 7.89999M196.1 17.5L205.7 7.8M129.4 7.89999L119.8 17.6C118.4 19 116.5 19.8 114.6 19.8C112 19.8 109.5 18.3 108.3 16M272.5 17.5L282.1 7.8M5.2 17.6L14.9 7.89999M157.9 17.6L167.6 7.89999C168.7 6.79999 170.3 6.2 171.9 6.2C174.3 6.2 176.6 7.6 177.6 9.8M234.3 17.5L243.9 7.89999C245 6.79999 246.6 6.2 248.2 6.2C250.6 6.2 252.9 7.6 253.9 9.8M61.8 17L71.4 7.39999C72.8 6.09999 74.6 5.3 76.5 5.3C79.1 5.3 81.6 6.80001 82.8 9.10001M214.5 17L224.1 7.39999C225.5 6.09999 227.3 5.3 229.2 5.3C231.8 5.3 234.3 6.80001 235.5 9.10001M138.1 17L147.7 7.39999C149.1 6.09999 150.9 5.3 152.8 5.3C155.4 5.3 157.9 6.80001 159.1 9.10001M23.6 17L33.2 7.39999C34.6 6.09999 36.4 5.3 38.3 5.3C40.9 5.3 43.4 6.80001 44.6 9.10001M176.3 17L185.9 7.39999C187.3 6.09999 189.1 5.3 191 5.3C193.6 5.3 196.1 6.80001 197.3 9.10001M99.9 17L109.5 7.39999C110.9 6.09999 112.7 5.3 114.6 5.3C117.2 5.3 119.7 6.80001 120.9 9.10001M252.7 17L262.3 7.39999C263.7 6.09999 265.5 5.3 267.4 5.3C270 5.3 272.5 6.80001 273.7 9.10001M42.7 17L52.3 7.39999C53.7 6.09999 55.5 5.3 57.4 5.3C60 5.3 62.5 6.80001 63.7 9.10001M195.4 17L205 7.39999C206.4 6.09999 208.2 5.3 210.1 5.3C212.7 5.3 215.2 6.80001 216.4 9.10001M119 17L128.6 7.39999C130 6.09999 131.8 5.3 133.7 5.3C136.3 5.3 138.8 6.80001 140 9.10001M271.8 17L281.4 7.39999M4.5 17L14.1 7.39999C15.5 6.09999 17.3 5.3 19.2 5.3C21.8 5.3 24.3 6.80001 25.5 9.10001M157.2 17L166.9 7.39999M80.9 17L90.5 7.39999C91.9 6.09999 93.7 5.3 95.6 5.3C98.2 5.3 100.7 6.80001 101.9 9.10001M233.6 17L243.2 7.39999C244.6 6.09999 246.4 5.3 248.3 5.3C250.9 5.3 253.4 6.80001 254.6 9.10001M58.7 14.1L68.6 4.3M211.5 14.1L221.4 4.3M135.1 14.1L145 4.3M20.6 14.1L30.5 4.3M173.3 14.1L183.2 4.3M96.9 14.1L106.8 4.3M249.6 14.1L259.5 4.3M39.7 14.1L49.5 4.3M192.5 14L202.3 4.2M116.1 14.1L125.9 4.3M268.8 14L278.6 4.2M1.6 14.1L11.4 4.3M154.3 14L164.1 4.2M77.9 14.1L87.7 4.3M230.6 14L240.4 4.2M0.1 14.6C1.3 14.6 2.2 13.7 2.2 12.5C2.2 11.3 1.3 10.4 0.1 10.4M286.4 10.4C285.2 10.4 284.3 11.3 284.3 12.5C284.3 13.7 285.2 14.6 286.4 14.6M5.8 9.89999C4.8 7.69999 2.5 6.3 0.1 6.3M158.5 9.89999C157.5 7.69999 155.2 6.3 152.8 6.3C151.2 6.3 149.6 6.9 148.5 8L138.9 17.6C137.5 19 135.6 19.8 133.7 19.8C131.1 19.8 128.6 18.3 127.4 16M120.3 9.89999C119.3 7.69999 117 6.3 114.6 6.3C113 6.3 111.4 6.9 110.3 8L100.7 17.6C99.3 19 97.4 19.8 95.5 19.8C92.9 19.8 90.4 18.3 89.2 16M63 9.89999C62 7.69999 59.7 6.3 57.3 6.3C55.7 6.3 54.1 6.9 53 8M215.8 9.8C214.8 7.6 212.5 6.2 210.1 6.2C208.5 6.2 206.9 6.79999 205.8 7.89999M139.4 9.89999C138.4 7.69999 136.1 6.3 133.7 6.3C132.1 6.3 130.5 6.9 129.4 8M286.4 6.2C284.8 6.2 283.2 6.79999 282.1 7.89999M24.9 9.89999C23.9 7.69999 21.6 6.3 19.2 6.3C17.6 6.3 16 6.9 14.9 8M101.2 9.89999C100.2 7.69999 97.9 6.3 95.5 6.3C93.9 6.3 92.3 6.9 91.2 8L81.6 17.6C80.2 19 78.3 19.8 76.4 19.8C73.8 19.8 71.3 18.3 70.1 16M0.1 18.8C1.8 18.8 3.4 18.1 4.6 16.9M70.7 15.3C71.7 17.4 74 18.8 76.4 18.8C78.1 18.8 79.7 18.1 80.9 16.9M223.5 15.3C224.5 17.4 226.8 18.8 229.2 18.8C230.9 18.8 232.5 18.1 233.7 16.9M147.1 15.3C148.1 17.4 150.4 18.8 152.8 18.8C154.5 18.8 156.1 18.1 157.3 16.9M32.6 15.3C33.6 17.4 35.9 18.8 38.3 18.8C40 18.8 41.6 18.1 42.8 16.9M185.3 15.3C186.3 17.4 188.6 18.8 191 18.8C192.7 18.8 194.3 18.1 195.5 16.9M108.9 15.3C109.9 17.4 112.2 18.8 114.6 18.8C116.3 18.8 117.9 18.1 119.1 16.9M261.6 15.3C262.6 17.4 264.9 18.8 267.3 18.8C269 18.8 270.6 18.1 271.8 16.9M51.7 15.3C52.7 17.4 55 18.8 57.4 18.8C59.1 18.8 60.7 18.1 61.9 16.9M204.4 15.3C205.4 17.4 207.7 18.8 210.1 18.8C211.8 18.8 213.4 18.1 214.6 16.9M128 15.3C129 17.4 131.3 18.8 133.7 18.8C135.4 18.8 137 18.1 138.2 16.9M280.7 15.3C281.7 17.4 284 18.8 286.4 18.8M13.5 15.3C14.5 17.4 16.8 18.8 19.2 18.8C20.9 18.8 22.5 18.1 23.7 16.9M166.2 15.3C167.2 17.4 169.5 18.8 171.9 18.8C173.6 18.8 175.2 18.1 176.4 16.9M89.8 15.3C90.8 17.4 93.1 18.8 95.5 18.8C97.2 18.8 98.8 18.1 100 16.9M242.6 15.3C243.6 17.4 245.9 18.8 248.3 18.8C250 18.8 251.6 18.1 252.8 16.9M6.4 9.10001C5.2 6.80001 2.7 5.3 0.1 5.3M286.4 5.39999C284.5 5.39999 282.7 6.1 281.3 7.5M178.2 9.10001C177 6.80001 174.5 5.3 171.9 5.3C170 5.3 168.2 6.09999 166.8 7.39999M0.1 19.7C2 19.7 3.9 18.9 5.3 17.5M222.9 16C224.1 18.3 226.6 19.8 229.2 19.8C231.1 19.8 233 19 234.4 17.6M146.5 16C147.7 18.3 150.2 19.8 152.8 19.8C154.7 19.8 156.6 19 158 17.6M32 16C33.2 18.3 35.7 19.8 38.3 19.8C40.2 19.8 42.1 19 43.5 17.6M184.7 16C185.9 18.3 188.4 19.8 191 19.8C192.9 19.8 194.8 19 196.2 17.6M261 16C262.2 18.3 264.7 19.8 267.3 19.8C269.2 19.8 271.1 19 272.5 17.6M51.1 16C52.3 18.3 54.8 19.8 57.4 19.8C59.3 19.8 61.2 19 62.6 17.6M203.8 16C205 18.3 207.5 19.8 210.1 19.8C212 19.8 213.9 19 215.3 17.6M280.1 16C281.3 18.3 283.8 19.8 286.4 19.8M12.9 16C14.1 18.3 16.6 19.8 19.2 19.8C21.1 19.8 23 19 24.4 17.6M165.6 16C166.8 18.3 169.3 19.8 171.9 19.8C173.8 19.8 175.7 19 177.1 17.6M242 16C243.2 18.3 245.7 19.8 248.3 19.8C250.2 19.8 252.1 19 253.5 17.6M219.8 19C221.9 22 225.5 23.9 229.1 23.9C232 23.9 234.8 22.7 236.9 20.8M143.4 19.1C145.5 22.1 149.1 24 152.7 24C155.6 24 158.4 22.8 160.5 20.9M181.7 19C183.8 22 187.4 23.9 191 23.9C193.9 23.9 196.7 22.7 198.8 20.8M258 19C260.1 22 263.7 23.9 267.3 23.9C270.2 23.9 273 22.7 275.1 20.8M200.7 19C202.8 22 206.4 23.9 210 23.9C212.9 23.9 215.7 22.7 217.8 20.8M277.1 19C279.2 22 282.8 23.9 286.4 23.9M9.8 19.1C11.9 22.1 15.5 24 19.1 24C22 24 24.8 22.8 26.9 20.9M162.6 19C164.7 22 168.3 23.9 171.9 23.9C174.8 23.9 177.6 22.7 179.7 20.8M238.9 19C241 22 244.6 23.9 248.2 23.9C251.1 23.9 253.9 22.7 256 20.8M9.5 6.10001C7.4 3.00001 3.8 1.2 0.1 1.2M85.8 6.10001C83.7 3.00001 80.1 1.2 76.4 1.2C73.5 1.2 70.6 2.39999 68.5 4.39999M238.6 6C236.5 2.9 232.9 1.10001 229.2 1.10001C226.3 1.10001 223.4 2.3 221.3 4.3M162.2 6.10001C160.1 3.00001 156.5 1.2 152.8 1.2C149.9 1.2 147 2.39999 144.9 4.39999M47.7 6.10001C45.6 3.00001 42 1.2 38.3 1.2C35.4 1.2 32.5 2.39999 30.4 4.39999M200.4 6C198.3 2.9 194.7 1.10001 191 1.10001C188.1 1.10001 185.2 2.3 183.1 4.3M124 6.10001C121.9 3.00001 118.3 1.2 114.6 1.2C111.7 1.2 108.8 2.39999 106.7 4.39999M276.7 6C274.6 2.9 271 1.10001 267.3 1.10001C264.4 1.10001 261.5 2.3 259.4 4.3M66.8 6.10001C64.7 3.00001 61.1 1.2 57.4 1.2C54.5 1.2 51.6 2.39999 49.5 4.39999M219.5 6C217.4 2.9 213.8 1.10001 210.1 1.10001C207.2 1.10001 204.3 2.3 202.2 4.3M143.1 6.10001C141 3.00001 137.4 1.2 133.7 1.2C130.8 1.2 127.9 2.39999 125.8 4.39999M286.4 1.2C283.5 1.2 280.6 2.4 278.5 4.3M28.6 6.10001C26.5 3.00001 22.9 1.2 19.2 1.2C16.3 1.2 13.4 2.39999 11.3 4.39999M181.3 6C179.2 2.9 175.6 1.10001 171.9 1.10001C169 1.10001 166.1 2.3 164 4.3M104.9 6.10001C102.8 3.00001 99.2 1.2 95.5 1.2C92.6 1.2 89.7 2.39999 87.6 4.39999M257.7 6C255.6 2.9 252 1.10001 248.3 1.10001C245.4 1.10001 242.5 2.3 240.4 4.3M0 24H286.4M0 1H286.4M76.4 14.6C77.6 14.6 78.5 13.7 78.5 12.5C78.5 11.3 77.6 10.4 76.4 10.4C75.2 10.4 74.3 11.3 74.3 12.5C74.3 13.7 75.3 14.6 76.4 14.6ZM229.2 14.6C230.4 14.6 231.3 13.7 231.3 12.5C231.3 11.3 230.4 10.4 229.2 10.4C228 10.4 227.1 11.3 227.1 12.5C227.1 13.7 228 14.6 229.2 14.6ZM152.8 14.6C154 14.6 154.9 13.7 154.9 12.5C154.9 11.3 154 10.4 152.8 10.4C151.6 10.4 150.7 11.3 150.7 12.5C150.7 13.7 151.6 14.6 152.8 14.6ZM38.3 14.6C39.5 14.6 40.4 13.7 40.4 12.5C40.4 11.3 39.5 10.4 38.3 10.4C37.1 10.4 36.2 11.3 36.2 12.5C36.2 13.7 37.1 14.6 38.3 14.6ZM191 14.6C192.2 14.6 193.1 13.7 193.1 12.5C193.1 11.3 192.2 10.4 191 10.4C189.8 10.4 188.9 11.3 188.9 12.5C188.9 13.7 189.8 14.6 191 14.6ZM114.6 14.6C115.8 14.6 116.7 13.7 116.7 12.5C116.7 11.3 115.8 10.4 114.6 10.4C113.4 10.4 112.5 11.3 112.5 12.5C112.5 13.7 113.5 14.6 114.6 14.6ZM267.3 14.6C268.5 14.6 269.4 13.7 269.4 12.5C269.4 11.3 268.5 10.4 267.3 10.4C266.1 10.4 265.2 11.3 265.2 12.5C265.2 13.7 266.2 14.6 267.3 14.6ZM57.4 14.6C58.6 14.6 59.5 13.7 59.5 12.5C59.5 11.3 58.6 10.4 57.4 10.4C56.2 10.4 55.3 11.3 55.3 12.5C55.3 13.7 56.2 14.6 57.4 14.6ZM210.1 14.6C211.3 14.6 212.2 13.7 212.2 12.5C212.2 11.3 211.3 10.4 210.1 10.4C208.9 10.4 208 11.3 208 12.5C208 13.7 208.9 14.6 210.1 14.6ZM133.7 14.6C134.9 14.6 135.8 13.7 135.8 12.5C135.8 11.3 134.9 10.4 133.7 10.4C132.5 10.4 131.6 11.3 131.6 12.5C131.6 13.7 132.6 14.6 133.7 14.6ZM19.2 14.6C20.4 14.6 21.3 13.7 21.3 12.5C21.3 11.3 20.4 10.4 19.2 10.4C18 10.4 17.1 11.3 17.1 12.5C17.1 13.7 18 14.6 19.2 14.6ZM171.9 14.6C173.1 14.6 174 13.7 174 12.5C174 11.3 173.1 10.4 171.9 10.4C170.7 10.4 169.8 11.3 169.8 12.5C169.8 13.7 170.8 14.6 171.9 14.6ZM95.5 14.6C96.7 14.6 97.6 13.7 97.6 12.5C97.6 11.3 96.7 10.4 95.5 10.4C94.3 10.4 93.4 11.3 93.4 12.5C93.4 13.7 94.4 14.6 95.5 14.6ZM248.3 14.6C249.5 14.6 250.4 13.7 250.4 12.5C250.4 11.3 249.5 10.4 248.3 10.4C247.1 10.4 246.2 11.3 246.2 12.5C246.2 13.7 247.1 14.6 248.3 14.6Z" stroke="#151C26" stroke-opacity="0.17" stroke-width="1.57" stroke-miterlimit="22.926"/>
<path d="M360.9 11.1L351.1 20.9C349 22.8 346.2 24 343.3 24C339.7 24 336.1 22.1 334 19.1M503.9 20.9L513.7 11.1M437.3 11.1L427.5 20.9C425.4 22.8 422.6 24 419.7 24C416.1 24 412.5 22.1 410.4 19.1M313 20.9L322.8 11.1M465.7 20.9L475.5 11.1M399.1 11.1L389.3 20.9C387.2 22.8 384.4 24 381.5 24C377.9 24 374.3 22.1 372.2 19.1M542.1 20.9L551.9 11.1M341.8 11.1L332 20.9C329.9 22.8 327.1 24 324.2 24C320.6 24 317 22.1 314.9 19.1M484.8 20.9L494.6 11.1M418.2 11.1L408.4 20.9C406.3 22.8 403.5 24 400.6 24C397 24 393.4 22.1 391.3 19.1M561.1 20.9L570.9 11.1M303.7 11.1L293.9 20.9C291.8 22.8 289 24 286.1 24M446.6 20.9L456.4 11.1M380 11.1L370.2 20.9C368.1 22.8 365.3 24 362.4 24C358.8 24 355.2 22.1 353.1 19.1M522.9 20.9L532.7 11.1M348.5 17.6L358.1 8C359.2 6.9 360.8 6.3 362.4 6.3C364.8 6.3 367.1 7.69999 368.1 9.89999M501.2 17.5L510.8 7.89999C511.9 6.79999 513.5 6.2 515.1 6.2C517.5 6.2 519.8 7.6 520.8 9.8M310.3 17.6L319.9 8C321 6.9 322.6 6.3 324.2 6.3C326.6 6.3 328.9 7.69999 329.9 9.89999M463.1 17.5L472.7 7.89999C473.8 6.79999 475.4 6.2 477 6.2C479.4 6.2 481.7 7.6 482.7 9.8M539.4 17.5L549 7.89999C550.1 6.79999 551.7 6.2 553.3 6.2C555.7 6.2 558 7.6 559 9.8M329.4 17.6L339 7.89999M482.1 17.5L491.7 7.8M415.4 7.89999L405.8 17.6C404.4 19 402.5 19.8 400.6 19.8C398 19.8 395.5 18.3 394.3 16M558.5 17.5L568.1 7.8M291.2 17.6L300.9 7.89999M443.9 17.6L453.6 7.89999C454.7 6.79999 456.3 6.2 457.9 6.2C460.3 6.2 462.6 7.6 463.6 9.8M520.3 17.5L529.9 7.89999C531 6.79999 532.6 6.2 534.2 6.2C536.6 6.2 538.9 7.6 539.9 9.8M347.8 17L357.4 7.39999C358.8 6.09999 360.6 5.3 362.5 5.3C365.1 5.3 367.6 6.80001 368.8 9.10001M500.5 17L510.1 7.39999C511.5 6.09999 513.3 5.3 515.2 5.3C517.8 5.3 520.3 6.80001 521.5 9.10001M424.1 17L433.7 7.39999C435.1 6.09999 436.9 5.3 438.8 5.3C441.4 5.3 443.9 6.80001 445.1 9.10001M309.6 17L319.2 7.39999C320.6 6.09999 322.4 5.3 324.3 5.3C326.9 5.3 329.4 6.80001 330.6 9.10001M462.3 17L471.9 7.39999C473.3 6.09999 475.1 5.3 477 5.3C479.6 5.3 482.1 6.80001 483.3 9.10001M385.9 17L395.5 7.39999C396.9 6.09999 398.7 5.3 400.6 5.3C403.2 5.3 405.7 6.80001 406.9 9.10001M538.7 17L548.3 7.39999C549.7 6.09999 551.5 5.3 553.4 5.3C556 5.3 558.5 6.80001 559.7 9.10001M328.7 17L338.3 7.39999C339.7 6.09999 341.5 5.3 343.4 5.3C346 5.3 348.5 6.80001 349.7 9.10001M481.4 17L491 7.39999C492.4 6.09999 494.2 5.3 496.1 5.3C498.7 5.3 501.2 6.80001 502.4 9.10001M405 17L414.6 7.39999C416 6.09999 417.8 5.3 419.7 5.3C422.3 5.3 424.8 6.80001 426 9.10001M557.8 17L567.4 7.39999M290.5 17L300.1 7.39999C301.5 6.09999 303.3 5.3 305.2 5.3C307.8 5.3 310.3 6.80001 311.5 9.10001M443.2 17L452.9 7.39999M366.9 17L376.5 7.39999C377.9 6.09999 379.7 5.3 381.6 5.3C384.2 5.3 386.7 6.80001 387.9 9.10001M519.6 17L529.2 7.39999C530.6 6.09999 532.4 5.3 534.3 5.3C536.9 5.3 539.4 6.80001 540.6 9.10001M344.7 14.1L354.6 4.3M497.5 14.1L507.4 4.3M421.1 14.1L431 4.3M306.6 14.1L316.5 4.3M459.3 14.1L469.2 4.3M382.9 14.1L392.8 4.3M535.6 14.1L545.5 4.3M325.7 14.1L335.5 4.3M478.5 14L488.3 4.2M402.1 14.1L411.9 4.3M554.8 14L564.6 4.2M287.6 14.1L297.4 4.3M440.3 14L450.1 4.2M363.9 14.1L373.7 4.3M516.6 14L526.4 4.2M286.1 14.6C287.3 14.6 288.2 13.7 288.2 12.5C288.2 11.3 287.3 10.4 286.1 10.4M572.4 10.4C571.2 10.4 570.3 11.3 570.3 12.5C570.3 13.7 571.2 14.6 572.4 14.6M291.8 9.89999C290.8 7.69999 288.5 6.3 286.1 6.3M444.5 9.89999C443.5 7.69999 441.2 6.3 438.8 6.3C437.2 6.3 435.6 6.9 434.5 8L424.9 17.6C423.5 19 421.6 19.8 419.7 19.8C417.1 19.8 414.6 18.3 413.4 16M406.3 9.89999C405.3 7.69999 403 6.3 400.6 6.3C399 6.3 397.4 6.9 396.3 8L386.7 17.6C385.3 19 383.4 19.8 381.5 19.8C378.9 19.8 376.4 18.3 375.2 16M349 9.89999C348 7.69999 345.7 6.3 343.3 6.3C341.7 6.3 340.1 6.9 339 8M501.8 9.8C500.8 7.6 498.5 6.2 496.1 6.2C494.5 6.2 492.9 6.79999 491.8 7.89999M425.4 9.89999C424.4 7.69999 422.1 6.3 419.7 6.3C418.1 6.3 416.5 6.9 415.4 8M572.4 6.2C570.8 6.2 569.2 6.79999 568.1 7.89999M310.9 9.89999C309.9 7.69999 307.6 6.3 305.2 6.3C303.6 6.3 302 6.9 300.9 8M387.2 9.89999C386.2 7.69999 383.9 6.3 381.5 6.3C379.9 6.3 378.3 6.9 377.2 8L367.6 17.6C366.2 19 364.3 19.8 362.4 19.8C359.8 19.8 357.3 18.3 356.1 16M286.1 18.8C287.8 18.8 289.4 18.1 290.6 16.9M356.7 15.3C357.7 17.4 360 18.8 362.4 18.8C364.1 18.8 365.7 18.1 366.9 16.9M509.5 15.3C510.5 17.4 512.8 18.8 515.2 18.8C516.9 18.8 518.5 18.1 519.7 16.9M433.1 15.3C434.1 17.4 436.4 18.8 438.8 18.8C440.5 18.8 442.1 18.1 443.3 16.9M318.6 15.3C319.6 17.4 321.9 18.8 324.3 18.8C326 18.8 327.6 18.1 328.8 16.9M471.3 15.3C472.3 17.4 474.6 18.8 477 18.8C478.7 18.8 480.3 18.1 481.5 16.9M394.9 15.3C395.9 17.4 398.2 18.8 400.6 18.8C402.3 18.8 403.9 18.1 405.1 16.9M547.6 15.3C548.6 17.4 550.9 18.8 553.3 18.8C555 18.8 556.6 18.1 557.8 16.9M337.7 15.3C338.7 17.4 341 18.8 343.4 18.8C345.1 18.8 346.7 18.1 347.9 16.9M490.4 15.3C491.4 17.4 493.7 18.8 496.1 18.8C497.8 18.8 499.4 18.1 500.6 16.9M414 15.3C415 17.4 417.3 18.8 419.7 18.8C421.4 18.8 423 18.1 424.2 16.9M566.7 15.3C567.7 17.4 570 18.8 572.4 18.8M299.5 15.3C300.5 17.4 302.8 18.8 305.2 18.8C306.9 18.8 308.5 18.1 309.7 16.9M452.2 15.3C453.2 17.4 455.5 18.8 457.9 18.8C459.6 18.8 461.2 18.1 462.4 16.9M375.8 15.3C376.8 17.4 379.1 18.8 381.5 18.8C383.2 18.8 384.8 18.1 386 16.9M528.6 15.3C529.6 17.4 531.9 18.8 534.3 18.8C536 18.8 537.6 18.1 538.8 16.9M292.4 9.10001C291.2 6.80001 288.7 5.3 286.1 5.3M572.4 5.39999C570.5 5.39999 568.7 6.1 567.3 7.5M464.2 9.10001C463 6.80001 460.5 5.3 457.9 5.3C456 5.3 454.2 6.09999 452.8 7.39999M286.1 19.7C288 19.7 289.9 18.9 291.3 17.5M508.9 16C510.1 18.3 512.6 19.8 515.2 19.8C517.1 19.8 519 19 520.4 17.6M432.5 16C433.7 18.3 436.2 19.8 438.8 19.8C440.7 19.8 442.6 19 444 17.6M318 16C319.2 18.3 321.7 19.8 324.3 19.8C326.2 19.8 328.1 19 329.5 17.6M470.7 16C471.9 18.3 474.4 19.8 477 19.8C478.9 19.8 480.8 19 482.2 17.6M547 16C548.2 18.3 550.7 19.8 553.3 19.8C555.2 19.8 557.1 19 558.5 17.6M337.1 16C338.3 18.3 340.8 19.8 343.4 19.8C345.3 19.8 347.2 19 348.6 17.6M489.8 16C491 18.3 493.5 19.8 496.1 19.8C498 19.8 499.9 19 501.3 17.6M566.1 16C567.3 18.3 569.8 19.8 572.4 19.8M298.9 16C300.1 18.3 302.6 19.8 305.2 19.8C307.1 19.8 309 19 310.4 17.6M451.6 16C452.8 18.3 455.3 19.8 457.9 19.8C459.8 19.8 461.7 19 463.1 17.6M528 16C529.2 18.3 531.7 19.8 534.3 19.8C536.2 19.8 538.1 19 539.5 17.6M505.8 19C507.9 22 511.5 23.9 515.1 23.9C518 23.9 520.8 22.7 522.9 20.8M429.4 19.1C431.5 22.1 435.1 24 438.7 24C441.6 24 444.4 22.8 446.5 20.9M467.7 19C469.8 22 473.4 23.9 477 23.9C479.9 23.9 482.7 22.7 484.8 20.8M544 19C546.1 22 549.7 23.9 553.3 23.9C556.2 23.9 559 22.7 561.1 20.8M486.7 19C488.8 22 492.4 23.9 496 23.9C498.9 23.9 501.7 22.7 503.8 20.8M563.1 19C565.2 22 568.8 23.9 572.4 23.9M295.8 19.1C297.9 22.1 301.5 24 305.1 24C308 24 310.8 22.8 312.9 20.9M448.6 19C450.7 22 454.3 23.9 457.9 23.9C460.8 23.9 463.6 22.7 465.7 20.8M524.9 19C527 22 530.6 23.9 534.2 23.9C537.1 23.9 539.9 22.7 542 20.8M295.5 6.10001C293.4 3.00001 289.8 1.2 286.1 1.2M371.8 6.10001C369.7 3.00001 366.1 1.2 362.4 1.2C359.5 1.2 356.6 2.39999 354.5 4.39999M524.6 6C522.5 2.9 518.9 1.10001 515.2 1.10001C512.3 1.10001 509.4 2.3 507.3 4.3M448.2 6.10001C446.1 3.00001 442.5 1.2 438.8 1.2C435.9 1.2 433 2.39999 430.9 4.39999M333.7 6.10001C331.6 3.00001 328 1.2 324.3 1.2C321.4 1.2 318.5 2.39999 316.4 4.39999M486.4 6C484.3 2.9 480.7 1.10001 477 1.10001C474.1 1.10001 471.2 2.3 469.1 4.3M410 6.10001C407.9 3.00001 404.3 1.2 400.6 1.2C397.7 1.2 394.8 2.39999 392.7 4.39999M562.7 6C560.6 2.9 557 1.10001 553.3 1.10001C550.4 1.10001 547.5 2.3 545.4 4.3M352.8 6.10001C350.7 3.00001 347.1 1.2 343.4 1.2C340.5 1.2 337.6 2.39999 335.5 4.39999M505.5 6C503.4 2.9 499.8 1.10001 496.1 1.10001C493.2 1.10001 490.3 2.3 488.2 4.3M429.1 6.10001C427 3.00001 423.4 1.2 419.7 1.2C416.8 1.2 413.9 2.39999 411.8 4.39999M572.4 1.2C569.5 1.2 566.6 2.4 564.5 4.3M314.6 6.10001C312.5 3.00001 308.9 1.2 305.2 1.2C302.3 1.2 299.4 2.39999 297.3 4.39999M467.3 6C465.2 2.9 461.6 1.10001 457.9 1.10001C455 1.10001 452.1 2.3 450 4.3M390.9 6.10001C388.8 3.00001 385.2 1.2 381.5 1.2C378.6 1.2 375.7 2.39999 373.6 4.39999M543.7 6C541.6 2.9 538 1.10001 534.3 1.10001C531.4 1.10001 528.5 2.3 526.4 4.3M286 24H572.4M286 1H572.4M362.4 14.6C363.6 14.6 364.5 13.7 364.5 12.5C364.5 11.3 363.6 10.4 362.4 10.4C361.2 10.4 360.3 11.3 360.3 12.5C360.3 13.7 361.3 14.6 362.4 14.6ZM515.2 14.6C516.4 14.6 517.3 13.7 517.3 12.5C517.3 11.3 516.4 10.4 515.2 10.4C514 10.4 513.1 11.3 513.1 12.5C513.1 13.7 514 14.6 515.2 14.6ZM438.8 14.6C440 14.6 440.9 13.7 440.9 12.5C440.9 11.3 440 10.4 438.8 10.4C437.6 10.4 436.7 11.3 436.7 12.5C436.7 13.7 437.6 14.6 438.8 14.6ZM324.3 14.6C325.5 14.6 326.4 13.7 326.4 12.5C326.4 11.3 325.5 10.4 324.3 10.4C323.1 10.4 322.2 11.3 322.2 12.5C322.2 13.7 323.1 14.6 324.3 14.6ZM477 14.6C478.2 14.6 479.1 13.7 479.1 12.5C479.1 11.3 478.2 10.4 477 10.4C475.8 10.4 474.9 11.3 474.9 12.5C474.9 13.7 475.8 14.6 477 14.6ZM400.6 14.6C401.8 14.6 402.7 13.7 402.7 12.5C402.7 11.3 401.8 10.4 400.6 10.4C399.4 10.4 398.5 11.3 398.5 12.5C398.5 13.7 399.5 14.6 400.6 14.6ZM553.3 14.6C554.5 14.6 555.4 13.7 555.4 12.5C555.4 11.3 554.5 10.4 553.3 10.4C552.1 10.4 551.2 11.3 551.2 12.5C551.2 13.7 552.2 14.6 553.3 14.6ZM343.4 14.6C344.6 14.6 345.5 13.7 345.5 12.5C345.5 11.3 344.6 10.4 343.4 10.4C342.2 10.4 341.3 11.3 341.3 12.5C341.3 13.7 342.2 14.6 343.4 14.6ZM496.1 14.6C497.3 14.6 498.2 13.7 498.2 12.5C498.2 11.3 497.3 10.4 496.1 10.4C494.9 10.4 494 11.3 494 12.5C494 13.7 494.9 14.6 496.1 14.6ZM419.7 14.6C420.9 14.6 421.8 13.7 421.8 12.5C421.8 11.3 420.9 10.4 419.7 10.4C418.5 10.4 417.6 11.3 417.6 12.5C417.6 13.7 418.6 14.6 419.7 14.6ZM305.2 14.6C306.4 14.6 307.3 13.7 307.3 12.5C307.3 11.3 306.4 10.4 305.2 10.4C304 10.4 303.1 11.3 303.1 12.5C303.1 13.7 304 14.6 305.2 14.6ZM457.9 14.6C459.1 14.6 460 13.7 460 12.5C460 11.3 459.1 10.4 457.9 10.4C456.7 10.4 455.8 11.3 455.8 12.5C455.8 13.7 456.8 14.6 457.9 14.6ZM381.5 14.6C382.7 14.6 383.6 13.7 383.6 12.5C383.6 11.3 382.7 10.4 381.5 10.4C380.3 10.4 379.4 11.3 379.4 12.5C379.4 13.7 380.4 14.6 381.5 14.6ZM534.3 14.6C535.5 14.6 536.4 13.7 536.4 12.5C536.4 11.3 535.5 10.4 534.3 10.4C533.1 10.4 532.2 11.3 532.2 12.5C532.2 13.7 533.1 14.6 534.3 14.6Z" stroke="#151C26" stroke-opacity="0.17" stroke-width="1.57" stroke-miterlimit="22.926"/>
<path d="M646.9 11.1L637.1 20.9C635 22.8 632.2 24 629.3 24C625.7 24 622.1 22.1 620 19.1M789.9 20.9L799.7 11.1M723.3 11.1L713.5 20.9C711.4 22.8 708.6 24 705.7 24C702.1 24 698.5 22.1 696.4 19.1M599 20.9L608.8 11.1M751.7 20.9L761.5 11.1M685.1 11.1L675.3 20.9C673.2 22.8 670.4 24 667.5 24C663.9 24 660.3 22.1 658.2 19.1M828.1 20.9L837.9 11.1M627.8 11.1L618 20.9C615.9 22.8 613.1 24 610.2 24C606.6 24 603 22.1 600.9 19.1M770.8 20.9L780.6 11.1M704.2 11.1L694.4 20.9C692.3 22.8 689.5 24 686.6 24C683 24 679.4 22.1 677.3 19.1M847.1 20.9L856.9 11.1M589.7 11.1L579.9 20.9C577.8 22.8 575 24 572.1 24M732.6 20.9L742.4 11.1M666 11.1L656.2 20.9C654.1 22.8 651.3 24 648.4 24C644.8 24 641.2 22.1 639.1 19.1M808.9 20.9L818.7 11.1M634.5 17.6L644.1 8C645.2 6.9 646.8 6.3 648.4 6.3C650.8 6.3 653.1 7.69999 654.1 9.89999M787.2 17.5L796.8 7.89999C797.9 6.79999 799.5 6.2 801.1 6.2C803.5 6.2 805.8 7.6 806.8 9.8M596.3 17.6L605.9 8C607 6.9 608.6 6.3 610.2 6.3C612.6 6.3 614.9 7.69999 615.9 9.89999M749.1 17.5L758.7 7.89999C759.8 6.79999 761.4 6.2 763 6.2C765.4 6.2 767.7 7.6 768.7 9.8M825.4 17.5L835 7.89999C836.1 6.79999 837.7 6.2 839.3 6.2C841.7 6.2 844 7.6 845 9.8M615.4 17.6L625 7.89999M768.1 17.5L777.7 7.8M701.4 7.89999L691.8 17.6C690.4 19 688.5 19.8 686.6 19.8C684 19.8 681.5 18.3 680.3 16M844.5 17.5L854.1 7.8M577.2 17.6L586.9 7.89999M729.9 17.6L739.6 7.89999C740.7 6.79999 742.3 6.2 743.9 6.2C746.3 6.2 748.6 7.6 749.6 9.8M806.3 17.5L815.9 7.89999C817 6.79999 818.6 6.2 820.2 6.2C822.6 6.2 824.9 7.6 825.9 9.8M633.8 17L643.4 7.39999C644.8 6.09999 646.6 5.3 648.5 5.3C651.1 5.3 653.6 6.80001 654.8 9.10001M786.5 17L796.1 7.39999C797.5 6.09999 799.3 5.3 801.2 5.3C803.8 5.3 806.3 6.80001 807.5 9.10001M710.1 17L719.7 7.39999C721.1 6.09999 722.9 5.3 724.8 5.3C727.4 5.3 729.9 6.80001 731.1 9.10001M595.6 17L605.2 7.39999C606.6 6.09999 608.4 5.3 610.3 5.3C612.9 5.3 615.4 6.80001 616.6 9.10001M748.3 17L757.9 7.39999C759.3 6.09999 761.1 5.3 763 5.3C765.6 5.3 768.1 6.80001 769.3 9.10001M671.9 17L681.5 7.39999C682.9 6.09999 684.7 5.3 686.6 5.3C689.2 5.3 691.7 6.80001 692.9 9.10001M824.7 17L834.3 7.39999C835.7 6.09999 837.5 5.3 839.4 5.3C842 5.3 844.5 6.80001 845.7 9.10001M614.7 17L624.3 7.39999C625.7 6.09999 627.5 5.3 629.4 5.3C632 5.3 634.5 6.80001 635.7 9.10001M767.4 17L777 7.39999C778.4 6.09999 780.2 5.3 782.1 5.3C784.7 5.3 787.2 6.80001 788.4 9.10001M691 17L700.6 7.39999C702 6.09999 703.8 5.3 705.7 5.3C708.3 5.3 710.8 6.80001 712 9.10001M843.8 17L853.4 7.39999M576.5 17L586.1 7.39999C587.5 6.09999 589.3 5.3 591.2 5.3C593.8 5.3 596.3 6.80001 597.5 9.10001M729.2 17L738.9 7.39999M652.9 17L662.5 7.39999C663.9 6.09999 665.7 5.3 667.6 5.3C670.2 5.3 672.7 6.80001 673.9 9.10001M805.6 17L815.2 7.39999C816.6 6.09999 818.4 5.3 820.3 5.3C822.9 5.3 825.4 6.80001 826.6 9.10001M630.7 14.1L640.6 4.3M783.5 14.1L793.4 4.3M707.1 14.1L717 4.3M592.6 14.1L602.5 4.3M745.3 14.1L755.2 4.3M668.9 14.1L678.8 4.3M821.6 14.1L831.5 4.3M611.7 14.1L621.5 4.3M764.5 14L774.3 4.2M688.1 14.1L697.9 4.3M840.8 14L850.6 4.2M573.6 14.1L583.4 4.3M726.3 14L736.1 4.2M649.9 14.1L659.7 4.3M802.6 14L812.4 4.2M572.1 14.6C573.3 14.6 574.2 13.7 574.2 12.5C574.2 11.3 573.3 10.4 572.1 10.4M858.4 10.4C857.2 10.4 856.3 11.3 856.3 12.5C856.3 13.7 857.2 14.6 858.4 14.6M577.8 9.89999C576.8 7.69999 574.5 6.3 572.1 6.3M730.5 9.89999C729.5 7.69999 727.2 6.3 724.8 6.3C723.2 6.3 721.6 6.9 720.5 8L710.9 17.6C709.5 19 707.6 19.8 705.7 19.8C703.1 19.8 700.6 18.3 699.4 16M692.3 9.89999C691.3 7.69999 689 6.3 686.6 6.3C685 6.3 683.4 6.9 682.3 8L672.7 17.6C671.3 19 669.4 19.8 667.5 19.8C664.9 19.8 662.4 18.3 661.2 16M635 9.89999C634 7.69999 631.7 6.3 629.3 6.3C627.7 6.3 626.1 6.9 625 8M787.8 9.8C786.8 7.6 784.5 6.2 782.1 6.2C780.5 6.2 778.9 6.79999 777.8 7.89999M711.4 9.89999C710.4 7.69999 708.1 6.3 705.7 6.3C704.1 6.3 702.5 6.9 701.4 8M858.4 6.2C856.8 6.2 855.2 6.79999 854.1 7.89999M596.9 9.89999C595.9 7.69999 593.6 6.3 591.2 6.3C589.6 6.3 588 6.9 586.9 8M673.2 9.89999C672.2 7.69999 669.9 6.3 667.5 6.3C665.9 6.3 664.3 6.9 663.2 8L653.6 17.6C652.2 19 650.3 19.8 648.4 19.8C645.8 19.8 643.3 18.3 642.1 16M572.1 18.8C573.8 18.8 575.4 18.1 576.6 16.9M642.7 15.3C643.7 17.4 646 18.8 648.4 18.8C650.1 18.8 651.7 18.1 652.9 16.9M795.5 15.3C796.5 17.4 798.8 18.8 801.2 18.8C802.9 18.8 804.5 18.1 805.7 16.9M719.1 15.3C720.1 17.4 722.4 18.8 724.8 18.8C726.5 18.8 728.1 18.1 729.3 16.9M604.6 15.3C605.6 17.4 607.9 18.8 610.3 18.8C612 18.8 613.6 18.1 614.8 16.9M757.3 15.3C758.3 17.4 760.6 18.8 763 18.8C764.7 18.8 766.3 18.1 767.5 16.9M680.9 15.3C681.9 17.4 684.2 18.8 686.6 18.8C688.3 18.8 689.9 18.1 691.1 16.9M833.6 15.3C834.6 17.4 836.9 18.8 839.3 18.8C841 18.8 842.6 18.1 843.8 16.9M623.7 15.3C624.7 17.4 627 18.8 629.4 18.8C631.1 18.8 632.7 18.1 633.9 16.9M776.4 15.3C777.4 17.4 779.7 18.8 782.1 18.8C783.8 18.8 785.4 18.1 786.6 16.9M700 15.3C701 17.4 703.3 18.8 705.7 18.8C707.4 18.8 709 18.1 710.2 16.9M852.7 15.3C853.7 17.4 856 18.8 858.4 18.8M585.5 15.3C586.5 17.4 588.8 18.8 591.2 18.8C592.9 18.8 594.5 18.1 595.7 16.9M738.2 15.3C739.2 17.4 741.5 18.8 743.9 18.8C745.6 18.8 747.2 18.1 748.4 16.9M661.8 15.3C662.8 17.4 665.1 18.8 667.5 18.8C669.2 18.8 670.8 18.1 672 16.9M814.6 15.3C815.6 17.4 817.9 18.8 820.3 18.8C822 18.8 823.6 18.1 824.8 16.9M578.4 9.10001C577.2 6.80001 574.7 5.3 572.1 5.3M858.4 5.39999C856.5 5.39999 854.7 6.1 853.3 7.5M750.2 9.10001C749 6.80001 746.5 5.3 743.9 5.3C742 5.3 740.2 6.09999 738.8 7.39999M572.1 19.7C574 19.7 575.9 18.9 577.3 17.5M794.9 16C796.1 18.3 798.6 19.8 801.2 19.8C803.1 19.8 805 19 806.4 17.6M718.5 16C719.7 18.3 722.2 19.8 724.8 19.8C726.7 19.8 728.6 19 730 17.6M604 16C605.2 18.3 607.7 19.8 610.3 19.8C612.2 19.8 614.1 19 615.5 17.6M756.7 16C757.9 18.3 760.4 19.8 763 19.8C764.9 19.8 766.8 19 768.2 17.6M833 16C834.2 18.3 836.7 19.8 839.3 19.8C841.2 19.8 843.1 19 844.5 17.6M623.1 16C624.3 18.3 626.8 19.8 629.4 19.8C631.3 19.8 633.2 19 634.6 17.6M775.8 16C777 18.3 779.5 19.8 782.1 19.8C784 19.8 785.9 19 787.3 17.6M852.1 16C853.3 18.3 855.8 19.8 858.4 19.8M584.9 16C586.1 18.3 588.6 19.8 591.2 19.8C593.1 19.8 595 19 596.4 17.6M737.6 16C738.8 18.3 741.3 19.8 743.9 19.8C745.8 19.8 747.7 19 749.1 17.6M814 16C815.2 18.3 817.7 19.8 820.3 19.8C822.2 19.8 824.1 19 825.5 17.6M791.8 19C793.9 22 797.5 23.9 801.1 23.9C804 23.9 806.8 22.7 808.9 20.8M715.4 19.1C717.5 22.1 721.1 24 724.7 24C727.6 24 730.4 22.8 732.5 20.9M753.7 19C755.8 22 759.4 23.9 763 23.9C765.9 23.9 768.7 22.7 770.8 20.8M830 19C832.1 22 835.7 23.9 839.3 23.9C842.2 23.9 845 22.7 847.1 20.8M772.7 19C774.8 22 778.4 23.9 782 23.9C784.9 23.9 787.7 22.7 789.8 20.8M849.1 19C851.2 22 854.8 23.9 858.4 23.9M581.8 19.1C583.9 22.1 587.5 24 591.1 24C594 24 596.8 22.8 598.9 20.9M734.6 19C736.7 22 740.3 23.9 743.9 23.9C746.8 23.9 749.6 22.7 751.7 20.8M810.9 19C813 22 816.6 23.9 820.2 23.9C823.1 23.9 825.9 22.7 828 20.8M581.5 6.10001C579.4 3.00001 575.8 1.2 572.1 1.2M657.8 6.10001C655.7 3.00001 652.1 1.2 648.4 1.2C645.5 1.2 642.6 2.39999 640.5 4.39999M810.6 6C808.5 2.9 804.9 1.10001 801.2 1.10001C798.3 1.10001 795.4 2.3 793.3 4.3M734.2 6.10001C732.1 3.00001 728.5 1.2 724.8 1.2C721.9 1.2 719 2.39999 716.9 4.39999M619.7 6.10001C617.6 3.00001 614 1.2 610.3 1.2C607.4 1.2 604.5 2.39999 602.4 4.39999M772.4 6C770.3 2.9 766.7 1.10001 763 1.10001C760.1 1.10001 757.2 2.3 755.1 4.3M696 6.10001C693.9 3.00001 690.3 1.2 686.6 1.2C683.7 1.2 680.8 2.39999 678.7 4.39999M848.7 6C846.6 2.9 843 1.10001 839.3 1.10001C836.4 1.10001 833.5 2.3 831.4 4.3M638.8 6.10001C636.7 3.00001 633.1 1.2 629.4 1.2C626.5 1.2 623.6 2.39999 621.5 4.39999M791.5 6C789.4 2.9 785.8 1.10001 782.1 1.10001C779.2 1.10001 776.3 2.3 774.2 4.3M715.1 6.10001C713 3.00001 709.4 1.2 705.7 1.2C702.8 1.2 699.9 2.39999 697.8 4.39999M858.4 1.2C855.5 1.2 852.6 2.4 850.5 4.3M600.6 6.10001C598.5 3.00001 594.9 1.2 591.2 1.2C588.3 1.2 585.4 2.39999 583.3 4.39999M753.3 6C751.2 2.9 747.6 1.10001 743.9 1.10001C741 1.10001 738.1 2.3 736 4.3M676.9 6.10001C674.8 3.00001 671.2 1.2 667.5 1.2C664.6 1.2 661.7 2.39999 659.6 4.39999M829.7 6C827.6 2.9 824 1.10001 820.3 1.10001C817.4 1.10001 814.5 2.3 812.4 4.3M572 24H858.4M572 1H858.4M648.4 14.6C649.6 14.6 650.5 13.7 650.5 12.5C650.5 11.3 649.6 10.4 648.4 10.4C647.2 10.4 646.3 11.3 646.3 12.5C646.3 13.7 647.3 14.6 648.4 14.6ZM801.2 14.6C802.4 14.6 803.3 13.7 803.3 12.5C803.3 11.3 802.4 10.4 801.2 10.4C800 10.4 799.1 11.3 799.1 12.5C799.1 13.7 800 14.6 801.2 14.6ZM724.8 14.6C726 14.6 726.9 13.7 726.9 12.5C726.9 11.3 726 10.4 724.8 10.4C723.6 10.4 722.7 11.3 722.7 12.5C722.7 13.7 723.6 14.6 724.8 14.6ZM610.3 14.6C611.5 14.6 612.4 13.7 612.4 12.5C612.4 11.3 611.5 10.4 610.3 10.4C609.1 10.4 608.2 11.3 608.2 12.5C608.2 13.7 609.1 14.6 610.3 14.6ZM763 14.6C764.2 14.6 765.1 13.7 765.1 12.5C765.1 11.3 764.2 10.4 763 10.4C761.8 10.4 760.9 11.3 760.9 12.5C760.9 13.7 761.8 14.6 763 14.6ZM686.6 14.6C687.8 14.6 688.7 13.7 688.7 12.5C688.7 11.3 687.8 10.4 686.6 10.4C685.4 10.4 684.5 11.3 684.5 12.5C684.5 13.7 685.5 14.6 686.6 14.6ZM839.3 14.6C840.5 14.6 841.4 13.7 841.4 12.5C841.4 11.3 840.5 10.4 839.3 10.4C838.1 10.4 837.2 11.3 837.2 12.5C837.2 13.7 838.2 14.6 839.3 14.6ZM629.4 14.6C630.6 14.6 631.5 13.7 631.5 12.5C631.5 11.3 630.6 10.4 629.4 10.4C628.2 10.4 627.3 11.3 627.3 12.5C627.3 13.7 628.2 14.6 629.4 14.6ZM782.1 14.6C783.3 14.6 784.2 13.7 784.2 12.5C784.2 11.3 783.3 10.4 782.1 10.4C780.9 10.4 780 11.3 780 12.5C780 13.7 780.9 14.6 782.1 14.6ZM705.7 14.6C706.9 14.6 707.8 13.7 707.8 12.5C707.8 11.3 706.9 10.4 705.7 10.4C704.5 10.4 703.6 11.3 703.6 12.5C703.6 13.7 704.6 14.6 705.7 14.6ZM591.2 14.6C592.4 14.6 593.3 13.7 593.3 12.5C593.3 11.3 592.4 10.4 591.2 10.4C590 10.4 589.1 11.3 589.1 12.5C589.1 13.7 590 14.6 591.2 14.6ZM743.9 14.6C745.1 14.6 746 13.7 746 12.5C746 11.3 745.1 10.4 743.9 10.4C742.7 10.4 741.8 11.3 741.8 12.5C741.8 13.7 742.8 14.6 743.9 14.6ZM667.5 14.6C668.7 14.6 669.6 13.7 669.6 12.5C669.6 11.3 668.7 10.4 667.5 10.4C666.3 10.4 665.4 11.3 665.4 12.5C665.4 13.7 666.4 14.6 667.5 14.6ZM820.3 14.6C821.5 14.6 822.4 13.7 822.4 12.5C822.4 11.3 821.5 10.4 820.3 10.4C819.1 10.4 818.2 11.3 818.2 12.5C818.2 13.7 819.1 14.6 820.3 14.6Z" stroke="#151C26" stroke-opacity="0.17" stroke-width="1.57" stroke-miterlimit="22.926"/>
<path d="M932.9 11.1L923.1 20.9C921 22.8 918.2 24 915.3 24C911.7 24 908.1 22.1 906 19.1M1075.9 20.9L1085.7 11.1M1009.3 11.1L999.5 20.9C997.4 22.8 994.6 24 991.7 24C988.1 24 984.5 22.1 982.4 19.1M885 20.9L894.8 11.1M1037.7 20.9L1047.5 11.1M971.1 11.1L961.3 20.9C959.2 22.8 956.4 24 953.5 24C949.9 24 946.3 22.1 944.2 19.1M1114.1 20.9L1123.9 11.1M913.8 11.1L904 20.9C901.9 22.8 899.1 24 896.2 24C892.6 24 889 22.1 886.9 19.1M1056.8 20.9L1066.6 11.1M990.2 11.1L980.4 20.9C978.3 22.8 975.5 24 972.6 24C969 24 965.4 22.1 963.3 19.1M1133.1 20.9L1142.9 11.1M875.7 11.1L865.9 20.9C863.8 22.8 861 24 858.1 24M1018.6 20.9L1028.4 11.1M952 11.1L942.2 20.9C940.1 22.8 937.3 24 934.4 24C930.8 24 927.2 22.1 925.1 19.1M1094.9 20.9L1104.7 11.1M920.5 17.6L930.1 8C931.2 6.9 932.8 6.3 934.4 6.3C936.8 6.3 939.1 7.69999 940.1 9.89999M1073.2 17.5L1082.8 7.89999C1083.9 6.79999 1085.5 6.2 1087.1 6.2C1089.5 6.2 1091.8 7.6 1092.8 9.8M882.3 17.6L891.9 8C893 6.9 894.6 6.3 896.2 6.3C898.6 6.3 900.9 7.69999 901.9 9.89999M1035.1 17.5L1044.7 7.89999C1045.8 6.79999 1047.4 6.2 1049 6.2C1051.4 6.2 1053.7 7.6 1054.7 9.8M1111.4 17.5L1121 7.89999C1122.1 6.79999 1123.7 6.2 1125.3 6.2C1127.7 6.2 1130 7.6 1131 9.8M901.4 17.6L911 7.89999M1054.1 17.5L1063.7 7.8M987.4 7.89999L977.8 17.6C976.4 19 974.5 19.8 972.6 19.8C970 19.8 967.5 18.3 966.3 16M1130.5 17.5L1140.1 7.8M863.2 17.6L872.9 7.89999M1015.9 17.6L1025.6 7.89999C1026.7 6.79999 1028.3 6.2 1029.9 6.2C1032.3 6.2 1034.6 7.6 1035.6 9.8M1092.3 17.5L1101.9 7.89999C1103 6.79999 1104.6 6.2 1106.2 6.2C1108.6 6.2 1110.9 7.6 1111.9 9.8M919.8 17L929.4 7.39999C930.8 6.09999 932.6 5.3 934.5 5.3C937.1 5.3 939.6 6.80001 940.8 9.10001M1072.5 17L1082.1 7.39999C1083.5 6.09999 1085.3 5.3 1087.2 5.3C1089.8 5.3 1092.3 6.80001 1093.5 9.10001M996.1 17L1005.7 7.39999C1007.1 6.09999 1008.9 5.3 1010.8 5.3C1013.4 5.3 1015.9 6.80001 1017.1 9.10001M881.6 17L891.2 7.39999C892.6 6.09999 894.4 5.3 896.3 5.3C898.9 5.3 901.4 6.80001 902.6 9.10001M1034.3 17L1043.9 7.39999C1045.3 6.09999 1047.1 5.3 1049 5.3C1051.6 5.3 1054.1 6.80001 1055.3 9.10001M957.9 17L967.5 7.39999C968.9 6.09999 970.7 5.3 972.6 5.3C975.2 5.3 977.7 6.80001 978.9 9.10001M1110.7 17L1120.3 7.39999C1121.7 6.09999 1123.5 5.3 1125.4 5.3C1128 5.3 1130.5 6.80001 1131.7 9.10001M900.7 17L910.3 7.39999C911.7 6.09999 913.5 5.3 915.4 5.3C918 5.3 920.5 6.80001 921.7 9.10001M1053.4 17L1063 7.39999C1064.4 6.09999 1066.2 5.3 1068.1 5.3C1070.7 5.3 1073.2 6.80001 1074.4 9.10001M977 17L986.6 7.39999C988 6.09999 989.8 5.3 991.7 5.3C994.3 5.3 996.8 6.80001 998 9.10001M1129.8 17L1139.4 7.39999M862.5 17L872.1 7.39999C873.5 6.09999 875.3 5.3 877.2 5.3C879.8 5.3 882.3 6.80001 883.5 9.10001M1015.2 17L1024.9 7.39999M938.9 17L948.5 7.39999C949.9 6.09999 951.7 5.3 953.6 5.3C956.2 5.3 958.7 6.80001 959.9 9.10001M1091.6 17L1101.2 7.39999C1102.6 6.09999 1104.4 5.3 1106.3 5.3C1108.9 5.3 1111.4 6.80001 1112.6 9.10001M916.7 14.1L926.6 4.3M1069.5 14.1L1079.4 4.3M993.1 14.1L1003 4.3M878.6 14.1L888.5 4.3M1031.3 14.1L1041.2 4.3M954.9 14.1L964.8 4.3M1107.6 14.1L1117.5 4.3M897.7 14.1L907.5 4.3M1050.5 14L1060.3 4.2M974.1 14.1L983.9 4.3M1126.8 14L1136.6 4.2M859.6 14.1L869.4 4.3M1012.3 14L1022.1 4.2M935.9 14.1L945.7 4.3M1088.6 14L1098.4 4.2M858.1 14.6C859.3 14.6 860.2 13.7 860.2 12.5C860.2 11.3 859.3 10.4 858.1 10.4M1144.4 10.4C1143.2 10.4 1142.3 11.3 1142.3 12.5C1142.3 13.7 1143.2 14.6 1144.4 14.6M863.8 9.89999C862.8 7.69999 860.5 6.3 858.1 6.3M1016.5 9.89999C1015.5 7.69999 1013.2 6.3 1010.8 6.3C1009.2 6.3 1007.6 6.9 1006.5 8L996.9 17.6C995.5 19 993.6 19.8 991.7 19.8C989.1 19.8 986.6 18.3 985.4 16M978.3 9.89999C977.3 7.69999 975 6.3 972.6 6.3C971 6.3 969.4 6.9 968.3 8L958.7 17.6C957.3 19 955.4 19.8 953.5 19.8C950.9 19.8 948.4 18.3 947.2 16M921 9.89999C920 7.69999 917.7 6.3 915.3 6.3C913.7 6.3 912.1 6.9 911 8M1073.8 9.8C1072.8 7.6 1070.5 6.2 1068.1 6.2C1066.5 6.2 1064.9 6.79999 1063.8 7.89999M997.4 9.89999C996.4 7.69999 994.1 6.3 991.7 6.3C990.1 6.3 988.5 6.9 987.4 8M1144.4 6.2C1142.8 6.2 1141.2 6.79999 1140.1 7.89999M882.9 9.89999C881.9 7.69999 879.6 6.3 877.2 6.3C875.6 6.3 874 6.9 872.9 8M959.2 9.89999C958.2 7.69999 955.9 6.3 953.5 6.3C951.9 6.3 950.3 6.9 949.2 8L939.6 17.6C938.2 19 936.3 19.8 934.4 19.8C931.8 19.8 929.3 18.3 928.1 16M858.1 18.8C859.8 18.8 861.4 18.1 862.6 16.9M928.7 15.3C929.7 17.4 932 18.8 934.4 18.8C936.1 18.8 937.7 18.1 938.9 16.9M1081.5 15.3C1082.5 17.4 1084.8 18.8 1087.2 18.8C1088.9 18.8 1090.5 18.1 1091.7 16.9M1005.1 15.3C1006.1 17.4 1008.4 18.8 1010.8 18.8C1012.5 18.8 1014.1 18.1 1015.3 16.9M890.6 15.3C891.6 17.4 893.9 18.8 896.3 18.8C898 18.8 899.6 18.1 900.8 16.9M1043.3 15.3C1044.3 17.4 1046.6 18.8 1049 18.8C1050.7 18.8 1052.3 18.1 1053.5 16.9M966.9 15.3C967.9 17.4 970.2 18.8 972.6 18.8C974.3 18.8 975.9 18.1 977.1 16.9M1119.6 15.3C1120.6 17.4 1122.9 18.8 1125.3 18.8C1127 18.8 1128.6 18.1 1129.8 16.9M909.7 15.3C910.7 17.4 913 18.8 915.4 18.8C917.1 18.8 918.7 18.1 919.9 16.9M1062.4 15.3C1063.4 17.4 1065.7 18.8 1068.1 18.8C1069.8 18.8 1071.4 18.1 1072.6 16.9M986 15.3C987 17.4 989.3 18.8 991.7 18.8C993.4 18.8 995 18.1 996.2 16.9M1138.7 15.3C1139.7 17.4 1142 18.8 1144.4 18.8M871.5 15.3C872.5 17.4 874.8 18.8 877.2 18.8C878.9 18.8 880.5 18.1 881.7 16.9M1024.2 15.3C1025.2 17.4 1027.5 18.8 1029.9 18.8C1031.6 18.8 1033.2 18.1 1034.4 16.9M947.8 15.3C948.8 17.4 951.1 18.8 953.5 18.8C955.2 18.8 956.8 18.1 958 16.9M1100.6 15.3C1101.6 17.4 1103.9 18.8 1106.3 18.8C1108 18.8 1109.6 18.1 1110.8 16.9M864.4 9.10001C863.2 6.80001 860.7 5.3 858.1 5.3M1144.4 5.39999C1142.5 5.39999 1140.7 6.1 1139.3 7.5M1036.2 9.10001C1035 6.80001 1032.5 5.3 1029.9 5.3C1028 5.3 1026.2 6.09999 1024.8 7.39999M858.1 19.7C860 19.7 861.9 18.9 863.3 17.5M1080.9 16C1082.1 18.3 1084.6 19.8 1087.2 19.8C1089.1 19.8 1091 19 1092.4 17.6M1004.5 16C1005.7 18.3 1008.2 19.8 1010.8 19.8C1012.7 19.8 1014.6 19 1016 17.6M890 16C891.2 18.3 893.7 19.8 896.3 19.8C898.2 19.8 900.1 19 901.5 17.6M1042.7 16C1043.9 18.3 1046.4 19.8 1049 19.8C1050.9 19.8 1052.8 19 1054.2 17.6M1119 16C1120.2 18.3 1122.7 19.8 1125.3 19.8C1127.2 19.8 1129.1 19 1130.5 17.6M909.1 16C910.3 18.3 912.8 19.8 915.4 19.8C917.3 19.8 919.2 19 920.6 17.6M1061.8 16C1063 18.3 1065.5 19.8 1068.1 19.8C1070 19.8 1071.9 19 1073.3 17.6M1138.1 16C1139.3 18.3 1141.8 19.8 1144.4 19.8M870.9 16C872.1 18.3 874.6 19.8 877.2 19.8C879.1 19.8 881 19 882.4 17.6M1023.6 16C1024.8 18.3 1027.3 19.8 1029.9 19.8C1031.8 19.8 1033.7 19 1035.1 17.6M1100 16C1101.2 18.3 1103.7 19.8 1106.3 19.8C1108.2 19.8 1110.1 19 1111.5 17.6M1077.8 19C1079.9 22 1083.5 23.9 1087.1 23.9C1090 23.9 1092.8 22.7 1094.9 20.8M1001.4 19.1C1003.5 22.1 1007.1 24 1010.7 24C1013.6 24 1016.4 22.8 1018.5 20.9M1039.7 19C1041.8 22 1045.4 23.9 1049 23.9C1051.9 23.9 1054.7 22.7 1056.8 20.8M1116 19C1118.1 22 1121.7 23.9 1125.3 23.9C1128.2 23.9 1131 22.7 1133.1 20.8M1058.7 19C1060.8 22 1064.4 23.9 1068 23.9C1070.9 23.9 1073.7 22.7 1075.8 20.8M1135.1 19C1137.2 22 1140.8 23.9 1144.4 23.9M867.8 19.1C869.9 22.1 873.5 24 877.1 24C880 24 882.8 22.8 884.9 20.9M1020.6 19C1022.7 22 1026.3 23.9 1029.9 23.9C1032.8 23.9 1035.6 22.7 1037.7 20.8M1096.9 19C1099 22 1102.6 23.9 1106.2 23.9C1109.1 23.9 1111.9 22.7 1114 20.8M867.5 6.10001C865.4 3.00001 861.8 1.2 858.1 1.2M943.8 6.10001C941.7 3.00001 938.1 1.2 934.4 1.2C931.5 1.2 928.6 2.39999 926.5 4.39999M1096.6 6C1094.5 2.9 1090.9 1.10001 1087.2 1.10001C1084.3 1.10001 1081.4 2.3 1079.3 4.3M1020.2 6.10001C1018.1 3.00001 1014.5 1.2 1010.8 1.2C1007.9 1.2 1005 2.39999 1002.9 4.39999M905.7 6.10001C903.6 3.00001 900 1.2 896.3 1.2C893.4 1.2 890.5 2.39999 888.4 4.39999M1058.4 6C1056.3 2.9 1052.7 1.10001 1049 1.10001C1046.1 1.10001 1043.2 2.3 1041.1 4.3M982 6.10001C979.9 3.00001 976.3 1.2 972.6 1.2C969.7 1.2 966.8 2.39999 964.7 4.39999M1134.7 6C1132.6 2.9 1129 1.10001 1125.3 1.10001C1122.4 1.10001 1119.5 2.3 1117.4 4.3M924.8 6.10001C922.7 3.00001 919.1 1.2 915.4 1.2C912.5 1.2 909.6 2.39999 907.5 4.39999M1077.5 6C1075.4 2.9 1071.8 1.10001 1068.1 1.10001C1065.2 1.10001 1062.3 2.3 1060.2 4.3M1001.1 6.10001C999 3.00001 995.4 1.2 991.7 1.2C988.8 1.2 985.9 2.39999 983.8 4.39999M1144.4 1.2C1141.5 1.2 1138.6 2.4 1136.5 4.3M886.6 6.10001C884.5 3.00001 880.9 1.2 877.2 1.2C874.3 1.2 871.4 2.39999 869.3 4.39999M1039.3 6C1037.2 2.9 1033.6 1.10001 1029.9 1.10001C1027 1.10001 1024.1 2.3 1022 4.3M962.9 6.10001C960.8 3.00001 957.2 1.2 953.5 1.2C950.6 1.2 947.7 2.39999 945.6 4.39999M1115.7 6C1113.6 2.9 1110 1.10001 1106.3 1.10001C1103.4 1.10001 1100.5 2.3 1098.4 4.3M858 24H1144.4M858 1H1144.4M934.4 14.6C935.6 14.6 936.5 13.7 936.5 12.5C936.5 11.3 935.6 10.4 934.4 10.4C933.2 10.4 932.3 11.3 932.3 12.5C932.3 13.7 933.3 14.6 934.4 14.6ZM1087.2 14.6C1088.4 14.6 1089.3 13.7 1089.3 12.5C1089.3 11.3 1088.4 10.4 1087.2 10.4C1086 10.4 1085.1 11.3 1085.1 12.5C1085.1 13.7 1086 14.6 1087.2 14.6ZM1010.8 14.6C1012 14.6 1012.9 13.7 1012.9 12.5C1012.9 11.3 1012 10.4 1010.8 10.4C1009.6 10.4 1008.7 11.3 1008.7 12.5C1008.7 13.7 1009.6 14.6 1010.8 14.6ZM896.3 14.6C897.5 14.6 898.4 13.7 898.4 12.5C898.4 11.3 897.5 10.4 896.3 10.4C895.1 10.4 894.2 11.3 894.2 12.5C894.2 13.7 895.1 14.6 896.3 14.6ZM1049 14.6C1050.2 14.6 1051.1 13.7 1051.1 12.5C1051.1 11.3 1050.2 10.4 1049 10.4C1047.8 10.4 1046.9 11.3 1046.9 12.5C1046.9 13.7 1047.8 14.6 1049 14.6ZM972.6 14.6C973.8 14.6 974.7 13.7 974.7 12.5C974.7 11.3 973.8 10.4 972.6 10.4C971.4 10.4 970.5 11.3 970.5 12.5C970.5 13.7 971.5 14.6 972.6 14.6ZM1125.3 14.6C1126.5 14.6 1127.4 13.7 1127.4 12.5C1127.4 11.3 1126.5 10.4 1125.3 10.4C1124.1 10.4 1123.2 11.3 1123.2 12.5C1123.2 13.7 1124.2 14.6 1125.3 14.6ZM915.4 14.6C916.6 14.6 917.5 13.7 917.5 12.5C917.5 11.3 916.6 10.4 915.4 10.4C914.2 10.4 913.3 11.3 913.3 12.5C913.3 13.7 914.2 14.6 915.4 14.6ZM1068.1 14.6C1069.3 14.6 1070.2 13.7 1070.2 12.5C1070.2 11.3 1069.3 10.4 1068.1 10.4C1066.9 10.4 1066 11.3 1066 12.5C1066 13.7 1066.9 14.6 1068.1 14.6ZM991.7 14.6C992.9 14.6 993.8 13.7 993.8 12.5C993.8 11.3 992.9 10.4 991.7 10.4C990.5 10.4 989.6 11.3 989.6 12.5C989.6 13.7 990.6 14.6 991.7 14.6ZM877.2 14.6C878.4 14.6 879.3 13.7 879.3 12.5C879.3 11.3 878.4 10.4 877.2 10.4C876 10.4 875.1 11.3 875.1 12.5C875.1 13.7 876 14.6 877.2 14.6ZM1029.9 14.6C1031.1 14.6 1032 13.7 1032 12.5C1032 11.3 1031.1 10.4 1029.9 10.4C1028.7 10.4 1027.8 11.3 1027.8 12.5C1027.8 13.7 1028.8 14.6 1029.9 14.6ZM953.5 14.6C954.7 14.6 955.6 13.7 955.6 12.5C955.6 11.3 954.7 10.4 953.5 10.4C952.3 10.4 951.4 11.3 951.4 12.5C951.4 13.7 952.4 14.6 953.5 14.6ZM1106.3 14.6C1107.5 14.6 1108.4 13.7 1108.4 12.5C1108.4 11.3 1107.5 10.4 1106.3 10.4C1105.1 10.4 1104.2 11.3 1104.2 12.5C1104.2 13.7 1105.1 14.6 1106.3 14.6Z" stroke="#151C26" stroke-opacity="0.17" stroke-width="1.57" stroke-miterlimit="22.926"/>
<path d="M1218.9 11.1L1209.1 20.9C1207 22.8 1204.2 24 1201.3 24C1197.7 24 1194.1 22.1 1192 19.1M1361.9 20.9L1371.7 11.1M1295.3 11.1L1285.5 20.9C1283.4 22.8 1280.6 24 1277.7 24C1274.1 24 1270.5 22.1 1268.4 19.1M1171 20.9L1180.8 11.1M1323.7 20.9L1333.5 11.1M1257.1 11.1L1247.3 20.9C1245.2 22.8 1242.4 24 1239.5 24C1235.9 24 1232.3 22.1 1230.2 19.1M1400.1 20.9L1409.9 11.1M1199.8 11.1L1190 20.9C1187.9 22.8 1185.1 24 1182.2 24C1178.6 24 1175 22.1 1172.9 19.1M1342.8 20.9L1352.6 11.1M1276.2 11.1L1266.4 20.9C1264.3 22.8 1261.5 24 1258.6 24C1255 24 1251.4 22.1 1249.3 19.1M1419.1 20.9L1428.9 11.1M1161.7 11.1L1151.9 20.9C1149.8 22.8 1147 24 1144.1 24M1304.6 20.9L1314.4 11.1M1238 11.1L1228.2 20.9C1226.1 22.8 1223.3 24 1220.4 24C1216.8 24 1213.2 22.1 1211.1 19.1M1380.9 20.9L1390.7 11.1M1206.5 17.6L1216.1 8C1217.2 6.9 1218.8 6.3 1220.4 6.3C1222.8 6.3 1225.1 7.69999 1226.1 9.89999M1359.2 17.5L1368.8 7.89999C1369.9 6.79999 1371.5 6.2 1373.1 6.2C1375.5 6.2 1377.8 7.6 1378.8 9.8M1168.3 17.6L1177.9 8C1179 6.9 1180.6 6.3 1182.2 6.3C1184.6 6.3 1186.9 7.69999 1187.9 9.89999M1321.1 17.5L1330.7 7.89999C1331.8 6.79999 1333.4 6.2 1335 6.2C1337.4 6.2 1339.7 7.6 1340.7 9.8M1397.4 17.5L1407 7.89999C1408.1 6.79999 1409.7 6.2 1411.3 6.2C1413.7 6.2 1416 7.6 1417 9.8M1187.4 17.6L1197 7.89999M1340.1 17.5L1349.7 7.8M1273.4 7.89999L1263.8 17.6C1262.4 19 1260.5 19.8 1258.6 19.8C1256 19.8 1253.5 18.3 1252.3 16M1416.5 17.5L1426.1 7.8M1149.2 17.6L1158.9 7.89999M1301.9 17.6L1311.6 7.89999C1312.7 6.79999 1314.3 6.2 1315.9 6.2C1318.3 6.2 1320.6 7.6 1321.6 9.8M1378.3 17.5L1387.9 7.89999C1389 6.79999 1390.6 6.2 1392.2 6.2C1394.6 6.2 1396.9 7.6 1397.9 9.8M1205.8 17L1215.4 7.39999C1216.8 6.09999 1218.6 5.3 1220.5 5.3C1223.1 5.3 1225.6 6.80001 1226.8 9.10001M1358.5 17L1368.1 7.39999C1369.5 6.09999 1371.3 5.3 1373.2 5.3C1375.8 5.3 1378.3 6.80001 1379.5 9.10001M1282.1 17L1291.7 7.39999C1293.1 6.09999 1294.9 5.3 1296.8 5.3C1299.4 5.3 1301.9 6.80001 1303.1 9.10001M1167.6 17L1177.2 7.39999C1178.6 6.09999 1180.4 5.3 1182.3 5.3C1184.9 5.3 1187.4 6.80001 1188.6 9.10001M1320.3 17L1329.9 7.39999C1331.3 6.09999 1333.1 5.3 1335 5.3C1337.6 5.3 1340.1 6.80001 1341.3 9.10001M1243.9 17L1253.5 7.39999C1254.9 6.09999 1256.7 5.3 1258.6 5.3C1261.2 5.3 1263.7 6.80001 1264.9 9.10001M1396.7 17L1406.3 7.39999C1407.7 6.09999 1409.5 5.3 1411.4 5.3C1414 5.3 1416.5 6.80001 1417.7 9.10001M1186.7 17L1196.3 7.39999C1197.7 6.09999 1199.5 5.3 1201.4 5.3C1204 5.3 1206.5 6.80001 1207.7 9.10001M1339.4 17L1349 7.39999C1350.4 6.09999 1352.2 5.3 1354.1 5.3C1356.7 5.3 1359.2 6.80001 1360.4 9.10001M1263 17L1272.6 7.39999C1274 6.09999 1275.8 5.3 1277.7 5.3C1280.3 5.3 1282.8 6.80001 1284 9.10001M1415.8 17L1425.4 7.39999M1148.5 17L1158.1 7.39999C1159.5 6.09999 1161.3 5.3 1163.2 5.3C1165.8 5.3 1168.3 6.80001 1169.5 9.10001M1301.2 17L1310.9 7.39999M1224.9 17L1234.5 7.39999C1235.9 6.09999 1237.7 5.3 1239.6 5.3C1242.2 5.3 1244.7 6.80001 1245.9 9.10001M1377.6 17L1387.2 7.39999C1388.6 6.09999 1390.4 5.3 1392.3 5.3C1394.9 5.3 1397.4 6.80001 1398.6 9.10001M1202.7 14.1L1212.6 4.3M1355.5 14.1L1365.4 4.3M1279.1 14.1L1289 4.3M1164.6 14.1L1174.5 4.3M1317.3 14.1L1327.2 4.3M1240.9 14.1L1250.8 4.3M1393.6 14.1L1403.5 4.3M1183.7 14.1L1193.5 4.3M1336.5 14L1346.3 4.2M1260.1 14.1L1269.9 4.3M1412.8 14L1422.6 4.2M1145.6 14.1L1155.4 4.3M1298.3 14L1308.1 4.2M1221.9 14.1L1231.7 4.3M1374.6 14L1384.4 4.2M1144.1 14.6C1145.3 14.6 1146.2 13.7 1146.2 12.5C1146.2 11.3 1145.3 10.4 1144.1 10.4M1430.4 10.4C1429.2 10.4 1428.3 11.3 1428.3 12.5C1428.3 13.7 1429.2 14.6 1430.4 14.6M1149.8 9.89999C1148.8 7.69999 1146.5 6.3 1144.1 6.3M1302.5 9.89999C1301.5 7.69999 1299.2 6.3 1296.8 6.3C1295.2 6.3 1293.6 6.9 1292.5 8L1282.9 17.6C1281.5 19 1279.6 19.8 1277.7 19.8C1275.1 19.8 1272.6 18.3 1271.4 16M1264.3 9.89999C1263.3 7.69999 1261 6.3 1258.6 6.3C1257 6.3 1255.4 6.9 1254.3 8L1244.7 17.6C1243.3 19 1241.4 19.8 1239.5 19.8C1236.9 19.8 1234.4 18.3 1233.2 16M1207 9.89999C1206 7.69999 1203.7 6.3 1201.3 6.3C1199.7 6.3 1198.1 6.9 1197 8M1359.8 9.8C1358.8 7.6 1356.5 6.2 1354.1 6.2C1352.5 6.2 1350.9 6.79999 1349.8 7.89999M1283.4 9.89999C1282.4 7.69999 1280.1 6.3 1277.7 6.3C1276.1 6.3 1274.5 6.9 1273.4 8M1430.4 6.2C1428.8 6.2 1427.2 6.79999 1426.1 7.89999M1168.9 9.89999C1167.9 7.69999 1165.6 6.3 1163.2 6.3C1161.6 6.3 1160 6.9 1158.9 8M1245.2 9.89999C1244.2 7.69999 1241.9 6.3 1239.5 6.3C1237.9 6.3 1236.3 6.9 1235.2 8L1225.6 17.6C1224.2 19 1222.3 19.8 1220.4 19.8C1217.8 19.8 1215.3 18.3 1214.1 16M1144.1 18.8C1145.8 18.8 1147.4 18.1 1148.6 16.9M1214.7 15.3C1215.7 17.4 1218 18.8 1220.4 18.8C1222.1 18.8 1223.7 18.1 1224.9 16.9M1367.5 15.3C1368.5 17.4 1370.8 18.8 1373.2 18.8C1374.9 18.8 1376.5 18.1 1377.7 16.9M1291.1 15.3C1292.1 17.4 1294.4 18.8 1296.8 18.8C1298.5 18.8 1300.1 18.1 1301.3 16.9M1176.6 15.3C1177.6 17.4 1179.9 18.8 1182.3 18.8C1184 18.8 1185.6 18.1 1186.8 16.9M1329.3 15.3C1330.3 17.4 1332.6 18.8 1335 18.8C1336.7 18.8 1338.3 18.1 1339.5 16.9M1252.9 15.3C1253.9 17.4 1256.2 18.8 1258.6 18.8C1260.3 18.8 1261.9 18.1 1263.1 16.9M1405.6 15.3C1406.6 17.4 1408.9 18.8 1411.3 18.8C1413 18.8 1414.6 18.1 1415.8 16.9M1195.7 15.3C1196.7 17.4 1199 18.8 1201.4 18.8C1203.1 18.8 1204.7 18.1 1205.9 16.9M1348.4 15.3C1349.4 17.4 1351.7 18.8 1354.1 18.8C1355.8 18.8 1357.4 18.1 1358.6 16.9M1272 15.3C1273 17.4 1275.3 18.8 1277.7 18.8C1279.4 18.8 1281 18.1 1282.2 16.9M1424.7 15.3C1425.7 17.4 1428 18.8 1430.4 18.8M1157.5 15.3C1158.5 17.4 1160.8 18.8 1163.2 18.8C1164.9 18.8 1166.5 18.1 1167.7 16.9M1310.2 15.3C1311.2 17.4 1313.5 18.8 1315.9 18.8C1317.6 18.8 1319.2 18.1 1320.4 16.9M1233.8 15.3C1234.8 17.4 1237.1 18.8 1239.5 18.8C1241.2 18.8 1242.8 18.1 1244 16.9M1386.6 15.3C1387.6 17.4 1389.9 18.8 1392.3 18.8C1394 18.8 1395.6 18.1 1396.8 16.9M1150.4 9.10001C1149.2 6.80001 1146.7 5.3 1144.1 5.3M1430.4 5.39999C1428.5 5.39999 1426.7 6.1 1425.3 7.5M1322.2 9.10001C1321 6.80001 1318.5 5.3 1315.9 5.3C1314 5.3 1312.2 6.09999 1310.8 7.39999M1144.1 19.7C1146 19.7 1147.9 18.9 1149.3 17.5M1366.9 16C1368.1 18.3 1370.6 19.8 1373.2 19.8C1375.1 19.8 1377 19 1378.4 17.6M1290.5 16C1291.7 18.3 1294.2 19.8 1296.8 19.8C1298.7 19.8 1300.6 19 1302 17.6M1176 16C1177.2 18.3 1179.7 19.8 1182.3 19.8C1184.2 19.8 1186.1 19 1187.5 17.6M1328.7 16C1329.9 18.3 1332.4 19.8 1335 19.8C1336.9 19.8 1338.8 19 1340.2 17.6M1405 16C1406.2 18.3 1408.7 19.8 1411.3 19.8C1413.2 19.8 1415.1 19 1416.5 17.6M1195.1 16C1196.3 18.3 1198.8 19.8 1201.4 19.8C1203.3 19.8 1205.2 19 1206.6 17.6M1347.8 16C1349 18.3 1351.5 19.8 1354.1 19.8C1356 19.8 1357.9 19 1359.3 17.6M1424.1 16C1425.3 18.3 1427.8 19.8 1430.4 19.8M1156.9 16C1158.1 18.3 1160.6 19.8 1163.2 19.8C1165.1 19.8 1167 19 1168.4 17.6M1309.6 16C1310.8 18.3 1313.3 19.8 1315.9 19.8C1317.8 19.8 1319.7 19 1321.1 17.6M1386 16C1387.2 18.3 1389.7 19.8 1392.3 19.8C1394.2 19.8 1396.1 19 1397.5 17.6M1363.8 19C1365.9 22 1369.5 23.9 1373.1 23.9C1376 23.9 1378.8 22.7 1380.9 20.8M1287.4 19.1C1289.5 22.1 1293.1 24 1296.7 24C1299.6 24 1302.4 22.8 1304.5 20.9M1325.7 19C1327.8 22 1331.4 23.9 1335 23.9C1337.9 23.9 1340.7 22.7 1342.8 20.8M1402 19C1404.1 22 1407.7 23.9 1411.3 23.9C1414.2 23.9 1417 22.7 1419.1 20.8M1344.7 19C1346.8 22 1350.4 23.9 1354 23.9C1356.9 23.9 1359.7 22.7 1361.8 20.8M1421.1 19C1423.2 22 1426.8 23.9 1430.4 23.9M1153.8 19.1C1155.9 22.1 1159.5 24 1163.1 24C1166 24 1168.8 22.8 1170.9 20.9M1306.6 19C1308.7 22 1312.3 23.9 1315.9 23.9C1318.8 23.9 1321.6 22.7 1323.7 20.8M1382.9 19C1385 22 1388.6 23.9 1392.2 23.9C1395.1 23.9 1397.9 22.7 1400 20.8M1153.5 6.10001C1151.4 3.00001 1147.8 1.2 1144.1 1.2M1229.8 6.10001C1227.7 3.00001 1224.1 1.2 1220.4 1.2C1217.5 1.2 1214.6 2.39999 1212.5 4.39999M1382.6 6C1380.5 2.9 1376.9 1.10001 1373.2 1.10001C1370.3 1.10001 1367.4 2.3 1365.3 4.3M1306.2 6.10001C1304.1 3.00001 1300.5 1.2 1296.8 1.2C1293.9 1.2 1291 2.39999 1288.9 4.39999M1191.7 6.10001C1189.6 3.00001 1186 1.2 1182.3 1.2C1179.4 1.2 1176.5 2.39999 1174.4 4.39999M1344.4 6C1342.3 2.9 1338.7 1.10001 1335 1.10001C1332.1 1.10001 1329.2 2.3 1327.1 4.3M1268 6.10001C1265.9 3.00001 1262.3 1.2 1258.6 1.2C1255.7 1.2 1252.8 2.39999 1250.7 4.39999M1420.7 6C1418.6 2.9 1415 1.10001 1411.3 1.10001C1408.4 1.10001 1405.5 2.3 1403.4 4.3M1210.8 6.10001C1208.7 3.00001 1205.1 1.2 1201.4 1.2C1198.5 1.2 1195.6 2.39999 1193.5 4.39999M1363.5 6C1361.4 2.9 1357.8 1.10001 1354.1 1.10001C1351.2 1.10001 1348.3 2.3 1346.2 4.3M1287.1 6.10001C1285 3.00001 1281.4 1.2 1277.7 1.2C1274.8 1.2 1271.9 2.39999 1269.8 4.39999M1430.4 1.2C1427.5 1.2 1424.6 2.4 1422.5 4.3M1172.6 6.10001C1170.5 3.00001 1166.9 1.2 1163.2 1.2C1160.3 1.2 1157.4 2.39999 1155.3 4.39999M1325.3 6C1323.2 2.9 1319.6 1.10001 1315.9 1.10001C1313 1.10001 1310.1 2.3 1308 4.3M1248.9 6.10001C1246.8 3.00001 1243.2 1.2 1239.5 1.2C1236.6 1.2 1233.7 2.39999 1231.6 4.39999M1401.7 6C1399.6 2.9 1396 1.10001 1392.3 1.10001C1389.4 1.10001 1386.5 2.3 1384.4 4.3M1144 24H1430.4M1144 1H1430.4M1220.4 14.6C1221.6 14.6 1222.5 13.7 1222.5 12.5C1222.5 11.3 1221.6 10.4 1220.4 10.4C1219.2 10.4 1218.3 11.3 1218.3 12.5C1218.3 13.7 1219.3 14.6 1220.4 14.6ZM1373.2 14.6C1374.4 14.6 1375.3 13.7 1375.3 12.5C1375.3 11.3 1374.4 10.4 1373.2 10.4C1372 10.4 1371.1 11.3 1371.1 12.5C1371.1 13.7 1372 14.6 1373.2 14.6ZM1296.8 14.6C1298 14.6 1298.9 13.7 1298.9 12.5C1298.9 11.3 1298 10.4 1296.8 10.4C1295.6 10.4 1294.7 11.3 1294.7 12.5C1294.7 13.7 1295.6 14.6 1296.8 14.6ZM1182.3 14.6C1183.5 14.6 1184.4 13.7 1184.4 12.5C1184.4 11.3 1183.5 10.4 1182.3 10.4C1181.1 10.4 1180.2 11.3 1180.2 12.5C1180.2 13.7 1181.1 14.6 1182.3 14.6ZM1335 14.6C1336.2 14.6 1337.1 13.7 1337.1 12.5C1337.1 11.3 1336.2 10.4 1335 10.4C1333.8 10.4 1332.9 11.3 1332.9 12.5C1332.9 13.7 1333.8 14.6 1335 14.6ZM1258.6 14.6C1259.8 14.6 1260.7 13.7 1260.7 12.5C1260.7 11.3 1259.8 10.4 1258.6 10.4C1257.4 10.4 1256.5 11.3 1256.5 12.5C1256.5 13.7 1257.5 14.6 1258.6 14.6ZM1411.3 14.6C1412.5 14.6 1413.4 13.7 1413.4 12.5C1413.4 11.3 1412.5 10.4 1411.3 10.4C1410.1 10.4 1409.2 11.3 1409.2 12.5C1409.2 13.7 1410.2 14.6 1411.3 14.6ZM1201.4 14.6C1202.6 14.6 1203.5 13.7 1203.5 12.5C1203.5 11.3 1202.6 10.4 1201.4 10.4C1200.2 10.4 1199.3 11.3 1199.3 12.5C1199.3 13.7 1200.2 14.6 1201.4 14.6ZM1354.1 14.6C1355.3 14.6 1356.2 13.7 1356.2 12.5C1356.2 11.3 1355.3 10.4 1354.1 10.4C1352.9 10.4 1352 11.3 1352 12.5C1352 13.7 1352.9 14.6 1354.1 14.6ZM1277.7 14.6C1278.9 14.6 1279.8 13.7 1279.8 12.5C1279.8 11.3 1278.9 10.4 1277.7 10.4C1276.5 10.4 1275.6 11.3 1275.6 12.5C1275.6 13.7 1276.6 14.6 1277.7 14.6ZM1163.2 14.6C1164.4 14.6 1165.3 13.7 1165.3 12.5C1165.3 11.3 1164.4 10.4 1163.2 10.4C1162 10.4 1161.1 11.3 1161.1 12.5C1161.1 13.7 1162 14.6 1163.2 14.6ZM1315.9 14.6C1317.1 14.6 1318 13.7 1318 12.5C1318 11.3 1317.1 10.4 1315.9 10.4C1314.7 10.4 1313.8 11.3 1313.8 12.5C1313.8 13.7 1314.8 14.6 1315.9 14.6ZM1239.5 14.6C1240.7 14.6 1241.6 13.7 1241.6 12.5C1241.6 11.3 1240.7 10.4 1239.5 10.4C1238.3 10.4 1237.4 11.3 1237.4 12.5C1237.4 13.7 1238.4 14.6 1239.5 14.6ZM1392.3 14.6C1393.5 14.6 1394.4 13.7 1394.4 12.5C1394.4 11.3 1393.5 10.4 1392.3 10.4C1391.1 10.4 1390.2 11.3 1390.2 12.5C1390.2 13.7 1391.1 14.6 1392.3 14.6Z" stroke="#151C26" stroke-opacity="0.17" stroke-width="1.57" stroke-miterlimit="22.926"/>
<path d="M1504.9 11.1L1495.1 20.9C1493 22.8 1490.2 24 1487.3 24C1483.7 24 1480.1 22.1 1478 19.1M1647.9 20.9L1657.7 11.1M1581.3 11.1L1571.5 20.9C1569.4 22.8 1566.6 24 1563.7 24C1560.1 24 1556.5 22.1 1554.4 19.1M1457 20.9L1466.8 11.1M1609.7 20.9L1619.5 11.1M1543.1 11.1L1533.3 20.9C1531.2 22.8 1528.4 24 1525.5 24C1521.9 24 1518.3 22.1 1516.2 19.1M1686.1 20.9L1695.9 11.1M1485.8 11.1L1476 20.9C1473.9 22.8 1471.1 24 1468.2 24C1464.6 24 1461 22.1 1458.9 19.1M1628.8 20.9L1638.6 11.1M1562.2 11.1L1552.4 20.9C1550.3 22.8 1547.5 24 1544.6 24C1541 24 1537.4 22.1 1535.3 19.1M1705.1 20.9L1714.9 11.1M1447.7 11.1L1437.9 20.9C1435.8 22.8 1433 24 1430.1 24M1590.6 20.9L1600.4 11.1M1524 11.1L1514.2 20.9C1512.1 22.8 1509.3 24 1506.4 24C1502.8 24 1499.2 22.1 1497.1 19.1M1666.9 20.9L1676.7 11.1M1492.5 17.6L1502.1 8C1503.2 6.9 1504.8 6.3 1506.4 6.3C1508.8 6.3 1511.1 7.69999 1512.1 9.89999M1645.2 17.5L1654.8 7.89999C1655.9 6.79999 1657.5 6.2 1659.1 6.2C1661.5 6.2 1663.8 7.6 1664.8 9.8M1454.3 17.6L1463.9 8C1465 6.9 1466.6 6.3 1468.2 6.3C1470.6 6.3 1472.9 7.69999 1473.9 9.89999M1607.1 17.5L1616.7 7.89999C1617.8 6.79999 1619.4 6.2 1621 6.2C1623.4 6.2 1625.7 7.6 1626.7 9.8M1683.4 17.5L1693 7.89999C1694.1 6.79999 1695.7 6.2 1697.3 6.2C1699.7 6.2 1702 7.6 1703 9.8M1473.4 17.6L1483 7.89999M1626.1 17.5L1635.7 7.8M1559.4 7.89999L1549.8 17.6C1548.4 19 1546.5 19.8 1544.6 19.8C1542 19.8 1539.5 18.3 1538.3 16M1702.5 17.5L1712.1 7.8M1435.2 17.6L1444.9 7.89999M1587.9 17.6L1597.6 7.89999C1598.7 6.79999 1600.3 6.2 1601.9 6.2C1604.3 6.2 1606.6 7.6 1607.6 9.8M1664.3 17.5L1673.9 7.89999C1675 6.79999 1676.6 6.2 1678.2 6.2C1680.6 6.2 1682.9 7.6 1683.9 9.8M1491.8 17L1501.4 7.39999C1502.8 6.09999 1504.6 5.3 1506.5 5.3C1509.1 5.3 1511.6 6.80001 1512.8 9.10001M1644.5 17L1654.1 7.39999C1655.5 6.09999 1657.3 5.3 1659.2 5.3C1661.8 5.3 1664.3 6.80001 1665.5 9.10001M1568.1 17L1577.7 7.39999C1579.1 6.09999 1580.9 5.3 1582.8 5.3C1585.4 5.3 1587.9 6.80001 1589.1 9.10001M1453.6 17L1463.2 7.39999C1464.6 6.09999 1466.4 5.3 1468.3 5.3C1470.9 5.3 1473.4 6.80001 1474.6 9.10001M1606.3 17L1615.9 7.39999C1617.3 6.09999 1619.1 5.3 1621 5.3C1623.6 5.3 1626.1 6.80001 1627.3 9.10001M1529.9 17L1539.5 7.39999C1540.9 6.09999 1542.7 5.3 1544.6 5.3C1547.2 5.3 1549.7 6.80001 1550.9 9.10001M1682.7 17L1692.3 7.39999C1693.7 6.09999 1695.5 5.3 1697.4 5.3C1700 5.3 1702.5 6.80001 1703.7 9.10001M1472.7 17L1482.3 7.39999C1483.7 6.09999 1485.5 5.3 1487.4 5.3C1490 5.3 1492.5 6.80001 1493.7 9.10001M1625.4 17L1635 7.39999C1636.4 6.09999 1638.2 5.3 1640.1 5.3C1642.7 5.3 1645.2 6.80001 1646.4 9.10001M1549 17L1558.6 7.39999C1560 6.09999 1561.8 5.3 1563.7 5.3C1566.3 5.3 1568.8 6.80001 1570 9.10001M1701.8 17L1711.4 7.39999M1434.5 17L1444.1 7.39999C1445.5 6.09999 1447.3 5.3 1449.2 5.3C1451.8 5.3 1454.3 6.80001 1455.5 9.10001M1587.2 17L1596.9 7.39999M1510.9 17L1520.5 7.39999C1521.9 6.09999 1523.7 5.3 1525.6 5.3C1528.2 5.3 1530.7 6.80001 1531.9 9.10001M1663.6 17L1673.2 7.39999C1674.6 6.09999 1676.4 5.3 1678.3 5.3C1680.9 5.3 1683.4 6.80001 1684.6 9.10001M1488.7 14.1L1498.6 4.3M1641.5 14.1L1651.4 4.3M1565.1 14.1L1575 4.3M1450.6 14.1L1460.5 4.3M1603.3 14.1L1613.2 4.3M1526.9 14.1L1536.8 4.3M1679.6 14.1L1689.5 4.3M1469.7 14.1L1479.5 4.3M1622.5 14L1632.3 4.2M1546.1 14.1L1555.9 4.3M1698.8 14L1708.6 4.2M1431.6 14.1L1441.4 4.3M1584.3 14L1594.1 4.2M1507.9 14.1L1517.7 4.3M1660.6 14L1670.4 4.2M1430.1 14.6C1431.3 14.6 1432.2 13.7 1432.2 12.5C1432.2 11.3 1431.3 10.4 1430.1 10.4M1716.4 10.4C1715.2 10.4 1714.3 11.3 1714.3 12.5C1714.3 13.7 1715.2 14.6 1716.4 14.6M1435.8 9.89999C1434.8 7.69999 1432.5 6.3 1430.1 6.3M1588.5 9.89999C1587.5 7.69999 1585.2 6.3 1582.8 6.3C1581.2 6.3 1579.6 6.9 1578.5 8L1568.9 17.6C1567.5 19 1565.6 19.8 1563.7 19.8C1561.1 19.8 1558.6 18.3 1557.4 16M1550.3 9.89999C1549.3 7.69999 1547 6.3 1544.6 6.3C1543 6.3 1541.4 6.9 1540.3 8L1530.7 17.6C1529.3 19 1527.4 19.8 1525.5 19.8C1522.9 19.8 1520.4 18.3 1519.2 16M1493 9.89999C1492 7.69999 1489.7 6.3 1487.3 6.3C1485.7 6.3 1484.1 6.9 1483 8M1645.8 9.8C1644.8 7.6 1642.5 6.2 1640.1 6.2C1638.5 6.2 1636.9 6.79999 1635.8 7.89999M1569.4 9.89999C1568.4 7.69999 1566.1 6.3 1563.7 6.3C1562.1 6.3 1560.5 6.9 1559.4 8M1716.4 6.2C1714.8 6.2 1713.2 6.79999 1712.1 7.89999M1454.9 9.89999C1453.9 7.69999 1451.6 6.3 1449.2 6.3C1447.6 6.3 1446 6.9 1444.9 8M1531.2 9.89999C1530.2 7.69999 1527.9 6.3 1525.5 6.3C1523.9 6.3 1522.3 6.9 1521.2 8L1511.6 17.6C1510.2 19 1508.3 19.8 1506.4 19.8C1503.8 19.8 1501.3 18.3 1500.1 16M1430.1 18.8C1431.8 18.8 1433.4 18.1 1434.6 16.9M1500.7 15.3C1501.7 17.4 1504 18.8 1506.4 18.8C1508.1 18.8 1509.7 18.1 1510.9 16.9M1653.5 15.3C1654.5 17.4 1656.8 18.8 1659.2 18.8C1660.9 18.8 1662.5 18.1 1663.7 16.9M1577.1 15.3C1578.1 17.4 1580.4 18.8 1582.8 18.8C1584.5 18.8 1586.1 18.1 1587.3 16.9M1462.6 15.3C1463.6 17.4 1465.9 18.8 1468.3 18.8C1470 18.8 1471.6 18.1 1472.8 16.9M1615.3 15.3C1616.3 17.4 1618.6 18.8 1621 18.8C1622.7 18.8 1624.3 18.1 1625.5 16.9M1538.9 15.3C1539.9 17.4 1542.2 18.8 1544.6 18.8C1546.3 18.8 1547.9 18.1 1549.1 16.9M1691.6 15.3C1692.6 17.4 1694.9 18.8 1697.3 18.8C1699 18.8 1700.6 18.1 1701.8 16.9M1481.7 15.3C1482.7 17.4 1485 18.8 1487.4 18.8C1489.1 18.8 1490.7 18.1 1491.9 16.9M1634.4 15.3C1635.4 17.4 1637.7 18.8 1640.1 18.8C1641.8 18.8 1643.4 18.1 1644.6 16.9M1558 15.3C1559 17.4 1561.3 18.8 1563.7 18.8C1565.4 18.8 1567 18.1 1568.2 16.9M1710.7 15.3C1711.7 17.4 1714 18.8 1716.4 18.8M1443.5 15.3C1444.5 17.4 1446.8 18.8 1449.2 18.8C1450.9 18.8 1452.5 18.1 1453.7 16.9M1596.2 15.3C1597.2 17.4 1599.5 18.8 1601.9 18.8C1603.6 18.8 1605.2 18.1 1606.4 16.9M1519.8 15.3C1520.8 17.4 1523.1 18.8 1525.5 18.8C1527.2 18.8 1528.8 18.1 1530 16.9M1672.6 15.3C1673.6 17.4 1675.9 18.8 1678.3 18.8C1680 18.8 1681.6 18.1 1682.8 16.9M1436.4 9.10001C1435.2 6.80001 1432.7 5.3 1430.1 5.3M1716.4 5.39999C1714.5 5.39999 1712.7 6.1 1711.3 7.5M1608.2 9.10001C1607 6.80001 1604.5 5.3 1601.9 5.3C1600 5.3 1598.2 6.09999 1596.8 7.39999M1430.1 19.7C1432 19.7 1433.9 18.9 1435.3 17.5M1652.9 16C1654.1 18.3 1656.6 19.8 1659.2 19.8C1661.1 19.8 1663 19 1664.4 17.6M1576.5 16C1577.7 18.3 1580.2 19.8 1582.8 19.8C1584.7 19.8 1586.6 19 1588 17.6M1462 16C1463.2 18.3 1465.7 19.8 1468.3 19.8C1470.2 19.8 1472.1 19 1473.5 17.6M1614.7 16C1615.9 18.3 1618.4 19.8 1621 19.8C1622.9 19.8 1624.8 19 1626.2 17.6M1691 16C1692.2 18.3 1694.7 19.8 1697.3 19.8C1699.2 19.8 1701.1 19 1702.5 17.6M1481.1 16C1482.3 18.3 1484.8 19.8 1487.4 19.8C1489.3 19.8 1491.2 19 1492.6 17.6M1633.8 16C1635 18.3 1637.5 19.8 1640.1 19.8C1642 19.8 1643.9 19 1645.3 17.6M1710.1 16C1711.3 18.3 1713.8 19.8 1716.4 19.8M1442.9 16C1444.1 18.3 1446.6 19.8 1449.2 19.8C1451.1 19.8 1453 19 1454.4 17.6M1595.6 16C1596.8 18.3 1599.3 19.8 1601.9 19.8C1603.8 19.8 1605.7 19 1607.1 17.6M1672 16C1673.2 18.3 1675.7 19.8 1678.3 19.8C1680.2 19.8 1682.1 19 1683.5 17.6M1649.8 19C1651.9 22 1655.5 23.9 1659.1 23.9C1662 23.9 1664.8 22.7 1666.9 20.8M1573.4 19.1C1575.5 22.1 1579.1 24 1582.7 24C1585.6 24 1588.4 22.8 1590.5 20.9M1611.7 19C1613.8 22 1617.4 23.9 1621 23.9C1623.9 23.9 1626.7 22.7 1628.8 20.8M1688 19C1690.1 22 1693.7 23.9 1697.3 23.9C1700.2 23.9 1703 22.7 1705.1 20.8M1630.7 19C1632.8 22 1636.4 23.9 1640 23.9C1642.9 23.9 1645.7 22.7 1647.8 20.8M1707.1 19C1709.2 22 1712.8 23.9 1716.4 23.9M1439.8 19.1C1441.9 22.1 1445.5 24 1449.1 24C1452 24 1454.8 22.8 1456.9 20.9M1592.6 19C1594.7 22 1598.3 23.9 1601.9 23.9C1604.8 23.9 1607.6 22.7 1609.7 20.8M1668.9 19C1671 22 1674.6 23.9 1678.2 23.9C1681.1 23.9 1683.9 22.7 1686 20.8M1439.5 6.10001C1437.4 3.00001 1433.8 1.2 1430.1 1.2M1515.8 6.10001C1513.7 3.00001 1510.1 1.2 1506.4 1.2C1503.5 1.2 1500.6 2.39999 1498.5 4.39999M1668.6 6C1666.5 2.9 1662.9 1.10001 1659.2 1.10001C1656.3 1.10001 1653.4 2.3 1651.3 4.3M1592.2 6.10001C1590.1 3.00001 1586.5 1.2 1582.8 1.2C1579.9 1.2 1577 2.39999 1574.9 4.39999M1477.7 6.10001C1475.6 3.00001 1472 1.2 1468.3 1.2C1465.4 1.2 1462.5 2.39999 1460.4 4.39999M1630.4 6C1628.3 2.9 1624.7 1.10001 1621 1.10001C1618.1 1.10001 1615.2 2.3 1613.1 4.3M1554 6.10001C1551.9 3.00001 1548.3 1.2 1544.6 1.2C1541.7 1.2 1538.8 2.39999 1536.7 4.39999M1706.7 6C1704.6 2.9 1701 1.10001 1697.3 1.10001C1694.4 1.10001 1691.5 2.3 1689.4 4.3M1496.8 6.10001C1494.7 3.00001 1491.1 1.2 1487.4 1.2C1484.5 1.2 1481.6 2.39999 1479.5 4.39999M1649.5 6C1647.4 2.9 1643.8 1.10001 1640.1 1.10001C1637.2 1.10001 1634.3 2.3 1632.2 4.3M1573.1 6.10001C1571 3.00001 1567.4 1.2 1563.7 1.2C1560.8 1.2 1557.9 2.39999 1555.8 4.39999M1716.4 1.2C1713.5 1.2 1710.6 2.4 1708.5 4.3M1458.6 6.10001C1456.5 3.00001 1452.9 1.2 1449.2 1.2C1446.3 1.2 1443.4 2.39999 1441.3 4.39999M1611.3 6C1609.2 2.9 1605.6 1.10001 1601.9 1.10001C1599 1.10001 1596.1 2.3 1594 4.3M1534.9 6.10001C1532.8 3.00001 1529.2 1.2 1525.5 1.2C1522.6 1.2 1519.7 2.39999 1517.6 4.39999M1687.7 6C1685.6 2.9 1682 1.10001 1678.3 1.10001C1675.4 1.10001 1672.5 2.3 1670.4 4.3M1430 24H1716.4M1430 1H1716.4M1506.4 14.6C1507.6 14.6 1508.5 13.7 1508.5 12.5C1508.5 11.3 1507.6 10.4 1506.4 10.4C1505.2 10.4 1504.3 11.3 1504.3 12.5C1504.3 13.7 1505.3 14.6 1506.4 14.6ZM1659.2 14.6C1660.4 14.6 1661.3 13.7 1661.3 12.5C1661.3 11.3 1660.4 10.4 1659.2 10.4C1658 10.4 1657.1 11.3 1657.1 12.5C1657.1 13.7 1658 14.6 1659.2 14.6ZM1582.8 14.6C1584 14.6 1584.9 13.7 1584.9 12.5C1584.9 11.3 1584 10.4 1582.8 10.4C1581.6 10.4 1580.7 11.3 1580.7 12.5C1580.7 13.7 1581.6 14.6 1582.8 14.6ZM1468.3 14.6C1469.5 14.6 1470.4 13.7 1470.4 12.5C1470.4 11.3 1469.5 10.4 1468.3 10.4C1467.1 10.4 1466.2 11.3 1466.2 12.5C1466.2 13.7 1467.1 14.6 1468.3 14.6ZM1621 14.6C1622.2 14.6 1623.1 13.7 1623.1 12.5C1623.1 11.3 1622.2 10.4 1621 10.4C1619.8 10.4 1618.9 11.3 1618.9 12.5C1618.9 13.7 1619.8 14.6 1621 14.6ZM1544.6 14.6C1545.8 14.6 1546.7 13.7 1546.7 12.5C1546.7 11.3 1545.8 10.4 1544.6 10.4C1543.4 10.4 1542.5 11.3 1542.5 12.5C1542.5 13.7 1543.5 14.6 1544.6 14.6ZM1697.3 14.6C1698.5 14.6 1699.4 13.7 1699.4 12.5C1699.4 11.3 1698.5 10.4 1697.3 10.4C1696.1 10.4 1695.2 11.3 1695.2 12.5C1695.2 13.7 1696.2 14.6 1697.3 14.6ZM1487.4 14.6C1488.6 14.6 1489.5 13.7 1489.5 12.5C1489.5 11.3 1488.6 10.4 1487.4 10.4C1486.2 10.4 1485.3 11.3 1485.3 12.5C1485.3 13.7 1486.2 14.6 1487.4 14.6ZM1640.1 14.6C1641.3 14.6 1642.2 13.7 1642.2 12.5C1642.2 11.3 1641.3 10.4 1640.1 10.4C1638.9 10.4 1638 11.3 1638 12.5C1638 13.7 1638.9 14.6 1640.1 14.6ZM1563.7 14.6C1564.9 14.6 1565.8 13.7 1565.8 12.5C1565.8 11.3 1564.9 10.4 1563.7 10.4C1562.5 10.4 1561.6 11.3 1561.6 12.5C1561.6 13.7 1562.6 14.6 1563.7 14.6ZM1449.2 14.6C1450.4 14.6 1451.3 13.7 1451.3 12.5C1451.3 11.3 1450.4 10.4 1449.2 10.4C1448 10.4 1447.1 11.3 1447.1 12.5C1447.1 13.7 1448 14.6 1449.2 14.6ZM1601.9 14.6C1603.1 14.6 1604 13.7 1604 12.5C1604 11.3 1603.1 10.4 1601.9 10.4C1600.7 10.4 1599.8 11.3 1599.8 12.5C1599.8 13.7 1600.8 14.6 1601.9 14.6ZM1525.5 14.6C1526.7 14.6 1527.6 13.7 1527.6 12.5C1527.6 11.3 1526.7 10.4 1525.5 10.4C1524.3 10.4 1523.4 11.3 1523.4 12.5C1523.4 13.7 1524.4 14.6 1525.5 14.6ZM1678.3 14.6C1679.5 14.6 1680.4 13.7 1680.4 12.5C1680.4 11.3 1679.5 10.4 1678.3 10.4C1677.1 10.4 1676.2 11.3 1676.2 12.5C1676.2 13.7 1677.1 14.6 1678.3 14.6Z" stroke="#151C26" stroke-opacity="0.17" stroke-width="1.57" stroke-miterlimit="22.926"/>
<path d="M1789.9 11.1L1780.1 20.9C1778 22.8 1775.2 24 1772.3 24C1768.7 24 1765.1 22.1 1763 19.1M1932.9 20.9L1942.7 11.1M1866.3 11.1L1856.5 20.9C1854.4 22.8 1851.6 24 1848.7 24C1845.1 24 1841.5 22.1 1839.4 19.1M1742 20.9L1751.8 11.1M1894.7 20.9L1904.5 11.1M1828.1 11.1L1818.3 20.9C1816.2 22.8 1813.4 24 1810.5 24C1806.9 24 1803.3 22.1 1801.2 19.1M1971.1 20.9L1980.9 11.1M1770.8 11.1L1761 20.9C1758.9 22.8 1756.1 24 1753.2 24C1749.6 24 1746 22.1 1743.9 19.1M1913.8 20.9L1923.6 11.1M1847.2 11.1L1837.4 20.9C1835.3 22.8 1832.5 24 1829.6 24C1826 24 1822.4 22.1 1820.3 19.1M1990.1 20.9L1999.9 11.1M1732.7 11.1L1722.9 20.9C1720.8 22.8 1718 24 1715.1 24M1875.6 20.9L1885.4 11.1M1809 11.1L1799.2 20.9C1797.1 22.8 1794.3 24 1791.4 24C1787.8 24 1784.2 22.1 1782.1 19.1M1951.9 20.9L1961.7 11.1M1777.5 17.6L1787.1 8C1788.2 6.9 1789.8 6.3 1791.4 6.3C1793.8 6.3 1796.1 7.69999 1797.1 9.89999M1930.2 17.5L1939.8 7.89999C1940.9 6.79999 1942.5 6.2 1944.1 6.2C1946.5 6.2 1948.8 7.6 1949.8 9.8M1739.3 17.6L1748.9 8C1750 6.9 1751.6 6.3 1753.2 6.3C1755.6 6.3 1757.9 7.69999 1758.9 9.89999M1892.1 17.5L1901.7 7.89999C1902.8 6.79999 1904.4 6.2 1906 6.2C1908.4 6.2 1910.7 7.6 1911.7 9.8M1968.4 17.5L1978 7.89999C1979.1 6.79999 1980.7 6.2 1982.3 6.2C1984.7 6.2 1987 7.6 1988 9.8M1758.4 17.6L1768 7.89999M1911.1 17.5L1920.7 7.8M1844.4 7.89999L1834.8 17.6C1833.4 19 1831.5 19.8 1829.6 19.8C1827 19.8 1824.5 18.3 1823.3 16M1987.5 17.5L1997.1 7.8M1720.2 17.6L1729.9 7.89999M1872.9 17.6L1882.6 7.89999C1883.7 6.79999 1885.3 6.2 1886.9 6.2C1889.3 6.2 1891.6 7.6 1892.6 9.8M1949.3 17.5L1958.9 7.89999C1960 6.79999 1961.6 6.2 1963.2 6.2C1965.6 6.2 1967.9 7.6 1968.9 9.8M1776.8 17L1786.4 7.39999C1787.8 6.09999 1789.6 5.3 1791.5 5.3C1794.1 5.3 1796.6 6.80001 1797.8 9.10001M1929.5 17L1939.1 7.39999C1940.5 6.09999 1942.3 5.3 1944.2 5.3C1946.8 5.3 1949.3 6.80001 1950.5 9.10001M1853.1 17L1862.7 7.39999C1864.1 6.09999 1865.9 5.3 1867.8 5.3C1870.4 5.3 1872.9 6.80001 1874.1 9.10001M1738.6 17L1748.2 7.39999C1749.6 6.09999 1751.4 5.3 1753.3 5.3C1755.9 5.3 1758.4 6.80001 1759.6 9.10001M1891.3 17L1900.9 7.39999C1902.3 6.09999 1904.1 5.3 1906 5.3C1908.6 5.3 1911.1 6.80001 1912.3 9.10001M1814.9 17L1824.5 7.39999C1825.9 6.09999 1827.7 5.3 1829.6 5.3C1832.2 5.3 1834.7 6.80001 1835.9 9.10001M1967.7 17L1977.3 7.39999C1978.7 6.09999 1980.5 5.3 1982.4 5.3C1985 5.3 1987.5 6.80001 1988.7 9.10001M1757.7 17L1767.3 7.39999C1768.7 6.09999 1770.5 5.3 1772.4 5.3C1775 5.3 1777.5 6.80001 1778.7 9.10001M1910.4 17L1920 7.39999C1921.4 6.09999 1923.2 5.3 1925.1 5.3C1927.7 5.3 1930.2 6.80001 1931.4 9.10001M1834 17L1843.6 7.39999C1845 6.09999 1846.8 5.3 1848.7 5.3C1851.3 5.3 1853.8 6.80001 1855 9.10001M1986.8 17L1996.4 7.39999M1719.5 17L1729.1 7.39999C1730.5 6.09999 1732.3 5.3 1734.2 5.3C1736.8 5.3 1739.3 6.80001 1740.5 9.10001M1872.2 17L1881.9 7.39999M1795.9 17L1805.5 7.39999C1806.9 6.09999 1808.7 5.3 1810.6 5.3C1813.2 5.3 1815.7 6.80001 1816.9 9.10001M1948.6 17L1958.2 7.39999C1959.6 6.09999 1961.4 5.3 1963.3 5.3C1965.9 5.3 1968.4 6.80001 1969.6 9.10001M1773.7 14.1L1783.6 4.3M1926.5 14.1L1936.4 4.3M1850.1 14.1L1860 4.3M1735.6 14.1L1745.5 4.3M1888.3 14.1L1898.2 4.3M1811.9 14.1L1821.8 4.3M1964.6 14.1L1974.5 4.3M1754.7 14.1L1764.5 4.3M1907.5 14L1917.3 4.2M1831.1 14.1L1840.9 4.3M1983.8 14L1993.6 4.2M1716.6 14.1L1726.4 4.3M1869.3 14L1879.1 4.2M1792.9 14.1L1802.7 4.3M1945.6 14L1955.4 4.2M1715.1 14.6C1716.3 14.6 1717.2 13.7 1717.2 12.5C1717.2 11.3 1716.3 10.4 1715.1 10.4M2001.4 10.4C2000.2 10.4 1999.3 11.3 1999.3 12.5C1999.3 13.7 2000.2 14.6 2001.4 14.6M1720.8 9.89999C1719.8 7.69999 1717.5 6.3 1715.1 6.3M1873.5 9.89999C1872.5 7.69999 1870.2 6.3 1867.8 6.3C1866.2 6.3 1864.6 6.9 1863.5 8L1853.9 17.6C1852.5 19 1850.6 19.8 1848.7 19.8C1846.1 19.8 1843.6 18.3 1842.4 16M1835.3 9.89999C1834.3 7.69999 1832 6.3 1829.6 6.3C1828 6.3 1826.4 6.9 1825.3 8L1815.7 17.6C1814.3 19 1812.4 19.8 1810.5 19.8C1807.9 19.8 1805.4 18.3 1804.2 16M1778 9.89999C1777 7.69999 1774.7 6.3 1772.3 6.3C1770.7 6.3 1769.1 6.9 1768 8M1930.8 9.8C1929.8 7.6 1927.5 6.2 1925.1 6.2C1923.5 6.2 1921.9 6.79999 1920.8 7.89999M1854.4 9.89999C1853.4 7.69999 1851.1 6.3 1848.7 6.3C1847.1 6.3 1845.5 6.9 1844.4 8M2001.4 6.2C1999.8 6.2 1998.2 6.79999 1997.1 7.89999M1739.9 9.89999C1738.9 7.69999 1736.6 6.3 1734.2 6.3C1732.6 6.3 1731 6.9 1729.9 8M1816.2 9.89999C1815.2 7.69999 1812.9 6.3 1810.5 6.3C1808.9 6.3 1807.3 6.9 1806.2 8L1796.6 17.6C1795.2 19 1793.3 19.8 1791.4 19.8C1788.8 19.8 1786.3 18.3 1785.1 16M1715.1 18.8C1716.8 18.8 1718.4 18.1 1719.6 16.9M1785.7 15.3C1786.7 17.4 1789 18.8 1791.4 18.8C1793.1 18.8 1794.7 18.1 1795.9 16.9M1938.5 15.3C1939.5 17.4 1941.8 18.8 1944.2 18.8C1945.9 18.8 1947.5 18.1 1948.7 16.9M1862.1 15.3C1863.1 17.4 1865.4 18.8 1867.8 18.8C1869.5 18.8 1871.1 18.1 1872.3 16.9M1747.6 15.3C1748.6 17.4 1750.9 18.8 1753.3 18.8C1755 18.8 1756.6 18.1 1757.8 16.9M1900.3 15.3C1901.3 17.4 1903.6 18.8 1906 18.8C1907.7 18.8 1909.3 18.1 1910.5 16.9M1823.9 15.3C1824.9 17.4 1827.2 18.8 1829.6 18.8C1831.3 18.8 1832.9 18.1 1834.1 16.9M1976.6 15.3C1977.6 17.4 1979.9 18.8 1982.3 18.8C1984 18.8 1985.6 18.1 1986.8 16.9M1766.7 15.3C1767.7 17.4 1770 18.8 1772.4 18.8C1774.1 18.8 1775.7 18.1 1776.9 16.9M1919.4 15.3C1920.4 17.4 1922.7 18.8 1925.1 18.8C1926.8 18.8 1928.4 18.1 1929.6 16.9M1843 15.3C1844 17.4 1846.3 18.8 1848.7 18.8C1850.4 18.8 1852 18.1 1853.2 16.9M1995.7 15.3C1996.7 17.4 1999 18.8 2001.4 18.8M1728.5 15.3C1729.5 17.4 1731.8 18.8 1734.2 18.8C1735.9 18.8 1737.5 18.1 1738.7 16.9M1881.2 15.3C1882.2 17.4 1884.5 18.8 1886.9 18.8C1888.6 18.8 1890.2 18.1 1891.4 16.9M1804.8 15.3C1805.8 17.4 1808.1 18.8 1810.5 18.8C1812.2 18.8 1813.8 18.1 1815 16.9M1957.6 15.3C1958.6 17.4 1960.9 18.8 1963.3 18.8C1965 18.8 1966.6 18.1 1967.8 16.9M1721.4 9.10001C1720.2 6.80001 1717.7 5.3 1715.1 5.3M2001.4 5.39999C1999.5 5.39999 1997.7 6.1 1996.3 7.5M1893.2 9.10001C1892 6.80001 1889.5 5.3 1886.9 5.3C1885 5.3 1883.2 6.09999 1881.8 7.39999M1715.1 19.7C1717 19.7 1718.9 18.9 1720.3 17.5M1937.9 16C1939.1 18.3 1941.6 19.8 1944.2 19.8C1946.1 19.8 1948 19 1949.4 17.6M1861.5 16C1862.7 18.3 1865.2 19.8 1867.8 19.8C1869.7 19.8 1871.6 19 1873 17.6M1747 16C1748.2 18.3 1750.7 19.8 1753.3 19.8C1755.2 19.8 1757.1 19 1758.5 17.6M1899.7 16C1900.9 18.3 1903.4 19.8 1906 19.8C1907.9 19.8 1909.8 19 1911.2 17.6M1976 16C1977.2 18.3 1979.7 19.8 1982.3 19.8C1984.2 19.8 1986.1 19 1987.5 17.6M1766.1 16C1767.3 18.3 1769.8 19.8 1772.4 19.8C1774.3 19.8 1776.2 19 1777.6 17.6M1918.8 16C1920 18.3 1922.5 19.8 1925.1 19.8C1927 19.8 1928.9 19 1930.3 17.6M1995.1 16C1996.3 18.3 1998.8 19.8 2001.4 19.8M1727.9 16C1729.1 18.3 1731.6 19.8 1734.2 19.8C1736.1 19.8 1738 19 1739.4 17.6M1880.6 16C1881.8 18.3 1884.3 19.8 1886.9 19.8C1888.8 19.8 1890.7 19 1892.1 17.6M1957 16C1958.2 18.3 1960.7 19.8 1963.3 19.8C1965.2 19.8 1967.1 19 1968.5 17.6M1934.8 19C1936.9 22 1940.5 23.9 1944.1 23.9C1947 23.9 1949.8 22.7 1951.9 20.8M1858.4 19.1C1860.5 22.1 1864.1 24 1867.7 24C1870.6 24 1873.4 22.8 1875.5 20.9M1896.7 19C1898.8 22 1902.4 23.9 1906 23.9C1908.9 23.9 1911.7 22.7 1913.8 20.8M1973 19C1975.1 22 1978.7 23.9 1982.3 23.9C1985.2 23.9 1988 22.7 1990.1 20.8M1915.7 19C1917.8 22 1921.4 23.9 1925 23.9C1927.9 23.9 1930.7 22.7 1932.8 20.8M1992.1 19C1994.2 22 1997.8 23.9 2001.4 23.9M1724.8 19.1C1726.9 22.1 1730.5 24 1734.1 24C1737 24 1739.8 22.8 1741.9 20.9M1877.6 19C1879.7 22 1883.3 23.9 1886.9 23.9C1889.8 23.9 1892.6 22.7 1894.7 20.8M1953.9 19C1956 22 1959.6 23.9 1963.2 23.9C1966.1 23.9 1968.9 22.7 1971 20.8M1724.5 6.10001C1722.4 3.00001 1718.8 1.2 1715.1 1.2M1800.8 6.10001C1798.7 3.00001 1795.1 1.2 1791.4 1.2C1788.5 1.2 1785.6 2.39999 1783.5 4.39999M1953.6 6C1951.5 2.9 1947.9 1.10001 1944.2 1.10001C1941.3 1.10001 1938.4 2.3 1936.3 4.3M1877.2 6.10001C1875.1 3.00001 1871.5 1.2 1867.8 1.2C1864.9 1.2 1862 2.39999 1859.9 4.39999M1762.7 6.10001C1760.6 3.00001 1757 1.2 1753.3 1.2C1750.4 1.2 1747.5 2.39999 1745.4 4.39999M1915.4 6C1913.3 2.9 1909.7 1.10001 1906 1.10001C1903.1 1.10001 1900.2 2.3 1898.1 4.3M1839 6.10001C1836.9 3.00001 1833.3 1.2 1829.6 1.2C1826.7 1.2 1823.8 2.39999 1821.7 4.39999M1991.7 6C1989.6 2.9 1986 1.10001 1982.3 1.10001C1979.4 1.10001 1976.5 2.3 1974.4 4.3M1781.8 6.10001C1779.7 3.00001 1776.1 1.2 1772.4 1.2C1769.5 1.2 1766.6 2.39999 1764.5 4.39999M1934.5 6C1932.4 2.9 1928.8 1.10001 1925.1 1.10001C1922.2 1.10001 1919.3 2.3 1917.2 4.3M1858.1 6.10001C1856 3.00001 1852.4 1.2 1848.7 1.2C1845.8 1.2 1842.9 2.39999 1840.8 4.39999M2001.4 1.2C1998.5 1.2 1995.6 2.4 1993.5 4.3M1743.6 6.10001C1741.5 3.00001 1737.9 1.2 1734.2 1.2C1731.3 1.2 1728.4 2.39999 1726.3 4.39999M1896.3 6C1894.2 2.9 1890.6 1.10001 1886.9 1.10001C1884 1.10001 1881.1 2.3 1879 4.3M1819.9 6.10001C1817.8 3.00001 1814.2 1.2 1810.5 1.2C1807.6 1.2 1804.7 2.39999 1802.6 4.39999M1972.7 6C1970.6 2.9 1967 1.10001 1963.3 1.10001C1960.4 1.10001 1957.5 2.3 1955.4 4.3M1715 24H2001.4M1715 1H2001.4M1791.4 14.6C1792.6 14.6 1793.5 13.7 1793.5 12.5C1793.5 11.3 1792.6 10.4 1791.4 10.4C1790.2 10.4 1789.3 11.3 1789.3 12.5C1789.3 13.7 1790.3 14.6 1791.4 14.6ZM1944.2 14.6C1945.4 14.6 1946.3 13.7 1946.3 12.5C1946.3 11.3 1945.4 10.4 1944.2 10.4C1943 10.4 1942.1 11.3 1942.1 12.5C1942.1 13.7 1943 14.6 1944.2 14.6ZM1867.8 14.6C1869 14.6 1869.9 13.7 1869.9 12.5C1869.9 11.3 1869 10.4 1867.8 10.4C1866.6 10.4 1865.7 11.3 1865.7 12.5C1865.7 13.7 1866.6 14.6 1867.8 14.6ZM1753.3 14.6C1754.5 14.6 1755.4 13.7 1755.4 12.5C1755.4 11.3 1754.5 10.4 1753.3 10.4C1752.1 10.4 1751.2 11.3 1751.2 12.5C1751.2 13.7 1752.1 14.6 1753.3 14.6ZM1906 14.6C1907.2 14.6 1908.1 13.7 1908.1 12.5C1908.1 11.3 1907.2 10.4 1906 10.4C1904.8 10.4 1903.9 11.3 1903.9 12.5C1903.9 13.7 1904.8 14.6 1906 14.6ZM1829.6 14.6C1830.8 14.6 1831.7 13.7 1831.7 12.5C1831.7 11.3 1830.8 10.4 1829.6 10.4C1828.4 10.4 1827.5 11.3 1827.5 12.5C1827.5 13.7 1828.5 14.6 1829.6 14.6ZM1982.3 14.6C1983.5 14.6 1984.4 13.7 1984.4 12.5C1984.4 11.3 1983.5 10.4 1982.3 10.4C1981.1 10.4 1980.2 11.3 1980.2 12.5C1980.2 13.7 1981.2 14.6 1982.3 14.6ZM1772.4 14.6C1773.6 14.6 1774.5 13.7 1774.5 12.5C1774.5 11.3 1773.6 10.4 1772.4 10.4C1771.2 10.4 1770.3 11.3 1770.3 12.5C1770.3 13.7 1771.2 14.6 1772.4 14.6ZM1925.1 14.6C1926.3 14.6 1927.2 13.7 1927.2 12.5C1927.2 11.3 1926.3 10.4 1925.1 10.4C1923.9 10.4 1923 11.3 1923 12.5C1923 13.7 1923.9 14.6 1925.1 14.6ZM1848.7 14.6C1849.9 14.6 1850.8 13.7 1850.8 12.5C1850.8 11.3 1849.9 10.4 1848.7 10.4C1847.5 10.4 1846.6 11.3 1846.6 12.5C1846.6 13.7 1847.6 14.6 1848.7 14.6ZM1734.2 14.6C1735.4 14.6 1736.3 13.7 1736.3 12.5C1736.3 11.3 1735.4 10.4 1734.2 10.4C1733 10.4 1732.1 11.3 1732.1 12.5C1732.1 13.7 1733 14.6 1734.2 14.6ZM1886.9 14.6C1888.1 14.6 1889 13.7 1889 12.5C1889 11.3 1888.1 10.4 1886.9 10.4C1885.7 10.4 1884.8 11.3 1884.8 12.5C1884.8 13.7 1885.8 14.6 1886.9 14.6ZM1810.5 14.6C1811.7 14.6 1812.6 13.7 1812.6 12.5C1812.6 11.3 1811.7 10.4 1810.5 10.4C1809.3 10.4 1808.4 11.3 1808.4 12.5C1808.4 13.7 1809.4 14.6 1810.5 14.6ZM1963.3 14.6C1964.5 14.6 1965.4 13.7 1965.4 12.5C1965.4 11.3 1964.5 10.4 1963.3 10.4C1962.1 10.4 1961.2 11.3 1961.2 12.5C1961.2 13.7 1962.1 14.6 1963.3 14.6Z" stroke="#151C26" stroke-opacity="0.17" stroke-width="1.57" stroke-miterlimit="22.926"/>
</svg>
