<svg width="13" height="19" viewBox="0 0 13 19" fill="none" xmlns="http://www.w3.org/2000/svg">
<g id="Group">
<path id="Vector" d="M10.2149 0H2.74646C1.25277 0 0 1.20458 0 2.74645V15.756C0 17.2496 1.20459 18.5024 2.74646 18.5024H10.2149C11.7086 18.5024 12.9613 17.2496 12.9613 15.756V2.74645C12.9613 1.25277 11.7086 0 10.2149 0ZM2.74646 1.30095H10.2149C11.034 1.30095 11.7086 1.97552 11.7086 2.79464V13.2504H1.30096V2.79464C1.25277 1.92734 1.92734 1.30095 2.74646 1.30095ZM10.2149 17.2497H2.74646C1.92734 17.2497 1.25279 16.5751 1.25279 15.756V14.4068H11.6604V15.756C11.6604 16.6233 11.034 17.2497 10.2149 17.2497Z" fill="white"/>
<path id="Vector_2" d="M6.30832 3.08867C6.59742 3.08867 6.79015 2.84775 6.79015 2.60683C6.79015 2.31773 6.54923 2.125 6.30832 2.125C6.01922 2.125 5.82648 2.36592 5.82648 2.60683C5.7783 2.89593 6.01922 3.08867 6.30832 3.08867Z" fill="white"/>
<path id="Vector_3" d="M6.30996 15.2266C6.02086 15.2266 5.82812 15.4675 5.82812 15.7084C5.82812 15.9975 6.06904 16.1902 6.30996 16.1902C6.59906 16.1902 6.79179 15.9493 6.79179 15.7084C6.79179 15.4675 6.55088 15.2266 6.30996 15.2266Z" fill="white"/>
</g>
</svg>
