<svg width="885" height="25" viewBox="0 0 885 25" fill="none" xmlns="http://www.w3.org/2000/svg">
<path d="M-185.1 11.1L-194.9 20.9C-197 22.8 -199.8 24 -202.7 24C-206.3 24 -209.9 22.1 -212 19.1M-42.1 20.9L-32.3 11.1M-108.7 11.1L-118.5 20.9C-120.6 22.8 -123.4 24 -126.3 24C-129.9 24 -133.5 22.1 -135.6 19.1M-233 20.9L-223.2 11.1M-80.3 20.9L-70.5 11.1M-146.9 11.1L-156.7 20.9C-158.8 22.8 -161.6 24 -164.5 24C-168.1 24 -171.7 22.1 -173.8 19.1M-3.89999 20.9L5.90002 11.1M-204.2 11.1L-214 20.9C-216.1 22.8 -218.9 24 -221.8 24C-225.4 24 -229 22.1 -231.1 19.1M-61.2 20.9L-51.4 11.1M-127.8 11.1L-137.6 20.9C-139.7 22.8 -142.5 24 -145.4 24C-149 24 -152.6 22.1 -154.7 19.1M15.1 20.9L24.9 11.1M-242.3 11.1L-252.1 20.9C-254.2 22.8 -257 24 -259.9 24M-99.4 20.9L-89.6 11.1M-166 11.1L-175.8 20.9C-177.9 22.8 -180.7 24 -183.6 24C-187.2 24 -190.8 22.1 -192.9 19.1M-23.1 20.9L-13.3 11.1M-197.5 17.6L-187.9 8C-186.8 6.9 -185.2 6.3 -183.6 6.3C-181.2 6.3 -178.9 7.69999 -177.9 9.89999M-44.8 17.5L-35.2 7.89999C-34.1 6.79999 -32.5 6.2 -30.9 6.2C-28.5 6.2 -26.2 7.6 -25.2 9.8M-235.7 17.6L-226.1 8C-225 6.9 -223.4 6.3 -221.8 6.3C-219.4 6.3 -217.1 7.69999 -216.1 9.89999M-82.9 17.5L-73.3 7.89999C-72.2 6.79999 -70.6 6.2 -69 6.2C-66.6 6.2 -64.3 7.6 -63.3 9.8M-6.60001 17.5L3 7.89999C4.1 6.79999 5.70002 6.2 7.30002 6.2C9.70002 6.2 12 7.6 13 9.8M-216.6 17.6L-207 7.89999M-63.9 17.5L-54.3 7.8M-130.6 7.89999L-140.2 17.6C-141.6 19 -143.5 19.8 -145.4 19.8C-148 19.8 -150.5 18.3 -151.7 16M12.5 17.5L22.1 7.8M-254.8 17.6L-245.1 7.89999M-102.1 17.6L-92.4 7.89999C-91.3 6.79999 -89.7 6.2 -88.1 6.2C-85.7 6.2 -83.4 7.6 -82.4 9.8M-25.7 17.5L-16.1 7.89999C-15 6.79999 -13.4 6.2 -11.8 6.2C-9.4 6.2 -7.10001 7.6 -6.10001 9.8M-198.2 17L-188.6 7.39999C-187.2 6.09999 -185.4 5.3 -183.5 5.3C-180.9 5.3 -178.4 6.80001 -177.2 9.10001M-45.5 17L-35.9 7.39999C-34.5 6.09999 -32.7 5.3 -30.8 5.3C-28.2 5.3 -25.7 6.80001 -24.5 9.10001M-121.9 17L-112.3 7.39999C-110.9 6.09999 -109.1 5.3 -107.2 5.3C-104.6 5.3 -102.1 6.80001 -100.9 9.10001M-236.4 17L-226.8 7.39999C-225.4 6.09999 -223.6 5.3 -221.7 5.3C-219.1 5.3 -216.6 6.80001 -215.4 9.10001M-83.7 17L-74.1 7.39999C-72.7 6.09999 -70.9 5.3 -69 5.3C-66.4 5.3 -63.9 6.80001 -62.7 9.10001M-160.1 17L-150.5 7.39999C-149.1 6.09999 -147.3 5.3 -145.4 5.3C-142.8 5.3 -140.3 6.80001 -139.1 9.10001M-7.3 17L2.30002 7.39999C3.70002 6.09999 5.50002 5.3 7.40002 5.3C10 5.3 12.5 6.80001 13.7 9.10001M-217.3 17L-207.7 7.39999C-206.3 6.09999 -204.5 5.3 -202.6 5.3C-200 5.3 -197.5 6.80001 -196.3 9.10001M-64.6 17L-55 7.39999C-53.6 6.09999 -51.8 5.3 -49.9 5.3C-47.3 5.3 -44.8 6.80001 -43.6 9.10001M-141 17L-131.4 7.39999C-130 6.09999 -128.2 5.3 -126.3 5.3C-123.7 5.3 -121.2 6.80001 -120 9.10001M11.8 17L21.4 7.39999M-255.5 17L-245.9 7.39999C-244.5 6.09999 -242.7 5.3 -240.8 5.3C-238.2 5.3 -235.7 6.80001 -234.5 9.10001M-102.8 17L-93.1 7.39999M-179.1 17L-169.5 7.39999C-168.1 6.09999 -166.3 5.3 -164.4 5.3C-161.8 5.3 -159.3 6.80001 -158.1 9.10001M-26.4 17L-16.8 7.39999C-15.4 6.09999 -13.6 5.3 -11.7 5.3C-9.1 5.3 -6.60001 6.80001 -5.40001 9.10001M-201.3 14.1L-191.4 4.3M-48.5 14.1L-38.6 4.3M-124.9 14.1L-115 4.3M-239.4 14.1L-229.5 4.3M-86.7 14.1L-76.8 4.3M-163.1 14.1L-153.2 4.3M-10.4 14.1L-0.5 4.3M-220.3 14.1L-210.5 4.3M-67.5 14L-57.7 4.2M-143.9 14.1L-134.1 4.3M8.80002 14L18.6 4.2M-258.4 14.1L-248.6 4.3M-105.7 14L-95.9 4.2M-182.1 14.1L-172.3 4.3M-29.4 14L-19.6 4.2M-259.9 14.6C-258.7 14.6 -257.8 13.7 -257.8 12.5C-257.8 11.3 -258.7 10.4 -259.9 10.4M26.4 10.4C25.2 10.4 24.3 11.3 24.3 12.5C24.3 13.7 25.2 14.6 26.4 14.6M-254.2 9.89999C-255.2 7.69999 -257.5 6.3 -259.9 6.3M-101.5 9.89999C-102.5 7.69999 -104.8 6.3 -107.2 6.3C-108.8 6.3 -110.4 6.9 -111.5 8L-121.1 17.6C-122.5 19 -124.4 19.8 -126.3 19.8C-128.9 19.8 -131.4 18.3 -132.6 16M-139.7 9.89999C-140.7 7.69999 -143 6.3 -145.4 6.3C-147 6.3 -148.6 6.9 -149.7 8L-159.3 17.6C-160.7 19 -162.6 19.8 -164.5 19.8C-167.1 19.8 -169.6 18.3 -170.8 16M-197 9.89999C-198 7.69999 -200.3 6.3 -202.7 6.3C-204.3 6.3 -205.9 6.9 -207 8M-44.2 9.8C-45.2 7.6 -47.5 6.2 -49.9 6.2C-51.5 6.2 -53.1 6.79999 -54.2 7.89999M-120.6 9.89999C-121.6 7.69999 -123.9 6.3 -126.3 6.3C-127.9 6.3 -129.5 6.9 -130.6 8M26.4 6.2C24.8 6.2 23.2 6.79999 22.1 7.89999M-235.1 9.89999C-236.1 7.69999 -238.4 6.3 -240.8 6.3C-242.4 6.3 -244 6.9 -245.1 8M-158.8 9.89999C-159.8 7.69999 -162.1 6.3 -164.5 6.3C-166.1 6.3 -167.7 6.9 -168.8 8L-178.4 17.6C-179.8 19 -181.7 19.8 -183.6 19.8C-186.2 19.8 -188.7 18.3 -189.9 16M-259.9 18.8C-258.2 18.8 -256.6 18.1 -255.4 16.9M-189.3 15.3C-188.3 17.4 -186 18.8 -183.6 18.8C-181.9 18.8 -180.3 18.1 -179.1 16.9M-36.5 15.3C-35.5 17.4 -33.2 18.8 -30.8 18.8C-29.1 18.8 -27.5 18.1 -26.3 16.9M-112.9 15.3C-111.9 17.4 -109.6 18.8 -107.2 18.8C-105.5 18.8 -103.9 18.1 -102.7 16.9M-227.4 15.3C-226.4 17.4 -224.1 18.8 -221.7 18.8C-220 18.8 -218.4 18.1 -217.2 16.9M-74.7 15.3C-73.7 17.4 -71.4 18.8 -69 18.8C-67.3 18.8 -65.7 18.1 -64.5 16.9M-151.1 15.3C-150.1 17.4 -147.8 18.8 -145.4 18.8C-143.7 18.8 -142.1 18.1 -140.9 16.9M1.60001 15.3C2.60001 17.4 4.90002 18.8 7.30002 18.8C9.00002 18.8 10.6 18.1 11.8 16.9M-208.3 15.3C-207.3 17.4 -205 18.8 -202.6 18.8C-200.9 18.8 -199.3 18.1 -198.1 16.9M-55.6 15.3C-54.6 17.4 -52.3 18.8 -49.9 18.8C-48.2 18.8 -46.6 18.1 -45.4 16.9M-132 15.3C-131 17.4 -128.7 18.8 -126.3 18.8C-124.6 18.8 -123 18.1 -121.8 16.9M20.7 15.3C21.7 17.4 24 18.8 26.4 18.8M-246.5 15.3C-245.5 17.4 -243.2 18.8 -240.8 18.8C-239.1 18.8 -237.5 18.1 -236.3 16.9M-93.8 15.3C-92.8 17.4 -90.5 18.8 -88.1 18.8C-86.4 18.8 -84.8 18.1 -83.6 16.9M-170.2 15.3C-169.2 17.4 -166.9 18.8 -164.5 18.8C-162.8 18.8 -161.2 18.1 -160 16.9M-17.4 15.3C-16.4 17.4 -14.1 18.8 -11.7 18.8C-10 18.8 -8.4 18.1 -7.2 16.9M-253.6 9.10001C-254.8 6.80001 -257.3 5.3 -259.9 5.3M26.4 5.39999C24.5 5.39999 22.7 6.1 21.3 7.5M-81.8 9.10001C-83 6.80001 -85.5 5.3 -88.1 5.3C-90 5.3 -91.8 6.09999 -93.2 7.39999M-259.9 19.7C-258 19.7 -256.1 18.9 -254.7 17.5M-37.1 16C-35.9 18.3 -33.4 19.8 -30.8 19.8C-28.9 19.8 -27 19 -25.6 17.6M-113.5 16C-112.3 18.3 -109.8 19.8 -107.2 19.8C-105.3 19.8 -103.4 19 -102 17.6M-228 16C-226.8 18.3 -224.3 19.8 -221.7 19.8C-219.8 19.8 -217.9 19 -216.5 17.6M-75.3 16C-74.1 18.3 -71.6 19.8 -69 19.8C-67.1 19.8 -65.2 19 -63.8 17.6M1 16C2.2 18.3 4.70002 19.8 7.30002 19.8C9.20002 19.8 11.1 19 12.5 17.6M-208.9 16C-207.7 18.3 -205.2 19.8 -202.6 19.8C-200.7 19.8 -198.8 19 -197.4 17.6M-56.2 16C-55 18.3 -52.5 19.8 -49.9 19.8C-48 19.8 -46.1 19 -44.7 17.6M20.1 16C21.3 18.3 23.8 19.8 26.4 19.8M-247.1 16C-245.9 18.3 -243.4 19.8 -240.8 19.8C-238.9 19.8 -237 19 -235.6 17.6M-94.4 16C-93.2 18.3 -90.7 19.8 -88.1 19.8C-86.2 19.8 -84.3 19 -82.9 17.6M-18 16C-16.8 18.3 -14.3 19.8 -11.7 19.8C-9.8 19.8 -7.9 19 -6.5 17.6M-40.2 19C-38.1 22 -34.5 23.9 -30.9 23.9C-28 23.9 -25.2 22.7 -23.1 20.8M-116.6 19.1C-114.5 22.1 -110.9 24 -107.3 24C-104.4 24 -101.6 22.8 -99.5 20.9M-78.3 19C-76.2 22 -72.6 23.9 -69 23.9C-66.1 23.9 -63.3 22.7 -61.2 20.8M-2 19C0.0999999 22 3.70002 23.9 7.30002 23.9C10.2 23.9 13 22.7 15.1 20.8M-59.3 19C-57.2 22 -53.6 23.9 -50 23.9C-47.1 23.9 -44.3 22.7 -42.2 20.8M17.1 19C19.2 22 22.8 23.9 26.4 23.9M-250.2 19.1C-248.1 22.1 -244.5 24 -240.9 24C-238 24 -235.2 22.8 -233.1 20.9M-97.4 19C-95.3 22 -91.7 23.9 -88.1 23.9C-85.2 23.9 -82.4 22.7 -80.3 20.8M-21.1 19C-19 22 -15.4 23.9 -11.8 23.9C-8.9 23.9 -6.10002 22.7 -4.00002 20.8M-250.5 6.10001C-252.6 3.00001 -256.2 1.2 -259.9 1.2M-174.2 6.10001C-176.3 3.00001 -179.9 1.2 -183.6 1.2C-186.5 1.2 -189.4 2.39999 -191.5 4.39999M-21.4 6C-23.5 2.9 -27.1 1.10001 -30.8 1.10001C-33.7 1.10001 -36.6 2.3 -38.7 4.3M-97.8 6.10001C-99.9 3.00001 -103.5 1.2 -107.2 1.2C-110.1 1.2 -113 2.39999 -115.1 4.39999M-212.3 6.10001C-214.4 3.00001 -218 1.2 -221.7 1.2C-224.6 1.2 -227.5 2.39999 -229.6 4.39999M-59.6 6C-61.7 2.9 -65.3 1.10001 -69 1.10001C-71.9 1.10001 -74.8 2.3 -76.9 4.3M-136 6.10001C-138.1 3.00001 -141.7 1.2 -145.4 1.2C-148.3 1.2 -151.2 2.39999 -153.3 4.39999M16.7 6C14.6 2.9 11 1.10001 7.30002 1.10001C4.40002 1.10001 1.50002 2.3 -0.599976 4.3M-193.2 6.10001C-195.3 3.00001 -198.9 1.2 -202.6 1.2C-205.5 1.2 -208.4 2.39999 -210.5 4.39999M-40.5 6C-42.6 2.9 -46.2 1.10001 -49.9 1.10001C-52.8 1.10001 -55.7 2.3 -57.8 4.3M-116.9 6.10001C-119 3.00001 -122.6 1.2 -126.3 1.2C-129.2 1.2 -132.1 2.39999 -134.2 4.39999M26.4 1.2C23.5 1.2 20.6 2.4 18.5 4.3M-231.4 6.10001C-233.5 3.00001 -237.1 1.2 -240.8 1.2C-243.7 1.2 -246.6 2.39999 -248.7 4.39999M-78.7 6C-80.8 2.9 -84.4 1.10001 -88.1 1.10001C-91 1.10001 -93.9 2.3 -96 4.3M-155.1 6.10001C-157.2 3.00001 -160.8 1.2 -164.5 1.2C-167.4 1.2 -170.3 2.39999 -172.4 4.39999M-2.29999 6C-4.39999 2.9 -8 1.10001 -11.7 1.10001C-14.6 1.10001 -17.5 2.3 -19.6 4.3M-260 24H26.4M-260 1H26.4M-183.6 14.6C-182.4 14.6 -181.5 13.7 -181.5 12.5C-181.5 11.3 -182.4 10.4 -183.6 10.4C-184.8 10.4 -185.7 11.3 -185.7 12.5C-185.7 13.7 -184.7 14.6 -183.6 14.6ZM-30.8 14.6C-29.6 14.6 -28.7 13.7 -28.7 12.5C-28.7 11.3 -29.6 10.4 -30.8 10.4C-32 10.4 -32.9 11.3 -32.9 12.5C-32.9 13.7 -32 14.6 -30.8 14.6ZM-107.2 14.6C-106 14.6 -105.1 13.7 -105.1 12.5C-105.1 11.3 -106 10.4 -107.2 10.4C-108.4 10.4 -109.3 11.3 -109.3 12.5C-109.3 13.7 -108.4 14.6 -107.2 14.6ZM-221.7 14.6C-220.5 14.6 -219.6 13.7 -219.6 12.5C-219.6 11.3 -220.5 10.4 -221.7 10.4C-222.9 10.4 -223.8 11.3 -223.8 12.5C-223.8 13.7 -222.9 14.6 -221.7 14.6ZM-69 14.6C-67.8 14.6 -66.9 13.7 -66.9 12.5C-66.9 11.3 -67.8 10.4 -69 10.4C-70.2 10.4 -71.1 11.3 -71.1 12.5C-71.1 13.7 -70.2 14.6 -69 14.6ZM-145.4 14.6C-144.2 14.6 -143.3 13.7 -143.3 12.5C-143.3 11.3 -144.2 10.4 -145.4 10.4C-146.6 10.4 -147.5 11.3 -147.5 12.5C-147.5 13.7 -146.5 14.6 -145.4 14.6ZM7.30002 14.6C8.50002 14.6 9.40002 13.7 9.40002 12.5C9.40002 11.3 8.50002 10.4 7.30002 10.4C6.10002 10.4 5.20001 11.3 5.20001 12.5C5.20001 13.7 6.20002 14.6 7.30002 14.6ZM-202.6 14.6C-201.4 14.6 -200.5 13.7 -200.5 12.5C-200.5 11.3 -201.4 10.4 -202.6 10.4C-203.8 10.4 -204.7 11.3 -204.7 12.5C-204.7 13.7 -203.8 14.6 -202.6 14.6ZM-49.9 14.6C-48.7 14.6 -47.8 13.7 -47.8 12.5C-47.8 11.3 -48.7 10.4 -49.9 10.4C-51.1 10.4 -52 11.3 -52 12.5C-52 13.7 -51.1 14.6 -49.9 14.6ZM-126.3 14.6C-125.1 14.6 -124.2 13.7 -124.2 12.5C-124.2 11.3 -125.1 10.4 -126.3 10.4C-127.5 10.4 -128.4 11.3 -128.4 12.5C-128.4 13.7 -127.4 14.6 -126.3 14.6ZM-240.8 14.6C-239.6 14.6 -238.7 13.7 -238.7 12.5C-238.7 11.3 -239.6 10.4 -240.8 10.4C-242 10.4 -242.9 11.3 -242.9 12.5C-242.9 13.7 -242 14.6 -240.8 14.6ZM-88.1 14.6C-86.9 14.6 -86 13.7 -86 12.5C-86 11.3 -86.9 10.4 -88.1 10.4C-89.3 10.4 -90.2 11.3 -90.2 12.5C-90.2 13.7 -89.2 14.6 -88.1 14.6ZM-164.5 14.6C-163.3 14.6 -162.4 13.7 -162.4 12.5C-162.4 11.3 -163.3 10.4 -164.5 10.4C-165.7 10.4 -166.6 11.3 -166.6 12.5C-166.6 13.7 -165.6 14.6 -164.5 14.6ZM-11.7 14.6C-10.5 14.6 -9.60001 13.7 -9.60001 12.5C-9.60001 11.3 -10.5 10.4 -11.7 10.4C-12.9 10.4 -13.8 11.3 -13.8 12.5C-13.8 13.7 -12.9 14.6 -11.7 14.6Z" stroke="#151C26" stroke-opacity="0.17" stroke-width="1.57" stroke-miterlimit="22.926"/>
<path d="M100.9 11.1L91.1 20.9C89 22.8 86.2 24 83.3 24C79.7 24 76.1 22.1 74 19.1M243.9 20.9L253.7 11.1M177.3 11.1L167.5 20.9C165.4 22.8 162.6 24 159.7 24C156.1 24 152.5 22.1 150.4 19.1M53 20.9L62.8 11.1M205.7 20.9L215.5 11.1M139.1 11.1L129.3 20.9C127.2 22.8 124.4 24 121.5 24C117.9 24 114.3 22.1 112.2 19.1M282.1 20.9L291.9 11.1M81.8 11.1L72 20.9C69.9 22.8 67.1 24 64.2 24C60.6 24 57 22.1 54.9 19.1M224.8 20.9L234.6 11.1M158.2 11.1L148.4 20.9C146.3 22.8 143.5 24 140.6 24C137 24 133.4 22.1 131.3 19.1M301.1 20.9L310.9 11.1M43.7 11.1L33.9 20.9C31.8 22.8 29 24 26.1 24M186.6 20.9L196.4 11.1M120 11.1L110.2 20.9C108.1 22.8 105.3 24 102.4 24C98.8 24 95.2 22.1 93.1 19.1M262.9 20.9L272.7 11.1M88.5 17.6L98.1 8C99.2 6.9 100.8 6.3 102.4 6.3C104.8 6.3 107.1 7.69999 108.1 9.89999M241.2 17.5L250.8 7.89999C251.9 6.79999 253.5 6.2 255.1 6.2C257.5 6.2 259.8 7.6 260.8 9.8M50.3 17.6L59.9 8C61 6.9 62.6 6.3 64.2 6.3C66.6 6.3 68.9 7.69999 69.9 9.89999M203.1 17.5L212.7 7.89999C213.8 6.79999 215.4 6.2 217 6.2C219.4 6.2 221.7 7.6 222.7 9.8M279.4 17.5L289 7.89999C290.1 6.79999 291.7 6.2 293.3 6.2C295.7 6.2 298 7.6 299 9.8M69.4 17.6L79 7.89999M222.1 17.5L231.7 7.8M155.4 7.89999L145.8 17.6C144.4 19 142.5 19.8 140.6 19.8C138 19.8 135.5 18.3 134.3 16M298.5 17.5L308.1 7.8M31.2 17.6L40.9 7.89999M183.9 17.6L193.6 7.89999C194.7 6.79999 196.3 6.2 197.9 6.2C200.3 6.2 202.6 7.6 203.6 9.8M260.3 17.5L269.9 7.89999C271 6.79999 272.6 6.2 274.2 6.2C276.6 6.2 278.9 7.6 279.9 9.8M87.8 17L97.4 7.39999C98.8 6.09999 100.6 5.3 102.5 5.3C105.1 5.3 107.6 6.80001 108.8 9.10001M240.5 17L250.1 7.39999C251.5 6.09999 253.3 5.3 255.2 5.3C257.8 5.3 260.3 6.80001 261.5 9.10001M164.1 17L173.7 7.39999C175.1 6.09999 176.9 5.3 178.8 5.3C181.4 5.3 183.9 6.80001 185.1 9.10001M49.6 17L59.2 7.39999C60.6 6.09999 62.4 5.3 64.3 5.3C66.9 5.3 69.4 6.80001 70.6 9.10001M202.3 17L211.9 7.39999C213.3 6.09999 215.1 5.3 217 5.3C219.6 5.3 222.1 6.80001 223.3 9.10001M125.9 17L135.5 7.39999C136.9 6.09999 138.7 5.3 140.6 5.3C143.2 5.3 145.7 6.80001 146.9 9.10001M278.7 17L288.3 7.39999C289.7 6.09999 291.5 5.3 293.4 5.3C296 5.3 298.5 6.80001 299.7 9.10001M68.7 17L78.3 7.39999C79.7 6.09999 81.5 5.3 83.4 5.3C86 5.3 88.5 6.80001 89.7 9.10001M221.4 17L231 7.39999C232.4 6.09999 234.2 5.3 236.1 5.3C238.7 5.3 241.2 6.80001 242.4 9.10001M145 17L154.6 7.39999C156 6.09999 157.8 5.3 159.7 5.3C162.3 5.3 164.8 6.80001 166 9.10001M297.8 17L307.4 7.39999M30.5 17L40.1 7.39999C41.5 6.09999 43.3 5.3 45.2 5.3C47.8 5.3 50.3 6.80001 51.5 9.10001M183.2 17L192.9 7.39999M106.9 17L116.5 7.39999C117.9 6.09999 119.7 5.3 121.6 5.3C124.2 5.3 126.7 6.80001 127.9 9.10001M259.6 17L269.2 7.39999C270.6 6.09999 272.4 5.3 274.3 5.3C276.9 5.3 279.4 6.80001 280.6 9.10001M84.7 14.1L94.6 4.3M237.5 14.1L247.4 4.3M161.1 14.1L171 4.3M46.6 14.1L56.5 4.3M199.3 14.1L209.2 4.3M122.9 14.1L132.8 4.3M275.6 14.1L285.5 4.3M65.7 14.1L75.5 4.3M218.5 14L228.3 4.2M142.1 14.1L151.9 4.3M294.8 14L304.6 4.2M27.6 14.1L37.4 4.3M180.3 14L190.1 4.2M103.9 14.1L113.7 4.3M256.6 14L266.4 4.2M26.1 14.6C27.3 14.6 28.2 13.7 28.2 12.5C28.2 11.3 27.3 10.4 26.1 10.4M312.4 10.4C311.2 10.4 310.3 11.3 310.3 12.5C310.3 13.7 311.2 14.6 312.4 14.6M31.8 9.89999C30.8 7.69999 28.5 6.3 26.1 6.3M184.5 9.89999C183.5 7.69999 181.2 6.3 178.8 6.3C177.2 6.3 175.6 6.9 174.5 8L164.9 17.6C163.5 19 161.6 19.8 159.7 19.8C157.1 19.8 154.6 18.3 153.4 16M146.3 9.89999C145.3 7.69999 143 6.3 140.6 6.3C139 6.3 137.4 6.9 136.3 8L126.7 17.6C125.3 19 123.4 19.8 121.5 19.8C118.9 19.8 116.4 18.3 115.2 16M89 9.89999C88 7.69999 85.7 6.3 83.3 6.3C81.7 6.3 80.1 6.9 79 8M241.8 9.8C240.8 7.6 238.5 6.2 236.1 6.2C234.5 6.2 232.9 6.79999 231.8 7.89999M165.4 9.89999C164.4 7.69999 162.1 6.3 159.7 6.3C158.1 6.3 156.5 6.9 155.4 8M312.4 6.2C310.8 6.2 309.2 6.79999 308.1 7.89999M50.9 9.89999C49.9 7.69999 47.6 6.3 45.2 6.3C43.6 6.3 42 6.9 40.9 8M127.2 9.89999C126.2 7.69999 123.9 6.3 121.5 6.3C119.9 6.3 118.3 6.9 117.2 8L107.6 17.6C106.2 19 104.3 19.8 102.4 19.8C99.8 19.8 97.3 18.3 96.1 16M26.1 18.8C27.8 18.8 29.4 18.1 30.6 16.9M96.7 15.3C97.7 17.4 100 18.8 102.4 18.8C104.1 18.8 105.7 18.1 106.9 16.9M249.5 15.3C250.5 17.4 252.8 18.8 255.2 18.8C256.9 18.8 258.5 18.1 259.7 16.9M173.1 15.3C174.1 17.4 176.4 18.8 178.8 18.8C180.5 18.8 182.1 18.1 183.3 16.9M58.6 15.3C59.6 17.4 61.9 18.8 64.3 18.8C66 18.8 67.6 18.1 68.8 16.9M211.3 15.3C212.3 17.4 214.6 18.8 217 18.8C218.7 18.8 220.3 18.1 221.5 16.9M134.9 15.3C135.9 17.4 138.2 18.8 140.6 18.8C142.3 18.8 143.9 18.1 145.1 16.9M287.6 15.3C288.6 17.4 290.9 18.8 293.3 18.8C295 18.8 296.6 18.1 297.8 16.9M77.7 15.3C78.7 17.4 81 18.8 83.4 18.8C85.1 18.8 86.7 18.1 87.9 16.9M230.4 15.3C231.4 17.4 233.7 18.8 236.1 18.8C237.8 18.8 239.4 18.1 240.6 16.9M154 15.3C155 17.4 157.3 18.8 159.7 18.8C161.4 18.8 163 18.1 164.2 16.9M306.7 15.3C307.7 17.4 310 18.8 312.4 18.8M39.5 15.3C40.5 17.4 42.8 18.8 45.2 18.8C46.9 18.8 48.5 18.1 49.7 16.9M192.2 15.3C193.2 17.4 195.5 18.8 197.9 18.8C199.6 18.8 201.2 18.1 202.4 16.9M115.8 15.3C116.8 17.4 119.1 18.8 121.5 18.8C123.2 18.8 124.8 18.1 126 16.9M268.6 15.3C269.6 17.4 271.9 18.8 274.3 18.8C276 18.8 277.6 18.1 278.8 16.9M32.4 9.10001C31.2 6.80001 28.7 5.3 26.1 5.3M312.4 5.39999C310.5 5.39999 308.7 6.1 307.3 7.5M204.2 9.10001C203 6.80001 200.5 5.3 197.9 5.3C196 5.3 194.2 6.09999 192.8 7.39999M26.1 19.7C28 19.7 29.9 18.9 31.3 17.5M248.9 16C250.1 18.3 252.6 19.8 255.2 19.8C257.1 19.8 259 19 260.4 17.6M172.5 16C173.7 18.3 176.2 19.8 178.8 19.8C180.7 19.8 182.6 19 184 17.6M58 16C59.2 18.3 61.7 19.8 64.3 19.8C66.2 19.8 68.1 19 69.5 17.6M210.7 16C211.9 18.3 214.4 19.8 217 19.8C218.9 19.8 220.8 19 222.2 17.6M287 16C288.2 18.3 290.7 19.8 293.3 19.8C295.2 19.8 297.1 19 298.5 17.6M77.1 16C78.3 18.3 80.8 19.8 83.4 19.8C85.3 19.8 87.2 19 88.6 17.6M229.8 16C231 18.3 233.5 19.8 236.1 19.8C238 19.8 239.9 19 241.3 17.6M306.1 16C307.3 18.3 309.8 19.8 312.4 19.8M38.9 16C40.1 18.3 42.6 19.8 45.2 19.8C47.1 19.8 49 19 50.4 17.6M191.6 16C192.8 18.3 195.3 19.8 197.9 19.8C199.8 19.8 201.7 19 203.1 17.6M268 16C269.2 18.3 271.7 19.8 274.3 19.8C276.2 19.8 278.1 19 279.5 17.6M245.8 19C247.9 22 251.5 23.9 255.1 23.9C258 23.9 260.8 22.7 262.9 20.8M169.4 19.1C171.5 22.1 175.1 24 178.7 24C181.6 24 184.4 22.8 186.5 20.9M207.7 19C209.8 22 213.4 23.9 217 23.9C219.9 23.9 222.7 22.7 224.8 20.8M284 19C286.1 22 289.7 23.9 293.3 23.9C296.2 23.9 299 22.7 301.1 20.8M226.7 19C228.8 22 232.4 23.9 236 23.9C238.9 23.9 241.7 22.7 243.8 20.8M303.1 19C305.2 22 308.8 23.9 312.4 23.9M35.8 19.1C37.9 22.1 41.5 24 45.1 24C48 24 50.8 22.8 52.9 20.9M188.6 19C190.7 22 194.3 23.9 197.9 23.9C200.8 23.9 203.6 22.7 205.7 20.8M264.9 19C267 22 270.6 23.9 274.2 23.9C277.1 23.9 279.9 22.7 282 20.8M35.5 6.10001C33.4 3.00001 29.8 1.2 26.1 1.2M111.8 6.10001C109.7 3.00001 106.1 1.2 102.4 1.2C99.5 1.2 96.6 2.39999 94.5 4.39999M264.6 6C262.5 2.9 258.9 1.10001 255.2 1.10001C252.3 1.10001 249.4 2.3 247.3 4.3M188.2 6.10001C186.1 3.00001 182.5 1.2 178.8 1.2C175.9 1.2 173 2.39999 170.9 4.39999M73.7 6.10001C71.6 3.00001 68 1.2 64.3 1.2C61.4 1.2 58.5 2.39999 56.4 4.39999M226.4 6C224.3 2.9 220.7 1.10001 217 1.10001C214.1 1.10001 211.2 2.3 209.1 4.3M150 6.10001C147.9 3.00001 144.3 1.2 140.6 1.2C137.7 1.2 134.8 2.39999 132.7 4.39999M302.7 6C300.6 2.9 297 1.10001 293.3 1.10001C290.4 1.10001 287.5 2.3 285.4 4.3M92.8 6.10001C90.7 3.00001 87.1 1.2 83.4 1.2C80.5 1.2 77.6 2.39999 75.5 4.39999M245.5 6C243.4 2.9 239.8 1.10001 236.1 1.10001C233.2 1.10001 230.3 2.3 228.2 4.3M169.1 6.10001C167 3.00001 163.4 1.2 159.7 1.2C156.8 1.2 153.9 2.39999 151.8 4.39999M312.4 1.2C309.5 1.2 306.6 2.4 304.5 4.3M54.6 6.10001C52.5 3.00001 48.9 1.2 45.2 1.2C42.3 1.2 39.4 2.39999 37.3 4.39999M207.3 6C205.2 2.9 201.6 1.10001 197.9 1.10001C195 1.10001 192.1 2.3 190 4.3M130.9 6.10001C128.8 3.00001 125.2 1.2 121.5 1.2C118.6 1.2 115.7 2.39999 113.6 4.39999M283.7 6C281.6 2.9 278 1.10001 274.3 1.10001C271.4 1.10001 268.5 2.3 266.4 4.3M26 24H312.4M26 1H312.4M102.4 14.6C103.6 14.6 104.5 13.7 104.5 12.5C104.5 11.3 103.6 10.4 102.4 10.4C101.2 10.4 100.3 11.3 100.3 12.5C100.3 13.7 101.3 14.6 102.4 14.6ZM255.2 14.6C256.4 14.6 257.3 13.7 257.3 12.5C257.3 11.3 256.4 10.4 255.2 10.4C254 10.4 253.1 11.3 253.1 12.5C253.1 13.7 254 14.6 255.2 14.6ZM178.8 14.6C180 14.6 180.9 13.7 180.9 12.5C180.9 11.3 180 10.4 178.8 10.4C177.6 10.4 176.7 11.3 176.7 12.5C176.7 13.7 177.6 14.6 178.8 14.6ZM64.3 14.6C65.5 14.6 66.4 13.7 66.4 12.5C66.4 11.3 65.5 10.4 64.3 10.4C63.1 10.4 62.2 11.3 62.2 12.5C62.2 13.7 63.1 14.6 64.3 14.6ZM217 14.6C218.2 14.6 219.1 13.7 219.1 12.5C219.1 11.3 218.2 10.4 217 10.4C215.8 10.4 214.9 11.3 214.9 12.5C214.9 13.7 215.8 14.6 217 14.6ZM140.6 14.6C141.8 14.6 142.7 13.7 142.7 12.5C142.7 11.3 141.8 10.4 140.6 10.4C139.4 10.4 138.5 11.3 138.5 12.5C138.5 13.7 139.5 14.6 140.6 14.6ZM293.3 14.6C294.5 14.6 295.4 13.7 295.4 12.5C295.4 11.3 294.5 10.4 293.3 10.4C292.1 10.4 291.2 11.3 291.2 12.5C291.2 13.7 292.2 14.6 293.3 14.6ZM83.4 14.6C84.6 14.6 85.5 13.7 85.5 12.5C85.5 11.3 84.6 10.4 83.4 10.4C82.2 10.4 81.3 11.3 81.3 12.5C81.3 13.7 82.2 14.6 83.4 14.6ZM236.1 14.6C237.3 14.6 238.2 13.7 238.2 12.5C238.2 11.3 237.3 10.4 236.1 10.4C234.9 10.4 234 11.3 234 12.5C234 13.7 234.9 14.6 236.1 14.6ZM159.7 14.6C160.9 14.6 161.8 13.7 161.8 12.5C161.8 11.3 160.9 10.4 159.7 10.4C158.5 10.4 157.6 11.3 157.6 12.5C157.6 13.7 158.6 14.6 159.7 14.6ZM45.2 14.6C46.4 14.6 47.3 13.7 47.3 12.5C47.3 11.3 46.4 10.4 45.2 10.4C44 10.4 43.1 11.3 43.1 12.5C43.1 13.7 44 14.6 45.2 14.6ZM197.9 14.6C199.1 14.6 200 13.7 200 12.5C200 11.3 199.1 10.4 197.9 10.4C196.7 10.4 195.8 11.3 195.8 12.5C195.8 13.7 196.8 14.6 197.9 14.6ZM121.5 14.6C122.7 14.6 123.6 13.7 123.6 12.5C123.6 11.3 122.7 10.4 121.5 10.4C120.3 10.4 119.4 11.3 119.4 12.5C119.4 13.7 120.4 14.6 121.5 14.6ZM274.3 14.6C275.5 14.6 276.4 13.7 276.4 12.5C276.4 11.3 275.5 10.4 274.3 10.4C273.1 10.4 272.2 11.3 272.2 12.5C272.2 13.7 273.1 14.6 274.3 14.6Z" stroke="#151C26" stroke-opacity="0.17" stroke-width="1.57" stroke-miterlimit="22.926"/>
<path d="M386.9 11.1L377.1 20.9C375 22.8 372.2 24 369.3 24C365.7 24 362.1 22.1 360 19.1M529.9 20.9L539.7 11.1M463.3 11.1L453.5 20.9C451.4 22.8 448.6 24 445.7 24C442.1 24 438.5 22.1 436.4 19.1M339 20.9L348.8 11.1M491.7 20.9L501.5 11.1M425.1 11.1L415.3 20.9C413.2 22.8 410.4 24 407.5 24C403.9 24 400.3 22.1 398.2 19.1M568.1 20.9L577.9 11.1M367.8 11.1L358 20.9C355.9 22.8 353.1 24 350.2 24C346.6 24 343 22.1 340.9 19.1M510.8 20.9L520.6 11.1M444.2 11.1L434.4 20.9C432.3 22.8 429.5 24 426.6 24C423 24 419.4 22.1 417.3 19.1M587.1 20.9L596.9 11.1M329.7 11.1L319.9 20.9C317.8 22.8 315 24 312.1 24M472.6 20.9L482.4 11.1M406 11.1L396.2 20.9C394.1 22.8 391.3 24 388.4 24C384.8 24 381.2 22.1 379.1 19.1M548.9 20.9L558.7 11.1M374.5 17.6L384.1 8C385.2 6.9 386.8 6.3 388.4 6.3C390.8 6.3 393.1 7.69999 394.1 9.89999M527.2 17.5L536.8 7.89999C537.9 6.79999 539.5 6.2 541.1 6.2C543.5 6.2 545.8 7.6 546.8 9.8M336.3 17.6L345.9 8C347 6.9 348.6 6.3 350.2 6.3C352.6 6.3 354.9 7.69999 355.9 9.89999M489.1 17.5L498.7 7.89999C499.8 6.79999 501.4 6.2 503 6.2C505.4 6.2 507.7 7.6 508.7 9.8M565.4 17.5L575 7.89999C576.1 6.79999 577.7 6.2 579.3 6.2C581.7 6.2 584 7.6 585 9.8M355.4 17.6L365 7.89999M508.1 17.5L517.7 7.8M441.4 7.89999L431.8 17.6C430.4 19 428.5 19.8 426.6 19.8C424 19.8 421.5 18.3 420.3 16M584.5 17.5L594.1 7.8M317.2 17.6L326.9 7.89999M469.9 17.6L479.6 7.89999C480.7 6.79999 482.3 6.2 483.9 6.2C486.3 6.2 488.6 7.6 489.6 9.8M546.3 17.5L555.9 7.89999C557 6.79999 558.6 6.2 560.2 6.2C562.6 6.2 564.9 7.6 565.9 9.8M373.8 17L383.4 7.39999C384.8 6.09999 386.6 5.3 388.5 5.3C391.1 5.3 393.6 6.80001 394.8 9.10001M526.5 17L536.1 7.39999C537.5 6.09999 539.3 5.3 541.2 5.3C543.8 5.3 546.3 6.80001 547.5 9.10001M450.1 17L459.7 7.39999C461.1 6.09999 462.9 5.3 464.8 5.3C467.4 5.3 469.9 6.80001 471.1 9.10001M335.6 17L345.2 7.39999C346.6 6.09999 348.4 5.3 350.3 5.3C352.9 5.3 355.4 6.80001 356.6 9.10001M488.3 17L497.9 7.39999C499.3 6.09999 501.1 5.3 503 5.3C505.6 5.3 508.1 6.80001 509.3 9.10001M411.9 17L421.5 7.39999C422.9 6.09999 424.7 5.3 426.6 5.3C429.2 5.3 431.7 6.80001 432.9 9.10001M564.7 17L574.3 7.39999C575.7 6.09999 577.5 5.3 579.4 5.3C582 5.3 584.5 6.80001 585.7 9.10001M354.7 17L364.3 7.39999C365.7 6.09999 367.5 5.3 369.4 5.3C372 5.3 374.5 6.80001 375.7 9.10001M507.4 17L517 7.39999C518.4 6.09999 520.2 5.3 522.1 5.3C524.7 5.3 527.2 6.80001 528.4 9.10001M431 17L440.6 7.39999C442 6.09999 443.8 5.3 445.7 5.3C448.3 5.3 450.8 6.80001 452 9.10001M583.8 17L593.4 7.39999M316.5 17L326.1 7.39999C327.5 6.09999 329.3 5.3 331.2 5.3C333.8 5.3 336.3 6.80001 337.5 9.10001M469.2 17L478.9 7.39999M392.9 17L402.5 7.39999C403.9 6.09999 405.7 5.3 407.6 5.3C410.2 5.3 412.7 6.80001 413.9 9.10001M545.6 17L555.2 7.39999C556.6 6.09999 558.4 5.3 560.3 5.3C562.9 5.3 565.4 6.80001 566.6 9.10001M370.7 14.1L380.6 4.3M523.5 14.1L533.4 4.3M447.1 14.1L457 4.3M332.6 14.1L342.5 4.3M485.3 14.1L495.2 4.3M408.9 14.1L418.8 4.3M561.6 14.1L571.5 4.3M351.7 14.1L361.5 4.3M504.5 14L514.3 4.2M428.1 14.1L437.9 4.3M580.8 14L590.6 4.2M313.6 14.1L323.4 4.3M466.3 14L476.1 4.2M389.9 14.1L399.7 4.3M542.6 14L552.4 4.2M312.1 14.6C313.3 14.6 314.2 13.7 314.2 12.5C314.2 11.3 313.3 10.4 312.1 10.4M598.4 10.4C597.2 10.4 596.3 11.3 596.3 12.5C596.3 13.7 597.2 14.6 598.4 14.6M317.8 9.89999C316.8 7.69999 314.5 6.3 312.1 6.3M470.5 9.89999C469.5 7.69999 467.2 6.3 464.8 6.3C463.2 6.3 461.6 6.9 460.5 8L450.9 17.6C449.5 19 447.6 19.8 445.7 19.8C443.1 19.8 440.6 18.3 439.4 16M432.3 9.89999C431.3 7.69999 429 6.3 426.6 6.3C425 6.3 423.4 6.9 422.3 8L412.7 17.6C411.3 19 409.4 19.8 407.5 19.8C404.9 19.8 402.4 18.3 401.2 16M375 9.89999C374 7.69999 371.7 6.3 369.3 6.3C367.7 6.3 366.1 6.9 365 8M527.8 9.8C526.8 7.6 524.5 6.2 522.1 6.2C520.5 6.2 518.9 6.79999 517.8 7.89999M451.4 9.89999C450.4 7.69999 448.1 6.3 445.7 6.3C444.1 6.3 442.5 6.9 441.4 8M598.4 6.2C596.8 6.2 595.2 6.79999 594.1 7.89999M336.9 9.89999C335.9 7.69999 333.6 6.3 331.2 6.3C329.6 6.3 328 6.9 326.9 8M413.2 9.89999C412.2 7.69999 409.9 6.3 407.5 6.3C405.9 6.3 404.3 6.9 403.2 8L393.6 17.6C392.2 19 390.3 19.8 388.4 19.8C385.8 19.8 383.3 18.3 382.1 16M312.1 18.8C313.8 18.8 315.4 18.1 316.6 16.9M382.7 15.3C383.7 17.4 386 18.8 388.4 18.8C390.1 18.8 391.7 18.1 392.9 16.9M535.5 15.3C536.5 17.4 538.8 18.8 541.2 18.8C542.9 18.8 544.5 18.1 545.7 16.9M459.1 15.3C460.1 17.4 462.4 18.8 464.8 18.8C466.5 18.8 468.1 18.1 469.3 16.9M344.6 15.3C345.6 17.4 347.9 18.8 350.3 18.8C352 18.8 353.6 18.1 354.8 16.9M497.3 15.3C498.3 17.4 500.6 18.8 503 18.8C504.7 18.8 506.3 18.1 507.5 16.9M420.9 15.3C421.9 17.4 424.2 18.8 426.6 18.8C428.3 18.8 429.9 18.1 431.1 16.9M573.6 15.3C574.6 17.4 576.9 18.8 579.3 18.8C581 18.8 582.6 18.1 583.8 16.9M363.7 15.3C364.7 17.4 367 18.8 369.4 18.8C371.1 18.8 372.7 18.1 373.9 16.9M516.4 15.3C517.4 17.4 519.7 18.8 522.1 18.8C523.8 18.8 525.4 18.1 526.6 16.9M440 15.3C441 17.4 443.3 18.8 445.7 18.8C447.4 18.8 449 18.1 450.2 16.9M592.7 15.3C593.7 17.4 596 18.8 598.4 18.8M325.5 15.3C326.5 17.4 328.8 18.8 331.2 18.8C332.9 18.8 334.5 18.1 335.7 16.9M478.2 15.3C479.2 17.4 481.5 18.8 483.9 18.8C485.6 18.8 487.2 18.1 488.4 16.9M401.8 15.3C402.8 17.4 405.1 18.8 407.5 18.8C409.2 18.8 410.8 18.1 412 16.9M554.6 15.3C555.6 17.4 557.9 18.8 560.3 18.8C562 18.8 563.6 18.1 564.8 16.9M318.4 9.10001C317.2 6.80001 314.7 5.3 312.1 5.3M598.4 5.39999C596.5 5.39999 594.7 6.1 593.3 7.5M490.2 9.10001C489 6.80001 486.5 5.3 483.9 5.3C482 5.3 480.2 6.09999 478.8 7.39999M312.1 19.7C314 19.7 315.9 18.9 317.3 17.5M534.9 16C536.1 18.3 538.6 19.8 541.2 19.8C543.1 19.8 545 19 546.4 17.6M458.5 16C459.7 18.3 462.2 19.8 464.8 19.8C466.7 19.8 468.6 19 470 17.6M344 16C345.2 18.3 347.7 19.8 350.3 19.8C352.2 19.8 354.1 19 355.5 17.6M496.7 16C497.9 18.3 500.4 19.8 503 19.8C504.9 19.8 506.8 19 508.2 17.6M573 16C574.2 18.3 576.7 19.8 579.3 19.8C581.2 19.8 583.1 19 584.5 17.6M363.1 16C364.3 18.3 366.8 19.8 369.4 19.8C371.3 19.8 373.2 19 374.6 17.6M515.8 16C517 18.3 519.5 19.8 522.1 19.8C524 19.8 525.9 19 527.3 17.6M592.1 16C593.3 18.3 595.8 19.8 598.4 19.8M324.9 16C326.1 18.3 328.6 19.8 331.2 19.8C333.1 19.8 335 19 336.4 17.6M477.6 16C478.8 18.3 481.3 19.8 483.9 19.8C485.8 19.8 487.7 19 489.1 17.6M554 16C555.2 18.3 557.7 19.8 560.3 19.8C562.2 19.8 564.1 19 565.5 17.6M531.8 19C533.9 22 537.5 23.9 541.1 23.9C544 23.9 546.8 22.7 548.9 20.8M455.4 19.1C457.5 22.1 461.1 24 464.7 24C467.6 24 470.4 22.8 472.5 20.9M493.7 19C495.8 22 499.4 23.9 503 23.9C505.9 23.9 508.7 22.7 510.8 20.8M570 19C572.1 22 575.7 23.9 579.3 23.9C582.2 23.9 585 22.7 587.1 20.8M512.7 19C514.8 22 518.4 23.9 522 23.9C524.9 23.9 527.7 22.7 529.8 20.8M589.1 19C591.2 22 594.8 23.9 598.4 23.9M321.8 19.1C323.9 22.1 327.5 24 331.1 24C334 24 336.8 22.8 338.9 20.9M474.6 19C476.7 22 480.3 23.9 483.9 23.9C486.8 23.9 489.6 22.7 491.7 20.8M550.9 19C553 22 556.6 23.9 560.2 23.9C563.1 23.9 565.9 22.7 568 20.8M321.5 6.10001C319.4 3.00001 315.8 1.2 312.1 1.2M397.8 6.10001C395.7 3.00001 392.1 1.2 388.4 1.2C385.5 1.2 382.6 2.39999 380.5 4.39999M550.6 6C548.5 2.9 544.9 1.10001 541.2 1.10001C538.3 1.10001 535.4 2.3 533.3 4.3M474.2 6.10001C472.1 3.00001 468.5 1.2 464.8 1.2C461.9 1.2 459 2.39999 456.9 4.39999M359.7 6.10001C357.6 3.00001 354 1.2 350.3 1.2C347.4 1.2 344.5 2.39999 342.4 4.39999M512.4 6C510.3 2.9 506.7 1.10001 503 1.10001C500.1 1.10001 497.2 2.3 495.1 4.3M436 6.10001C433.9 3.00001 430.3 1.2 426.6 1.2C423.7 1.2 420.8 2.39999 418.7 4.39999M588.7 6C586.6 2.9 583 1.10001 579.3 1.10001C576.4 1.10001 573.5 2.3 571.4 4.3M378.8 6.10001C376.7 3.00001 373.1 1.2 369.4 1.2C366.5 1.2 363.6 2.39999 361.5 4.39999M531.5 6C529.4 2.9 525.8 1.10001 522.1 1.10001C519.2 1.10001 516.3 2.3 514.2 4.3M455.1 6.10001C453 3.00001 449.4 1.2 445.7 1.2C442.8 1.2 439.9 2.39999 437.8 4.39999M598.4 1.2C595.5 1.2 592.6 2.4 590.5 4.3M340.6 6.10001C338.5 3.00001 334.9 1.2 331.2 1.2C328.3 1.2 325.4 2.39999 323.3 4.39999M493.3 6C491.2 2.9 487.6 1.10001 483.9 1.10001C481 1.10001 478.1 2.3 476 4.3M416.9 6.10001C414.8 3.00001 411.2 1.2 407.5 1.2C404.6 1.2 401.7 2.39999 399.6 4.39999M569.7 6C567.6 2.9 564 1.10001 560.3 1.10001C557.4 1.10001 554.5 2.3 552.4 4.3M312 24H598.4M312 1H598.4M388.4 14.6C389.6 14.6 390.5 13.7 390.5 12.5C390.5 11.3 389.6 10.4 388.4 10.4C387.2 10.4 386.3 11.3 386.3 12.5C386.3 13.7 387.3 14.6 388.4 14.6ZM541.2 14.6C542.4 14.6 543.3 13.7 543.3 12.5C543.3 11.3 542.4 10.4 541.2 10.4C540 10.4 539.1 11.3 539.1 12.5C539.1 13.7 540 14.6 541.2 14.6ZM464.8 14.6C466 14.6 466.9 13.7 466.9 12.5C466.9 11.3 466 10.4 464.8 10.4C463.6 10.4 462.7 11.3 462.7 12.5C462.7 13.7 463.6 14.6 464.8 14.6ZM350.3 14.6C351.5 14.6 352.4 13.7 352.4 12.5C352.4 11.3 351.5 10.4 350.3 10.4C349.1 10.4 348.2 11.3 348.2 12.5C348.2 13.7 349.1 14.6 350.3 14.6ZM503 14.6C504.2 14.6 505.1 13.7 505.1 12.5C505.1 11.3 504.2 10.4 503 10.4C501.8 10.4 500.9 11.3 500.9 12.5C500.9 13.7 501.8 14.6 503 14.6ZM426.6 14.6C427.8 14.6 428.7 13.7 428.7 12.5C428.7 11.3 427.8 10.4 426.6 10.4C425.4 10.4 424.5 11.3 424.5 12.5C424.5 13.7 425.5 14.6 426.6 14.6ZM579.3 14.6C580.5 14.6 581.4 13.7 581.4 12.5C581.4 11.3 580.5 10.4 579.3 10.4C578.1 10.4 577.2 11.3 577.2 12.5C577.2 13.7 578.2 14.6 579.3 14.6ZM369.4 14.6C370.6 14.6 371.5 13.7 371.5 12.5C371.5 11.3 370.6 10.4 369.4 10.4C368.2 10.4 367.3 11.3 367.3 12.5C367.3 13.7 368.2 14.6 369.4 14.6ZM522.1 14.6C523.3 14.6 524.2 13.7 524.2 12.5C524.2 11.3 523.3 10.4 522.1 10.4C520.9 10.4 520 11.3 520 12.5C520 13.7 520.9 14.6 522.1 14.6ZM445.7 14.6C446.9 14.6 447.8 13.7 447.8 12.5C447.8 11.3 446.9 10.4 445.7 10.4C444.5 10.4 443.6 11.3 443.6 12.5C443.6 13.7 444.6 14.6 445.7 14.6ZM331.2 14.6C332.4 14.6 333.3 13.7 333.3 12.5C333.3 11.3 332.4 10.4 331.2 10.4C330 10.4 329.1 11.3 329.1 12.5C329.1 13.7 330 14.6 331.2 14.6ZM483.9 14.6C485.1 14.6 486 13.7 486 12.5C486 11.3 485.1 10.4 483.9 10.4C482.7 10.4 481.8 11.3 481.8 12.5C481.8 13.7 482.8 14.6 483.9 14.6ZM407.5 14.6C408.7 14.6 409.6 13.7 409.6 12.5C409.6 11.3 408.7 10.4 407.5 10.4C406.3 10.4 405.4 11.3 405.4 12.5C405.4 13.7 406.4 14.6 407.5 14.6ZM560.3 14.6C561.5 14.6 562.4 13.7 562.4 12.5C562.4 11.3 561.5 10.4 560.3 10.4C559.1 10.4 558.2 11.3 558.2 12.5C558.2 13.7 559.1 14.6 560.3 14.6Z" stroke="#151C26" stroke-opacity="0.17" stroke-width="1.57" stroke-miterlimit="22.926"/>
<path d="M672.9 11.1L663.1 20.9C661 22.8 658.2 24 655.3 24C651.7 24 648.1 22.1 646 19.1M815.9 20.9L825.7 11.1M749.3 11.1L739.5 20.9C737.4 22.8 734.6 24 731.7 24C728.1 24 724.5 22.1 722.4 19.1M625 20.9L634.8 11.1M777.7 20.9L787.5 11.1M711.1 11.1L701.3 20.9C699.2 22.8 696.4 24 693.5 24C689.9 24 686.3 22.1 684.2 19.1M854.1 20.9L863.9 11.1M653.8 11.1L644 20.9C641.9 22.8 639.1 24 636.2 24C632.6 24 629 22.1 626.9 19.1M796.8 20.9L806.6 11.1M730.2 11.1L720.4 20.9C718.3 22.8 715.5 24 712.6 24C709 24 705.4 22.1 703.3 19.1M873.1 20.9L882.9 11.1M615.7 11.1L605.9 20.9C603.8 22.8 601 24 598.1 24M758.6 20.9L768.4 11.1M692 11.1L682.2 20.9C680.1 22.8 677.3 24 674.4 24C670.8 24 667.2 22.1 665.1 19.1M834.9 20.9L844.7 11.1M660.5 17.6L670.1 8C671.2 6.9 672.8 6.3 674.4 6.3C676.8 6.3 679.1 7.69999 680.1 9.89999M813.2 17.5L822.8 7.89999C823.9 6.79999 825.5 6.2 827.1 6.2C829.5 6.2 831.8 7.6 832.8 9.8M622.3 17.6L631.9 8C633 6.9 634.6 6.3 636.2 6.3C638.6 6.3 640.9 7.69999 641.9 9.89999M775.1 17.5L784.7 7.89999C785.8 6.79999 787.4 6.2 789 6.2C791.4 6.2 793.7 7.6 794.7 9.8M851.4 17.5L861 7.89999C862.1 6.79999 863.7 6.2 865.3 6.2C867.7 6.2 870 7.6 871 9.8M641.4 17.6L651 7.89999M794.1 17.5L803.7 7.8M727.4 7.89999L717.8 17.6C716.4 19 714.5 19.8 712.6 19.8C710 19.8 707.5 18.3 706.3 16M870.5 17.5L880.1 7.8M603.2 17.6L612.9 7.89999M755.9 17.6L765.6 7.89999C766.7 6.79999 768.3 6.2 769.9 6.2C772.3 6.2 774.6 7.6 775.6 9.8M832.3 17.5L841.9 7.89999C843 6.79999 844.6 6.2 846.2 6.2C848.6 6.2 850.9 7.6 851.9 9.8M659.8 17L669.4 7.39999C670.8 6.09999 672.6 5.3 674.5 5.3C677.1 5.3 679.6 6.80001 680.8 9.10001M812.5 17L822.1 7.39999C823.5 6.09999 825.3 5.3 827.2 5.3C829.8 5.3 832.3 6.80001 833.5 9.10001M736.1 17L745.7 7.39999C747.1 6.09999 748.9 5.3 750.8 5.3C753.4 5.3 755.9 6.80001 757.1 9.10001M621.6 17L631.2 7.39999C632.6 6.09999 634.4 5.3 636.3 5.3C638.9 5.3 641.4 6.80001 642.6 9.10001M774.3 17L783.9 7.39999C785.3 6.09999 787.1 5.3 789 5.3C791.6 5.3 794.1 6.80001 795.3 9.10001M697.9 17L707.5 7.39999C708.9 6.09999 710.7 5.3 712.6 5.3C715.2 5.3 717.7 6.80001 718.9 9.10001M850.7 17L860.3 7.39999C861.7 6.09999 863.5 5.3 865.4 5.3C868 5.3 870.5 6.80001 871.7 9.10001M640.7 17L650.3 7.39999C651.7 6.09999 653.5 5.3 655.4 5.3C658 5.3 660.5 6.80001 661.7 9.10001M793.4 17L803 7.39999C804.4 6.09999 806.2 5.3 808.1 5.3C810.7 5.3 813.2 6.80001 814.4 9.10001M717 17L726.6 7.39999C728 6.09999 729.8 5.3 731.7 5.3C734.3 5.3 736.8 6.80001 738 9.10001M869.8 17L879.4 7.39999M602.5 17L612.1 7.39999C613.5 6.09999 615.3 5.3 617.2 5.3C619.8 5.3 622.3 6.80001 623.5 9.10001M755.2 17L764.9 7.39999M678.9 17L688.5 7.39999C689.9 6.09999 691.7 5.3 693.6 5.3C696.2 5.3 698.7 6.80001 699.9 9.10001M831.6 17L841.2 7.39999C842.6 6.09999 844.4 5.3 846.3 5.3C848.9 5.3 851.4 6.80001 852.6 9.10001M656.7 14.1L666.6 4.3M809.5 14.1L819.4 4.3M733.1 14.1L743 4.3M618.6 14.1L628.5 4.3M771.3 14.1L781.2 4.3M694.9 14.1L704.8 4.3M847.6 14.1L857.5 4.3M637.7 14.1L647.5 4.3M790.5 14L800.3 4.2M714.1 14.1L723.9 4.3M866.8 14L876.6 4.2M599.6 14.1L609.4 4.3M752.3 14L762.1 4.2M675.9 14.1L685.7 4.3M828.6 14L838.4 4.2M598.1 14.6C599.3 14.6 600.2 13.7 600.2 12.5C600.2 11.3 599.3 10.4 598.1 10.4M884.4 10.4C883.2 10.4 882.3 11.3 882.3 12.5C882.3 13.7 883.2 14.6 884.4 14.6M603.8 9.89999C602.8 7.69999 600.5 6.3 598.1 6.3M756.5 9.89999C755.5 7.69999 753.2 6.3 750.8 6.3C749.2 6.3 747.6 6.9 746.5 8L736.9 17.6C735.5 19 733.6 19.8 731.7 19.8C729.1 19.8 726.6 18.3 725.4 16M718.3 9.89999C717.3 7.69999 715 6.3 712.6 6.3C711 6.3 709.4 6.9 708.3 8L698.7 17.6C697.3 19 695.4 19.8 693.5 19.8C690.9 19.8 688.4 18.3 687.2 16M661 9.89999C660 7.69999 657.7 6.3 655.3 6.3C653.7 6.3 652.1 6.9 651 8M813.8 9.8C812.8 7.6 810.5 6.2 808.1 6.2C806.5 6.2 804.9 6.79999 803.8 7.89999M737.4 9.89999C736.4 7.69999 734.1 6.3 731.7 6.3C730.1 6.3 728.5 6.9 727.4 8M884.4 6.2C882.8 6.2 881.2 6.79999 880.1 7.89999M622.9 9.89999C621.9 7.69999 619.6 6.3 617.2 6.3C615.6 6.3 614 6.9 612.9 8M699.2 9.89999C698.2 7.69999 695.9 6.3 693.5 6.3C691.9 6.3 690.3 6.9 689.2 8L679.6 17.6C678.2 19 676.3 19.8 674.4 19.8C671.8 19.8 669.3 18.3 668.1 16M598.1 18.8C599.8 18.8 601.4 18.1 602.6 16.9M668.7 15.3C669.7 17.4 672 18.8 674.4 18.8C676.1 18.8 677.7 18.1 678.9 16.9M821.5 15.3C822.5 17.4 824.8 18.8 827.2 18.8C828.9 18.8 830.5 18.1 831.7 16.9M745.1 15.3C746.1 17.4 748.4 18.8 750.8 18.8C752.5 18.8 754.1 18.1 755.3 16.9M630.6 15.3C631.6 17.4 633.9 18.8 636.3 18.8C638 18.8 639.6 18.1 640.8 16.9M783.3 15.3C784.3 17.4 786.6 18.8 789 18.8C790.7 18.8 792.3 18.1 793.5 16.9M706.9 15.3C707.9 17.4 710.2 18.8 712.6 18.8C714.3 18.8 715.9 18.1 717.1 16.9M859.6 15.3C860.6 17.4 862.9 18.8 865.3 18.8C867 18.8 868.6 18.1 869.8 16.9M649.7 15.3C650.7 17.4 653 18.8 655.4 18.8C657.1 18.8 658.7 18.1 659.9 16.9M802.4 15.3C803.4 17.4 805.7 18.8 808.1 18.8C809.8 18.8 811.4 18.1 812.6 16.9M726 15.3C727 17.4 729.3 18.8 731.7 18.8C733.4 18.8 735 18.1 736.2 16.9M878.7 15.3C879.7 17.4 882 18.8 884.4 18.8M611.5 15.3C612.5 17.4 614.8 18.8 617.2 18.8C618.9 18.8 620.5 18.1 621.7 16.9M764.2 15.3C765.2 17.4 767.5 18.8 769.9 18.8C771.6 18.8 773.2 18.1 774.4 16.9M687.8 15.3C688.8 17.4 691.1 18.8 693.5 18.8C695.2 18.8 696.8 18.1 698 16.9M840.6 15.3C841.6 17.4 843.9 18.8 846.3 18.8C848 18.8 849.6 18.1 850.8 16.9M604.4 9.10001C603.2 6.80001 600.7 5.3 598.1 5.3M884.4 5.39999C882.5 5.39999 880.7 6.1 879.3 7.5M776.2 9.10001C775 6.80001 772.5 5.3 769.9 5.3C768 5.3 766.2 6.09999 764.8 7.39999M598.1 19.7C600 19.7 601.9 18.9 603.3 17.5M820.9 16C822.1 18.3 824.6 19.8 827.2 19.8C829.1 19.8 831 19 832.4 17.6M744.5 16C745.7 18.3 748.2 19.8 750.8 19.8C752.7 19.8 754.6 19 756 17.6M630 16C631.2 18.3 633.7 19.8 636.3 19.8C638.2 19.8 640.1 19 641.5 17.6M782.7 16C783.9 18.3 786.4 19.8 789 19.8C790.9 19.8 792.8 19 794.2 17.6M859 16C860.2 18.3 862.7 19.8 865.3 19.8C867.2 19.8 869.1 19 870.5 17.6M649.1 16C650.3 18.3 652.8 19.8 655.4 19.8C657.3 19.8 659.2 19 660.6 17.6M801.8 16C803 18.3 805.5 19.8 808.1 19.8C810 19.8 811.9 19 813.3 17.6M878.1 16C879.3 18.3 881.8 19.8 884.4 19.8M610.9 16C612.1 18.3 614.6 19.8 617.2 19.8C619.1 19.8 621 19 622.4 17.6M763.6 16C764.8 18.3 767.3 19.8 769.9 19.8C771.8 19.8 773.7 19 775.1 17.6M840 16C841.2 18.3 843.7 19.8 846.3 19.8C848.2 19.8 850.1 19 851.5 17.6M817.8 19C819.9 22 823.5 23.9 827.1 23.9C830 23.9 832.8 22.7 834.9 20.8M741.4 19.1C743.5 22.1 747.1 24 750.7 24C753.6 24 756.4 22.8 758.5 20.9M779.7 19C781.8 22 785.4 23.9 789 23.9C791.9 23.9 794.7 22.7 796.8 20.8M856 19C858.1 22 861.7 23.9 865.3 23.9C868.2 23.9 871 22.7 873.1 20.8M798.7 19C800.8 22 804.4 23.9 808 23.9C810.9 23.9 813.7 22.7 815.8 20.8M875.1 19C877.2 22 880.8 23.9 884.4 23.9M607.8 19.1C609.9 22.1 613.5 24 617.1 24C620 24 622.8 22.8 624.9 20.9M760.6 19C762.7 22 766.3 23.9 769.9 23.9C772.8 23.9 775.6 22.7 777.7 20.8M836.9 19C839 22 842.6 23.9 846.2 23.9C849.1 23.9 851.9 22.7 854 20.8M607.5 6.10001C605.4 3.00001 601.8 1.2 598.1 1.2M683.8 6.10001C681.7 3.00001 678.1 1.2 674.4 1.2C671.5 1.2 668.6 2.39999 666.5 4.39999M836.6 6C834.5 2.9 830.9 1.10001 827.2 1.10001C824.3 1.10001 821.4 2.3 819.3 4.3M760.2 6.10001C758.1 3.00001 754.5 1.2 750.8 1.2C747.9 1.2 745 2.39999 742.9 4.39999M645.7 6.10001C643.6 3.00001 640 1.2 636.3 1.2C633.4 1.2 630.5 2.39999 628.4 4.39999M798.4 6C796.3 2.9 792.7 1.10001 789 1.10001C786.1 1.10001 783.2 2.3 781.1 4.3M722 6.10001C719.9 3.00001 716.3 1.2 712.6 1.2C709.7 1.2 706.8 2.39999 704.7 4.39999M874.7 6C872.6 2.9 869 1.10001 865.3 1.10001C862.4 1.10001 859.5 2.3 857.4 4.3M664.8 6.10001C662.7 3.00001 659.1 1.2 655.4 1.2C652.5 1.2 649.6 2.39999 647.5 4.39999M817.5 6C815.4 2.9 811.8 1.10001 808.1 1.10001C805.2 1.10001 802.3 2.3 800.2 4.3M741.1 6.10001C739 3.00001 735.4 1.2 731.7 1.2C728.8 1.2 725.9 2.39999 723.8 4.39999M884.4 1.2C881.5 1.2 878.6 2.4 876.5 4.3M626.6 6.10001C624.5 3.00001 620.9 1.2 617.2 1.2C614.3 1.2 611.4 2.39999 609.3 4.39999M779.3 6C777.2 2.9 773.6 1.10001 769.9 1.10001C767 1.10001 764.1 2.3 762 4.3M702.9 6.10001C700.8 3.00001 697.2 1.2 693.5 1.2C690.6 1.2 687.7 2.39999 685.6 4.39999M855.7 6C853.6 2.9 850 1.10001 846.3 1.10001C843.4 1.10001 840.5 2.3 838.4 4.3M598 24H884.4M598 1H884.4M674.4 14.6C675.6 14.6 676.5 13.7 676.5 12.5C676.5 11.3 675.6 10.4 674.4 10.4C673.2 10.4 672.3 11.3 672.3 12.5C672.3 13.7 673.3 14.6 674.4 14.6ZM827.2 14.6C828.4 14.6 829.3 13.7 829.3 12.5C829.3 11.3 828.4 10.4 827.2 10.4C826 10.4 825.1 11.3 825.1 12.5C825.1 13.7 826 14.6 827.2 14.6ZM750.8 14.6C752 14.6 752.9 13.7 752.9 12.5C752.9 11.3 752 10.4 750.8 10.4C749.6 10.4 748.7 11.3 748.7 12.5C748.7 13.7 749.6 14.6 750.8 14.6ZM636.3 14.6C637.5 14.6 638.4 13.7 638.4 12.5C638.4 11.3 637.5 10.4 636.3 10.4C635.1 10.4 634.2 11.3 634.2 12.5C634.2 13.7 635.1 14.6 636.3 14.6ZM789 14.6C790.2 14.6 791.1 13.7 791.1 12.5C791.1 11.3 790.2 10.4 789 10.4C787.8 10.4 786.9 11.3 786.9 12.5C786.9 13.7 787.8 14.6 789 14.6ZM712.6 14.6C713.8 14.6 714.7 13.7 714.7 12.5C714.7 11.3 713.8 10.4 712.6 10.4C711.4 10.4 710.5 11.3 710.5 12.5C710.5 13.7 711.5 14.6 712.6 14.6ZM865.3 14.6C866.5 14.6 867.4 13.7 867.4 12.5C867.4 11.3 866.5 10.4 865.3 10.4C864.1 10.4 863.2 11.3 863.2 12.5C863.2 13.7 864.2 14.6 865.3 14.6ZM655.4 14.6C656.6 14.6 657.5 13.7 657.5 12.5C657.5 11.3 656.6 10.4 655.4 10.4C654.2 10.4 653.3 11.3 653.3 12.5C653.3 13.7 654.2 14.6 655.4 14.6ZM808.1 14.6C809.3 14.6 810.2 13.7 810.2 12.5C810.2 11.3 809.3 10.4 808.1 10.4C806.9 10.4 806 11.3 806 12.5C806 13.7 806.9 14.6 808.1 14.6ZM731.7 14.6C732.9 14.6 733.8 13.7 733.8 12.5C733.8 11.3 732.9 10.4 731.7 10.4C730.5 10.4 729.6 11.3 729.6 12.5C729.6 13.7 730.6 14.6 731.7 14.6ZM617.2 14.6C618.4 14.6 619.3 13.7 619.3 12.5C619.3 11.3 618.4 10.4 617.2 10.4C616 10.4 615.1 11.3 615.1 12.5C615.1 13.7 616 14.6 617.2 14.6ZM769.9 14.6C771.1 14.6 772 13.7 772 12.5C772 11.3 771.1 10.4 769.9 10.4C768.7 10.4 767.8 11.3 767.8 12.5C767.8 13.7 768.8 14.6 769.9 14.6ZM693.5 14.6C694.7 14.6 695.6 13.7 695.6 12.5C695.6 11.3 694.7 10.4 693.5 10.4C692.3 10.4 691.4 11.3 691.4 12.5C691.4 13.7 692.4 14.6 693.5 14.6ZM846.3 14.6C847.5 14.6 848.4 13.7 848.4 12.5C848.4 11.3 847.5 10.4 846.3 10.4C845.1 10.4 844.2 11.3 844.2 12.5C844.2 13.7 845.1 14.6 846.3 14.6Z" stroke="#151C26" stroke-opacity="0.17" stroke-width="1.57" stroke-miterlimit="22.926"/>
</svg>
