<svg width="30" height="30" viewBox="0 0 30 30" fill="none" xmlns="http://www.w3.org/2000/svg">
<g id="Group 5807">
<path id="Rectangle 5004" d="M1.5 8C1.5 7.17157 2.17157 6.5 3 6.5L27 6.5C27.8285 6.5 28.5 7.17157 28.5 8V13.0503C28.5 13.8101 27.9319 14.4499 27.1774 14.5397L15.1773 15.9683L15.3547 17.4578L15.1773 15.9683C15.0595 15.9823 14.9405 15.9823 14.8227 15.9683L14.6454 17.4578L14.8227 15.9683L2.82268 14.5397C2.06817 14.4499 1.5 13.8101 1.5 13.0503L1.5 8Z" stroke="#189387" stroke-width="3"/>
<g id="Mask group">
<mask id="mask0_222_14240" style="mask-type:alpha" maskUnits="userSpaceOnUse" x="9" y="0" width="12" height="11">
<rect id="Rectangle 5004_2" x="10.5" y="1.5" width="9.00002" height="7.80001" rx="1.5" stroke="#189387" stroke-width="3"/>
</mask>
<g mask="url(#mask0_222_14240)">
<rect id="Rectangle 5005" x="6.59375" y="-4.32031" width="14.4" height="9.72001" fill="#189387"/>
</g>
</g>
<g id="Mask group_2">
<mask id="mask1_222_14240" style="mask-type:alpha" maskUnits="userSpaceOnUse" x="0" y="4" width="30" height="26">
<rect id="Rectangle 5003" x="2.10156" y="6.29688" width="25.8" height="22.2" rx="1.5" stroke="#189387" stroke-width="3"/>
</mask>
<g mask="url(#mask1_222_14240)">
<rect id="Rectangle 5006" x="-3" y="14.3984" width="40.8001" height="15.6" fill="#189387"/>
</g>
</g>
<g id="Rectangle 5007">
<mask id="path-6-inside-1_222_14240" fill="white">
<rect x="11.25" y="12.5" width="7.50001" height="8.75001" rx="1"/>
</mask>
<rect x="11.25" y="12.5" width="7.50001" height="8.75001" rx="1" fill="white" stroke="#189387" stroke-width="6" mask="url(#path-6-inside-1_222_14240)"/>
</g>
</g>
</svg>
