<svg width="13" height="12" viewBox="0 0 13 12" fill="none" xmlns="http://www.w3.org/2000/svg">
<g id="Group 5751">
<path id="Stroke-18" fill-rule="evenodd" clip-rule="evenodd" d="M11.7914 6.77992V9.552C11.7914 10.1043 11.3437 10.552 10.7914 10.552H10.3634C9.81113 10.552 9.36341 10.1043 9.36341 9.552V7.04084C9.36341 6.12208 8.98395 5.49554 8.1489 5.49554C7.50974 5.49554 7.15394 5.91857 6.98934 6.32559C6.92676 6.47293 6.93686 6.67644 6.93686 6.88094V9.552C6.93686 10.1043 6.48914 10.552 5.93686 10.552H5.53629C4.98204 10.552 4.53347 10.1021 4.53575 9.54783C4.54094 8.28619 4.54823 6.12876 4.54378 4.82461C4.54182 4.25061 5.01412 3.76792 5.58812 3.76792H6.79856C6.87494 3.76792 6.93686 3.82984 6.93686 3.90622V3.90622C6.93686 4.06513 7.39515 4.22825 7.52707 4.13965C7.89523 3.89237 8.41946 3.70312 9.07389 3.70312C10.5957 3.70312 11.7914 4.67805 11.7914 6.77992Z" stroke="#151C26" stroke-linejoin="round"/>
<path id="Stroke-19" fill-rule="evenodd" clip-rule="evenodd" d="M1.08594 9.54945C1.08594 10.1017 1.53365 10.5495 2.08594 10.5495H2.22667C2.77895 10.5495 3.22667 10.1017 3.22667 9.54945V4.76562C3.22667 4.21334 2.77895 3.76562 2.22667 3.76562H2.08594C1.53365 3.76562 1.08594 4.21334 1.08594 4.76562V9.54945Z" stroke="#151C26" stroke-linejoin="round"/>
<path id="Stroke-20" fill-rule="evenodd" clip-rule="evenodd" d="M3.19319 1.79899C3.19319 2.41096 2.76968 2.89613 2.09132 2.89613H2.07757C1.42351 2.89613 1 2.41324 1 1.80026C1 1.17539 1.43612 0.703125 2.10393 0.703125C2.76968 0.703125 3.17944 1.17437 3.19319 1.79899Z" stroke="#151C26" stroke-linejoin="round"/>
</g>
</svg>
