<svg width="425" height="360" viewBox="0 0 425 360" fill="none" xmlns="http://www.w3.org/2000/svg">
<circle cx="175" cy="176" r="150" transform="rotate(-180 175 176)" stroke="#EE8842" stroke-width="50"/>
<rect x="425" y="351" width="261" height="350" transform="rotate(-180 425 351)" fill="white"/>
<path d="M232.354 4.81098C228.115 4.10539 221.756 5.28137 219.401 6.92773C224.347 6.92773 230.234 8.5741 231.176 9.98527M237.77 22.4506C225.995 19.6283 222.227 37.2679 203.858 33.5048C206.684 37.5031 213.984 39.855 218.459 37.9735C219.637 41.5014 226.466 41.9718 227.173 38.2087C229.057 41.7366 236.593 40.3254 235.415 35.6215C238.241 38.2087 242.245 36.5623 242.481 33.0344M279.455 21.745C278.984 24.5674 271.919 26.9193 265.325 25.9785M288.875 16.3355C288.404 21.745 274.98 23.6266 262.028 19.8635M252.607 17.0411C257.317 2.92942 282.281 17.5115 298.06 10.6909C294.292 17.5115 276.864 20.3338 262.97 15.8651M256.611 34.2104C243.423 38.4439 234.473 29.0361 238.712 15.6299M241.774 14.9244C233.767 19.1579 226.466 9.27968 234.238 2.45903C240.832 -1.53929 248.604 3.16461 250.252 10.6909C250.959 19.1579 260.85 27.3897 270.035 26.6841C284.636 27.1545 302.299 33.9752 305.361 40.5606C298.531 41.2662 290.759 44.3237 289.582 46.9109C286.285 38.4439 273.096 31.388 263.205 32.564M201.974 85.7181C195.379 89.7164 200.325 99.8298 207.626 94.8907M199.619 104.298C203.387 110.178 214.926 107.121 214.22 100.065M189.727 90.1868C185.959 85.7181 189.021 76.7806 197.028 77.251M201.738 85.9533C186.43 85.0125 187.608 98.4186 178.187 112.53C189.492 105.239 204.564 107.121 208.332 96.0666M215.633 89.4812C213.984 76.5455 232.825 70.9008 242.245 80.5438M205.035 306.096C208.803 308.918 217.046 309.859 221.05 311.27M303.241 342.786C303.006 341.845 300.651 341.14 298.766 341.61C289.817 338.082 286.756 331.026 288.875 326.558M299.473 342.786C302.064 342.786 305.125 344.668 305.596 346.785M298.295 344.433C301.593 345.138 304.654 347.49 304.183 349.136M281.104 325.147C281.104 327.499 279.219 331.967 277.335 333.849C274.274 337.377 276.158 341.14 280.633 340.905C283.694 340.669 287.933 342.786 290.288 345.609C291.701 348.196 293.35 348.666 296.411 349.607C298.531 351.488 301.357 351.253 302.064 349.136C301.593 348.196 298.766 346.549 296.647 345.844M253.785 349.842C255.904 320.678 273.332 317.385 290.995 313.622M254.02 350.783C255.198 344.197 257.317 339.493 259.437 335.73C270.27 317.15 283.694 328.674 297.824 327.263C294.292 326.087 290.288 322.795 290.053 320.678C294.056 323.5 302.77 324.911 307.48 323.5C304.419 322.559 300.415 319.502 299.708 317.385C305.125 320.678 313.839 321.854 316.665 319.267C314.31 319.032 310.071 316.68 309.129 315.033C315.487 317.856 324.201 316.444 326.556 311.74C324.201 312.681 319.491 311.976 317.607 310.8C325.614 309.859 331.266 304.685 331.266 299.51C329.618 302.097 324.672 305.155 320.904 304.685C337.86 297.629 327.498 271.993 340.922 273.404M236.357 344.668C237.064 344.197 241.068 343.492 241.774 345.373M251.665 126.407C226.466 120.997 206.448 162.862 240.597 172.505C237.535 179.09 231.412 180.737 227.879 178.385C230.47 184.5 221.756 186.382 219.637 181.442C219.872 186.617 212.571 188.498 210.216 182.618M227.644 295.512C227.879 296.453 227.879 299.51 227.408 301.627C226.937 303.509 225.289 305.861 224.111 307.037C221.05 310.329 217.988 316.68 218.223 323.265C218.459 326.323 215.633 334.319 212.571 339.023C207.861 345.609 209.981 351.018 216.575 349.607C219.401 348.666 225.995 348.431 229.528 349.136C233.06 351.018 237.77 351.724 238.948 350.077C241.774 351.018 244.365 350.077 244.129 348.666C242.01 347.255 238.241 346.549 236.122 347.02M224.582 306.096C225.76 305.861 213.749 295.747 212.807 294.806C213.749 297.394 214.926 301.627 214.926 303.509C213.278 298.57 207.861 291.749 204.093 290.102C205.271 293.395 205.977 297.629 205.742 298.57C204.8 293.395 198.676 285.399 193.495 282.811C195.85 286.339 197.263 292.219 196.321 294.336C190.198 276.932 178.423 279.989 176.068 258.116C175.597 266.348 169.945 287.751 181.249 293.866C178.658 294.571 174.655 292.219 173.006 288.927C172.771 295.747 179.129 303.509 185.488 304.449C184.546 305.155 180.307 304.92 177.01 303.744C179.13 308.683 188.785 312.211 195.85 310.8C195.379 312.211 191.14 313.622 187.608 313.622C192.082 317.15 202.209 317.62 207.861 314.563C207.39 316.444 204.329 319.031 201.503 319.502C208.332 322.559 216.81 321.383 218.223 320.443M234.709 318.326C238.477 319.972 245.307 327.734 248.368 334.084M234.709 318.326C235.651 315.974 239.89 310.094 242.952 307.037C246.013 303.744 247.426 297.629 245.778 294.806M234.709 318.326C233.06 321.854 226.937 331.732 221.992 338.082C220.814 340.669 222.227 342.316 225.995 342.081C229.763 341.61 234.709 344.197 238.006 345.138C240.126 344.903 243.658 345.138 243.423 347.49M231.647 323.735C241.303 325.617 252.372 339.023 253.314 350.783M237.064 314.328C245.542 319.502 253.785 337.612 253.549 350.783M298.06 300.216C303.712 286.575 303.241 267.524 297.589 258.351C294.527 252.706 279.691 246.121 264.854 243.299M276.629 270.111C276.864 271.992 280.633 275.05 283.93 277.637C285.343 278.813 286.285 280.46 286.285 282.576C286.285 283.987 286.049 285.399 284.872 287.045C282.281 290.573 281.339 297.629 282.988 303.038M253.549 350.077C251.901 331.967 260.85 310.564 271.212 307.037C269.799 309.153 268.386 313.152 268.622 315.268C272.625 304.685 281.104 304.214 288.64 300.921C285.343 303.273 281.81 307.742 281.104 310.329C285.578 303.038 294.998 302.333 301.828 298.805C299.473 301.157 296.882 305.625 296.647 307.272C300.18 303.038 307.716 296.923 311.719 295.042C309.835 297.394 308.658 301.627 309.364 303.273C312.426 292.219 322.553 301.627 332.915 276.226C335.034 269.17 344.219 270.346 343.984 274.109C344.219 276.461 341.864 277.402 340.451 276.932C338.802 276.461 337.86 274.344 340.216 272.698M297.353 182.618C301.828 200.964 324.437 210.371 342.335 201.434C338.331 209.431 329.147 214.84 323.966 211.783C326.556 216.722 318.549 221.19 315.487 215.075C316.194 219.544 311.719 222.131 308.658 221.19C311.719 217.192 310.542 211.783 305.832 210.371C301.828 208.725 297.589 211.783 296.647 215.781C295.705 220.955 300.18 224.483 306.303 223.072C305.596 225.894 304.654 228.246 302.77 229.657C300.651 231.304 297.589 231.539 295.234 230.128C298.06 235.537 290.053 240.476 286.285 235.302C284.401 241.888 276.629 244.004 265.325 243.769M291.23 103.828C292.408 100.3 293.114 94.1851 292.408 91.8331M287.933 103.122C289.111 100.771 290.053 94.8907 289.346 91.5979M286.049 90.1868C286.756 92.7739 286.285 97.4778 285.107 99.5946C284.401 101.241 283.694 102.887 283.459 105.945C282.517 106.18 281.104 104.534 281.104 100.771C281.575 98.4186 280.633 95.8314 279.455 95.8314C277.571 102.887 279.455 113.706 283.459 117.469C286.991 119.821 291.937 125.466 291.466 131.346C291.23 143.576 291.701 159.334 293.114 166.155C292.879 165.684 290.053 165.92 288.169 165.92M288.169 165.92C286.756 167.801 286.049 172.27 286.285 177.914C287.462 200.493 280.868 213.899 273.803 223.307C266.031 232.95 251.194 239.3 243.423 235.302M288.169 165.92C289.111 164.273 290.759 164.273 292.408 165.92M262.97 154.395C265.56 155.806 268.151 154.63 268.151 152.278M263.676 120.762C268.622 122.173 274.745 127.583 276.158 131.816M259.672 121.468C259.437 122.879 261.792 124.996 264.618 125.466C268.386 126.172 273.332 131.816 274.509 136.755M286.285 135.344C287.227 143.576 282.281 154.63 276.393 158.158M282.988 130.17C284.872 136.991 280.162 148.515 273.332 153.454M279.69 126.877C281.575 133.463 277.335 143.576 271.212 146.869M276.158 124.29C277.806 130.405 275.216 138.637 270.741 140.754M218.459 93.7147C218.223 94.6555 217.281 95.1259 216.339 95.1259C213.042 95.1259 212.1 89.246 217.517 89.0108C221.521 89.246 223.405 93.2443 221.521 97.0074C219.166 101.241 213.042 101.711 209.51 98.1834C205.977 94.8907 206.448 88.7756 209.745 85.2477C204.329 87.8348 198.912 85.7181 197.499 81.0142C195.615 76.3103 199.148 71.3712 203.858 70.9008C208.097 70.9008 210.923 74.4287 209.274 77.9566C206.448 82.4253 201.503 79.3678 202.916 76.3103C203.387 75.3695 204.564 74.8991 205.506 75.1343M255.669 103.828C257.082 106.415 260.85 105.474 261.086 101.947C261.086 100.3 260.144 99.1242 258.966 98.4186C257.788 97.713 256.375 97.9482 255.198 98.1834C253.314 98.889 251.665 100.535 250.252 103.593C247.426 108.532 245.542 110.649 242.481 112.765C244.6 117.469 253.078 122.173 258.495 121.938M247.191 80.0734C250.723 85.2477 251.901 92.0683 250.723 98.1834C253.078 94.6555 258.495 93.9499 261.557 97.0074C264.854 99.8298 264.383 105.004 261.086 107.121C259.437 107.826 257.788 107.826 256.611 107.356C255.433 106.886 254.491 105.71 254.256 104.298C254.02 100.065 259.201 100.3 259.201 103.122C258.966 105.004 257.317 105.474 255.904 104.298M205.977 79.8382C210.452 80.3086 221.992 66.6673 238.006 73.0175C240.597 73.9583 242.952 75.3695 244.6 77.0158M196.086 180.031C194.908 180.031 192.318 179.796 193.26 175.327C189.727 180.737 182.662 176.503 186.666 170.623C180.778 173.446 177.245 165.684 182.898 163.332C177.01 163.568 176.539 156.041 182.191 154.865C177.716 149.456 182.427 140.518 190.905 138.637C184.311 147.339 191.847 156.982 202.916 152.513C208.332 150.397 215.397 142.4 222.934 133.227C228.35 126.642 239.89 121.938 247.426 122.644C242.245 120.527 238.477 115.117 236.122 109.238C233.531 102.182 224.818 102.182 223.876 108.062C223.405 112.06 228.115 113.471 229.999 110.649C228.35 112.06 226.466 111.59 226.231 109.473C226.466 106.18 232.354 105.71 231.883 110.649C231.412 114.177 227.408 115.823 223.876 114.177C219.872 111.825 219.401 105.71 223.169 102.417C226.702 98.889 233.296 99.8298 235.886 103.828C233.531 92.3035 241.068 77.4862 250.252 72.7823C252.136 71.6064 256.846 69.2544 261.086 68.3136C264.383 67.3728 267.209 65.7265 268.857 63.6097C271.212 60.5522 270.27 56.3187 266.502 55.8483C262.97 55.8483 261.557 59.141 264.147 60.7874M292.879 60.7874C290.759 60.7874 290.053 57.4947 292.643 56.5539C295.469 56.0835 297.353 57.965 297.118 60.317C297.118 62.9041 294.998 64.5505 291.701 65.4913C289.346 66.1969 286.52 66.1969 283.93 66.1969C279.219 65.9617 274.274 66.1969 270.741 66.6673C273.567 64.5505 274.509 59.141 271.683 55.6131C268.857 52.3204 263.912 52.5556 261.557 55.8483C259.908 58.6706 261.086 62.1986 264.147 62.9041C268.386 63.3745 268.386 58.2002 265.56 57.965C263.912 57.965 262.734 59.3762 263.912 60.7874M288.404 79.1326C285.814 79.603 285.814 82.8957 288.875 83.8365C292.408 84.5421 294.292 82.4253 294.056 79.3678C294.056 75.3695 286.049 71.6064 278.277 71.136C270.27 69.96 257.317 72.0767 252.136 75.6047C241.539 81.2493 235.886 97.9482 240.361 108.767C247.426 103.122 249.31 89.9516 244.129 82.6605M301.828 88.07C307.48 91.8331 315.252 88.07 314.074 81.2494M308.187 54.4371C314.074 52.5556 318.784 58.9058 315.723 63.3745M304.654 80.779C310.306 82.6605 316.665 80.779 323.495 76.7806C326.556 75.1343 331.031 73.2527 336.447 73.0175C331.266 72.3119 325.379 69.96 323.024 68.3136C316.429 63.3745 309.6 60.317 303.948 62.1986M301.828 64.5505C310.071 63.8449 311.013 74.4287 303.712 74.6639M292.879 68.0784C303.477 67.8432 311.484 54.6723 308.893 41.2662C307.716 48.0869 300.651 51.3796 291.701 50.674C286.049 50.2036 283.459 54.4371 283.223 57.965C282.988 61.493 285.814 65.7265 291.937 65.4913M293.114 76.7806C287.227 71.6064 279.219 76.7806 281.339 84.5421C283.223 90.6571 290.759 93.0091 297.589 90.8923C308.893 86.6588 306.774 69.0192 293.114 68.0784M286.52 184.265C294.527 184.265 305.125 181.207 307.48 178.385C309.129 177.679 310.542 174.857 310.071 172.505C311.484 163.803 304.654 139.813 296.411 124.525C293.821 121.468 293.585 112.295 295.234 105.71C296.411 102.417 296.176 95.1259 295.705 91.1275M253.549 195.084C258.73 191.321 263.441 183.089 265.325 177.914C269.328 166.39 276.393 158.629 279.69 162.156M252.136 125.936C251.665 128.288 254.727 130.875 259.201 131.816C264.618 133.227 267.444 139.343 267.209 146.398C266.973 153.454 271.448 160.98 275.922 161.921C270.741 160.275 262.97 168.742 258.966 178.62C256.611 184.03 252.136 188.733 248.604 189.909M253.549 175.092C234.002 181.913 240.832 209.901 262.97 202.845M241.068 210.371C244.365 213.899 253.314 212.488 258.966 207.314C265.56 202.14 271.448 186.617 272.625 176.503C274.98 163.568 279.926 159.334 284.165 162.862M210.687 237.419C213.749 235.772 216.81 240.241 213.984 243.299C212.571 244.71 210.923 244.945 208.803 244.71C206.684 244.239 204.8 242.828 204.093 240.241C202.445 234.832 206.448 230.128 211.865 229.422C220.108 228.717 226.702 236.243 225.053 245.886M208.568 251.295C212.807 253.412 218.694 251.295 220.343 246.356C222.463 239.065 217.752 232.715 210.687 234.126C206.919 235.067 206.213 240.006 209.039 241.652C209.745 241.888 210.452 242.123 211.394 242.123C213.749 241.652 214.22 238.83 212.807 237.654C212.336 237.419 211.629 237.184 210.923 237.419M230.705 209.901C232.589 218.603 232.589 233.185 230.705 239.536M226.466 275.05C220.343 272.228 217.517 263.761 219.401 255.764C220.343 252.001 221.756 249.179 225.289 245.651C234.002 237.654 241.539 224.718 240.126 220.014M264.618 250.355C269.328 254.823 268.622 265.172 262.97 272.228C259.673 276.461 256.14 279.048 251.665 280.93C246.013 283.282 238.948 283.752 232.354 283.752C221.756 283.517 214.22 290.808 216.81 298.334M255.669 245.651C262.028 255.529 258.259 270.816 246.484 275.285C242.245 277.167 234.944 278.813 232.118 279.519M264.383 243.534C271.448 246.591 275.922 258.351 273.332 267.053M248.604 251.06C252.607 254.353 252.136 263.055 246.955 267.524C242.952 272.228 230.941 274.58 225.053 275.05C217.752 275.991 214.455 283.517 218.223 290.102M230.47 256.94C229.528 260.468 231.883 263.055 236.122 261.879C239.419 260.938 240.361 256.47 238.241 253.177M194.673 277.637C205.271 277.637 210.216 268.7 204.564 259.527C200.561 253.882 197.028 248.473 196.792 242.593C196.321 236.948 198.205 231.539 203.387 227.305C213.042 220.25 228.586 224.483 230.941 239.3M214.691 251.766C216.339 255.529 216.575 259.527 216.104 262.82C214.926 271.993 206.684 278.578 194.673 277.402M242.481 252.236C245.307 254.823 246.013 262.585 241.774 266.818C237.535 270.581 231.412 270.111 228.586 266.348C225.053 261.174 226.702 254.588 231.412 250.825C234.238 248.473 236.357 247.767 238.948 247.062C243.894 245.651 249.781 245.18 253.785 245.651C259.437 246.591 268.151 242.593 271.919 238.83C282.988 228.246 290.995 210.371 291.701 195.319C291.937 189.439 291.23 185.206 290.995 184.03M222.463 294.336C225.053 290.573 234.473 288.927 244.365 290.102C250.488 290.808 256.375 290.808 259.201 287.515M225.053 305.861C221.756 303.509 222.227 298.805 225.995 296.688C229.763 293.395 240.832 294.101 248.133 295.277C252.607 295.982 258.259 295.277 262.263 292.925C265.796 290.808 268.151 287.28 269.328 284.458C275.451 268.229 290.053 252.236 294.763 255.294M212.1 158.629C210.216 164.979 206.919 171.329 201.738 175.327C196.321 178.855 190.434 184.97 190.434 188.969C191.611 187.322 194.673 185.206 196.557 184.735C192.553 187.322 189.727 193.673 191.14 197.671C191.847 195.789 193.966 193.673 195.615 193.202C193.024 196.025 191.847 202.14 192.553 205.432C193.26 203.551 195.144 201.434 196.321 200.964C193.495 204.492 196.557 210.371 196.321 213.899C197.97 210.842 203.622 205.668 201.974 200.964C203.858 203.08 203.858 206.608 203.387 207.784C206.919 204.256 208.803 197.436 206.919 194.143C208.332 195.319 208.803 197.436 209.274 198.847C213.749 187.557 206.684 175.563 209.51 170.388M264.147 169.447C263.676 169.447 262.734 169.447 262.028 169.683C242.01 171.799 226.231 190.85 230.234 208.725C234.709 222.602 251.194 226.835 262.734 217.192C270.506 210.842 277.1 195.319 277.806 181.913C278.748 166.39 284.165 158.158 288.404 165.684M245.542 149.456C246.013 151.102 244.836 152.043 242.952 151.337C241.774 150.161 240.126 149.221 239.655 149.456C238.241 149.221 238.006 147.339 239.419 145.458C241.303 142.4 244.836 138.637 246.955 137.696C245.778 135.579 246.955 132.287 249.075 131.111C253.078 121.703 266.031 117.94 274.98 123.349C290.759 132.287 294.056 151.573 281.104 161.216C279.69 160.98 278.042 159.569 276.629 158.158C273.567 154.865 271.212 149.456 271.212 144.282C271.212 137.226 265.796 129.229 260.379 128.759C257.788 128.288 255.433 125.936 255.669 123.584M248.133 140.283C252.843 139.578 257.317 143.341 257.082 148.045C252.136 148.515 247.426 145.693 247.897 142.4M249.075 136.755C253.314 134.168 258.966 138.402 260.615 145.458M241.303 150.161C241.539 150.632 241.068 152.513 239.89 153.689C239.419 154.865 240.126 155.336 241.303 155.101C244.129 155.806 243.658 158.629 241.068 158.864C238.948 158.393 238.477 160.275 240.361 163.097C239.655 173.446 250.252 172.27 262.028 160.98C262.734 160.275 262.97 158.158 262.734 157.923M239.89 3.635C241.539 3.635 242.952 5.04617 242.952 6.69254C242.952 8.3389 241.539 9.75007 239.89 9.75007C238.241 9.75007 236.828 8.3389 236.828 6.69254C236.828 4.81098 238.241 3.635 239.89 3.635Z" stroke="#292526" stroke-width="1.62" stroke-miterlimit="22.926"/>
<path fill-rule="evenodd" clip-rule="evenodd" d="M388.276 4L382.956 9.31827L378.985 5.18965L378.753 4.94884H378.419L357.781 4.94884H356.996L356.996 5.73384L356.996 26.0032L356.996 26.3284L357.226 26.5583L361.378 30.7085L357.226 34.8587L356.996 35.0887L356.996 35.4139L356.996 56.0452L356.996 56.8302H357.781L378.057 56.8302H378.382L378.612 56.6004L382.764 52.4498L388.533 58.2169L382.867 63.8808L378.985 59.8445L378.753 59.6036H378.419L357.781 59.6036H356.996L356.996 60.3886L356.996 80.658L356.996 80.9855L357.229 81.2159L361.398 85.3429L357.226 89.5135L356.996 89.7435L356.996 90.0687L356.996 110.7L356.996 111.485H357.781H378.057H378.382L378.612 111.255L382.855 107.014L388.533 112.691L382.867 118.355L378.985 114.318L378.753 114.077H378.419H357.781H356.996L356.996 114.862L356.996 135.132L356.996 135.459L357.229 135.69L361.398 139.817L357.226 143.987L356.996 144.217L356.996 144.543L356.996 165.174L356.996 165.959H357.781H378.057H378.382L378.612 165.729L382.764 161.578L388.533 167.346L382.956 172.921L378.985 168.792L378.753 168.551H378.419H357.781H356.996L356.996 169.336L356.996 189.606L356.996 189.933L357.229 190.164L361.398 194.291L357.226 198.461L356.996 198.691L356.996 199.016L356.996 219.648L356.996 220.433H357.781H378.057H378.382L378.612 220.203L382.764 216.052L388.533 221.819L382.956 227.395L378.985 223.266L378.753 223.025H378.419H357.781H356.996L356.996 223.81L356.996 244.079L356.996 244.407L357.229 244.637L361.398 248.764L357.226 252.935L356.996 253.165L356.996 253.49L356.996 273.941L356.996 274.726H357.781H378.057H378.382L378.612 274.496L382.674 270.436L388.533 276.293L382.867 281.957L378.985 277.921L378.753 277.68H378.419H357.781H356.996L356.996 278.465L356.996 298.734L356.996 299.062L357.229 299.292L361.398 303.419L357.226 307.59L356.996 307.82L356.996 308.145L356.996 328.776V329.561H357.781H378.057H378.382L378.612 329.332L382.855 325.09L388.533 330.767L382.956 336.342L378.985 332.214L378.753 331.973H378.419H357.781H356.996V332.758V353.027V353.352L357.226 353.582L362.657 359.012L363.767 357.901L358.566 352.702L358.566 333.543H378.085L381.846 337.452L376.156 343.14L374.991 341.975L374.753 341.737L374.416 341.746L367.356 341.927L366.591 341.946V342.712V349.227V349.552L366.821 349.782L376.235 359.193L377.345 358.082L377.267 358.004L382.934 352.338L386.905 356.467L387.137 356.708H387.471H408.109H408.894V355.923V335.653V335.326L408.661 335.096L404.037 330.518L408.483 326.074L408.713 325.844V325.519V305.249V304.464H407.928H387.652H387.327L387.097 304.694L382.764 309.026L377.267 303.53L382.934 297.865L386.905 301.993L387.137 302.234H387.471H408.109H408.894V301.449V281.18V280.852L408.661 280.622L404.037 276.044L408.483 271.6L408.713 271.37V271.045V250.776V249.991H407.928H387.652H387.327L387.097 250.22L382.855 254.461L377.267 248.875L382.934 243.21L386.905 247.338L387.137 247.579H387.471H408.109H408.894V246.794L408.894 226.525V226.197L408.661 225.967L404.128 221.48L408.483 217.126L408.713 216.896V216.571V196.302V195.517H407.928H387.652H387.327L387.097 195.747L382.855 199.988L377.267 194.401L382.934 188.736L386.905 192.864L387.137 193.105H387.471H408.109H408.894V192.32V172.051V171.723L408.661 171.493L404.037 166.916L408.483 162.471L408.713 162.242V161.916V141.647V140.862H407.928H387.652H387.327L387.097 141.092L382.764 145.423L377.267 139.928L382.934 134.262L386.905 138.391L387.137 138.631H387.471H408.109H408.894V137.846V117.577V117.25L408.661 117.019L404.037 112.442L408.483 107.998L408.713 107.768V107.442L408.713 87.1731V86.3881H407.928H387.652H387.327L387.097 86.618L382.764 90.9495L377.267 85.4538L382.934 79.7882L386.905 83.9168L387.137 84.1576H387.471H408.109H408.894V83.3726V63.1033V62.7758L408.661 62.5454L404.128 58.0582L408.483 53.7048L408.713 53.4748V53.1496V32.6993V31.9143H407.928H387.652H387.327L387.097 32.1441L382.855 36.3852L377.267 30.799L382.934 25.1334L386.905 29.262L387.137 29.5028H387.471H408.109H408.894V28.7178V8.44849V8.12097L408.661 7.89058L404.731 4H402.499L407.324 8.77599V27.9328H387.805L384.045 24.0232L389.553 18.5168L390.899 19.8622L391.137 20.1004L391.474 20.0918L398.534 19.9108L399.299 19.8912V19.1261L399.299 12.6109V12.2857L399.069 12.0558L391.011 4H388.276ZM391.771 18.5137L390.663 17.4068L396.432 11.6397L397.729 12.9362V18.3609L391.771 18.5137ZM389.644 4.85307L395.322 10.5297L376.156 29.6891L370.478 24.0124L389.644 4.85307ZM375.136 17.1353L369.367 22.9024L368.161 21.6965V16.2717L374.12 16.1189L375.136 17.1353ZM381.846 10.4284L376.247 16.0254L374.991 14.7704L374.753 14.5322L374.416 14.5408L367.356 14.7218L366.591 14.7414V15.5065V22.0217V22.3469L366.821 22.5769L381.744 37.4951L376.066 43.1718L358.566 25.6779L358.566 6.51884L378.085 6.51884L381.846 10.4284ZM369.255 38.5836L374.955 44.2818L373.749 45.4875H367.98V39.7428L369.255 38.5836ZM362.488 31.8185L368.144 37.4724L366.667 38.8145L366.41 39.0481V39.3954V46.2725V47.0575H367.195H374.074H374.399L374.629 46.8277L387.977 33.4843H407.143V52.8244L403.013 56.9537L397.397 51.395L399.25 49.5423L399.48 49.3124V48.9871V42.472V41.687H398.695H391.635H391.31L391.08 41.9168L377.732 55.2602L358.566 55.2602L358.566 35.7391L362.488 31.8185ZM397.91 48.6619L396.281 50.2905L390.575 44.6419L391.96 43.257H397.91V48.6619ZM383.874 51.3398L389.464 45.7518L407.324 63.4308V82.5876H387.805L384.045 78.678L389.644 73.0811L390.899 74.336L391.137 74.5742L391.474 74.5656L398.534 74.3846L399.299 74.3651V73.5999V67.0847V66.7595L399.069 66.5296L383.874 51.3398ZM391.771 72.9875L390.754 71.9711L396.523 66.204L397.729 67.41V72.8348L391.771 72.9875ZM389.644 59.3269L395.413 65.094L376.156 84.3439L370.387 78.5767L389.644 59.3269ZM375.046 71.6996L369.277 77.4668L368.161 76.3513V70.9265L374.12 70.7738L375.046 71.6996ZM381.757 64.991L376.156 70.5897L374.991 69.4252L374.753 69.187L374.416 69.1956L367.356 69.3766L366.591 69.3962V70.1613V76.6765V77.0017L366.821 77.2317L381.654 92.0595L376.062 97.6492L358.566 80.3305L358.566 61.1736L378.085 61.1736L381.757 64.991ZM369.222 93.0877L374.952 98.7592L373.749 99.9613H367.98V94.2166L369.222 93.0877ZM362.514 86.4474L368.105 91.9816L366.667 93.2883L366.41 93.5219V93.8692V100.746V101.531H367.195H374.074H374.399L374.629 101.302L387.977 87.9581H407.143L407.143 107.117L402.922 111.337L397.488 105.959L399.25 104.197L399.48 103.967V103.642V97.1268V96.3418H398.695H391.635H391.31L391.08 96.5717L377.732 109.915H358.566L358.566 90.394L362.514 86.4474ZM397.91 103.317L396.372 104.854L390.666 99.2057L391.96 97.9118H397.91V103.317ZM383.965 105.904L389.555 100.316L407.324 117.905V137.061H387.805L384.045 133.152L389.644 127.555L390.899 128.81L391.137 129.048L391.474 129.039L398.534 128.858L399.299 128.839V128.074V121.559V121.233L399.069 121.003L383.965 105.904ZM391.771 127.461L390.754 126.445L396.523 120.678L397.729 121.884V127.309L391.771 127.461ZM389.644 113.801L395.413 119.568L376.156 138.818L370.387 133.051L389.644 113.801ZM375.046 126.173L369.277 131.941L368.161 130.825V125.4L374.12 125.248L375.046 126.173ZM381.757 119.465L376.156 125.064L374.991 123.899L374.753 123.661L374.416 123.669L367.356 123.85L366.591 123.87V124.635V131.15V131.476L366.821 131.706L381.654 146.533L376.062 152.123L358.566 134.804L358.566 115.647H378.085L381.757 119.465ZM369.222 147.562L374.952 153.233L373.749 154.435H367.98V148.69L369.222 147.562ZM362.514 140.921L368.105 146.455L366.667 147.762L366.41 147.996V148.343V155.22V156.005H367.195H374.074H374.399L374.629 155.775L387.977 142.432H407.143V161.591L402.922 165.811L397.488 160.433L399.25 158.671L399.48 158.441V158.116V151.601V150.816H398.695H391.635H391.31L391.08 151.045L377.732 164.389H358.566L358.566 144.868L362.514 140.921ZM397.91 157.791L396.372 159.328L390.666 153.68L391.96 152.386H397.91V157.791ZM383.874 160.468L389.555 154.79L407.324 172.378V191.535H387.805L384.045 187.626L389.553 182.119L390.899 183.465L391.137 183.703L391.474 183.694L398.534 183.513L399.299 183.494V182.729V176.213V175.888L399.069 175.658L383.874 160.468ZM391.771 182.116L390.663 181.009L396.432 175.242L397.729 176.539V181.963L391.771 182.116ZM389.644 168.456L395.322 174.132L376.156 193.292L370.478 187.615L389.644 168.456ZM375.136 180.738L369.367 186.505L368.161 185.299V179.874L374.12 179.721L375.136 180.738ZM381.846 174.031L376.247 179.628L374.991 178.373L374.753 178.135L374.416 178.143L367.356 178.324L366.591 178.344V179.109V185.624V185.949L366.821 186.179L381.744 201.098L376.153 206.687L358.566 189.278L358.566 170.121H378.085L381.846 174.031ZM369.318 202.13L375.043 207.797L373.749 209.09H367.98V203.345L369.318 202.13ZM362.514 195.395L368.2 201.024L366.667 202.417L366.41 202.651V202.998V209.875V210.66H367.195H374.074H374.399L374.629 210.43L387.977 197.087H407.143V216.246L403.012 220.375L397.488 214.907L399.25 213.145L399.48 212.915V212.59V206.074V205.289H398.695H391.635H391.31L391.08 205.519L377.732 218.863H358.566L358.566 199.342L362.514 195.395ZM397.91 212.264L396.372 213.802L390.666 208.153L391.96 206.859H397.91V212.264ZM383.874 214.942L389.555 209.263L407.324 226.852L407.324 246.009H387.805L384.045 242.1L389.553 236.593L390.899 237.939L391.137 238.177L391.474 238.168L398.534 237.987L399.299 237.967V237.202V230.687V230.362L399.069 230.132L383.874 214.942ZM391.771 236.59L390.663 235.483L396.432 229.716L397.729 231.012V236.437L391.771 236.59ZM389.644 222.929L395.322 228.606L376.156 247.765L370.478 242.089L389.644 222.929ZM375.136 235.212L369.367 240.979L368.161 239.773V234.348L374.12 234.195L375.136 235.212ZM381.846 228.505L376.247 234.102L374.991 232.847L374.753 232.609L374.416 232.617L367.356 232.798L366.591 232.818V233.583V240.098V240.423L366.821 240.653L381.744 255.571L376.153 261.161L358.566 243.752L358.566 224.595H378.085L381.846 228.505ZM369.318 256.604L375.043 262.271L373.749 263.564H367.98V257.819L369.318 256.604ZM362.514 249.869L368.2 255.497L366.667 256.891L366.41 257.124V257.472V264.349V265.134H367.195H374.074H374.399L374.629 264.904L387.977 251.561H407.143V270.72L402.922 274.94L397.306 269.381L399.25 267.438L399.48 267.208V266.882V260.367V259.582H398.695H391.635H391.31L391.08 259.812L377.732 273.156H358.566L358.566 253.815L362.514 249.869ZM397.91 266.557L396.19 268.277L390.484 262.628L391.96 261.152H397.91V266.557ZM383.784 269.326L389.373 263.738L407.324 281.507V300.664H387.805L384.045 296.754L389.644 291.157L390.899 292.412L391.137 292.651L391.474 292.642L398.534 292.461L399.299 292.441V291.676V285.161V284.836L399.069 284.606L383.784 269.326ZM391.771 291.064L390.754 290.047L396.523 284.28L397.729 285.486V290.911L391.771 291.064ZM389.644 277.403L395.413 283.17L376.156 302.42L370.387 296.653L389.644 277.403ZM375.046 289.776L369.277 295.543L368.161 294.428V289.003L374.12 288.85L375.046 289.776ZM381.757 283.067L376.156 288.666L374.991 287.502L374.753 287.263L374.416 287.272L367.356 287.453L366.591 287.473V288.238V294.753V295.078L366.821 295.308L381.654 310.136L376.062 315.726L358.566 298.407L358.566 279.25H378.085L381.757 283.067ZM369.222 311.164L374.952 316.836L373.749 318.038H367.98V312.293L369.222 311.164ZM362.514 304.524L368.105 310.058L366.667 311.365L366.41 311.598V311.946V318.823V319.608H367.195H374.074H374.399L374.629 319.378L387.977 306.034H407.143V325.194L402.922 329.414L397.488 324.035L399.25 322.273L399.48 322.044V321.718L399.48 315.203V314.418H398.695H391.635H391.31L391.08 314.648L377.732 327.991H358.566L358.566 308.47L362.514 304.524ZM397.91 321.393L396.372 322.931L390.666 317.282L391.96 315.988H397.91L397.91 321.393ZM383.965 323.98L389.555 318.392L407.324 335.981V355.138H387.805L384.045 351.228L389.643 345.631L390.899 346.886L391.137 347.124L391.474 347.116L398.534 346.935L399.299 346.915V346.15V339.635V339.31L399.069 339.08L383.965 323.98ZM391.771 345.538L390.754 344.521L396.523 338.754L397.729 339.96L397.729 345.385L391.771 345.538ZM389.644 331.877L395.413 337.644L376.156 356.894L370.387 351.127L389.644 331.877ZM375.046 344.25L369.277 350.017L368.161 348.901V343.477L374.12 343.324L375.046 344.25Z" fill="#EE8842"/>
</svg>
