<svg width="425" height="356" viewBox="0 0 425 356" fill="none" xmlns="http://www.w3.org/2000/svg">
<circle cx="175" cy="180" r="150" transform="rotate(-180 175 180)" stroke="#DD264E" stroke-width="50"/>
<rect x="425" y="355" width="261" height="350" transform="rotate(-180 425 355)" fill="white"/>
<path d="M95.3482 175.15C102.337 177.147 110.34 178.333 119.362 178.705M254.887 222.928C253.94 216.859 253.042 210.208 252.239 203.686C253.114 201.936 256.141 201.805 257.073 203.76C259.005 211.175 259.759 217.627 260.609 223.01C270.345 219.692 279.028 223.282 278.113 231.24C272.77 229.021 266.858 232.339 259.833 234.44C252.807 236.538 243.649 237.724 237.101 232.662C226.452 237.773 227.638 254.298 241.884 257.244C269.909 261.508 293.904 259.551 313.56 251.243M249.188 223.029C248.396 217.011 247.218 210.183 246.668 203.762C247.542 202.012 251.002 201.841 252.239 203.644M242.725 223.434C241.933 217.416 241.06 210.487 240.512 204.066C241.386 202.316 245.151 201.816 246.769 203.899M236.999 232.764C235.576 223.552 234.692 214.071 234.355 204.319C235.228 202.569 238.995 202.069 240.613 204.152M220.33 156.829C214.635 186.95 216.364 212.882 225.31 235.44M184.999 182.988C191.682 196.058 196.669 206.284 199.959 213.666M223.602 99.4416C223.941 91.3321 224.541 84.2885 224.933 77.0042M189.96 119.365C183.283 118.688 179.565 118.544 173.568 117.974M254.097 118.466C260.575 117.636 266.782 116.703 272.72 115.671M216.845 99.982C215.296 90.5321 214.676 85.2615 213.669 78.0997M190.896 124.741C182.811 125.303 178.565 125.596 172.621 126.179M254.198 123.952C262.303 123.884 268.919 124.019 274.042 124.357M218.378 146.06C222.55 147.008 225.876 146.856 229.42 145.604M201.145 119.137C203.217 116.67 206.265 116.115 208.907 115.963C214.718 115.623 220.133 119.561 219.925 125.843C219.859 129.598 219.925 134.012 219.817 138.873C220.728 140.272 222.8 141.969 224.38 142.556C225.873 141.507 227.028 140.424 227.841 139.002C227.163 134.261 226.483 130.062 225.907 126.405C224.687 112.725 239.986 111.268 246.261 121.022M307.114 253.69C303.756 264.727 299.753 272.989 294.904 278.882M285.032 258.45C282.115 266.745 278.247 273.552 273.431 278.867M182.736 225.627C172.797 243.166 159.398 254.79 141.726 260.953M226.416 156.88C243.479 171.644 254.775 184.782 259.389 189.59M287.737 244.354C304.409 241.855 309.696 221.526 296.683 209.708C268.553 182.492 239.395 160.517 231.805 155.383M193.854 228.802C186.425 249.793 171.695 266.606 150.833 278.932M260.71 259.072C257.963 266.658 253.247 273.295 246.566 278.983M240.715 256.824C239.171 263.41 235.084 270.774 228.451 278.92M194.623 165.316C183.08 157.794 172.441 143.645 172.441 127.652C172.441 99.6844 195.207 77 223.276 77C251.347 77 274.111 99.6844 274.111 127.652C274.111 140.656 269.087 153.173 260.086 162.585M210.517 232.907C208.28 252.088 200.154 267.258 188.429 278.873M115.903 189.59C104.676 187.931 96.5006 185.985 89.548 183.581C86.9869 184.191 85.8175 185.884 86.023 188.638C111.982 198.7 135.195 205.117 155.462 207.884M106.213 182.743C100.657 181.886 95.81 180.691 91.48 179.06C91.2767 177.012 93.2616 175.21 95.5516 175.302C95.1279 173.405 96.382 171.653 98.8076 171.265C108.51 173.065 117.159 173.759 123.841 173.895M105.98 187.796C105.184 185.611 106.084 181.702 107.66 180.533C111.156 180.619 114.768 180.89 118.549 181.295M160.781 183.699C151.486 176.723 142.192 172.185 132.999 170.289C127.334 171.746 122.959 173.947 119.873 176.791C118.718 180.786 117.973 184.917 117.634 189.183C123.976 189.455 127.3 186.882 127.503 181.464C129.37 180.719 131.304 179.568 133.306 178.008C135.373 181.599 138.324 184.104 142.158 185.527M169.431 179.532C181.845 203.675 196.192 218.879 210.235 225.549C211.21 206.974 200.065 193.383 201.609 179.473C202.849 168.324 209.087 161.04 214.534 155.005M160.576 186.135C168.378 196.26 177.027 207.468 186.73 220.167M232.021 236.453L225.92 192.286L264.759 189.246L269.334 221.667M234.258 154.142C307.188 201.284 312.137 198.903 314.984 278.595M207.416 150.953C195.69 161.893 187.422 175.469 185.05 183.167C181.315 181.24 176.612 179.355 170.844 178.021C170.397 178.435 169.973 179.026 169.583 179.72C166.497 178.587 163.614 177.842 160.934 177.436C161.394 187.152 159.021 199.173 153.532 213.355C175.424 224.768 201.791 232.536 232.631 236.656M238.272 151.409C264.352 166.298 293.647 177.223 304.502 188.898C318.46 203.912 319.102 224.371 322 279L141.79 278.949C138.621 260.495 144.991 240.506 160.851 217.005M206.107 123.553C206.24 123.405 206.384 123.27 206.535 123.145C208.32 121.681 211.193 121.877 212.536 123.511C210.987 125.503 207.441 125.461 206.107 123.553ZM239.029 122.472C237.45 120.737 234.461 120.822 233.131 122.451C234.557 124.275 237.811 124.226 239.029 122.472ZM202.605 123.468C202.878 123.093 203.173 122.744 203.48 122.43C207.128 118.702 213.002 119.205 215.75 123.369C212.589 128.441 205.338 128.332 202.605 123.468ZM242.24 122.384C239.012 117.968 232.902 118.179 230.182 122.331C233.095 126.974 239.749 126.852 242.24 122.384ZM223.912 157.059C210.583 156.455 200.982 147.014 198.779 128.88C198.165 131.135 195 131.177 193.828 129.915C190.382 126.033 188.318 117.301 191.651 114.892C191.932 114.69 192.572 114.557 193.182 114.686C202.402 95.9779 238.73 93.6159 250.932 112.457C255.08 113.571 255.69 124.712 252.264 129.045C251.188 130.35 248.619 130.206 247.888 128.03C246.79 145.391 238.435 155.081 226.041 156.859C225.348 156.958 224.634 157.059 223.912 157.059Z" stroke="#292526" stroke-width="1.62" stroke-miterlimit="22.926"/>
<path fill-rule="evenodd" clip-rule="evenodd" d="M389.495 0L384.175 5.31827L380.204 1.18965L379.972 0.948836H379.638L359 0.948835H358.215L358.215 1.73384L358.215 22.0032L358.215 22.3284L358.445 22.5583L362.596 26.7085L358.445 30.8587L358.215 31.0887L358.215 31.4139L358.215 52.0452L358.215 52.8302H359L379.276 52.8302H379.601L379.831 52.6004L383.983 48.4498L389.752 54.2169L384.086 59.8808L380.204 55.8445L379.972 55.6036H379.638L359 55.6036H358.215L358.215 56.3886L358.215 76.658L358.215 76.9855L358.448 77.2159L362.617 81.3429L358.445 85.5135L358.215 85.7435L358.215 86.0687L358.215 106.7L358.215 107.485H359H379.276H379.601L379.831 107.255L384.073 103.014L389.752 108.691L384.086 114.355L380.204 110.318L379.972 110.077H379.638H359H358.215L358.215 110.862L358.215 131.132L358.215 131.459L358.448 131.69L362.617 135.817L358.445 139.987L358.215 140.217L358.215 140.543L358.215 161.174L358.215 161.959H359H379.276H379.601L379.831 161.729L383.983 157.578L389.752 163.346L384.175 168.921L380.204 164.792L379.972 164.551H379.638H359H358.215L358.215 165.336L358.215 185.606L358.215 185.933L358.448 186.164L362.617 190.291L358.445 194.461L358.215 194.691L358.215 195.016L358.215 215.648L358.215 216.433H359H379.276H379.601L379.831 216.203L383.983 212.052L389.752 217.819L384.175 223.395L380.204 219.266L379.972 219.025H379.638H359H358.215L358.215 219.81L358.215 240.079L358.215 240.407L358.448 240.637L362.617 244.764L358.445 248.935L358.215 249.165L358.215 249.49L358.215 269.941L358.215 270.726H359H379.276H379.601L379.831 270.496L383.892 266.436L389.752 272.293L384.086 277.957L380.204 273.921L379.972 273.68H379.638H359H358.215L358.215 274.465L358.215 294.734L358.215 295.062L358.448 295.292L362.617 299.419L358.445 303.59L358.215 303.82L358.215 304.145L358.215 324.776V325.561H359H379.276H379.601L379.831 325.332L384.073 321.09L389.752 326.767L384.175 332.342L380.204 328.214L379.972 327.973H379.638H359H358.215V328.758V349.027V349.352L358.445 349.582L363.876 355.012L364.986 353.901L359.785 348.702L359.785 329.543H379.304L383.064 333.452L377.375 339.14L376.21 337.975L375.972 337.737L375.635 337.746L368.575 337.927L367.81 337.946V338.712V345.227V345.552L368.04 345.782L377.454 355.193L378.564 354.082L378.485 354.004L384.153 348.338L388.124 352.467L388.356 352.708H388.69H409.328H410.113V351.923V331.653V331.326L409.88 331.096L405.256 326.518L409.702 322.074L409.932 321.844V321.519V301.249V300.464H409.147H388.871H388.546L388.316 300.694L383.983 305.026L378.485 299.53L384.153 293.865L388.124 297.993L388.356 298.234H388.69H409.328H410.113V297.449V277.18V276.852L409.88 276.622L405.256 272.044L409.702 267.6L409.932 267.37V267.045V246.776V245.991H409.147H388.871H388.546L388.316 246.22L384.073 250.461L378.485 244.875L384.153 239.21L388.124 243.338L388.356 243.579H388.69H409.328H410.113V242.794L410.113 222.525V222.197L409.88 221.967L405.347 217.48L409.702 213.126L409.932 212.896V212.571V192.302V191.517H409.147H388.871H388.546L388.316 191.747L384.073 195.988L378.485 190.401L384.153 184.736L388.124 188.864L388.356 189.105H388.69H409.328H410.113V188.32V168.051V167.723L409.88 167.493L405.256 162.916L409.702 158.471L409.932 158.242V157.916V137.647V136.862H409.147H388.871H388.546L388.316 137.092L383.983 141.423L378.485 135.928L384.153 130.262L388.124 134.391L388.356 134.631H388.69H409.328H410.113V133.846V113.577V113.25L409.88 113.019L405.256 108.442L409.702 103.998L409.932 103.768V103.442L409.932 83.1731V82.3881H409.147H388.871H388.546L388.316 82.618L383.983 86.9495L378.485 81.4538L384.153 75.7882L388.124 79.9168L388.356 80.1576H388.69H409.328H410.113V79.3726V59.1033V58.7758L409.88 58.5454L405.347 54.0582L409.702 49.7048L409.932 49.4748V49.1496V28.6993V27.9143H409.147H388.871H388.546L388.316 28.1441L384.073 32.3852L378.485 26.799L384.153 21.1334L388.124 25.262L388.356 25.5028H388.69H409.328H410.113V24.7178V4.44849V4.12097L409.88 3.89058L405.95 0H403.718L408.543 4.77599V23.9328H389.024L385.263 20.0232L390.772 14.5168L392.118 15.8622L392.356 16.1004L392.693 16.0918L399.753 15.9108L400.518 15.8912V15.1261L400.518 8.61093V8.28569L400.288 8.05576L392.23 0H389.495ZM392.989 14.5137L391.882 13.4068L397.651 7.63966L398.948 8.93616V14.3609L392.989 14.5137ZM390.862 0.853072L396.541 6.52969L377.375 25.6891L371.697 20.0124L390.862 0.853072ZM376.355 13.1353L370.586 18.9024L369.38 17.6965V12.2717L375.338 12.1189L376.355 13.1353ZM383.064 6.42844L377.466 12.0254L376.21 10.7704L375.972 10.5322L375.635 10.5408L368.575 10.7218L367.81 10.7414V11.5065V18.0217V18.3469L368.04 18.5769L382.963 33.4951L377.285 39.1718L359.785 21.6779L359.785 2.51884L379.304 2.51884L383.064 6.42844ZM370.474 34.5836L376.174 40.2818L374.968 41.4875H369.199V35.7428L370.474 34.5836ZM363.707 27.8185L369.363 33.4724L367.886 34.8145L367.629 35.0481V35.3954V42.2725V43.0575H368.414H375.293H375.618L375.848 42.8277L389.196 29.4843H408.362V48.8244L404.231 52.9537L398.616 47.395L400.469 45.5423L400.699 45.3124V44.9871V38.472V37.687H399.914H392.854H392.529L392.299 37.9168L378.951 51.2602L359.785 51.2602L359.785 31.7391L363.707 27.8185ZM399.129 44.6619L397.5 46.2905L391.793 40.6419L393.179 39.257H399.129V44.6619ZM385.093 47.3398L390.683 41.7518L408.543 59.4308V78.5876H389.024L385.263 74.678L390.862 69.0811L392.118 70.336L392.356 70.5742L392.693 70.5656L399.753 70.3846L400.518 70.3651V69.5999V63.0847V62.7595L400.288 62.5296L385.093 47.3398ZM392.989 68.9875L391.973 67.9711L397.742 62.204L398.948 63.41V68.8348L392.989 68.9875ZM390.862 55.3269L396.631 61.094L377.375 80.3439L371.606 74.5767L390.862 55.3269ZM376.265 67.6996L370.496 73.4668L369.38 72.3513V66.9265L375.339 66.7738L376.265 67.6996ZM382.976 60.991L377.375 66.5897L376.21 65.4252L375.972 65.187L375.635 65.1956L368.575 65.3766L367.81 65.3962V66.1613V72.6765V73.0017L368.04 73.2317L382.873 88.0595L377.281 93.6492L359.785 76.3305L359.785 57.1736L379.304 57.1736L382.976 60.991ZM370.441 89.0877L376.171 94.7592L374.968 95.9613H369.199V90.2166L370.441 89.0877ZM363.733 82.4474L369.324 87.9816L367.886 89.2883L367.629 89.5219V89.8692V96.7463V97.5313H368.414H375.293H375.618L375.848 97.3015L389.196 83.9581H408.362L408.362 103.117L404.14 107.337L398.707 101.959L400.469 100.197L400.699 99.9672V99.6419V93.1268V92.3418H399.914H392.854H392.529L392.299 92.5717L378.951 105.915H359.785L359.785 86.394L363.733 82.4474ZM399.129 99.3167L397.591 100.854L391.884 95.2057L393.179 93.9118H399.129V99.3167ZM385.184 101.904L390.774 96.3157L408.543 113.905V133.061H389.024L385.263 129.152L390.862 123.555L392.118 124.81L392.356 125.048L392.693 125.039L399.753 124.858L400.518 124.839V124.074V117.559V117.233L400.288 117.003L385.184 101.904ZM392.989 123.461L391.973 122.445L397.742 116.678L398.948 117.884V123.309L392.989 123.461ZM390.862 109.801L396.631 115.568L377.375 134.818L371.606 129.051L390.862 109.801ZM376.265 122.173L370.496 127.941L369.38 126.825V121.4L375.339 121.248L376.265 122.173ZM382.976 115.465L377.375 121.064L376.21 119.899L375.972 119.661L375.635 119.669L368.575 119.85L367.81 119.87V120.635V127.15V127.476L368.04 127.706L382.873 142.533L377.281 148.123L359.785 130.804L359.785 111.647H379.304L382.976 115.465ZM370.441 143.562L376.171 149.233L374.968 150.435H369.199V144.69L370.441 143.562ZM363.733 136.921L369.324 142.455L367.886 143.762L367.629 143.996V144.343V151.22V152.005H368.414H375.293H375.618L375.848 151.775L389.196 138.432H408.362V157.591L404.14 161.811L398.707 156.433L400.469 154.671L400.699 154.441V154.116V147.601V146.816H399.914H392.854H392.529L392.299 147.045L378.951 160.389H359.785L359.785 140.868L363.733 136.921ZM399.129 153.791L397.591 155.328L391.884 149.68L393.179 148.386H399.129V153.791ZM385.093 156.468L390.774 150.79L408.543 168.378V187.535H389.024L385.263 183.626L390.772 178.119L392.118 179.465L392.356 179.703L392.693 179.694L399.753 179.513L400.518 179.494V178.729V172.213V171.888L400.288 171.658L385.093 156.468ZM392.989 178.116L391.882 177.009L397.651 171.242L398.948 172.539V177.963L392.989 178.116ZM390.862 164.456L396.541 170.132L377.375 189.292L371.697 183.615L390.862 164.456ZM376.355 176.738L370.586 182.505L369.38 181.299V175.874L375.339 175.721L376.355 176.738ZM383.064 170.031L377.466 175.628L376.21 174.373L375.972 174.135L375.635 174.143L368.575 174.324L367.81 174.344V175.109V181.624V181.949L368.04 182.179L382.963 197.098L377.372 202.687L359.785 185.278L359.785 166.121H379.304L383.064 170.031ZM370.536 198.13L376.262 203.797L374.968 205.09H369.199V199.345L370.536 198.13ZM363.733 191.395L369.419 197.024L367.886 198.417L367.629 198.651V198.998V205.875V206.66H368.414H375.293H375.618L375.848 206.43L389.196 193.087H408.362V212.246L404.231 216.375L398.707 210.907L400.469 209.145L400.699 208.915V208.59V202.074V201.289H399.914H392.854H392.529L392.299 201.519L378.951 214.863H359.785L359.785 195.342L363.733 191.395ZM399.129 208.264L397.591 209.802L391.884 204.153L393.179 202.859H399.129V208.264ZM385.093 210.942L390.774 205.263L408.543 222.852L408.543 242.009H389.024L385.263 238.1L390.772 232.593L392.118 233.939L392.356 234.177L392.693 234.168L399.753 233.987L400.518 233.967V233.202V226.687V226.362L400.288 226.132L385.093 210.942ZM392.989 232.59L391.882 231.483L397.651 225.716L398.948 227.012V232.437L392.989 232.59ZM390.862 218.929L396.541 224.606L377.375 243.765L371.697 238.089L390.862 218.929ZM376.355 231.212L370.586 236.979L369.38 235.773V230.348L375.338 230.195L376.355 231.212ZM383.064 224.505L377.466 230.102L376.21 228.847L375.972 228.609L375.635 228.617L368.575 228.798L367.81 228.818V229.583V236.098V236.423L368.04 236.653L382.963 251.571L377.372 257.161L359.785 239.752L359.785 220.595H379.304L383.064 224.505ZM370.536 252.604L376.262 258.271L374.968 259.564H369.199V253.819L370.536 252.604ZM363.733 245.869L369.419 251.497L367.886 252.891L367.629 253.124V253.472V260.349V261.134H368.414H375.293H375.618L375.848 260.904L389.196 247.561H408.362V266.72L404.14 270.94L398.525 265.381L400.469 263.438L400.699 263.208V262.882V256.367V255.582H399.914H392.854H392.529L392.299 255.812L378.951 269.156H359.785L359.785 249.815L363.733 245.869ZM399.129 262.557L397.409 264.277L391.702 258.628L393.179 257.152H399.129V262.557ZM385.003 265.326L390.592 259.738L408.543 277.507V296.664H389.024L385.263 292.754L390.862 287.157L392.118 288.412L392.356 288.651L392.693 288.642L399.753 288.461L400.518 288.441V287.676V281.161V280.836L400.288 280.606L385.003 265.326ZM392.989 287.064L391.973 286.047L397.742 280.28L398.948 281.486V286.911L392.989 287.064ZM390.862 273.403L396.631 279.17L377.375 298.42L371.606 292.653L390.862 273.403ZM376.265 285.776L370.496 291.543L369.38 290.428V285.003L375.338 284.85L376.265 285.776ZM382.976 279.067L377.375 284.666L376.21 283.502L375.972 283.263L375.635 283.272L368.575 283.453L367.81 283.473V284.238V290.753V291.078L368.04 291.308L382.872 306.136L377.281 311.726L359.785 294.407L359.785 275.25H379.304L382.976 279.067ZM370.441 307.164L376.171 312.836L374.968 314.038H369.199V308.293L370.441 307.164ZM363.733 300.524L369.324 306.058L367.886 307.365L367.629 307.598V307.946V314.823V315.608H368.414H375.293H375.618L375.848 315.378L389.196 302.034H408.362V321.194L404.14 325.414L398.707 320.035L400.469 318.273L400.699 318.044V317.718L400.699 311.203V310.418H399.914H392.854H392.529L392.299 310.648L378.951 323.991H359.785L359.785 304.47L363.733 300.524ZM399.129 317.393L397.591 318.931L391.884 313.282L393.179 311.988H399.129L399.129 317.393ZM385.184 319.98L390.774 314.392L408.543 331.981V351.138H389.024L385.263 347.228L390.862 341.631L392.118 342.886L392.356 343.124L392.693 343.116L399.753 342.935L400.518 342.915V342.15V335.635V335.31L400.288 335.08L385.184 319.98ZM392.989 341.538L391.973 340.521L397.742 334.754L398.948 335.96L398.948 341.385L392.989 341.538ZM390.862 327.877L396.631 333.644L377.375 352.894L371.606 347.127L390.862 327.877ZM376.265 340.25L370.496 346.017L369.38 344.901V339.477L375.338 339.324L376.265 340.25Z" fill="#DD264E"/>
</svg>
