<svg width="14" height="13" viewBox="0 0 14 13" fill="none" xmlns="http://www.w3.org/2000/svg">
<g id="Group 5751">
<path id="Stroke-18" fill-rule="evenodd" clip-rule="evenodd" d="M12.993 8.00389V11.108C12.993 11.6603 12.5453 12.108 11.993 12.108H11.3513C10.799 12.108 10.3513 11.6603 10.3513 11.108V8.28777C10.3513 7.28815 9.93842 6.60645 9.02986 6.60645C8.33443 6.60645 7.94731 7.06672 7.76822 7.50957C7.70013 7.66988 7.71112 7.8913 7.71112 8.1138V11.108C7.71112 11.6603 7.2634 12.108 6.71112 12.108H6.09879C5.54454 12.108 5.09596 11.6594 5.09827 11.1051C5.10406 9.71683 5.1127 7.2185 5.10703 5.78104C5.10477 5.20704 5.57662 4.72675 6.15062 4.72675H7.56065C7.64375 4.72675 7.71112 4.79412 7.71112 4.87722V4.87722C7.71112 5.05013 8.20975 5.22761 8.35328 5.1312C8.75385 4.86215 9.32423 4.65625 10.0363 4.65625C11.692 4.65625 12.993 5.717 12.993 8.00389Z" stroke="white" stroke-linejoin="round"/>
<path id="Stroke-19" fill-rule="evenodd" clip-rule="evenodd" d="M1.34375 11.0997C1.34375 11.652 1.79147 12.0997 2.34375 12.0997H2.67292C3.22521 12.0997 3.67292 11.652 3.67292 11.0997V5.71875C3.67292 5.16647 3.22521 4.71875 2.67292 4.71875H2.34375C1.79147 4.71875 1.34375 5.16647 1.34375 5.71875V11.0997Z" stroke="white" stroke-linejoin="round"/>
<path id="Stroke-20" fill-rule="evenodd" clip-rule="evenodd" d="M3.63625 2.58296C3.63625 3.2488 3.17546 3.77668 2.43739 3.77668H2.42243C1.71079 3.77668 1.25 3.25128 1.25 2.58434C1.25 1.90446 1.72451 1.39062 2.4511 1.39062C3.17546 1.39062 3.62129 1.90336 3.63625 2.58296Z" stroke="white" stroke-linejoin="round"/>
</g>
</svg>
