<svg width="11" height="11" viewBox="0 0 11 11" fill="none" xmlns="http://www.w3.org/2000/svg">
<path id="Vector" d="M0.973488 3.27513L0.973489 3.27511C0.998164 2.7333 1.08932 2.43704 1.16599 2.23804L1.16605 2.23787C1.2685 1.97474 1.39135 1.78564 1.58868 1.58805C1.78601 1.39046 1.97496 1.26739 2.23861 1.16537C2.43727 1.0879 2.73418 0.997457 3.27583 0.972833C3.85678 0.946115 4.03187 0.940792 5.50022 0.940792C6.96861 0.940792 7.14384 0.946555 7.72523 0.972831L7.72524 0.972832C8.26707 0.997506 8.56334 1.08866 8.76235 1.16532L8.76245 1.16536C9.02569 1.26739 9.2148 1.39071 9.41237 1.588C9.61004 1.78539 9.73262 1.97478 9.83505 2.23787M0.973488 3.27513L9.78846 2.25601M0.973488 3.27513C0.947211 3.85649 0.941448 4.03105 0.941448 5.50004C0.941448 6.969 0.94677 7.14408 0.97349 7.725C0.998115 8.26664 1.08857 8.56354 1.16604 8.76219C1.26807 9.02539 1.39113 9.21433 1.58873 9.41165C1.78633 9.60897 1.97543 9.73182 2.23857 9.83426M0.973488 3.27513L3.27586 10.0268C2.73413 10.0021 2.4373 9.91168 2.23857 9.83426M9.83505 2.23787L9.78846 2.25601M9.83505 2.23787C9.83505 2.23786 9.83504 2.23785 9.83504 2.23784L9.78846 2.25601M9.83505 2.23787C9.91253 2.43652 10.003 2.73343 10.0276 3.27509M9.78846 2.25601C9.86396 2.44961 9.95329 2.74116 9.97766 3.27738M10.0276 3.27509L9.97766 3.27738M10.0276 3.27509C10.0543 3.85649 10.0597 4.03109 10.0597 5.50004C10.0597 6.96898 10.0543 7.14359 10.0276 7.72498M10.0276 3.27509C10.0276 3.2751 10.0276 3.2751 10.0276 3.27511L9.97766 3.27738M9.97766 3.27738L10.0276 7.72498M10.0276 7.72498L9.97766 7.7227L10.0276 7.725L10.0276 7.72498ZM10.6651 1.91559C10.7988 2.2593 10.8907 2.65391 10.9172 3.23473C10.9438 3.82002 10.95 4.00661 10.95 5.5C10.95 6.99339 10.9438 7.17954 10.9172 7.76527L10.9172 7.7653C10.8912 8.34602 10.7988 8.74045 10.6651 9.08442C10.5266 9.44013 10.3427 9.74113 10.0419 10.0415C9.74102 10.3419 9.44044 10.5262 9.08477 10.6646C8.74081 10.7984 8.34641 10.8903 7.76558 10.9167L7.76554 10.9167C7.18025 10.9438 6.99367 10.95 5.50022 10.95C4.0068 10.95 3.8205 10.9434 3.23486 10.9167C2.65409 10.8903 2.26008 10.7984 1.91566 10.6646C1.55979 10.5262 1.25938 10.3417 0.958522 10.0414C0.657741 9.74124 0.473481 9.4401 0.335394 9.08445L0.335384 9.08442C0.201627 8.74048 0.109707 8.34609 0.0832576 7.76527L0.083256 7.76523C0.0562048 7.17996 0.05 6.99339 0.05 5.5C0.05 4.00661 0.0562048 3.82004 0.083256 3.23477L0.0832576 3.23473C0.109707 2.65396 0.201627 2.25952 0.335384 1.91558L0.335397 1.91554C0.473478 1.55969 0.657689 1.2589 0.958528 0.958548C1.25944 0.658121 1.5598 0.47344 1.91562 0.335386L1.91566 0.335369C2.25939 0.201623 2.65406 0.109705 3.23486 0.0832562L3.2349 0.0832547C3.8205 0.0562045 4.00721 0.05 5.50066 0.05C6.99408 0.05 7.18069 0.0566435 7.76602 0.0832564L7.76605 0.0832579C8.34635 0.109267 8.74081 0.201609 9.08525 0.33538C9.44048 0.473461 9.7415 0.657673 10.0419 0.958492C10.3423 1.25937 10.5266 1.55993 10.6651 1.91559ZM10.6651 1.91559L10.7117 1.89746M10.6651 1.91559C10.6651 1.91559 10.6651 1.91559 10.6651 1.9156L10.7117 1.89746M10.7117 1.89746C10.8476 2.24686 10.9405 2.64691 10.9671 3.23246C10.9938 3.81889 11 4.00638 11 5.5C11 6.99362 10.9938 7.18067 10.9671 7.76754L9.10335 0.288772C9.46456 0.429176 9.7716 0.617056 10.0772 0.923164C10.3829 1.22927 10.5709 1.53582 10.7117 1.89746ZM7.76785 10.9667C7.1814 10.9938 6.9939 11 5.50022 11C4.00654 11 3.81935 10.9934 3.23259 10.9667C2.64706 10.94 2.24761 10.8472 1.89753 10.7112C1.53566 10.5704 1.22928 10.3823 0.923201 10.0768L7.76785 10.9667ZM7.76785 10.9667C8.35343 10.94 8.75327 10.8472 9.10291 10.7112L7.76785 10.9667ZM7.8263 2.56388C7.82626 2.68452 7.86199 2.80246 7.92897 2.90279C7.99596 3.00313 8.0912 3.08136 8.20265 3.12757C8.3141 3.17379 8.43675 3.18592 8.5551 3.16243C8.67344 3.13894 8.78216 3.08088 8.86751 2.99561C8.95286 2.91033 9.011 2.80166 9.03458 2.68334C9.05817 2.56503 9.04614 2.44237 9.00001 2.33089C8.95388 2.21941 8.87573 2.12411 8.77544 2.05704C8.67516 1.98998 8.55723 1.95415 8.43659 1.9541C8.43658 1.9541 8.43658 1.9541 8.43657 1.9541H8.43635L7.8263 2.56388ZM7.8263 2.56388C7.82644 2.40216 7.89076 2.2471 8.00515 2.13277C8.11952 2.01844 8.2746 1.95418 8.43633 1.9541L7.8263 2.56388ZM2.23857 9.83426L2.25672 9.78767L2.23858 9.83426C2.23858 9.83426 2.23857 9.83426 2.23857 9.83426ZM5.50022 3.61652C4.46007 3.61652 3.61711 4.45992 3.61711 5.5C3.61711 6.54008 4.46007 7.38348 5.50022 7.38348C6.54036 7.38348 7.38377 6.5401 7.38377 5.5C7.38377 4.4599 6.54036 3.61652 5.50022 3.61652ZM5.50022 8.27418C3.96797 8.27418 2.72592 7.03218 2.72592 5.5C2.72592 3.96782 3.96797 2.72582 5.50022 2.72582C7.03247 2.72582 8.27452 3.96782 8.27452 5.5C8.27452 7.03218 7.03247 8.27418 5.50022 8.27418ZM8.74438 9.78767L8.76252 9.83426L7.72297 9.97687L7.72524 10.0268C8.26696 10.0022 8.56389 9.91173 8.76255 9.83425L8.74438 9.78767Z" fill="#151C26" stroke="#151C26" stroke-width="0.1"/>
</svg>
