<svg width="281" height="249" viewBox="0 0 281 249" fill="none" xmlns="http://www.w3.org/2000/svg">
<path d="M224.491 199.734C218.514 229.534 178.67 237.812 156.092 218.607C132.517 197.747 136.502 158.014 159.744 143.445M191.951 175.563C208.885 175.231 207.889 199.734 191.287 203.045C179.002 205.694 169.705 199.734 165.389 192.118C159.08 180.86 161.072 164.305 176.014 156.689C193.944 147.749 216.19 156.689 221.503 171.92M238.104 195.429C237.772 201.72 231.464 213.972 225.487 219.932C230.136 213.972 234.784 202.052 234.784 196.092M166.717 152.385C138.826 123.247 149.783 76.5602 190.291 66.6268C167.049 83.5135 166.717 116.294 183.983 134.505L184.315 134.836C189.295 139.803 195.604 143.776 203.241 146.094C219.842 150.729 228.475 161.325 231.132 170.596M247.069 164.305C242.421 145.1 229.139 125.234 206.229 116.625C192.284 72.2557 243.417 56.3623 251.386 11L249.726 67.6201L250.058 115.3L250.722 171.589M126.873 236.818C130.857 250.394 152.107 250.394 157.42 236.818M89.6846 213.64C87.6924 231.852 112.927 235.163 122.556 218.938C128.201 208.674 126.208 194.436 127.205 179.536M127.205 180.529C128.201 161.325 138.826 143.445 154.764 132.849M176.678 123.578C180.33 122.916 184.979 122.254 188.631 122.254C217.518 122.254 242.753 142.783 248.73 170.596M184.315 134.505C185.643 134.505 187.635 134.174 188.963 134.174C210.877 134.174 230.8 148.411 237.108 169.271M102.634 245.096C69.0984 240.792 40.2113 247.083 9 245.758C37.8871 241.785 50.5044 208.012 74.743 214.965M173.69 149.405C159.744 152.716 149.451 169.271 152.107 186.82C155.76 209.667 178.67 215.296 187.635 214.303C190.291 213.972 191.951 213.972 193.944 213.309C209.217 209.998 223.495 198.409 237.772 195.429C256.034 191.787 272.968 194.767 279.941 211.654C281.601 177.88 248.065 160 213.202 175.563M186.639 179.536C187.635 174.9 193.944 173.907 198.26 178.212C204.237 184.834 196.6 196.754 184.979 193.443C171.697 188.807 171.697 172.914 182.322 165.298C195.604 156.689 214.862 165.96 215.858 184.503M103.298 210.329C102.302 205.694 95.9933 204.7 91.6768 209.005C90.3487 210.329 89.6846 212.316 89.3525 213.972C88.6885 220.263 95.6612 227.216 104.626 224.567C118.572 219.932 118.24 203.376 107.614 195.76C94.3331 187.152 75.075 196.754 74.0789 215.627C73.7469 228.872 81.7157 244.103 101.97 245.096C112.595 245.758 133.845 240.461 137.498 217.614C153.435 245.427 196.268 254.036 223.163 234.501C237.44 226.885 252.714 232.845 253.046 246.421C261.015 234.501 254.374 218.607 239.765 217.945C243.749 213.64 248.065 201.72 249.062 193.774" stroke="#151C26" stroke-opacity="0.17" stroke-width="1.57" stroke-miterlimit="22.926"/>
</svg>
