<svg width="18" height="14" viewBox="0 0 18 14" fill="none" xmlns="http://www.w3.org/2000/svg">
<path id="Vector" d="M15.3947 0H2.60526C1.18421 0 0 1.1745 0 2.58389V11.4161C0 12.8255 1.18421 14 2.60526 14H15.3947C16.8158 14 18 12.8255 18 11.4161V2.53691C18 1.12751 16.8632 0 15.3947 0ZM15.3947 1.22147C15.4895 1.22147 15.5842 1.22147 15.7263 1.26845L10.3263 7.32885C9.99473 7.70469 9.52105 7.89262 9 7.89262C8.47895 7.89262 8.00527 7.65771 7.67369 7.32885L2.27368 1.26845C2.36842 1.26845 2.46316 1.22147 2.60526 1.22147H15.3947ZM16.7684 11.4161C16.7684 12.1678 16.1526 12.7785 15.3947 12.7785H2.60526C1.84737 12.7785 1.23157 12.1678 1.23157 11.4161V2.53691C1.23157 2.34899 1.27894 2.16107 1.32631 2.02013L6.72632 8.12751C7.29474 8.78523 8.09998 9.11409 8.95261 9.11409C9.80525 9.11409 10.6105 8.73825 11.1789 8.12751L16.5789 2.02013C16.6263 2.16107 16.6737 2.34899 16.6737 2.53691V11.4161H16.7684Z" fill="white"/>
</svg>
