<svg width="287" height="25" viewBox="0 0 287 25" fill="none" xmlns="http://www.w3.org/2000/svg">
<path d="M74.9 11.1L65.1 20.9C63 22.8 60.2 24 57.3 24C53.7 24 50.1 22.1 48 19.1M217.9 20.9L227.7 11.1M151.3 11.1L141.5 20.9C139.4 22.8 136.6 24 133.7 24C130.1 24 126.5 22.1 124.4 19.1M27 20.9L36.8 11.1M179.7 20.9L189.5 11.1M113.1 11.1L103.3 20.9C101.2 22.8 98.4 24 95.5 24C91.9 24 88.3 22.1 86.2 19.1M256.1 20.9L265.9 11.1M55.8 11.1L46 20.9C43.9 22.8 41.1 24 38.2 24C34.6 24 31 22.1 28.9 19.1M198.8 20.9L208.6 11.1M132.2 11.1L122.4 20.9C120.3 22.8 117.5 24 114.6 24C111 24 107.4 22.1 105.3 19.1M275.1 20.9L284.9 11.1M17.7 11.1L7.9 20.9C5.8 22.8 3 24 0.1 24M160.6 20.9L170.4 11.1M94 11.1L84.2 20.9C82.1 22.8 79.3 24 76.4 24C72.8 24 69.2 22.1 67.1 19.1M236.9 20.9L246.7 11.1M62.5 17.6L72.1 8C73.2 6.9 74.8 6.3 76.4 6.3C78.8 6.3 81.1 7.69999 82.1 9.89999M215.2 17.5L224.8 7.89999C225.9 6.79999 227.5 6.2 229.1 6.2C231.5 6.2 233.8 7.6 234.8 9.8M24.3 17.6L33.9 8C35 6.9 36.6 6.3 38.2 6.3C40.6 6.3 42.9 7.69999 43.9 9.89999M177.1 17.5L186.7 7.89999C187.8 6.79999 189.4 6.2 191 6.2C193.4 6.2 195.7 7.6 196.7 9.8M253.4 17.5L263 7.89999C264.1 6.79999 265.7 6.2 267.3 6.2C269.7 6.2 272 7.6 273 9.8M43.4 17.6L53 7.89999M196.1 17.5L205.7 7.8M129.4 7.89999L119.8 17.6C118.4 19 116.5 19.8 114.6 19.8C112 19.8 109.5 18.3 108.3 16M272.5 17.5L282.1 7.8M5.2 17.6L14.9 7.89999M157.9 17.6L167.6 7.89999C168.7 6.79999 170.3 6.2 171.9 6.2C174.3 6.2 176.6 7.6 177.6 9.8M234.3 17.5L243.9 7.89999C245 6.79999 246.6 6.2 248.2 6.2C250.6 6.2 252.9 7.6 253.9 9.8M61.8 17L71.4 7.39999C72.8 6.09999 74.6 5.3 76.5 5.3C79.1 5.3 81.6 6.80001 82.8 9.10001M214.5 17L224.1 7.39999C225.5 6.09999 227.3 5.3 229.2 5.3C231.8 5.3 234.3 6.80001 235.5 9.10001M138.1 17L147.7 7.39999C149.1 6.09999 150.9 5.3 152.8 5.3C155.4 5.3 157.9 6.80001 159.1 9.10001M23.6 17L33.2 7.39999C34.6 6.09999 36.4 5.3 38.3 5.3C40.9 5.3 43.4 6.80001 44.6 9.10001M176.3 17L185.9 7.39999C187.3 6.09999 189.1 5.3 191 5.3C193.6 5.3 196.1 6.80001 197.3 9.10001M99.9 17L109.5 7.39999C110.9 6.09999 112.7 5.3 114.6 5.3C117.2 5.3 119.7 6.80001 120.9 9.10001M252.7 17L262.3 7.39999C263.7 6.09999 265.5 5.3 267.4 5.3C270 5.3 272.5 6.80001 273.7 9.10001M42.7 17L52.3 7.39999C53.7 6.09999 55.5 5.3 57.4 5.3C60 5.3 62.5 6.80001 63.7 9.10001M195.4 17L205 7.39999C206.4 6.09999 208.2 5.3 210.1 5.3C212.7 5.3 215.2 6.80001 216.4 9.10001M119 17L128.6 7.39999C130 6.09999 131.8 5.3 133.7 5.3C136.3 5.3 138.8 6.80001 140 9.10001M271.8 17L281.4 7.39999M4.5 17L14.1 7.39999C15.5 6.09999 17.3 5.3 19.2 5.3C21.8 5.3 24.3 6.80001 25.5 9.10001M157.2 17L166.9 7.39999M80.9 17L90.5 7.39999C91.9 6.09999 93.7 5.3 95.6 5.3C98.2 5.3 100.7 6.80001 101.9 9.10001M233.6 17L243.2 7.39999C244.6 6.09999 246.4 5.3 248.3 5.3C250.9 5.3 253.4 6.80001 254.6 9.10001M58.7 14.1L68.6 4.3M211.5 14.1L221.4 4.3M135.1 14.1L145 4.3M20.6 14.1L30.5 4.3M173.3 14.1L183.2 4.3M96.9 14.1L106.8 4.3M249.6 14.1L259.5 4.3M39.7 14.1L49.5 4.3M192.5 14L202.3 4.2M116.1 14.1L125.9 4.3M268.8 14L278.6 4.2M1.6 14.1L11.4 4.3M154.3 14L164.1 4.2M77.9 14.1L87.7 4.3M230.6 14L240.4 4.2M0.1 14.6C1.3 14.6 2.2 13.7 2.2 12.5C2.2 11.3 1.3 10.4 0.1 10.4M286.4 10.4C285.2 10.4 284.3 11.3 284.3 12.5C284.3 13.7 285.2 14.6 286.4 14.6M5.8 9.89999C4.8 7.69999 2.5 6.3 0.1 6.3M158.5 9.89999C157.5 7.69999 155.2 6.3 152.8 6.3C151.2 6.3 149.6 6.9 148.5 8L138.9 17.6C137.5 19 135.6 19.8 133.7 19.8C131.1 19.8 128.6 18.3 127.4 16M120.3 9.89999C119.3 7.69999 117 6.3 114.6 6.3C113 6.3 111.4 6.9 110.3 8L100.7 17.6C99.3 19 97.4 19.8 95.5 19.8C92.9 19.8 90.4 18.3 89.2 16M63 9.89999C62 7.69999 59.7 6.3 57.3 6.3C55.7 6.3 54.1 6.9 53 8M215.8 9.8C214.8 7.6 212.5 6.2 210.1 6.2C208.5 6.2 206.9 6.79999 205.8 7.89999M139.4 9.89999C138.4 7.69999 136.1 6.3 133.7 6.3C132.1 6.3 130.5 6.9 129.4 8M286.4 6.2C284.8 6.2 283.2 6.79999 282.1 7.89999M24.9 9.89999C23.9 7.69999 21.6 6.3 19.2 6.3C17.6 6.3 16 6.9 14.9 8M101.2 9.89999C100.2 7.69999 97.9 6.3 95.5 6.3C93.9 6.3 92.3 6.9 91.2 8L81.6 17.6C80.2 19 78.3 19.8 76.4 19.8C73.8 19.8 71.3 18.3 70.1 16M0.1 18.8C1.8 18.8 3.4 18.1 4.6 16.9M70.7 15.3C71.7 17.4 74 18.8 76.4 18.8C78.1 18.8 79.7 18.1 80.9 16.9M223.5 15.3C224.5 17.4 226.8 18.8 229.2 18.8C230.9 18.8 232.5 18.1 233.7 16.9M147.1 15.3C148.1 17.4 150.4 18.8 152.8 18.8C154.5 18.8 156.1 18.1 157.3 16.9M32.6 15.3C33.6 17.4 35.9 18.8 38.3 18.8C40 18.8 41.6 18.1 42.8 16.9M185.3 15.3C186.3 17.4 188.6 18.8 191 18.8C192.7 18.8 194.3 18.1 195.5 16.9M108.9 15.3C109.9 17.4 112.2 18.8 114.6 18.8C116.3 18.8 117.9 18.1 119.1 16.9M261.6 15.3C262.6 17.4 264.9 18.8 267.3 18.8C269 18.8 270.6 18.1 271.8 16.9M51.7 15.3C52.7 17.4 55 18.8 57.4 18.8C59.1 18.8 60.7 18.1 61.9 16.9M204.4 15.3C205.4 17.4 207.7 18.8 210.1 18.8C211.8 18.8 213.4 18.1 214.6 16.9M128 15.3C129 17.4 131.3 18.8 133.7 18.8C135.4 18.8 137 18.1 138.2 16.9M280.7 15.3C281.7 17.4 284 18.8 286.4 18.8M13.5 15.3C14.5 17.4 16.8 18.8 19.2 18.8C20.9 18.8 22.5 18.1 23.7 16.9M166.2 15.3C167.2 17.4 169.5 18.8 171.9 18.8C173.6 18.8 175.2 18.1 176.4 16.9M89.8 15.3C90.8 17.4 93.1 18.8 95.5 18.8C97.2 18.8 98.8 18.1 100 16.9M242.6 15.3C243.6 17.4 245.9 18.8 248.3 18.8C250 18.8 251.6 18.1 252.8 16.9M6.4 9.10001C5.2 6.80001 2.7 5.3 0.1 5.3M286.4 5.39999C284.5 5.39999 282.7 6.1 281.3 7.5M178.2 9.10001C177 6.80001 174.5 5.3 171.9 5.3C170 5.3 168.2 6.09999 166.8 7.39999M0.1 19.7C2 19.7 3.9 18.9 5.3 17.5M222.9 16C224.1 18.3 226.6 19.8 229.2 19.8C231.1 19.8 233 19 234.4 17.6M146.5 16C147.7 18.3 150.2 19.8 152.8 19.8C154.7 19.8 156.6 19 158 17.6M32 16C33.2 18.3 35.7 19.8 38.3 19.8C40.2 19.8 42.1 19 43.5 17.6M184.7 16C185.9 18.3 188.4 19.8 191 19.8C192.9 19.8 194.8 19 196.2 17.6M261 16C262.2 18.3 264.7 19.8 267.3 19.8C269.2 19.8 271.1 19 272.5 17.6M51.1 16C52.3 18.3 54.8 19.8 57.4 19.8C59.3 19.8 61.2 19 62.6 17.6M203.8 16C205 18.3 207.5 19.8 210.1 19.8C212 19.8 213.9 19 215.3 17.6M280.1 16C281.3 18.3 283.8 19.8 286.4 19.8M12.9 16C14.1 18.3 16.6 19.8 19.2 19.8C21.1 19.8 23 19 24.4 17.6M165.6 16C166.8 18.3 169.3 19.8 171.9 19.8C173.8 19.8 175.7 19 177.1 17.6M242 16C243.2 18.3 245.7 19.8 248.3 19.8C250.2 19.8 252.1 19 253.5 17.6M219.8 19C221.9 22 225.5 23.9 229.1 23.9C232 23.9 234.8 22.7 236.9 20.8M143.4 19.1C145.5 22.1 149.1 24 152.7 24C155.6 24 158.4 22.8 160.5 20.9M181.7 19C183.8 22 187.4 23.9 191 23.9C193.9 23.9 196.7 22.7 198.8 20.8M258 19C260.1 22 263.7 23.9 267.3 23.9C270.2 23.9 273 22.7 275.1 20.8M200.7 19C202.8 22 206.4 23.9 210 23.9C212.9 23.9 215.7 22.7 217.8 20.8M277.1 19C279.2 22 282.8 23.9 286.4 23.9M9.8 19.1C11.9 22.1 15.5 24 19.1 24C22 24 24.8 22.8 26.9 20.9M162.6 19C164.7 22 168.3 23.9 171.9 23.9C174.8 23.9 177.6 22.7 179.7 20.8M238.9 19C241 22 244.6 23.9 248.2 23.9C251.1 23.9 253.9 22.7 256 20.8M9.5 6.10001C7.4 3.00001 3.8 1.2 0.1 1.2M85.8 6.10001C83.7 3.00001 80.1 1.2 76.4 1.2C73.5 1.2 70.6 2.39999 68.5 4.39999M238.6 6C236.5 2.9 232.9 1.10001 229.2 1.10001C226.3 1.10001 223.4 2.3 221.3 4.3M162.2 6.10001C160.1 3.00001 156.5 1.2 152.8 1.2C149.9 1.2 147 2.39999 144.9 4.39999M47.7 6.10001C45.6 3.00001 42 1.2 38.3 1.2C35.4 1.2 32.5 2.39999 30.4 4.39999M200.4 6C198.3 2.9 194.7 1.10001 191 1.10001C188.1 1.10001 185.2 2.3 183.1 4.3M124 6.10001C121.9 3.00001 118.3 1.2 114.6 1.2C111.7 1.2 108.8 2.39999 106.7 4.39999M276.7 6C274.6 2.9 271 1.10001 267.3 1.10001C264.4 1.10001 261.5 2.3 259.4 4.3M66.8 6.10001C64.7 3.00001 61.1 1.2 57.4 1.2C54.5 1.2 51.6 2.39999 49.5 4.39999M219.5 6C217.4 2.9 213.8 1.10001 210.1 1.10001C207.2 1.10001 204.3 2.3 202.2 4.3M143.1 6.10001C141 3.00001 137.4 1.2 133.7 1.2C130.8 1.2 127.9 2.39999 125.8 4.39999M286.4 1.2C283.5 1.2 280.6 2.4 278.5 4.3M28.6 6.10001C26.5 3.00001 22.9 1.2 19.2 1.2C16.3 1.2 13.4 2.39999 11.3 4.39999M181.3 6C179.2 2.9 175.6 1.10001 171.9 1.10001C169 1.10001 166.1 2.3 164 4.3M104.9 6.10001C102.8 3.00001 99.2 1.2 95.5 1.2C92.6 1.2 89.7 2.39999 87.6 4.39999M257.7 6C255.6 2.9 252 1.10001 248.3 1.10001C245.4 1.10001 242.5 2.3 240.4 4.3M0 24H286.4M0 1H286.4M76.4 14.6C77.6 14.6 78.5 13.7 78.5 12.5C78.5 11.3 77.6 10.4 76.4 10.4C75.2 10.4 74.3 11.3 74.3 12.5C74.3 13.7 75.3 14.6 76.4 14.6ZM229.2 14.6C230.4 14.6 231.3 13.7 231.3 12.5C231.3 11.3 230.4 10.4 229.2 10.4C228 10.4 227.1 11.3 227.1 12.5C227.1 13.7 228 14.6 229.2 14.6ZM152.8 14.6C154 14.6 154.9 13.7 154.9 12.5C154.9 11.3 154 10.4 152.8 10.4C151.6 10.4 150.7 11.3 150.7 12.5C150.7 13.7 151.6 14.6 152.8 14.6ZM38.3 14.6C39.5 14.6 40.4 13.7 40.4 12.5C40.4 11.3 39.5 10.4 38.3 10.4C37.1 10.4 36.2 11.3 36.2 12.5C36.2 13.7 37.1 14.6 38.3 14.6ZM191 14.6C192.2 14.6 193.1 13.7 193.1 12.5C193.1 11.3 192.2 10.4 191 10.4C189.8 10.4 188.9 11.3 188.9 12.5C188.9 13.7 189.8 14.6 191 14.6ZM114.6 14.6C115.8 14.6 116.7 13.7 116.7 12.5C116.7 11.3 115.8 10.4 114.6 10.4C113.4 10.4 112.5 11.3 112.5 12.5C112.5 13.7 113.5 14.6 114.6 14.6ZM267.3 14.6C268.5 14.6 269.4 13.7 269.4 12.5C269.4 11.3 268.5 10.4 267.3 10.4C266.1 10.4 265.2 11.3 265.2 12.5C265.2 13.7 266.2 14.6 267.3 14.6ZM57.4 14.6C58.6 14.6 59.5 13.7 59.5 12.5C59.5 11.3 58.6 10.4 57.4 10.4C56.2 10.4 55.3 11.3 55.3 12.5C55.3 13.7 56.2 14.6 57.4 14.6ZM210.1 14.6C211.3 14.6 212.2 13.7 212.2 12.5C212.2 11.3 211.3 10.4 210.1 10.4C208.9 10.4 208 11.3 208 12.5C208 13.7 208.9 14.6 210.1 14.6ZM133.7 14.6C134.9 14.6 135.8 13.7 135.8 12.5C135.8 11.3 134.9 10.4 133.7 10.4C132.5 10.4 131.6 11.3 131.6 12.5C131.6 13.7 132.6 14.6 133.7 14.6ZM19.2 14.6C20.4 14.6 21.3 13.7 21.3 12.5C21.3 11.3 20.4 10.4 19.2 10.4C18 10.4 17.1 11.3 17.1 12.5C17.1 13.7 18 14.6 19.2 14.6ZM171.9 14.6C173.1 14.6 174 13.7 174 12.5C174 11.3 173.1 10.4 171.9 10.4C170.7 10.4 169.8 11.3 169.8 12.5C169.8 13.7 170.8 14.6 171.9 14.6ZM95.5 14.6C96.7 14.6 97.6 13.7 97.6 12.5C97.6 11.3 96.7 10.4 95.5 10.4C94.3 10.4 93.4 11.3 93.4 12.5C93.4 13.7 94.4 14.6 95.5 14.6ZM248.3 14.6C249.5 14.6 250.4 13.7 250.4 12.5C250.4 11.3 249.5 10.4 248.3 10.4C247.1 10.4 246.2 11.3 246.2 12.5C246.2 13.7 247.1 14.6 248.3 14.6Z" stroke="#151C26" stroke-opacity="0.17" stroke-width="1.57" stroke-miterlimit="22.926"/>
</svg>
