<svg width="7" height="12" viewBox="0 0 7 12" fill="none" xmlns="http://www.w3.org/2000/svg">
<path id="Vector" d="M5.09368 3.28649L5.09394 3.28649C5.87514 3.28608 6.5 2.64545 6.5 1.87334C6.5 1.17869 5.98199 0.545174 5.23238 0.512338C5.06213 0.50488 4.87509 0.5 4.67934 0.5C3.90758 0.5 3.21406 0.766733 2.71794 1.31469C2.22654 1.85744 1.97793 2.62135 1.97793 3.52824V4.19979C1.97793 4.33177 1.87094 4.43876 1.73896 4.43876C1.0547 4.43876 0.5 4.99346 0.5 5.67772V6.11245C0.5 6.79671 1.0547 7.35142 1.73896 7.35142C1.87094 7.35142 1.97793 7.45841 1.97793 7.59038V10.1162C1.97793 10.8805 2.59746 11.5 3.36169 11.5C4.12592 11.5 4.74545 10.8805 4.74545 10.1163L4.74548 7.63088C4.74548 7.47654 4.8706 7.35142 5.02494 7.35142C5.67483 7.35142 6.22147 6.86422 6.29597 6.21862L6.33431 5.88635C6.4233 5.11522 5.82041 4.43876 5.04416 4.43876C4.87918 4.43876 4.74544 4.30502 4.74544 4.14004V3.71761C4.74544 3.4557 4.78442 3.36915 4.80241 3.34526C4.8025 3.34515 4.80259 3.34503 4.80269 3.34489C4.80524 3.34146 4.81233 3.33191 4.8431 3.3199C4.88135 3.30497 4.95741 3.28649 5.09368 3.28649Z" stroke="#151C26"/>
</svg>
