<svg width="12" height="12" viewBox="0 0 12 12" fill="none" xmlns="http://www.w3.org/2000/svg">
<g id="Vector">
<path d="M0 12L0.862354 8.78969C0.374233 7.91108 0.117432 6.9259 0.117432 5.92661C0.117432 2.65843 2.78301 0 6.05837 0C9.33444 0 12 2.65914 12 5.92661C12 9.19478 9.33444 11.8532 6.05837 11.8532C5.07505 11.8532 4.10376 11.6055 3.23434 11.1348L0 12ZM3.39492 9.93296L3.59866 10.0543C4.34641 10.4989 5.19673 10.7339 6.05837 10.7339C8.71545 10.7339 10.8766 8.57798 10.8766 5.92731C10.8766 3.27664 8.71545 1.12068 6.05837 1.12068C3.402 1.12068 1.24012 3.27664 1.24012 5.92731C1.24012 6.8024 1.48347 7.66408 1.94471 8.41919L2.06992 8.62385L1.58887 10.4164L3.39492 9.93296Z" fill="#151C26"/>
<path fill-rule="evenodd" clip-rule="evenodd" d="M8.26835 6.75159C8.02358 6.6055 7.70524 6.44249 7.41732 6.56034C7.1966 6.65067 7.05511 6.99576 6.91222 7.17219C6.83864 7.26253 6.75093 7.27664 6.63845 7.23147C5.80864 6.9019 5.17267 6.34933 4.71497 5.58786C4.63716 5.4693 4.6513 5.37615 4.74468 5.26676C4.88333 5.10445 5.05665 4.91955 5.09415 4.70077C5.13164 4.482 5.02835 4.22583 4.9378 4.03105C4.82178 3.78193 4.69233 3.42696 4.44191 3.28582C4.21199 3.15596 3.90922 3.22865 3.70407 3.3952C3.35035 3.68243 3.17986 4.13268 3.18481 4.57869C3.18623 4.70572 3.2018 4.83204 3.23151 4.95413C3.30296 5.24841 3.43949 5.52294 3.59229 5.78405C3.70831 5.98095 3.83352 6.1722 3.96935 6.35568C4.4129 6.95695 4.96539 7.47989 5.60419 7.87015C5.92324 8.06492 6.26776 8.23642 6.62359 8.35357C7.02329 8.48553 7.37912 8.62244 7.81065 8.54058C8.26198 8.45519 8.70765 8.17643 8.88663 7.74171C8.93969 7.61327 8.96658 7.47001 8.93687 7.33451C8.87745 7.05434 8.49614 6.88708 8.26835 6.75159Z" fill="#151C26"/>
</g>
</svg>
