<svg width="14" height="14" viewBox="0 0 14 14" fill="none" xmlns="http://www.w3.org/2000/svg">
<g id="Vector">
<path d="M0.335938 13.9938L1.2742 10.5009C0.743114 9.54498 0.463707 8.47307 0.463707 7.38581C0.463707 3.82995 3.36393 0.9375 6.92762 0.9375C10.4921 0.9375 13.3923 3.83072 13.3923 7.38581C13.3923 10.9417 10.4921 13.8341 6.92762 13.8341C5.85774 13.8341 4.80094 13.5646 3.85499 13.0525L0.335938 13.9938ZM4.0297 11.7448L4.25138 11.8769C5.06495 12.3606 5.99013 12.6163 6.92762 12.6163C9.81859 12.6163 12.17 10.2706 12.17 7.38658C12.17 4.50258 9.81859 2.15683 6.92762 2.15683C4.03741 2.15683 1.68522 4.50258 1.68522 7.38658C1.68522 8.3387 1.94999 9.27623 2.45184 10.0978L2.58807 10.3205L2.06467 12.2708L4.0297 11.7448Z" fill="white"/>
<path fill-rule="evenodd" clip-rule="evenodd" d="M9.33214 8.28342C9.06582 8.12447 8.71946 7.94711 8.40619 8.07534C8.16604 8.17362 8.0121 8.54909 7.85662 8.74105C7.77657 8.83933 7.68114 8.85469 7.55876 8.80555C6.6559 8.44697 5.96395 7.84575 5.46596 7.01725C5.38129 6.88825 5.39668 6.7869 5.49828 6.66788C5.64914 6.49128 5.83772 6.29011 5.87851 6.05207C5.91931 5.81404 5.80692 5.53532 5.7084 5.3234C5.58217 5.05235 5.44133 4.66613 5.16886 4.51256C4.91871 4.37128 4.58928 4.45036 4.36606 4.63157C3.98122 4.94408 3.79571 5.43397 3.8011 5.91924C3.80264 6.05745 3.81958 6.19489 3.85191 6.32773C3.92965 6.64792 4.0782 6.94661 4.24445 7.23071C4.37068 7.44494 4.50692 7.65302 4.6547 7.85266C5.1373 8.50686 5.73842 9.07583 6.43346 9.50044C6.78059 9.71236 7.15544 9.89895 7.5426 10.0264C7.97747 10.17 8.36463 10.319 8.83414 10.2299C9.32521 10.137 9.81011 9.83368 10.0048 9.36069C10.0626 9.22095 10.0918 9.06508 10.0595 8.91765C9.99485 8.61282 9.57998 8.43084 9.33214 8.28342Z" fill="white"/>
</g>
</svg>
