<svg width="8" height="14" viewBox="0 0 8 14" fill="none" xmlns="http://www.w3.org/2000/svg">
<path id="Vector" d="M5.96966 4.23282H5.96992C6.79519 4.23239 7.45577 3.55546 7.45577 2.73928C7.45577 2.00455 6.9083 1.33703 6.11865 1.30244C5.93397 1.29435 5.73112 1.28906 5.51885 1.28906C4.68957 1.28906 3.94761 1.57541 3.41742 2.161C2.89195 2.74138 2.62365 3.56093 2.62365 4.53986V5.27053C2.62365 5.43843 2.48754 5.57454 2.31964 5.57454C1.59945 5.57454 1.01562 6.15837 1.01562 6.87856V7.35156C1.01562 8.07174 1.59945 8.65557 2.31964 8.65557C2.48754 8.65557 2.62365 8.79168 2.62365 8.95958V11.7078C2.62365 12.515 3.27802 13.1693 4.08521 13.1693C4.8924 13.1693 5.54676 12.515 5.54677 11.7078L5.5468 9.00364C5.5468 8.81141 5.70264 8.65557 5.89488 8.65557C6.57961 8.65557 7.15558 8.14225 7.23407 7.46202L7.27578 7.1005C7.36958 6.28762 6.73405 5.57454 5.91578 5.57454C5.71198 5.57454 5.54676 5.40932 5.54676 5.20552V4.7459C5.54676 4.45961 5.58876 4.35257 5.61761 4.31429C5.61768 4.3142 5.61778 4.31405 5.61791 4.31387C5.62291 4.30669 5.67436 4.23282 5.96966 4.23282Z" stroke="white"/>
</svg>
