<svg width="1920" height="39" viewBox="0 0 1920 39" fill="none" xmlns="http://www.w3.org/2000/svg">
<path d="M2135.4 32.7969C2132.9 31.0969 2129.9 27.0969 2129 24.4969C2124.5 35.8969 2109.8 40.8969 2099.4 34.9969M2115.7 32.7969C2113.2 31.0969 2110.2 27.0969 2109.3 24.4969C2104.8 35.8969 2090.1 40.8969 2079.7 34.9969M2103 32.8968C2114.3 37.2969 2126.2 29.1969 2126.8 17.5969L2122.7 17.6969L2122.7 13.4969L2126.9 13.4969L2126.9 9.29686L2131 9.29686L2131 13.4969L2135.2 13.4969L2135.2 17.6969L2131 17.6969C2130.9 22.4969 2135 29.0969 2138.9 31.0969M2083.2 32.8968C2094.5 37.2968 2106.4 29.1968 2107.1 17.5968L2103 17.6969L2103 13.4969L2107.2 13.4969L2107.2 9.29686L2111.3 9.29686L2111.3 13.4969L2115.5 13.4969L2115.5 17.6969L2111.3 17.6969C2111.2 22.4969 2115.3 29.0968 2119.2 31.0968M2118.9 13.2969L2120.6 13.2969L2120.6 9.19685L2123.9 9.19686L2123.9 5.09685L2127.2 5.09685L2127.2 0.996858L2130.6 0.996858L2130.6 5.09685L2133.9 5.09685L2133.9 9.19686L2137.2 9.19686L2137.2 13.2969L2138.9 13.2969M2099.3 13.2969L2100.9 13.2969L2100.9 9.19685L2104.2 9.19685L2104.2 5.09685L2107.5 5.09685L2107.5 0.996856L2110.9 0.996857L2110.9 5.09685L2114.2 5.09685L2114.2 9.19685L2117.5 9.19685L2117.5 13.2969L2119.2 13.2969M2056.5 32.7969C2054 31.0968 2051 27.0968 2050.1 24.4968C2045.6 35.8968 2030.9 40.8968 2020.5 34.9968M2036.8 32.7968C2034.3 31.0968 2031.3 27.0968 2030.4 24.4968C2025.9 35.8968 2011.2 40.8968 2000.8 34.9968M2024.1 32.8968C2035.4 37.2968 2047.3 29.1968 2047.9 17.5968L2043.8 17.6968L2043.8 13.4968L2048 13.4968L2048 9.29685L2052.1 9.29685L2052.1 13.4968L2056.3 13.4968L2056.3 17.6968L2052.1 17.6968C2052 22.4968 2056.1 29.0968 2060 31.0968M2004.4 32.8968C2015.7 37.2968 2027.6 29.1968 2028.3 17.5968L2024.2 17.6968L2024.2 13.4968L2028.4 13.4968L2028.4 9.29684L2032.5 9.29685L2032.5 13.4968L2036.7 13.4968L2036.7 17.6968L2032.5 17.6968C2032.4 22.4968 2036.5 29.0968 2040.4 31.0968M2050.1 0.996848L2048.4 0.996847L2048.4 5.09684L2045.1 5.09683L2045.1 9.19684L2041.8 9.19684L2041.8 13.2968L2040.1 13.2968M2050 0.996848L2051.7 0.996848L2051.7 5.09684L2055 5.09684L2055 9.19684L2058.3 9.19685L2058.3 13.2969L2060 13.2969M2030.4 0.996842L2028.7 0.996842L2028.7 5.09683L2025.4 5.09683L2025.4 9.19684L2022.1 9.19684L2022.1 13.2968L2020.4 13.2968M2030.3 0.996842L2032 0.996842L2032 5.09683L2035.3 5.09683L2035.3 9.19684L2038.6 9.19684L2038.6 13.2968L2040.3 13.2968M2198.2 35.0969C2192 38.2969 2184.4 38.5969 2178.2 35.0969M2194.5 32.7969C2192 31.0969 2189 27.0969 2188.1 24.4969C2183.6 35.8969 2168.9 40.8969 2158.5 34.9969M2181.8 32.8969C2187.7 35.1969 2193.7 34.0969 2198.2 30.8969M2162.1 32.8969C2173.4 37.2969 2185.3 29.1969 2186 17.5969L2181.9 17.6969L2181.9 13.4969L2186.1 13.4969L2186.1 9.29687L2190.2 9.29687L2190.2 13.4969L2194.4 13.4969L2194.4 17.6969L2190.2 17.6969C2190.1 22.4969 2194.2 29.0969 2198.1 31.0969M2188.1 0.996871L2186.4 0.996871L2186.4 5.09686L2183.1 5.09686L2183.1 9.19687L2179.8 9.19687L2179.8 13.2969L2178.1 13.2969M2188 0.996871L2189.7 0.996871L2189.7 5.09686L2193 5.09686L2193 9.19687L2196.3 9.19687L2196.3 13.2969L2198.1 13.2969M2095.9 32.7969C2093.4 31.0969 2090.4 27.0969 2089.5 24.4969C2085 35.8969 2070.3 40.8968 2059.9 34.9968M2076.2 32.7969C2073.7 31.0969 2070.7 27.0968 2069.8 24.4968C2065.3 35.8968 2050.6 40.8968 2040.2 34.9968M2063.5 32.8968C2074.8 37.2968 2086.7 29.1968 2087.3 17.5968L2083.2 17.6968L2083.2 13.4969L2087.4 13.4969L2087.4 9.29686L2091.5 9.29686L2091.5 13.4969L2095.7 13.4969L2095.7 17.6969L2091.5 17.6969C2091.4 22.4969 2095.5 29.0968 2099.4 31.0968M2043.8 32.8968C2055.1 37.2968 2067 29.1968 2067.7 17.5968L2063.6 17.6968L2063.6 13.4968L2067.8 13.4968L2067.8 9.29685L2071.9 9.29685L2071.9 13.4968L2076.1 13.4968L2076.1 17.6968L2071.9 17.6968C2071.8 22.4968 2075.9 29.0968 2079.8 31.0968M2089.5 0.996855L2087.8 0.996851L2087.8 5.09684L2084.5 5.09684L2084.5 9.19685L2081.2 9.19685L2081.2 13.2969L2079.5 13.2969M2089.4 0.996855L2091.1 0.996855L2091.1 5.09685L2094.4 5.09685L2094.4 9.19685L2097.7 9.19685L2097.7 13.2969L2099.4 13.2969M2069.8 0.996849L2068.1 0.996849L2068.1 5.09684L2064.8 5.09684L2064.8 9.19685L2061.5 9.19685L2061.5 13.2969L2059.8 13.2969M2069.7 0.996849L2071.4 0.996849L2071.4 5.09684L2074.7 5.09684L2074.7 9.19685L2078 9.19685L2078 13.2969L2079.7 13.2969M1938.3 32.7968C1935.8 31.0968 1932.8 27.0968 1931.9 24.4968C1928.7 32.6968 1920.3 37.4968 1912 37.4968M1918.6 32.7968C1916.1 31.0968 1913.1 27.0968 1912.2 24.4968M1912 34.0968C1921.1 34.1968 1929.2 27.0968 1929.8 17.5968L1925.7 17.6968L1925.7 13.4968L1929.9 13.4968L1929.9 9.29683L1934 9.29683L1934 13.4968L1938.2 13.4968L1938.2 17.6968L1934 17.6968C1933.9 22.4968 1938 29.0968 1941.9 31.0968M1912 9.29683L1914.2 9.29683M1914.2 9.29683L1914.2 13.4968L1918.4 13.4968L1918.4 17.6968L1914.2 17.6968C1914.1 22.4968 1918.2 29.0968 1922.1 31.0968M1914.2 9.29683L1910.1 9.29685L1910.1 13.4968L1905.9 13.4968L1905.9 17.6968L1910 17.5968C1909.3 29.1968 1897.4 37.2968 1886.1 32.8968M1931.9 0.996826L1930.2 0.996826L1930.2 5.09682L1926.9 5.09682L1926.9 9.19682L1923.6 9.19682L1923.6 13.2968L1921.9 13.2968M1931.8 0.996826L1933.5 0.996826L1933.5 5.09682L1936.8 5.09682L1936.8 9.19682L1940.1 9.19682L1940.1 13.2968L1941.8 13.2968M1977.7 32.7968C1975.2 31.0968 1972.2 27.0968 1971.3 24.4968C1966.8 35.8968 1952.1 40.8968 1941.7 34.9968M1957.9 32.7968C1955.4 31.0968 1952.4 27.0968 1951.5 24.4968C1947 35.8968 1932.3 40.8968 1921.9 34.9968M1945.2 32.8968C1956.5 37.2968 1968.4 29.1968 1969 17.5968L1964.9 17.6968L1964.9 13.4968L1969.1 13.4968L1969.1 9.29683L1973.2 9.29684L1973.2 13.4968L1977.4 13.4968L1977.4 17.6968L1973.2 17.6968C1973.1 22.4968 1977.2 29.0968 1981.1 31.0968M1925.5 32.8968C1936.8 37.2968 1948.7 29.1968 1949.4 17.5968L1945.3 17.6968L1945.3 13.4968L1949.5 13.4968L1949.5 9.29683L1953.6 9.29683L1953.6 13.4968L1957.8 13.4968L1957.8 17.6968L1953.6 17.6968C1953.5 22.4968 1957.6 29.0968 1961.5 31.0968M1961.3 13.2968L1962.9 13.2968L1962.9 9.19683L1966.2 9.19683L1966.2 5.09682L1969.5 5.09682L1969.5 0.996833L1972.9 0.996833L1972.9 5.09682L1976.2 5.09682L1976.2 9.19683L1979.5 9.19683L1979.5 13.2968L1981.2 13.2968M1951.5 0.996827L1949.8 0.996827L1949.8 5.09682L1946.5 5.09682L1946.5 9.19682L1943.2 9.19682L1943.2 13.2968L1941.5 13.2968M1951.4 0.996827L1953.1 0.996828L1953.1 5.09682L1956.4 5.09682L1956.4 9.19683L1959.7 9.19683L1959.7 13.2968L1961.4 13.2968M2017.1 32.7968C2014.6 31.0968 2011.6 27.0968 2010.7 24.4968C2006.2 35.8968 1991.5 40.8968 1981.1 34.9968M1997.4 32.7968C1994.9 31.0968 1991.9 27.0968 1991 24.4968C1986.5 35.8968 1971.8 40.8968 1961.4 34.9968M1984.7 32.8968C1996 37.2968 2007.9 29.1968 2008.5 17.5968L2004.4 17.6968L2004.4 13.4968L2008.6 13.4968L2008.6 9.29684L2012.7 9.29684L2012.7 13.4968L2016.9 13.4968L2016.9 17.6968L2012.7 17.6968C2012.6 22.4968 2016.7 29.0968 2020.6 31.0968M1964.9 32.8968C1976.2 37.2968 1988.1 29.1968 1988.8 17.5968L1984.7 17.6968L1984.7 13.4968L1988.9 13.4968L1988.9 9.29684L1993 9.29684L1993 13.4968L1997.2 13.4968L1997.2 17.6968L1993 17.6968C1992.9 22.4968 1997 29.0968 2000.9 31.0968M2000.6 13.2968L2002.3 13.2968L2002.3 9.19683L2005.6 9.19683L2005.6 5.09683L2008.9 5.09683L2008.9 0.99684L2012.3 0.99684L2012.3 5.09683L2015.6 5.09683L2015.6 9.19684L2018.9 9.19684L2018.9 13.2968L2020.6 13.2968M1980.9 13.2968L1982.6 13.2968L1982.6 9.19683L1985.9 9.19683L1985.9 5.09683L1989.2 5.09683L1989.2 0.996835L1992.6 0.996835L1992.6 5.09683L1995.9 5.09683L1995.9 9.19683L1999.2 9.19683L1999.2 13.2968L2000.9 13.2968M2174.8 32.7969C2172.3 31.0969 2169.3 27.0969 2168.4 24.4969C2163.9 35.8969 2149.2 40.8969 2138.8 34.9969M2155.1 32.7969C2152.6 31.0969 2149.6 27.0969 2148.7 24.4969C2144.2 35.8969 2129.5 40.8969 2119.1 34.9969M2142.4 32.8969C2153.7 37.2969 2165.6 29.1969 2166.2 17.5969L2162.1 17.6969L2162.1 13.4969L2166.3 13.4969L2166.3 9.29687L2170.4 9.29687L2170.4 13.4969L2174.6 13.4969L2174.6 17.6969L2170.4 17.6969C2170.3 22.4969 2174.4 29.0969 2178.3 31.0969M2122.6 32.8969C2133.9 37.2969 2145.8 29.1969 2146.5 17.5969L2142.4 17.6969L2142.4 13.4969L2146.6 13.4969L2146.6 9.29687L2150.7 9.29687L2150.7 13.4969L2154.9 13.4969L2154.9 17.6969L2150.7 17.6969C2150.6 22.4969 2154.7 29.0969 2158.6 31.0969M2158.3 13.2969L2160 13.2969L2160 9.19686L2163.3 9.19686L2163.3 5.09686L2166.6 5.09686L2166.6 0.996865L2170 0.996866L2170 5.09686L2173.3 5.09686L2173.3 9.19686L2176.6 9.19687L2176.6 13.2969L2178.3 13.2969M2138.6 13.2969L2140.3 13.2969L2140.3 9.19686L2143.6 9.19686L2143.6 5.09685L2146.9 5.09685L2146.9 0.996864L2150.3 0.996864L2150.3 5.09685L2153.6 5.09686L2153.6 9.19686L2156.9 9.19686L2156.9 13.2969L2158.6 13.2969M1912 37.7968L2198.3 37.7969M1859.4 32.7968C1856.9 31.0968 1853.9 27.0968 1853 24.4968C1848.5 35.8968 1833.8 40.8968 1823.4 34.9968M1839.7 32.7968C1837.2 31.0968 1834.2 27.0968 1833.3 24.4968C1828.8 35.8968 1814.1 40.8968 1803.7 34.9968M1827 32.8968C1838.3 37.2968 1850.2 29.1968 1850.8 17.5968L1846.7 17.6968L1846.7 13.4968L1850.9 13.4968L1850.9 9.29684L1855 9.29684L1855 13.4968L1859.2 13.4968L1859.2 17.6968L1855 17.6968C1854.9 22.4968 1859 29.0968 1862.9 31.0968M1807.2 32.8968C1818.5 37.2968 1830.4 29.1968 1831.1 17.5968L1827 17.6968L1827 13.4968L1831.2 13.4968L1831.2 9.29684L1835.3 9.29684L1835.3 13.4968L1839.5 13.4968L1839.5 17.6968L1835.3 17.6968C1835.2 22.4968 1839.3 29.0968 1843.2 31.0968M1842.9 13.2968L1844.6 13.2968L1844.6 9.19683L1847.9 9.19683L1847.9 5.09682L1851.2 5.09682L1851.2 0.996834L1854.6 0.996834L1854.6 5.09683L1857.9 5.09683L1857.9 9.19683L1861.2 9.19683L1861.2 13.2968L1862.9 13.2968M1823.3 13.2968L1824.9 13.2968L1824.9 9.19683L1828.2 9.19683L1828.2 5.09682L1831.5 5.09682L1831.5 0.996832L1834.9 0.996833L1834.9 5.09682L1838.2 5.09682L1838.2 9.19683L1841.5 9.19683L1841.5 13.2968L1843.2 13.2968M1780.5 32.7968C1778 31.0968 1775 27.0968 1774.1 24.4968C1769.6 35.8968 1754.9 40.8968 1744.5 34.9968M1760.8 32.7968C1758.3 31.0968 1755.3 27.0968 1754.4 24.4968C1749.9 35.8968 1735.2 40.8968 1724.8 34.9968M1748.1 32.8968C1759.4 37.2968 1771.3 29.1968 1771.9 17.5968L1767.8 17.6968L1767.8 13.4968L1772 13.4968L1772 9.29682L1776.1 9.29682L1776.1 13.4968L1780.3 13.4968L1780.3 17.6968L1776.1 17.6968C1776 22.4968 1780.1 29.0968 1784 31.0968M1728.4 32.8968C1739.7 37.2968 1751.6 29.1968 1752.3 17.5968L1748.2 17.6968L1748.2 13.4968L1752.4 13.4968L1752.4 9.29682L1756.5 9.29682L1756.5 13.4968L1760.7 13.4968L1760.7 17.6968L1756.5 17.6968C1756.4 22.4968 1760.5 29.0968 1764.4 31.0968M1774.1 0.996823L1772.4 0.996823L1772.4 5.09681L1769.1 5.09681L1769.1 9.19682L1765.8 9.19682L1765.8 13.2968L1764.1 13.2968M1774 0.996823L1775.7 0.996824L1775.7 5.09681L1779 5.09681L1779 9.19682L1782.3 9.19682L1782.3 13.2968L1784 13.2968M1754.4 0.996818L1752.7 0.996818L1752.7 5.09681L1749.4 5.09681L1749.4 9.19681L1746.1 9.19681L1746.1 13.2968L1744.4 13.2968M1754.3 0.996818L1756 0.996818L1756 5.09681L1759.3 5.09681L1759.3 9.19682L1762.6 9.19682L1762.6 13.2968L1764.3 13.2968M1922.2 35.0968C1916 38.2968 1908.4 38.5968 1902.2 35.0968M1918.5 32.7969C1916 31.0968 1913 27.0968 1912.1 24.4968C1907.6 35.8968 1892.9 40.8968 1882.5 34.9968M1905.8 32.8968C1911.7 35.1968 1917.7 34.0968 1922.2 30.8968M1912.1 0.996847L1910.4 0.996847L1910.4 5.09684L1907.1 5.09684L1907.1 9.19684L1903.8 9.19684L1903.8 13.2968L1902.1 13.2968M1819.9 32.7968C1817.4 31.0968 1814.4 27.0968 1813.5 24.4968C1809 35.8968 1794.3 40.8968 1783.9 34.9968M1800.2 32.7968C1797.7 31.0968 1794.7 27.0968 1793.8 24.4968C1789.3 35.8968 1774.6 40.8968 1764.2 34.9968M1787.5 32.8968C1798.8 37.2968 1810.7 29.1968 1811.3 17.5968L1807.2 17.6968L1807.2 13.4968L1811.4 13.4968L1811.4 9.29683L1815.5 9.29683L1815.5 13.4968L1819.7 13.4968L1819.7 17.6968L1815.5 17.6968C1815.4 22.4968 1819.5 29.0968 1823.4 31.0968M1767.8 32.8968C1779.1 37.2968 1791 29.1968 1791.7 17.5968L1787.6 17.6968L1787.6 13.4968L1791.8 13.4968L1791.8 9.29683L1795.9 9.29683L1795.9 13.4968L1800.1 13.4968L1800.1 17.6968L1795.9 17.6968C1795.8 22.4968 1799.9 29.0968 1803.8 31.0968M1813.5 0.996831L1811.8 0.996827L1811.8 5.09682L1808.5 5.09682L1808.5 9.19683L1805.2 9.19682L1805.2 13.2968L1803.5 13.2968M1813.4 0.996831L1815.1 0.996831L1815.1 5.09682L1818.4 5.09682L1818.4 9.19683L1821.7 9.19683L1821.7 13.2968L1823.4 13.2968M1793.8 0.996825L1792.1 0.996825L1792.1 5.09682L1788.8 5.09682L1788.8 9.19682L1785.5 9.19682L1785.5 13.2968L1783.8 13.2968M1793.7 0.996825L1795.4 0.996825L1795.4 5.09682L1798.7 5.09682L1798.7 9.19682L1802 9.19682L1802 13.2968L1803.7 13.2968M1662.3 32.7968C1659.8 31.0968 1656.8 27.0968 1655.9 24.4968C1652.7 32.6968 1644.3 37.4968 1636 37.4968M1642.6 32.7968C1640.1 31.0968 1637.1 27.0968 1636.2 24.4968M1636 34.0968C1645.1 34.1968 1653.2 27.0968 1653.8 17.5968L1649.7 17.6968L1649.7 13.4968L1653.9 13.4968L1653.9 9.2968L1658 9.2968L1658 13.4968L1662.2 13.4968L1662.2 17.6968L1658 17.6968C1657.9 22.4968 1662 29.0968 1665.9 31.0968M1636 9.2968L1638.2 9.2968M1638.2 9.2968L1638.2 13.4968L1642.4 13.4968L1642.4 17.6968L1638.2 17.6968C1638.1 22.4968 1642.2 29.0968 1646.1 31.0968M1638.2 9.2968L1634.1 9.29682L1634.1 13.4968L1629.9 13.4968L1629.9 17.6968L1634 17.5968C1633.3 29.1968 1621.4 37.2968 1610.1 32.8968M1655.9 0.996802L1654.2 0.996801L1654.2 5.09679L1650.9 5.09679L1650.9 9.1968L1647.6 9.1968L1647.6 13.2968L1645.9 13.2968M1655.8 0.996802L1657.5 0.996802L1657.5 5.09679L1660.8 5.09679L1660.8 9.1968L1664.1 9.1968L1664.1 13.2968L1665.8 13.2968M1701.7 32.7968C1699.2 31.0968 1696.2 27.0968 1695.3 24.4968C1690.8 35.8968 1676.1 40.8968 1665.7 34.9968M1681.9 32.7968C1679.4 31.0968 1676.4 27.0968 1675.5 24.4968C1671 35.8968 1656.3 40.8968 1645.9 34.9968M1669.2 32.8968C1680.5 37.2968 1692.4 29.1968 1693 17.5968L1688.9 17.6968L1688.9 13.4968L1693.1 13.4968L1693.1 9.29681L1697.2 9.29681L1697.2 13.4968L1701.4 13.4968L1701.4 17.6968L1697.2 17.6968C1697.1 22.4968 1701.2 29.0968 1705.1 31.0968M1649.5 32.8968C1660.8 37.2968 1672.7 29.1968 1673.4 17.5968L1669.3 17.6968L1669.3 13.4968L1673.5 13.4968L1673.5 9.29681L1677.6 9.29681L1677.6 13.4968L1681.8 13.4968L1681.8 17.6968L1677.6 17.6968C1677.5 22.4968 1681.6 29.0968 1685.5 31.0968M1685.3 13.2968L1686.9 13.2968L1686.9 9.1968L1690.2 9.1968L1690.2 5.0968L1693.5 5.0968L1693.5 0.996809L1696.9 0.996809L1696.9 5.0968L1700.2 5.0968L1700.2 9.19681L1703.5 9.19681L1703.5 13.2968L1705.2 13.2968M1675.5 0.996803L1673.8 0.996803L1673.8 5.09679L1670.5 5.09679L1670.5 9.1968L1667.2 9.1968L1667.2 13.2968L1665.5 13.2968M1675.4 0.996803L1677.1 0.996803L1677.1 5.09679L1680.4 5.09679L1680.4 9.1968L1683.7 9.1968L1683.7 13.2968L1685.4 13.2968M1741.1 32.7968C1738.6 31.0968 1735.6 27.0968 1734.7 24.4968C1730.2 35.8968 1715.5 40.8968 1705.1 34.9968M1721.4 32.7968C1718.9 31.0968 1715.9 27.0968 1715 24.4968C1710.5 35.8968 1695.8 40.8968 1685.4 34.9968M1708.7 32.8968C1720 37.2968 1731.9 29.1968 1732.5 17.5968L1728.4 17.6968L1728.4 13.4968L1732.6 13.4968L1732.6 9.29682L1736.7 9.29682L1736.7 13.4968L1740.9 13.4968L1740.9 17.6968L1736.7 17.6968C1736.6 22.4968 1740.7 29.0968 1744.6 31.0968M1688.9 32.8968C1700.2 37.2968 1712.1 29.1968 1712.8 17.5968L1708.7 17.6968L1708.7 13.4968L1712.9 13.4968L1712.9 9.29681L1717 9.29682L1717 13.4968L1721.2 13.4968L1721.2 17.6968L1717 17.6968C1716.9 22.4968 1721 29.0968 1724.9 31.0968M1724.6 13.2968L1726.3 13.2968L1726.3 9.19681L1729.6 9.19681L1729.6 5.09681L1732.9 5.09681L1732.9 0.996816L1736.3 0.996816L1736.3 5.09681L1739.6 5.09681L1739.6 9.19681L1742.9 9.19681L1742.9 13.2968L1744.6 13.2968M1704.9 13.2968L1706.6 13.2968L1706.6 9.19681L1709.9 9.19681L1709.9 5.0968L1713.2 5.0968L1713.2 0.99681L1716.6 0.996811L1716.6 5.0968L1719.9 5.0968L1719.9 9.19681L1723.2 9.19681L1723.2 13.2968L1724.9 13.2968M1898.8 32.7968C1896.3 31.0968 1893.3 27.0968 1892.4 24.4968C1887.9 35.8968 1873.2 40.8968 1862.8 34.9968M1879.1 32.7968C1876.6 31.0968 1873.6 27.0968 1872.7 24.4968C1868.2 35.8968 1853.5 40.8968 1843.1 34.9968M1866.4 32.8968C1877.7 37.2968 1889.6 29.1968 1890.2 17.5968L1886.1 17.6968L1886.1 13.4968L1890.3 13.4968L1890.3 9.29685L1894.4 9.29685L1894.4 13.4968L1898.6 13.4968L1898.6 17.6968L1894.4 17.6968C1894.3 22.4968 1898.4 29.0968 1902.3 31.0968M1846.6 32.8968C1857.9 37.2968 1869.8 29.1968 1870.5 17.5968L1866.4 17.6968L1866.4 13.4968L1870.6 13.4968L1870.6 9.29684L1874.7 9.29684L1874.7 13.4968L1878.9 13.4968L1878.9 17.6968L1874.7 17.6968C1874.6 22.4968 1878.7 29.0968 1882.6 31.0968M1882.3 13.2968L1884 13.2968L1884 9.19684L1887.3 9.19684L1887.3 5.09683L1890.6 5.09683L1890.6 0.996841L1894 0.996842L1894 5.09683L1897.3 5.09683L1897.3 9.19684L1900.6 9.19684L1900.6 13.2968L1902.3 13.2968M1862.6 13.2968L1864.3 13.2968L1864.3 9.19683L1867.6 9.19683L1867.6 5.09683L1870.9 5.09683L1870.9 0.99684L1874.3 0.99684L1874.3 5.09683L1877.6 5.09683L1877.6 9.19684L1880.9 9.19684L1880.9 13.2968L1882.6 13.2968M1636 37.7968L1922.3 37.7969M1583.4 32.7968C1580.9 31.0968 1577.9 27.0968 1577 24.4968C1572.5 35.8968 1557.8 40.8968 1547.4 34.9968M1563.7 32.7968C1561.2 31.0968 1558.2 27.0968 1557.3 24.4968C1552.8 35.8968 1538.1 40.8968 1527.7 34.9968M1551 32.8968C1562.3 37.2968 1574.2 29.1968 1574.8 17.5968L1570.7 17.6968L1570.7 13.4968L1574.9 13.4968L1574.9 9.29681L1579 9.29682L1579 13.4968L1583.2 13.4968L1583.2 17.6968L1579 17.6968C1578.9 22.4968 1583 29.0968 1586.9 31.0968M1531.2 32.8968C1542.5 37.2968 1554.4 29.1968 1555.1 17.5968L1551 17.6968L1551 13.4968L1555.2 13.4968L1555.2 9.29681L1559.3 9.29681L1559.3 13.4968L1563.5 13.4968L1563.5 17.6968L1559.3 17.6968C1559.2 22.4968 1563.3 29.0968 1567.2 31.0968M1566.9 13.2968L1568.6 13.2968L1568.6 9.19681L1571.9 9.19681L1571.9 5.0968L1575.2 5.0968L1575.2 0.99681L1578.6 0.99681L1578.6 5.0968L1581.9 5.09681L1581.9 9.19681L1585.2 9.19681L1585.2 13.2968L1586.9 13.2968M1547.3 13.2968L1548.9 13.2968L1548.9 9.1968L1552.2 9.1968L1552.2 5.0968L1555.5 5.0968L1555.5 0.996808L1558.9 0.996808L1558.9 5.0968L1562.2 5.0968L1562.2 9.19681L1565.5 9.19681L1565.5 13.2968L1567.2 13.2968M1504.5 32.7968C1502 31.0968 1499 27.0968 1498.1 24.4968C1493.6 35.8968 1478.9 40.8968 1468.5 34.9968M1484.8 32.7968C1482.3 31.0968 1479.3 27.0968 1478.4 24.4968C1473.9 35.8968 1459.2 40.8968 1448.8 34.9968M1472.1 32.8968C1483.4 37.2968 1495.3 29.1968 1495.9 17.5968L1491.8 17.6968L1491.8 13.4968L1496 13.4968L1496 9.2968L1500.1 9.2968L1500.1 13.4968L1504.3 13.4968L1504.3 17.6968L1500.1 17.6968C1500 22.4968 1504.1 29.0968 1508 31.0968M1452.4 32.8968C1463.7 37.2968 1475.6 29.1968 1476.3 17.5968L1472.2 17.6968L1472.2 13.4968L1476.4 13.4968L1476.4 9.2968L1480.5 9.2968L1480.5 13.4968L1484.7 13.4968L1484.7 17.6968L1480.5 17.6968C1480.4 22.4968 1484.5 29.0968 1488.4 31.0968M1498.1 0.996799L1496.4 0.996799L1496.4 5.09679L1493.1 5.09679L1493.1 9.19679L1489.8 9.19679L1489.8 13.2968L1488.1 13.2968M1498 0.996799L1499.7 0.996799L1499.7 5.09679L1503 5.09679L1503 9.19679L1506.3 9.1968L1506.3 13.2968L1508 13.2968M1478.4 0.996794L1476.7 0.996794L1476.7 5.09678L1473.4 5.09678L1473.4 9.19679L1470.1 9.19679L1470.1 13.2968L1468.4 13.2968M1478.3 0.996794L1480 0.996794L1480 5.09678L1483.3 5.09679L1483.3 9.19679L1486.6 9.19679L1486.6 13.2968L1488.3 13.2968M1646.2 35.0968C1640 38.2968 1632.4 38.5968 1626.2 35.0968M1642.5 32.7968C1640 31.0968 1637 27.0968 1636.1 24.4968C1631.6 35.8968 1616.9 40.8968 1606.5 34.9968M1629.8 32.8968C1635.7 35.1968 1641.7 34.0968 1646.2 30.8968M1636.1 0.996823L1634.4 0.996823L1634.4 5.09681L1631.1 5.09681L1631.1 9.19682L1627.8 9.19682L1627.8 13.2968L1626.1 13.2968M1543.9 32.7968C1541.4 31.0968 1538.4 27.0968 1537.5 24.4968C1533 35.8968 1518.3 40.8968 1507.9 34.9968M1524.2 32.7968C1521.7 31.0968 1518.7 27.0968 1517.8 24.4968C1513.3 35.8968 1498.6 40.8968 1488.2 34.9968M1511.5 32.8968C1522.8 37.2968 1534.7 29.1968 1535.3 17.5968L1531.2 17.6968L1531.2 13.4968L1535.4 13.4968L1535.4 9.29681L1539.5 9.29681L1539.5 13.4968L1543.7 13.4968L1543.7 17.6968L1539.5 17.6968C1539.4 22.4968 1543.5 29.0968 1547.4 31.0968M1491.8 32.8968C1503.1 37.2968 1515 29.1968 1515.7 17.5968L1511.6 17.6968L1511.6 13.4968L1515.8 13.4968L1515.8 9.2968L1519.9 9.2968L1519.9 13.4968L1524.1 13.4968L1524.1 17.6968L1519.9 17.6968C1519.8 22.4968 1523.9 29.0968 1527.8 31.0968M1537.5 0.996807L1535.8 0.996803L1535.8 5.09679L1532.5 5.09679L1532.5 9.1968L1529.2 9.1968L1529.2 13.2968L1527.5 13.2968M1537.4 0.996807L1539.1 0.996807L1539.1 5.0968L1542.4 5.0968L1542.4 9.1968L1545.7 9.1968L1545.7 13.2968L1547.4 13.2968M1517.8 0.996801L1516.1 0.996801L1516.1 5.09679L1512.8 5.09679L1512.8 9.1968L1509.5 9.1968L1509.5 13.2968L1507.8 13.2968M1517.7 0.996801L1519.4 0.996801L1519.4 5.09679L1522.7 5.09679L1522.7 9.1968L1526 9.1968L1526 13.2968L1527.7 13.2968M1386.3 32.7968C1383.8 31.0968 1380.8 27.0968 1379.9 24.4968C1376.7 32.6968 1368.3 37.4968 1360 37.4968M1366.6 32.7968C1364.1 31.0968 1361.1 27.0968 1360.2 24.4968M1360 34.0968C1369.1 34.1968 1377.2 27.0968 1377.8 17.5968L1373.7 17.6968L1373.7 13.4968L1377.9 13.4968L1377.9 9.29678L1382 9.29678L1382 13.4968L1386.2 13.4968L1386.2 17.6968L1382 17.6968C1381.9 22.4968 1386 29.0968 1389.9 31.0968M1360 9.29678L1362.2 9.29678M1362.2 9.29678L1362.2 13.4968L1366.4 13.4968L1366.4 17.6968L1362.2 17.6968C1362.1 22.4968 1366.2 29.0968 1370.1 31.0968M1362.2 9.29678L1358.1 9.2968L1358.1 13.4968L1353.9 13.4968L1353.9 17.6968L1358 17.5968C1357.3 29.1968 1345.4 37.2968 1334.1 32.8968M1379.9 0.996778L1378.2 0.996777L1378.2 5.09677L1374.9 5.09677L1374.9 9.19677L1371.6 9.19677L1371.6 13.2968L1369.9 13.2968M1379.8 0.996778L1381.5 0.996778L1381.5 5.09677L1384.8 5.09677L1384.8 9.19677L1388.1 9.19678L1388.1 13.2968L1389.8 13.2968M1425.7 32.7968C1423.2 31.0968 1420.2 27.0968 1419.3 24.4968C1414.8 35.8968 1400.1 40.8968 1389.7 34.9968M1405.9 32.7968C1403.4 31.0968 1400.4 27.0968 1399.5 24.4968C1395 35.8968 1380.3 40.8968 1369.9 34.9968M1393.2 32.8968C1404.5 37.2968 1416.4 29.1968 1417 17.5968L1412.9 17.6968L1412.9 13.4968L1417.1 13.4968L1417.1 9.29679L1421.2 9.29679L1421.2 13.4968L1425.4 13.4968L1425.4 17.6968L1421.2 17.6968C1421.1 22.4968 1425.2 29.0968 1429.1 31.0968M1373.5 32.8968C1384.8 37.2968 1396.7 29.1968 1397.4 17.5968L1393.3 17.6968L1393.3 13.4968L1397.5 13.4968L1397.5 9.29678L1401.6 9.29678L1401.6 13.4968L1405.8 13.4968L1405.8 17.6968L1401.6 17.6968C1401.5 22.4968 1405.6 29.0968 1409.5 31.0968M1409.3 13.2968L1410.9 13.2968L1410.9 9.19678L1414.2 9.19678L1414.2 5.09678L1417.5 5.09678L1417.5 0.996785L1420.9 0.996785L1420.9 5.09678L1424.2 5.09678L1424.2 9.19678L1427.5 9.19678L1427.5 13.2968L1429.2 13.2968M1399.5 0.996779L1397.8 0.996779L1397.8 5.09677L1394.5 5.09677L1394.5 9.19678L1391.2 9.19678L1391.2 13.2968L1389.5 13.2968M1399.4 0.996779L1401.1 0.996779L1401.1 5.09677L1404.4 5.09677L1404.4 9.19678L1407.7 9.19678L1407.7 13.2968L1409.4 13.2968M1465.1 32.7968C1462.6 31.0968 1459.6 27.0968 1458.7 24.4968C1454.2 35.8968 1439.5 40.8968 1429.1 34.9968M1445.4 32.7968C1442.9 31.0968 1439.9 27.0968 1439 24.4968C1434.5 35.8968 1419.8 40.8968 1409.4 34.9968M1432.7 32.8968C1444 37.2968 1455.9 29.1968 1456.5 17.5968L1452.4 17.6968L1452.4 13.4968L1456.6 13.4968L1456.6 9.29679L1460.7 9.29679L1460.7 13.4968L1464.9 13.4968L1464.9 17.6968L1460.7 17.6968C1460.6 22.4968 1464.7 29.0968 1468.6 31.0968M1412.9 32.8968C1424.2 37.2968 1436.1 29.1968 1436.8 17.5968L1432.7 17.6968L1432.7 13.4968L1436.9 13.4968L1436.9 9.29679L1441 9.29679L1441 13.4968L1445.2 13.4968L1445.2 17.6968L1441 17.6968C1440.9 22.4968 1445 29.0968 1448.9 31.0968M1448.6 13.2968L1450.3 13.2968L1450.3 9.19679L1453.6 9.19679L1453.6 5.09678L1456.9 5.09678L1456.9 0.996792L1460.3 0.996792L1460.3 5.09678L1463.6 5.09678L1463.6 9.19679L1466.9 9.19679L1466.9 13.2968L1468.6 13.2968M1428.9 13.2968L1430.6 13.2968L1430.6 9.19678L1433.9 9.19678L1433.9 5.09678L1437.2 5.09678L1437.2 0.996786L1440.6 0.996787L1440.6 5.09678L1443.9 5.09678L1443.9 9.19679L1447.2 9.19679L1447.2 13.2968L1448.9 13.2968M1622.8 32.7968C1620.3 31.0968 1617.3 27.0968 1616.4 24.4968C1611.9 35.8968 1597.2 40.8968 1586.8 34.9968M1603.1 32.7968C1600.6 31.0968 1597.6 27.0968 1596.7 24.4968C1592.2 35.8968 1577.5 40.8968 1567.1 34.9968M1590.4 32.8968C1601.7 37.2968 1613.6 29.1968 1614.2 17.5968L1610.1 17.6968L1610.1 13.4968L1614.3 13.4968L1614.3 9.29682L1618.4 9.29682L1618.4 13.4968L1622.6 13.4968L1622.6 17.6968L1618.4 17.6968C1618.3 22.4968 1622.4 29.0968 1626.3 31.0968M1570.6 32.8968C1581.9 37.2968 1593.8 29.1968 1594.5 17.5968L1590.4 17.6968L1590.4 13.4968L1594.6 13.4968L1594.6 9.29682L1598.7 9.29682L1598.7 13.4968L1602.9 13.4968L1602.9 17.6968L1598.7 17.6968C1598.6 22.4968 1602.7 29.0968 1606.6 31.0968M1606.3 13.2968L1608 13.2968L1608 9.19681L1611.3 9.19681L1611.3 5.09681L1614.6 5.09681L1614.6 0.996817L1618 0.996817L1618 5.09681L1621.3 5.09681L1621.3 9.19682L1624.6 9.19682L1624.6 13.2968L1626.3 13.2968M1586.6 13.2968L1588.3 13.2968L1588.3 9.19681L1591.6 9.19681L1591.6 5.09681L1594.9 5.09681L1594.9 0.996815L1598.3 0.996816L1598.3 5.09681L1601.6 5.09681L1601.6 9.19681L1604.9 9.19681L1604.9 13.2968L1606.6 13.2968M1360 37.7968L1646.3 37.7968M1307.4 32.7968C1304.9 31.0968 1301.9 27.0968 1301 24.4968C1296.5 35.8968 1281.8 40.8968 1271.4 34.9968M1287.7 32.7968C1285.2 31.0968 1282.2 27.0968 1281.3 24.4968C1276.8 35.8968 1262.1 40.8968 1251.7 34.9968M1275 32.8968C1286.3 37.2968 1298.2 29.1968 1298.8 17.5968L1294.7 17.6968L1294.7 13.4968L1298.9 13.4968L1298.9 9.29679L1303 9.29679L1303 13.4968L1307.2 13.4968L1307.2 17.6968L1303 17.6968C1302.9 22.4968 1307 29.0968 1310.9 31.0968M1255.2 32.8968C1266.5 37.2968 1278.4 29.1968 1279.1 17.5968L1275 17.6968L1275 13.4968L1279.2 13.4968L1279.2 9.29679L1283.3 9.29679L1283.3 13.4968L1287.5 13.4968L1287.5 17.6968L1283.3 17.6968C1283.2 22.4968 1287.3 29.0968 1291.2 31.0968M1290.9 13.2968L1292.6 13.2968L1292.6 9.19678L1295.9 9.19678L1295.9 5.09678L1299.2 5.09678L1299.2 0.996786L1302.6 0.996786L1302.6 5.09678L1305.9 5.09678L1305.9 9.19679L1309.2 9.19679L1309.2 13.2968L1310.9 13.2968M1271.3 13.2968L1272.9 13.2968L1272.9 9.19678L1276.2 9.19678L1276.2 5.09677L1279.5 5.09677L1279.5 0.996784L1282.9 0.996784L1282.9 5.09678L1286.2 5.09678L1286.2 9.19678L1289.5 9.19678L1289.5 13.2968L1291.2 13.2968M1228.5 32.7968C1226 31.0968 1223 27.0968 1222.1 24.4968C1217.6 35.8968 1202.9 40.8968 1192.5 34.9968M1208.8 32.7968C1206.3 31.0968 1203.3 27.0968 1202.4 24.4968C1197.9 35.8968 1183.2 40.8968 1172.8 34.9968M1196.1 32.8968C1207.4 37.2968 1219.3 29.1968 1219.9 17.5968L1215.8 17.6968L1215.8 13.4968L1220 13.4968L1220 9.29678L1224.1 9.29678L1224.1 13.4968L1228.3 13.4968L1228.3 17.6968L1224.1 17.6968C1224 22.4968 1228.1 29.0968 1232 31.0968M1176.4 32.8968C1187.7 37.2968 1199.6 29.1968 1200.3 17.5968L1196.2 17.6968L1196.2 13.4968L1200.4 13.4968L1200.4 9.29677L1204.5 9.29677L1204.5 13.4968L1208.7 13.4968L1208.7 17.6968L1204.5 17.6968C1204.4 22.4968 1208.5 29.0968 1212.4 31.0968M1222.1 0.996775L1220.4 0.996775L1220.4 5.09677L1217.1 5.09676L1217.1 9.19677L1213.8 9.19677L1213.8 13.2968L1212.1 13.2968M1222 0.996775L1223.7 0.996775L1223.7 5.09677L1227 5.09677L1227 9.19677L1230.3 9.19677L1230.3 13.2968L1232 13.2968M1202.4 0.99677L1200.7 0.996769L1200.7 5.09676L1197.4 5.09676L1197.4 9.19677L1194.1 9.19677L1194.1 13.2968L1192.4 13.2968M1202.3 0.99677L1204 0.99677L1204 5.09676L1207.3 5.09676L1207.3 9.19677L1210.6 9.19677L1210.6 13.2968L1212.3 13.2968M1370.2 35.0968C1364 38.2968 1356.4 38.5968 1350.2 35.0968M1366.5 32.7968C1364 31.0968 1361 27.0968 1360.1 24.4968C1355.6 35.8968 1340.9 40.8968 1330.5 34.9968M1353.8 32.8968C1359.7 35.1968 1365.7 34.0968 1370.2 30.8968M1360.1 0.996799L1358.4 0.996799L1358.4 5.09679L1355.1 5.09679L1355.1 9.19679L1351.8 9.19679L1351.8 13.2968L1350.1 13.2968M1267.9 32.7968C1265.4 31.0968 1262.4 27.0968 1261.5 24.4968C1257 35.8968 1242.3 40.8968 1231.9 34.9968M1248.2 32.7968C1245.7 31.0968 1242.7 27.0968 1241.8 24.4968C1237.3 35.8968 1222.6 40.8968 1212.2 34.9968M1235.5 32.8968C1246.8 37.2968 1258.7 29.1968 1259.3 17.5968L1255.2 17.6968L1255.2 13.4968L1259.4 13.4968L1259.4 9.29678L1263.5 9.29678L1263.5 13.4968L1267.7 13.4968L1267.7 17.6968L1263.5 17.6968C1263.4 22.4968 1267.5 29.0968 1271.4 31.0968M1215.8 32.8968C1227.1 37.2968 1239 29.1968 1239.7 17.5968L1235.6 17.6968L1235.6 13.4968L1239.8 13.4968L1239.8 9.29678L1243.9 9.29678L1243.9 13.4968L1248.1 13.4968L1248.1 17.6968L1243.9 17.6968C1243.8 22.4968 1247.9 29.0968 1251.8 31.0968M1261.5 0.996782L1259.8 0.996778L1259.8 5.09677L1256.5 5.09677L1256.5 9.19678L1253.2 9.19678L1253.2 13.2968L1251.5 13.2968M1261.4 0.996782L1263.1 0.996783L1263.1 5.09677L1266.4 5.09677L1266.4 9.19678L1269.7 9.19678L1269.7 13.2968L1271.4 13.2968M1241.8 0.996777L1240.1 0.996777L1240.1 5.09677L1236.8 5.09677L1236.8 9.19677L1233.5 9.19677L1233.5 13.2968L1231.8 13.2968M1241.7 0.996777L1243.4 0.996777L1243.4 5.09677L1246.7 5.09677L1246.7 9.19677L1250 9.19677L1250 13.2968L1251.7 13.2968M1110.3 32.7968C1107.8 31.0968 1104.8 27.0968 1103.9 24.4968C1100.7 32.6968 1092.3 37.4968 1084 37.4967M1090.6 32.7968C1088.1 31.0968 1085.1 27.0967 1084.2 24.4967M1084 34.0967C1093.1 34.1967 1101.2 27.0967 1101.8 17.5967L1097.7 17.6967L1097.7 13.4968L1101.9 13.4968L1101.9 9.29676L1106 9.29676L1106 13.4968L1110.2 13.4968L1110.2 17.6968L1106 17.6968C1105.9 22.4968 1110 29.0967 1113.9 31.0967M1084 9.29675L1086.2 9.29675L1086.2 13.4967L1090.4 13.4968L1090.4 17.6967L1086.2 17.6967C1086.1 22.4967 1090.2 29.0967 1094.1 31.0967M1103.9 0.996753L1102.2 0.996753L1102.2 5.09674L1098.9 5.09674L1098.9 9.19675L1095.6 9.19675L1095.6 13.2968L1093.9 13.2968M1103.8 0.996753L1105.5 0.996754L1105.5 5.09674L1108.8 5.09674L1108.8 9.19675L1112.1 9.19675L1112.1 13.2968L1113.8 13.2968M1084 0.996748L1085.8 0.996748L1085.8 5.09674L1089.1 5.09674L1089.1 9.19675L1092.4 9.19675L1092.4 13.2968L1095.8 13.2968L1095.8 9.19677L1099.1 9.19677L1099.1 5.09677L1102.4 5.09677L1102.4 0.996776L1104.1 0.996776M1149.7 32.7968C1147.2 31.0968 1144.2 27.0968 1143.3 24.4968C1138.8 35.8968 1124.1 40.8968 1113.7 34.9968M1129.9 32.7968C1127.4 31.0968 1124.4 27.0968 1123.5 24.4968C1119 35.8968 1104.3 40.8968 1093.9 34.9968M1117.2 32.8967C1128.5 37.2968 1140.4 29.1967 1141 17.5967L1136.9 17.6968L1136.9 13.4968L1141.1 13.4968L1141.1 9.29676L1145.2 9.29676L1145.2 13.4968L1149.4 13.4968L1149.4 17.6968L1145.2 17.6968C1145.1 22.4968 1149.2 29.0968 1153.1 31.0968M1097.5 32.8967C1108.8 37.2967 1120.7 29.1967 1121.4 17.5967L1117.3 17.6968L1117.3 13.4968L1121.5 13.4968L1121.5 9.29676L1125.6 9.29676L1125.6 13.4968L1129.8 13.4968L1129.8 17.6968L1125.6 17.6968C1125.5 22.4968 1129.6 29.0967 1133.5 31.0967M1133.3 13.2968L1134.9 13.2968L1134.9 9.19675L1138.2 9.19676L1138.2 5.09675L1141.5 5.09675L1141.5 0.99676L1144.9 0.996761L1144.9 5.09675L1148.2 5.09675L1148.2 9.19676L1151.5 9.19676L1151.5 13.2968L1153.2 13.2968M1123.5 0.996755L1121.8 0.996755L1121.8 5.09675L1118.5 5.09675L1118.5 9.19675L1115.2 9.19675L1115.2 13.2968L1113.5 13.2968M1123.4 0.996755L1125.1 0.996755L1125.1 5.09675L1128.4 5.09675L1128.4 9.19675L1131.7 9.19675L1131.7 13.2968L1133.4 13.2968M1189.1 32.7968C1186.6 31.0968 1183.6 27.0968 1182.7 24.4968C1178.2 35.8968 1163.5 40.8968 1153.1 34.9968M1169.4 32.7968C1166.9 31.0968 1163.9 27.0968 1163 24.4968C1158.5 35.8968 1143.8 40.8968 1133.4 34.9968M1156.7 32.8968C1168 37.2968 1179.9 29.1968 1180.5 17.5968L1176.4 17.6968L1176.4 13.4968L1180.6 13.4968L1180.6 9.29677L1184.7 9.29677L1184.7 13.4968L1188.9 13.4968L1188.9 17.6968L1184.7 17.6968C1184.6 22.4968 1188.7 29.0968 1192.6 31.0968M1136.9 32.8968C1148.2 37.2968 1160.1 29.1968 1160.8 17.5968L1156.7 17.6968L1156.7 13.4968L1160.9 13.4968L1160.9 9.29677L1165 9.29677L1165 13.4968L1169.2 13.4968L1169.2 17.6968L1165 17.6968C1164.9 22.4968 1169 29.0968 1172.9 31.0968M1172.6 13.2968L1174.3 13.2968L1174.3 9.19676L1177.6 9.19676L1177.6 5.09676L1180.9 5.09676L1180.9 0.996768L1184.3 0.996768L1184.3 5.09676L1187.6 5.09676L1187.6 9.19677L1190.9 9.19677L1190.9 13.2968L1192.6 13.2968M1152.9 13.2968L1154.6 13.2968L1154.6 9.19676L1157.9 9.19676L1157.9 5.09675L1161.2 5.09675L1161.2 0.996762L1164.6 0.996763L1164.6 5.09675L1167.9 5.09675L1167.9 9.19676L1171.2 9.19676L1171.2 13.2968L1172.9 13.2968M1346.8 32.7968C1344.3 31.0968 1341.3 27.0968 1340.4 24.4968C1335.9 35.8968 1321.2 40.8968 1310.8 34.9968M1327.1 32.7968C1324.6 31.0968 1321.6 27.0968 1320.7 24.4968C1316.2 35.8968 1301.5 40.8968 1291.1 34.9968M1314.4 32.8968C1325.7 37.2968 1337.6 29.1968 1338.2 17.5968L1334.1 17.6968L1334.1 13.4968L1338.3 13.4968L1338.3 9.2968L1342.4 9.2968L1342.4 13.4968L1346.6 13.4968L1346.6 17.6968L1342.4 17.6968C1342.3 22.4968 1346.4 29.0968 1350.3 31.0968M1294.6 32.8968C1305.9 37.2968 1317.8 29.1968 1318.5 17.5968L1314.4 17.6968L1314.4 13.4968L1318.6 13.4968L1318.6 9.29679L1322.7 9.29679L1322.7 13.4968L1326.9 13.4968L1326.9 17.6968L1322.7 17.6968C1322.6 22.4968 1326.7 29.0968 1330.6 31.0968M1330.3 13.2968L1332 13.2968L1332 9.19679L1335.3 9.19679L1335.3 5.09678L1338.6 5.09678L1338.6 0.996793L1342 0.996793L1342 5.09678L1345.3 5.09678L1345.3 9.19679L1348.6 9.19679L1348.6 13.2968L1350.3 13.2968M1310.6 13.2968L1312.3 13.2968L1312.3 9.19679L1315.6 9.19679L1315.6 5.09678L1318.9 5.09678L1318.9 0.996791L1322.3 0.996792L1322.3 5.09678L1325.6 5.09678L1325.6 9.19679L1328.9 9.19679L1328.9 13.2968L1330.6 13.2968M1084 37.7968L1370.3 37.7968M1051.4 32.7968C1048.9 31.0968 1045.9 27.0968 1045 24.4968C1040.5 35.8968 1025.8 40.8968 1015.4 34.9968M1031.7 32.7968C1029.2 31.0968 1026.2 27.0968 1025.3 24.4968C1020.8 35.8968 1006.1 40.8968 995.697 34.9968M1019 32.8968C1030.3 37.2968 1042.2 29.1968 1042.8 17.5968L1038.7 17.6968L1038.7 13.4968L1042.9 13.4968L1042.9 9.29677L1047 9.29677L1047 13.4968L1051.2 13.4968L1051.2 17.6968L1047 17.6968C1046.9 22.4968 1051 29.0968 1054.9 31.0968M999.197 32.8968C1010.5 37.2968 1022.4 29.1968 1023.1 17.5968L1019 17.6968L1019 13.4968L1023.2 13.4968L1023.2 9.29676L1027.3 9.29676L1027.3 13.4968L1031.5 13.4968L1031.5 17.6968L1027.3 17.6968C1027.2 22.4968 1031.3 29.0968 1035.2 31.0968M1034.9 13.2968L1036.6 13.2968L1036.6 9.19676L1039.9 9.19676L1039.9 5.09675L1043.2 5.09675L1043.2 0.996763L1046.6 0.996764L1046.6 5.09675L1049.9 5.09676L1049.9 9.19676L1053.2 9.19676L1053.2 13.2968L1054.9 13.2968M1015.3 13.2968L1016.9 13.2968L1016.9 9.19676L1020.2 9.19676L1020.2 5.09675L1023.5 5.09675L1023.5 0.996762L1026.9 0.996762L1026.9 5.09675L1030.2 5.09675L1030.2 9.19676L1033.5 9.19676L1033.5 13.2968L1035.2 13.2968M972.497 32.7968C969.997 31.0968 966.997 27.0968 966.097 24.4968C961.597 35.8968 946.897 40.8967 936.497 34.9967M952.797 32.7968C950.297 31.0968 947.297 27.0967 946.397 24.4967C941.897 35.8967 927.197 40.8967 916.797 34.9967M940.097 32.8967C951.397 37.2967 963.297 29.1967 963.897 17.5967L959.797 17.6967L959.797 13.4968L963.997 13.4968L963.997 9.29675L968.097 9.29675L968.097 13.4968L972.297 13.4968L972.297 17.6967L968.097 17.6967C967.997 22.4967 972.097 29.0967 975.997 31.0967M920.397 32.8967C931.697 37.2967 943.597 29.1967 944.297 17.5967L940.197 17.6967L940.197 13.4967L944.397 13.4967L944.397 9.29675L948.497 9.29675L948.497 13.4967L952.697 13.4967L952.697 17.6967L948.497 17.6967C948.397 22.4967 952.497 29.0967 956.397 31.0967M966.097 0.996753L964.397 0.996753L964.397 5.09674L961.097 5.09674L961.097 9.19675L957.797 9.19675L957.797 13.2968L956.097 13.2968M965.997 0.996753L967.697 0.996753L967.697 5.09674L970.997 5.09674L970.997 9.19675L974.297 9.19675L974.297 13.2968L975.997 13.2968M946.397 0.996747L944.697 0.996747L944.697 5.09674L941.397 5.09674L941.397 9.19674L938.097 9.19674L938.097 13.2967L936.397 13.2967M946.297 0.996747L947.997 0.996747L947.997 5.09674L951.297 5.09674L951.297 9.19675L954.597 9.19675L954.597 13.2968L956.297 13.2968M1114.2 35.0968C1108 38.2968 1100.4 38.5968 1094.2 35.0968M1110.5 32.7968C1108 31.0968 1105 27.0968 1104.1 24.4968C1099.6 35.8968 1084.9 40.8968 1074.5 34.9968M1097.8 32.8968C1103.7 35.1968 1109.7 34.0968 1114.2 30.8968M1078.1 32.8968C1089.4 37.2968 1101.3 29.1968 1102 17.5968L1097.9 17.6968L1097.9 13.4968L1102.1 13.4968L1102.1 9.29678L1106.2 9.29678L1106.2 13.4968L1110.4 13.4968L1110.4 17.6968L1106.2 17.6968C1106.1 22.4968 1110.2 29.0968 1114.1 31.0968M1104 0.996776L1105.7 0.996776L1105.7 5.09677L1109 5.09677L1109 9.19677L1112.3 9.19677L1112.3 13.2968L1114.1 13.2968M1011.9 32.7968C1009.4 31.0968 1006.4 27.0968 1005.5 24.4968C1001 35.8968 986.297 40.8968 975.897 34.9968M992.197 32.7968C989.697 31.0968 986.697 27.0968 985.797 24.4968C981.297 35.8968 966.597 40.8968 956.197 34.9967M979.497 32.8967C990.797 37.2967 1002.7 29.1967 1003.3 17.5967L999.197 17.6968L999.197 13.4968L1003.4 13.4968L1003.4 9.29676L1007.5 9.29676L1007.5 13.4968L1011.7 13.4968L1011.7 17.6968L1007.5 17.6968C1007.4 22.4968 1011.5 29.0968 1015.4 31.0968M959.797 32.8967C971.097 37.2967 982.997 29.1967 983.697 17.5967L979.597 17.6968L979.597 13.4968L983.797 13.4968L983.797 9.29676L987.897 9.29676L987.897 13.4968L992.097 13.4968L992.097 17.6968L987.897 17.6968C987.797 22.4968 991.897 29.0967 995.797 31.0967M1005.5 0.99676L1003.8 0.996756L1003.8 5.09675L1000.5 5.09675L1000.5 9.19675L997.197 9.19675L997.197 13.2968L995.497 13.2968M1005.4 0.99676L1007.1 0.99676L1007.1 5.09675L1010.4 5.09675L1010.4 9.19676L1013.7 9.19676L1013.7 13.2968L1015.4 13.2968M985.797 0.996755L984.097 0.996754L984.097 5.09675L980.797 5.09674L980.797 9.19675L977.497 9.19675L977.497 13.2968L975.797 13.2968M985.697 0.996754L987.397 0.996755L987.397 5.09675L990.697 5.09675L990.697 9.19675L993.997 9.19675L993.997 13.2968L995.697 13.2968M854.297 32.7967C851.797 31.0967 848.797 27.0967 847.897 24.4967C844.697 32.6967 836.297 37.4967 827.997 37.4967M834.597 32.7967C832.097 31.0967 829.097 27.0967 828.197 24.4967M827.997 34.0967C837.097 34.1967 845.197 27.0967 845.797 17.5967L841.697 17.6967L841.697 13.4967L845.897 13.4967L845.897 9.29673L849.997 9.29673L849.997 13.4967L854.197 13.4967L854.197 17.6967L849.997 17.6967C849.897 22.4967 853.997 29.0967 857.897 31.0967M827.997 9.29673L830.197 9.29673M830.197 9.29673L830.197 13.4967L834.397 13.4967L834.397 17.6967L830.197 17.6967C830.097 22.4967 834.197 29.0967 838.097 31.0967M830.197 9.29673L826.097 9.29675L826.097 13.4968L821.897 13.4967L821.897 17.6967L825.997 17.5967C825.297 29.1967 813.397 37.2967 802.097 32.8967M847.897 0.996731L846.197 0.996731L846.197 5.09672L842.897 5.09672L842.897 9.19673L839.597 9.19673L839.597 13.2967L837.897 13.2967M847.797 0.996731L849.497 0.996731L849.497 5.09672L852.797 5.09672L852.797 9.19673L856.097 9.19673L856.097 13.2967L857.797 13.2967M893.697 32.7967C891.197 31.0967 888.197 27.0967 887.297 24.4967C882.797 35.8967 868.097 40.8967 857.697 34.9967M873.897 32.7967C871.397 31.0967 868.397 27.0967 867.497 24.4967C862.997 35.8967 848.297 40.8967 837.897 34.9967M861.197 32.8967C872.497 37.2967 884.397 29.1967 884.997 17.5967L880.897 17.6967L880.897 13.4967L885.097 13.4967L885.097 9.29674L889.197 9.29674L889.197 13.4967L893.397 13.4967L893.397 17.6967L889.197 17.6967C889.097 22.4967 893.197 29.0967 897.097 31.0967M841.497 32.8967C852.797 37.2967 864.697 29.1967 865.397 17.5967L861.297 17.6967L861.297 13.4967L865.497 13.4967L865.497 9.29674L869.597 9.29674L869.597 13.4967L873.797 13.4967L873.797 17.6967L869.597 17.6967C869.497 22.4967 873.597 29.0967 877.497 31.0967M877.297 13.2967L878.897 13.2967L878.897 9.19673L882.197 9.19673L882.197 5.09673L885.497 5.09673L885.497 0.996738L888.897 0.996738L888.897 5.09673L892.197 5.09673L892.197 9.19674L895.497 9.19674L895.497 13.2967L897.197 13.2967M867.497 0.996733L865.797 0.996733L865.797 5.09672L862.497 5.09672L862.497 9.19673L859.197 9.19673L859.197 13.2967L857.497 13.2967M867.397 0.996733L869.097 0.996733L869.097 5.09672L872.397 5.09672L872.397 9.19673L875.697 9.19673L875.697 13.2967L877.397 13.2967M933.097 32.7967C930.597 31.0967 927.597 27.0967 926.697 24.4967C922.197 35.8967 907.497 40.8967 897.097 34.9967M913.397 32.7967C910.897 31.0967 907.897 27.0967 906.997 24.4967C902.497 35.8967 887.797 40.8967 877.397 34.9967M900.697 32.8967C911.997 37.2967 923.897 29.1967 924.497 17.5967L920.397 17.6967L920.397 13.4967L924.597 13.4967L924.597 9.29675L928.697 9.29675L928.697 13.4967L932.897 13.4967L932.897 17.6967L928.697 17.6967C928.597 22.4967 932.697 29.0967 936.597 31.0967M880.897 32.8967C892.197 37.2967 904.097 29.1967 904.797 17.5967L900.697 17.6967L900.697 13.4967L904.897 13.4967L904.897 9.29674L908.997 9.29675L908.997 13.4967L913.197 13.4967L913.197 17.6967L908.997 17.6967C908.897 22.4967 912.997 29.0967 916.897 31.0967M916.597 13.2967L918.297 13.2967L918.297 9.19674L921.597 9.19674L921.597 5.09674L924.897 5.09674L924.897 0.996745L928.297 0.996746L928.297 5.09674L931.597 5.09674L931.597 9.19674L934.897 9.19674L934.897 13.2967L936.597 13.2967M896.897 13.2967L898.597 13.2967L898.597 9.19674L901.897 9.19674L901.897 5.09673L905.197 5.09673L905.197 0.99674L908.597 0.99674L908.597 5.09673L911.897 5.09673L911.897 9.19674L915.197 9.19674L915.197 13.2967L916.897 13.2967M1090.8 32.7968C1088.3 31.0968 1085.3 27.0968 1084.4 24.4968C1079.9 35.8968 1065.2 40.8968 1054.8 34.9968M1071.1 32.7968C1068.6 31.0968 1065.6 27.0968 1064.7 24.4968C1060.2 35.8968 1045.5 40.8968 1035.1 34.9968M1058.4 32.8968C1069.7 37.2968 1081.6 29.1968 1082.2 17.5968L1078.1 17.6968L1078.1 13.4968L1082.3 13.4968L1082.3 9.29678L1086.4 9.29678L1086.4 13.4968L1090.6 13.4968L1090.6 17.6968L1086.4 17.6968C1086.3 22.4968 1090.4 29.0968 1094.3 31.0968M1038.6 32.8968C1049.9 37.2968 1061.8 29.1968 1062.5 17.5968L1058.4 17.6968L1058.4 13.4968L1062.6 13.4968L1062.6 9.29677L1066.7 9.29677L1066.7 13.4968L1070.9 13.4968L1070.9 17.6968L1066.7 17.6968C1066.6 22.4968 1070.7 29.0968 1074.6 31.0968M1074.3 13.2968L1076 13.2968L1076 9.19677L1079.3 9.19677L1079.3 5.09676L1082.6 5.09676L1082.6 0.996771L1086 0.996771L1086 5.09676L1089.3 5.09676L1089.3 9.19677L1092.6 9.19677L1092.6 13.2968L1094.3 13.2968M1054.6 13.2968L1056.3 13.2968L1056.3 9.19676L1059.6 9.19676L1059.6 5.09676L1062.9 5.09676L1062.9 0.996769L1066.3 0.996769L1066.3 5.09676L1069.6 5.09676L1069.6 9.19677L1072.9 9.19677L1072.9 13.2968L1074.6 13.2968M827.997 37.7967L1114.3 37.7968M775.397 32.7967C772.897 31.0967 769.897 27.0967 768.997 24.4967C764.497 35.8967 749.797 40.8967 739.397 34.9967M755.697 32.7967C753.197 31.0967 750.197 27.0967 749.297 24.4967C744.797 35.8967 730.097 40.8967 719.697 34.9967M742.997 32.8967C754.297 37.2967 766.197 29.1967 766.797 17.5967L762.697 17.6967L762.697 13.4967L766.897 13.4967L766.897 9.29674L770.997 9.29674L770.997 13.4967L775.197 13.4967L775.197 17.6967L770.997 17.6967C770.897 22.4967 774.997 29.0967 778.897 31.0967M723.197 32.8967C734.497 37.2967 746.397 29.1967 747.097 17.5967L742.997 17.6967L742.997 13.4967L747.197 13.4967L747.197 9.29674L751.297 9.29674L751.297 13.4967L755.497 13.4967L755.497 17.6967L751.297 17.6967C751.197 22.4967 755.297 29.0967 759.197 31.0967M758.897 13.2967L760.597 13.2967L760.597 9.19674L763.897 9.19674L763.897 5.09673L767.197 5.09673L767.197 0.996739L770.597 0.99674L770.597 5.09673L773.897 5.09673L773.897 9.19674L777.197 9.19674L777.197 13.2967L778.897 13.2967M739.297 13.2967L740.897 13.2967L740.897 9.19673L744.197 9.19673L744.197 5.09673L747.497 5.09673L747.497 0.996737L750.897 0.996738L750.897 5.09673L754.197 5.09673L754.197 9.19674L757.497 9.19674L757.497 13.2967L759.197 13.2967M696.497 32.7967C693.997 31.0967 690.997 27.0967 690.097 24.4967C685.597 35.8967 670.897 40.8967 660.497 34.9967M676.797 32.7967C674.297 31.0967 671.297 27.0967 670.397 24.4967C665.897 35.8967 651.197 40.8967 640.797 34.9967M664.097 32.8967C675.397 37.2967 687.297 29.1967 687.897 17.5967L683.797 17.6967L683.797 13.4967L687.997 13.4967L687.997 9.29673L692.097 9.29673L692.097 13.4967L696.297 13.4967L696.297 17.6967L692.097 17.6967C691.997 22.4967 696.097 29.0967 699.997 31.0967M644.397 32.8967C655.697 37.2967 667.597 29.1967 668.297 17.5967L664.197 17.6967L664.197 13.4967L668.397 13.4967L668.397 9.29673L672.497 9.29673L672.497 13.4967L676.697 13.4967L676.697 17.6967L672.497 17.6967C672.397 22.4967 676.497 29.0967 680.397 31.0967M690.097 0.996729L688.397 0.996729L688.397 5.09672L685.097 5.09672L685.097 9.19672L681.797 9.19672L681.797 13.2967L680.097 13.2967M689.997 0.996729L691.697 0.996729L691.697 5.09672L694.997 5.09672L694.997 9.19672L698.297 9.19673L698.297 13.2967L699.997 13.2967M670.397 0.996723L668.697 0.996723L668.697 5.09671L665.397 5.09671L665.397 9.19672L662.097 9.19672L662.097 13.2967L660.397 13.2967M670.297 0.996723L671.997 0.996723L671.997 5.09671L675.297 5.09671L675.297 9.19672L678.597 9.19672L678.597 13.2967L680.297 13.2967M838.197 35.0967C831.997 38.2967 824.397 38.5967 818.197 35.0967M834.497 32.7968C831.997 31.0968 828.997 27.0968 828.097 24.4968C823.597 35.8968 808.897 40.8967 798.497 34.9967M821.797 32.8967C827.697 35.1967 833.697 34.0967 838.197 30.8967M828.097 0.996752L826.397 0.996752L826.397 5.09674L823.097 5.09674L823.097 9.19675L819.797 9.19675L819.797 13.2968L818.097 13.2968M735.897 32.7967C733.397 31.0967 730.397 27.0967 729.497 24.4967C724.997 35.8967 710.297 40.8967 699.897 34.9967M716.197 32.7967C713.697 31.0967 710.697 27.0967 709.797 24.4967C705.297 35.8967 690.597 40.8967 680.197 34.9967M703.497 32.8967C714.797 37.2967 726.697 29.1967 727.297 17.5967L723.197 17.6967L723.197 13.4967L727.397 13.4967L727.397 9.29674L731.497 9.29674L731.497 13.4967L735.697 13.4967L735.697 17.6967L731.497 17.6967C731.397 22.4967 735.497 29.0967 739.397 31.0967M683.797 32.8967C695.097 37.2967 706.997 29.1967 707.697 17.5967L703.597 17.6967L703.597 13.4967L707.797 13.4967L707.797 9.29673L711.897 9.29673L711.897 13.4967L716.097 13.4967L716.097 17.6967L711.897 17.6967C711.797 22.4967 715.897 29.0967 719.797 31.0967M729.497 0.996736L727.797 0.996732L727.797 5.09672L724.497 5.09672L724.497 9.19673L721.197 9.19673L721.197 13.2967L719.497 13.2967M729.397 0.996736L731.097 0.996736L731.097 5.09673L734.397 5.09673L734.397 9.19673L737.697 9.19673L737.697 13.2967L739.397 13.2967M709.797 0.99673L708.097 0.99673L708.097 5.09672L704.797 5.09672L704.797 9.19673L701.497 9.19673L701.497 13.2967L699.797 13.2967M709.697 0.99673L711.397 0.996731L711.397 5.09672L714.697 5.09672L714.697 9.19673L717.997 9.19673L717.997 13.2967L719.697 13.2967M578.297 32.7967C575.797 31.0967 572.797 27.0967 571.897 24.4967C568.697 32.6967 560.297 37.4967 551.997 37.4967M558.597 32.7967C556.097 31.0967 553.097 27.0967 552.197 24.4967M551.997 34.0967C561.097 34.1967 569.197 27.0967 569.797 17.5967L565.697 17.6967L565.697 13.4967L569.897 13.4967L569.897 9.29671L573.997 9.29671L573.997 13.4967L578.197 13.4967L578.197 17.6967L573.997 17.6967C573.897 22.4967 577.997 29.0967 581.897 31.0967M551.997 9.29671L554.197 9.29671M554.197 9.29671L554.197 13.4967L558.397 13.4967L558.397 17.6967L554.197 17.6967C554.097 22.4967 558.197 29.0967 562.097 31.0967M554.197 9.29671L550.097 9.29673L550.097 13.4967L545.897 13.4967L545.897 17.6967L549.997 17.5967C549.297 29.1967 537.397 37.2967 526.097 32.8967M571.897 0.996707L570.197 0.996707L570.197 5.0967L566.897 5.0967L566.897 9.1967L563.597 9.1967L563.597 13.2967L561.897 13.2967M571.797 0.996707L573.497 0.996707L573.497 5.0967L576.797 5.0967L576.797 9.1967L580.097 9.1967L580.097 13.2967L581.797 13.2967M617.697 32.7967C615.197 31.0967 612.197 27.0967 611.297 24.4967C606.797 35.8967 592.097 40.8967 581.697 34.9967M597.897 32.7967C595.397 31.0967 592.397 27.0967 591.497 24.4967C586.997 35.8967 572.297 40.8967 561.897 34.9967M585.197 32.8967C596.497 37.2967 608.397 29.1967 608.997 17.5967L604.897 17.6967L604.897 13.4967L609.097 13.4967L609.097 9.29672L613.197 9.29672L613.197 13.4967L617.397 13.4967L617.397 17.6967L613.197 17.6967C613.097 22.4967 617.197 29.0967 621.097 31.0967M565.497 32.8967C576.797 37.2967 588.697 29.1967 589.397 17.5967L585.297 17.6967L585.297 13.4967L589.497 13.4967L589.497 9.29671L593.597 9.29671L593.597 13.4967L597.797 13.4967L597.797 17.6967L593.597 17.6967C593.497 22.4967 597.597 29.0967 601.497 31.0967M601.297 13.2967L602.897 13.2967L602.897 9.19671L606.197 9.19671L606.197 5.0967L609.497 5.0967L609.497 0.996714L612.897 0.996714L612.897 5.09671L616.197 5.09671L616.197 9.19671L619.497 9.19671L619.497 13.2967L621.197 13.2967M591.497 0.996709L589.797 0.996708L589.797 5.0967L586.497 5.0967L586.497 9.19671L583.197 9.1967L583.197 13.2967L581.497 13.2967M591.397 0.996709L593.097 0.996709L593.097 5.0967L596.397 5.0967L596.397 9.19671L599.697 9.19671L599.697 13.2967L601.397 13.2967M657.097 32.7967C654.597 31.0967 651.597 27.0967 650.697 24.4967C646.197 35.8967 631.497 40.8967 621.097 34.9967M637.397 32.7967C634.897 31.0967 631.897 27.0967 630.997 24.4967C626.497 35.8967 611.797 40.8967 601.397 34.9967M624.697 32.8967C635.997 37.2967 647.897 29.1967 648.497 17.5967L644.397 17.6967L644.397 13.4967L648.597 13.4967L648.597 9.29672L652.697 9.29672L652.697 13.4967L656.897 13.4967L656.897 17.6967L652.697 17.6967C652.597 22.4967 656.697 29.0967 660.597 31.0967M604.897 32.8967C616.197 37.2967 628.097 29.1967 628.797 17.5967L624.697 17.6967L624.697 13.4967L628.897 13.4967L628.897 9.29672L632.997 9.29672L632.997 13.4967L637.197 13.4967L637.197 17.6967L632.997 17.6967C632.897 22.4967 636.997 29.0967 640.897 31.0967M640.597 13.2967L642.297 13.2967L642.297 9.19672L645.597 9.19672L645.597 5.09671L648.897 5.09671L648.897 0.996721L652.297 0.996722L652.297 5.09671L655.597 5.09671L655.597 9.19672L658.897 9.19672L658.897 13.2967L660.597 13.2967M620.897 13.2967L622.597 13.2967L622.597 9.19671L625.897 9.19671L625.897 5.09671L629.197 5.09671L629.197 0.996716L632.597 0.996716L632.597 5.09671L635.897 5.09671L635.897 9.19672L639.197 9.19672L639.197 13.2967L640.897 13.2967M814.797 32.7968C812.297 31.0968 809.297 27.0967 808.397 24.4967C803.897 35.8967 789.197 40.8967 778.797 34.9967M795.097 32.7967C792.597 31.0967 789.597 27.0967 788.697 24.4967C784.197 35.8967 769.497 40.8967 759.097 34.9967M782.397 32.8967C793.697 37.2967 805.597 29.1967 806.197 17.5967L802.097 17.6967L802.097 13.4967L806.297 13.4967L806.297 9.29675L810.397 9.29675L810.397 13.4967L814.597 13.4967L814.597 17.6967L810.397 17.6967C810.297 22.4967 814.397 29.0967 818.297 31.0967M762.597 32.8967C773.897 37.2967 785.797 29.1967 786.497 17.5967L782.397 17.6967L782.397 13.4967L786.597 13.4967L786.597 9.29675L790.697 9.29675L790.697 13.4967L794.897 13.4967L794.897 17.6967L790.697 17.6967C790.597 22.4967 794.697 29.0967 798.597 31.0967M798.297 13.2967L799.997 13.2967L799.997 9.19674L803.297 9.19674L803.297 5.09674L806.597 5.09674L806.597 0.996746L809.997 0.996747L809.997 5.09674L813.297 5.09674L813.297 9.19675L816.597 9.19675L816.597 13.2968L818.297 13.2968M778.597 13.2967L780.297 13.2967L780.297 9.19674L783.597 9.19674L783.597 5.09674L786.897 5.09674L786.897 0.996745L790.297 0.996745L790.297 5.09674L793.597 5.09674L793.597 9.19674L796.897 9.19674L796.897 13.2967L798.597 13.2967M551.997 37.7967L838.297 37.7968M499.397 32.7967C496.897 31.0967 493.897 27.0967 492.997 24.4967C488.497 35.8967 473.797 40.8967 463.397 34.9967M479.697 32.7967C477.197 31.0967 474.197 27.0967 473.297 24.4967C468.797 35.8967 454.097 40.8967 443.697 34.9967M466.997 32.8967C478.297 37.2967 490.197 29.1967 490.797 17.5967L486.697 17.6967L486.697 13.4967L490.897 13.4967L490.897 9.29672L494.997 9.29672L494.997 13.4967L499.197 13.4967L499.197 17.6967L494.997 17.6967C494.897 22.4967 498.997 29.0967 502.897 31.0967M447.197 32.8967C458.497 37.2967 470.397 29.1967 471.097 17.5967L466.997 17.6967L466.997 13.4967L471.197 13.4967L471.197 9.29672L475.297 9.29672L475.297 13.4967L479.497 13.4967L479.497 17.6967L475.297 17.6967C475.197 22.4967 479.297 29.0967 483.197 31.0967M482.897 13.2967L484.597 13.2967L484.597 9.19671L487.897 9.19671L487.897 5.09671L491.197 5.09671L491.197 0.996715L494.597 0.996715L494.597 5.09671L497.897 5.09671L497.897 9.19671L501.197 9.19671L501.197 13.2967L502.897 13.2967M463.297 13.2967L464.897 13.2967L464.897 9.19671L468.197 9.19671L468.197 5.0967L471.497 5.0967L471.497 0.996713L474.897 0.996714L474.897 5.0967L478.197 5.0967L478.197 9.19671L481.497 9.19671L481.497 13.2967L483.197 13.2967M420.497 32.7967C417.997 31.0967 414.997 27.0967 414.097 24.4967C409.597 35.8967 394.897 40.8967 384.497 34.9967M400.797 32.7967C398.297 31.0967 395.297 27.0967 394.397 24.4967C389.897 35.8967 375.197 40.8967 364.797 34.9967M388.097 32.8967C399.397 37.2967 411.297 29.1967 411.897 17.5967L407.797 17.6967L407.797 13.4967L411.997 13.4967L411.997 9.29671L416.097 9.29671L416.097 13.4967L420.297 13.4967L420.297 17.6967L416.097 17.6967C415.997 22.4967 420.097 29.0967 423.997 31.0967M368.397 32.8967C379.697 37.2967 391.597 29.1967 392.297 17.5967L388.197 17.6967L388.197 13.4967L392.397 13.4967L392.397 9.2967L396.497 9.2967L396.497 13.4967L400.697 13.4967L400.697 17.6967L396.497 17.6967C396.397 22.4967 400.497 29.0967 404.397 31.0967M414.097 0.996705L412.397 0.996704L412.397 5.0967L409.097 5.09669L409.097 9.1967L405.797 9.1967L405.797 13.2967L404.097 13.2967M413.997 0.996705L415.697 0.996705L415.697 5.0967L418.997 5.0967L418.997 9.1967L422.297 9.1967L422.297 13.2967L423.997 13.2967M394.397 0.996699L392.697 0.996699L392.697 5.09669L389.397 5.09669L389.397 9.1967L386.097 9.1967L386.097 13.2967L384.397 13.2967M394.297 0.996699L395.997 0.996699L395.997 5.09669L399.297 5.09669L399.297 9.1967L402.597 9.1967L402.597 13.2967L404.297 13.2967M562.197 35.0967C555.997 38.2967 548.397 38.5967 542.197 35.0967M558.497 32.7967C555.997 31.0967 552.997 27.0967 552.097 24.4967C547.597 35.8967 532.897 40.8967 522.497 34.9967M545.797 32.8967C551.697 35.1967 557.697 34.0967 562.197 30.8967M552.097 0.996728L550.397 0.996728L550.397 5.09672L547.097 5.09672L547.097 9.19672L543.797 9.19672L543.797 13.2967L542.097 13.2967M459.897 32.7967C457.397 31.0967 454.397 27.0967 453.497 24.4967C448.997 35.8967 434.297 40.8967 423.897 34.9967M440.197 32.7967C437.697 31.0967 434.697 27.0967 433.797 24.4967C429.297 35.8967 414.597 40.8967 404.197 34.9967M427.497 32.8967C438.797 37.2967 450.697 29.1967 451.297 17.5967L447.197 17.6967L447.197 13.4967L451.397 13.4967L451.397 9.29671L455.497 9.29671L455.497 13.4967L459.697 13.4967L459.697 17.6967L455.497 17.6967C455.397 22.4967 459.497 29.0967 463.397 31.0967M407.797 32.8967C419.097 37.2967 430.997 29.1967 431.697 17.5967L427.597 17.6967L427.597 13.4967L431.797 13.4967L431.797 9.29671L435.897 9.29671L435.897 13.4967L440.097 13.4967L440.097 17.6967L435.897 17.6967C435.797 22.4967 439.897 29.0967 443.797 31.0967M453.497 0.996712L451.797 0.996708L451.797 5.0967L448.497 5.0967L448.497 9.19671L445.197 9.19671L445.197 13.2967L443.497 13.2967M453.397 0.996712L455.097 0.996712L455.097 5.0967L458.397 5.0967L458.397 9.19671L461.697 9.19671L461.697 13.2967L463.397 13.2967M433.797 0.996706L432.097 0.996706L432.097 5.0967L428.797 5.0967L428.797 9.1967L425.497 9.1967L425.497 13.2967L423.797 13.2967M433.697 0.996706L435.397 0.996706L435.397 5.0967L438.697 5.0967L438.697 9.1967L441.997 9.1967L441.997 13.2967L443.697 13.2967M302.297 32.7967C299.797 31.0967 296.797 27.0967 295.897 24.4967C292.697 32.6967 284.297 37.4967 275.997 37.4967M282.597 32.7967C280.097 31.0967 277.097 27.0967 276.197 24.4967M275.997 34.0967C285.097 34.1967 293.197 27.0967 293.797 17.5967L289.697 17.6967L289.697 13.4967L293.897 13.4967L293.897 9.29669L297.997 9.29669L297.997 13.4967L302.197 13.4967L302.197 17.6967L297.997 17.6967C297.897 22.4967 301.997 29.0967 305.897 31.0967M275.997 9.29668L278.197 9.29668M278.197 9.29668L278.197 13.4967L282.397 13.4967L282.397 17.6967L278.197 17.6967C278.097 22.4967 282.197 29.0967 286.097 31.0967M278.197 9.29668L274.097 9.2967L274.097 13.4967L269.897 13.4967L269.897 17.6967L273.997 17.5967C273.297 29.1967 261.397 37.2967 250.097 32.8967M295.897 0.996683L294.197 0.996683L294.197 5.09667L290.897 5.09667L290.897 9.19668L287.597 9.19668L287.597 13.2967L285.897 13.2967M295.797 0.996683L297.497 0.996683L297.497 5.09667L300.797 5.09667L300.797 9.19668L304.097 9.19668L304.097 13.2967L305.797 13.2967M341.697 32.7967C339.197 31.0967 336.197 27.0967 335.297 24.4967C330.797 35.8967 316.097 40.8967 305.697 34.9967M321.897 32.7967C319.397 31.0967 316.397 27.0967 315.497 24.4967C310.997 35.8967 296.297 40.8967 285.897 34.9967M309.197 32.8967C320.497 37.2967 332.397 29.1967 332.997 17.5967L328.897 17.6967L328.897 13.4967L333.097 13.4967L333.097 9.29669L337.197 9.29669L337.197 13.4967L341.397 13.4967L341.397 17.6967L337.197 17.6967C337.097 22.4967 341.197 29.0967 345.097 31.0967M289.497 32.8967C300.797 37.2967 312.697 29.1967 313.397 17.5967L309.297 17.6967L309.297 13.4967L313.497 13.4967L313.497 9.29669L317.597 9.29669L317.597 13.4967L321.797 13.4967L321.797 17.6967L317.597 17.6967C317.497 22.4967 321.597 29.0967 325.497 31.0967M325.297 13.2967L326.897 13.2967L326.897 9.19668L330.197 9.19668L330.197 5.09668L333.497 5.09668L333.497 0.99669L336.897 0.99669L336.897 5.09668L340.197 5.09668L340.197 9.19669L343.497 9.19669L343.497 13.2967L345.197 13.2967M315.497 0.996684L313.797 0.996684L313.797 5.09668L310.497 5.09667L310.497 9.19668L307.197 9.19668L307.197 13.2967L305.497 13.2967M315.397 0.996684L317.097 0.996685L317.097 5.09668L320.397 5.09668L320.397 9.19668L323.697 9.19668L323.697 13.2967L325.397 13.2967M381.097 32.7967C378.597 31.0967 375.597 27.0967 374.697 24.4967C370.197 35.8967 355.497 40.8967 345.097 34.9967M361.397 32.7967C358.897 31.0967 355.897 27.0967 354.997 24.4967C350.497 35.8967 335.797 40.8967 325.397 34.9967M348.697 32.8967C359.997 37.2967 371.897 29.1967 372.497 17.5967L368.397 17.6967L368.397 13.4967L372.597 13.4967L372.597 9.2967L376.697 9.2967L376.697 13.4967L380.897 13.4967L380.897 17.6967L376.697 17.6967C376.597 22.4967 380.697 29.0967 384.597 31.0967M328.897 32.8967C340.197 37.2967 352.097 29.1967 352.797 17.5967L348.697 17.6967L348.697 13.4967L352.897 13.4967L352.897 9.29669L356.997 9.2967L356.997 13.4967L361.197 13.4967L361.197 17.6967L356.997 17.6967C356.897 22.4967 360.997 29.0967 364.897 31.0967M364.597 13.2967L366.297 13.2967L366.297 9.19669L369.597 9.19669L369.597 5.09669L372.897 5.09669L372.897 0.996697L376.297 0.996697L376.297 5.09669L379.597 5.09669L379.597 9.19669L382.897 9.19669L382.897 13.2967L384.597 13.2967M344.897 13.2967L346.597 13.2967L346.597 9.19669L349.897 9.19669L349.897 5.09668L353.197 5.09668L353.197 0.996692L356.597 0.996692L356.597 5.09668L359.897 5.09668L359.897 9.19669L363.197 9.19669L363.197 13.2967L364.897 13.2967M538.797 32.7967C536.297 31.0967 533.297 27.0967 532.397 24.4967C527.897 35.8967 513.197 40.8967 502.797 34.9967M519.097 32.7967C516.597 31.0967 513.597 27.0967 512.697 24.4967C508.197 35.8967 493.497 40.8967 483.097 34.9967M506.397 32.8967C517.697 37.2967 529.597 29.1967 530.197 17.5967L526.097 17.6967L526.097 13.4967L530.297 13.4967L530.297 9.29673L534.397 9.29673L534.397 13.4967L538.597 13.4967L538.597 17.6967L534.397 17.6967C534.297 22.4967 538.397 29.0967 542.297 31.0967M486.597 32.8967C497.897 37.2967 509.797 29.1967 510.497 17.5967L506.397 17.6967L506.397 13.4967L510.597 13.4967L510.597 9.29672L514.697 9.29672L514.697 13.4967L518.897 13.4967L518.897 17.6967L514.697 17.6967C514.597 22.4967 518.697 29.0967 522.597 31.0967M522.297 13.2967L523.997 13.2967L523.997 9.19672L527.297 9.19672L527.297 5.09671L530.597 5.09671L530.597 0.996722L533.997 0.996723L533.997 5.09671L537.297 5.09671L537.297 9.19672L540.597 9.19672L540.597 13.2967L542.297 13.2967M502.597 13.2967L504.297 13.2967L504.297 9.19672L507.597 9.19672L507.597 5.09671L510.897 5.09671L510.897 0.996721L514.297 0.996721L514.297 5.09671L517.597 5.09671L517.597 9.19672L520.897 9.19672L520.897 13.2967L522.597 13.2967M275.997 37.7967L562.297 37.7967M223.397 32.7967C220.897 31.0967 217.897 27.0967 216.997 24.4967C212.497 35.8967 197.797 40.8967 187.397 34.9967M203.697 32.7967C201.197 31.0967 198.197 27.0967 197.297 24.4967C192.797 35.8967 178.097 40.8967 167.697 34.9967M190.997 32.8967C202.297 37.2967 214.197 29.1967 214.797 17.5967L210.697 17.6967L210.697 13.4967L214.897 13.4967L214.897 9.2967L218.997 9.2967L218.997 13.4967L223.197 13.4967L223.197 17.6967L218.997 17.6967C218.897 22.4967 222.997 29.0967 226.897 31.0967M171.197 32.8967C182.497 37.2967 194.397 29.1967 195.097 17.5967L190.997 17.6967L190.997 13.4967L195.197 13.4967L195.197 9.29669L199.297 9.29669L199.297 13.4967L203.497 13.4967L203.497 17.6967L199.297 17.6967C199.197 22.4967 203.297 29.0967 207.197 31.0967M206.897 13.2967L208.597 13.2967L208.597 9.19669L211.897 9.19669L211.897 5.09668L215.197 5.09668L215.197 0.996691L218.597 0.996691L218.597 5.09668L221.897 5.09669L221.897 9.19669L225.197 9.19669L225.197 13.2967L226.897 13.2967M187.297 13.2967L188.897 13.2967L188.897 9.19669L192.197 9.19669L192.197 5.09668L195.497 5.09668L195.497 0.996689L198.897 0.99669L198.897 5.09668L202.197 5.09668L202.197 9.19669L205.497 9.19669L205.497 13.2967L207.197 13.2967M144.497 32.7967C141.997 31.0967 138.997 27.0967 138.097 24.4967C133.597 35.8967 118.897 40.8967 108.497 34.9967M124.797 32.7967C122.297 31.0967 119.297 27.0967 118.397 24.4967C113.897 35.8967 99.1969 40.8967 88.7969 34.9967M112.097 32.8967C123.397 37.2967 135.297 29.1967 135.897 17.5967L131.797 17.6967L131.797 13.4967L135.997 13.4967L135.997 9.29668L140.097 9.29668L140.097 13.4967L144.297 13.4967L144.297 17.6967L140.097 17.6967C139.997 22.4967 144.097 29.0967 147.997 31.0967M92.397 32.8967C103.697 37.2967 115.597 29.1967 116.297 17.5967L112.197 17.6967L112.197 13.4967L116.397 13.4967L116.397 9.29668L120.497 9.29668L120.497 13.4967L124.697 13.4967L124.697 17.6967L120.497 17.6967C120.397 22.4967 124.497 29.0967 128.397 31.0967M138.097 0.99668L136.397 0.99668L136.397 5.09667L133.097 5.09667L133.097 9.19667L129.797 9.19667L129.797 13.2967L128.097 13.2967M137.997 0.99668L139.697 0.996681L139.697 5.09667L142.997 5.09667L142.997 9.19668L146.297 9.19668L146.297 13.2967L147.997 13.2967M118.397 0.996675L116.697 0.996675L116.697 5.09667L113.397 5.09667L113.397 9.19667L110.097 9.19667L110.097 13.2967L108.397 13.2967M118.297 0.996675L119.997 0.996675L119.997 5.09667L123.297 5.09667L123.297 9.19667L126.597 9.19667L126.597 13.2967L128.297 13.2967M286.197 35.0967C279.997 38.2967 272.397 38.5967 266.197 35.0967M282.497 32.7967C279.997 31.0967 276.997 27.0967 276.097 24.4967C271.597 35.8967 256.897 40.8967 246.497 34.9967M269.797 32.8967C275.697 35.1967 281.697 34.0967 286.197 30.8967M276.097 0.996704L274.397 0.996704L274.397 5.09669L271.097 5.09669L271.097 9.1967L267.797 9.1967L267.797 13.2967L266.097 13.2967M183.897 32.7967C181.397 31.0967 178.397 27.0967 177.497 24.4967C172.997 35.8967 158.297 40.8967 147.897 34.9967M164.197 32.7967C161.697 31.0967 158.697 27.0967 157.797 24.4967C153.297 35.8967 138.597 40.8967 128.197 34.9967M151.497 32.8967C162.797 37.2967 174.697 29.1967 175.297 17.5967L171.197 17.6967L171.197 13.4967L175.397 13.4967L175.397 9.29669L179.497 9.29669L179.497 13.4967L183.697 13.4967L183.697 17.6967L179.497 17.6967C179.397 22.4967 183.497 29.0967 187.397 31.0967M131.797 32.8967C143.097 37.2967 154.997 29.1967 155.697 17.5967L151.597 17.6967L151.597 13.4967L155.797 13.4967L155.797 9.29668L159.897 9.29669L159.897 13.4967L164.097 13.4967L164.097 17.6967L159.897 17.6967C159.797 22.4967 163.897 29.0967 167.797 31.0967M177.497 0.996688L175.797 0.996684L175.797 5.09667L172.497 5.09667L172.497 9.19668L169.197 9.19668L169.197 13.2967L167.497 13.2967M177.397 0.996688L179.097 0.996688L179.097 5.09668L182.397 5.09668L182.397 9.19668L185.697 9.19668L185.697 13.2967L187.397 13.2967M157.797 0.996682L156.097 0.996682L156.097 5.09667L152.797 5.09667L152.797 9.19668L149.497 9.19668L149.497 13.2967L147.797 13.2967M157.697 0.996682L159.397 0.996682L159.397 5.09667L162.697 5.09667L162.697 9.19668L165.997 9.19668L165.997 13.2967L167.697 13.2967M26.2969 32.7967C23.7969 31.0967 20.797 27.0967 19.897 24.4967C16.697 32.6967 8.29683 37.4967 -0.0031738 37.4967M6.59692 32.7967C4.09692 31.0967 1.09678 27.0967 0.196779 24.4967M-0.0031735 34.0966C9.09683 34.1966 17.1969 27.0966 17.7969 17.5966L13.6968 17.6967L13.6968 13.4967L17.897 13.4967L17.897 9.29666L21.9968 9.29666L21.9968 13.4967L26.1968 13.4967L26.1968 17.6967L21.9968 17.6967C21.8968 22.4967 25.997 29.0967 29.897 31.0967M-0.00317134 9.29666L2.19678 9.29666L2.19678 13.4967L6.39697 13.4967L6.39697 17.6967L2.19678 17.6967C2.09678 22.4967 6.19692 29.0966 10.0969 31.0966M19.897 0.996659L18.1968 0.996658L18.1968 5.09665L14.897 5.09665L14.897 9.19666L11.5969 9.19665L11.5969 13.2967L9.89697 13.2967M19.7969 0.996659L21.4968 0.996659L21.4968 5.09665L24.7969 5.09665L24.7969 9.19666L28.0969 9.19666L28.0969 13.2967L29.7969 13.2967M-0.00317061 0.996653L1.79688 0.996653L1.79688 5.09664L5.09693 5.09665L5.09693 9.19665L8.39698 9.19665L8.39697 13.2967L10.0969 13.2967M65.6968 32.7967C63.1968 31.0967 60.1969 27.0967 59.2969 24.4967C54.7969 35.8967 40.0968 40.8967 29.6968 34.9967M45.897 32.7967C43.397 31.0967 40.3968 27.0967 39.4968 24.4967C34.9968 35.8967 20.297 40.8967 9.89697 34.9967M33.1968 32.8967C44.4968 37.2967 56.3968 29.1967 56.9968 17.5967L52.897 17.6967L52.897 13.4967L57.0969 13.4967L57.0969 9.29667L61.1968 9.29667L61.1968 13.4967L65.397 13.4967L65.397 17.6967L61.1968 17.6967C61.0968 22.4967 65.1969 29.0967 69.0969 31.0967M13.4968 32.8967C24.7968 37.2967 36.697 29.1967 37.397 17.5967L33.2969 17.6967L33.2969 13.4967L37.4968 13.4967L37.4968 9.29667L41.5969 9.29667L41.5969 13.4967L45.7969 13.4967L45.7969 17.6967L41.5969 17.6967C41.4969 22.4967 45.5968 29.0967 49.4968 31.0967M49.2969 13.2967L50.897 13.2967L50.897 9.19666L54.1968 9.19666L54.1968 5.09666L57.4968 5.09666L57.4968 0.996666L60.897 0.996666L60.897 5.09666L64.1968 5.09666L64.1968 9.19666L67.4968 9.19666L67.4968 13.2967L69.1968 13.2967M39.4968 0.99666L37.7969 0.99666L37.7969 5.09665L34.4968 5.09665L34.4968 9.19666L31.1968 9.19666L31.1968 13.2967L29.4968 13.2967M39.397 0.99666L41.0969 0.99666L41.0969 5.09665L44.397 5.09665L44.397 9.19666L47.6968 9.19666L47.6968 13.2967L49.397 13.2967M105.097 32.7967C102.597 31.0967 99.5968 27.0967 98.6968 24.4967C94.1968 35.8967 79.4969 40.8967 69.0969 34.9967M85.397 32.7967C82.897 31.0967 79.8968 27.0967 78.9968 24.4967C74.4968 35.8967 59.797 40.8967 49.397 34.9967M72.6968 32.8967C83.9968 37.2967 95.8968 29.1967 96.4968 17.5967L92.397 17.6967L92.397 13.4967L96.5969 13.4967L96.5969 9.29667L100.697 9.29667L100.697 13.4967L104.897 13.4967L104.897 17.6967L100.697 17.6967C100.597 22.4967 104.697 29.0967 108.597 31.0967M52.897 32.8967C64.197 37.2967 76.0969 29.1967 76.7969 17.5967L72.6968 17.6967L72.6968 13.4967L76.897 13.4967L76.897 9.29667L80.9968 9.29667L80.9968 13.4967L85.1968 13.4967L85.1968 17.6967L80.9968 17.6967C80.8968 22.4967 84.997 29.0967 88.897 31.0967M88.5969 13.2967L90.2969 13.2967L90.2969 9.19667L93.5969 9.19667L93.5969 5.09666L96.897 5.09666L96.897 0.996673L100.297 0.996673L100.297 5.09666L103.597 5.09666L103.597 9.19667L106.897 9.19667L106.897 13.2967L108.597 13.2967M68.897 13.2967L70.5969 13.2967L70.5969 9.19666L73.897 9.19666L73.897 5.09666L77.1968 5.09666L77.1968 0.996667L80.5969 0.996668L80.5969 5.09666L83.897 5.09666L83.897 9.19667L87.1968 9.19667L87.1968 13.2967L88.897 13.2967M262.797 32.7967C260.297 31.0967 257.297 27.0967 256.397 24.4967C251.897 35.8967 237.197 40.8967 226.797 34.9967M243.097 32.7967C240.597 31.0967 237.597 27.0967 236.697 24.4967C232.197 35.8967 217.497 40.8967 207.097 34.9967M230.397 32.8967C241.697 37.2967 253.597 29.1967 254.197 17.5967L250.097 17.6967L250.097 13.4967L254.297 13.4967L254.297 9.2967L258.397 9.2967L258.397 13.4967L262.597 13.4967L262.597 17.6967L258.397 17.6967C258.297 22.4967 262.397 29.0967 266.297 31.0967M210.597 32.8967C221.897 37.2967 233.797 29.1967 234.497 17.5967L230.397 17.6967L230.397 13.4967L234.597 13.4967L234.597 9.2967L238.697 9.2967L238.697 13.4967L242.897 13.4967L242.897 17.6967L238.697 17.6967C238.597 22.4967 242.697 29.0967 246.597 31.0967M246.297 13.2967L247.997 13.2967L247.997 9.19669L251.297 9.19669L251.297 5.09669L254.597 5.09669L254.597 0.996698L257.997 0.996699L257.997 5.09669L261.297 5.09669L261.297 9.1967L264.597 9.1967L264.597 13.2967L266.297 13.2967M226.597 13.2967L228.297 13.2967L228.297 9.19669L231.597 9.19669L231.597 5.09669L234.897 5.09669L234.897 0.996696L238.297 0.996697L238.297 5.09669L241.597 5.09669L241.597 9.19669L244.897 9.19669L244.897 13.2967L246.597 13.2967M-0.00317383 37.7967L286.297 37.7967M1912 0.99682L1913.8 0.99682L1913.8 5.09681L1917.1 5.09682L1917.1 9.19682L1920.4 9.19682L1920.4 13.2968L1922.1 13.2968L1920.3 13.2969L1920.3 9.19684L1917 9.19684L1917 5.09684L1913.7 5.09684L1913.7 0.996847L1912 0.99682ZM1636 0.996796L1637.8 0.996796L1637.8 5.09679L1641.1 5.09679L1641.1 9.1968L1644.4 9.1968L1644.4 13.2968L1646.1 13.2968L1644.3 13.2968L1644.3 9.19682L1641 9.19682L1641 5.09681L1637.7 5.09681L1637.7 0.996823L1636 0.996796ZM1360 0.996772L1361.8 0.996772L1361.8 5.09676L1365.1 5.09677L1365.1 9.19677L1368.4 9.19677L1368.4 13.2968L1370.1 13.2968L1368.3 13.2968L1368.3 9.1968L1365 9.1968L1365 5.09679L1361.7 5.09679L1361.7 0.996799L1360 0.996772ZM827.997 0.996725L829.797 0.996726L829.797 5.09672L833.097 5.09672L833.097 9.19672L836.397 9.19673L836.397 13.2967L838.097 13.2967L836.297 13.2968L836.297 9.19675L832.997 9.19675L832.997 5.09674L829.697 5.09674L829.697 0.996752L827.997 0.996725ZM551.997 0.996701L553.797 0.996701L553.797 5.09669L557.097 5.0967L557.097 9.1967L560.397 9.1967L560.397 13.2967L562.097 13.2967L560.297 13.2967L560.297 9.19673L556.997 9.19673L556.997 5.09672L553.697 5.09672L553.697 0.996728L551.997 0.996701ZM275.997 0.996677L277.797 0.996677L277.797 5.09667L281.097 5.09667L281.097 9.19668L284.397 9.19668L284.397 13.2967L286.097 13.2967L284.297 13.2967L284.297 9.1967L280.997 9.1967L280.997 5.0967L277.697 5.09669L277.697 0.996704L275.997 0.996677Z" stroke="#151C26" stroke-opacity="0.17" stroke-width="1.57" stroke-miterlimit="22.926"/>
</svg>
