<svg width="654" height="654" viewBox="0 0 654 654" fill="none" xmlns="http://www.w3.org/2000/svg">
<path d="M326.711 284.533V368.311M373.511 524.889C369.467 546.267 350.4 563.022 327.867 563.022C305.333 563.022 285.111 546.844 281.644 524.311M524.889 282.222C546.844 286.267 563.022 305.911 563.022 327.867C563.022 350.4 546.844 369.467 524.889 373.511M281.644 128.533C285.689 106.578 305.333 90.4 327.289 90.4C349.822 90.4 368.889 106.578 372.933 128.533M128.533 372.933C106.578 368.889 90.4 349.244 90.4 327.289C90.4 304.756 106.578 285.689 128.533 281.644M356.178 517.956C355.6 532.978 342.889 545.111 327.289 545.111C311.689 545.111 298.978 532.978 298.4 517.378M518.533 298.978C533.556 299.556 545.689 312.844 545.689 327.867C545.689 342.889 534.133 355.6 518.533 356.756M298.4 135.467C298.978 120.444 312.267 108.311 327.289 108.311C342.311 108.311 355.022 120.444 356.178 135.467M135.467 355.6C120.444 355.022 108.311 341.733 108.311 326.711C108.311 311.689 119.867 298.978 135.467 297.822M316.311 639.867C318.622 644.489 324.4 650.267 327.867 652C333.644 649.111 338.267 644.489 339.422 641.022M641.022 338.844C645.644 336.533 650.267 330.756 652 327.289C649.111 321.511 643.911 317.467 641.022 316.311M338.844 13.5556C336.533 8.93333 330.756 3.73333 327.289 2C321.511 4.88889 317.467 10.0889 316.311 12.9778M13.5556 315.733C8.93333 318.044 3.73333 323.244 2 326.711C4.88889 332.489 10.0889 337.111 12.9778 338.267M309.956 619.067C319.2 621.956 336.533 622.533 345.2 619.067M619.644 343.467C622.533 334.222 621.956 318.044 619.067 309.378M344.622 34.3556C335.378 31.4667 318.622 31.4667 309.378 34.3556M34.3556 308.222C31.4667 317.467 31.4667 334.222 34.3556 343.467M306.489 613.289C307.644 610.978 308.8 606.356 308.222 604.044C317.467 608.089 336.533 608.667 346.933 604.044M612.711 349.244C610.978 347.511 606.933 346.356 604.622 346.933C608.667 337.689 609.244 318.622 604.622 308.222M348.667 40.1333C346.933 41.8667 345.778 46.4889 345.778 48.8M345.778 48.8C336.533 44.7556 318.044 44.7556 307.644 48.8M345.778 48.8C349.244 54.5778 362.533 52.8444 372.356 45.3333C385.644 36.0889 398.933 30.8889 411.644 29.7333C437.644 28.5778 459.022 44.7556 461.911 72.4889C486.756 54.5778 531.822 70.1778 530.089 111.778V188.622M39.5556 304.178C41.2889 305.911 45.9111 307.067 48.2222 307.067M48.2222 307.067C44.1778 316.311 44.7556 335.378 49.3778 345.778M48.2222 307.067C54 303.6 52.2667 290.311 44.7556 280.489C35.5111 267.2 30.3111 253.911 29.1556 241.2C28 215.2 44.1778 193.822 71.9111 190.933C54 166.089 69.6 121.022 111.2 122.756H188.044M304.756 40.1333C306.489 41.8667 308.222 45.9111 308.222 48.8C304.756 54.5778 291.467 52.2667 282.222 44.7556C268.933 35.5111 255.644 30.3111 242.933 29.1556C216.933 27.4222 195.556 44.1778 192.667 71.9111C167.822 54 122.756 69.6 124.489 110.622V123.333M613.289 305.333C611.556 307.067 607.511 308.8 604.622 308.8M349.822 613.289C348.089 611.556 346.356 607.511 346.356 604.622M40.7111 348.667C42.4444 346.933 46.4889 345.2 49.3778 345.2M48.2222 200.178C36.0889 186.311 47.0667 162.044 64.9778 161.467M452.667 48.8C466.533 36.6667 490.8 47.6444 491.378 65.5555M605.2 451.511C617.333 465.378 606.356 489.644 588.444 490.222M201.333 604.622C187.467 616.756 163.2 605.778 162.622 587.867M201.333 47.6444C187.467 35.5111 163.2 46.4889 162.622 64.4M605.778 201.911C617.911 188.044 606.933 163.778 589.022 163.2M453.244 605.2C467.111 617.333 491.378 605.778 491.956 588.444M48.8 452.089C36.6667 465.956 47.6444 490.222 65.5556 490.8M308.8 604.622C305.333 598.844 291.467 601.156 281.644 608.667C268.356 617.911 255.067 623.111 242.356 624.267C216.356 626 194.978 609.244 192.089 581.511C167.244 599.422 122.178 583.822 123.911 542.222V465.378M123.911 148.756V245.244C122.178 283.378 143.556 322.667 167.244 326.133C143.556 328.444 122.756 368.311 124.489 406.444V438.8M137.2 439.378C136.622 410.489 136.622 383.911 147.022 364.267C156.844 344.622 175.911 329.6 203.067 326.711C176.489 323.822 156.844 308.222 146.444 288.578C136.622 268.933 136.044 242.356 136.622 213.467M605.2 308.8C599.422 305.333 601.156 292.044 608.667 282.8C617.911 269.511 623.111 256.222 624.267 243.511C626 217.511 609.244 196.133 581.511 193.244C599.422 168.4 583.822 123.333 542.222 125.067H529.511M214.044 123.333H246.4C284.533 122.178 324.4 144.133 327.289 167.244C329.6 144.133 369.467 122.756 407.6 124.489H504.089M439.956 137.2C411.067 136.622 384.489 136.622 364.844 147.022C345.2 156.844 330.178 175.911 326.711 202.489C323.822 175.911 308.8 155.689 288.578 145.867C268.933 136.044 242.356 135.467 213.467 136.044M516.8 439.378C517.378 410.489 516.8 383.911 506.978 364.267C496.578 344.622 478.667 330.178 452.089 326.711C478.667 323.822 497.733 309.378 507.556 289.733C517.378 270.089 517.956 243.511 517.378 214.622M530.089 503.511L529.511 407.022C530.667 368.889 510.444 330.178 487.333 326.711C510.444 323.244 531.244 285.689 530.089 246.978V214.622M530.089 214.622C511.6 215.2 485.022 215.2 465.378 215.2M530.089 214.622C563.6 216.356 584.978 246.978 580.356 283.956C579.2 293.778 579.778 301.289 582.089 307.644C586.133 318.622 594.8 324.4 604.044 326.133C605.2 326.133 606.356 326.711 607.511 326.711M346.356 605.2C349.822 599.422 363.111 601.156 372.933 608.667C386.222 617.911 399.511 623.111 412.222 623.689C438.222 624.844 459.6 608.667 462.489 580.933C487.333 598.844 532.4 583.244 530.667 541.644V528.933M214.044 516.222C242.933 516.8 269.511 516.222 289.156 506.4C308.8 496.578 323.822 477.511 326.711 450.933C329.6 477.511 344.622 496.578 364.844 506.978C384.489 516.8 411.644 517.378 439.956 516.222M604.622 344.622C598.844 348.089 600.578 361.378 608.089 370.622C617.333 383.911 623.111 397.2 623.689 409.911C625.422 435.911 608.667 457.289 580.933 460.178C598.844 485.022 583.244 530.089 542.222 528.356H465.378M149.911 529.511H246.4C284.533 530.667 323.822 510.444 326.711 486.756C329.6 509.867 368.889 531.244 407.022 529.511H439.378M48.8 345.2C54.5778 348.667 52.8444 361.956 45.3333 371.2C36.0889 384.489 30.8889 397.778 29.7333 410.489C28.5778 436.489 44.7556 457.867 72.4889 460.756C54.5778 485.6 70.1778 530.667 111.778 528.933H124.489M214.044 136.622C277.6 141.822 324.978 200.178 325.556 267.778M110.044 200.756C66.7111 199.6 68.4444 136.622 111.2 136.044H188.044M516.8 214.622C511.6 278.178 453.822 326.711 386.222 326.711H341.733C341.733 341.733 341.733 356.178 341.733 369.467M452.667 110.622C453.822 67.8667 516.8 69.0222 517.378 111.778V188.622M439.378 516.222C376.4 511.6 327.867 453.822 327.867 386.222M543.956 451.511C586.711 452.667 585.556 515.644 542.8 516.222L465.956 516.8M137.2 438.8C142.4 375.244 200.178 326.133 267.778 326.133M201.911 543.378C200.756 586.133 137.778 584.978 137.2 542.222V465.378M136.622 149.333V205.956C137.2 272.978 197.289 326.133 267.778 326.711H312.267M201.333 109.467C200.178 66.7111 137.2 67.8667 136.622 110.622V123.333M504.089 137.2H447.467C379.867 138.356 328.444 197.867 328.444 268.356M543.956 201.911C586.711 200.756 585.556 137.778 542.8 137.2H530.089M517.378 502.933V446.311C515.644 379.289 456.133 326.711 385.644 326.711M452.667 543.378C453.822 586.133 516.8 584.4 517.378 541.644V528.933M149.911 516.8H206.533C274.133 515.644 325.556 456.133 325.556 385.644M110.044 451.511C67.2889 452.667 68.4444 515.644 111.2 516.222H123.911M311.689 283.378C311.689 296.667 311.689 311.689 311.689 326.711M311.689 283.378C287.422 279.911 272.4 271.244 262 259.111C247.556 243.511 252.756 221.556 270.667 216.933C285.689 213.467 298.978 226.756 294.356 241.2C289.156 254.489 271.822 250.444 271.244 240.044C270.667 234.267 276.444 231.378 280.489 232.533C284.533 233.689 286.267 238.311 283.956 241.2M311.689 283.378C315.733 283.956 323.244 284.533 327.289 284.533M214.044 149.911C259.689 154.533 303.022 189.778 310.533 256.222C311.111 259.689 311.111 263.156 311.111 266.622M123.911 188.044H114.667C85.7778 187.467 86.3556 149.333 114.089 149.333H188.622M270.667 217.511C262.578 201.911 230.8 187.467 207.111 188.044H149.911M503.511 214.622C498.889 260.267 463.644 303.6 397.2 311.111C381.022 312.844 362.533 312.267 341.733 312.267M465.378 124.489V115.244C465.956 86.3555 504.089 86.9333 504.089 114.667V189.2M435.911 271.822C451.511 263.733 465.956 231.956 465.378 208.267V151.067M435.911 271.822C431.867 253.911 409.333 248.711 393.733 263.156C381.022 274.133 372.356 288.578 370.044 312.844M435.911 271.822C439.378 286.844 426.089 300.133 411.644 295.511C398.356 289.733 402.4 272.978 412.8 272.4C418.578 271.822 421.467 277.6 420.311 281.067C419.156 285.111 415.111 286.844 411.644 284.533M439.956 502.933C394.311 498.311 350.978 463.644 343.467 396.622C342.889 393.156 342.889 389.689 342.311 386.222M529.511 464.222H538.756C567.644 464.8 567.067 502.933 539.333 502.933H464.8M382.756 435.911C390.844 451.511 422.622 465.956 446.889 464.8H504.089M150.489 438.8C155.689 393.156 190.356 349.822 256.8 342.889C272.978 341.156 291.467 341.733 311.689 341.733M188.622 528.933V538.178C188.044 567.067 149.911 566.489 149.911 538.756V464.222M218.089 382.178C202.489 390.267 188.044 422.044 189.2 445.733V502.933M218.089 382.178C222.133 400.089 244.667 405.289 260.267 390.844C272.978 379.867 281.644 365.422 283.956 341.156M218.089 382.178C214.622 367.156 227.911 353.867 242.356 358.489C255.644 364.267 251.6 381.022 241.2 381.6C235.422 382.178 232.533 376.4 233.689 372.933C234.844 368.889 238.889 367.156 242.356 369.467M149.911 149.333V202.489C149.911 252.178 184.578 301.867 256.8 309.956C258.533 309.956 264.311 311.111 270.089 311.111C276.444 311.689 282.222 311.689 283.956 311.689C293.2 311.689 303.022 311.689 312.844 312.267M188.622 188.044V114.089C188.044 85.2 149.911 85.7778 149.911 113.511V123.333M217.511 270.667C203.644 263.156 189.778 236.578 188.622 213.467M217.511 270.667C221.556 252.178 244.089 247.556 259.689 262C272.4 272.978 281.067 287.422 283.378 311.689M217.511 270.667C214.044 285.689 227.333 298.978 241.778 294.356C255.067 288.578 251.022 271.822 240.622 271.244C234.844 270.667 231.956 276.444 233.111 279.911C234.267 283.956 238.311 285.689 241.778 283.378M341.733 283.956C341.156 298.4 341.733 312.844 341.156 327.289M504.089 150.489H450.933C401.244 150.489 351.556 185.733 343.467 257.378C342.889 260.267 342.889 263.733 342.889 266.622M465.378 189.2H539.333C568.222 188.622 567.644 150.489 539.911 150.489H530.089M382.756 218.089C390.267 204.222 416.844 190.356 439.956 189.2M504.089 503.511V450.356C504.089 400.667 468.844 351.556 396.622 343.467C394.889 343.467 389.111 342.889 383.333 342.311C377.556 341.733 371.2 342.311 370.044 341.733C360.8 341.733 350.978 341.733 341.733 341.733M465.378 464.8V538.756C465.956 567.644 504.089 567.067 504.089 539.333V529.511M435.911 382.178C450.356 389.689 463.644 416.267 465.378 438.8M312.267 369.467C312.267 355.022 311.689 340.578 311.689 326.133M149.911 503.511H203.067C252.756 503.511 302.444 468.267 310.533 396.622C311.111 393.733 311.111 390.267 311.111 387.378M188.622 464.8H114.667C85.7778 465.378 86.3556 503.511 114.089 503.511H123.911M271.244 435.333C263.733 449.778 237.156 463.067 214.044 464.222M271.822 242.933C275.867 254.489 288.578 263.733 311.111 267.2C314.578 267.778 323.244 268.356 327.867 268.356M410.489 272.4C398.933 276.444 390.844 289.156 387.378 311.689M381.6 410.489C377.556 398.933 364.844 390.267 342.311 386.8C339.422 386.222 331.333 385.644 326.133 385.644M243.511 381.022C255.067 376.978 263.156 364.267 266.622 341.733M242.933 271.822C254.489 275.867 262.578 288.578 266.044 311.111M381.6 243.511C376.978 257.378 359.644 266.622 326.711 267.778M410.489 381.6C398.933 377.556 390.844 365.422 387.378 342.311M272.4 409.911C277.022 396.044 294.356 386.8 327.289 385.067M117.556 200.756C83.4667 199.6 64.9778 201.911 51.6889 214.622C38.9778 226.756 36.6667 249.289 48.2222 269.511C57.4667 283.378 60.3556 303.6 51.6889 310.533C50.5333 311.689 48.8 312.267 46.4889 312.844M452.667 118.711C453.822 84.6222 450.933 66.1333 438.8 52.8444C426.667 40.1333 404.133 37.8222 383.911 49.9556C368.889 59.7778 348.089 62.6667 341.733 51.6889C341.156 51.1111 340.578 49.3778 340.578 47.6444M535.867 451.511C569.956 452.667 588.444 449.778 601.733 437.644C614.444 425.511 616.756 402.978 604.622 382.756C594.8 367.733 591.911 345.2 603.467 340C603.467 340 604.622 339.422 605.2 339.422C605.778 339.422 606.356 339.422 606.356 339.422M201.333 536.444C201.333 538.756 201.333 549.156 201.333 551.467C201.911 575.156 205.378 589.6 215.2 600.578C227.333 613.289 249.867 615.6 270.089 603.467C281.644 595.956 296.667 592.489 305.911 595.956C308.8 597.111 311.689 599.422 312.844 602.311C312.844 602.889 313.422 604.044 313.422 604.622M201.333 117.556C200.178 83.4667 203.067 64.9778 215.2 51.6889C227.333 38.9778 249.867 36.6667 270.089 48.8C285.111 58.6222 306.489 61.5111 312.844 50.5333C313.422 49.9556 313.422 48.8 313.422 48.2222M535.867 201.911C569.956 200.756 588.444 203.644 601.733 215.778C614.444 227.911 616.756 250.444 604.622 270.667C594.8 285.689 591.911 307.067 602.889 313.422C603.467 314 604.622 314 605.778 314.578M452.667 535.289C453.822 569.378 451.511 587.867 438.8 601.156C426.667 613.867 404.711 616.178 383.911 604.622C368.889 594.8 346.933 591.911 341.156 603.467C340.578 604.044 340.578 605.778 340.578 606.356M118.133 452.089C84.0444 453.244 65.5556 450.356 52.2667 438.222C39.5556 426.089 37.2444 403.556 49.3778 383.333C52.8444 378.133 55.1556 371.778 56.8889 366C59.2 356.178 58.6222 346.356 53.4222 341.733C52.2667 340.578 49.9556 340 48.2222 339.422M149.911 200.756C173.6 200.756 201.911 201.333 208.267 201.333C229.067 201.333 251.6 213.467 259.689 224.444M45.9111 319.2C47.0667 319.2 49.9556 318.622 51.1111 318.044C60.9333 315.156 66.7111 302.444 64.9778 292.044C62.0889 272.4 59.2 258.533 63.2444 244.089C70.7556 216.933 93.2889 200.178 121.022 200.178C121.6 200.178 122.756 200.178 123.333 200.178M452.667 150.489C452.667 174.178 452.089 202.489 452.089 208.844C452.089 229.644 440.533 252.178 428.978 260.267M334.222 46.4889C334.222 47.0667 334.222 49.3778 334.222 49.9556C335.378 61.5111 349.822 67.8667 360.222 66.1333C379.289 63.2444 393.733 60.3556 408.178 64.4C435.333 71.9111 452.089 93.8667 452.089 122.178C452.089 122.756 452.089 123.911 452.089 124.489M504.089 452.089C480.4 452.089 452.089 452.089 445.733 452.089C424.933 452.089 402.4 440.533 394.311 429.556M607.511 333.067C606.933 333.067 604.622 333.644 603.467 333.644C592.489 335.956 586.133 349.244 588.444 359.644C591.333 378.711 594.222 393.156 590.178 407.6C582.667 434.756 560.711 451.511 532.4 451.511C531.822 451.511 530.667 451.511 530.089 451.511M201.333 503.511C201.333 479.822 201.911 451.511 201.911 445.156C201.911 424.356 213.467 401.822 225.022 393.733M319.778 606.356C319.778 605.778 319.778 604.044 319.2 603.467C317.467 592.489 303.6 586.133 293.2 587.867C274.133 590.756 259.689 593.644 245.244 589.6C218.089 582.089 201.333 560.133 201.333 531.822C201.333 531.244 201.333 530.089 201.333 529.511M201.911 214.622C204.222 233.111 214.622 252.178 224.444 259.111M319.778 47.0667C319.778 47.6444 319.778 48.8 319.778 49.3778C318.622 60.9333 304.178 67.2889 293.778 64.9778C274.711 62.0889 260.267 59.2 245.822 63.2444C218.667 70.7556 201.911 92.7111 201.911 121.022C201.911 134.311 201.911 166.667 201.911 188.044M438.8 202.489C420.311 204.8 401.244 215.2 394.311 225.022M606.933 320.356C606.356 320.356 605.2 320.356 604.622 320.356C593.067 319.2 586.711 304.756 588.444 294.356C591.333 275.289 594.222 260.844 590.178 246.4C582.667 219.244 560.711 202.489 532.4 202.489C519.111 202.489 486.756 202.489 465.378 203.067M451.511 438.222C449.2 419.733 438.8 400.667 428.978 393.733M334.8 606.933C334.8 606.356 334.8 605.2 334.8 604.622C335.956 593.067 350.4 586.711 360.8 588.444C380.444 591.333 394.311 594.222 408.756 590.178C435.911 582.089 452.667 560.133 452.667 532.4C452.667 519.111 452.089 486.756 452.089 465.378M215.2 450.933C233.689 448.622 252.756 438.222 259.689 428.4M45.9111 333.067C47.6444 333.067 51.6889 334.222 53.4222 334.8C62.6667 338.267 67.2889 350.4 65.5556 360.222C62.6667 379.289 59.7778 393.733 63.8222 408.178C71.3333 435.333 93.2889 452.089 121.6 452.089C134.889 452.089 167.244 452.089 188.622 451.511M123.911 213.467C90.4 215.2 69.0222 245.822 73.6444 282.8C74.8 292.622 74.2222 300.133 71.9111 306.489C67.8667 316.889 59.7778 322.667 51.1111 324.978C49.9556 324.978 47.0667 325.556 45.9111 325.556M253.911 238.889C250.444 227.333 227.333 214.044 208.844 213.467C197.289 213.467 173.022 213.467 150.489 213.467M439.956 124.489C438.222 90.9778 407.6 69.6 370.622 74.2222C360.8 75.3778 353.289 74.8 346.933 72.4889C335.956 68.4444 330.178 59.7778 328.444 49.9556C328.444 49.3778 328.444 47.0667 327.867 46.4889M414.533 254.489C426.089 251.022 438.8 227.911 439.378 209.422C439.378 197.867 439.378 173.6 439.378 151.067M530.089 438.8C563.6 437.067 584.978 406.444 579.778 369.467C578.622 359.644 579.2 352.133 581.511 345.778C585.556 334.222 594.8 328.444 605.2 327.289C605.778 327.289 607.511 327.289 608.089 327.289M399.511 413.956C402.978 425.511 426.089 438.222 444.578 438.8C456.133 438.8 480.4 438.8 502.933 438.8M214.622 529.511C216.356 563.022 246.978 584.4 283.956 579.778C293.778 578.622 301.289 579.2 307.644 581.511C318.622 585.556 324.4 594.222 326.133 603.467C326.133 604.622 326.711 606.356 326.711 607.511M239.467 398.933C227.911 402.4 215.2 425.511 214.622 444C214.622 455.556 214.622 479.822 214.622 502.356M214.622 188.044C214.622 168.4 214.622 141.822 214.622 123.333C216.356 89.8222 246.978 68.4444 283.956 73.6444C293.778 74.8 301.289 74.2222 307.644 71.9111C319.778 67.2889 325.556 57.4667 326.133 47.0667M239.467 253.911C229.067 251.022 217.511 231.378 215.2 214.044M399.511 240.044C402.4 229.644 422.044 218.089 439.378 215.2M439.378 464.8C439.378 484.444 439.956 511.022 439.956 529.511C438.8 563.022 407.6 584.4 371.2 579.778C361.378 578.622 353.867 579.2 347.511 581.511C335.378 586.133 330.178 595.956 329.022 606.356M413.956 399.511C424.356 402.4 435.911 421.467 438.8 439.378M189.2 438.8C169.556 438.8 142.978 438.8 124.489 439.378C90.9778 437.644 69.6 407.022 74.2222 370.044C75.3778 360.222 74.8 352.711 72.4889 346.356C67.8667 334.222 56.8889 328.444 45.9111 327.289M254.489 413.956C251.6 424.356 231.956 435.911 214.622 438.8M369.467 412.222C367.156 415.111 369.467 419.733 372.933 420.889C376.978 422.044 382.178 418.578 381.6 413.378C381.022 402.978 363.689 398.933 358.489 412.222C353.867 426.667 367.156 439.956 382.178 436.489C400.089 431.867 405.289 409.911 390.844 394.311C380.444 382.178 366 372.933 341.156 370.622C336.533 370.044 329.022 369.467 326.133 370.044M326.133 285.111C360.222 285.111 378.711 275.867 390.844 260.844C405.289 245.244 400.089 222.711 382.178 218.667C367.156 215.2 353.867 228.489 358.489 242.933C364.267 256.222 381.022 252.178 381.6 241.778C382.178 236 376.4 233.111 372.933 234.267C368.889 235.422 367.156 239.467 369.467 242.933M369.467 341.733C372.356 366 381.022 380.444 393.156 391.422C408.756 405.867 431.289 400.667 435.333 382.756C438.8 367.733 425.511 354.444 411.067 359.067C397.778 364.844 401.822 381.6 412.222 382.178C418 382.756 420.889 376.978 419.733 373.511C418.578 369.467 414.533 367.733 411.067 370.044M327.867 368.889C293.778 368.889 275.289 378.711 263.156 393.156C248.711 408.756 253.911 431.289 271.822 435.333C286.844 438.8 300.133 425.511 295.511 411.067C289.733 397.778 272.978 401.822 272.4 412.222C271.822 418 277.6 420.889 281.067 419.733C285.111 418.578 286.844 414.533 284.533 411.067M25.6889 296.667C22.2222 297.822 21.0667 303.022 25.1111 307.067C32.6222 312.844 45.9111 304.756 40.7111 292.622C34.3556 280.489 18.7556 280.489 11.2444 292.044C3.73334 307.067 15.2889 324.978 32.0444 324.978M356.178 26.2667C355.022 22.8 349.822 21.6444 345.778 25.6889C340 33.2 348.089 46.4889 360.222 41.2889C372.356 34.9333 372.356 18.7556 360.8 12.4C346.356 5.46667 329.022 15.8667 327.867 32.0444M627.733 355.022C631.2 353.867 632.356 348.667 628.311 344.622C620.8 338.844 607.511 346.933 613.289 359.067C619.067 371.2 635.822 370.622 642.178 359.644C649.111 344.622 638.133 326.711 620.8 326.711M297.822 627.733C298.978 631.2 304.178 632.356 308.222 628.311C314 620.8 305.911 607.511 293.778 613.289C281.644 619.644 281.644 635.244 293.2 642.178C308.222 649.111 326.133 638.133 326.133 620.8M297.822 25.1111C298.978 21.6444 304.178 20.4889 308.222 24.5333C314 32.0444 305.911 45.3333 293.778 39.5555C281.644 33.2 282.222 17.0222 293.2 10.6667C308.222 3.73333 326.133 14.7111 326.133 32.0444M628.311 298.4C631.778 299.556 632.933 304.756 628.889 308.8C621.378 314.578 608.089 306.489 613.867 294.356C620.222 282.222 636.4 282.222 642.756 293.778C649.689 308.8 638.711 326.711 621.378 326.711M356.756 627.733C355.6 631.2 350.4 632.356 346.356 628.311C340.578 620.8 348.667 607.511 360.8 612.711C372.933 619.067 372.933 634.667 361.378 641.6C346.356 649.111 328.444 637.556 328.444 620.8M25.6889 355.6C22.2222 354.444 21.0667 349.244 25.1111 345.2C32.6222 339.422 45.9111 347.511 40.7111 359.644C34.9333 371.778 18.1778 371.778 11.8222 360.222C4.31112 345.2 15.8667 327.289 32.6222 327.289" stroke="#151C26" stroke-opacity="0.15" stroke-width="3" stroke-miterlimit="22.926"/>
</svg>
