<svg width="14" height="12" viewBox="0 0 14 12" fill="none" xmlns="http://www.w3.org/2000/svg">
<path id="Vector" d="M4.72591 10.9888L4.72586 10.9887L3.5119 7.69133L0.682128 6.72923L4.72591 10.9888ZM4.72591 10.9888C4.73433 11.0116 4.74455 11.0331 4.75635 11.0534C4.79455 11.1374 4.8607 11.2078 4.94666 11.2505L4.94783 11.2511C5.0038 11.278 5.06455 11.2922 5.126 11.2922C5.22021 11.2922 5.31364 11.259 5.38873 11.1966L5.38873 11.1966L5.38971 11.1958L6.97844 9.84083L9.24037 11.5673L9.2404 11.5673C9.44798 11.7256 9.69731 11.8084 9.95091 11.8084C10.083 11.8084 10.2144 11.7858 10.3435 11.7418L10.3435 11.7418L10.3446 11.7414C10.7189 11.6089 10.9992 11.2987 11.0954 10.912L11.0954 10.912L13.383 1.70663L13.3831 1.70646C13.4534 1.42136 13.3617 1.12281 13.1433 0.927415C12.9247 0.731904 12.6181 0.675171 12.3444 0.779805C12.3444 0.779807 12.3444 0.77981 12.3444 0.779813L0.654957 5.24748M4.72591 10.9888L0.654957 5.24748M0.654957 5.24748C0.341911 5.367 0.143803 5.66278 0.150148 5.99827M0.654957 5.24748L0.150148 5.99827M4.84778 7.99379L4.84791 7.9938C4.84744 8.00444 4.84738 8.01514 4.84774 8.02585L4.84779 7.99368C4.84779 7.99372 4.84778 7.99376 4.84778 7.99379ZM4.84778 7.99379L4.80915 8.86071L4.32423 7.5436L7.01114 5.92L4.99569 7.69643M4.84778 7.99379L4.99569 7.69643M4.99569 7.69643L4.98637 7.70464L5.05192 7.77989M4.99569 7.69643L5.11879 7.72123M5.0815 7.64208C5.08154 7.64206 5.08157 7.64204 5.08161 7.64203L5.11881 7.72121L5.0815 7.64208ZM5.0815 7.64208C5.08147 7.64209 5.08143 7.64211 5.0814 7.64212L5.11879 7.72123M5.0815 7.64208L5.11879 7.72123M5.11879 7.72123L5.06038 7.77271C5.05752 7.77505 5.0547 7.77744 5.05192 7.77989M5.05192 7.77989C4.98979 7.83458 4.95138 7.91308 4.94769 7.99814L4.98614 7.70485L4.98594 7.70502L5.05192 7.77989ZM0.150148 5.99827C0.155874 6.33393 0.365465 6.62182 0.682049 6.7292L0.150148 5.99827ZM5.24851 11.2297C5.29086 11.214 5.32902 11.1919 5.36234 11.1649C5.36253 11.1647 5.36273 11.1645 5.36292 11.1644C5.42356 11.1151 5.46807 11.0495 5.49242 10.9768L6.89712 9.77876L5.24851 11.2297ZM5.5741 9.96577L5.62558 8.80823L6.31483 9.33432L5.5741 9.96577ZM5.89609 7.98821L10.958 3.52507C10.9581 3.52503 10.9581 3.525 10.9582 3.52496C11.1171 3.38572 11.143 3.14835 11.0191 2.97742L11.0189 2.97723C10.8949 2.80705 10.6617 2.7584 10.4807 2.86804C10.4807 2.86807 10.4806 2.8681 10.4806 2.86812L3.77772 6.91796L1.01993 5.98093L12.578 1.56346L10.3043 10.7131C10.2738 10.8357 10.1901 10.928 10.0722 10.9698C9.95434 11.0117 9.8313 10.9923 9.73199 10.9165L5.89609 7.98821Z" fill="white" stroke="white" stroke-width="0.2"/>
</svg>
