<svg width="13" height="13" viewBox="0 0 13 13" fill="none" xmlns="http://www.w3.org/2000/svg">
<path id="Vector" d="M9.76413 1.49054C9.55286 1.40916 9.23626 1.31126 8.65281 1.28469L9.76413 1.49054ZM9.76413 1.49054C10.0435 1.59883 10.2429 1.72886 10.4525 1.93816M9.76413 1.49054L10.4525 1.93816M11.858 2.25449C12.0037 2.62896 12.1038 3.05878 12.1326 3.69115C12.1616 4.32807 12.1683 4.53116 12.1683 6.15603C12.1683 7.7809 12.1616 7.98351 12.1326 8.62091L12.1326 8.62094C12.1043 9.2532 12.0037 9.68283 11.858 10.0576C11.7071 10.4451 11.5067 10.7731 11.179 11.1004C10.8512 11.4277 10.5236 11.6285 10.1361 11.7794C9.76135 11.9251 9.33175 12.0252 8.69937 12.054L8.69933 12.054C8.06242 12.0834 7.85933 12.0902 6.23439 12.0902C4.60949 12.0902 4.40671 12.083 3.76942 12.054C3.1371 12.0252 2.70793 11.9251 2.3327 11.7794C1.94497 11.6285 1.61759 11.4275 1.28979 11.1004C0.962065 10.7733 0.761262 10.4451 0.610815 10.0576L0.610805 10.0576C0.465079 9.68285 0.364987 9.25327 0.33619 8.6209L0.336188 8.62087C0.306751 7.98398 0.3 7.7809 0.3 6.15603C0.3 4.53116 0.306751 4.32808 0.336188 3.69119L0.33619 3.69116C0.364987 3.05884 0.465079 2.6292 0.610805 2.25448L0.610818 2.25445C0.761259 1.86674 0.96201 1.53894 1.2898 1.21169C1.61766 0.884357 1.94499 0.683095 2.33265 0.532681L2.3327 0.532664C2.70719 0.38695 3.13707 0.286859 3.76942 0.258063L3.76946 0.258062C4.40671 0.228626 4.60994 0.221875 6.23487 0.221875C7.85978 0.221875 8.06289 0.229103 8.69985 0.258063L8.69988 0.258065C9.33168 0.286383 9.76134 0.386936 10.1366 0.532675C10.5236 0.683116 10.8517 0.883866 11.1789 1.21163C11.5063 1.53945 11.7071 1.86701 11.858 2.25449ZM11.858 2.25449L11.9046 2.23636M11.858 2.25449C11.858 2.2545 11.858 2.2545 11.858 2.2545L11.9046 2.23636M11.9046 2.23636C12.0525 2.61652 12.1535 3.05179 12.1825 3.68888C12.2116 4.32694 12.2183 4.53092 12.2183 6.15603C12.2183 7.78113 12.2116 7.98464 12.1825 8.62318L11.9046 2.23636ZM10.9467 9.70374L10.9467 9.70382C10.8355 9.98955 10.7021 10.1948 10.4878 10.4089C10.2735 10.623 10.068 10.7565 9.7823 10.8677C9.78229 10.8677 9.78228 10.8677 9.78227 10.8677L9.76413 10.8211C9.55348 10.9033 9.23626 11.0005 8.65281 11.027L10.9467 9.70374ZM10.9467 9.70374C11.0303 9.48807 11.1291 9.16564 11.1559 8.57669L10.9467 9.70374ZM2.68723 10.8677C2.68723 10.8677 2.68723 10.8677 2.68722 10.8677L2.70537 10.8211L2.68723 10.8677ZM2.68723 10.8677C2.40148 10.7565 2.19626 10.6232 1.98169 10.4089C1.76714 10.1946 1.63357 9.98959 1.52279 9.70379M2.68723 10.8677L1.52279 9.70379M1.56939 9.68568C1.48724 9.47503 1.39005 9.15783 1.36353 8.57439L1.31358 8.57669L1.56939 9.68568ZM1.56939 9.68568L1.52277 9.70375C1.52278 9.70376 1.52278 9.70378 1.52279 9.70379M1.56939 9.68568L1.52281 9.70384C1.5228 9.70383 1.5228 9.70381 1.52279 9.70379M10.4525 1.93816C10.6621 2.14746 10.7913 2.34709 10.9001 2.62648L10.4525 1.93816ZM1.31358 3.73549L1.31358 3.7355L3.8167 1.28469L3.81443 1.23474C3.81442 1.23474 3.81441 1.23474 3.8144 1.23474C3.22555 1.26151 2.90297 1.35982 2.68727 1.44394C2.40097 1.55472 2.19591 1.68828 1.98165 1.90283C1.76738 2.11738 1.63404 2.3226 1.5228 2.60834L1.52273 2.60851C1.43948 2.8246 1.3404 3.14648 1.31358 3.73549ZM6.23439 4.11115C5.10511 4.11115 4.18992 5.02682 4.18992 6.15603C4.18992 7.28524 5.10511 8.20091 6.23439 8.20091C7.36366 8.20091 8.27935 7.28526 8.27935 6.15603C8.27935 5.0268 7.36366 4.11115 6.23439 4.11115ZM6.23439 9.17882C4.56483 9.17882 3.21148 7.82552 3.21148 6.15603C3.21148 4.48654 4.56483 3.13324 6.23439 3.13324C7.90396 3.13324 9.25731 4.48654 9.25731 6.15603C9.25731 7.82552 7.90396 9.17882 6.23439 9.17882ZM8.87328 3.33264C8.79992 3.22275 8.76078 3.09357 8.76083 2.96144L9.42898 2.29359H9.42923C9.42923 2.29359 9.42924 2.29359 9.42925 2.29359C9.56138 2.29365 9.69054 2.33288 9.80037 2.40633C9.91022 2.47979 9.99581 2.58417 10.0463 2.70626C10.0969 2.82836 10.11 2.9627 10.0842 3.09229C10.0584 3.22188 9.99469 3.34089 9.90121 3.43429C9.80773 3.52769 9.68866 3.59127 9.55904 3.617C9.42943 3.64273 9.29509 3.62944 9.17303 3.57883C9.05097 3.52821 8.94665 3.44254 8.87328 3.33264ZM8.95671 2.48928C9.08199 2.36406 9.25184 2.29368 9.42896 2.29359L8.76083 2.96142C8.76099 2.7843 8.83144 2.61449 8.95671 2.48928ZM11.1559 3.73547C11.1292 3.1466 11.0308 2.82403 10.9467 2.60834L11.1559 8.57667C11.185 7.9442 11.1908 7.75431 11.1908 6.15608C11.1908 4.55783 11.185 4.36795 11.1559 3.73547Z" fill="white" stroke="white" stroke-width="0.1"/>
</svg>
