<svg width="246" height="310" viewBox="0 0 246 310" fill="none" xmlns="http://www.w3.org/2000/svg">
<path d="M76.3735 171.535C75.987 170.124 75.1796 168.556 74.2206 167.66M70.0472 174.141C70.3669 171.413 68.8756 167.831 67.0647 166.977M47.9563 162.715C47.2917 163.068 46.416 163.715 45.9893 164.296M52.1 168.083C50.2519 168.291 48.6343 169.495 47.7913 170.536M56.101 174.446C53.3802 174.259 50.0141 175.965 49.3703 177.857M71.2233 195.653C82.5021 180.781 90.3703 167.465 87.019 154C84.0618 142.121 72.5762 139.742 59.1058 126.861M54.7555 135.751C63.3031 139.408 66.2172 149.974 58.2896 157.65C55.2283 160.777 53.1334 164.221 52.6308 166.773M43.5153 134.958C46.8903 134.217 49.965 134.311 52.6234 135.018M57.4689 134.939C63.0949 137.904 66.2484 143.669 64.7988 150.748C69.1848 144.496 66.7762 138.391 62.808 136.125C58.3104 133.556 50.5731 135.131 50.3857 143.358M43.0767 133.563C47.2397 132.743 50.9032 132.618 54.6068 133.854M59.7422 272.676C56.7612 274.873 55.6371 276.717 52.8672 279.203C46.7728 284.674 39.4191 291.492 33.9863 296.724C32.8579 297.812 29.5245 300.724 28.5908 301.648M39.2318 46.8233C36.511 48.7689 33.1047 48.0707 31.9242 45.357C31.2952 47.7269 28.9595 48.0276 27.5857 47.3368C26.2104 46.6476 25.2871 44.7556 26.8497 43.0615C24.3623 44.1497 21.4586 42.3768 20.5858 39.4725M29.1171 13.523C25.7792 13.3265 23.268 15.7336 23.7126 18.6602C21.9195 16.99 19.783 17.9814 18.9875 19.2988C18.1906 20.6162 18.4151 22.7092 20.6394 23.3091C17.9557 23.714 16.4421 26.7642 17.248 29.6878M34.7967 28.2573C20.7241 23.2183 11.4435 33.9617 3 40.12C14.3621 40.9045 28.8063 40.8122 35.0197 30.7224M222.799 35.7733C224.097 41.3184 216.748 44.5487 213.219 39.151M222.799 23.9626C224.097 18.4176 216.748 15.1873 213.219 20.585M196.589 29.5896H157.102M214.829 26.2611C222.631 20.5627 232.178 26.9964 242 29.5688C232.293 32.281 222.996 39.4725 214.94 33.6371M118.059 36.3777L118.01 32.6814M110.851 29.7087L114.543 29.6596M125.078 29.7087L121.388 29.6596M118.059 22.4651L118.01 26.1598M113.118 34.2862L115.637 31.8061M113.118 24.5551L115.637 27.0351M122.998 34.2862L120.479 31.8061M122.998 24.5551L120.479 27.0351M122.843 34.2356C122.843 34.3308 122.861 34.4812 122.861 34.5943C122.861 37.256 120.694 39.4249 118.037 39.4249C115.38 39.4249 113.212 37.256 113.212 34.5943C113.212 34.4633 113.231 34.3115 113.231 34.1983M113.096 34.2921C113.002 34.2921 112.851 34.3115 112.738 34.3115C110.081 34.3115 107.913 32.1411 107.913 29.4809C107.913 26.8193 110.081 24.6504 112.738 24.6504C112.87 24.6504 113.02 24.6682 113.135 24.6682M122.835 34.2921C122.928 34.2921 123.08 34.3115 123.193 34.3115C125.85 34.3115 128.016 32.1411 128.016 29.4809C128.016 26.8193 125.85 24.6504 123.193 24.6504C123.061 24.6504 122.909 24.6682 122.796 24.6682M122.843 24.6057C122.843 24.5119 122.861 24.3601 122.861 24.247C122.861 21.5868 120.694 19.4164 118.037 19.4164C115.38 19.4164 113.212 21.5868 113.212 24.247C113.212 24.3795 113.231 24.5298 113.231 24.6444M139.61 34.0539C139.238 31.7094 141.934 31.0693 145.533 31.1095C147.118 31.0782 149.68 31.0425 151.122 31.1154M139.61 25.0806C139.238 27.4237 141.934 28.0653 145.533 28.0236C147.118 28.0548 149.68 28.0921 151.122 28.0191M127.774 31.1095C131.372 31.0693 134.235 31.6766 133.696 33.8857M127.774 28.0236C131.372 28.0653 134.235 27.4564 133.696 25.2488M30.143 297.04C31.6848 297.3 34.2421 296.412 34.6644 296.041M193.988 32.3033C192.915 30.98 190.371 29.5926 189.76 29.5911M33.4571 300.399C33.3976 298.835 34.3105 296.409 34.7327 296.036M193.988 26.8312C192.915 28.1531 190.371 29.542 189.76 29.542M32.0119 292.726C34.5157 293.394 37.5547 292.443 39.4786 291.438M189.364 34.4856C187.794 32.1381 184.723 30.1538 182.427 29.5911M37.9695 299.514C37.6305 296.941 38.2654 293.196 39.5083 291.414M189.364 24.6474C187.794 26.9964 184.723 28.9808 182.427 29.542M34.3744 287.411C37.8654 289.476 41.1275 288.8 44.4951 286.768M183.616 37.1309C182.246 32.9315 179.041 30.3518 174.829 29.5911M43.5391 297.849C41.9407 294.119 42.079 289.827 44.5248 286.744M183.616 22.0021C182.246 26.2015 179.041 28.7813 174.829 29.542M42.528 282.34C44.333 283.504 47.6738 283.401 49.0239 282.637M173.31 35.4116C172.914 32.8809 169.941 30.0049 168.289 29.6566M49.6082 290.406C48.3489 288.419 48.4306 283.551 49.3599 282.308M173.31 23.7215C172.914 26.2521 169.941 29.1296 168.289 29.4765M44.4519 277.168C46.2019 279.37 50.2757 279.94 52.9951 279.103M168.026 38.2563C168.173 35.1972 165.498 30.8639 162.673 29.5911M54.977 289.159C53.0219 287.139 51.6778 281.616 53.1943 278.853M168.026 20.8782C168.173 23.9373 165.498 28.2692 162.673 29.542M207.237 29.5271C202.311 30.5557 198.343 39.0319 192.891 38.0568C192.246 41.0474 189.06 42.4899 186.55 40.982C186.026 43.6912 182.885 45.089 180.267 43.6912C181.159 42.0925 180.973 40.4907 180.032 39.4978C179.201 38.6225 177.779 37.9124 175.991 38.7103C172.87 40.0739 173.546 44.2926 177.125 44.4772C177.409 47.0123 173.903 48.7079 171.539 47.2743C171.841 50.0699 168.121 51.4901 166.477 49.4581C166.2 52.0141 162.638 53.0189 160.543 51.3799M68.0891 293.672C67.6371 296.075 64.5698 297.544 62.8303 295.949C62.9284 298.35 59.4998 299.628 58.0145 297.515C57.2518 299.939 53.8054 300.898 52.4673 298.978C54.8239 296.676 52.7349 293.355 49.7569 294.31C48.0381 294.845 47.488 296.197 47.4449 297.306C47.3958 298.563 48.2388 299.78 49.8222 300.343C48.8633 302.897 45.8481 303.84 43.8468 302.289C43.0276 304.852 39.9573 305.791 37.6989 304.12C34.529 308.103 26.704 304.719 22.6822 307C25.4581 303.299 23.0614 295.04 27.4147 292.404C26.0483 289.948 27.3731 287.018 30.0181 286.535C28.738 284.348 30.0582 281.476 32.7122 280.851C33.066 282.496 34.1633 283.489 35.4137 283.602C36.5184 283.702 37.9294 283.328 38.6802 281.691C40.0064 278.856 36.9867 276.357 34.4041 278.401C32.6735 276.824 34.0652 273.526 36.5645 273.08C34.6628 271.334 36.3697 268.094 38.7337 268.5C37.3778 266.568 39.4518 263.262 41.8887 263.12M207.237 29.606C202.311 28.5773 198.343 20.1012 192.891 21.0777C192.246 18.0856 189.06 16.6446 186.55 18.1511C186.026 15.4433 182.885 14.044 180.267 15.4433C181.159 17.0421 180.973 18.6423 180.032 19.6367C179.201 20.512 177.779 21.2206 175.991 20.4227C172.87 19.0592 173.546 14.8419 177.125 14.6558C177.409 12.1222 173.903 10.4267 171.539 11.8602C171.841 9.06461 168.121 7.64298 166.477 9.67494C166.2 7.12048 162.638 6.11418 160.543 7.75314M157.749 29.5598C167.229 24.2648 166.17 10.9016 155.633 3C157.684 8.32626 154.68 12.7995 151.702 16.6476C150.502 18.1987 149.472 20.0952 149.197 22.087C148.797 25.0002 149.866 27.967 153.598 29.5598C147.312 32.2408 148.58 38.8398 151.702 42.4869C154.868 46.1802 157.684 50.8083 155.633 56.133C166.17 48.2315 167.229 34.8697 157.749 29.5747M73.1189 199.799C62.069 215.334 67.0126 227.7 72.2967 239.846C76.8909 250.401 76.5326 262.599 64.5237 270.438M33.802 199.065C29.7995 202.605 24.0263 198.566 25.7584 194.108M35.8731 176.629C31.8706 172.61 25.1414 175.77 26.0766 181.507M34.1246 184.523C33.3753 182.778 31.2075 181.379 28.1224 181.309C23.4836 181.202 17.8635 186.22 11.2279 186.882C16.9506 187.834 21.1122 194.314 27.6184 194.239C29.9705 194.212 32.2438 193.684 34.2837 192.237M34.923 190.949C32.0015 195.551 33.7931 203.504 38.5047 206.857M38.3501 173.793C34.8844 176.288 33.0928 182.839 34.7669 186.894M63.2064 198.427C29.8932 195.836 43.4172 149.639 18.259 141.873C27.8786 141.518 37.7614 147.233 38.2713 153.417C41.5943 152.314 44.6854 155.267 43.374 158.213C46.306 156.979 49.6216 160.002 47.9801 162.776C50.7619 161.577 54.2663 165.143 51.9737 168.106C55.7486 167.341 58.1855 171.789 55.8899 174.54C62.1151 175.168 63.7922 183.5 57.9878 186.683C60.5421 182.015 54.7703 179.067 52.1729 182.622C49.1711 187.219 55.6193 194.358 63.7194 195.603C70.4784 196.642 78.4788 194.971 83.3555 191.86C94.6537 184.649 98.4376 166.625 90.3836 152.72C93.9639 169.196 83.4284 183.331 76.0524 195.04M77.7384 38.2116C72.2164 41.9883 68.8161 47.0093 68.7373 52.806M107.959 30.453C103.408 30.5289 98.9045 31.1437 94.7682 31.9044C89.6878 32.8407 85.0505 34.3025 81.1372 36.3643M73.5293 54.765C88.1564 40.251 70.3832 17.6554 42.0538 28.5654M72.157 253.087C67.4706 250.062 63.2927 244.839 61.7627 241.346C59.5444 252.53 47.6069 251.966 47.21 244.294C47.1683 242.65 48.0009 241.236 49.2216 240.504C51.0087 239.433 53.5229 239.676 54.4596 241.596C55.3769 243.399 54.4358 245.322 52.6591 245.15C50.8645 244.956 50.7262 242.12 52.5951 242.484C51.8651 241.066 49.122 242.266 49.3792 244.731C49.6543 246.698 50.9552 247.503 52.326 247.664C56.1709 248.116 58.8873 244.515 59.1653 239.803C59.3408 233.099 58.4249 229.996 60.3235 220.455C61.5665 214.213 65.2225 205.892 68.4429 201.329M54.6112 168.407C55.1599 166.968 57.0585 162.366 60.6462 159.228C67.0528 153.627 67.5256 150.621 70.4457 148.022C72.5242 146.17 74.5938 146.644 75.141 146.864C76.2367 147.308 77.2894 148.421 77.0961 149.928C76.888 151.901 74.3262 152.51 73.9649 151.193C75.4666 151.829 75.8858 149.49 74.4154 149.009C72.9569 148.549 71.8284 149.995 72.2774 151.668C73.0268 154.657 78.1339 154.14 78.8312 150.632C80.034 144.831 72.3369 142.583 68.5738 147.363C73.6096 133.066 50.8452 126.265 48.5511 142.991M78.4669 53.653C82.7727 49.4328 83.5176 41.4464 80.5351 34.9233C79.4571 32.5638 77.957 30.4619 75.8294 28.3287C70.5393 23.062 70.3743 18.4503 72.6476 15.7649C73.8787 14.3105 75.6777 13.4903 78.4461 14.4727C81.4138 15.6041 80.9112 19.537 78.7197 19.4149C80.4548 17.4455 76.992 15.6279 75.5097 17.6286C74.0616 19.6218 75.6896 22.0855 78.4699 22.2537C83.4061 22.6348 85.3493 15.5416 80.5455 12.6596C75.7059 9.88781 70.9646 12.0374 69.1715 15.7797C67.6847 18.882 68.0222 23.1439 71.3035 26.8431C65.1437 21.9426 50.3858 21.953 40.9416 26.8342M80.0504 33.7949C84.0484 31.7898 88.2218 30.3622 92.3551 28.6309C98.9119 25.5435 101.249 20.7026 99.3922 17.4053C98.402 15.6473 96.8259 14.2703 93.7319 14.5546C90.394 14.9387 90.0491 19.0904 92.3284 19.5385C91.0601 17.0659 95.0849 16.1057 96.0855 18.5441C97.0489 20.9661 94.74 23.068 91.8452 22.5142C86.683 21.6166 86.5388 13.8356 92.2139 12.1341C103.111 9.57222 107.926 22.8536 97.3582 29.2963C100.03 28.5252 103.976 28.3317 108.088 28.5297M65.9392 51.3963C66.0819 45.1515 71.085 38.8711 76.3691 35.8165M69.5699 130.644C81.2458 142.7 99.4724 144.205 100.431 129.992C100.928 122.921 106.388 117.772 112.204 118.912C100.971 120.751 107.101 132.362 107.827 142.766C108.307 149.658 105.87 157.814 96.42 158.667M72.2848 250.087C67.5969 246.646 64.2264 241.578 62.7648 235.902C61.4758 230.896 61.6721 225.113 63.3566 219.754C63.7655 233.157 72.8364 242.071 72.383 251.021C71.9012 260.56 68.944 264.848 62.4645 268.56M98.9253 240.069C104.321 245.995 96.0246 255.89 83.5786 254.541C80.486 254.174 77.6195 253.231 75.0518 251.841M139.64 24.8573C139.695 25.8428 140.153 26.3772 141.348 26.1911C143.265 25.7028 143.162 22.6318 140.749 22.1733C137.613 21.7148 135.921 24.3735 137.062 27.1379C137.844 28.7381 139.177 29.207 141.011 29.5152C139.339 29.7027 137.844 30.3949 137.062 31.9952C135.921 34.761 137.613 37.4182 140.749 36.9612C143.162 36.5012 143.265 33.4302 141.348 32.9434C140.153 32.7574 139.695 33.2903 139.64 34.2757M133.666 34.2757C133.779 33.2918 133.153 32.7574 131.959 32.9434C130.043 33.4302 130.144 36.5012 132.557 36.9612C135.692 37.4182 137.384 34.761 136.244 31.9952C135.463 30.3949 134.289 29.7027 132.578 29.5152C134.289 29.3291 135.463 28.7381 136.244 27.1379C137.384 24.3735 135.692 21.7148 132.557 22.1733C130.144 22.6318 130.043 25.7028 131.959 26.1911C133.153 26.3772 133.779 25.8428 133.666 24.8573M95.2574 241.918C96.3873 242.284 96.7159 243.642 95.977 244.562C94.2582 246.47 90.6319 244.675 91.3932 241.635C92.4548 237.983 96.5806 237.616 99.0249 240.237C101.575 243.344 99.6137 248.475 95.0106 249.279C89.9733 249.72 86.1775 246.513 85.9054 241.163C86.6934 230.762 78.7375 227.565 74.0452 232.187C78.8074 221.429 92.3239 219.231 100.873 227.788C108.781 236.275 105.977 249.809 95.4982 254.619M86.4956 193.882C94.0902 201.307 103.176 196.966 110.888 193.687C118.558 190.945 124.351 195.122 121.971 199.991C119.83 203.014 117.448 200.241 118.416 199.894C119.656 198.84 119.164 196.466 117.057 196.655C114.464 197.088 114.207 200.186 115.986 201.63C118.615 203.681 122.429 202.629 123.399 198.909C124.448 194.564 120.676 191.098 117.214 189.745C102.109 184.108 100.556 176.026 99.4992 170.75C98.2101 161.67 94.679 151.639 86.7707 143.242M46.1766 190.525C30.9131 201.92 41.0457 213.67 46.8412 219.246C52.3379 224.958 49.6914 232.287 44.556 231.541C40.6829 230.396 42.7064 227.437 43.6 228.264C44.9247 229.088 47.1133 227.742 46.1558 225.927C44.9426 223.795 42.0716 224.699 41.0546 226.634C39.5693 229.579 42.134 232.709 45.961 232.528C47.9608 232.38 49.5621 231.408 50.6281 229.958C51.8369 228.315 52.3825 226.081 52.5 224.19C52.8093 217.43 53.7207 212.501 55.4543 209.298C57.6845 205.179 60.9792 203.735 63.0027 203.044C77.0114 198.464 87.9706 196.707 94.7385 184.373M74.9135 254.686C76.7095 255.443 87.2792 261.323 88.0583 278.349C88.3006 282.271 90.5621 287.187 95.2633 287.535C99.4784 287.734 102.305 284.285 100.669 281.042C99.5483 278.91 96.3858 278.075 95.0477 280.424C93.9936 282.423 96.6609 283.809 97.7983 282.547C98.7841 281.636 100.5 285.25 96.8111 286.447C93.6278 286.91 91.2073 284.448 90.623 281.137C90.168 278.562 91.0482 275.678 93.332 272.637C98.7989 266.097 104.221 261.311 100.414 251.256M70.0368 54.2544C68.2556 51.176 64.1149 50.3959 61.7568 52.6944C60.0396 49.9389 55.5851 50.4436 54.5027 53.4654C52.0198 51.9292 48.1273 53.9984 48.2775 56.8267C45.7663 55.6746 42.1816 58.7887 42.9042 61.0842C40.4658 61.9892 38.9255 64.572 39.4295 66.6858M100.451 75.2245C102.235 72.146 100.854 68.161 97.6898 67.253C99.2241 64.3919 96.5747 60.7731 93.4182 61.3343C93.5148 58.4121 89.7889 56.0586 87.4115 57.5934C87.1632 54.8394 82.682 53.2704 81.051 55.0404C79.5181 53.0486 75.3119 53.1901 74.0273 55.3947M97.1278 112.432C100.681 112.495 103.488 109.349 102.742 106.14C105.985 106.091 107.855 102.014 105.83 99.5246C108.427 98.1893 108.67 93.7845 106.173 92.4507C108.457 90.8936 107.647 86.2119 105.31 85.6448C105.866 82.7212 103.942 79.6695 101.393 79.6174M63.8472 127.799C65.5927 130.9 69.7231 131.728 72.1079 129.458C73.7939 132.232 78.2543 131.78 79.3709 128.771C81.836 130.336 85.7523 128.314 85.6348 125.485C88.1326 126.665 91.7545 123.592 91.0572 121.288C93.5817 120.722 95.5488 117.397 94.3028 115.17M33.5002 106.101C31.655 109.144 32.956 113.156 36.1006 114.126C34.5097 116.956 37.0864 120.629 40.2532 120.13C40.0971 123.049 43.7754 125.477 46.1841 123.99C46.3773 126.748 50.8258 128.407 52.4911 126.671C54.7346 128.624 58.3357 128.496 59.6649 126.32M38.1241 68.231C34.5766 68.0152 31.6372 71.037 32.2468 74.2748C29.0041 74.1854 26.9613 78.1809 28.8777 80.7532C26.2268 81.9768 25.7971 86.3668 28.2324 87.8063C25.8863 89.2636 26.4959 93.9765 28.8064 94.642C28.1254 97.5388 29.9185 100.669 32.4624 100.832M78.0239 81.6553C82.4441 73.1687 79.3635 61.623 71.8626 58.561C64.6471 56.2462 62.463 65.4324 68.3998 66.336C70.3312 66.5146 71.4983 64.7774 71.1549 63.4481M80.6689 95.7748C90.2201 95.4012 98.6978 86.9875 97.6243 78.9475C96.0468 71.5283 86.9997 74.1944 89.1659 79.8035C89.9703 81.569 92.0548 81.7208 93.0376 80.7621M69.5714 105.119C74.5448 113.293 86.0095 116.618 92.5038 111.771C98.2116 106.783 91.4854 100.163 87.6435 104.785C86.4927 106.348 87.3758 108.246 88.6902 108.639M56.1828 100.309C51.6629 108.742 54.6083 120.324 62.0735 123.473C69.2607 125.873 71.5518 116.712 65.6254 115.739C63.6971 115.538 62.5091 117.261 62.8377 118.594M53.6894 85.9514C44.1323 86.1345 35.488 94.377 36.3994 102.435C37.8283 109.884 46.9275 107.401 44.8742 101.75C44.1055 99.9682 42.024 99.7747 41.0234 100.714M65.343 76.7176C60.7235 68.3382 49.4119 64.5229 42.7168 69.0884C36.8009 73.8282 43.2372 80.7294 47.2724 76.2755C48.4886 74.763 47.6887 72.8293 46.3922 72.3812M80.5217 85.8904C87.6123 73.9651 83.6722 58.1456 72.4989 54.5894C64.6947 52.7941 58.7787 59.3991 60.4484 66.2571M78.2395 100.05C92.0964 100.287 103.853 89.0031 101.384 77.5289C98.8242 69.0616 88.7883 67.7576 84.0692 74.6633M64.659 105.073C71.192 117.311 86.7558 122.108 95.5711 114.369C101.715 108.011 97.9247 98.3397 89.6031 97.5686M53.7325 96.0442C46.5037 107.885 50.2594 123.75 61.3896 127.436C69.8197 129.481 76.149 121.642 73.0178 114.19M56.2036 81.7268C42.3541 81.2117 30.3749 92.2572 32.6126 103.779C35.0033 112.295 45.2578 113.89 50.1137 107.081M70.2479 76.9736C64.2442 64.4663 48.9004 59.0061 39.7626 66.3613C33.353 72.4497 37.1488 82.4874 45.4288 83.6128M54.7986 168.461C60.0633 157.561 81.1224 162.371 81.5818 149.015C84.9806 151.112 85.5426 156.538 82.7058 159.66C85.1843 161.707 83.9071 166.569 80.15 165.801C83.6172 168.598 80.3805 173.22 76.4033 171.55C77.5615 175.838 72.1079 177.528 70.0294 173.887C69.842 177.921 63.6584 178.432 62.5166 173.937C65.4173 171.828 64.4434 167.98 61.7048 166.796C59.8299 165.987 57.2473 166.576 54.7986 168.461ZM42.8299 134.075C45.9447 137.577 43.4409 142.748 39.2229 141.782C34.9201 140.798 32.7776 135.615 27.4816 134.82C32.9605 133.395 34.6807 128.95 38.2728 127.384C43.2655 125.206 46.0384 130.3 42.8299 134.075ZM49.6959 143.799C52.891 141.136 57.399 143.513 56.4192 147.232C55.4201 151.025 50.7634 152.775 49.9026 157.457C48.8023 152.547 44.9143 150.888 43.6312 147.651C41.8485 143.151 46.4457 140.837 49.6959 143.799ZM207.078 29.5137C205.147 30.4366 203.861 32.5847 203.861 34.7402C203.861 37.8395 206.385 40.3686 209.482 40.3686C212.579 40.3686 215.104 37.8395 215.104 34.7402C215.104 32.5624 213.928 30.6063 211.973 29.7042C213.856 28.8364 215.104 26.8863 215.104 24.7903C215.104 21.8027 212.671 19.3673 209.689 19.3673C206.705 19.3673 204.272 21.8027 204.272 24.7903C204.272 26.7389 205.386 28.5818 207.078 29.5137ZM118.047 26.2358C116.214 26.2358 114.718 27.7333 114.718 29.5688C114.718 31.4057 116.214 32.9033 118.047 32.9033C119.882 32.9033 121.377 31.4057 121.377 29.5688C121.377 27.7333 119.882 26.2358 118.047 26.2358ZM36.5912 28.8364C30.1876 35.1525 33.9744 45.6011 44.1248 49.5876C41.3163 45.7857 42.5488 41.4717 44.2631 37.8231C45.9536 34.2251 45.515 28.6756 39.9053 27.9209C44.336 24.3943 41.8753 19.4164 38.5806 17.1939C35.2412 14.9416 31.9747 11.8692 32.4401 7.16365C25.7644 15.7961 27.8593 26.6987 36.5912 28.8364ZM62.3634 270.431C79.4824 270.609 63.9751 290.654 75.7922 296.141C66.1592 295.244 57.5284 287.39 56.9188 279.179C60.6031 279.788 63.1559 275.989 60.273 273.008C57.1566 270.617 53.8634 272.503 53.7786 276.37C46.5573 273.512 40.1759 263.087 40.9029 255.521C44.2616 267.123 65.4232 255.464 62.3634 270.431ZM67.1524 76.6446C59.2605 76.6446 52.8241 83.0888 52.8241 90.9904C52.8241 98.892 59.2605 105.336 67.1524 105.336C75.0443 105.336 81.4807 98.892 81.4807 90.9904C81.4807 83.0888 75.0443 76.6446 67.1524 76.6446Z" stroke="#151C26" stroke-opacity="0.17" stroke-width="1.57" stroke-miterlimit="22.926"/>
</svg>
