<svg width="138" height="138" viewBox="0 0 138 138" fill="none" xmlns="http://www.w3.org/2000/svg">
<path id="Vector" d="M88.1107 78.443L59.3322 107.221L69 116.889L78.6678 107.221L69 97.5537M59.557 88.1107L30.7785 59.3322L21.1107 69L30.7785 78.6678L40.4463 69M49.8893 59.3322L78.6678 30.7785L69 21.1107L59.3322 30.7785L69 40.4463M78.6678 49.8893L107.446 78.6678L117.114 69L107.446 59.3322L97.7785 69M78.6678 69L40.4463 107.221L69.2248 136L97.7785 107.221L78.6678 88.1107M69 78.443L30.7785 40.2215L1.99999 69L30.7785 97.7785L49.8893 78.6678M59.3322 69L97.5537 30.7785L69 2L40.2215 30.7785L59.3322 49.8893M69 59.3322L107.221 97.5537L136 69L107.221 40.2215L88.1107 59.3322" stroke="#151C26" stroke-opacity="0.33" stroke-width="1.57" stroke-miterlimit="22.926"/>
</svg>
