<svg width="14" height="12" viewBox="0 0 14 12" fill="none" xmlns="http://www.w3.org/2000/svg">
<path id="Vector" d="M5.21767 7.61566C5.21733 7.6056 5.21739 7.59557 5.21783 7.58558L5.21771 7.58557M5.21771 7.58557C5.21771 7.58554 5.21771 7.5855 5.21772 7.58546C5.22108 7.5085 5.24734 7.43579 5.29128 7.37566C5.30996 7.3501 5.33183 7.32682 5.35649 7.30645L7.1411 5.73349L4.7545 7.17562L5.184 8.34219L5.21771 7.58557ZM5.10614 10.3413L5.10619 10.3414C5.11405 10.3627 5.12357 10.3828 5.13457 10.4017C5.17046 10.4804 5.23249 10.5463 5.31307 10.5864L5.31424 10.5869C5.36674 10.6122 5.42377 10.6256 5.4815 10.6256C5.56998 10.6256 5.65768 10.5944 5.72814 10.5358L5.72815 10.5358L5.72912 10.535L7.18435 9.29392L9.25809 10.8767L9.25812 10.8768C9.45031 11.0233 9.68119 11.1 9.91605 11.1C10.0384 11.1 10.16 11.079 10.2795 11.0384L10.2795 11.0384L10.2806 11.038C10.6271 10.9152 10.8867 10.628 10.9758 10.27L10.9758 10.27L13.0783 1.80938L13.0784 1.80921C13.1437 1.54428 13.0585 1.26682 12.8555 1.08523C12.6524 0.903519 12.3673 0.850779 12.113 0.948032C12.113 0.948034 12.113 0.948037 12.113 0.948039L1.36931 5.05425C1.07838 5.16532 0.894244 5.44027 0.900137 5.75199C0.905462 6.06392 1.10031 6.33156 1.39457 6.43133L3.99173 7.31434L5.10614 10.3413Z" fill="#151C26" stroke="#151C26" stroke-width="0.2"/>
</svg>
