<svg width="238" height="204" viewBox="0 0 238 204" fill="none" xmlns="http://www.w3.org/2000/svg">
<path id="Vector" d="M10.3482 99.1505C17.3368 101.147 25.3401 102.333 34.3624 102.705M169.887 146.928C168.94 140.859 168.042 134.208 167.239 127.686C168.114 125.936 171.141 125.805 172.073 127.76C174.005 135.175 174.759 141.627 175.609 147.01C185.345 143.692 194.028 147.282 193.113 155.24C187.77 153.021 181.858 156.339 174.833 158.44C167.807 160.538 158.649 161.724 152.101 156.662C141.452 161.773 142.638 178.298 156.884 181.244C184.909 185.508 208.904 183.551 228.56 175.243M164.188 147.029C163.396 141.011 162.218 134.183 161.668 127.762C162.542 126.012 166.002 125.841 167.239 127.644M157.725 147.434C156.933 141.416 156.06 134.487 155.512 128.066C156.386 126.316 160.151 125.816 161.769 127.899M151.999 156.764C150.576 147.552 149.692 138.071 149.355 128.319C150.228 126.569 153.995 126.069 155.613 128.152M135.33 80.829C129.635 110.95 131.364 136.882 140.31 159.44M99.9989 106.988C106.682 120.058 111.669 130.284 114.959 137.666M138.602 23.4416C138.941 15.3321 139.541 8.28846 139.933 1.00422M104.96 43.3651C98.283 42.6876 94.5652 42.544 88.568 41.9741M169.097 42.4659C175.575 41.6364 181.782 40.7034 187.72 39.6713M131.845 23.982C130.296 14.5321 129.676 9.26153 128.669 2.09972M105.896 48.7412C97.8106 49.3027 93.5653 49.5961 87.6211 50.1787M169.198 47.9518C177.303 47.8843 183.919 48.0193 189.042 48.3571M133.378 70.0599C137.55 71.0077 140.876 70.8557 144.42 69.604M116.145 43.1372C118.217 40.6697 121.265 40.1145 123.907 39.9626C129.718 39.6227 135.133 43.5614 134.925 49.8431C134.859 53.5981 134.925 58.0117 134.817 62.8728C135.728 64.2722 137.8 65.9693 139.38 66.5561C140.873 65.507 142.028 64.4242 142.841 63.0015C142.163 58.2608 141.483 54.0625 140.907 50.4045C139.687 36.7247 154.986 35.2682 161.261 45.0221M222.114 177.69C218.756 188.727 214.753 196.989 209.904 202.882M200.032 182.45C197.115 190.745 193.247 197.552 188.431 202.867M97.7364 149.627C87.7969 167.166 74.398 178.79 56.7263 184.953M141.416 80.8797C158.479 95.6445 169.775 108.782 174.389 113.59M202.737 168.354C219.409 165.855 224.696 145.526 211.683 133.708C183.553 106.492 154.395 84.5166 146.805 79.3832M108.854 152.802C101.425 173.793 86.6953 190.606 65.8333 202.932M175.71 183.072C172.963 190.658 168.247 197.295 161.566 202.983M155.715 180.824C154.171 187.41 150.084 194.774 143.451 202.92M109.623 89.3164C98.0796 81.7937 87.441 67.6452 87.441 51.652C87.441 23.6844 110.207 1 138.276 1C166.347 1 189.111 23.6844 189.111 51.652C189.111 64.6564 184.087 77.1732 175.086 86.5851M125.517 156.907C123.28 176.088 115.154 191.258 103.429 202.873M30.9031 113.59C19.6755 111.931 11.5006 109.985 4.54805 107.581C1.9869 108.191 0.817542 109.884 1.02303 112.638C26.9819 122.7 50.1953 129.117 70.462 131.884M21.2135 106.743C15.6569 105.886 10.81 104.691 6.48002 103.06C6.27666 101.012 8.2616 99.2096 10.5516 99.3024C10.1279 97.4049 11.382 95.6529 13.8076 95.2646C23.5098 97.065 32.1593 97.7595 38.8407 97.8946M20.9805 111.796C20.1839 109.611 21.0843 105.702 22.6603 104.533C26.1557 104.619 29.7676 104.89 33.5489 105.295M75.7813 107.699C66.4858 100.723 57.1924 96.1848 47.9985 94.2894C42.3339 95.7458 37.9594 97.9473 34.8729 100.791C33.7184 104.786 32.9727 108.917 32.6338 113.183C38.9763 113.455 42.3 110.882 42.5034 105.464C44.3697 104.719 46.3038 103.568 48.3057 102.008C50.3733 105.599 53.3242 108.104 57.1585 109.527M84.4308 103.532C96.8446 127.675 111.192 142.879 125.235 149.549C126.21 130.974 115.065 117.383 116.609 103.473C117.849 92.3243 124.087 85.04 129.534 79.0054M75.5758 110.135C83.3779 120.26 92.0273 131.468 101.73 144.167M147.021 160.453L140.92 116.286L179.759 113.246L184.334 145.667M149.258 78.142C222.188 125.284 227.137 122.903 229.984 202.595M122.416 74.9527C110.69 85.8928 102.422 99.4692 100.05 107.167C96.315 105.24 91.6121 103.355 85.8437 102.021C85.3967 102.435 84.9731 103.026 84.5833 103.72C81.4968 102.587 78.6136 101.842 75.9339 101.436C76.3935 111.152 74.021 123.173 68.5322 137.355C90.4237 148.768 116.791 156.536 147.631 160.656M153.272 75.4086C179.352 90.2979 208.647 101.223 219.502 112.898C233.46 127.912 234.102 148.371 237 203L56.7899 202.949C53.6208 184.495 59.9908 164.506 75.8512 141.005M121.107 47.5529C121.24 47.4051 121.384 47.27 121.535 47.1455C123.32 45.6806 126.193 45.8769 127.536 47.5107C125.987 49.5032 122.441 49.461 121.107 47.5529ZM154.029 46.4722C152.45 44.7371 149.461 44.8215 148.131 46.4511C149.557 48.2747 152.811 48.2262 154.029 46.4722ZM117.605 47.4684C117.878 47.0927 118.173 46.7445 118.48 46.43C122.128 42.7023 128.002 43.2047 130.75 47.3692C127.589 52.4414 120.338 52.3316 117.605 47.4684ZM157.24 46.3835C154.012 41.9678 147.902 42.1789 145.182 46.3307C148.095 50.9744 154.749 50.852 157.24 46.3835ZM138.912 81.0591C125.583 80.4554 115.982 71.014 113.779 52.8804C113.165 55.1347 110 55.177 108.828 53.9147C105.382 50.033 103.318 41.3008 106.651 38.8924C106.932 38.6898 107.572 38.5568 108.182 38.6856C117.402 19.9779 153.73 17.6159 165.932 36.4566C170.08 37.5711 170.69 48.7117 167.264 53.0451C166.188 54.3495 163.619 54.206 162.888 52.0298C161.79 69.3908 153.435 79.0813 141.041 80.8586C140.348 80.9578 139.634 81.0591 138.912 81.0591Z" stroke="#292526" stroke-width="1.62" stroke-miterlimit="22.926"/>
</svg>
