<svg width="407" height="365" viewBox="0 0 407 365" fill="none" xmlns="http://www.w3.org/2000/svg">
<path fill-rule="evenodd" clip-rule="evenodd" d="M243 357.66C334.525 351.983 407 275.955 407 183C407 90.0447 334.525 14.0167 243 8.34011V58.4773C306.884 64.0472 357 117.671 357 183C357 248.329 306.884 301.953 243 307.523V357.66Z" fill="#C5D92D"/>
<path d="M157.169 174.302C160.686 174.761 163.134 172.467 162.522 169.714M147.533 182.867C151.051 183.326 153.957 181.185 153.345 178.279M156.098 173.384C156.098 170.172 158.392 168.031 161.145 168.184M146.003 185.314C145.391 179.196 148.756 174.914 152.733 176.902M141.415 181.797C141.874 176.749 146.156 172.467 150.133 173.231M138.509 196.327C135.297 198.009 134.226 203.21 136.214 206.727M141.721 201.221C141.721 202.139 142.638 202.598 143.556 202.292C145.085 201.527 144.627 198.927 142.485 198.621C139.579 198.468 138.356 201.527 139.732 203.821C141.568 206.421 145.544 206.421 147.227 202.904C147.992 200.915 147.533 198.468 146.462 196.327M151.662 69.6843C151.815 58.8248 165.734 31.4468 179.499 15.0812C168.487 29.3055 155.639 56.9894 153.498 70.2961M180.264 170.325C177.205 160.995 167.722 142.488 159.616 130.405C152.121 119.24 147.992 105.933 150.439 89.1089M175.37 173.69C173.84 165.584 164.051 144.018 155.639 130.405C148.297 118.934 143.862 101.651 147.992 88.803M127.955 281.673C124.284 253.377 136.979 239.612 143.862 252.918M128.567 235.176C130.402 235.023 133.155 235.023 134.073 235.329M128.108 237.623C131.167 237.47 134.838 237.623 135.45 237.929M127.037 245.118C132.544 244.506 140.038 244.812 142.179 245.73M146.921 248.636C146.768 251.695 143.862 268.519 141.109 282.438M157.933 247.412C158.086 255.213 157.321 271.884 156.404 280.602M151.968 281.061C151.051 263.319 150.898 251.389 151.203 249.553M149.368 280.449C149.368 280.908 149.521 282.743 149.521 284.12M145.085 280.755C145.085 282.285 145.085 284.579 145.085 285.344M130.861 225.081C128.72 227.682 124.59 261.331 122.449 292.532C126.731 283.967 136.367 281.061 141.874 286.873C143.862 288.709 146.768 285.191 143.862 284.12C139.12 283.049 140.344 281.214 146.615 280.449C151.509 279.837 153.651 280.755 150.745 282.438C147.992 284.426 149.674 285.191 154.262 284.579C158.698 284.273 159.922 283.202 157.78 281.979C154.721 280.449 156.71 279.532 161.604 279.99C168.181 280.602 171.087 281.367 174.299 282.438C170.628 273.261 164.204 252.765 161.298 241.447M164.357 204.433C163.898 205.963 164.051 211.928 164.816 216.363M166.804 204.892C165.581 204.28 163.287 204.28 162.216 205.045C161.298 212.998 161.145 221.564 162.216 222.022M159.463 165.125C156.251 164.513 153.039 167.113 152.886 170.325C155.333 172.925 159.004 176.137 160.38 177.514C161.91 178.738 161.757 180.267 159.769 180.726C159.004 181.491 159.157 181.644 158.698 182.102C157.627 183.173 156.251 183.02 156.098 181.95M127.649 177.055C125.508 180.267 126.731 184.091 130.249 184.703M131.167 180.114C128.873 185.161 131.167 190.515 135.603 190.668M141.262 188.985C140.497 192.503 142.332 196.174 144.78 196.48M139.579 183.479C137.285 185.62 139.732 189.903 144.78 189.903M136.979 178.126C139.426 181.338 138.815 184.55 137.591 188.068C136.367 192.656 137.744 196.786 141.874 198.468M187.758 183.326C189.288 185.467 187.453 188.373 183.935 188.985C183.629 188.832 183.476 188.526 183.629 188.373M144.321 205.198C149.062 211.928 159.463 212.387 162.063 204.892M161.298 197.244C162.063 200.456 162.063 203.362 161.91 204.892C156.098 209.328 148.297 207.492 147.074 203.362M186.535 188.068C187.759 193.727 188.829 200.456 188.676 203.515M186.535 178.891C189.288 180.573 187.759 185.161 183.476 188.526C182.252 188.373 181.793 187.303 182.099 186.232M184.699 174.914C188.064 175.984 186.841 181.491 182.252 186.079C180.876 185.773 180.264 184.397 181.182 183.02M137.285 193.115C129.638 185.009 139.273 169.102 156.404 161.607M147.992 194.491C149.674 198.162 157.169 199.233 162.828 196.633C165.275 196.786 167.569 194.491 167.416 192.197C170.628 183.479 168.334 172.161 162.522 169.561C160.992 168.337 159.31 165.89 159.31 164.513C159.157 163.29 157.627 161.913 156.251 161.454C150.286 153.042 140.344 153.195 135.756 162.066C119.084 167.572 128.261 187.915 137.438 177.208M183.17 172.314C185.617 172.925 185.005 178.126 181.946 182.867C181.182 183.479 180.111 183.173 179.958 182.102M178.276 186.997C180.57 183.938 180.264 179.196 177.97 177.514C181.488 176.137 184.241 171.549 183.629 168.337C175.981 172.008 170.322 176.443 173.075 185.161C173.687 186.997 173.84 188.526 173.381 190.209C173.075 192.35 169.71 199.845 166.651 205.045C166.651 210.398 167.722 217.128 168.793 218.046M181.182 193.574C178.734 196.174 179.499 205.657 175.217 214.222M179.499 185.009C181.488 190.821 182.711 202.139 182.252 208.257M187.911 213.151C192.653 213.151 193.571 215.751 189.9 218.352M189.9 218.352C190.359 216.975 189.135 216.057 187.606 216.516C185.617 217.893 182.558 218.657 181.335 218.046C180.57 217.434 179.193 218.505 178.581 220.187C170.934 231.811 159.463 241.6 155.639 239.917M189.9 218.352C190.053 227.223 189.135 234.258 184.394 233.952C179.958 233.494 181.029 230.741 181.488 225.387C181.793 223.246 181.488 220.799 182.405 218.352M188.676 209.939C193.112 209.48 194.794 211.622 192.041 214.222M189.441 206.727C194.029 206.574 195.865 208.716 193.112 211.01M159.616 223.705C160.228 223.399 168.181 218.505 175.37 214.069C180.264 209.633 184.547 205.657 185.158 204.586C191.888 201.68 196.477 203.515 194.029 207.645M148.603 217.893C152.274 227.987 149.368 236.553 142.944 235.023C132.849 233.647 131.014 211.316 138.662 209.022M142.332 209.939C139.12 211.163 137.897 216.516 139.732 220.646M154.874 222.328C156.404 220.952 158.851 221.716 159.616 223.552C155.333 231.505 154.415 243.741 157.933 247.718M154.874 222.328C153.039 207.798 140.65 202.751 134.226 207.951C132.544 209.328 131.167 211.316 130.708 214.375C127.802 246.953 159.157 260.719 161.91 238.847C161.91 238.694 162.063 238.082 162.063 237.776M154.874 222.328C149.98 227.682 147.227 241.294 149.368 249.4M157.321 57.7542C159.922 57.7542 163.287 55.7658 164.204 53.7775C162.522 53.4716 159.157 55.4599 157.321 57.7542ZM159.769 51.4832C162.675 51.4832 166.651 49.189 167.569 46.8947C165.734 46.5888 161.91 48.8831 159.769 51.4832ZM181.64 53.0127C185.311 55.7658 192.041 56.3776 195.406 54.5422C193.265 52.4009 186.688 51.7891 181.64 53.0127ZM163.592 75.8023C164.663 77.6377 167.416 79.1672 169.252 79.0142C168.793 77.7906 166.04 76.2611 163.592 75.8023ZM180.111 89.2619C182.711 87.4265 187.3 87.2735 189.594 88.6501C188.064 90.1796 183.629 90.3325 180.111 89.2619ZM174.911 86.2029C177.358 84.2145 182.099 83.4498 184.547 84.6734C183.17 86.0499 178.429 86.8147 174.911 86.2029ZM168.028 82.9909C170.169 81.0026 174.605 80.0849 176.899 81.0026C175.675 82.5321 171.393 83.4498 168.028 82.9909ZM162.828 81.1555C164.204 79.9319 167.11 79.3201 168.64 79.9319C167.722 80.8496 164.969 81.4614 162.828 81.1555ZM163.745 84.0616C163.898 86.8147 166.193 90.4855 168.487 91.4032C168.64 89.5678 166.346 86.0499 163.745 84.0616ZM171.087 86.6617C171.087 89.5678 173.534 93.3915 175.828 94.4622C175.981 92.4738 173.687 88.803 171.087 86.6617ZM177.358 89.7207C177.358 92.7797 179.652 96.9094 181.946 97.98C182.252 96.1446 179.958 92.015 177.358 89.7207ZM170.628 74.4257C172.005 77.1788 175.828 79.779 178.429 79.779C177.817 77.9436 173.993 75.3434 170.628 74.4257ZM178.734 74.1198C180.57 78.0965 186.076 81.7673 189.747 81.6144C188.829 79.0142 183.476 75.3434 178.734 74.1198ZM188.676 75.0375C190.359 78.5554 195.406 81.9203 198.771 81.9203C198.006 79.4731 193.112 76.1082 188.676 75.0375ZM174.299 57.2953C177.511 59.5896 183.323 60.2014 186.229 58.5189C184.394 56.8365 178.734 56.2247 174.299 57.2953ZM162.981 66.4723C165.581 68.0018 169.863 67.8489 172.005 66.4723C170.475 65.2487 166.193 65.4017 162.981 66.4723ZM183.17 50.4126C183.782 46.5888 187.911 42.3062 190.97 41.5415C190.817 43.9887 186.841 48.2713 183.17 50.4126ZM174.452 54.3893C174.605 50.1067 178.276 44.6005 181.64 43.2239C181.946 45.977 178.429 51.3303 174.452 54.3893ZM165.122 72.8962C166.193 70.449 169.405 68.1548 171.699 68.1548C171.087 69.6843 167.875 71.9785 165.122 72.8962ZM190.053 73.3551C192.5 70.602 197.853 68.7666 200.759 69.5313C199.383 71.5197 194.182 73.3551 190.053 73.3551ZM179.805 72.1315C182.099 68.6136 188.064 65.8605 191.582 66.3194C190.359 68.7666 184.547 71.5197 179.805 72.1315ZM172.311 71.9785C173.687 69.0725 177.511 66.3194 180.264 66.1664C179.805 68.1548 175.828 70.9079 172.311 71.9785ZM157.169 68.3077C156.71 66.0135 158.086 62.6486 159.616 61.5779C160.075 62.9545 158.851 66.1664 157.169 68.3077ZM161.145 64.0251C160.992 61.1191 162.981 56.9894 165.122 55.7658C165.581 57.6012 163.592 61.5779 161.145 64.0251ZM167.416 59.1307C167.11 55.307 169.71 50.1067 172.616 48.5772C173.075 50.8714 170.475 56.0717 167.416 59.1307ZM167.416 62.1897C170.781 64.1781 176.593 64.1781 179.193 62.1897C177.358 60.8132 171.546 60.8132 167.416 62.1897ZM162.675 44.6005C166.498 44.6005 171.546 41.5415 172.922 38.6354C170.322 38.3295 165.428 41.2356 162.675 44.6005ZM166.498 36.4941C171.087 36.4941 177.052 32.9763 178.581 29.4584C175.675 29.1525 169.863 32.6704 166.498 36.4941ZM171.546 28.2348C176.134 27.4701 181.793 23.3405 182.864 19.8226C179.958 19.8226 174.299 23.9523 171.546 28.2348ZM148.756 62.4956C150.439 60.9661 151.662 57.7542 151.203 56.0717C149.98 56.9894 148.756 60.0484 148.756 62.4956ZM147.839 53.3186C150.592 50.8714 152.58 45.6711 151.815 42.7651C149.98 44.1416 147.992 49.3419 147.839 53.3186ZM146.921 42.3062C151.203 39.0943 154.568 31.5997 153.651 27.3171C150.745 29.1525 147.38 36.4941 146.921 42.3062ZM145.391 30.5291C149.98 27.0112 153.651 18.9049 152.733 14.3164C149.521 16.1518 145.85 24.1052 145.391 30.5291ZM144.168 18.2931C147.839 15.8459 151.051 10.0338 150.592 6.51596C147.992 7.73956 144.933 13.5517 144.168 18.2931ZM145.85 57.2953C143.25 56.0717 140.803 52.4009 140.803 50.1067C142.485 50.7185 144.933 54.2363 145.85 57.2953ZM145.085 49.036C141.415 47.3536 137.744 42.1533 137.591 38.9413C140.191 39.7061 143.709 44.7534 145.085 49.036ZM113.119 60.9661C111.436 56.8365 105.471 53.0127 101.954 52.7068C102.565 55.4599 108.377 59.2837 113.119 60.9661ZM122.908 63.2604C121.837 58.8248 116.637 54.0834 113.119 53.4716C113.578 56.2247 118.625 60.9661 122.908 63.2604ZM96.9062 65.8605C99.9652 62.9545 106.389 61.1191 109.601 62.3427C107.766 64.484 101.648 66.1664 96.9062 65.8605ZM105.166 69.0725C108.989 65.5546 116.484 63.4133 120.461 64.7899C118.319 67.39 110.825 69.3784 105.166 69.0725ZM129.638 73.8139C132.085 72.1315 136.673 71.6726 138.662 72.8962C137.132 74.1198 132.697 74.5787 129.638 73.8139ZM137.438 99.8154C136.061 95.8387 136.979 89.4148 139.426 86.9676C140.497 89.4148 139.579 95.6858 137.438 99.8154ZM126.426 108.228C125.202 104.71 126.12 99.2036 128.108 97.2153C129.179 99.2036 128.261 104.71 126.426 108.228ZM131.932 103.945C130.555 100.121 131.473 94.0033 133.767 91.7091C134.991 94.0033 134.073 99.9684 131.932 103.945ZM129.485 87.2735C130.708 83.7557 134.838 79.9319 137.744 79.626C137.132 81.7673 133.155 85.5911 129.485 87.2735ZM116.637 102.263C120.155 102.263 124.896 99.9684 126.12 97.3682C123.978 97.0623 119.237 99.5095 116.637 102.263ZM121.684 94.921C124.59 95.5328 129.026 94.3092 130.555 92.4738C128.72 91.862 124.284 93.0856 121.684 94.921ZM126.731 90.3325C129.332 90.9443 133.308 89.8737 134.685 88.1912C133.002 87.5794 129.026 88.6501 126.731 90.3325ZM124.284 75.6493C127.037 77.6377 132.085 78.5554 134.532 77.3318C133.002 75.8023 127.955 74.8846 124.284 75.6493ZM112.507 77.9436C116.637 80.6967 124.131 81.4614 127.496 79.4731C125.049 77.4847 117.707 76.567 112.507 77.9436ZM104.86 81.7673C108.683 84.3675 115.566 85.1322 118.778 83.2968C116.484 81.3085 109.754 80.5437 104.86 81.7673ZM98.7416 86.2029C102.107 88.4971 108.53 89.2619 111.284 87.5794C109.295 85.744 103.024 85.1322 98.7416 86.2029ZM105.013 99.0507C105.471 94.921 109.142 89.7207 112.354 88.6501C112.354 91.4032 108.683 96.4505 105.013 99.0507ZM112.507 96.9094C113.119 91.7091 117.707 85.2852 121.531 83.9086C121.684 87.2735 117.096 93.6974 112.507 96.9094ZM120.919 94.0033C121.531 88.803 126.12 82.3791 129.943 81.0026C129.943 84.3675 125.508 90.6384 120.919 94.0033ZM116.178 70.7549C120.461 67.8489 128.414 67.0841 131.932 69.2254C129.332 71.2138 121.531 72.1315 116.178 70.7549ZM139.579 69.9902C139.579 67.39 137.744 63.8722 135.908 62.9545C135.756 64.6369 137.591 68.1548 139.579 69.9902ZM134.226 67.543C132.849 62.4956 127.496 56.6835 123.52 55.9188C123.978 59.1307 129.332 64.9428 134.226 67.543ZM120.613 27.776C122.449 22.2698 120.766 13.5517 117.402 10.1868C115.872 13.5517 117.554 22.1169 120.613 27.776ZM127.496 37.7177C129.79 32.3645 128.72 23.4934 125.661 19.9756C123.825 23.1875 124.896 31.9056 127.496 37.7177ZM137.285 52.8598C138.815 50.4126 138.967 45.977 137.744 43.9887C136.52 45.5182 136.52 49.9537 137.285 52.8598ZM133.155 46.4359C135.297 41.6944 134.532 33.894 131.932 30.5291C130.249 33.4351 131.014 41.2356 133.155 46.4359ZM139.426 62.1897C136.52 62.3427 132.391 60.3543 131.32 58.366C133.155 58.0601 137.132 60.0484 139.426 62.1897ZM135.756 55.4599C131.32 55.7658 125.355 53.0127 123.672 50.1067C126.273 49.4949 132.238 52.095 135.756 55.4599ZM118.472 27.623C113.272 27.623 106.236 23.9522 104.401 20.2815C107.766 19.9756 114.648 23.4934 118.472 27.623ZM125.814 38.6354C120.002 38.6354 112.201 34.5058 110.06 30.3761C113.731 29.9173 121.531 33.894 125.814 38.6354ZM131.473 47.9654C126.273 47.9654 119.237 44.2946 117.402 40.6238C120.613 40.1649 127.496 43.8357 131.473 47.9654ZM144.474 40.3179C139.732 38.1766 134.991 31.7527 134.991 27.623C138.203 28.6937 142.791 34.8117 144.474 40.3179ZM143.709 30.3761C139.12 27.3171 135.144 19.9756 135.756 15.54C138.815 17.0695 142.791 24.4111 143.709 30.3761ZM142.791 17.2225C139.12 14.7753 135.908 8.96316 136.367 5.44531C138.967 6.66891 142.026 12.481 142.791 17.2225ZM170.169 27.0112C168.793 22.4228 170.475 15.2341 173.228 12.634C174.452 15.3871 172.922 22.4228 170.169 27.0112ZM164.816 35.4235C162.675 30.3761 163.287 21.9639 166.193 18.752C167.875 21.811 167.263 30.0702 164.816 35.4235ZM159.769 44.7534C157.321 39.859 157.474 31.4468 160.075 27.9289C162.063 30.835 161.757 39.0943 159.769 44.7534ZM153.957 58.9778C152.121 56.8365 151.356 52.5539 152.274 50.4126C153.651 51.6362 154.415 55.9188 153.957 58.9778ZM156.098 52.8598C153.957 49.189 153.498 42.7651 155.333 39.859C156.863 42.1533 157.321 48.4242 156.098 52.8598ZM150.898 69.8372C156.404 69.8372 160.839 74.2728 160.839 79.779C160.839 85.2852 156.404 89.7207 150.898 89.7207C145.391 89.7207 140.956 85.2852 140.956 79.779C140.956 74.2728 145.391 69.8372 150.898 69.8372ZM150.898 75.4964C153.192 75.4964 155.18 77.3318 155.18 79.779C155.18 82.0732 153.345 84.0616 150.898 84.0616C148.603 84.0616 146.615 82.2262 146.615 79.779C146.615 77.3318 148.45 75.4964 150.898 75.4964Z" stroke="#292526" stroke-width="1.62" stroke-miterlimit="22.926"/>
<path fill-rule="evenodd" clip-rule="evenodd" d="M146.773 180.118C149.374 181.954 152.127 178.742 149.527 176.906C148.456 177.059 147.385 178.589 146.773 180.118Z" fill="#292526"/>
<path d="M146.773 180.118C149.374 181.954 152.127 178.742 149.527 176.906C148.456 177.059 147.385 178.589 146.773 180.118Z" stroke="#292526" stroke-width="1.62" stroke-miterlimit="22.926"/>
<path fill-rule="evenodd" clip-rule="evenodd" d="M156.547 171.556C159.147 173.391 161.9 170.179 159.3 168.344C158.382 168.497 157.159 170.026 156.547 171.556Z" fill="#292526"/>
<path d="M156.547 171.556C159.147 173.391 161.9 170.179 159.3 168.344C158.382 168.497 157.159 170.026 156.547 171.556Z" stroke="#292526" stroke-width="1.62" stroke-miterlimit="22.926"/>
<path d="M165.581 106.088C160.533 111.289 156.862 122.301 158.239 127.96M157.168 126.736C154.874 120.313 155.639 109.759 158.851 105.782C158.392 108.23 158.698 111.441 159.31 112.053C159.157 108.535 161.604 102.417 164.051 99.9702C163.286 101.347 163.133 103.947 163.592 105.171C164.204 102.112 166.957 97.8289 169.098 96.6053C168.487 97.8289 168.028 99.8173 168.334 100.735C169.404 98.1349 172.157 95.3817 173.687 95.0758C174.299 98.2878 171.852 102.723 168.945 103.947C170.016 104.253 172.004 103.641 172.922 102.57C172.616 105.323 167.875 110.524 164.051 112.053C164.969 112.359 167.416 111.594 169.098 110.524C168.487 113.277 164.663 117.101 161.145 118.171C162.216 118.477 164.204 118.171 165.428 117.407C161.91 123.83 158.239 123.983 158.239 129.031M141.72 139.737C154.721 145.549 169.863 157.021 171.852 162.986M168.793 155.797C165.581 149.526 158.545 141.573 155.333 139.431C156.098 141.42 156.557 144.173 156.404 145.09C155.18 141.42 149.368 136.066 144.932 134.231C146.768 136.219 148.45 139.737 148.144 140.961C145.391 136.678 139.885 132.09 136.979 131.631C138.814 133.16 140.344 135.761 140.038 136.831C137.132 133.313 131.626 129.184 128.873 128.572C131.167 130.101 131.932 131.784 132.085 133.466C129.331 129.49 122.602 129.795 117.554 129.184C121.378 131.784 123.672 135.149 129.79 135.455C128.567 136.066 125.814 136.372 124.131 136.066C127.802 138.82 135.144 141.114 138.508 140.655C137.744 141.267 134.532 141.573 132.237 141.114C135.449 143.714 143.862 146.467 149.215 146.62C147.991 147.538 144.473 147.844 142.179 147.232C146.309 150.444 154.721 153.197 159.004 152.738C158.239 153.503 155.486 153.962 153.498 153.809C161.298 159.774 167.11 157.174 173.381 166.503M169.404 147.079C172.31 142.49 174.758 126.125 180.111 117.254M168.793 145.243C166.651 139.89 166.192 132.396 167.722 130.254C167.569 131.937 168.487 134.69 169.557 135.455C168.793 130.407 169.557 122.76 171.087 120.007C170.781 123.066 171.393 125.666 172.463 126.584C171.699 123.066 173.075 116.336 175.369 113.277C174.911 114.959 175.369 118.324 175.828 119.701C175.981 115.571 178.275 108.688 180.417 105.935C179.958 107.771 179.652 110.218 179.958 110.83C181.029 106.547 184.699 101.041 187.605 99.9702C185.77 104.1 183.017 111.289 182.405 114.042C183.782 112.512 185.617 109.759 186.229 108.382C186.841 112.053 184.088 119.089 180.876 122.301C182.405 121.995 184.699 119.854 185.464 118.018C185.77 123.83 181.334 130.101 178.122 131.937C179.805 131.784 182.252 130.56 182.864 129.795C181.793 133.772 177.97 138.208 175.063 139.431C175.981 139.584 177.817 138.972 178.887 138.361C177.664 142.337 173.075 146.62 169.557 147.079M142.485 85.44C137.132 86.8166 126.272 97.676 121.072 107.159C124.437 98.4407 134.685 86.6636 141.567 83.4517M140.956 79.1691C131.473 78.2514 111.589 86.8166 101.342 96.2994C109.295 86.6636 129.331 76.8748 141.414 76.7219M142.026 74.8865C132.696 66.7801 108.683 59.5915 94 60.8151C108.683 58.062 133.308 64.18 143.25 73.204M144.626 71.8275C135.908 53.4735 117.248 23.8012 107.46 12.9417C118.778 23.3423 138.203 52.4028 146.462 70.9098M149.521 69.9921C148.756 63.8741 145.238 30.378 142.638 3C142.944 20.1304 145.391 54.0853 147.532 70.6039M187.452 96.4524C180.57 90.0285 167.11 83.2987 160.38 82.9928M160.839 81.1574C169.557 82.534 182.864 90.1814 187.452 96.6053M203.818 79.1691C192.5 73.357 170.781 72.1334 160.38 76.5689M159.463 74.7335C171.699 69.9921 193.723 72.1334 203.665 79.1691M197.853 47.6614C185.005 48.732 164.816 61.121 157.627 72.5922M155.639 70.9098C163.439 58.8267 183.782 47.3555 197.853 47.5084M136.673 121.077C144.779 123.677 154.874 129.337 156.709 132.396M180.111 170.021C179.958 164.515 182.252 153.962 184.699 148.914M157.015 133.466C153.65 134.078 146.462 132.549 143.556 130.56C145.391 130.254 148.297 129.643 149.062 129.184C144.015 129.337 136.52 127.501 134.073 125.819C135.449 125.819 137.744 125.054 138.661 124.442C134.379 125.207 127.19 122.913 124.131 119.701C125.508 120.007 128.414 120.16 129.79 119.854C125.814 119.395 120.154 114.806 118.625 110.524C123.366 113.124 128.567 112.359 133.461 118.171C133.767 117.254 132.237 114.348 130.555 112.665C134.226 113.736 140.956 118.324 143.709 121.689C144.168 120.771 142.944 118.018 141.109 116.03C144.932 117.559 152.427 125.207 156.251 131.172M180.876 169.715C183.323 167.88 186.076 162.986 186.535 159.927C185.311 160.997 183.17 162.527 182.558 162.68C185.617 159.468 188.829 153.35 188.982 150.75C188.064 151.667 186.229 152.738 185.464 152.891C188.523 150.597 191.123 144.326 190.817 140.502C190.205 141.573 188.676 143.561 187.758 144.326C189.747 141.42 189.9 134.996 188.064 131.631C186.994 136.219 183.476 139.278 184.393 145.855C183.629 145.396 182.711 142.796 182.405 140.808C180.876 143.867 180.111 150.903 180.723 154.726C179.805 154.573 178.734 151.973 178.581 149.679C177.511 153.044 177.97 162.527 179.805 168.339M146.921 157.938C149.827 157.785 151.968 159.774 151.203 161.915M142.332 159.162C142.179 163.597 147.838 160.691 147.532 165.127M138.05 162.527C137.897 166.962 143.556 164.056 143.25 168.492M134.226 166.198C134.073 170.633 139.732 167.574 139.426 172.163M131.167 169.868C130.555 173.539 133.308 176.139 136.673 175.069M162.216 187.305C163.898 187.305 165.428 186.234 165.581 185.01M159.157 188.222C160.992 185.775 163.898 183.328 165.122 183.328M179.499 327.254L184.852 330.466M164.663 326.948L173.534 324.195M174.299 324.654L167.263 333.831M176.899 326.336L181.334 336.125M175.522 325.571L173.687 338.572M124.437 326.642L133.308 326.948M136.673 331.078L138.967 340.255M135.296 329.854L131.167 339.949M124.743 334.901L134.838 329.242M161.91 322.512C155.792 322.818 155.639 332.301 161.451 332.454C156.557 335.819 161.91 345.455 168.334 339.49C167.722 347.137 177.511 347.137 177.97 340.102C181.181 345.455 188.982 340.866 185.464 335.513C190.817 336.125 191.429 328.783 187.147 327.407M123.213 320.983C117.554 320.677 115.413 329.395 121.072 331.078C115.413 332.913 117.86 344.078 125.814 339.949C122.908 347.29 132.696 350.043 135.144 343.314C136.826 349.432 145.697 347.137 143.862 340.866C148.909 343.008 152.427 335.819 148.603 333.219M143.556 329.089C147.074 331.078 148.603 333.984 146.615 335.207C145.85 335.207 144.015 334.29 142.791 333.219C140.038 333.984 135.602 331.231 133.614 327.56C132.543 325.265 129.178 323.124 126.884 323.124C122.296 322.665 121.072 318.23 124.59 314.406C127.649 309.359 128.261 296.052 125.661 287.946M145.391 327.254C150.133 329.089 150.897 333.066 147.532 333.831M147.074 325.418C151.968 327.254 153.039 331.078 149.368 332.913M140.344 285.498C140.65 288.252 138.508 298.04 136.061 304.923C134.532 308.135 136.214 313.335 139.426 315.018C142.638 317.006 147.38 321.136 148.909 322.971C151.815 323.736 154.874 325.724 154.874 326.795C154.721 328.783 152.886 329.701 151.509 329.395M171.546 281.828C172.769 288.099 171.852 301.405 169.71 308.747C168.945 311.041 170.322 313.641 172.463 314.406C176.593 316.088 181.793 320.524 183.323 323.43M178.581 318.383C182.252 317.465 186.229 318.689 186.382 320.83M180.57 320.065C184.393 319.453 188.523 321.289 188.982 323.583M158.545 280.145C162.216 289.322 155.639 298.958 160.992 306.453C162.522 309.512 162.369 314.1 161.145 317.006C158.851 321.136 161.451 324.042 166.345 322.665C168.945 322.206 171.546 322.359 173.534 324.042C176.287 326.642 180.876 328.172 183.782 326.795C187.911 328.324 191.123 326.948 190.206 323.889C187.758 323.583 184.088 322.512 182.405 321.748" stroke="#292526" stroke-width="1.62" stroke-miterlimit="22.926"/>
<path fill-rule="evenodd" clip-rule="evenodd" d="M32.2762 9L26.9561 14.3183L22.985 10.1897L22.7534 9.94884H22.4192L1.78111 9.94884H0.996109L0.996109 10.7338L0.996109 31.0032L0.996108 31.3284L1.22612 31.5583L5.37772 35.7085L1.22612 39.8587L0.996108 40.0887L0.996108 40.4139L0.996107 61.0452L0.996107 61.8302H1.78111L22.0572 61.8302H22.3823L22.6122 61.6004L26.7641 57.4498L32.5332 63.2169L26.8674 68.8808L22.985 64.8445L22.7534 64.6036H22.4192L1.78111 64.6036H0.996107L0.996107 65.3886L0.996106 85.658L0.996106 85.9855L1.22886 86.2159L5.39816 90.3429L1.22612 94.5135L0.996106 94.7435L0.996106 95.0687L0.996105 115.7L0.996105 116.485H1.7811H22.0572H22.3823L22.6122 116.255L26.8546 112.014L32.5332 117.691L26.8674 123.355L22.985 119.318L22.7534 119.077H22.4192H1.7811H0.996105L0.996105 119.862L0.996104 140.132L0.996104 140.459L1.22886 140.69L5.39816 144.817L1.22612 148.987L0.996103 149.217L0.996103 149.543L0.996102 170.174L0.996102 170.959H1.7811H22.0572H22.3823L22.6122 170.729L26.7641 166.578L32.5332 172.346L26.9562 177.921L22.985 173.792L22.7534 173.551H22.4192H1.7811H0.996102L0.996102 174.336L0.996101 194.606L0.996101 194.933L1.22886 195.164L5.39817 199.291L1.22612 203.461L0.996101 203.691L0.996101 204.016L0.9961 224.648L0.9961 225.433H1.7811H22.0572H22.3823L22.6122 225.203L26.7641 221.052L32.5332 226.819L26.9561 232.395L22.985 228.266L22.7534 228.025H22.4192H1.7811H0.9961L0.9961 228.81L0.996099 249.079L0.996099 249.407L1.22885 249.637L5.39816 253.764L1.22611 257.935L0.996099 258.165L0.996099 258.49L0.996098 278.941L0.996098 279.726H1.7811H22.0572H22.3822L22.6122 279.496L26.6736 275.436L32.5332 281.293L26.8674 286.957L22.985 282.921L22.7534 282.68H22.4192H1.7811H0.996098L0.996097 283.465L0.996097 303.734L0.996097 304.062L1.22885 304.292L5.39814 308.419L1.22611 312.59L0.996096 312.82L0.996096 313.145L0.996094 333.776V334.561H1.7811H22.0572H22.3822L22.6122 334.332L26.8546 330.09L32.5332 335.767L26.9561 341.342L22.985 337.214L22.7534 336.973H22.4192H1.78109H0.996094V337.758V358.027V358.352L1.22611 358.582L6.6572 364.012L7.76717 362.901L2.56609 357.702L2.56609 338.543H22.0851L25.8456 342.452L20.1563 348.14L18.9914 346.975L18.7531 346.737L18.4163 346.746L11.3559 346.927L10.591 346.946V347.712V354.227V354.552L10.821 354.782L20.2349 364.193L21.3449 363.082L21.2666 363.004L26.9342 357.338L30.9053 361.467L31.1369 361.708H31.4711H52.1092H52.8942V360.923V340.653V340.326L52.6615 340.096L48.0373 335.518L52.4832 331.074L52.7132 330.844V330.519V310.249V309.464H51.9282H31.6521H31.327L31.0971 309.694L26.7641 314.026L21.2666 308.53L26.9341 302.865L30.9053 306.993L31.1369 307.234H31.4711H52.1092H52.8942V306.449V286.18V285.852L52.6615 285.622L48.0373 281.044L52.4832 276.6L52.7132 276.37V276.045V255.776V254.991H51.9282H31.6521H31.327L31.0971 255.22L26.8547 259.461L21.2666 253.875L26.9342 248.21L30.9053 252.338L31.1369 252.579H31.4711H52.1092H52.8942V251.794L52.8942 231.525V231.197L52.6615 230.967L48.1283 226.48L52.4832 222.126L52.7132 221.896V221.571V201.302V200.517H51.9282H31.6521H31.327L31.0971 200.747L26.8547 204.988L21.2666 199.401L26.9342 193.736L30.9053 197.864L31.1369 198.105H31.4711H52.1092H52.8942V197.32V177.051V176.723L52.6615 176.493L48.0374 171.916L52.4832 167.471L52.7132 167.242V166.916V146.647V145.862H51.9282H31.6521H31.327L31.0971 146.092L26.7641 150.423L21.2666 144.928L26.9342 139.262L30.9053 143.391L31.1369 143.631H31.4711H52.1092H52.8942V142.846V122.577V122.25L52.6615 122.019L48.0374 117.442L52.4832 112.998L52.7132 112.768V112.442L52.7132 92.1731V91.3881H51.9282H31.6521H31.327L31.0971 91.618L26.7641 95.9495L21.2666 90.4538L26.9342 84.7882L30.9053 88.9168L31.1369 89.1576H31.4711H52.1092H52.8942V88.3726V68.1033V67.7758L52.6615 67.5454L48.1283 63.0582L52.4832 58.7048L52.7132 58.4748V58.1496V37.6993V36.9143H51.9282H31.6521H31.327L31.0971 37.1441L26.8546 41.3852L21.2666 35.799L26.9342 30.1334L30.9053 34.262L31.1369 34.5028H31.4711H52.1092H52.8942V33.7178V13.4485V13.121L52.6615 12.8906L48.7311 9H46.4994L51.3242 13.776V32.9328H31.8052L28.0447 29.0232L33.553 23.5168L34.8989 24.8622L35.1372 25.1004L35.474 25.0918L42.5344 24.9108L43.2993 24.8912V24.1261L43.2993 17.6109V17.2857L43.0693 17.0558L35.0108 9H32.2762ZM35.7706 23.5137L34.6633 22.4068L40.4324 16.6397L41.7293 17.9362V23.3609L35.7706 23.5137ZM33.6435 9.85307L39.322 15.5297L20.1563 34.6891L14.4778 29.0124L33.6435 9.85307ZM19.1365 22.1353L13.3674 27.9024L12.161 26.6965V21.2717L18.1197 21.1189L19.1365 22.1353ZM25.8456 15.4284L20.2468 21.0254L18.9914 19.7704L18.7532 19.5322L18.4163 19.5408L11.3559 19.7218L10.591 19.7414V20.5065V27.0217V27.3469L10.8211 27.5769L25.7443 42.4951L20.0658 48.1718L2.56611 30.6779L2.56611 11.5188L22.0851 11.5188L25.8456 15.4284ZM13.2554 43.5836L18.9554 49.2818L17.7493 50.4875H11.98V44.7428L13.2554 43.5836ZM6.48806 36.8185L12.1438 42.4724L10.667 43.8145L10.41 44.0481V44.3954V51.2725V52.0575H11.195H18.0744H18.3995L18.6294 51.8277L31.9772 38.4843H51.1432V57.8244L47.0125 61.9537L41.397 56.395L43.2503 54.5423L43.4803 54.3124V53.9871V47.472V46.687H42.6953H35.6349H35.3098L35.0799 46.9168L21.7321 60.2602L2.56611 60.2602L2.56611 40.7391L6.48806 36.8185ZM41.9103 53.6619L40.2812 55.2905L34.5747 49.6419L35.96 48.257H41.9103V53.6619ZM27.8745 56.3398L33.4643 50.7518L51.3242 68.4308V87.5876H31.8052L28.0447 83.678L33.6435 78.0811L34.8989 79.336L35.1372 79.5742L35.474 79.5656L42.5344 79.3846L43.2993 79.3651V78.5999V72.0847V71.7595L43.0693 71.5296L27.8745 56.3398ZM35.7706 77.9875L34.7539 76.9711L40.5229 71.204L41.7293 72.41V77.8348L35.7706 77.9875ZM33.6435 64.3269L39.4126 70.094L20.1563 89.3439L14.3873 83.5767L33.6435 64.3269ZM19.046 76.6996L13.2769 82.4668L12.161 81.3513V75.9265L18.1198 75.7738L19.046 76.6996ZM25.7569 69.991L20.1563 75.5897L18.9914 74.4252L18.7531 74.187L18.4163 74.1956L11.3559 74.3766L10.591 74.3962V75.1613V81.6765V82.0017L10.8211 82.2317L25.6538 97.0595L20.0622 102.649L2.56611 85.3305L2.56611 66.1736L22.0851 66.1736L25.7569 69.991ZM13.2222 98.0877L18.9518 103.759L17.7493 104.961H11.98V99.2166L13.2222 98.0877ZM6.51397 91.4474L12.1048 96.9816L10.667 98.2883L10.41 98.5219V98.8692V105.746V106.531H11.195H18.0744H18.3995L18.6294 106.302L31.9772 92.9581H51.1432L51.1432 112.117L46.9215 116.337L41.4879 110.959L43.2503 109.197L43.4803 108.967V108.642V102.127V101.342H42.6953H35.6349H35.3098L35.0799 101.572L21.7321 114.915H2.5661L2.56611 95.394L6.51397 91.4474ZM41.9103 108.317L40.3721 109.854L34.6656 104.206L35.96 102.912H41.9103V108.317ZM27.965 110.904L33.5553 105.316L51.3242 122.905V142.061H31.8052L28.0447 138.152L33.6435 132.555L34.8989 133.81L35.1372 134.048L35.474 134.039L42.5344 133.858L43.2993 133.839V133.074V126.559V126.233L43.0693 126.003L27.965 110.904ZM35.7706 132.461L34.7538 131.445L40.5229 125.678L41.7293 126.884V132.309L35.7706 132.461ZM33.6435 118.801L39.4125 124.568L20.1563 143.818L14.3873 138.051L33.6435 118.801ZM19.046 131.173L13.2769 136.941L12.161 135.825V130.4L18.1198 130.248L19.046 131.173ZM25.7569 124.465L20.1563 130.064L18.9914 128.899L18.7532 128.661L18.4163 128.669L11.3559 128.85L10.591 128.87V129.635V136.15V136.476L10.8211 136.706L25.6538 151.533L20.0622 157.123L2.5661 139.804L2.5661 120.647H22.0851L25.7569 124.465ZM13.2222 152.562L18.9518 158.233L17.7493 159.435H11.98V153.69L13.2222 152.562ZM6.51396 145.921L12.1048 151.455L10.667 152.762L10.41 152.996V153.343V160.22V161.005H11.195H18.0744H18.3995L18.6294 160.775L31.9772 147.432H51.1432V166.591L46.9215 170.811L41.4879 165.433L43.2503 163.671L43.4803 163.441V163.116V156.601V155.816H42.6953H35.6349H35.3098L35.0799 156.045L21.7321 169.389H2.5661L2.5661 149.868L6.51396 145.921ZM41.9103 162.791L40.3721 164.328L34.6656 158.68L35.96 157.386H41.9103V162.791ZM27.8745 165.468L33.5553 159.79L51.3242 177.378V196.535H31.8052L28.0447 192.626L33.553 187.119L34.8989 188.465L35.1372 188.703L35.474 188.694L42.5344 188.513L43.2993 188.494V187.729V181.213V180.888L43.0693 180.658L27.8745 165.468ZM35.7706 187.116L34.6633 186.009L40.4324 180.242L41.7293 181.539V186.963L35.7706 187.116ZM33.6435 173.456L39.322 179.132L20.1563 198.292L14.4778 192.615L33.6435 173.456ZM19.1365 185.738L13.3674 191.505L12.161 190.299V184.874L18.1198 184.721L19.1365 185.738ZM25.8456 179.031L20.2468 184.628L18.9914 183.373L18.7531 183.135L18.4163 183.143L11.3559 183.324L10.591 183.344V184.109V190.624V190.949L10.821 191.179L25.7443 206.098L20.1531 211.687L2.5661 194.278L2.5661 175.121H22.0851L25.8456 179.031ZM13.3175 207.13L19.0428 212.797L17.7493 214.09H11.98V208.345L13.3175 207.13ZM6.51397 200.395L12.2002 206.024L10.667 207.417L10.41 207.651V207.998V214.875V215.66H11.195H18.0744H18.3995L18.6294 215.43L31.9772 202.087H51.1432V221.246L47.0125 225.375L41.4879 219.907L43.2503 218.145L43.4803 217.915V217.59V211.074V210.289H42.6953H35.6349H35.3098L35.0799 210.519L21.7321 223.863H2.5661L2.5661 204.342L6.51397 200.395ZM41.9103 217.264L40.3721 218.802L34.6656 213.153L35.96 211.859H41.9103V217.264ZM27.8745 219.942L33.5553 214.263L51.3242 231.852L51.3242 251.009H31.8052L28.0447 247.1L33.553 241.593L34.8989 242.939L35.1372 243.177L35.474 243.168L42.5344 242.987L43.2993 242.967V242.202V235.687V235.362L43.0693 235.132L27.8745 219.942ZM35.7706 241.59L34.6633 240.483L40.4324 234.716L41.7293 236.012V241.437L35.7706 241.59ZM33.6435 227.929L39.322 233.606L20.1563 252.765L14.4778 247.089L33.6435 227.929ZM19.1365 240.212L13.3674 245.979L12.161 244.773V239.348L18.1197 239.195L19.1365 240.212ZM25.8456 233.505L20.2468 239.102L18.9914 237.847L18.7531 237.609L18.4163 237.617L11.3559 237.798L10.591 237.818V238.583V245.098V245.423L10.821 245.653L25.7443 260.571L20.1531 266.161L2.5661 248.752L2.5661 229.595H22.0851L25.8456 233.505ZM13.3175 261.604L19.0428 267.271L17.7493 268.564H11.98V262.819L13.3175 261.604ZM6.51397 254.869L12.2001 260.497L10.667 261.891L10.41 262.124V262.472V269.349V270.134H11.195H18.0744H18.3995L18.6294 269.904L31.9772 256.561H51.1432V275.72L46.9215 279.94L41.306 274.381L43.2503 272.438L43.4803 272.208V271.882V265.367V264.582H42.6953H35.6349H35.3098L35.0799 264.812L21.7321 278.156H2.5661L2.5661 258.815L6.51397 254.869ZM41.9103 271.557L40.1902 273.277L34.4837 267.628L35.96 266.152H41.9103V271.557ZM27.7839 274.326L33.3733 268.738L51.3242 286.507V305.664H31.8052L28.0447 301.754L33.6435 296.157L34.8989 297.412L35.1372 297.651L35.474 297.642L42.5344 297.461L43.2993 297.441V296.676V290.161V289.836L43.0693 289.606L27.7839 274.326ZM35.7706 296.064L34.7538 295.047L40.5229 289.28L41.7293 290.486V295.911L35.7706 296.064ZM33.6435 282.403L39.4125 288.17L20.1563 307.42L14.3872 301.653L33.6435 282.403ZM19.0459 294.776L13.2769 300.543L12.161 299.428V294.003L18.1197 293.85L19.0459 294.776ZM25.7569 288.067L20.1563 293.666L18.9914 292.502L18.7531 292.263L18.4163 292.272L11.3559 292.453L10.591 292.473V293.238V299.753V300.078L10.821 300.308L25.6537 315.136L20.0622 320.726L2.5661 303.407L2.5661 284.25H22.0851L25.7569 288.067ZM13.2222 316.164L18.9518 321.836L17.7493 323.038H11.98V317.293L13.2222 316.164ZM6.51395 309.524L12.1048 315.058L10.667 316.365L10.41 316.598V316.946V323.823V324.608H11.195H18.0744H18.3995L18.6294 324.378L31.9772 311.034H51.1432V330.194L46.9215 334.414L41.4879 329.035L43.2503 327.273L43.4803 327.044V326.718L43.4803 320.203V319.418H42.6953H35.6349H35.3098L35.0799 319.648L21.7321 332.991H2.56609L2.5661 313.47L6.51395 309.524ZM41.9103 326.393L40.3721 327.931L34.6656 322.282L35.96 320.988H41.9103L41.9103 326.393ZM27.9649 328.98L33.5553 323.392L51.3242 340.981V360.138H31.8052L28.0447 356.228L33.6435 350.631L34.8989 351.886L35.1372 352.124L35.474 352.116L42.5344 351.935L43.2993 351.915V351.15V344.635V344.31L43.0693 344.08L27.9649 328.98ZM35.7706 350.538L34.7538 349.521L40.5229 343.754L41.7293 344.96L41.7293 350.385L35.7706 350.538ZM33.6435 336.877L39.4126 342.644L20.1563 361.894L14.3873 356.127L33.6435 336.877ZM19.046 349.25L13.2769 355.017L12.161 353.901V348.477L18.1197 348.324L19.046 349.25Z" fill="#C5D92D"/>
</svg>
