<svg width="42" height="30" viewBox="0 0 42 30" fill="none" xmlns="http://www.w3.org/2000/svg">
<circle cx="12" cy="8" r="6.5" stroke="#6442EE" stroke-width="3"/>
<circle cx="31.5" cy="11.5" r="5" stroke="#6442EE" stroke-width="3"/>
<path d="M7.02494 15.0516L7.0246 15.052L7.02494 15.0516ZM22.4741 28.5H1.52588C1.77827 23.8577 3.85919 19.7418 7.0097 16.9158C8.44912 17.8631 10.1612 18.4163 12 18.4163C13.839 18.4163 15.5509 17.8631 16.9903 16.9158C20.1408 19.7418 22.2217 23.8577 22.4741 28.5Z" stroke="#6442EE" stroke-width="3"/>
<path d="M26.0777 30C26.0777 30 26.0698 29.912 26.0726 30H41.9931C41.9977 29.8552 42 29.7098 42 29.5639C42 29.418 41.9977 29.2726 41.9931 29.1277C41.9673 28.3086 41.869 27.5066 41.7041 26.7273C40.9513 23.1694 38.8097 20.0851 35.836 18C34.6318 18.9567 33.0776 19.533 31.381 19.533C29.7089 19.533 28.1752 18.9732 26.9785 18.0413L26.926 18C25.8279 18.77 24.8432 19.6763 24 20.6924C24.5866 21.8157 25.0606 23.0104 25.4063 24.2605C25.9015 23.4206 26.5135 22.6414 27.2278 21.9424C28.5032 22.5001 29.9116 22.8057 31.381 22.8057C32.8504 22.8057 34.2588 22.5001 35.5343 21.9424C36.908 23.2869 37.9035 24.9278 38.4174 26.7273H25.9089C25.9927 27.3566 26.0448 27.9963 26.0636 28.6446C26.0689 28.8257 26.0715 29.0076 26.0715 29.19C26.0715 29.3725 26.0689 29.5543 26.0636 29.7355L26.0777 30Z" fill="#6442EE"/>
</svg>
