<svg width="412" height="360" viewBox="0 0 412 360" fill="none" xmlns="http://www.w3.org/2000/svg">
<path fill-rule="evenodd" clip-rule="evenodd" d="M164 353.66V303.523C100.116 297.953 50 244.329 50 179C50 113.671 100.116 60.0472 164 54.4773V4.34009C72.4747 10.0167 2.34254e-05 86.0447 1.5299e-05 179C7.17257e-06 271.955 72.4746 347.983 164 353.66Z" fill="#6442EE"/>
<path d="M266.906 102.351C267.627 100.908 271.956 100.007 275.382 100.548M265.103 114.975C264.562 108.483 263.84 101.089 263.66 100.187C265.824 95.3178 273.579 94.2357 278.989 97.8425M245.806 101.81C249.593 97.4818 256.987 96.9408 260.775 100.728C260.955 103.613 261.496 112.27 261.676 117.86C261.676 119.123 263.66 119.303 265.463 118.041M248.872 103.613C251.577 100.908 257.168 100.908 260.414 103.253M267.447 107.401C269.611 109.745 274.841 109.024 276.825 106.499M249.413 108.843C251.577 111.188 256.807 110.466 258.791 107.942M265.824 106.679C267.988 102.892 273.398 101.99 277.366 104.335M259.332 105.777C255.364 103.433 249.954 104.335 247.79 108.122C246.888 112.45 251.397 123.631 256.446 130.484C260.234 136.075 268.349 136.796 272.857 131.927M303.876 190.718C314.335 184.225 325.336 177.733 325.697 177.913M316.68 162.765C309.466 166.191 299.548 172.323 296.843 174.667C298.646 178.274 302.613 183.865 304.777 185.848C307.302 184.045 316.86 178.454 324.074 174.667M293.055 210.375C292.875 202.981 295.4 189.816 297.925 183.865M323.533 274.395C326.058 271.87 328.222 275.117 331.287 274.035M296.121 231.835C297.023 236.704 315.598 259.066 333.452 276.379C331.648 279.445 327.861 275.297 325.517 276.74M287.104 229.491C287.104 230.212 287.465 231.294 287.645 231.835M285.842 216.326C283.678 211.998 285.301 207.85 289.088 208.03C292.695 208.211 295.039 212.178 293.777 217.228M295.4 226.425C289.449 224.982 281.694 226.064 279.891 228.589C279.35 229.491 279.891 230.573 280.973 230.753C282.956 229.851 288.547 229.31 292.334 229.671C297.564 233.278 306.761 235.803 310.729 234.901M278.809 227.507C278.087 227.146 277.907 226.064 278.448 225.343C280.612 222.277 289.268 221.195 295.76 223.179M278.087 224.08C277.185 223.72 277.005 222.457 277.907 221.375C281.514 218.49 290.17 217.949 295.4 220.113M306.581 218.31C311.811 218.67 317.582 223.72 318.123 228.409M306.22 219.572C310.368 221.195 314.696 227.507 314.516 232.015M278.087 219.211C280.612 216.326 288.727 215.424 294.498 217.408C295.76 217.047 301.531 218.67 306.22 220.834C309.827 223.539 311.991 230.753 310.548 235.081C315.237 233.999 327.14 217.949 334.714 203.341C332.55 181.881 308.204 145.633 286.022 131.205M310.548 176.831C311.089 177.192 311.811 177.012 311.991 176.29C312.171 174.848 310.368 173.946 309.106 175.208C307.663 177.012 308.745 179.176 311.089 179.356C313.434 179.536 315.418 176.831 314.155 174.126C313.253 172.143 309.647 169.978 305.499 170.88M319.024 172.143C319.205 172.864 318.664 173.405 317.942 173.405C316.5 173.044 316.319 171.061 317.942 170.339C320.106 169.618 321.729 171.421 321.188 173.766C320.467 175.93 317.401 176.831 315.237 174.667C313.794 173.044 313.073 168.896 315.418 165.47M244.544 191.619C244.905 190.357 244.003 189.455 242.56 189.455C240.216 189.996 239.675 193.603 242.56 195.046C246.528 196.308 249.233 193.062 248.151 189.094C246.888 185.127 241.298 183.684 237.511 187.471C236.248 188.734 234.986 191.078 234.806 193.783M306.581 179.176C306.761 179.897 306.22 180.438 305.499 180.438C304.056 180.078 303.876 178.094 305.499 177.372C307.663 176.651 309.286 178.454 308.745 180.799C308.024 182.963 304.958 183.865 302.794 181.701C301.351 180.078 300.63 175.93 302.974 172.503M262.398 123.451C262.939 123.811 264.562 123.811 265.463 123.27M261.316 127.599C262.217 128.32 265.283 128.14 267.627 127.238M259.332 125.074C260.594 126.517 265.463 126.156 268.89 124.172M262.217 146.534C267.447 148.157 277.185 147.977 281.514 146.174M258.791 142.206C267.447 144.37 278.809 144.37 281.514 142.206M280.973 133.189C281.874 140.583 281.514 154.469 280.251 160.961C282.956 160.06 288.186 159.699 290.35 160.06M277.005 129.582C278.809 135.353 287.104 133.55 286.563 128.5M278.989 143.108C279.169 141.304 278.268 136.616 277.185 133.73C276.644 131.386 276.825 128.14 277.546 125.615C279.169 122.729 280.612 116.057 280.792 113.893C283.858 115.155 286.202 105.056 282.055 105.958C283.678 101.63 283.317 94.9571 281.333 92.4323M273.759 279.805C277.185 285.035 284.038 279.445 281.153 275.658M223.083 232.556C228.674 231.474 236.789 232.737 239.314 234.72M315.237 281.248C319.205 283.052 323.894 280.346 324.795 275.658M317.582 285.216C321.91 286.839 326.599 283.412 326.779 278.363C311.089 259.968 302.072 248.426 299.187 243.557M204.328 328.678C215.69 333.547 234.986 332.645 242.921 326.874M202.885 324.71C214.608 329.579 235.347 328.858 243.462 322.907M202.525 308.299C213.886 313.168 233.183 312.267 240.937 306.496M205.951 298.561C212.443 303.61 228.133 303.43 237.691 298.2M208.476 294.954C213.345 299.463 226.69 299.282 235.166 294.413M246.528 341.662C242.921 343.285 239.134 345.449 236.97 346.892C235.888 347.433 231.74 349.777 228.854 351.04C237.33 350.859 244.905 351.941 247.97 349.958C251.577 348.154 256.987 348.695 260.955 350.138C265.463 351.22 268.168 348.335 265.824 345.269C264.381 342.383 265.283 337.514 266.545 336.432M292.154 338.055C287.645 339.318 279.35 342.924 275.743 345.449C274.661 345.99 270.693 347.974 267.627 349.236C276.103 350.318 285.481 349.958 286.563 348.695C289.088 347.433 295.58 347.433 299.548 348.876C304.056 349.958 306.22 347.974 303.876 344.908C302.433 342.023 302.072 337.875 303.335 336.793M282.956 327.596C278.087 326.153 276.825 321.644 278.087 317.857C279.35 313.89 284.038 311.185 288.727 313.89M247.79 335.711C260.775 330.301 273.939 328.858 274.12 332.825C273.759 335.35 277.907 335.35 282.235 332.465C284.94 329.76 292.154 329.76 291.973 331.924C291.793 334.268 296.662 333.547 303.335 330.481C308.024 328.317 315.418 326.513 318.123 326.874M257.709 232.556C251.036 242.475 246.528 280.346 248.692 308.48C250.134 320.202 248.872 336.973 245.987 342.023C257.709 336.071 269.792 334.268 270.152 338.236C270.874 340.941 277.366 340.4 282.596 336.793C286.743 334.629 290.711 334.629 290.531 337.154C290.35 339.137 298.466 338.596 306.401 335.711C312.171 333.006 319.385 331.563 321.008 332.645C314.696 319.661 307.663 296.577 306.04 283.773C305.86 282.691 305.86 281.068 305.679 280.166M227.231 197.21C231.559 196.308 241.117 199.194 246.347 202.8M228.133 193.242C233.904 193.062 243.642 196.128 247.61 199.374M231.559 177.553C238.953 178.274 249.233 183.324 252.118 187.652M232.281 174.126C239.134 173.946 250.134 178.815 254.282 183.684M254.282 138.239C254.643 138.419 255.184 138.78 255.364 139.14C263.119 144.911 271.595 161.863 272.497 174.307M303.515 146.354C287.645 153.207 277.005 188.553 282.055 216.867M285.842 131.025C286.563 133.55 286.383 145.452 285.661 154.469C288.547 154.289 292.875 154.289 293.957 154.289M249.774 135.353C251.577 136.075 253.02 134.271 251.938 132.287C250.315 129.763 246.528 130.664 245.806 133.55C244.905 136.796 247.429 139.681 250.676 139.501C253.02 139.501 255.364 137.698 256.086 135.714C256.987 133.73 256.627 132.107 256.627 130.664M285.481 124.533C283.497 125.074 282.415 123.27 283.137 121.287C284.76 118.762 288.547 119.664 289.449 122.729C290.35 126.156 288.006 128.861 284.399 128.861C280.973 128.861 278.628 127.238 278.268 123.451M246.347 126.517C248.151 127.418 249.413 125.254 248.511 123.451C246.888 121.106 243.282 121.828 242.56 124.893C241.659 128.14 244.544 131.025 247.429 130.845C249.774 130.664 251.938 129.222 252.479 127.058M263.66 10.1973C264.562 17.0502 266.004 46.085 266.185 68.2668M260.955 10.1973C260.234 16.8699 260.053 45.544 260.414 67.5454M284.038 81.7923C286.924 78.0051 288.547 71.5129 288.547 67.5454C288.547 64.2993 285.661 64.119 282.415 67.3651C281.514 68.2668 280.432 69.5292 279.71 70.6112C277.726 73.3163 274.841 75.8411 272.497 77.8248C269.611 80.1692 266.545 81.0709 264.742 80.8906M245.446 83.235C242.56 79.4479 239.675 71.6932 239.855 67.7258C239.855 65.742 241.298 64.8403 242.741 65.201C243.823 65.3813 244.905 66.283 246.167 67.5454C246.888 68.6275 247.79 69.5292 248.692 70.6112C250.856 73.3163 253.02 76.0214 255.184 77.8248C258.069 80.1692 260.414 80.8906 262.578 80.7102M288.006 82.5136C294.859 72.9556 299.548 59.6105 295.76 54.0199C292.154 47.5277 282.776 52.0362 277.366 59.9711C273.398 65.5617 268.349 68.8078 263.84 68.6275M241.839 85.2187C234.986 75.6607 230.477 60.3318 234.265 54.7413C237.871 48.249 247.069 50.7738 251.938 59.0694C255.364 65.0207 259.151 68.0864 263.66 68.6275M280.071 90.9896C274.12 83.9563 257.709 84.858 247.429 92.6127C244.724 94.2357 243.823 98.9246 245.626 101.99C245.987 103.253 247.069 106.499 247.61 108.302M245.806 114.975C244.905 119.123 247.249 123.451 250.315 123.451M242.921 103.433C240.576 107.761 242.741 113.893 247.249 115.516M244.364 105.056C236.429 97.8425 236.068 87.0221 244.183 83.776C251.217 80.7102 272.136 79.8085 286.202 81.9726C293.236 83.776 289.268 93.875 283.317 90.6289M243.101 51.4952C251.217 -4.95121 273.579 -3.68883 284.219 53.1182M306.04 220.834C306.942 214.342 310.548 202.8 313.253 197.57C305.319 193.964 294.678 181.701 291.973 173.225C297.203 169.077 308.384 162.404 314.155 159.699M240.576 149.78C255.545 150.321 267.267 191.259 263.84 231.655M222.903 237.245C225.428 190.718 238.593 141.845 249.052 139.501M238.773 239.409C239.855 222.457 248.331 193.062 255.905 180.619M223.985 238.327C222.362 237.606 222.723 236.704 224.707 236.524C229.395 236.163 235.707 237.065 237.15 238.147C239.134 239.049 239.134 240.311 237.15 240.672M235.707 253.837C236.068 255.279 235.888 257.984 235.166 259.247M223.625 262.493C219.477 257.443 218.755 247.164 222.182 241.934C223.444 239.95 224.707 237.426 224.526 236.704M225.608 265.018C222.542 263.575 221.641 255.099 223.625 248.967M228.494 269.346C224.526 266.28 224.346 256.542 228.133 250.23M230.117 272.772C226.69 268.985 227.592 258.345 231.74 251.492M235.888 262.312C239.314 260.509 241.298 251.492 239.134 245.902C237.511 242.655 236.429 238.688 236.789 237.967M236.429 249.148C236.97 252.033 235.347 254.558 234.625 255.46C233.002 257.443 231.199 261.23 231.199 263.575C231.199 270.067 229.576 278.543 227.412 280.887C226.149 274.756 224.346 270.788 223.444 268.264C222.362 266.1 222.001 263.575 223.264 262.312M310.368 291.347C314.696 289.724 317.762 285.757 316.5 283.593M288.727 236.163C255.004 243.737 247.069 227.327 248.872 196.308C248.692 225.884 261.316 239.229 287.465 231.474C287.826 233.819 298.646 265.018 312.532 296.216C316.139 294.052 319.385 289.544 318.844 287.199C308.565 270.788 295.039 245.721 291.793 236.885M220.919 256.722C220.378 256.902 219.837 257.263 219.116 258.345C216.411 253.295 209.017 247.525 204.508 246.803C203.787 248.607 202.164 250.23 200 252.394C216.411 255.82 220.559 276.92 208.296 294.593C196.934 312.267 200.541 334.809 215.69 339.498C214.968 341.301 213.345 343.285 211.902 344.728C215.87 346.712 227.051 346.892 233.363 344.187C231.74 342.564 230.297 339.859 230.477 338.957C245.265 337.154 247.79 315.332 235.527 295.315C233.543 292.61 231.199 288.281 231.018 286.658C236.248 277.641 237.691 261.952 233.363 256.542M262.398 10.017C264.922 10.017 266.906 8.03326 266.906 5.5085C266.906 2.98374 264.922 1 262.398 1C259.873 1 257.889 2.98374 257.889 5.5085C257.889 8.03326 260.053 10.017 262.398 10.017Z" stroke="#292526" stroke-width="1.62" stroke-miterlimit="22.926"/>
<path fill-rule="evenodd" clip-rule="evenodd" d="M254.464 104.695C255.907 108.482 250.316 109.204 250.496 105.597C251.398 105.236 253.021 104.876 254.464 104.695Z" fill="#292526"/>
<path d="M254.464 104.695C255.907 108.482 250.316 109.204 250.496 105.597C251.398 105.236 253.021 104.876 254.464 104.695Z" stroke="#292526" stroke-width="1.62" stroke-miterlimit="22.926"/>
<path fill-rule="evenodd" clip-rule="evenodd" d="M272.503 103.25C273.946 107.037 268.355 107.758 268.536 104.152C269.437 103.791 271.06 103.25 272.503 103.25Z" fill="#292526"/>
<path d="M272.503 103.25C273.946 107.037 268.355 107.758 268.536 104.152C269.437 103.791 271.06 103.25 272.503 103.25Z" stroke="#292526" stroke-width="1.62" stroke-miterlimit="22.926"/>
<path d="M296.663 280.705C297.384 283.41 301.171 284.673 304.237 283.41C300.27 282.509 298.286 277.82 297.565 274.033M262.579 276.918C264.562 279.623 268.169 279.263 270.153 275.836M271.596 263.032C258.431 265.557 260.234 280.705 256.627 283.05C261.136 283.05 264.202 279.984 262.759 276.918M271.055 248.965C271.055 254.015 264.743 256.54 262.038 252.753C264.021 256.9 259.873 261.048 253.742 261.048C258.791 257.802 255.004 242.473 269.251 242.473M272.317 277.098C269.071 282.869 277.727 289.181 283.137 282.509M295.941 284.673C287.826 287.378 288.187 302.707 298.286 301.264M296.663 288.46C307.844 289.001 310.549 302.346 301.352 307.215M307.844 311.002C314.336 314.97 313.074 324.347 306.762 326.512M250.676 308.297C255.545 314.97 266.005 308.117 260.956 300.903M275.022 299.461C282.596 298.739 286.203 308.117 280.613 312.265M208.296 330.299C208.477 331.561 209.559 333.905 210.28 334.807M212.805 331.2C212.985 332.823 213.706 334.807 214.067 335.168M217.133 331.741C217.133 333.004 217.674 334.807 217.854 335.348M238.593 329.036C238.233 330.84 237.511 333.004 237.151 333.364M234.265 330.659C234.265 331.741 233.724 333.545 233.364 334.447M230.298 331.2C230.478 332.282 230.117 334.086 229.757 334.807M225.97 331.922C226.15 332.823 226.15 334.447 225.97 335.168M221.461 331.922C221.461 332.643 221.461 334.266 221.822 335.168M201.984 311.543C214.789 316.954 234.806 316.232 242.02 309.92M214.969 307.576C215.51 309.199 217.133 310.461 219.117 310.461C222.002 310.642 224.166 308.478 223.625 305.772C222.723 302.887 218.756 302.707 218.215 305.231C217.674 307.215 219.658 308.478 221.1 307.396C221.641 306.855 221.641 305.953 221.1 305.592M251.939 275.295C248.692 272.77 247.971 267.54 251.398 264.655C255.365 261.77 260.415 265.917 258.611 269.704C257.168 272.77 253.381 272.41 252.66 269.524C252.48 268.262 253.381 266.999 254.644 267.36M282.777 246.08C284.941 244.457 285.301 240.85 283.137 239.047C280.432 237.243 277.186 239.948 278.268 242.473C279.17 244.457 281.695 244.277 282.236 242.293C282.416 241.391 281.695 240.67 280.973 240.85M292.515 246.982C291.794 246.26 290.531 245.719 289.63 245.359C286.383 244.277 282.416 245.178 280.613 248.424C278.448 253.294 283.859 257.802 287.465 255.277C290.351 253.113 289.269 249.146 286.023 248.965C284.58 249.146 283.498 250.228 284.039 251.49M292.335 269.344C289.089 272.229 283.137 271.869 280.793 267.721C278.629 262.852 284.039 258.343 287.646 260.868C290.531 263.032 289.449 266.999 286.203 267.18C284.76 266.999 283.678 265.917 284.219 264.655M260.595 327.413C258.07 329.577 253.742 329.397 252.119 326.151C250.496 322.544 254.463 319.118 257.168 321.101C259.332 322.724 258.431 325.61 256.086 325.79C255.004 325.79 254.283 324.708 254.644 323.987M261.316 315.871C259.693 318.036 259.693 324.347 262.579 326.512C264.382 328.135 267.628 327.954 268.89 325.61C270.153 322.905 267.087 320.38 265.103 321.823C263.48 323.085 264.021 325.249 265.825 325.249C266.546 325.249 267.267 324.528 266.907 323.806M266.185 307.756C264.562 309.92 264.562 316.232 267.448 318.396C269.251 320.019 272.497 319.839 273.76 317.495C275.022 314.789 271.956 312.265 269.973 313.707C268.349 314.97 268.89 317.134 270.694 317.134C271.415 317.134 272.137 316.413 271.776 315.691M251.758 300.002C254.463 300.002 259.332 295.854 259.152 292.247C259.152 289.722 256.988 287.378 254.283 287.919C251.398 288.64 251.397 292.608 253.922 293.329C255.906 293.87 257.168 291.886 256.086 290.444C255.545 289.903 254.644 289.903 254.283 290.444M262.038 286.656C260.414 288.821 260.775 295.132 263.841 297.297C265.825 298.739 268.89 298.559 270.153 296.034C271.235 293.329 268.169 290.985 266.185 292.427C264.562 293.69 265.284 295.854 267.087 295.854C267.808 295.673 268.349 294.952 268.169 294.411M261.677 262.311C266.726 263.393 275.924 258.704 276.284 250.408C276.645 245.359 272.858 242.293 268.349 242.654C263.48 243.375 262.759 250.047 266.726 251.49C269.973 252.572 272.317 249.687 270.874 247.162C269.973 246.08 268.53 245.9 267.989 246.982M286.023 287.017C283.678 291.706 285.662 301.625 293.597 304.33C298.466 305.953 302.434 303.248 303.335 298.739C303.876 293.87 297.745 291.345 295.22 294.772C293.236 297.477 295.4 300.723 298.286 299.821C299.548 299.28 300.089 297.838 299.188 296.936M294.859 268.803C297.925 271.147 299.368 279.443 295.04 282.689C292.695 284.673 288.908 284.853 286.924 281.968C284.941 278.721 288.367 275.115 291.072 276.738C293.236 278 292.876 280.705 290.531 281.246C289.449 281.246 288.728 280.525 288.908 279.623M278.268 263.393C274.842 261.409 266.726 263.393 265.464 268.622C264.562 271.508 266.005 275.115 269.251 275.836C272.858 276.377 275.022 271.869 272.497 269.885C270.514 268.442 268.169 269.885 268.53 272.049C268.89 272.951 269.973 273.492 270.514 272.77M270.694 285.033C269.612 287.738 271.776 294.231 275.563 295.673C278.088 296.755 281.334 295.493 281.875 292.608C282.236 289.362 278.268 287.738 276.645 290.083C275.383 291.886 276.825 293.87 278.629 293.329C279.531 292.968 279.711 292.067 279.35 291.526M298.106 304.51C295.22 307.396 294.138 317.495 298.106 321.462C300.63 324.167 305.68 324.528 308.024 321.101C310.369 317.134 306.04 312.806 302.794 314.789C300.089 316.413 300.811 319.839 303.516 320.2C304.778 320.2 305.68 319.298 305.319 318.216M293.056 311.002C295.22 313.347 296.122 320.921 292.876 323.987C290.892 326.151 287.105 326.331 285.121 323.626C283.318 320.56 286.564 317.134 289.269 318.757C291.253 320.019 290.892 322.724 288.728 323.085C287.826 323.085 286.924 322.364 287.285 321.462M269.792 298.739C268.169 300.903 268.169 307.215 271.055 309.379C272.858 311.002 276.104 310.822 277.366 308.478C278.629 305.772 275.563 303.248 273.579 304.69C271.956 305.953 272.497 308.117 274.301 308.117C275.022 308.117 275.743 307.396 275.383 306.674M223.625 305.953C224.166 304.33 225.789 303.067 227.773 303.067C230.658 302.887 232.642 304.871 232.101 307.576C231.199 310.281 227.412 310.461 226.871 308.117C226.33 306.133 228.314 304.871 229.757 305.953C230.298 306.494 230.298 307.396 229.757 307.756M231.019 303.608C231.56 302.166 233.003 301.264 234.626 301.264C237.331 301.084 239.134 303.067 238.774 305.412C237.872 307.937 234.446 308.117 233.724 305.772C233.364 303.969 234.987 302.707 236.429 303.789C236.97 304.33 236.97 305.051 236.429 305.412M205.952 303.608C205.05 306.674 207.214 309.56 210.46 309.56C213.526 309.74 215.871 307.576 215.33 304.51C214.247 301.444 210.1 301.264 209.378 303.969C208.837 306.133 210.821 307.576 212.444 306.314C213.165 305.772 213.165 304.69 212.444 304.33M233.544 177.911C236.97 179.535 238.954 184.404 237.331 187.83M232.281 181.158C235.347 183.141 235.888 188.011 233.364 190.896M238.413 194.863C238.052 188.912 243.282 186.568 245.627 189.634M270.153 147.434C270.333 149.778 270.153 157.172 269.973 162.402M274.12 147.434C274.12 149.959 274.301 156.631 274.481 160.96M271.956 169.977C273.038 162.402 277.727 151.582 281.334 148.155M288.007 99.644C290.531 109.022 286.203 113.53 283.318 121.465M288.367 90.0859C292.154 92.25 290.531 100.906 285.121 100.005M259.152 238.506C260.054 238.506 260.775 239.227 260.775 240.129C260.775 241.03 260.054 241.752 259.152 241.752C258.25 241.752 257.529 241.03 257.529 240.129C257.529 239.227 258.25 238.506 259.152 238.506ZM305.139 307.215C306.04 307.215 306.762 307.937 306.762 308.838C306.762 309.74 306.04 310.461 305.139 310.461C304.237 310.461 303.516 309.74 303.516 308.838C303.335 308.117 304.237 307.215 305.139 307.215ZM255.545 301.625C256.808 301.625 257.89 302.707 257.89 303.969C257.89 305.231 256.808 306.314 255.545 306.314C254.283 306.314 253.201 305.231 253.201 303.969C253.201 302.707 254.283 301.625 255.545 301.625ZM238.233 316.954C238.954 316.954 239.675 317.675 239.675 318.577C239.675 319.478 239.134 320.2 238.233 320.2C237.511 320.2 236.79 319.478 236.79 318.577C236.97 317.675 237.511 316.954 238.233 316.954ZM228.134 319.659C229.035 319.659 229.757 320.38 229.757 321.282C229.757 322.183 229.035 322.905 228.134 322.905C227.232 322.905 226.511 322.183 226.511 321.282C226.511 320.38 227.232 319.659 228.134 319.659ZM206.673 317.675C207.395 317.675 208.116 318.396 208.116 319.298C208.116 320.2 207.575 320.921 206.673 320.921C205.772 320.921 205.23 320.2 205.23 319.298C205.23 318.396 205.772 317.675 206.673 317.675ZM216.772 319.839C217.674 319.839 218.395 320.56 218.395 321.462C218.395 322.364 217.674 323.085 216.772 323.085C215.871 323.085 215.149 322.364 215.149 321.462C215.149 320.38 215.871 319.839 216.772 319.839ZM238.233 313.707C240.577 313.707 242.561 315.872 242.561 318.757C242.561 321.462 240.577 323.806 238.233 323.806C235.888 323.806 233.905 321.642 233.905 318.757C233.905 315.872 235.888 313.707 238.233 313.707ZM228.134 316.413C230.839 316.413 233.183 318.577 233.183 321.462C233.183 324.167 231.019 326.512 228.134 326.512C225.429 326.512 223.084 324.347 223.084 321.462C223.084 318.577 225.248 316.413 228.134 316.413ZM206.673 314.429C209.018 314.429 211.001 316.593 211.001 319.478C211.001 322.183 209.018 324.528 206.673 324.528C204.329 324.528 202.345 322.364 202.345 319.478C202.165 316.593 204.148 314.429 206.673 314.429ZM216.772 316.413C219.477 316.413 221.822 318.577 221.822 321.462C221.822 324.167 219.658 326.512 216.772 326.512C214.067 326.512 211.723 324.347 211.723 321.462C211.723 318.757 214.067 316.413 216.772 316.413Z" stroke="#292526" stroke-width="1.62" stroke-miterlimit="22.926"/>
<path fill-rule="evenodd" clip-rule="evenodd" d="M391.276 4L385.956 9.31827L381.985 5.18965L381.753 4.94884H381.419L360.781 4.94884H359.996L359.996 5.73384L359.996 26.0032L359.996 26.3284L360.226 26.5583L364.378 30.7085L360.226 34.8587L359.996 35.0887L359.996 35.4139L359.996 56.0452L359.996 56.8302H360.781L381.057 56.8302H381.382L381.612 56.6004L385.764 52.4498L391.533 58.2169L385.867 63.8808L381.985 59.8445L381.753 59.6036H381.419L360.781 59.6036H359.996L359.996 60.3886L359.996 80.658L359.996 80.9855L360.229 81.2159L364.398 85.3429L360.226 89.5135L359.996 89.7435L359.996 90.0687L359.996 110.7L359.996 111.485H360.781H381.057H381.382L381.612 111.255L385.855 107.014L391.533 112.691L385.867 118.355L381.985 114.318L381.753 114.077H381.419H360.781H359.996L359.996 114.862L359.996 135.132L359.996 135.459L360.229 135.69L364.398 139.817L360.226 143.987L359.996 144.217L359.996 144.543L359.996 165.174L359.996 165.959H360.781H381.057H381.382L381.612 165.729L385.764 161.578L391.533 167.346L385.956 172.921L381.985 168.792L381.753 168.551H381.419H360.781H359.996L359.996 169.336L359.996 189.606L359.996 189.933L360.229 190.164L364.398 194.291L360.226 198.461L359.996 198.691L359.996 199.016L359.996 219.648L359.996 220.433H360.781H381.057H381.382L381.612 220.203L385.764 216.052L391.533 221.819L385.956 227.395L381.985 223.266L381.753 223.025H381.419H360.781H359.996L359.996 223.81L359.996 244.079L359.996 244.407L360.229 244.637L364.398 248.764L360.226 252.935L359.996 253.165L359.996 253.49L359.996 273.941L359.996 274.726H360.781H381.057H381.382L381.612 274.496L385.674 270.436L391.533 276.293L385.867 281.957L381.985 277.921L381.753 277.68H381.419H360.781H359.996L359.996 278.465L359.996 298.734L359.996 299.062L360.229 299.292L364.398 303.419L360.226 307.59L359.996 307.82L359.996 308.145L359.996 328.776V329.561H360.781H381.057H381.382L381.612 329.332L385.855 325.09L391.533 330.767L385.956 336.342L381.985 332.214L381.753 331.973H381.419H360.781H359.996V332.758V353.027V353.352L360.226 353.582L365.657 359.012L366.767 357.901L361.566 352.702L361.566 333.543H381.085L384.846 337.452L379.156 343.14L377.991 341.975L377.753 341.737L377.416 341.746L370.356 341.927L369.591 341.946V342.712V349.227V349.552L369.821 349.782L379.235 359.193L380.345 358.082L380.267 358.004L385.934 352.338L389.905 356.467L390.137 356.708H390.471H411.109H411.894V355.923V335.653V335.326L411.661 335.096L407.037 330.518L411.483 326.074L411.713 325.844V325.519V305.249V304.464H410.928H390.652H390.327L390.097 304.694L385.764 309.026L380.267 303.53L385.934 297.865L389.905 301.993L390.137 302.234H390.471H411.109H411.894V301.449V281.18V280.852L411.661 280.622L407.037 276.044L411.483 271.6L411.713 271.37V271.045V250.776V249.991H410.928H390.652H390.327L390.097 250.22L385.855 254.461L380.267 248.875L385.934 243.21L389.905 247.338L390.137 247.579H390.471H411.109H411.894V246.794L411.894 226.525V226.197L411.661 225.967L407.128 221.48L411.483 217.126L411.713 216.896V216.571V196.302V195.517H410.928H390.652H390.327L390.097 195.747L385.855 199.988L380.267 194.401L385.934 188.736L389.905 192.864L390.137 193.105H390.471H411.109H411.894V192.32V172.051V171.723L411.661 171.493L407.037 166.916L411.483 162.471L411.713 162.242V161.916V141.647V140.862H410.928H390.652H390.327L390.097 141.092L385.764 145.423L380.267 139.928L385.934 134.262L389.905 138.391L390.137 138.631H390.471H411.109H411.894V137.846V117.577V117.25L411.661 117.019L407.037 112.442L411.483 107.998L411.713 107.768V107.442L411.713 87.1731V86.3881H410.928H390.652H390.327L390.097 86.618L385.764 90.9495L380.267 85.4538L385.934 79.7882L389.905 83.9168L390.137 84.1576H390.471H411.109H411.894V83.3726V63.1033V62.7758L411.661 62.5454L407.128 58.0582L411.483 53.7048L411.713 53.4748V53.1496V32.6993V31.9143H410.928H390.652H390.327L390.097 32.1441L385.855 36.3852L380.267 30.799L385.934 25.1334L389.905 29.262L390.137 29.5028H390.471H411.109H411.894V28.7178V8.44849V8.12097L411.661 7.89058L407.731 4H405.499L410.324 8.77599V27.9328H390.805L387.045 24.0232L392.553 18.5168L393.899 19.8622L394.137 20.1004L394.474 20.0918L401.534 19.9108L402.299 19.8912V19.1261L402.299 12.6109V12.2857L402.069 12.0558L394.011 4H391.276ZM394.771 18.5137L393.663 17.4068L399.432 11.6397L400.729 12.9362V18.3609L394.771 18.5137ZM392.644 4.85307L398.322 10.5297L379.156 29.6891L373.478 24.0124L392.644 4.85307ZM378.136 17.1353L372.367 22.9024L371.161 21.6965V16.2717L377.12 16.1189L378.136 17.1353ZM384.846 10.4284L379.247 16.0254L377.991 14.7704L377.753 14.5322L377.416 14.5408L370.356 14.7218L369.591 14.7414V15.5065V22.0217V22.3469L369.821 22.5769L384.744 37.4951L379.066 43.1718L361.566 25.6779L361.566 6.51884L381.085 6.51884L384.846 10.4284ZM372.255 38.5836L377.955 44.2818L376.749 45.4875H370.98V39.7428L372.255 38.5836ZM365.488 31.8185L371.144 37.4724L369.667 38.8145L369.41 39.0481V39.3954V46.2725V47.0575H370.195H377.074H377.399L377.629 46.8277L390.977 33.4843H410.143V52.8244L406.013 56.9537L400.397 51.395L402.25 49.5423L402.48 49.3124V48.9871V42.472V41.687H401.695H394.635H394.31L394.08 41.9168L380.732 55.2602L361.566 55.2602L361.566 35.7391L365.488 31.8185ZM400.91 48.6619L399.281 50.2905L393.575 44.6419L394.96 43.257H400.91V48.6619ZM386.874 51.3398L392.464 45.7518L410.324 63.4308V82.5876H390.805L387.045 78.678L392.644 73.0811L393.899 74.336L394.137 74.5742L394.474 74.5656L401.534 74.3846L402.299 74.3651V73.5999V67.0847V66.7595L402.069 66.5296L386.874 51.3398ZM394.771 72.9875L393.754 71.9711L399.523 66.204L400.729 67.41V72.8348L394.771 72.9875ZM392.644 59.3269L398.413 65.094L379.156 84.3439L373.387 78.5767L392.644 59.3269ZM378.046 71.6996L372.277 77.4668L371.161 76.3513V70.9265L377.12 70.7738L378.046 71.6996ZM384.757 64.991L379.156 70.5897L377.991 69.4252L377.753 69.187L377.416 69.1956L370.356 69.3766L369.591 69.3962V70.1613V76.6765V77.0017L369.821 77.2317L384.654 92.0595L379.062 97.6492L361.566 80.3305L361.566 61.1736L381.085 61.1736L384.757 64.991ZM372.222 93.0877L377.952 98.7592L376.749 99.9613H370.98V94.2166L372.222 93.0877ZM365.514 86.4474L371.105 91.9816L369.667 93.2883L369.41 93.5219V93.8692V100.746V101.531H370.195H377.074H377.399L377.629 101.302L390.977 87.9581H410.143L410.143 107.117L405.922 111.337L400.488 105.959L402.25 104.197L402.48 103.967V103.642V97.1268V96.3418H401.695H394.635H394.31L394.08 96.5717L380.732 109.915H361.566L361.566 90.394L365.514 86.4474ZM400.91 103.317L399.372 104.854L393.666 99.2057L394.96 97.9118H400.91V103.317ZM386.965 105.904L392.555 100.316L410.324 117.905V137.061H390.805L387.045 133.152L392.644 127.555L393.899 128.81L394.137 129.048L394.474 129.039L401.534 128.858L402.299 128.839V128.074V121.559V121.233L402.069 121.003L386.965 105.904ZM394.771 127.461L393.754 126.445L399.523 120.678L400.729 121.884V127.309L394.771 127.461ZM392.644 113.801L398.413 119.568L379.156 138.818L373.387 133.051L392.644 113.801ZM378.046 126.173L372.277 131.941L371.161 130.825V125.4L377.12 125.248L378.046 126.173ZM384.757 119.465L379.156 125.064L377.991 123.899L377.753 123.661L377.416 123.669L370.356 123.85L369.591 123.87V124.635V131.15V131.476L369.821 131.706L384.654 146.533L379.062 152.123L361.566 134.804L361.566 115.647H381.085L384.757 119.465ZM372.222 147.562L377.952 153.233L376.749 154.435H370.98V148.69L372.222 147.562ZM365.514 140.921L371.105 146.455L369.667 147.762L369.41 147.996V148.343V155.22V156.005H370.195H377.074H377.399L377.629 155.775L390.977 142.432H410.143V161.591L405.922 165.811L400.488 160.433L402.25 158.671L402.48 158.441V158.116V151.601V150.816H401.695H394.635H394.31L394.08 151.045L380.732 164.389H361.566L361.566 144.868L365.514 140.921ZM400.91 157.791L399.372 159.328L393.666 153.68L394.96 152.386H400.91V157.791ZM386.874 160.468L392.555 154.79L410.324 172.378V191.535H390.805L387.045 187.626L392.553 182.119L393.899 183.465L394.137 183.703L394.474 183.694L401.534 183.513L402.299 183.494V182.729V176.213V175.888L402.069 175.658L386.874 160.468ZM394.771 182.116L393.663 181.009L399.432 175.242L400.729 176.539V181.963L394.771 182.116ZM392.644 168.456L398.322 174.132L379.156 193.292L373.478 187.615L392.644 168.456ZM378.136 180.738L372.367 186.505L371.161 185.299V179.874L377.12 179.721L378.136 180.738ZM384.846 174.031L379.247 179.628L377.991 178.373L377.753 178.135L377.416 178.143L370.356 178.324L369.591 178.344V179.109V185.624V185.949L369.821 186.179L384.744 201.098L379.153 206.687L361.566 189.278L361.566 170.121H381.085L384.846 174.031ZM372.318 202.13L378.043 207.797L376.749 209.09H370.98V203.345L372.318 202.13ZM365.514 195.395L371.2 201.024L369.667 202.417L369.41 202.651V202.998V209.875V210.66H370.195H377.074H377.399L377.629 210.43L390.977 197.087H410.143V216.246L406.012 220.375L400.488 214.907L402.25 213.145L402.48 212.915V212.59V206.074V205.289H401.695H394.635H394.31L394.08 205.519L380.732 218.863H361.566L361.566 199.342L365.514 195.395ZM400.91 212.264L399.372 213.802L393.666 208.153L394.96 206.859H400.91V212.264ZM386.874 214.942L392.555 209.263L410.324 226.852L410.324 246.009H390.805L387.045 242.1L392.553 236.593L393.899 237.939L394.137 238.177L394.474 238.168L401.534 237.987L402.299 237.967V237.202V230.687V230.362L402.069 230.132L386.874 214.942ZM394.771 236.59L393.663 235.483L399.432 229.716L400.729 231.012V236.437L394.771 236.59ZM392.644 222.929L398.322 228.606L379.156 247.765L373.478 242.089L392.644 222.929ZM378.136 235.212L372.367 240.979L371.161 239.773V234.348L377.12 234.195L378.136 235.212ZM384.846 228.505L379.247 234.102L377.991 232.847L377.753 232.609L377.416 232.617L370.356 232.798L369.591 232.818V233.583V240.098V240.423L369.821 240.653L384.744 255.571L379.153 261.161L361.566 243.752L361.566 224.595H381.085L384.846 228.505ZM372.318 256.604L378.043 262.271L376.749 263.564H370.98V257.819L372.318 256.604ZM365.514 249.869L371.2 255.497L369.667 256.891L369.41 257.124V257.472V264.349V265.134H370.195H377.074H377.399L377.629 264.904L390.977 251.561H410.143V270.72L405.922 274.94L400.306 269.381L402.25 267.438L402.48 267.208V266.882V260.367V259.582H401.695H394.635H394.31L394.08 259.812L380.732 273.156H361.566L361.566 253.815L365.514 249.869ZM400.91 266.557L399.19 268.277L393.484 262.628L394.96 261.152H400.91V266.557ZM386.784 269.326L392.373 263.738L410.324 281.507V300.664H390.805L387.045 296.754L392.644 291.157L393.899 292.412L394.137 292.651L394.474 292.642L401.534 292.461L402.299 292.441V291.676V285.161V284.836L402.069 284.606L386.784 269.326ZM394.771 291.064L393.754 290.047L399.523 284.28L400.729 285.486V290.911L394.771 291.064ZM392.644 277.403L398.413 283.17L379.156 302.42L373.387 296.653L392.644 277.403ZM378.046 289.776L372.277 295.543L371.161 294.428V289.003L377.12 288.85L378.046 289.776ZM384.757 283.067L379.156 288.666L377.991 287.502L377.753 287.263L377.416 287.272L370.356 287.453L369.591 287.473V288.238V294.753V295.078L369.821 295.308L384.654 310.136L379.062 315.726L361.566 298.407L361.566 279.25H381.085L384.757 283.067ZM372.222 311.164L377.952 316.836L376.749 318.038H370.98V312.293L372.222 311.164ZM365.514 304.524L371.105 310.058L369.667 311.365L369.41 311.598V311.946V318.823V319.608H370.195H377.074H377.399L377.629 319.378L390.977 306.034H410.143V325.194L405.922 329.414L400.488 324.035L402.25 322.273L402.48 322.044V321.718L402.48 315.203V314.418H401.695H394.635H394.31L394.08 314.648L380.732 327.991H361.566L361.566 308.47L365.514 304.524ZM400.91 321.393L399.372 322.931L393.666 317.282L394.96 315.988H400.91L400.91 321.393ZM386.965 323.98L392.555 318.392L410.324 335.981V355.138H390.805L387.045 351.228L392.643 345.631L393.899 346.886L394.137 347.124L394.474 347.116L401.534 346.935L402.299 346.915V346.15V339.635V339.31L402.069 339.08L386.965 323.98ZM394.771 345.538L393.754 344.521L399.523 338.754L400.729 339.96L400.729 345.385L394.771 345.538ZM392.644 331.877L398.413 337.644L379.156 356.894L373.387 351.127L392.644 331.877ZM378.046 344.25L372.277 350.017L371.161 348.901V343.477L377.12 343.324L378.046 344.25Z" fill="#6442EE"/>
</svg>
