<svg width="411" height="356" viewBox="0 0 411 356" fill="none" xmlns="http://www.w3.org/2000/svg">
<path fill-rule="evenodd" clip-rule="evenodd" d="M247 349.66C338.525 343.983 411 267.955 411 175C411 82.0447 338.525 6.01675 247 0.340106V50.4773C310.884 56.0472 361 109.671 361 175C361 240.329 310.884 293.953 247 299.523V349.66Z" fill="#C12DD9"/>
<path d="M180.04 227.141C180.44 227.141 181.039 226.942 181.438 226.942C185.032 226.942 187.827 229.737 187.827 233.331C187.827 236.725 185.032 239.521 181.638 239.72M169.857 199.388C173.052 200.387 175.049 203.382 175.049 206.776C175.049 210.969 171.654 214.563 167.462 214.563M168.26 221.351C169.658 219.954 168.66 215.561 166.064 212.366C162.27 207.575 164.467 201.185 170.057 199.189C173.451 198.39 177.045 195.595 177.245 193.598M160.274 232.133C164.067 229.338 164.267 221.551 160.473 216.559C155.282 209.571 158.077 198.989 166.064 195.196C169.258 193.798 174.45 187.209 176.646 182.018C178.243 177.226 187.228 179.822 181.837 185.212C177.644 191.202 184.632 191.602 184.034 184.414C182.436 175.03 193.418 176.427 189.824 185.612C182.037 195.196 188.626 198.789 188.825 187.209M190.223 183.815C194.216 184.014 193.817 188.407 188.426 200.986C184.233 210.769 177.844 223.548 168.859 235.927C159.675 247.507 161.671 262.282 172.852 265.477C173.052 264.478 173.851 261.483 174.649 259.487C175.847 256.093 174.45 250.702 171.654 248.905C169.658 247.108 169.259 243.514 170.856 241.517M154.284 192.6C162.071 225.345 160.274 257.29 166.663 279.653C164.267 281.849 158.077 281.849 154.483 279.852C150.69 277.656 143.702 278.654 140.507 281.849C136.514 286.042 129.725 287.44 126.73 284.644C121.539 279.852 111.356 284.445 100.375 295.426C102.172 279.852 104.169 262.082 103.969 260.086M134.118 199.788C135.116 202.184 137.912 224.346 139.908 244.512M128.328 199.588C127.928 206.377 124.334 228.938 121.14 244.712M110.358 183.415C106.365 184.414 105.167 189.605 107.962 193.998C123.935 203.182 148.294 201.585 156.28 190.803C158.277 188.207 158.277 183.016 155.881 180.021M134.917 241.118C134.917 241.916 135.116 246.908 135.116 251.101M129.725 252.099C129.526 245.51 129.526 245.91 129.725 241.118M163.269 261.084C163.468 260.086 160.274 259.287 156.879 259.087C153.685 259.287 153.086 257.49 155.282 255.693C158.277 252.698 152.886 251.5 144.5 253.297C135.516 254.495 132.321 251.5 138.111 247.108C141.306 244.712 140.307 241.916 136.514 241.318C133.319 240.319 127.13 240.918 124.334 242.116C120.142 243.913 120.541 246.309 125.333 247.307C133.12 250.901 130.923 255.094 121.14 256.093C111.157 256.093 103.769 258.488 100.974 263.879C101.972 235.927 105.766 200.786 108.361 193.199" stroke="#292526" stroke-width="1.62" stroke-miterlimit="22.926"/>
<path d="M167.259 208.58C168.472 208.58 169.455 207.597 169.455 206.384C169.455 205.171 168.472 204.188 167.259 204.188C166.046 204.188 165.062 205.171 165.062 206.384C165.062 207.597 166.046 208.58 167.259 208.58Z" fill="#292526"/>
<path d="M167.259 208.58C168.472 208.58 169.455 207.597 169.455 206.384C169.455 205.171 168.472 204.188 167.259 204.188C166.046 204.188 165.062 205.171 165.062 206.384C165.062 207.597 166.046 208.58 167.259 208.58Z" stroke="#292526" stroke-width="1.62" stroke-miterlimit="22.926"/>
<path fill-rule="evenodd" clip-rule="evenodd" d="M181.233 231.141C182.431 231.141 183.429 232.139 183.429 233.137C183.429 234.335 182.431 235.134 181.233 235.134C180.035 235.134 179.237 234.136 179.237 233.137C179.037 232.139 180.035 231.141 181.233 231.141Z" fill="#292526"/>
<path d="M181.233 231.141C182.431 231.141 183.429 232.139 183.429 233.137C183.429 234.335 182.431 235.134 181.233 235.134C180.035 235.134 179.237 234.136 179.237 233.137C179.037 232.139 180.035 231.141 181.233 231.141Z" stroke="#292526" stroke-width="1.62" stroke-miterlimit="22.926"/>
<path d="M155.084 70.8136C157.28 73.4092 161.672 73.2096 163.669 70.2146M154.884 67.619C158.079 64.6241 162.471 65.0234 163.669 68.0183M137.314 71.2129C140.508 74.6072 145.899 74.4075 148.095 71.0133M132.721 70.2146C134.319 70.015 135.916 69.2163 137.114 68.0183C140.508 64.6241 146.099 64.8237 148.095 68.218M120.542 97.768C117.148 100.563 116.948 105.555 120.342 107.751M120.742 90.9795C118.545 95.1724 120.742 100.164 125.134 100.963M118.146 78.6004C115.151 85.5886 118.945 92.3771 125.733 92.1775M118.146 78.6004C113.155 76.4042 113.753 70.6139 118.745 69.0167C117.946 68.0183 117.946 65.8221 118.745 63.2264M118.146 78.6004C122.339 79.9981 126.732 77.2028 126.931 73.0099C126.931 70.8136 126.732 69.0167 126.931 67.2197C127.331 63.2264 128.329 59.8322 128.928 59.6325M124.136 77.8018C124.535 81.5954 127.331 84.79 129.726 84.3906C131.124 91.3788 129.527 102.56 126.532 106.952M162.671 100.963C163.869 103.558 160.874 106.154 158.877 104.157M166.065 95.3721C167.862 99.3653 163.07 102.959 160.075 99.9643M168.86 88.5836C171.057 93.5751 165.067 98.1673 161.073 94.3738M170.857 79.1994C174.052 83.1927 170.258 89.9812 166.065 88.9829M171.256 67.02C175.05 71.6123 173.652 78.2011 168.86 80.1977M171.057 57.4362C173.852 61.2298 172.854 67.02 168.86 69.2163M151.889 302.821C155.084 304.219 158.278 303.62 158.278 301.623M151.689 298.628C153.287 299.227 156.282 299.227 157.679 298.429M121.94 305.417C125.334 307.014 129.926 305.816 131.124 303.221M121.54 299.427C125.134 301.224 129.527 300.825 130.325 298.429M159.676 281.258C159.676 284.053 158.877 291.84 158.079 296.632C156.881 300.226 159.676 306.615 164.667 309.809C172.854 314.801 176.647 326.581 173.652 336.764C164.867 335.965 156.282 328.977 156.481 322.787C156.481 320.99 156.481 318.395 155.483 316.398C154.485 313.803 152.488 311.606 150.491 311.007C145.699 309.41 145.3 305.017 147.896 301.224C149.293 298.029 148.295 293.637 146.698 291.241C143.703 286.05 142.705 280.259 143.503 279.66M116.748 284.053C119.544 296.831 118.945 309.41 115.351 312.405C108.163 318.395 106.366 327.18 110.559 337.562C118.745 334.967 124.535 329.376 125.134 323.586C125.534 319.194 127.93 315.4 130.725 314.202C134.319 312.804 134.918 308.012 131.723 304.618C129.726 302.023 130.126 292.638 132.322 285.65M143.903 253.505C144.102 256.899 144.501 262.889 144.701 265.484M137.913 253.305C137.713 258.696 137.513 270.875 137.513 277.664M125.334 255.701C125.334 258.297 125.334 262.489 125.134 264.087M120.143 256.3C119.943 257.298 119.344 263.488 118.745 268.479M113.354 256.899C112.356 260.093 110.359 271.874 109.361 280.659M133.32 176.435C141.906 174.638 152.488 159.863 154.485 147.085M122.139 176.235C135.517 175.237 148.894 179.63 148.694 185.02M144.901 190.411C145.699 189.812 146.099 189.413 146.698 188.415C151.09 182.425 155.683 170.046 156.681 160.462C157.08 150.479 162.671 138.898 167.662 137.301M158.678 135.105C160.474 154.871 152.089 176.235 140.908 178.232M119.943 165.853C120.542 176.036 126.732 187.816 130.525 185.22C132.322 183.623 130.325 181.826 126.133 183.024M114.752 169.646C117.148 188.015 129.527 195.802 135.517 187.816C139.31 181.626 131.923 176.635 123.537 179.031M184.035 157.667C168.86 156.469 170.657 140.895 190.424 116.337M127.53 157.467C129.527 161.66 131.324 165.653 131.523 165.653C133.919 164.855 137.314 162.858 138.312 161.86C136.515 158.665 134.518 154.272 134.319 153.074M109.76 161.86C106.566 155.67 110.559 147.484 117.747 145.288C118.545 158.266 127.131 161.86 134.518 152.475M96.5825 123.524C103.97 126.719 109.561 139.098 107.764 148.283M89.9937 128.915C98.1798 129.714 104.968 138.898 103.77 147.484M85.6011 134.107C92.3896 130.912 98.9785 137.501 98.5792 147.085M97.7805 166.053C93.5876 154.472 104.769 146.086 111.757 149.281M90.1933 159.064C91.9903 150.279 100.775 144.888 108.163 148.482M99.1781 148.283C94.1866 138.1 79.6112 146.486 84.2035 161.66C82.2068 166.652 85.6011 171.843 90.7923 172.042C99.7771 179.43 117.547 172.242 126.332 157.667M110.958 116.736C90.7923 122.726 77.8143 138.898 85.0021 148.882M117.946 113.541C119.144 113.142 120.742 112.144 121.141 111.345M132.721 124.523C128.329 120.33 121.94 112.743 119.743 109.348C119.943 107.551 122.139 104.956 124.336 104.157C127.53 109.348 135.317 118.134 139.909 121.528M139.31 135.105C145.1 129.315 156.481 121.927 161.672 120.13M130.924 131.511C130.525 130.712 129.527 128.117 129.127 126.32C138.911 121.728 152.688 116.137 156.282 115.139M153.686 101.362C153.686 106.354 154.884 113.342 156.082 115.139C157.679 114.14 166.065 125.321 173.053 137.501M157.48 98.7663C158.079 104.956 163.27 113.342 168.261 119.332C172.854 124.722 178.045 134.306 177.046 135.704M165.466 55.6393C166.265 58.8339 166.464 61.8288 165.466 63.6258C165.067 66.2214 165.466 68.6173 165.865 70.2146C167.063 73.6089 165.865 81.5954 163.07 86.5869C162.072 88.3839 160.075 93.1758 159.077 96.3704C156.082 103.758 145.699 103.558 138.312 95.5717M146.698 36.0724C147.496 38.2687 148.295 42.4616 148.295 44.4582M166.065 61.2298C161.672 58.4345 154.684 60.0318 154.085 65.2231C154.485 66.8204 155.483 74.8069 155.882 80.7967C149.693 81.795 146.698 81.795 148.694 79.3991M132.921 63.8254C137.114 60.2315 145.3 59.4329 149.293 62.2281M131.523 47.0538C132.921 26.6882 157.28 27.0876 159.476 44.2585M124.735 48.8508C126.732 22.096 161.473 21.497 164.068 44.4582M119.943 141.294C108.163 111.345 90.992 55.6393 85.8008 30.2822C82.4065 3.32775 114.153 -3.06144 123.737 15.9065C128.529 27.2872 117.148 30.4818 115.75 24.492C116.349 6.72201 89.794 8.51897 93.3879 29.6832C98.5792 54.4413 114.552 106.553 125.534 133.508M151.29 195.004C154.485 208.381 156.881 237.931 156.082 254.104M141.307 198.797C143.304 205.785 146.099 221.159 146.897 229.745M120.542 198.398C120.143 203.389 115.55 227.549 111.158 246.716M111.358 171.244C111.557 173.839 111.158 180.029 110.359 183.423C117.547 195.203 134.918 197.2 147.496 189.014C155.084 184.022 158.877 176.235 163.669 167.849M114.552 52.844C132.122 44.4582 161.672 41.4633 173.652 47.0538C173.852 52.0454 172.854 57.2366 171.256 57.4362C162.471 52.6443 136.116 55.6393 118.545 63.4261C116.149 62.0285 114.153 56.8372 114.552 52.844Z" stroke="#292526" stroke-width="1.62" stroke-miterlimit="22.926"/>
<path fill-rule="evenodd" clip-rule="evenodd" d="M145.893 66.2162C145.893 68.2128 144.495 69.4108 142.898 69.4108C141.5 69.4108 139.903 68.4125 139.703 66.4158C140.502 66.0165 141.7 65.8168 142.898 65.6172C143.896 65.6172 145.094 65.8168 145.893 66.2162Z" fill="#292526"/>
<path d="M145.893 66.2162C145.893 68.2128 144.495 69.4108 142.898 69.4108C141.5 69.4108 139.903 68.4125 139.703 66.4158C140.502 66.0165 141.7 65.8168 142.898 65.6172C143.896 65.6172 145.094 65.8168 145.893 66.2162Z" stroke="#292526" stroke-width="1.62" stroke-miterlimit="22.926"/>
<path fill-rule="evenodd" clip-rule="evenodd" d="M162.271 66.4177C162.271 68.4143 160.873 69.4127 159.476 69.6123C158.078 69.6123 156.681 68.8137 156.281 66.6174C157.08 66.2181 158.478 65.8187 159.476 65.8187C160.674 65.6191 161.672 66.0184 162.271 66.4177Z" fill="#292526"/>
<path d="M162.271 66.4177C162.271 68.4143 160.873 69.4127 159.476 69.6123C158.078 69.6123 156.681 68.8137 156.281 66.6174C157.08 66.2181 158.478 65.8187 159.476 65.8187C160.674 65.6191 161.672 66.0184 162.271 66.4177Z" stroke="#292526" stroke-width="1.62" stroke-miterlimit="22.926"/>
<path d="M183.224 247.905C183.823 245.509 182.425 241.716 180.029 238.122C177.433 234.528 177.433 228.139 183.024 223.147M225.153 288.237C228.148 293.029 229.545 300.816 228.747 302.014C220.361 303.012 214.171 301.015 216.168 296.224C217.765 292.43 218.564 288.836 217.965 287.039C217.566 286.24 216.767 285.841 215.968 285.841C213.173 286.041 211.376 283.844 211.576 280.85C211.775 276.058 211.176 273.662 210.178 271.266C207.383 263.878 200.594 262.88 192.408 270.667M189.213 257.09C192.807 257.289 200.395 256.491 204.388 255.492C210.777 253.695 216.368 257.689 215.569 263.679C216.168 271.865 221.758 283.445 226.95 286.839C229.545 288.636 232.94 294.427 233.539 298.62C231.941 299.418 229.745 299.618 228.946 299.218M212.973 315.591C213.972 320.982 213.572 328.968 211.975 331.364C205.785 330.565 200.195 325.973 200.794 321.98C201.593 318.985 202.192 316.789 205.186 314.193C206.584 312.596 205.985 309.601 203.789 308.603C200.994 307.604 200.594 304.809 201.992 302.213C205.785 289.235 200.794 279.652 192.009 282.846C184.022 286.64 174.838 286.44 172.242 281.249C171.044 278.653 167.251 275.858 165.454 275.259M187.017 204.978C190.012 205.377 190.611 209.171 187.816 210.968M189.014 199.986C194.604 200.985 196.202 208.372 192.408 214.761C190.411 218.954 195.004 219.354 194.405 215.36C193.806 209.57 195.603 206.176 197.4 208.771C198.398 209.37 198.797 214.961 196.601 220.951C195.004 227.54 196.002 234.528 197 237.323C200.794 246.108 197 255.892 189.413 256.89C183.024 258.487 181.227 268.47 189.812 270.667C193.007 271.465 198.997 271.865 201.393 271.865C205.386 271.865 208.581 274.46 209.779 278.054C210.178 279.652 210.178 281.449 209.978 283.046C208.581 294.826 211.775 307.604 215.17 314.193C218.165 319.185 219.362 326.972 217.366 329.567C216.168 329.767 213.772 328.769 212.374 327.571M134.306 152.467C136.103 150.47 138.499 148.473 139.098 148.473M134.706 144.081C140.696 140.886 143.89 143.083 141.295 148.473C139.897 150.071 136.902 151.868 135.105 152.067M132.11 140.287C138.899 135.895 143.291 137.292 141.095 142.883M128.915 136.893C135.105 132.7 140.496 133.099 139.697 137.692M117.734 145.079C117.734 145.279 119.931 141.286 121.927 137.093C126.919 130.903 134.107 129.306 136.103 133.698M177.234 135.695C167.45 142.284 163.657 162.25 174.438 164.846M220.96 104.548C224.753 100.754 228.148 101.752 223.156 107.143C212.774 116.727 200.594 124.714 197.2 124.913C196.202 130.105 195.203 134.896 194.405 139.289C187.217 183.614 150.479 178.023 164.056 146.876C166.252 141.885 173.44 136.693 177.034 135.895M209.978 106.544C210.977 104.348 214.77 101.952 217.765 101.553C222.158 95.9623 226.55 93.5663 226.55 96.9606C224.953 98.7575 221.958 102.551 220.56 104.747C218.564 105.346 214.571 107.942 212.374 109.939M206.584 103.15C208.581 100.754 212.774 98.7575 214.77 99.1568C219.362 93.766 224.554 91.7693 224.953 95.1636M219.961 93.9656C219.163 91.969 214.77 92.9673 211.376 96.3616C208.78 96.7609 204.587 99.3565 204.388 100.355C202.591 99.9555 198.797 101.353 196.601 103.15M198.797 90.9707C200.794 92.7677 200.195 97.1602 197.599 99.5562C196.401 101.353 196.202 103.949 197 104.747C198.598 106.145 199.596 110.338 198.598 112.934M191.609 118.724C188.215 113.732 186.019 106.944 191.21 98.5579C194.804 95.3633 198.598 91.5697 198.598 90.9707M179.43 132.101C178.631 137.492 184.621 141.086 191.21 139.289M182.425 127.309C181.826 130.304 185.021 133.299 188.814 133.499M186.219 121.719C186.019 126.91 191.41 129.506 196.801 127.11M150.279 89.3734C151.877 90.172 154.273 89.9724 154.872 89.1737M146.885 86.9774C148.482 87.1771 150.479 87.1771 151.278 86.9774C152.076 86.7778 154.073 86.7778 154.672 86.9774C155.87 87.1771 157.268 87.1771 157.866 86.5781" stroke="#292526" stroke-width="1.62" stroke-miterlimit="22.926"/>
<path fill-rule="evenodd" clip-rule="evenodd" d="M32.2762 0L26.9561 5.31827L22.985 1.18965L22.7534 0.948836H22.4192L1.78111 0.948835H0.996109L0.996109 1.73384L0.996109 22.0032L0.996108 22.3284L1.22612 22.5583L5.37772 26.7085L1.22612 30.8587L0.996108 31.0887L0.996108 31.4139L0.996107 52.0452L0.996107 52.8302H1.78111L22.0572 52.8302H22.3823L22.6122 52.6004L26.7641 48.4498L32.5332 54.2169L26.8674 59.8808L22.985 55.8445L22.7534 55.6036H22.4192L1.78111 55.6036H0.996107L0.996107 56.3886L0.996106 76.658L0.996106 76.9855L1.22886 77.2159L5.39816 81.3429L1.22612 85.5135L0.996106 85.7435L0.996106 86.0687L0.996105 106.7L0.996105 107.485H1.7811H22.0572H22.3823L22.6122 107.255L26.8546 103.014L32.5332 108.691L26.8674 114.355L22.985 110.318L22.7534 110.077H22.4192H1.7811H0.996105L0.996105 110.862L0.996104 131.132L0.996104 131.459L1.22886 131.69L5.39816 135.817L1.22612 139.987L0.996103 140.217L0.996103 140.543L0.996102 161.174L0.996102 161.959H1.7811H22.0572H22.3823L22.6122 161.729L26.7641 157.578L32.5332 163.346L26.9562 168.921L22.985 164.792L22.7534 164.551H22.4192H1.7811H0.996102L0.996102 165.336L0.996101 185.606L0.996101 185.933L1.22886 186.164L5.39817 190.291L1.22612 194.461L0.996101 194.691L0.996101 195.016L0.9961 215.648L0.9961 216.433H1.7811H22.0572H22.3823L22.6122 216.203L26.7641 212.052L32.5332 217.819L26.9561 223.395L22.985 219.266L22.7534 219.025H22.4192H1.7811H0.9961L0.9961 219.81L0.996099 240.079L0.996099 240.407L1.22885 240.637L5.39816 244.764L1.22611 248.935L0.996099 249.165L0.996099 249.49L0.996098 269.941L0.996098 270.726H1.7811H22.0572H22.3822L22.6122 270.496L26.6736 266.436L32.5332 272.293L26.8674 277.957L22.985 273.921L22.7534 273.68H22.4192H1.7811H0.996098L0.996097 274.465L0.996097 294.734L0.996097 295.062L1.22885 295.292L5.39814 299.419L1.22611 303.59L0.996096 303.82L0.996096 304.145L0.996094 324.776V325.561H1.7811H22.0572H22.3822L22.6122 325.332L26.8546 321.09L32.5332 326.767L26.9561 332.342L22.985 328.214L22.7534 327.973H22.4192H1.78109H0.996094V328.758V349.027V349.352L1.22611 349.582L6.6572 355.012L7.76717 353.901L2.56609 348.702L2.56609 329.543H22.0851L25.8456 333.452L20.1563 339.14L18.9914 337.975L18.7531 337.737L18.4163 337.746L11.3559 337.927L10.591 337.946V338.712V345.227V345.552L10.821 345.782L20.2349 355.193L21.3449 354.082L21.2666 354.004L26.9342 348.338L30.9053 352.467L31.1369 352.708H31.4711H52.1092H52.8942V351.923V331.653V331.326L52.6615 331.096L48.0373 326.518L52.4832 322.074L52.7132 321.844V321.519V301.249V300.464H51.9282H31.6521H31.327L31.0971 300.694L26.7641 305.026L21.2666 299.53L26.9341 293.865L30.9053 297.993L31.1369 298.234H31.4711H52.1092H52.8942V297.449V277.18V276.852L52.6615 276.622L48.0373 272.044L52.4832 267.6L52.7132 267.37V267.045V246.776V245.991H51.9282H31.6521H31.327L31.0971 246.22L26.8547 250.461L21.2666 244.875L26.9342 239.21L30.9053 243.338L31.1369 243.579H31.4711H52.1092H52.8942V242.794L52.8942 222.525V222.197L52.6615 221.967L48.1283 217.48L52.4832 213.126L52.7132 212.896V212.571V192.302V191.517H51.9282H31.6521H31.327L31.0971 191.747L26.8547 195.988L21.2666 190.401L26.9342 184.736L30.9053 188.864L31.1369 189.105H31.4711H52.1092H52.8942V188.32V168.051V167.723L52.6615 167.493L48.0374 162.916L52.4832 158.471L52.7132 158.242V157.916V137.647V136.862H51.9282H31.6521H31.327L31.0971 137.092L26.7641 141.423L21.2666 135.928L26.9342 130.262L30.9053 134.391L31.1369 134.631H31.4711H52.1092H52.8942V133.846V113.577V113.25L52.6615 113.019L48.0374 108.442L52.4832 103.998L52.7132 103.768V103.442L52.7132 83.1731V82.3881H51.9282H31.6521H31.327L31.0971 82.618L26.7641 86.9495L21.2666 81.4538L26.9342 75.7882L30.9053 79.9168L31.1369 80.1576H31.4711H52.1092H52.8942V79.3726V59.1033V58.7758L52.6615 58.5454L48.1283 54.0582L52.4832 49.7048L52.7132 49.4748V49.1496V28.6993V27.9143H51.9282H31.6521H31.327L31.0971 28.1441L26.8546 32.3852L21.2666 26.799L26.9342 21.1334L30.9053 25.262L31.1369 25.5028H31.4711H52.1092H52.8942V24.7178V4.44849V4.12097L52.6615 3.89058L48.7311 0H46.4994L51.3242 4.77599V23.9328H31.8052L28.0447 20.0232L33.553 14.5168L34.8989 15.8622L35.1372 16.1004L35.474 16.0918L42.5344 15.9108L43.2993 15.8912V15.1261L43.2993 8.61093V8.28569L43.0693 8.05576L35.0108 0H32.2762ZM35.7706 14.5137L34.6633 13.4068L40.4324 7.63966L41.7293 8.93616V14.3609L35.7706 14.5137ZM33.6435 0.853072L39.322 6.52969L20.1563 25.6891L14.4778 20.0124L33.6435 0.853072ZM19.1365 13.1353L13.3674 18.9024L12.161 17.6965V12.2717L18.1197 12.1189L19.1365 13.1353ZM25.8456 6.42844L20.2468 12.0254L18.9914 10.7704L18.7532 10.5322L18.4163 10.5408L11.3559 10.7218L10.591 10.7414V11.5065V18.0217V18.3469L10.8211 18.5769L25.7443 33.4951L20.0658 39.1718L2.56611 21.6779L2.56611 2.51884L22.0851 2.51884L25.8456 6.42844ZM13.2554 34.5836L18.9554 40.2818L17.7493 41.4875H11.98V35.7428L13.2554 34.5836ZM6.48806 27.8185L12.1438 33.4724L10.667 34.8145L10.41 35.0481V35.3954V42.2725V43.0575H11.195H18.0744H18.3995L18.6294 42.8277L31.9772 29.4843H51.1432V48.8244L47.0125 52.9537L41.397 47.395L43.2503 45.5423L43.4803 45.3124V44.9871V38.472V37.687H42.6953H35.6349H35.3098L35.0799 37.9168L21.7321 51.2602L2.56611 51.2602L2.56611 31.7391L6.48806 27.8185ZM41.9103 44.6619L40.2812 46.2905L34.5747 40.6419L35.96 39.257H41.9103V44.6619ZM27.8745 47.3398L33.4643 41.7518L51.3242 59.4308V78.5876H31.8052L28.0447 74.678L33.6435 69.0811L34.8989 70.336L35.1372 70.5742L35.474 70.5656L42.5344 70.3846L43.2993 70.3651V69.5999V63.0847V62.7595L43.0693 62.5296L27.8745 47.3398ZM35.7706 68.9875L34.7539 67.9711L40.5229 62.204L41.7293 63.41V68.8348L35.7706 68.9875ZM33.6435 55.3269L39.4126 61.094L20.1563 80.3439L14.3873 74.5767L33.6435 55.3269ZM19.046 67.6996L13.2769 73.4668L12.161 72.3513V66.9265L18.1198 66.7738L19.046 67.6996ZM25.7569 60.991L20.1563 66.5897L18.9914 65.4252L18.7531 65.187L18.4163 65.1956L11.3559 65.3766L10.591 65.3962V66.1613V72.6765V73.0017L10.8211 73.2317L25.6538 88.0595L20.0622 93.6492L2.56611 76.3305L2.56611 57.1736L22.0851 57.1736L25.7569 60.991ZM13.2222 89.0877L18.9518 94.7592L17.7493 95.9613H11.98V90.2166L13.2222 89.0877ZM6.51397 82.4474L12.1048 87.9816L10.667 89.2883L10.41 89.5219V89.8692V96.7463V97.5313H11.195H18.0744H18.3995L18.6294 97.3015L31.9772 83.9581H51.1432L51.1432 103.117L46.9215 107.337L41.4879 101.959L43.2503 100.197L43.4803 99.9672V99.6419V93.1268V92.3418H42.6953H35.6349H35.3098L35.0799 92.5717L21.7321 105.915H2.5661L2.56611 86.394L6.51397 82.4474ZM41.9103 99.3167L40.3721 100.854L34.6656 95.2057L35.96 93.9118H41.9103V99.3167ZM27.965 101.904L33.5553 96.3157L51.3242 113.905V133.061H31.8052L28.0447 129.152L33.6435 123.555L34.8989 124.81L35.1372 125.048L35.474 125.039L42.5344 124.858L43.2993 124.839V124.074V117.559V117.233L43.0693 117.003L27.965 101.904ZM35.7706 123.461L34.7538 122.445L40.5229 116.678L41.7293 117.884V123.309L35.7706 123.461ZM33.6435 109.801L39.4125 115.568L20.1563 134.818L14.3873 129.051L33.6435 109.801ZM19.046 122.173L13.2769 127.941L12.161 126.825V121.4L18.1198 121.248L19.046 122.173ZM25.7569 115.465L20.1563 121.064L18.9914 119.899L18.7532 119.661L18.4163 119.669L11.3559 119.85L10.591 119.87V120.635V127.15V127.476L10.8211 127.706L25.6538 142.533L20.0622 148.123L2.5661 130.804L2.5661 111.647H22.0851L25.7569 115.465ZM13.2222 143.562L18.9518 149.233L17.7493 150.435H11.98V144.69L13.2222 143.562ZM6.51396 136.921L12.1048 142.455L10.667 143.762L10.41 143.996V144.343V151.22V152.005H11.195H18.0744H18.3995L18.6294 151.775L31.9772 138.432H51.1432V157.591L46.9215 161.811L41.4879 156.433L43.2503 154.671L43.4803 154.441V154.116V147.601V146.816H42.6953H35.6349H35.3098L35.0799 147.045L21.7321 160.389H2.5661L2.5661 140.868L6.51396 136.921ZM41.9103 153.791L40.3721 155.328L34.6656 149.68L35.96 148.386H41.9103V153.791ZM27.8745 156.468L33.5553 150.79L51.3242 168.378V187.535H31.8052L28.0447 183.626L33.553 178.119L34.8989 179.465L35.1372 179.703L35.474 179.694L42.5344 179.513L43.2993 179.494V178.729V172.213V171.888L43.0693 171.658L27.8745 156.468ZM35.7706 178.116L34.6633 177.009L40.4324 171.242L41.7293 172.539V177.963L35.7706 178.116ZM33.6435 164.456L39.322 170.132L20.1563 189.292L14.4778 183.615L33.6435 164.456ZM19.1365 176.738L13.3674 182.505L12.161 181.299V175.874L18.1198 175.721L19.1365 176.738ZM25.8456 170.031L20.2468 175.628L18.9914 174.373L18.7531 174.135L18.4163 174.143L11.3559 174.324L10.591 174.344V175.109V181.624V181.949L10.821 182.179L25.7443 197.098L20.1531 202.687L2.5661 185.278L2.5661 166.121H22.0851L25.8456 170.031ZM13.3175 198.13L19.0428 203.797L17.7493 205.09H11.98V199.345L13.3175 198.13ZM6.51397 191.395L12.2002 197.024L10.667 198.417L10.41 198.651V198.998V205.875V206.66H11.195H18.0744H18.3995L18.6294 206.43L31.9772 193.087H51.1432V212.246L47.0125 216.375L41.4879 210.907L43.2503 209.145L43.4803 208.915V208.59V202.074V201.289H42.6953H35.6349H35.3098L35.0799 201.519L21.7321 214.863H2.5661L2.5661 195.342L6.51397 191.395ZM41.9103 208.264L40.3721 209.802L34.6656 204.153L35.96 202.859H41.9103V208.264ZM27.8745 210.942L33.5553 205.263L51.3242 222.852L51.3242 242.009H31.8052L28.0447 238.1L33.553 232.593L34.8989 233.939L35.1372 234.177L35.474 234.168L42.5344 233.987L43.2993 233.967V233.202V226.687V226.362L43.0693 226.132L27.8745 210.942ZM35.7706 232.59L34.6633 231.483L40.4324 225.716L41.7293 227.012V232.437L35.7706 232.59ZM33.6435 218.929L39.322 224.606L20.1563 243.765L14.4778 238.089L33.6435 218.929ZM19.1365 231.212L13.3674 236.979L12.161 235.773V230.348L18.1197 230.195L19.1365 231.212ZM25.8456 224.505L20.2468 230.102L18.9914 228.847L18.7531 228.609L18.4163 228.617L11.3559 228.798L10.591 228.818V229.583V236.098V236.423L10.821 236.653L25.7443 251.571L20.1531 257.161L2.5661 239.752L2.5661 220.595H22.0851L25.8456 224.505ZM13.3175 252.604L19.0428 258.271L17.7493 259.564H11.98V253.819L13.3175 252.604ZM6.51397 245.869L12.2001 251.497L10.667 252.891L10.41 253.124V253.472V260.349V261.134H11.195H18.0744H18.3995L18.6294 260.904L31.9772 247.561H51.1432V266.72L46.9215 270.94L41.306 265.381L43.2503 263.438L43.4803 263.208V262.882V256.367V255.582H42.6953H35.6349H35.3098L35.0799 255.812L21.7321 269.156H2.5661L2.5661 249.815L6.51397 245.869ZM41.9103 262.557L40.1902 264.277L34.4837 258.628L35.96 257.152H41.9103V262.557ZM27.7839 265.326L33.3733 259.738L51.3242 277.507V296.664H31.8052L28.0447 292.754L33.6435 287.157L34.8989 288.412L35.1372 288.651L35.474 288.642L42.5344 288.461L43.2993 288.441V287.676V281.161V280.836L43.0693 280.606L27.7839 265.326ZM35.7706 287.064L34.7538 286.047L40.5229 280.28L41.7293 281.486V286.911L35.7706 287.064ZM33.6435 273.403L39.4125 279.17L20.1563 298.42L14.3872 292.653L33.6435 273.403ZM19.0459 285.776L13.2769 291.543L12.161 290.428V285.003L18.1197 284.85L19.0459 285.776ZM25.7569 279.067L20.1563 284.666L18.9914 283.502L18.7531 283.263L18.4163 283.272L11.3559 283.453L10.591 283.473V284.238V290.753V291.078L10.821 291.308L25.6537 306.136L20.0622 311.726L2.5661 294.407L2.5661 275.25H22.0851L25.7569 279.067ZM13.2222 307.164L18.9518 312.836L17.7493 314.038H11.98V308.293L13.2222 307.164ZM6.51395 300.524L12.1048 306.058L10.667 307.365L10.41 307.598V307.946V314.823V315.608H11.195H18.0744H18.3995L18.6294 315.378L31.9772 302.034H51.1432V321.194L46.9215 325.414L41.4879 320.035L43.2503 318.273L43.4803 318.044V317.718L43.4803 311.203V310.418H42.6953H35.6349H35.3098L35.0799 310.648L21.7321 323.991H2.56609L2.5661 304.47L6.51395 300.524ZM41.9103 317.393L40.3721 318.931L34.6656 313.282L35.96 311.988H41.9103L41.9103 317.393ZM27.9649 319.98L33.5553 314.392L51.3242 331.981V351.138H31.8052L28.0447 347.228L33.6435 341.631L34.8989 342.886L35.1372 343.124L35.474 343.116L42.5344 342.935L43.2993 342.915V342.15V335.635V335.31L43.0693 335.08L27.9649 319.98ZM35.7706 341.538L34.7538 340.521L40.5229 334.754L41.7293 335.96L41.7293 341.385L35.7706 341.538ZM33.6435 327.877L39.4126 333.644L20.1563 352.894L14.3873 347.127L33.6435 327.877ZM19.046 340.25L13.2769 346.017L12.161 344.901V339.477L18.1197 339.324L19.046 340.25Z" fill="#C12DD9"/>
</svg>
