<svg width="41" height="33" viewBox="0 0 41 33" fill="none" xmlns="http://www.w3.org/2000/svg">
<path d="M39.9264 12.7661L39.4262 11.8961C39.2933 11.6656 39.0744 11.4972 38.8175 11.4279C38.5607 11.3586 38.2868 11.3941 38.056 11.5265L32.0048 15.0644C31.8942 14.2241 31.4824 13.4524 30.8456 12.893C30.2089 12.3335 29.3907 12.0242 28.5432 12.0227H19.0303V16.0187C19.0518 16.2948 19.0159 16.5724 18.9249 16.8339C18.834 17.0955 18.69 17.3355 18.5019 17.5387C18.3138 17.742 18.0857 17.9042 17.8319 18.0151C17.5782 18.126 17.3042 18.1833 17.0273 18.1833C16.7504 18.1833 16.4764 18.126 16.2227 18.0151C15.9689 17.9042 15.7408 17.742 15.5527 17.5387C15.3646 17.3355 15.2206 17.0955 15.1297 16.8339C15.0387 16.5724 15.0028 16.2948 15.0243 16.0187V10.6184C15.025 10.2796 15.1114 9.94643 15.2754 9.64996C15.4395 9.3535 15.6758 9.10334 15.9625 8.92275L18.0519 7.61486C18.6882 7.21811 19.4236 7.00918 20.1735 7.01214H26.7631L34.2609 2.74292C34.4908 2.61108 34.6593 2.39373 34.7297 2.13821C34.8001 1.8827 34.7666 1.60973 34.6366 1.37877L34.1444 0.504836C34.0126 0.274925 33.7952 0.106429 33.5397 0.0360591C33.2842 -0.0343109 33.0112 -0.000852924 32.7802 0.129144L25.9776 4.01464H20.1755C18.8633 4.01515 17.5776 4.38408 16.4648 5.07944L14.3673 6.38733C13.8101 6.7335 13.3276 7.18743 12.9481 7.7225C12.5686 8.25758 12.2998 8.86303 12.1574 9.50336L8.43861 11.7254C7.69696 12.1731 7.08371 12.805 6.65845 13.5598C6.2332 14.3145 6.01039 15.1665 6.01169 16.0328V18.1664L0.502875 21.3467C0.272366 21.4796 0.103984 21.6985 0.0346797 21.9553C-0.0346243 22.2122 0.000811132 22.4861 0.13321 22.7169L0.633463 23.5868C0.699256 23.7017 0.787129 23.8025 0.892023 23.8834C0.996918 23.9642 1.11677 24.0235 1.24467 24.0579C1.37257 24.0922 1.50601 24.101 1.63729 24.0836C1.76858 24.0662 1.89513 24.023 2.00966 23.9565L9.01521 19.9062V16.0388C9.01444 15.6909 9.10402 15.3488 9.27518 15.0459C9.44633 14.7431 9.6932 14.4898 9.99161 14.311L12.0187 13.0835V15.7254C11.9907 17.0019 12.4322 18.2443 13.2595 19.2168C14.0869 20.1893 15.2424 20.8243 16.507 21.0011C17.2048 21.0741 17.9101 20.9995 18.5773 20.7823C19.2444 20.5651 19.8584 20.2101 20.3796 19.7403C20.9007 19.2705 21.3172 18.6964 21.6022 18.0553C21.8872 17.4142 22.0343 16.7203 22.0338 16.0187V15.0142H28.5432C28.6757 15.0147 28.8026 15.0676 28.8963 15.1613C28.99 15.255 29.0429 15.3819 29.0434 15.5144V17.5235C29.0429 17.656 28.99 17.7829 28.8963 17.8766C28.8026 17.9703 28.6757 18.0232 28.5432 18.0237H26.5341V21.7786C26.5341 22.2401 26.3508 22.6826 26.0245 23.0089C25.6982 23.3352 25.2557 23.5185 24.7943 23.5185H23.2855V25.0213C23.2855 25.5541 23.0738 26.0651 22.697 26.4419C22.3203 26.8186 21.8093 27.0303 21.2764 27.0303H13.2282L9.29648 29.3066C9.06597 29.4394 8.89759 29.6583 8.82828 29.9152C8.75898 30.1721 8.79442 30.4459 8.92681 30.6767L9.42707 31.5466C9.55994 31.7772 9.77883 31.9455 10.0357 32.0148C10.2926 32.0841 10.5665 32.0487 10.7972 31.9163L14.0258 30.0459H21.2764C22.3781 30.0448 23.4488 29.6816 24.3237 29.0122C25.1986 28.3427 25.8292 27.4042 26.1182 26.3412C27.1023 26.0508 27.9664 25.4505 28.5818 24.6295C29.1971 23.8085 29.531 22.8107 29.5336 21.7847V20.8906C30.076 20.7267 30.5705 20.4338 30.975 20.037C31.3794 19.6403 31.6817 19.1515 31.8561 18.6124L39.5588 14.1362C39.7889 14.003 39.9569 13.784 40.0258 13.5271C40.0947 13.2703 40.059 12.9966 39.9264 12.7661Z" fill="#C12DD9"/>
</svg>
