<svg width="412" height="359" viewBox="0 0 412 359" fill="none" xmlns="http://www.w3.org/2000/svg">
<path fill-rule="evenodd" clip-rule="evenodd" d="M164 349.66V299.523C100.116 293.953 50 240.329 50 175C50 109.671 100.116 56.0472 164 50.4773V0.34009C72.4747 6.01672 2.34254e-05 82.0447 1.5299e-05 175C7.17257e-06 267.955 72.4746 343.983 164 349.66Z" fill="#42CFEE"/>
<path d="M141.073 176.771C140.686 179.676 142.623 182.001 145.915 182.388M140.686 175.415C142.816 174.64 144.947 175.221 146.496 176.771C148.433 178.902 148.821 182.001 150.37 184.519M143.978 174.253C151.532 173.672 151.532 180.838 156.375 183.938M118.992 181.032C117.249 178.708 118.605 175.609 122.866 175.802C127.708 174.059 136.812 172.897 141.073 173.672C150.177 169.604 161.023 173.866 162.767 182.388M162.767 182.388C163.929 185.293 168.19 188.005 171.483 187.811M162.767 182.388C164.704 180.451 167.803 179.676 170.127 181.032C173.807 182.969 176.712 188.199 179.812 189.167C176.131 192.266 168.384 191.879 164.122 188.392C165.672 196.334 156.956 200.401 148.046 195.559C143.978 193.041 138.555 190.91 133.325 189.555C129.258 188.586 125.19 188.78 122.672 188.392C120.929 188.199 120.542 187.23 120.348 186.262C122.285 185.487 129.064 185.293 133.906 185.487C129.452 184.131 123.447 183.55 119.767 183.744C119.186 183.744 118.411 183.55 118.217 182.969C117.636 182.194 118.024 180.645 119.573 180.838C120.542 181.032 121.316 181.226 121.898 180.838C122.672 180.451 123.06 179.483 122.672 178.514C122.285 177.739 121.51 177.546 120.929 177.739C120.348 177.933 119.767 178.514 119.573 179.289M140.105 191.685C151.339 198.852 158.505 220.352 157.343 233.716M197.825 194.978C195.888 190.136 194.92 177.933 196.856 170.185C194.726 169.798 192.208 169.023 191.239 168.248C189.69 170.766 187.947 176.965 188.721 182.582C184.266 165.537 186.591 141.906 195.113 133.578C189.109 134.74 179.037 133.771 174.969 131.641C176.519 135.321 177.1 147.911 176.325 156.821M187.172 204.469C196.082 200.789 203.442 188.78 203.442 180.064M225.136 193.816C222.23 198.077 221.068 206.6 222.811 211.054M209.446 175.996C209.446 174.059 208.672 172.703 206.928 171.929C204.604 170.96 200.537 173.284 197.825 171.929C197.244 177.739 202.474 181.807 208.672 179.87C206.928 189.361 214.482 196.528 224.167 194.203C229.009 192.654 234.239 192.654 235.982 193.041C240.631 193.428 242.955 190.329 242.762 187.037C240.825 187.424 239.469 187.23 236.951 186.843C241.793 186.649 243.149 184.712 242.955 182.582M167.222 212.023C157.343 221.126 154.825 238.946 161.023 247.469M164.122 246.5C159.28 235.847 165.866 220.739 176.906 216.478M165.091 264.126C151.145 263.351 151.726 244.563 169.352 246.5M217.194 225.775C209.446 241.077 217.775 258.122 233.658 264.126M126.159 264.126H238.307C244.892 264.32 244.892 254.635 237.532 253.086M237.338 239.14C235.789 238.752 233.852 240.108 234.239 242.045C234.82 245.919 240.631 246.5 242.568 241.852C244.505 236.816 239.081 231.973 233.464 233.716C226.879 235.847 225.717 245.919 232.302 250.568C235.401 252.698 239.662 253.667 242.374 252.892C250.509 250.568 254.189 238.752 245.861 228.68C234.433 210.473 199.956 199.82 176.325 206.018" stroke="#292526" stroke-width="1.62" stroke-miterlimit="22.926"/>
<path d="M144.175 178.708C145.03 178.708 145.724 178.015 145.724 177.159C145.724 176.303 145.03 175.609 144.175 175.609C143.319 175.609 142.625 176.303 142.625 177.159C142.625 178.015 143.319 178.708 144.175 178.708Z" fill="#292526"/>
<path d="M144.175 178.708C145.03 178.708 145.724 178.015 145.724 177.159C145.724 176.303 145.03 175.609 144.175 175.609C143.319 175.609 142.625 176.303 142.625 177.159C142.625 178.015 143.319 178.708 144.175 178.708Z" stroke="#292526" stroke-width="1.62" stroke-miterlimit="22.926"/>
<path d="M226.891 175.997C228.247 179.483 226.31 182.776 222.824 182.582M218.756 183.745C219.143 179.483 223.017 175.222 226.31 175.416M215.463 179.871C216.238 176.772 220.305 173.866 223.211 174.254M135.275 145.781C134.5 147.911 133.144 149.461 130.82 150.817C125.784 153.722 119.779 152.754 113 154.11C116.099 149.461 118.423 142.101 123.266 138.808C126.558 136.484 130.239 135.515 134.694 135.709M147.09 140.164C158.518 134.74 173.045 142.294 176.337 155.272M145.54 129.704C160.842 128.736 176.337 142.101 176.337 156.434M145.54 145.587C144.572 146.749 142.248 146.556 141.473 144.812C139.73 141.52 144.184 137.839 148.058 140.551C152.32 143.457 150.576 150.042 145.153 151.592C139.342 153.141 132.757 147.33 135.662 140.745C136.437 138.808 138.374 137.258 139.923 136.677C138.374 136.871 135.856 136.484 134.306 135.128C128.689 130.479 131.982 122.344 137.793 120.988C143.216 119.826 147.865 124.862 145.347 129.511C143.022 133.772 137.599 132.61 137.599 128.736C137.599 126.799 139.536 125.637 140.892 126.218M297.782 122.344C296.62 122.731 295.264 121.957 295.264 120.407C295.264 117.502 299.526 116.727 301.269 119.826C303.012 123.313 299.526 126.993 295.458 126.218M185.247 133.966C184.86 136.096 184.472 139.776 184.085 141.326M183.31 133.966C183.117 135.903 182.729 139.583 182.342 141.132M175.563 84.7678C176.144 74.6958 185.247 65.2049 197.256 60.7499C186.797 68.885 191.252 76.6327 188.54 84.5741M215.657 84.1867C220.499 76.0516 236.382 71.403 248.585 73.5336C229.215 76.2453 232.508 90.5785 225.341 95.0335M177.887 89.4164C178.081 85.7362 174.594 83.2182 171.495 83.7993C168.783 84.1867 166.072 86.8984 166.265 92.1281M214.882 90.1912C218.756 84.7678 213.72 79.9255 209.265 81.6687M182.729 90.1912C183.117 84.1867 188.54 83.0246 191.445 85.5426M219.143 94.065C228.053 91.3533 230.184 102.394 221.855 104.331M200.549 86.3173C201.324 84.3804 203.842 81.6687 205.779 81.2813M197.45 92.1281C198.612 90.1912 201.711 87.8669 203.648 87.2858M193.382 99.4884C194.932 96.7767 198.999 94.065 201.324 93.6776M184.472 133.578C183.698 126.799 188.54 118.277 194.351 116.533M188.54 109.754C190.09 106.268 195.319 102.006 198.999 101.232M196.481 108.398C192.608 109.56 187.572 113.434 185.247 120.407M206.553 72.7589C199.774 93.4839 182.729 108.592 184.279 133.966M219.531 108.786C215.851 107.817 210.234 108.592 206.553 110.335M162.004 96.3893C160.455 99.8758 160.067 105.493 161.229 109.367M213.526 113.628C208.297 111.497 200.549 113.434 196.481 117.502M165.878 103.362C162.973 108.205 163.36 116.146 166.459 120.988M208.684 118.47C203.454 116.34 195.126 118.083 191.639 122.344M169.558 108.786C166.459 113.434 166.846 122.15 170.333 126.412M203.842 123.119C198.612 120.407 190.671 122.538 187.765 127.767M187.765 127.767C187.378 128.155 186.022 130.867 184.86 133.772M187.765 127.767C197.256 111.885 219.918 100.457 241.418 103.362C232.508 104.137 231.733 107.042 228.053 109.754C225.341 111.691 223.017 110.723 221.855 109.754M173.432 114.596C169.752 119.245 170.527 127.574 174.982 131.254M198.806 127.574C193.963 124.668 186.99 126.993 186.022 131.254M176.918 120.213C173.238 124.475 174.013 130.867 177.887 132.803M202.292 129.123C202.292 130.479 201.517 131.835 199.193 132.61C198.031 132.997 196.481 133.385 194.932 133.772M179.049 116.921C180.405 117.114 181.373 118.277 181.761 120.988C182.342 124.668 181.18 130.285 183.504 133.966M208.684 125.249C208.684 128.542 204.616 130.285 201.13 128.542M198.418 112.078C199.387 112.853 199.774 113.822 199.774 114.984M205.972 84.3804C209.652 83.4119 210.427 78.7633 208.297 77.9886C210.04 75.4706 209.459 70.8219 208.684 63.6553C206.941 71.0156 199.387 75.2769 200.936 78.3759M200.936 78.7633C198.806 77.0201 194.544 80.7002 195.9 85.3489M206.941 84.1867C209.071 84.9615 208.103 89.6101 204.229 90.7722M195.513 84.5741C192.995 82.6372 189.121 86.7047 190.671 91.9344M205.004 90.3849C207.522 91.3533 206.36 96.3893 201.905 97.7452M190.283 90.7722C187.378 89.9975 184.279 95.2272 186.603 99.2947M202.68 97.1641C204.423 98.7136 203.454 103.556 199.387 104.718M181.761 105.299C179.436 104.912 177.306 107.623 177.887 110.723M185.828 97.9389C182.729 97.5515 180.405 102.006 182.148 105.88M200.162 104.331C202.68 106.268 201.324 111.11 197.062 112.659M176.337 110.141C179.63 110.723 180.599 114.984 178.274 118.277M214.107 120.407C214.688 123.7 210.815 126.218 207.134 124.668M172.657 103.943C175.95 103.943 177.693 108.205 175.563 111.497M219.531 115.565C220.112 118.858 216.238 121.376 212.558 119.826M168.783 97.7452C172.076 97.7452 173.819 102.006 171.689 105.299M224.373 110.723C224.954 114.015 221.08 116.533 217.4 114.984M164.91 91.9344C168.202 91.9344 169.946 96.1956 167.815 99.4884M176.144 132.029C161.617 120.02 153.869 95.0335 160.648 73.921C159.874 82.8309 162.585 84.1867 164.522 88.2542C165.878 91.1596 164.522 93.4839 163.554 94.2587M198.999 193.429C197.256 196.528 197.062 201.371 197.256 203.695M201.711 188.199C200.162 193.042 200.549 199.046 202.292 202.533M203.261 182.195C202.292 187.812 203.454 195.366 206.553 200.015M205.585 180.258C204.423 185.681 206.941 194.01 210.427 197.109M129.27 263.933C137.018 264.127 148.058 261.609 152.707 258.51M123.847 240.69C108.932 243.595 110.095 263.933 125.977 264.127C135.856 263.739 141.86 253.861 137.793 244.37C136.243 241.077 137.018 236.816 139.536 235.654M154.256 212.411C134.112 217.641 119.392 236.429 123.459 254.442M152.126 243.789C153.094 245.92 156.387 248.438 158.711 248.825M157.743 237.204C145.54 237.591 143.991 253.861 155.419 256.766M180.986 249.019C191.252 253.086 201.711 253.086 208.684 248.438C209.459 247.857 210.427 247.469 211.008 247.663C211.783 247.857 212.17 248.438 211.783 249.406C211.396 249.987 210.815 249.987 210.427 250.375C209.652 250.956 209.846 251.73 210.234 252.118C210.621 252.505 211.977 252.699 212.558 251.537C213.526 249.406 214.882 248.05 216.044 247.276M171.495 256.573C181.567 259.478 195.319 258.703 204.035 252.893C206.166 251.537 208.49 252.312 207.716 254.442C207.134 255.217 206.36 255.411 205.972 255.798C205.004 256.573 205.198 257.541 205.585 258.122C206.166 258.703 207.716 258.897 208.49 257.541C210.621 252.893 215.076 251.537 217.594 256.766C219.337 259.672 221.468 261.609 225.535 264.127M188.346 218.609C192.801 226.163 191.058 236.622 184.472 239.722C180.018 242.046 179.049 247.663 182.342 251.343C186.022 255.604 177.306 259.478 167.428 255.604M326.643 220.546C328.192 225.195 328.773 234.492 327.805 239.14M323.35 215.897C325.093 221.321 325.093 232.749 323.156 238.559M309.404 263.739C311.728 259.284 316.958 250.375 319.863 246.307M317.926 242.821C318.701 247.082 324.318 250.375 329.548 249.406M320.638 255.604C328.773 253.28 335.359 243.595 333.809 236.041M275.508 234.492C280.931 225.388 289.066 229.65 296.62 224.42C304.174 218.997 306.499 210.087 304.949 202.726M267.373 224.226C270.278 229.456 269.891 237.785 266.404 240.884M266.017 253.861C269.116 256.185 269.31 261.996 266.598 264.127M257.882 217.253C253.039 226.55 253.233 237.591 257.688 242.821C261.175 246.888 266.792 247.663 272.602 243.789M250.328 243.983C250.715 245.92 251.296 247.663 252.265 248.825C256.139 254.055 262.337 255.992 268.922 252.312M252.458 224.807C250.909 228.294 250.134 232.168 249.94 235.848M276.476 253.086C280.156 255.411 281.125 260.64 278.219 263.739M277.638 241.271C280.156 246.888 277.251 254.636 271.828 256.766M304.949 244.37C310.76 248.631 312.89 258.316 309.21 263.739M301.075 245.532C305.724 250.568 306.886 259.478 303.399 263.546M295.652 246.113C298.945 249.019 300.688 255.411 299.332 258.897M290.809 245.92C295.845 251.343 296.62 259.866 292.165 263.158M280.156 229.65C287.904 238.753 304.562 236.235 309.017 226.357M304.368 199.24C307.08 212.217 299.719 222.096 290.035 218.803C283.255 216.091 281.9 206.213 285.386 199.046M301.656 189.555C305.53 200.789 309.404 223.451 309.598 234.879M304.755 176.384C309.404 175.997 315.215 177.74 316.958 179.483M300.881 178.127C304.755 178.127 309.598 180.452 311.535 182.97M316.958 161.083C313.665 163.407 309.985 170.573 309.598 175.222M299.332 178.902C302.625 181.42 305.724 185.875 306.111 189.555M296.233 181.42C298.945 182.776 300.881 186.844 300.3 189.362M296.233 181.42C291.003 180.839 285.967 181.808 283.062 183.938C280.931 185.488 279.963 188.006 281.512 190.524M296.233 181.42C300.881 176.965 311.341 173.673 318.12 174.835M305.917 73.5336C303.981 77.4075 302.044 82.6372 302.044 83.993M274.346 62.6869C274.346 66.9481 273.765 73.7273 273.183 76.2453M268.341 75.6643C280.35 76.439 299.719 82.0561 307.08 86.8984M272.796 115.759C273.377 119.051 272.021 123.506 270.084 124.475M270.084 124.475C255.557 128.93 241.805 146.943 242.774 160.308C240.449 177.934 258.075 186.263 278.026 176.578M270.084 124.475C271.44 127.574 274.152 129.704 277.445 130.479M287.517 153.722C286.936 140.551 295.264 131.448 304.174 132.997M258.269 133.966C269.891 133.578 279.769 147.524 281.319 155.078M275.895 165.731C273.765 169.411 271.828 176.191 271.828 179.096M269.891 147.718C272.99 151.398 274.152 159.92 272.215 164.763M263.111 146.943C259.044 152.56 259.625 161.276 264.274 164.569M253.427 155.659C253.621 160.114 258.657 164.763 263.305 164.763M269.891 92.3218C271.247 94.6461 273.958 95.2272 276.476 94.065M280.156 94.8398C281.9 98.1325 287.129 98.5199 289.454 94.6461M269.116 89.9975C271.44 88.4479 273.958 89.029 275.895 90.1912C276.67 90.5785 277.251 91.1596 278.026 91.9344M280.544 92.5155C282.868 90.9659 284.999 91.547 286.936 92.7092C288.679 93.6776 289.841 95.8082 292.553 96.583M280.544 89.2227C284.224 87.2858 289.841 88.8353 291.778 92.5155M269.116 83.993C274.152 83.4119 278.607 87.0921 278.026 91.3533C277.057 95.8082 276.089 100.069 275.314 103.556C276.089 103.75 277.057 103.943 278.413 104.137C279.575 105.299 281.512 105.105 281.9 103.75M280.544 118.858C281.9 118.858 283.449 118.47 285.192 117.889M267.954 80.3129C269.503 83.993 270.665 90.7722 269.31 96.3893C266.985 106.268 269.891 114.403 275.508 117.308M292.94 106.074C292.94 108.592 291.197 112.853 289.454 114.984C289.26 118.858 290.422 123.506 293.134 126.024M294.49 85.1552C298.751 88.4479 299.332 96.9704 295.264 102.2C299.913 104.137 297.589 111.885 290.422 113.628M300.494 71.2093C305.336 73.1463 309.21 75.0832 311.728 76.8264C309.21 79.9255 306.499 86.8984 306.305 90.5785M306.305 90.5785C308.823 97.7452 304.368 105.88 297.395 106.655M306.305 90.5785C297.782 85.1552 278.607 80.3129 267.76 80.7002C268.922 74.3084 268.535 64.8175 266.985 61.331C272.409 62.2995 278.607 63.849 284.805 65.7859M319.089 196.528C320.251 205.825 319.089 218.415 312.697 228.681M319.476 184.907C321.219 194.785 316.377 208.537 309.791 212.217M283.643 244.176C291.197 249.019 291.003 259.866 284.418 263.158M273.183 237.785C286.355 250.762 310.372 248.438 320.251 232.168M318.895 210.474C322.962 214.735 327.224 221.514 329.742 225.969C340.201 245.339 335.165 265.095 313.665 264.127C307.08 263.739 298.751 263.352 290.035 263.352C282.093 263.352 273.958 263.933 266.792 264.127M246.648 250.956C248.778 259.091 255.557 264.514 267.179 264.127M262.918 212.024C262.337 212.605 261.562 213.379 260.981 213.961C255.17 219.965 251.103 226.357 248.585 232.749M266.404 200.983C260.4 212.024 261.756 227.906 269.31 234.879M265.629 195.947C266.017 206.794 274.152 219.771 281.706 221.708M279.188 140.551C280.737 140.745 283.449 140.357 284.611 139.583M289.647 204.857C291.778 206.019 296.039 205.244 298.17 203.307M289.841 164.956L278.413 110.529C277.251 111.11 275.314 111.497 274.346 111.11L283.449 166.312M293.327 181.227L292.94 179.29M288.291 197.109L290.616 210.668C292.553 212.217 297.395 211.442 299.138 209.312L295.845 193.817M285.386 178.515L285.967 182.389M287.71 154.691C297.589 143.263 317.345 145.975 323.35 160.114M242.774 160.501C249.94 144.619 272.021 142.488 281.512 156.047M280.156 167.668C277.057 170.38 276.864 174.835 278.026 176.772C278.994 178.321 282.868 178.902 286.161 178.321C289.26 177.74 293.521 178.321 293.134 180.452M289.841 174.641C293.521 174.254 295.652 175.803 295.845 177.546C295.845 178.321 295.652 180.064 293.521 180.839M289.454 171.542C292.165 171.155 294.683 171.542 296.039 172.51C297.589 173.673 297.782 175.997 296.039 177.74M287.904 168.83C293.715 166.506 298.557 169.411 297.201 174.254M255.17 174.641C257.688 169.024 266.017 163.988 271.828 164.763M249.94 170.186C256.913 163.794 272.409 162.632 280.737 167.862C287.129 163.407 294.683 164.182 296.039 169.218M264.467 186.844C262.143 198.078 272.021 205.825 284.224 202.339M261.175 180.645C261.562 187.231 269.503 191.299 277.638 189.555C278.026 189.362 279.769 189.168 280.737 188.587M282.868 131.254C287.323 131.06 290.809 129.317 292.94 126.024C314.634 129.317 330.323 163.019 322.962 180.258C321.994 182.582 320.638 184.132 318.701 185.681C314.053 189.555 304.949 190.717 299.719 189.362C298.557 192.461 293.521 195.947 289.26 197.109C288.873 197.109 287.517 197.497 287.323 197.497M205.004 171.736C206.747 166.893 214.107 166.312 216.625 170.38M203.067 177.159C204.81 178.127 208.297 177.546 209.265 175.997C211.008 171.929 215.076 169.992 219.531 170.186C223.405 170.38 227.278 173.479 231.152 175.222C233.089 176.191 238.125 177.74 241.031 178.321C244.904 179.096 243.936 183.938 240.062 183.357C238.125 183.163 237.544 181.227 238.125 180.064M173.432 198.078C174.594 202.339 174.013 209.893 171.882 212.798M171.108 194.979C172.076 198.271 171.689 204.663 170.333 207.762M168.783 192.073C170.527 196.528 168.977 205.438 165.684 210.087M166.653 190.136C167.815 193.623 167.04 200.983 164.91 204.857M164.91 188.781C166.846 194.398 162.973 203.889 159.292 206.794M164.522 188.587C172.464 194.01 178.274 205.244 176.337 210.861M182.148 205.051C183.891 186.65 174.982 161.664 163.941 153.335C165.103 152.173 166.459 149.461 166.846 147.718C171.689 150.623 178.274 158.371 180.599 163.794M151.545 163.601C151.545 166.506 149.608 170.767 147.671 172.317M145.928 172.317C145.347 170.961 145.153 168.83 145.928 167.087C147.284 163.794 149.995 163.019 151.932 158.565C156.387 163.019 157.162 169.992 154.063 173.091M176.531 141.326C181.567 140.551 188.153 141.713 189.508 143.65M179.63 135.709C180.405 135.709 180.986 136.29 180.986 137.065C180.986 137.839 180.405 138.421 179.63 138.421C178.855 138.421 178.274 137.839 178.274 137.065C178.274 136.29 179.049 135.709 179.63 135.709ZM187.959 136.677C188.734 136.677 189.315 137.258 189.315 138.033C189.315 138.808 188.734 139.389 187.959 139.389C187.184 139.389 186.603 138.808 186.603 138.033C186.409 137.258 187.184 136.677 187.959 136.677ZM292.94 198.465C293.909 198.465 294.49 199.24 294.49 200.015C294.49 200.983 293.715 201.564 292.746 201.564C291.778 201.564 291.197 200.789 291.197 200.015C291.197 199.24 291.972 198.465 292.94 198.465ZM299.138 76.8264C294.102 78.5696 284.224 76.2453 279.963 72.3715C285.58 67.1418 290.809 53.0023 290.228 44.8672C298.363 50.678 302.818 66.7544 299.138 76.8264Z" stroke="#292526" stroke-width="1.62" stroke-miterlimit="22.926"/>
<path fill-rule="evenodd" clip-rule="evenodd" d="M223.221 176.781C223.996 176.781 224.771 177.362 224.771 178.331C224.771 179.106 224.19 179.88 223.221 179.88C222.253 179.88 221.672 179.299 221.672 178.331C221.866 177.556 222.447 176.781 223.221 176.781Z" fill="#292526"/>
<path d="M223.221 176.781C223.996 176.781 224.771 177.362 224.771 178.331C224.771 179.106 224.19 179.88 223.221 179.88C222.253 179.88 221.672 179.299 221.672 178.331C221.866 177.556 222.447 176.781 223.221 176.781Z" stroke="#292526" stroke-width="1.62" stroke-miterlimit="22.926"/>
<path d="M282.092 107.809C280.155 108.002 279.38 107.034 278.218 107.227C277.443 107.421 277.056 107.615 276.475 108.39C276.088 107.615 275.7 107.227 275.119 107.227C273.957 106.84 272.988 107.615 272.02 107.421M296.425 109.552C294.295 113.038 294.101 117.881 296.038 118.655M198.998 83.9844C198.611 87.2771 196.867 92.8942 196.286 94.4438M193.768 90.5699C193.768 94.2501 192.8 100.255 191.638 102.773M189.313 95.9933C189.701 100.836 189.12 108.39 187.958 111.101M185.052 103.16C186.408 107.421 186.602 115.169 185.633 118.462M181.953 110.52C183.696 112.845 184.859 120.592 184.277 125.435M290.808 191.096C285.966 192.065 282.867 195.745 284.804 198.456C285.578 199.619 287.322 200.393 288.871 200.2M289.452 188.191C284.997 189.159 281.705 192.258 282.867 194.776C283.06 195.164 283.448 195.745 284.223 196.326M288.096 185.285C283.254 186.254 280.349 189.74 281.898 192.258C281.898 192.258 282.479 193.227 282.673 193.227M309.984 154.488C308.434 161.074 307.659 171.533 308.434 175.407M291.196 151.389C297.394 157.006 302.042 170.371 300.299 178.312M298.362 148.29C303.398 155.457 306.304 169.79 303.979 176.763M213.719 168.047C213.525 164.56 216.624 160.687 219.723 160.299C218.367 164.754 222.241 165.722 221.079 170.371M246.453 196.907C247.615 206.01 255.75 210.465 263.11 209.303M245.484 182.961C247.615 192.065 256.912 197.294 264.466 192.452M243.547 169.015C246.065 179.862 247.615 208.141 247.227 230.222M319.281 199.619C320.443 205.817 327.029 212.209 332.452 212.402M324.317 175.213C329.934 191.29 335.164 224.218 334.776 241.262M307.659 189.547C308.047 191.677 308.628 194.97 308.822 196.52M314.245 187.997C314.439 190.128 312.889 195.551 311.146 199.038M304.56 199.812C306.304 205.042 312.308 207.366 316.376 204.267M302.623 217.438C303.204 222.474 299.137 229.254 294.876 230.803M210.038 241.456C210.232 243.006 210.62 244.555 211.588 246.105M210.813 230.222C210.426 232.353 210.038 234.096 209.845 235.839M205.777 241.844C206.165 243.974 206.552 245.524 207.52 247.461M206.552 229.447C205.971 231.578 205.584 233.708 205.39 235.645M201.516 242.037C201.903 244.555 202.484 246.492 203.453 248.623M202.484 228.479C201.71 230.609 201.322 232.934 201.129 235.258M196.674 241.65C197.061 244.749 197.642 247.073 198.804 249.204M198.03 228.091C197.449 230.222 196.867 232.353 196.674 234.677M186.989 240.294C186.989 243.393 187.764 246.298 188.732 248.623M192.025 241.069C192.219 243.974 192.994 246.686 193.962 249.01M193.575 227.317C192.994 229.254 192.413 231.578 192.219 233.902" stroke="#292526" stroke-width="1.62" stroke-miterlimit="22.926"/>
<path fill-rule="evenodd" clip-rule="evenodd" d="M287.136 93.0987C285.199 96.5852 281.712 95.2294 281.906 92.1303C283.456 91.5492 285.974 92.1303 287.136 93.0987Z" fill="#292526"/>
<path d="M287.136 93.0987C285.199 96.5852 281.712 95.2294 281.906 92.1303C283.456 91.5492 285.974 92.1303 287.136 93.0987Z" stroke="#292526" stroke-width="1.62" stroke-miterlimit="22.926"/>
<path fill-rule="evenodd" clip-rule="evenodd" d="M274.921 90.0013C273.953 93.2941 270.079 92.5193 270.273 89.4203C271.822 89.0329 273.759 89.2266 274.921 90.0013Z" fill="#292526"/>
<path d="M274.921 90.0013C273.953 93.2941 270.079 92.5193 270.273 89.4203C271.822 89.0329 273.759 89.2266 274.921 90.0013Z" stroke="#292526" stroke-width="1.62" stroke-miterlimit="22.926"/>
<path fill-rule="evenodd" clip-rule="evenodd" d="M391.276 3L385.956 8.31827L381.985 4.18965L381.753 3.94884H381.419L360.781 3.94884H359.996L359.996 4.73384L359.996 25.0032L359.996 25.3284L360.226 25.5583L364.378 29.7085L360.226 33.8587L359.996 34.0887L359.996 34.4139L359.996 55.0452L359.996 55.8302H360.781L381.057 55.8302H381.382L381.612 55.6004L385.764 51.4498L391.533 57.2169L385.867 62.8808L381.985 58.8445L381.753 58.6036H381.419L360.781 58.6036H359.996L359.996 59.3886L359.996 79.658L359.996 79.9855L360.229 80.2159L364.398 84.3429L360.226 88.5135L359.996 88.7435L359.996 89.0687L359.996 109.7L359.996 110.485H360.781H381.057H381.382L381.612 110.255L385.855 106.014L391.533 111.691L385.867 117.355L381.985 113.318L381.753 113.077H381.419H360.781H359.996L359.996 113.862L359.996 134.132L359.996 134.459L360.229 134.69L364.398 138.817L360.226 142.987L359.996 143.217L359.996 143.543L359.996 164.174L359.996 164.959H360.781H381.057H381.382L381.612 164.729L385.764 160.578L391.533 166.346L385.956 171.921L381.985 167.792L381.753 167.551H381.419H360.781H359.996L359.996 168.336L359.996 188.606L359.996 188.933L360.229 189.164L364.398 193.291L360.226 197.461L359.996 197.691L359.996 198.016L359.996 218.648L359.996 219.433H360.781H381.057H381.382L381.612 219.203L385.764 215.052L391.533 220.819L385.956 226.395L381.985 222.266L381.753 222.025H381.419H360.781H359.996L359.996 222.81L359.996 243.079L359.996 243.407L360.229 243.637L364.398 247.764L360.226 251.935L359.996 252.165L359.996 252.49L359.996 272.941L359.996 273.726H360.781H381.057H381.382L381.612 273.496L385.674 269.436L391.533 275.293L385.867 280.957L381.985 276.921L381.753 276.68H381.419H360.781H359.996L359.996 277.465L359.996 297.734L359.996 298.062L360.229 298.292L364.398 302.419L360.226 306.59L359.996 306.82L359.996 307.145L359.996 327.776V328.561H360.781H381.057H381.382L381.612 328.332L385.855 324.09L391.533 329.767L385.956 335.342L381.985 331.214L381.753 330.973H381.419H360.781H359.996V331.758V352.027V352.352L360.226 352.582L365.657 358.012L366.767 356.901L361.566 351.702L361.566 332.543H381.085L384.846 336.452L379.156 342.14L377.991 340.975L377.753 340.737L377.416 340.746L370.356 340.927L369.591 340.946V341.712V348.227V348.552L369.821 348.782L379.235 358.193L380.345 357.082L380.267 357.004L385.934 351.338L389.905 355.467L390.137 355.708H390.471H411.109H411.894V354.923V334.653V334.326L411.661 334.096L407.037 329.518L411.483 325.074L411.713 324.844V324.519V304.249V303.464H410.928H390.652H390.327L390.097 303.694L385.764 308.026L380.267 302.53L385.934 296.865L389.905 300.993L390.137 301.234H390.471H411.109H411.894V300.449V280.18V279.852L411.661 279.622L407.037 275.044L411.483 270.6L411.713 270.37V270.045V249.776V248.991H410.928H390.652H390.327L390.097 249.22L385.855 253.461L380.267 247.875L385.934 242.21L389.905 246.338L390.137 246.579H390.471H411.109H411.894V245.794L411.894 225.525V225.197L411.661 224.967L407.128 220.48L411.483 216.126L411.713 215.896V215.571V195.302V194.517H410.928H390.652H390.327L390.097 194.747L385.855 198.988L380.267 193.401L385.934 187.736L389.905 191.864L390.137 192.105H390.471H411.109H411.894V191.32V171.051V170.723L411.661 170.493L407.037 165.916L411.483 161.471L411.713 161.242V160.916V140.647V139.862H410.928H390.652H390.327L390.097 140.092L385.764 144.423L380.267 138.928L385.934 133.262L389.905 137.391L390.137 137.631H390.471H411.109H411.894V136.846V116.577V116.25L411.661 116.019L407.037 111.442L411.483 106.998L411.713 106.768V106.442L411.713 86.1731V85.3881H410.928H390.652H390.327L390.097 85.618L385.764 89.9495L380.267 84.4538L385.934 78.7882L389.905 82.9168L390.137 83.1576H390.471H411.109H411.894V82.3726V62.1033V61.7758L411.661 61.5454L407.128 57.0582L411.483 52.7048L411.713 52.4748V52.1496V31.6993V30.9143H410.928H390.652H390.327L390.097 31.1441L385.855 35.3852L380.267 29.799L385.934 24.1334L389.905 28.262L390.137 28.5028H390.471H411.109H411.894V27.7178V7.44849V7.12097L411.661 6.89058L407.731 3H405.499L410.324 7.77599V26.9328H390.805L387.045 23.0232L392.553 17.5168L393.899 18.8622L394.137 19.1004L394.474 19.0918L401.534 18.9108L402.299 18.8912V18.1261L402.299 11.6109V11.2857L402.069 11.0558L394.011 3H391.276ZM394.771 17.5137L393.663 16.4068L399.432 10.6397L400.729 11.9362V17.3609L394.771 17.5137ZM392.644 3.85307L398.322 9.52969L379.156 28.6891L373.478 23.0124L392.644 3.85307ZM378.136 16.1353L372.367 21.9024L371.161 20.6965V15.2717L377.12 15.1189L378.136 16.1353ZM384.846 9.42844L379.247 15.0254L377.991 13.7704L377.753 13.5322L377.416 13.5408L370.356 13.7218L369.591 13.7414V14.5065V21.0217V21.3469L369.821 21.5769L384.744 36.4951L379.066 42.1718L361.566 24.6779L361.566 5.51884L381.085 5.51884L384.846 9.42844ZM372.255 37.5836L377.955 43.2818L376.749 44.4875H370.98V38.7428L372.255 37.5836ZM365.488 30.8185L371.144 36.4724L369.667 37.8145L369.41 38.0481V38.3954V45.2725V46.0575H370.195H377.074H377.399L377.629 45.8277L390.977 32.4843H410.143V51.8244L406.013 55.9537L400.397 50.395L402.25 48.5423L402.48 48.3124V47.9871V41.472V40.687H401.695H394.635H394.31L394.08 40.9168L380.732 54.2602L361.566 54.2602L361.566 34.7391L365.488 30.8185ZM400.91 47.6619L399.281 49.2905L393.575 43.6419L394.96 42.257H400.91V47.6619ZM386.874 50.3398L392.464 44.7518L410.324 62.4308V81.5876H390.805L387.045 77.678L392.644 72.0811L393.899 73.336L394.137 73.5742L394.474 73.5656L401.534 73.3846L402.299 73.3651V72.5999V66.0847V65.7595L402.069 65.5296L386.874 50.3398ZM394.771 71.9875L393.754 70.9711L399.523 65.204L400.729 66.41V71.8348L394.771 71.9875ZM392.644 58.3269L398.413 64.094L379.156 83.3439L373.387 77.5767L392.644 58.3269ZM378.046 70.6996L372.277 76.4668L371.161 75.3513V69.9265L377.12 69.7738L378.046 70.6996ZM384.757 63.991L379.156 69.5897L377.991 68.4252L377.753 68.187L377.416 68.1956L370.356 68.3766L369.591 68.3962V69.1613V75.6765V76.0017L369.821 76.2317L384.654 91.0595L379.062 96.6492L361.566 79.3305L361.566 60.1736L381.085 60.1736L384.757 63.991ZM372.222 92.0877L377.952 97.7592L376.749 98.9613H370.98V93.2166L372.222 92.0877ZM365.514 85.4474L371.105 90.9816L369.667 92.2883L369.41 92.5219V92.8692V99.7463V100.531H370.195H377.074H377.399L377.629 100.302L390.977 86.9581H410.143L410.143 106.117L405.922 110.337L400.488 104.959L402.25 103.197L402.48 102.967V102.642V96.1268V95.3418H401.695H394.635H394.31L394.08 95.5717L380.732 108.915H361.566L361.566 89.394L365.514 85.4474ZM400.91 102.317L399.372 103.854L393.666 98.2057L394.96 96.9118H400.91V102.317ZM386.965 104.904L392.555 99.3157L410.324 116.905V136.061H390.805L387.045 132.152L392.644 126.555L393.899 127.81L394.137 128.048L394.474 128.039L401.534 127.858L402.299 127.839V127.074V120.559V120.233L402.069 120.003L386.965 104.904ZM394.771 126.461L393.754 125.445L399.523 119.678L400.729 120.884V126.309L394.771 126.461ZM392.644 112.801L398.413 118.568L379.156 137.818L373.387 132.051L392.644 112.801ZM378.046 125.173L372.277 130.941L371.161 129.825V124.4L377.12 124.248L378.046 125.173ZM384.757 118.465L379.156 124.064L377.991 122.899L377.753 122.661L377.416 122.669L370.356 122.85L369.591 122.87V123.635V130.15V130.476L369.821 130.706L384.654 145.533L379.062 151.123L361.566 133.804L361.566 114.647H381.085L384.757 118.465ZM372.222 146.562L377.952 152.233L376.749 153.435H370.98V147.69L372.222 146.562ZM365.514 139.921L371.105 145.455L369.667 146.762L369.41 146.996V147.343V154.22V155.005H370.195H377.074H377.399L377.629 154.775L390.977 141.432H410.143V160.591L405.922 164.811L400.488 159.433L402.25 157.671L402.48 157.441V157.116V150.601V149.816H401.695H394.635H394.31L394.08 150.045L380.732 163.389H361.566L361.566 143.868L365.514 139.921ZM400.91 156.791L399.372 158.328L393.666 152.68L394.96 151.386H400.91V156.791ZM386.874 159.468L392.555 153.79L410.324 171.378V190.535H390.805L387.045 186.626L392.553 181.119L393.899 182.465L394.137 182.703L394.474 182.694L401.534 182.513L402.299 182.494V181.729V175.213V174.888L402.069 174.658L386.874 159.468ZM394.771 181.116L393.663 180.009L399.432 174.242L400.729 175.539V180.963L394.771 181.116ZM392.644 167.456L398.322 173.132L379.156 192.292L373.478 186.615L392.644 167.456ZM378.136 179.738L372.367 185.505L371.161 184.299V178.874L377.12 178.721L378.136 179.738ZM384.846 173.031L379.247 178.628L377.991 177.373L377.753 177.135L377.416 177.143L370.356 177.324L369.591 177.344V178.109V184.624V184.949L369.821 185.179L384.744 200.098L379.153 205.687L361.566 188.278L361.566 169.121H381.085L384.846 173.031ZM372.318 201.13L378.043 206.797L376.749 208.09H370.98V202.345L372.318 201.13ZM365.514 194.395L371.2 200.024L369.667 201.417L369.41 201.651V201.998V208.875V209.66H370.195H377.074H377.399L377.629 209.43L390.977 196.087H410.143V215.246L406.012 219.375L400.488 213.907L402.25 212.145L402.48 211.915V211.59V205.074V204.289H401.695H394.635H394.31L394.08 204.519L380.732 217.863H361.566L361.566 198.342L365.514 194.395ZM400.91 211.264L399.372 212.802L393.666 207.153L394.96 205.859H400.91V211.264ZM386.874 213.942L392.555 208.263L410.324 225.852L410.324 245.009H390.805L387.045 241.1L392.553 235.593L393.899 236.939L394.137 237.177L394.474 237.168L401.534 236.987L402.299 236.967V236.202V229.687V229.362L402.069 229.132L386.874 213.942ZM394.771 235.59L393.663 234.483L399.432 228.716L400.729 230.012V235.437L394.771 235.59ZM392.644 221.929L398.322 227.606L379.156 246.765L373.478 241.089L392.644 221.929ZM378.136 234.212L372.367 239.979L371.161 238.773V233.348L377.12 233.195L378.136 234.212ZM384.846 227.505L379.247 233.102L377.991 231.847L377.753 231.609L377.416 231.617L370.356 231.798L369.591 231.818V232.583V239.098V239.423L369.821 239.653L384.744 254.571L379.153 260.161L361.566 242.752L361.566 223.595H381.085L384.846 227.505ZM372.318 255.604L378.043 261.271L376.749 262.564H370.98V256.819L372.318 255.604ZM365.514 248.869L371.2 254.497L369.667 255.891L369.41 256.124V256.472V263.349V264.134H370.195H377.074H377.399L377.629 263.904L390.977 250.561H410.143V269.72L405.922 273.94L400.306 268.381L402.25 266.438L402.48 266.208V265.882V259.367V258.582H401.695H394.635H394.31L394.08 258.812L380.732 272.156H361.566L361.566 252.815L365.514 248.869ZM400.91 265.557L399.19 267.277L393.484 261.628L394.96 260.152H400.91V265.557ZM386.784 268.326L392.373 262.738L410.324 280.507V299.664H390.805L387.045 295.754L392.644 290.157L393.899 291.412L394.137 291.651L394.474 291.642L401.534 291.461L402.299 291.441V290.676V284.161V283.836L402.069 283.606L386.784 268.326ZM394.771 290.064L393.754 289.047L399.523 283.28L400.729 284.486V289.911L394.771 290.064ZM392.644 276.403L398.413 282.17L379.156 301.42L373.387 295.653L392.644 276.403ZM378.046 288.776L372.277 294.543L371.161 293.428V288.003L377.12 287.85L378.046 288.776ZM384.757 282.067L379.156 287.666L377.991 286.502L377.753 286.263L377.416 286.272L370.356 286.453L369.591 286.473V287.238V293.753V294.078L369.821 294.308L384.654 309.136L379.062 314.726L361.566 297.407L361.566 278.25H381.085L384.757 282.067ZM372.222 310.164L377.952 315.836L376.749 317.038H370.98V311.293L372.222 310.164ZM365.514 303.524L371.105 309.058L369.667 310.365L369.41 310.598V310.946V317.823V318.608H370.195H377.074H377.399L377.629 318.378L390.977 305.034H410.143V324.194L405.922 328.414L400.488 323.035L402.25 321.273L402.48 321.044V320.718L402.48 314.203V313.418H401.695H394.635H394.31L394.08 313.648L380.732 326.991H361.566L361.566 307.47L365.514 303.524ZM400.91 320.393L399.372 321.931L393.666 316.282L394.96 314.988H400.91L400.91 320.393ZM386.965 322.98L392.555 317.392L410.324 334.981V354.138H390.805L387.045 350.228L392.643 344.631L393.899 345.886L394.137 346.124L394.474 346.116L401.534 345.935L402.299 345.915V345.15V338.635V338.31L402.069 338.08L386.965 322.98ZM394.771 344.538L393.754 343.521L399.523 337.754L400.729 338.96L400.729 344.385L394.771 344.538ZM392.644 330.877L398.413 336.644L379.156 355.894L373.387 350.127L392.644 330.877ZM378.046 343.25L372.277 349.017L371.161 347.901V342.477L377.12 342.324L378.046 343.25Z" fill="#42CFEE"/>
</svg>
