<svg width="44" height="37" viewBox="0 0 44 37" fill="none" xmlns="http://www.w3.org/2000/svg">
<rect x="1.5" y="35" width="21" height="27" rx="1.5" transform="rotate(-90 1.5 35)" stroke="#42CFEE" stroke-width="3"/>
<path d="M8 31L8 23" stroke="#42CFEE" stroke-width="3" stroke-linecap="round"/>
<path d="M19 31L19 29" stroke="#42CFEE" stroke-width="3" stroke-linecap="round"/>
<path d="M14 31L14 20" stroke="#42CFEE" stroke-width="3" stroke-linecap="round"/>
<path d="M26.5245 6.31763C26.6741 5.85697 27.3259 5.85697 27.4755 6.31763L28.9411 10.8283C29.4097 12.2704 30.7535 13.2467 32.2698 13.2467L37.0126 13.2467C37.497 13.2467 37.6983 13.8665 37.3065 14.1512L33.4695 16.939C32.2428 17.8302 31.7295 19.41 32.1981 20.8521L33.6637 25.3627C33.8133 25.8234 33.2861 26.2064 32.8942 25.9217L29.0572 23.134C27.8305 22.2427 26.1695 22.2427 24.9428 23.134L21.1058 25.9217C20.7139 26.2064 20.1867 25.8234 20.3363 25.3627L21.8019 20.8521C22.2705 19.41 21.7572 17.8302 20.5305 16.939L16.6935 14.1512C16.3017 13.8665 16.503 13.2467 16.9874 13.2467L21.7302 13.2467C23.2465 13.2467 24.5903 12.2703 25.0589 10.8283L26.5245 6.31763Z" fill="#F5F5F5" stroke="#42CFEE" stroke-width="3"/>
</svg>
